<?xml version="1.0" encoding="utf-8"?>
<!DOCTYPE svg PUBLIC "-//W3C//DTD SVG 1.1//EN" "http://www.w3.org/Graphics/SVG/1.1/DTD/svg11.dtd">
<svg version="1.1" xmlns="http://www.w3.org/2000/svg" xmlns:xlink="http://www.w3.org/1999/xlink" width="32" height="32" viewBox="0 0 32 32">
<path d="M12.875 23l12-12.063-0.75-0.75-11.625 11.625-5.625-5.688-0.75 0.813 6 6.063zM16 32c0 0 0 0 0 0 4.25 0 8.313-1.688 11.313-4.688s4.688-7.063 4.688-11.313c0-4.25-1.688-8.313-4.688-11.313s-7.063-4.688-11.313-4.688c0 0 0 0 0 0-4.25 0-8.313 1.688-11.313 4.688s-4.688 7.063-4.688 11.313c0 4.25 1.688 8.313 4.688 11.313s7.063 4.688 11.313 4.688zM5.375 5.375c2.875-2.813 6.625-4.375 10.625-4.375 0 0 0 0 0 0 4 0 7.75 1.563 10.625 4.375 2.813 2.875 4.375 6.625 4.375 10.625s-1.563 7.75-4.375 10.625c-2.875 2.813-6.625 4.375-10.625 4.375v0c0 0 0 0 0 0-4 0-7.75-1.563-10.625-4.375-2.813-2.875-4.375-6.625-4.375-10.625s1.563-7.75 4.375-10.625z"></path>
</svg>
