<?xml version="1.0" encoding="utf-8"?>
<!DOCTYPE svg PUBLIC "-//W3C//DTD SVG 1.1//EN" "http://www.w3.org/Graphics/SVG/1.1/DTD/svg11.dtd">
<svg version="1.1" xmlns="http://www.w3.org/2000/svg" xmlns:xlink="http://www.w3.org/1999/xlink" width="32" height="32" viewBox="0 0 32 32">
<path d="M16 30.75l-6.625-6.625-0.75 0.813 7 7.063h0.688l7-7.063-0.688-0.75zM15.688 0l-7.063 7.063 0.75 0.75 6.625-6.625 6.688 6.625 0.688-0.75-7-7.063zM19 16c0-1.688-1.375-3-3-3-1.688 0-3 1.313-3 3 0 1.625 1.313 3 3 3 1.625 0 3-1.375 3-3zM14 16c0-1.125 0.875-2 2-2 1.063 0 2 0.875 2 2 0 1.063-0.938 2-2 2-1.125 0-2-0.938-2-2zM24.125 9.375l6.688 6.625-6.688 6.625 0.813 0.75 7.063-7v-0.75l-7.063-7zM7.813 9.313l-0.75-0.688-7.063 7v0.688l7.063 7 0.75-0.688-6.625-6.688z"></path>
</svg>
