<?xml version="1.0" encoding="utf-8"?>
<!DOCTYPE svg PUBLIC "-//W3C//DTD SVG 1.1//EN" "http://www.w3.org/Graphics/SVG/1.1/DTD/svg11.dtd">
<svg version="1.1" xmlns="http://www.w3.org/2000/svg" xmlns:xlink="http://www.w3.org/1999/xlink" width="32" height="32" viewBox="0 0 32 32">
<path d="M5.563 23.563c0.375-0.375 0.375-1 0-1.438l-2.125-2.125h17.563c0.563 0 1-0.438 1-1s-0.438-1-1-1h-17.563l2.25-2.313c0.438-0.375 0.438-1 0-1.375-0.375-0.438-1-0.438-1.375 0l-4 4c-0.188 0.188-0.313 0.438-0.313 0.688s0.125 0.5 0.313 0.688l3.813 3.875c0.438 0.375 1.063 0.375 1.438 0zM31.688 12.313l-3.813-3.875c-0.438-0.375-1.063-0.375-1.438 0-0.375 0.438-0.375 1.063 0 1.438l2.125 2.125h-17.563c-0.563 0-1 0.438-1 1s0.438 1 1 1h17.563l-2.25 2.313c-0.438 0.375-0.438 1 0 1.438 0.375 0.375 1 0.375 1.375 0l4-4c0.188-0.188 0.313-0.5 0.313-0.75s-0.125-0.5-0.313-0.688z"></path>
</svg>
