<?xml version="1.0" encoding="utf-8"?>
<!DOCTYPE svg PUBLIC "-//W3C//DTD SVG 1.1//EN" "http://www.w3.org/Graphics/SVG/1.1/DTD/svg11.dtd">
<svg version="1.1" xmlns="http://www.w3.org/2000/svg" xmlns:xlink="http://www.w3.org/1999/xlink" width="32" height="32" viewBox="0 0 32 32">
<path d="M27 16c-0.563 0-1 0.438-1 1v7.563l-20.313-20.25c-0.375-0.438-1-0.438-1.375 0-0.438 0.375-0.438 1 0 1.375l20.25 20.313h-7.563c-0.563 0-1 0.438-1 1s0.438 1 1 1h10c0.125 0 0.25 0 0.375-0.063 0.25-0.125 0.438-0.313 0.563-0.563 0.063-0.125 0.063-0.25 0.063-0.375 0 0 0 0 0 0v-10c0-0.563-0.438-1-1-1z"></path>
</svg>
