<?xml version="1.0" encoding="utf-8"?>
<!DOCTYPE svg PUBLIC "-//W3C//DTD SVG 1.1//EN" "http://www.w3.org/Graphics/SVG/1.1/DTD/svg11.dtd">
<svg version="1.1" xmlns="http://www.w3.org/2000/svg" xmlns:xlink="http://www.w3.org/1999/xlink" width="32" height="32" viewBox="0 0 32 32">
<path d="M18.25 31.688c0.25 0.25 0.5 0.313 0.75 0.313s0.5-0.063 0.688-0.313l3.875-3.813c0.375-0.375 0.375-1.063 0-1.438s-1.063-0.375-1.438 0l-2.125 2.125v-17.563c0-0.563-0.438-1-1-1s-1 0.438-1 1v17.625l-2.313-2.313c-0.375-0.375-1-0.375-1.375 0-0.438 0.375-0.438 1 0 1.438zM13 22c0.563 0 1-0.438 1-1v-17.563l2.313 2.25c0.375 0.438 1 0.438 1.375 0 0.438-0.375 0.438-1 0-1.375l-3.938-4c-0.25-0.188-0.5-0.313-0.75-0.313s-0.5 0.125-0.688 0.313l-3.875 3.813c-0.375 0.438-0.375 1.063 0 1.438s1.063 0.375 1.438 0l2.125-2.125v17.563c0 0.563 0.438 1 1 1z"></path>
</svg>
