<?xml version="1.0" encoding="utf-8"?>
<!DOCTYPE svg PUBLIC "-//W3C//DTD SVG 1.1//EN" "http://www.w3.org/Graphics/SVG/1.1/DTD/svg11.dtd">
<svg version="1.1" xmlns="http://www.w3.org/2000/svg" xmlns:xlink="http://www.w3.org/1999/xlink" width="32" height="32" viewBox="0 0 32 32">
<path d="M31.938 16.625c-0.063-0.125-0.125-0.25-0.25-0.313l-4-4c-0.375-0.438-1-0.438-1.375 0-0.438 0.375-0.438 1 0 1.375l2.25 2.313h-25.125l2.25-2.313c0.438-0.375 0.438-1 0-1.375-0.375-0.438-1-0.438-1.375 0l-4 4c0 0 0 0 0 0-0.125 0.063-0.188 0.188-0.25 0.313s-0.063 0.25-0.063 0.375c0 0 0 0 0 0 0 0.125 0 0.25 0.063 0.375s0.125 0.25 0.25 0.313c0 0 0 0 0 0l4 4c0.375 0.438 1 0.438 1.375 0 0.438-0.375 0.438-1 0-1.375l-2.25-2.313h25.125l-2.25 2.313c-0.438 0.375-0.438 1 0 1.375 0.375 0.438 1 0.438 1.375 0l4-4c0.125-0.063 0.188-0.188 0.25-0.313s0.063-0.25 0.063-0.375c0 0 0 0 0 0 0-0.125 0-0.25-0.063-0.375z"></path>
</svg>
