<?xml version="1.0" encoding="utf-8"?>
<!DOCTYPE svg PUBLIC "-//W3C//DTD SVG 1.1//EN" "http://www.w3.org/Graphics/SVG/1.1/DTD/svg11.dtd">
<svg version="1.1" xmlns="http://www.w3.org/2000/svg" xmlns:xlink="http://www.w3.org/1999/xlink" width="32" height="32" viewBox="0 0 32 32">
<path d="M4 15c0 0.563 0.438 1 1 1s1-0.438 1-1v-7.563l20.313 20.25c0.375 0.438 1 0.438 1.375 0 0.438-0.375 0.438-1 0-1.375l-20.25-20.313h7.563c0.563 0 1-0.438 1-1s-0.438-1-1-1h-10c-0.125 0-0.25 0-0.375 0.063s-0.25 0.125-0.313 0.25c0 0 0 0 0 0s0 0 0 0c-0.125 0.063-0.188 0.188-0.25 0.313s-0.063 0.25-0.063 0.375z"></path>
</svg>
