<?xml version="1.0" encoding="utf-8"?>
<!DOCTYPE svg PUBLIC "-//W3C//DTD SVG 1.1//EN" "http://www.w3.org/Graphics/SVG/1.1/DTD/svg11.dtd">
<svg version="1.1" xmlns="http://www.w3.org/2000/svg" xmlns:xlink="http://www.w3.org/1999/xlink" width="32" height="32" viewBox="0 0 32 32">
<path d="M20.313 5.688c0.375 0.438 1 0.438 1.375 0 0.438-0.375 0.438-1 0-1.375l-4-4c-0.063-0.125-0.188-0.188-0.313-0.25-0.25-0.063-0.5-0.063-0.75 0-0.125 0.063-0.25 0.125-0.313 0.25 0 0 0 0 0 0l-4 4c-0.438 0.375-0.438 1 0 1.375 0.375 0.438 1 0.438 1.375 0l2.313-2.25v25.125l-2.313-2.25c-0.375-0.438-1-0.438-1.375 0-0.438 0.375-0.438 1 0 1.375l4 4c0 0 0 0 0 0 0.063 0.125 0.188 0.188 0.313 0.25 0.25 0.063 0.5 0.063 0.75 0 0.125-0.063 0.25-0.125 0.313-0.25l4-4c0.438-0.375 0.438-1 0-1.375-0.375-0.438-1-0.438-1.375 0l-2.313 2.25v-25.125z"></path>
</svg>
