<?xml version="1.0" encoding="utf-8"?>
<!DOCTYPE svg PUBLIC "-//W3C//DTD SVG 1.1//EN" "http://www.w3.org/Graphics/SVG/1.1/DTD/svg11.dtd">
<svg version="1.1" xmlns="http://www.w3.org/2000/svg" xmlns:xlink="http://www.w3.org/1999/xlink" width="32" height="32" viewBox="0 0 32 32">
<path d="M17 2c-8.313 0-15 6.688-15 15s6.688 15 15 15c8.313 0 15-6.688 15-15s-6.688-15-15-15zM17 30c-7.188 0-13-5.813-13-13s5.813-13 13-13c7.188 0 13 5.813 13 13s-5.813 13-13 13zM19.625 10.25c-0.438-0.375-1.125-0.375-1.563 0l-7.75 6.125c-0.438 0.313-0.438 0.875 0 1.25 0 0 0.063 0 0.063 0l7.688 6.125c0.438 0.313 1.125 0.313 1.563 0 0 0 0-0.063 0.063-0.063 0.188-0.125 0.313-0.375 0.313-0.625v-12.188c0-0.25-0.125-0.5-0.375-0.625z"></path>
</svg>
