<?xml version="1.0" encoding="utf-8"?>
<!DOCTYPE svg PUBLIC "-//W3C//DTD SVG 1.1//EN" "http://www.w3.org/Graphics/SVG/1.1/DTD/svg11.dtd">
<svg version="1.1" xmlns="http://www.w3.org/2000/svg" xmlns:xlink="http://www.w3.org/1999/xlink" width="32" height="32" viewBox="0 0 32 32">
<path d="M17 2c-8.313 0-15 6.688-15 15s6.688 15 15 15c8.313 0 15-6.688 15-15s-6.688-15-15-15zM23.75 15.938l-6.125 7.688c0 0 0 0.063-0.063 0.063-0.313 0.438-0.875 0.438-1.188 0l-6.125-7.75c-0.375-0.438-0.375-1.125 0-1.563v0c0.125-0.25 0.375-0.375 0.625-0.375h12.188c0.25 0 0.5 0.125 0.625 0.313 0 0 0.063 0 0.063 0.063 0.313 0.438 0.313 1.125 0 1.563z"></path>
</svg>
