<?xml version="1.0" encoding="utf-8"?>
<!DOCTYPE svg PUBLIC "-//W3C//DTD SVG 1.1//EN" "http://www.w3.org/Graphics/SVG/1.1/DTD/svg11.dtd">
<svg version="1.1" xmlns="http://www.w3.org/2000/svg" xmlns:xlink="http://www.w3.org/1999/xlink" width="32" height="32" viewBox="0 0 32 32">
<path d="M20.375 30.375c-2.438 0-3.813-1.625-4.375-2.625-0.625-1.063-1.375-1.25-2-1.25-0.563 0-1.125 0.125-1.75 0.25-0.563 0.125-1.188 0.25-1.75 0.25l-0.063 0.063-0.063-0.063c-3.063-0.563-5-1.75-5.813-3.5-1.125-2.625 0.688-5.5 0.75-5.625l12.313-14.188c1.813-1.375 3.438-2.063 4.813-2.063 2.875 0 3.813 3.063 3.875 4.688 0 0.063-0.063 2.438-0.125 5.188 0 2.438 0.75 3.125 0.75 3.125 0.5 0.313 0.813 0.75 0.938 1.313 0.125 1.125-0.75 2.188-0.875 2.313l-0.125 0.188h-0.25c-0.313 0.25-0.563 1.938-0.625 5 0 0.5 0 0.875-0.063 1.125-0.063 3-1.063 4.125-1.875 4.75-1.375 0.75-2.563 1.063-3.688 1.063zM14 25.438c1.25 0 2.25 0.563 2.938 1.75 0.5 0.813 1.5 2.125 3.438 2.125 0.938 0 2-0.313 3.125-0.938 0.5-0.375 1.313-1.313 1.375-3.875 0-0.25 0-0.625 0.063-1.125 0.063-3 0.188-5.5 1.375-5.938 0.188-0.313 0.563-0.875 0.438-1.313 0-0.188-0.063-0.375-0.438-0.625-0.188-0.125-1.25-1.063-1.188-4 0.063-2.813 0.125-5.125 0.125-5.125 0-0.125-0.25-3.688-2.813-3.688-1.125 0-2.5 0.625-4.125 1.813l-12.125 14c0 0-1.563 2.438-0.625 4.563 0.625 1.438 2.313 2.375 4.938 2.875 0.5 0 1-0.125 1.5-0.25 0.688-0.125 1.313-0.25 2-0.25zM23.5 16.5c-0.938 0.063-1.75 0.063-1.75 0.063v-8.063c0 0-0.25-2.125-2.375-0.625l-10.938 12.875c0 0-0.75 1.063 0 1.25 0 0 0.75 0.563 1.375 0.313 0.5-0.438 2.813-3.625 8.813-4.313-0.063 3.125 0.063 7.5 0.063 7.5s1.625 1.75 3.25 0c0-1.75-0.063-7.5-0.063-8.188 0.125 0.063 0.563-0.125 1.688-0.25 0 0 0.875-0.25-0.063-0.563zM18.875 16.563c0 0-2.5 0.188-3.5 0.25-0.938 0.063-0.25-0.438-0.25-0.438l3.75-4.188v4.375z"></path>
</svg>
