<?xml version="1.0" encoding="utf-8"?>
<!DOCTYPE svg PUBLIC "-//W3C//DTD SVG 1.1//EN" "http://www.w3.org/Graphics/SVG/1.1/DTD/svg11.dtd">
<svg version="1.1" xmlns="http://www.w3.org/2000/svg" xmlns:xlink="http://www.w3.org/1999/xlink" width="32" height="32" viewBox="0 0 32 32">
<path d="M16 0c-8.813 0-16 7.188-16 16s7.188 16 16 16c2.375 0 4.688-0.563 6.688-1.438v-1.5c-2 1.063-4.313 1.625-6.688 1.625-8.125 0-14.688-6.563-14.688-14.688s6.563-14.688 14.688-14.688c8.125 0 14.688 6.563 14.688 14.688 0 2.375-0.563 4.688-1.625 6.688h-5.063v-6.688c0-4.375-3.625-8-8-8-4.438 0-8 3.625-8 8s3.563 8 8 8c2.813 0 5.188-1.438 6.688-3.625v3.625h7.188c1.313-2.375 2.125-5.063 2.125-8 0-8.813-7.188-16-16-16zM16 22.688c-3.75 0-6.688-2.938-6.688-6.688s2.938-6.688 6.688-6.688c3.75 0 6.688 2.938 6.688 6.688s-2.938 6.688-6.688 6.688z"></path>
</svg>
