<?xml version="1.0" encoding="utf-8"?>
<!DOCTYPE svg PUBLIC "-//W3C//DTD SVG 1.1//EN" "http://www.w3.org/Graphics/SVG/1.1/DTD/svg11.dtd">
<svg version="1.1" xmlns="http://www.w3.org/2000/svg" xmlns:xlink="http://www.w3.org/1999/xlink" width="32" height="32" viewBox="0 0 32 32">
<path d="M6.313 12.563v17.688h24.563v-24.563h-19.188v-4l-10.688 7.25 5.313 3.625zM10.625 5.75c0 0 0 0.063 0 0v1.063h1c0 0 0 0 0.063 0 0 0 0.063 0 0.063 0v0c5.063 0 8.313 2.813 9.813 6.313-3.063-2.563-7-2.875-8.938-2.875-0.063 0-0.063 0-0.125 0h-1.875v3.875l-7.688-5.188 7.688-5.188v2zM7.375 13.25l4.313 2.938v-4.813c0.188 0 0.5-0.063 0.938-0.063 2.688 0 8.375 0.688 10.75 6.125 0-4.5-2.25-8.688-6.563-10.625h13v22.438h-22.438z"></path>
</svg>
