<?xml version="1.0" encoding="utf-8"?>
<!DOCTYPE svg PUBLIC "-//W3C//DTD SVG 1.1//EN" "http://www.w3.org/Graphics/SVG/1.1/DTD/svg11.dtd">
<svg version="1.1" xmlns="http://www.w3.org/2000/svg" xmlns:xlink="http://www.w3.org/1999/xlink" width="32" height="32" viewBox="0 0 32 32">
<path d="M29.375 8.563h-5.563v-3.5c0-1.438-1.125-2.625-2.563-2.625h-9.938c-1.438 0-2.625 1.188-2.625 2.625v3.5h-6.063c-1.438 0-2.625 1.188-2.625 2.625v15.75c0 1.438 1.188 2.625 2.625 2.625h26.75c1.438 0 2.625-1.188 2.625-2.625v-15.75c0-1.438-1.188-2.625-2.625-2.625zM9.75 5.063c0-0.875 0.688-1.563 1.563-1.563h9.938c0.813 0 1.563 0.688 1.563 1.563v3.5h-1.438v-2.313c0-0.813-0.75-1.563-1.563-1.563h-7.375c-0.875 0-1.563 0.75-1.563 1.563v2.313h-1.125v-3.5zM20.313 8.563h-8.438v-2.313c0-0.25 0.25-0.5 0.563-0.5h7.375c0.25 0 0.5 0.25 0.5 0.5v2.313zM29.375 9.625c0.313 0 0.563 0.063 0.813 0.188-0.875 0.875-5.813 5.688-11.375 6.75-0.375-1.125-1.375-1.875-2.563-1.875s-2.188 0.75-2.563 1.813c-5.563-0.813-10.688-5.625-11.75-6.688 0.188-0.125 0.438-0.188 0.688-0.188zM17.938 17.438c0 0.875-0.75 1.688-1.688 1.688s-1.688-0.813-1.688-1.688c0-0.938 0.75-1.75 1.688-1.75s1.688 0.813 1.688 1.75zM30.938 26.938c0 0.875-0.688 1.563-1.563 1.563h-26.75c-0.875 0-1.563-0.688-1.563-1.563v-15.75c0-0.25 0.063-0.438 0.125-0.625 1.188 1.188 6.438 6.125 12.313 6.938 0.063 1.5 1.25 2.625 2.75 2.625 1.438 0 2.625-1.125 2.688-2.563 5.813-1.063 10.813-5.813 11.938-6.938 0.063 0.188 0.063 0.375 0.063 0.563z"></path>
</svg>
