<?xml version="1.0" encoding="utf-8"?>
<!DOCTYPE svg PUBLIC "-//W3C//DTD SVG 1.1//EN" "http://www.w3.org/Graphics/SVG/1.1/DTD/svg11.dtd">
<svg version="1.1" xmlns="http://www.w3.org/2000/svg" xmlns:xlink="http://www.w3.org/1999/xlink" width="32" height="32" viewBox="0 0 32 32">
<path d="M9.313 12.375c0.125 2.438-1.188 4.5-3 4.625s-3.375-1.75-3.563-4.188c-0.188-2.438 1.125-4.563 2.938-4.688s3.438 1.75 3.625 4.25zM21.75 2.188c-1.75-0.438-3.688 1.125-4.313 3.5-0.563 2.375 0.375 4.688 2.125 5.125s3.688-1.125 4.25-3.5c0.813-3.063-1.625-5-2.063-5.125zM25.875 10.188c-1.875 0.063-3.313 1.813-3.313 4.563 0.063 2.688 1.563 3.938 3.438 3.938 1.875-0.063 3.313-1.313 3.25-4.063 0-3.563-2.938-4.438-3.375-4.438zM12.5 1.625c-1.813 0-3.188 1.938-3.188 4.375s1.375 4.375 3.188 4.375c1.75 0 3.125-1.938 3.125-4.375s-1.375-4.375-3.125-4.375zM12.063 15.25c-1 1.5-2.188 2.875-4.375 4.75-2.25 1.875-3.188 3.188-3.188 5.063 0 1.938 1.063 5.063 4.125 5.063 3.125 0 4.563-0.688 7-0.688s4.125 0.938 7.188 0.938c3.063 0 4.375-2.875 4.375-4.813 0-1.875-0.563-2.938-3-5.125-1.625-1.375-2.938-2.5-5.063-5.438-1-1.438-2.188-1.625-3.5-1.625-1.25 0-2.563 0.438-3.563 1.875z"></path>
</svg>
