<?xml version="1.0" encoding="utf-8"?>
<!DOCTYPE svg PUBLIC "-//W3C//DTD SVG 1.1//EN" "http://www.w3.org/Graphics/SVG/1.1/DTD/svg11.dtd">
<svg version="1.1" xmlns="http://www.w3.org/2000/svg" xmlns:xlink="http://www.w3.org/1999/xlink" width="32" height="32" viewBox="0 0 32 32">
<path d="M16 2.688c-7.375 0-13.313 5.938-13.313 13.313s5.938 13.313 13.313 13.313c7.375 0 13.313-5.938 13.313-13.313s-5.938-13.313-13.313-13.313zM28.25 15.438h-9.563c0.125-3.625 1.25-7.125 3.313-10.125 3.625 2.063 6.063 5.813 6.25 10.125zM16 3.75c1.813 0 3.5 0.375 5.063 1.063-2.188 3.188-3.375 6.813-3.438 10.625h-3.25c-0.063-3.813-1.25-7.438-3.438-10.625 1.563-0.688 3.25-1.063 5.063-1.063zM10 5.313c2.063 3 3.188 6.5 3.313 10.125h-9.563c0.188-4.313 2.625-8.063 6.25-10.125zM3.75 16.563h9.563c-0.063 3.625-1.25 7.125-3.313 10.125-3.563-2-6.063-5.813-6.25-10.125zM16 28.25c-1.813 0-3.5-0.375-5.063-1.063 2.188-3.188 3.375-6.813 3.438-10.625h3.25c0.063 3.813 1.25 7.438 3.438 10.625-1.563 0.688-3.25 1.063-5.063 1.063zM22 26.688c-2.063-3-3.25-6.5-3.313-10.125h9.563c-0.188 4.313-2.688 8.125-6.25 10.125z"></path>
</svg>
