<?xml version="1.0" encoding="utf-8"?>
<!DOCTYPE svg PUBLIC "-//W3C//DTD SVG 1.1//EN" "http://www.w3.org/Graphics/SVG/1.1/DTD/svg11.dtd">
<svg version="1.1" xmlns="http://www.w3.org/2000/svg" xmlns:xlink="http://www.w3.org/1999/xlink" width="32" height="32" viewBox="0 0 32 32">
<path d="M30.313 8.25l-6.75-6.75c-0.188-0.25-0.5-0.313-0.75-0.313s-0.563 0.063-0.75 0.313l-20.75 20.75c-0.438 0.438-0.438 1.063 0 1.5l6.75 6.75c0.25 0.25 0.5 0.313 0.75 0.313 0.313 0 0.563-0.063 0.75-0.313l20.75-20.75c0.438-0.375 0.438-1.063 0-1.5zM16.063 22.563l-6.813-6.75 6.063-6.063 6.75 6.813zM8.813 29.75l-6.75-6.75 6.438-6.438 6.813 6.75zM22.813 15.813l-6.75-6.813 6.75-6.75 6.75 6.75zM22.625 6.75c0 0.25-0.25 0.5-0.563 0.5s-0.5-0.25-0.5-0.5c0-0.313 0.188-0.563 0.5-0.563s0.563 0.25 0.563 0.563zM25.625 9.75c0 0.313-0.25 0.563-0.5 0.563-0.313 0-0.563-0.25-0.563-0.563s0.25-0.5 0.563-0.5c0.25 0 0.5 0.188 0.5 0.5zM20.375 9c0 0.313-0.25 0.563-0.563 0.563-0.25 0-0.5-0.25-0.5-0.563s0.25-0.5 0.5-0.5c0.313 0 0.563 0.25 0.563 0.5zM23.375 12c0 0.313-0.25 0.563-0.563 0.563s-0.563-0.25-0.563-0.563c0-0.313 0.25-0.563 0.563-0.563s0.563 0.25 0.563 0.563zM9.063 20.313c0 0.313-0.25 0.563-0.563 0.563-0.25 0-0.5-0.25-0.5-0.563s0.25-0.5 0.5-0.5c0.313 0 0.563 0.188 0.563 0.5zM12.063 23.313c0 0.313-0.25 0.5-0.563 0.5s-0.5-0.188-0.5-0.5c0-0.313 0.188-0.563 0.5-0.563s0.563 0.25 0.563 0.563zM6.75 22.563c0 0.313-0.25 0.5-0.5 0.5-0.313 0-0.563-0.188-0.563-0.5s0.25-0.563 0.563-0.563c0.25 0 0.5 0.25 0.5 0.563zM9.813 25.625c0 0.25-0.25 0.5-0.563 0.5-0.25 0-0.5-0.25-0.5-0.5 0-0.313 0.25-0.563 0.5-0.563 0.313 0 0.563 0.25 0.563 0.563z"></path>
</svg>
