<?xml version="1.0" encoding="utf-8"?>
<!DOCTYPE svg PUBLIC "-//W3C//DTD SVG 1.1//EN" "http://www.w3.org/Graphics/SVG/1.1/DTD/svg11.dtd">
<svg version="1.1" xmlns="http://www.w3.org/2000/svg" xmlns:xlink="http://www.w3.org/1999/xlink" width="32" height="32" viewBox="0 0 32 32">
<path d="M31.438 10.563l-10-10c-0.5-0.5-1.25-0.688-1.938-0.5-0.313 0.063-0.688 0.25-0.938 0.5-0.188 0.25-0.375 0.563-0.5 0.875-0.438 1.438-1.188 2.688-2.375 3.875-1.563 1.563-3.563 2.688-5.688 3.938-2.25 1.313-4.625 2.688-6.5 4.625-1.625 1.625-2.75 3.438-3.438 5.563-0.188 0.688 0 1.438 0.5 2l10 10c0.5 0.5 1.25 0.688 1.938 0.5 0.313-0.063 0.688-0.25 0.938-0.5 0.188-0.25 0.375-0.5 0.5-0.875 0.438-1.438 1.188-2.688 2.375-3.875 1.563-1.563 3.563-2.688 5.688-3.938 2.25-1.313 4.625-2.688 6.5-4.625 1.625-1.625 2.75-3.438 3.438-5.563 0.188-0.688 0-1.438-0.5-2zM12 30c-3.313-3.313-6.688-6.688-10-10 2.813-9.188 15.188-8.813 18-18 3.313 3.313 6.688 6.688 10 10-2.813 9.188-15.188 8.813-18 18zM19.563 14.875c-0.313-0.25-0.625-0.438-1-0.5-0.313-0.125-0.625-0.125-1-0.125-0.313 0-0.625 0.125-1 0.25-0.313 0.125-0.625 0.25-1 0.438-0.5-0.625-1.063-1.25-1.625-1.813 0.25-0.25 0.5-0.313 0.75-0.375 0.188 0 0.438 0.063 0.625 0.125 0.188 0 0.438 0.063 0.563 0.125 0.188 0 0.375 0 0.5-0.125s0.25-0.313 0.25-0.5c0-0.188-0.063-0.375-0.25-0.563-0.188-0.25-0.438-0.375-0.75-0.438s-0.625-0.063-0.938 0c-0.313 0.063-0.625 0.188-0.938 0.375-0.25 0.188-0.5 0.313-0.625 0.5-0.125-0.063-0.188-0.125-0.25-0.188s-0.125-0.125-0.25-0.125c-0.125 0-0.188 0.063-0.25 0.188-0.063 0.063-0.125 0.125-0.125 0.25s0.063 0.188 0.125 0.25c0.063 0.063 0.125 0.125 0.188 0.188-0.25 0.313-0.438 0.625-0.625 1-0.125 0.375-0.25 0.688-0.313 1.063 0 0.375 0 0.688 0.125 0.938 0.125 0.313 0.313 0.563 0.625 0.813 0.438 0.375 1 0.563 1.625 0.5 0.688 0 1.375-0.188 2.063-0.625 0.625 0.688 1.188 1.375 1.813 2-0.25 0.25-0.5 0.375-0.688 0.375-0.188 0.063-0.375 0.063-0.5 0-0.188-0.063-0.313-0.125-0.438-0.188-0.125-0.125-0.25-0.188-0.375-0.25s-0.313-0.125-0.438-0.125c-0.125 0-0.25 0.063-0.438 0.188-0.125 0.188-0.25 0.313-0.25 0.5s0.125 0.375 0.25 0.563c0.188 0.25 0.438 0.375 0.688 0.5s0.563 0.188 0.875 0.25c0.375 0 0.688-0.063 1.063-0.188s0.75-0.375 1.125-0.75c0.125 0.188 0.313 0.375 0.5 0.5 0.063 0.063 0.188 0.125 0.25 0.125 0.125-0.063 0.25-0.063 0.313-0.188 0.063-0.063 0.063-0.188 0.063-0.25 0-0.125-0.063-0.188-0.125-0.25-0.188-0.188-0.313-0.313-0.5-0.438 0.313-0.375 0.5-0.75 0.688-1.188 0.188-0.375 0.313-0.75 0.313-1.063 0.063-0.375 0-0.688-0.063-0.938-0.125-0.313-0.313-0.563-0.625-0.813zM14 15.563c-0.313 0-0.563-0.063-0.75-0.25-0.125-0.125-0.188-0.25-0.25-0.375 0-0.125 0-0.25 0-0.375 0-0.188 0.063-0.313 0.125-0.5 0.063-0.125 0.188-0.313 0.313-0.438 0.5 0.5 1 1.063 1.563 1.625-0.438 0.188-0.75 0.313-1 0.313zM18.688 17.563c-0.063 0.188-0.188 0.313-0.313 0.438-0.563-0.563-1.125-1.188-1.688-1.813 0.125-0.063 0.313-0.125 0.438-0.188 0.188-0.063 0.375-0.125 0.5-0.125 0.188-0.063 0.313-0.063 0.5 0s0.313 0.125 0.438 0.25c0.188 0.188 0.25 0.313 0.313 0.438 0 0.188 0 0.375 0 0.5-0.063 0.188-0.125 0.375-0.188 0.5zM14.688 22.188v0c-0.625 0.5-1.188 1-1.75 1.563-0.563 0.5-1.063 1.125-1.5 1.688l-0.688 0.938c-0.125 0.188-0.063 0.438 0.063 0.625 0.25 0.188 0.563 0.188 0.75 0 0-0.063 0.063-0.063 0.063-0.125l0.625-0.875c0.438-0.5 0.875-1.063 1.375-1.563 0.563-0.563 1.063-1 1.688-1.5v0c0.063 0 0.063 0 0.063 0 0.188-0.188 0.188-0.5 0-0.75-0.188-0.188-0.438-0.188-0.688 0zM18.375 7.688c-0.5 0.563-1.063 1-1.688 1.5 0 0-0.063 0-0.125 0.063-0.188 0.188-0.188 0.5 0 0.688s0.5 0.188 0.75 0.063v0c0.625-0.5 1.188-1 1.75-1.563s1.063-1.125 1.5-1.688l0.688-0.938c0.125-0.25 0.125-0.5-0.063-0.688-0.188-0.25-0.5-0.25-0.688 0-0.063 0-0.063 0.063-0.125 0.125l-0.625 0.875c-0.438 0.563-0.875 1.063-1.375 1.563z"></path>
</svg>
