<?xml version="1.0" encoding="utf-8"?>
<!DOCTYPE svg PUBLIC "-//W3C//DTD SVG 1.1//EN" "http://www.w3.org/Graphics/SVG/1.1/DTD/svg11.dtd">
<svg version="1.1" xmlns="http://www.w3.org/2000/svg" xmlns:xlink="http://www.w3.org/1999/xlink" width="32" height="32" viewBox="0 0 32 32">
<path d="M1.75 22.438c0.188 0.313 0.375 0.625 0.625 0.875 0.438 0.563 1 1.063 1.563 1.5 1.188 0.938 2.625 1.625 4.063 2.063 1.688 0.563 3.438 0.875 5.188 1 2 0.188 4.063 0.188 6.125-0.063 1.875-0.188 3.75-0.563 5.5-1.25 1.563-0.625 3-1.5 4.25-2.625 0.313-0.313 0.625-0.625 0.875-1 0.25-0.25 0.438-0.625 0.438-1 0.063-0.438 0-0.875-0.125-1.313-0.063-0.438-0.188-0.938-0.313-1.375-0.063-0.188-0.125-0.375-0.125-0.5-0.5-2.063-1.188-4-2.125-5.875-0.813-1.563-1.813-3.063-2.938-4.375-1.125-1.25-2.375-2.313-3.813-3.125-0.75-0.375-1.563-0.75-2.438-1-0.438-0.125-0.875-0.25-1.375-0.313-0.125-0.063-0.25-0.063-0.313-0.063-0.188 0-0.313 0-0.5 0-0.313 0-0.563 0-0.875 0-0.125 0-0.25 0-0.375 0s-0.25 0.063-0.375 0.063-0.5 0.063-0.75 0.125c-0.438 0.125-0.875 0.25-1.313 0.438-0.875 0.375-1.75 0.813-2.5 1.375-1.5 1-2.813 2.375-3.938 3.813-1.188 1.563-2.125 3.313-2.875 5.125-0.75 1.938-1.25 3.938-1.625 6 0 0.25-0.063 0.5-0.063 0.813 0 0.125 0 0.25 0 0.438 0 0.063 0 0.063 0 0.125 0.063 0.063 0.063 0.125 0.125 0.125zM3.625 21.188c0-0.125 0-0.25 0.063-0.438 0.063-0.25 0.125-0.5 0.188-0.75 0.375-0.938 0.813-1.813 1.375-2.625 0.25-0.438 0.5-0.813 0.75-1.25 0.313-0.438 0.563-0.875 0.875-1.25 0.5-0.625 1.125-1.313 1.938-1.625 1.125-0.313 1.938 0.813 2.625 1.563 0.375 0.438 0.75 0.813 1.25 1.063 0.25 0.125 0.5 0.188 0.75 0.188 0.375-0.063 0.75-0.313 1-0.563 0.813-0.625 1.438-1.438 2-2.25 0.688-0.813 1.313-1.75 2.063-2.5 0.313-0.375 0.625-0.75 1.063-0.938 0.188-0.063 0.438 0 0.625 0.063 0.125 0.063 0.188 0.125 0.25 0.188 0.125 0.125 0.25 0.188 0.313 0.25 0.813 0.625 1.563 1.313 2.25 2 0.625 0.625 1.25 1.313 1.75 2 0.563 0.625 1.125 1.313 1.563 2.063 0.5 0.875 1 1.813 1.5 2.75 0.438 0.813 0.938 1.813 0.438 2.75 0 0.063 0 0.063-0.063 0.125-0.813 1.375-2.313 2.25-3.75 2.813-1.75 0.688-3.688 1.063-5.563 1.188-1.938 0.125-3.875 0.125-5.813-0.063-1.75-0.188-3.563-0.5-5.188-1.125-1.375-0.563-2.688-1.313-3.625-2.5-0.188-0.25-0.375-0.563-0.563-0.875 0-0.063-0.063-0.063-0.063-0.125s-0.063-0.063 0-0.125z"></path>
</svg>
