<?xml version="1.0" encoding="utf-8"?>
<!DOCTYPE svg PUBLIC "-//W3C//DTD SVG 1.1//EN" "http://www.w3.org/Graphics/SVG/1.1/DTD/svg11.dtd">
<svg version="1.1" xmlns="http://www.w3.org/2000/svg" xmlns:xlink="http://www.w3.org/1999/xlink" width="32" height="32" viewBox="0 0 32 32">
<path d="M24.5 0h-17v32h17zM23.5 1v3h-15v-3zM23.5 5v20h-15v-20zM8.5 31v-5h15v5zM14 2h4v1h-4zM16 27c-0.813 0-1.5 0.688-1.5 1.5s0.688 1.5 1.5 1.5c0.813 0 1.5-0.688 1.5-1.5s-0.688-1.5-1.5-1.5zM16 29c-0.25 0-0.5-0.25-0.5-0.5s0.25-0.5 0.5-0.5c0.25 0 0.5 0.25 0.5 0.5s-0.25 0.5-0.5 0.5zM21.5 19v-8h-11v8zM11.5 17.688l2.938-2.938 2 2.5 1.063-1.063 2.25 1.813h-8.25zM19.5 12c0.563 0 1 0.438 1 1s-0.438 1-1 1c-0.563 0-1-0.438-1-1s0.438-1 1-1zM17.75 12c-0.125 0.313-0.25 0.625-0.25 1 0 1.125 0.875 2 2 2 0.375 0 0.688-0.125 1-0.25v2.625l-3-2.563-0.938 0.938-2-2.5-3.063 3.063v-4.313z"></path>
</svg>
