<?xml version="1.0" encoding="utf-8"?>
<!DOCTYPE svg PUBLIC "-//W3C//DTD SVG 1.1//EN" "http://www.w3.org/Graphics/SVG/1.1/DTD/svg11.dtd">
<svg version="1.1" xmlns="http://www.w3.org/2000/svg" xmlns:xlink="http://www.w3.org/1999/xlink" width="32" height="32" viewBox="0 0 32 32">
<path d="M26.563 10.125l3.125-3.125-4.688-4.688-3.125 3.125-2.375-0.813v-4.625h-7v4.625l-2.375 0.813-3.125-3.125-4.688 4.688 3.125 3.125-0.813 2.375h-4.625v7h4.625l0.813 2.375-3.125 3.125 4.688 4.688 3.125-3.125 2.375 0.813v4.625h7v-4.625l2.375-0.813 3.125 3.125 4.688-4.688-3.125-3.125 0.813-2.375h4.625v-7h-4.625zM31 18.5h-4.375l-1.188 3.625 2.875 2.875-3.313 3.313-2.875-2.875-3.625 1.188v4.375h-5v-4.375l-3.625-1.188-2.875 2.875-3.313-3.313 2.875-2.875-1.188-3.625h-4.375v-5h4.375l1.188-3.625-2.875-2.875 3.313-3.313 2.875 2.875 3.625-1.188v-4.375h5v4.375l3.625 1.188 2.875-2.875 3.313 3.313-2.875 2.875 1.188 3.625h4.375zM16 12.5c-1.938 0-3.5 1.563-3.5 3.5s1.563 3.5 3.5 3.5c1.938 0 3.5-1.563 3.5-3.5s-1.563-3.5-3.5-3.5zM16 18.5c-1.375 0-2.5-1.125-2.5-2.5s1.125-2.5 2.5-2.5c1.375 0 2.5 1.125 2.5 2.5s-1.125 2.5-2.5 2.5z"></path>
</svg>
