<?xml version="1.0" encoding="utf-8"?>
<!DOCTYPE svg PUBLIC "-//W3C//DTD SVG 1.1//EN" "http://www.w3.org/Graphics/SVG/1.1/DTD/svg11.dtd">
<svg version="1.1" xmlns="http://www.w3.org/2000/svg" xmlns:xlink="http://www.w3.org/1999/xlink" width="32" height="32" viewBox="0 0 32 32">
<path d="M27 7.5h-27v21h27zM26 8.5v17.438l-6.438-5.563-4.938 3-7.125-8.125-6.5 6.563v-13.313zM1 27.5v-4.313l6.5-6.438 6.875 7.875 5.063-3 6.563 5.625v0.25zM4.5 7h1v-2.5h25.5v19h-3.5v1h4.5v-21h-27.5zM20 17.5c1.625 0 3-1.375 3-3s-1.375-3-3-3c-1.625 0-3 1.375-3 3s1.375 3 3 3zM20 12.5c1.125 0 2 0.875 2 2s-0.875 2-2 2c-1.125 0-2-0.875-2-2s0.875-2 2-2z"></path>
</svg>
