<?xml version="1.0" encoding="utf-8"?>
<!DOCTYPE svg PUBLIC "-//W3C//DTD SVG 1.1//EN" "http://www.w3.org/Graphics/SVG/1.1/DTD/svg11.dtd">
<svg version="1.1" xmlns="http://www.w3.org/2000/svg" xmlns:xlink="http://www.w3.org/1999/xlink" width="32" height="32" viewBox="0 0 32 32">
<path d="M24.5 0h-17v32h17zM23.5 1v3h-15v-3zM23.5 5v20h-15v-20zM8.5 31v-5h15v5zM14 2h4v1h-4zM16 27c-0.813 0-1.5 0.688-1.5 1.5s0.688 1.5 1.5 1.5c0.813 0 1.5-0.688 1.5-1.5s-0.688-1.5-1.5-1.5zM16 29c-0.25 0-0.5-0.25-0.5-0.5s0.25-0.5 0.5-0.5c0.25 0 0.5 0.25 0.5 0.5s-0.25 0.5-0.5 0.5zM12.438 18.563c1 0.938 2.25 1.438 3.563 1.438v0c2.75 0 5-2.25 5-5 0-1.313-0.5-2.563-1.438-3.563-1-0.938-2.25-1.438-3.563-1.438s-2.563 0.5-3.563 1.438c-0.938 1-1.438 2.25-1.438 3.563s0.5 2.563 1.438 3.563zM16 11c1.063 0 2.063 0.438 2.813 1.188s1.188 1.75 1.188 2.813c0 0.938-0.313 1.75-0.875 2.438l-5.563-5.625c0.688-0.5 1.563-0.813 2.438-0.813zM12.813 12.563l5.625 5.563c-0.688 0.563-1.5 0.875-2.438 0.875-1.063 0-2.063-0.438-2.813-1.188s-1.188-1.75-1.188-2.813c0-0.875 0.313-1.75 0.813-2.438z"></path>
</svg>
