<?xml version="1.0" encoding="utf-8"?>
<!DOCTYPE svg PUBLIC "-//W3C//DTD SVG 1.1//EN" "http://www.w3.org/Graphics/SVG/1.1/DTD/svg11.dtd">
<svg version="1.1" xmlns="http://www.w3.org/2000/svg" xmlns:xlink="http://www.w3.org/1999/xlink" width="32" height="32" viewBox="0 0 32 32">
<path d="M27 32v-32h-22v3.5h-1.5v1h1.5v3h-1.5v1h1.5v3h-1.5v1h1.5v3h-1.5v1h1.5v3h-1.5v1h1.5v3h-1.5v1h1.5v3h-1.5v1h1.5v3.5zM26 31h-5v-30h5zM6 24.5h1.5v-1h-1.5v-3h1.5v-1h-1.5v-3h1.5v-1h-1.5v-3h1.5v-1h-1.5v-3h1.5v-1h-1.5v-3h1.5v-1h-1.5v-2.5h14v30h-14v-2.5h1.5v-1h-1.5z"></path>
</svg>
