<?xml version="1.0" encoding="utf-8"?>
<!DOCTYPE svg PUBLIC "-//W3C//DTD SVG 1.1//EN" "http://www.w3.org/Graphics/SVG/1.1/DTD/svg11.dtd">
<svg version="1.1" xmlns="http://www.w3.org/2000/svg" xmlns:xlink="http://www.w3.org/1999/xlink" width="32" height="32" viewBox="0 0 32 32">
<path d="M14.5 17c0.813 0 1.5-0.25 2.063-0.688l3.563 3.563 0.75-0.75-3.563-3.563c0.438-0.563 0.688-1.25 0.688-2.063 0-1.938-1.563-3.5-3.5-3.5s-3.5 1.563-3.5 3.5c0 1.938 1.563 3.5 3.5 3.5zM14.5 11c1.375 0 2.5 1.125 2.5 2.5s-1.125 2.5-2.5 2.5c-1.375 0-2.5-1.125-2.5-2.5s1.125-2.5 2.5-2.5zM27 0h-22v32h22zM26 1v3h-20v-3zM26 5v20h-20v-20zM6 31v-5h20v5zM14 2h4v1h-4zM16 27c-0.813 0-1.5 0.688-1.5 1.5s0.688 1.5 1.5 1.5c0.813 0 1.5-0.688 1.5-1.5s-0.688-1.5-1.5-1.5zM16 29c-0.25 0-0.5-0.25-0.5-0.5s0.25-0.5 0.5-0.5c0.25 0 0.5 0.25 0.5 0.5s-0.25 0.5-0.5 0.5z"></path>
</svg>
