<?xml version="1.0" encoding="utf-8"?>
<!DOCTYPE svg PUBLIC "-//W3C//DTD SVG 1.1//EN" "http://www.w3.org/Graphics/SVG/1.1/DTD/svg11.dtd">
<svg version="1.1" xmlns="http://www.w3.org/2000/svg" xmlns:xlink="http://www.w3.org/1999/xlink" width="32" height="32" viewBox="0 0 32 32">
<path d="M0 24h8.5v6.563l7.688-6.563h15.813v-22h-32zM1 3h30v20h-15.188l-6.313 5.438v-5.438h-8.5zM15.75 17.938l0.25 0.125 0.25-0.125c0.188-0.125 5.25-2.875 5.25-6.438 0-1.688-1.313-3-3-3-1.063 0-1.938 0.563-2.5 1.313-0.563-0.75-1.438-1.313-2.5-1.313-1.688 0-3 1.313-3 3 0 3.563 5.063 6.313 5.25 6.438zM13.5 9.5c1.125 0 2 0.875 2 2h1c0-1.125 0.875-2 2-2 1.188 0 2 0.813 2 2 0 2.625-3.563 4.875-4.5 5.438-0.938-0.563-4.5-2.813-4.5-5.438 0-1.188 0.813-2 2-2z"></path>
</svg>
