<?xml version="1.0" encoding="utf-8"?>
<!DOCTYPE svg PUBLIC "-//W3C//DTD SVG 1.1//EN" "http://www.w3.org/Graphics/SVG/1.1/DTD/svg11.dtd">
<svg version="1.1" xmlns="http://www.w3.org/2000/svg" xmlns:xlink="http://www.w3.org/1999/xlink" width="32" height="32" viewBox="0 0 32 32">
<path d="M24.5 0h-17v32h17zM23.5 1v3h-15v-3zM23.5 5v20h-15v-20zM8.5 31v-5h15v5zM14 2h4v1h-4zM16 27c-0.813 0-1.5 0.688-1.5 1.5s0.688 1.5 1.5 1.5c0.813 0 1.5-0.688 1.5-1.5s-0.688-1.5-1.5-1.5zM16 29c-0.25 0-0.5-0.25-0.5-0.5s0.25-0.5 0.5-0.5c0.25 0 0.5 0.25 0.5 0.5s-0.25 0.5-0.5 0.5zM12.5 20.5c1.125 0 2-0.875 2-2v-5.063l4-0.813v3.125c-0.313-0.125-0.625-0.25-1-0.25-1.125 0-2 0.875-2 2s0.875 2 2 2c1.125 0 2-0.875 2-2v-8.125l-6 1.188v6.188c-0.313-0.125-0.625-0.25-1-0.25-1.125 0-2 0.875-2 2s0.875 2 2 2zM17.5 18.5c-0.563 0-1-0.438-1-1s0.438-1 1-1c0.563 0 1 0.438 1 1s-0.438 1-1 1zM18.5 10.625v0.938l-4 0.813v-0.938zM12.5 17.5c0.563 0 1 0.438 1 1s-0.438 1-1 1c-0.563 0-1-0.438-1-1s0.438-1 1-1z"></path>
</svg>
