<?xml version="1.0" encoding="utf-8"?>
<!DOCTYPE svg PUBLIC "-//W3C//DTD SVG 1.1//EN" "http://www.w3.org/Graphics/SVG/1.1/DTD/svg11.dtd">
<svg version="1.1" xmlns="http://www.w3.org/2000/svg" xmlns:xlink="http://www.w3.org/1999/xlink" width="32" height="32" viewBox="0 0 32 32">
<path d="M12.5 18.5h7c1.25 0 2-0.75 2-2 0-0.625-0.5-1.688-1.5-1.938-0.25-1.75-1.875-3.063-4-3.063-1.875 0-3.438 1.5-3.875 3.063-1.063 0.188-1.625 1.313-1.625 1.938 0 1.25 0.75 2 2 2zM12.5 15.5h0.438l0.063-0.375c0.25-1.25 1.563-2.625 3-2.625s3 0.875 3 2.5v0.5h0.5c0.688 0 1 0.75 1 1 0 0.688-0.313 1-1 1h-7c-0.75 0-1-0.25-1-1 0-0.25 0.313-1 1-1zM27 0h-22v32h22zM26 1v3h-20v-3zM26 5v20h-20v-20zM6 31v-5h20v5zM14 2h4v1h-4zM16 27c-0.813 0-1.5 0.688-1.5 1.5s0.688 1.5 1.5 1.5c0.813 0 1.5-0.688 1.5-1.5s-0.688-1.5-1.5-1.5zM16 29c-0.25 0-0.5-0.25-0.5-0.5s0.25-0.5 0.5-0.5c0.25 0 0.5 0.25 0.5 0.5s-0.25 0.5-0.5 0.5z"></path>
</svg>
