<?xml version="1.0" encoding="utf-8"?>
<!DOCTYPE svg PUBLIC "-//W3C//DTD SVG 1.1//EN" "http://www.w3.org/Graphics/SVG/1.1/DTD/svg11.dtd">
<svg version="1.1" xmlns="http://www.w3.org/2000/svg" xmlns:xlink="http://www.w3.org/1999/xlink" width="32" height="32" viewBox="0 0 32 32">
<path d="M16 32.125c3.938 0 7.563-1.5 10.375-4.25 2.75-2.813 4.25-6.438 4.25-10.375s-1.5-7.563-4.25-10.375c-2.063-2-4.625-3.375-7.375-3.938 0-0.063 0-0.125 0-0.188 0-1.625-1.375-3-3-3s-3 1.375-3 3c0 0.063 0 0.125 0 0.188-2.75 0.563-5.313 1.938-7.375 3.938-2.75 2.813-4.25 6.438-4.25 10.375s1.5 7.563 4.25 10.375c2.813 2.75 6.438 4.25 10.375 4.25zM16 1c1.125 0 2 0.875 2 2-0.688-0.125-1.313-0.125-2-0.125s-1.313 0-2 0.125c0-1.125 0.875-2 2-2zM6.375 7.875c2.438-2.5 5.688-3.875 9.125-4v2.125h1v-2.125c3.438 0.125 6.688 1.5 9.125 4 2.5 2.438 3.875 5.688 4 9.125h-2.125v1h2.125c-0.125 3.438-1.5 6.688-4 9.125-2.438 2.5-5.688 3.875-9.125 4v-2.125h-1v2.125c-3.438-0.125-6.688-1.5-9.125-4-2.5-2.438-3.875-5.688-4-9.125h2.125v-1h-2.125c0.125-3.438 1.5-6.688 4-9.125zM18.688 20.438l0.25-0.25 4-9.5-0.625-0.625-9.5 4-0.25 0.25-3.5 9 0.625 0.625zM18.313 19.125l-4.438-4.438 7.688-3.25zM13.188 15.375l4.438 4.438-7.25 2.813z"></path>
</svg>
