<?xml version="1.0" encoding="utf-8"?>
<!DOCTYPE svg PUBLIC "-//W3C//DTD SVG 1.1//EN" "http://www.w3.org/Graphics/SVG/1.1/DTD/svg11.dtd">
<svg version="1.1" xmlns="http://www.w3.org/2000/svg" xmlns:xlink="http://www.w3.org/1999/xlink" width="32" height="32" viewBox="0 0 32 32">
<path d="M26.5 13.5h-0.5v-2.5c0-0.063-0.125-8.5-10-8.5s-10 8.438-10 8.5v2.5h-0.5c-3.063 0-5.5 2.438-5.5 5.5s2.438 5.5 5.5 5.5h1.5v-13.5c0-0.313 0.125-7.5 9-7.5s9 7.188 9 7.5v15.188l-6.5 2.563v-1.75h-5v3h4.625l7.875-3.188v-2.313h0.5c3.063 0 5.5-2.438 5.5-5.5s-2.438-5.5-5.5-5.5zM6 23.5h-0.5c-2.5 0-4.5-2-4.5-4.5s2-4.5 4.5-4.5h0.5zM14.5 29v-1h3v1zM26.5 23.5h-0.5v-9h0.5c2.5 0 4.5 2 4.5 4.5s-2 4.5-4.5 4.5z"></path>
</svg>
