<?xml version="1.0" encoding="utf-8"?>
<!DOCTYPE svg PUBLIC "-//W3C//DTD SVG 1.1//EN" "http://www.w3.org/Graphics/SVG/1.1/DTD/svg11.dtd">
<svg version="1.1" xmlns="http://www.w3.org/2000/svg" xmlns:xlink="http://www.w3.org/1999/xlink" width="32" height="32" viewBox="0 0 32 32">
<path d="M1.5 31h21v-30h-21v2.5h-1.5v1h1.5v3h-1.5v1h1.5v3h-1.5v1h1.5v3h-1.5v1h1.5v3h-1.5v1h1.5v3h-1.5v1h1.5v3h-1.5v1h1.5zM21.5 30h-4v-28h4zM2.5 24.5h1.5v-1h-1.5v-3h1.5v-1h-1.5v-3h1.5v-1h-1.5v-3h1.5v-1h-1.5v-3h1.5v-1h-1.5v-3h1.5v-1h-1.5v-1.5h14v28h-14v-1.5h1.5v-1h-1.5zM27 27.125l2.5 5 2.5-5v-27.125h-5zM29.5 29.875l-1.5-3v-20.875h3v20.875zM31 1v4h-3v-4z"></path>
</svg>
