<?xml version="1.0" encoding="utf-8"?>
<!DOCTYPE svg PUBLIC "-//W3C//DTD SVG 1.1//EN" "http://www.w3.org/Graphics/SVG/1.1/DTD/svg11.dtd">
<svg version="1.1" xmlns="http://www.w3.org/2000/svg" xmlns:xlink="http://www.w3.org/1999/xlink" width="32" height="32" viewBox="0 0 32 32">
<path d="M28 16.5c-0.25-5.563-5.063-10-10.938-10-5.25 0-9.875 3.438-10.938 8h-0.438c-3.125 0-5.688 2.438-5.688 5.5s2.438 5.5 5.5 5.5h22c2.5 0 4.5-2 4.5-4.5 0-2.375-1.75-4.25-4-4.5zM27.5 24.5h-22c-2.5 0-4.5-2-4.5-4.5s2.063-4.5 4.688-4.5h1.25l0.063-0.375c0.813-4.375 5.125-7.625 10.063-7.625 5.438 0 9.938 4.25 9.938 9.5v0.5h0.5c1.938 0 3.5 1.563 3.5 3.5s-1.563 3.5-3.5 3.5zM16.5 21.313v-8.813h-1v8.813l-3.125-3.188-0.75 0.813 4 4.063h0.75l4-4.063-0.75-0.75z"></path>
</svg>
