<?xml version="1.0" encoding="utf-8"?>
<!DOCTYPE svg PUBLIC "-//W3C//DTD SVG 1.1//EN" "http://www.w3.org/Graphics/SVG/1.1/DTD/svg11.dtd">
<svg version="1.1" xmlns="http://www.w3.org/2000/svg" xmlns:xlink="http://www.w3.org/1999/xlink" width="32" height="32" viewBox="0 0 32 32">
<path d="M24 2c-3.688 0-6.813 2.063-8 4.938-1.188-2.875-4.313-4.938-8-4.938-5 0-8 4.313-8 8.5 0 4.313 2.688 8.875 7.938 13.625 3.875 3.5 7.75 5.813 7.813 5.813l0.25 0.125 0.25-0.125c0.063 0 3.938-2.313 7.813-5.813 5.25-4.75 7.938-9.313 7.938-13.625 0-4.188-3-8.5-8-8.5zM16 28.938c-2-1.25-15-9.5-15-18.438 0-3.688 2.625-7.5 7-7.5 3.625 0 7.5 2.5 7.5 6.5h1c0-4 3.875-6.5 7.5-6.5 4.375 0 7 3.813 7 7.5 0 8.938-13 17.188-15 18.438z"></path>
</svg>
