<?xml version="1.0" encoding="utf-8"?>
<!DOCTYPE svg PUBLIC "-//W3C//DTD SVG 1.1//EN" "http://www.w3.org/Graphics/SVG/1.1/DTD/svg11.dtd">
<svg version="1.1" xmlns="http://www.w3.org/2000/svg" xmlns:xlink="http://www.w3.org/1999/xlink" width="32" height="32" viewBox="0 0 32 32">
<path d="M24.5 0h-17v32h17zM23.5 1v3h-15v-3zM23.5 5v20h-15v-20zM8.5 31v-5h15v5zM14 2h4v1h-4zM16 27c-0.813 0-1.5 0.688-1.5 1.5s0.688 1.5 1.5 1.5c0.813 0 1.5-0.688 1.5-1.5s-0.688-1.5-1.5-1.5zM16 29c-0.25 0-0.5-0.25-0.5-0.5s0.25-0.5 0.5-0.5c0.25 0 0.5 0.25 0.5 0.5s-0.25 0.5-0.5 0.5zM16 20h1l-0.875 1.188 0.813 0.625 1.563-2v-0.625l-1.563-2-0.813 0.625 0.875 1.188h-1c-2 0-3.5-2.125-3.5-4h-1c0 2.375 1.938 5 4.5 5zM16.875 12.188l-0.875-1.188h1c2 0 3.5 2.125 3.5 4h1c0-2.375-1.938-5-4.5-5h-1l0.875-1.188-0.813-0.625-1.563 2v0.625l1.563 2z"></path>
</svg>
