<?xml version="1.0" encoding="utf-8"?>
<!DOCTYPE svg PUBLIC "-//W3C//DTD SVG 1.1//EN" "http://www.w3.org/Graphics/SVG/1.1/DTD/svg11.dtd">
<svg version="1.1" xmlns="http://www.w3.org/2000/svg" xmlns:xlink="http://www.w3.org/1999/xlink" width="32" height="32" viewBox="0 0 32 32">
<path d="M0 27h32v-22h-32zM1 26v-2.25l11-9.563 6.063 6.063 3-4 9.938 8.5v1.25zM31 6v17.438l-10.063-8.688-3 4-5.938-5.938-11 9.563v-16.375zM25.5 14c1.625 0 3-1.375 3-3s-1.375-3-3-3c-1.625 0-3 1.375-3 3s1.375 3 3 3zM25.5 9c1.125 0 2 0.875 2 2s-0.875 2-2 2c-1.125 0-2-0.875-2-2s0.875-2 2-2z"></path>
</svg>
