<?xml version="1.0" encoding="utf-8"?>
<!DOCTYPE svg PUBLIC "-//W3C//DTD SVG 1.1//EN" "http://www.w3.org/Graphics/SVG/1.1/DTD/svg11.dtd">
<svg version="1.1" xmlns="http://www.w3.org/2000/svg" xmlns:xlink="http://www.w3.org/1999/xlink" width="32" height="32" viewBox="0 0 32 32">
<path d="M21.5 7.313l-6.313-6.313h-15.188v30h21.5zM15.5 2.688l4.313 4.313h-4.313zM1 30v-28h13.5v6h6v22zM32 0h-5v27.125l2.5 5 2.5-5zM31 1v4h-3v-4zM29.5 29.875l-1.5-3v-20.875h3v20.875zM4 6h6v1h-6zM4 11h13.5v1h-13.5zM4 15h13.5v1h-13.5zM4 19h13.5v1h-13.5zM4 23h13.5v1h-13.5z"></path>
</svg>
