<?xml version="1.0" encoding="utf-8"?>
<!DOCTYPE svg PUBLIC "-//W3C//DTD SVG 1.1//EN" "http://www.w3.org/Graphics/SVG/1.1/DTD/svg11.dtd">
<svg version="1.1" xmlns="http://www.w3.org/2000/svg" xmlns:xlink="http://www.w3.org/1999/xlink" width="32" height="32" viewBox="0 0 32 32">
<path d="M24.5 13.5v-5c4.438-0.313 4.5-4.938 4.5-5v-0.5h-4.5v-3h-17v3h-4.5v0.5c0 0.063 0.063 4.688 4.5 5v5c0 2.563 3.25 4.375 8 4.5v13h-5.5v1h12v-1h-5.5v-13c4.75-0.125 8-1.938 8-4.5zM27.938 4c-0.125 1-0.75 3.25-3.438 3.5v-3.5zM4.063 4h3.438v3.5c-2.688-0.25-3.313-2.5-3.438-3.5zM8.5 13.5v-12.5h15v12.5c0 1.75-2.563 3.5-7.5 3.5s-7.5-1.75-7.5-3.5z"></path>
</svg>
