<?xml version="1.0" encoding="utf-8"?>
<!DOCTYPE svg PUBLIC "-//W3C//DTD SVG 1.1//EN" "http://www.w3.org/Graphics/SVG/1.1/DTD/svg11.dtd">
<svg version="1.1" xmlns="http://www.w3.org/2000/svg" xmlns:xlink="http://www.w3.org/1999/xlink" width="32" height="32" viewBox="0 0 32 32">
<path d="M0 24h8.5v6.563l7.688-6.563h15.813v-22h-32zM1 3h30v20h-15.188l-6.313 5.438v-5.438h-8.5zM16 18h1l-0.875 1.188 0.813 0.625 1.563-2v-0.625l-1.563-2-0.813 0.625 0.875 1.188h-1c-2 0-3.5-2.125-3.5-4h-1c0 2.375 1.938 5 4.5 5zM16.875 10.188l-0.875-1.188h1c2 0 3.5 2.125 3.5 4h1c0-2.375-1.938-5-4.5-5h-1l0.875-1.188-0.813-0.625-1.563 2v0.625l1.563 2z"></path>
</svg>
