<?xml version="1.0" encoding="utf-8"?>
<!DOCTYPE svg PUBLIC "-//W3C//DTD SVG 1.1//EN" "http://www.w3.org/Graphics/SVG/1.1/DTD/svg11.dtd">
<svg version="1.1" xmlns="http://www.w3.org/2000/svg" xmlns:xlink="http://www.w3.org/1999/xlink" width="32" height="32" viewBox="0 0 32 32">
<path d="M16-0.063c-4.313 0-8.313 1.688-11.375 4.688-3 3.063-4.688 7.063-4.688 11.375s1.688 8.313 4.688 11.313c3.063 3.063 7.063 4.688 11.375 4.688 0 0 0 0 0 0v0c8.875 0 16.063-7.188 16.063-16 0-4.313-1.688-8.313-4.688-11.375-3.063-3-7.063-4.688-11.375-4.688zM16 31.063v0.5-0.563c0 0 0 0 0 0-4 0-7.813-1.563-10.625-4.375-2.875-2.875-4.438-6.625-4.438-10.625 0-4.063 1.563-7.813 4.438-10.625 2.813-2.875 6.625-4.438 10.625-4.438s7.813 1.563 10.625 4.438c2.875 2.813 4.438 6.625 4.438 10.625 0 8.313-6.563 15.063-15.063 15.063zM16 4.5c-3.063 0-5.938 1.188-8.125 3.375s-3.375 5.063-3.375 8.125h1c0-2.813 1.063-5.438 3.063-7.438s4.625-3.063 7.438-3.063c2.813 0 5.438 1.063 7.438 3.063s3.063 4.625 3.063 7.438h1c0-3.063-1.188-5.938-3.375-8.125s-5.063-3.375-8.125-3.375zM15.375 16.125l-3-3.438-0.75 0.625 3.063 3.5c-0.125 0.25-0.188 0.438-0.188 0.688 0 0.438 0.188 0.813 0.438 1.063 0.313 0.313 0.688 0.438 1.063 0.438s0.75-0.188 1.063-0.438c0.563-0.625 0.563-1.563 0-2.125-0.438-0.438-1.125-0.5-1.688-0.313zM16.375 17.875c-0.188 0.188-0.563 0.188-0.75 0-0.063-0.125-0.125-0.25-0.125-0.375s0.063-0.25 0.125-0.375c0.125-0.063 0.25-0.125 0.375-0.125s0.25 0.063 0.375 0.125c0.188 0.188 0.188 0.5 0 0.75z"></path>
</svg>
