<?xml version="1.0" encoding="utf-8"?>
<!DOCTYPE svg PUBLIC "-//W3C//DTD SVG 1.1//EN" "http://www.w3.org/Graphics/SVG/1.1/DTD/svg11.dtd">
<svg version="1.1" xmlns="http://www.w3.org/2000/svg" xmlns:xlink="http://www.w3.org/1999/xlink" width="32" height="32" viewBox="0 0 32 32">
<path d="M6.5 3.063v-3.063h-1v3.063c-1.688 0.25-3 1.688-3 3.438s1.313 3.188 3 3.438v22.063h1v-22.063c1.688-0.25 3-1.688 3-3.438s-1.313-3.188-3-3.438zM6 9c-1.375 0-2.5-1.125-2.5-2.5s1.125-2.5 2.5-2.5c1.375 0 2.5 1.125 2.5 2.5s-1.125 2.5-2.5 2.5zM26.5 22.063v-22.063h-1v22.063c-1.688 0.25-3 1.688-3 3.438s1.313 3.188 3 3.438v3.063h1v-3.063c1.688-0.25 3-1.688 3-3.438s-1.313-3.188-3-3.438zM26 28c-1.375 0-2.5-1.125-2.5-2.5s1.125-2.5 2.5-2.5c1.375 0 2.5 1.125 2.5 2.5s-1.125 2.5-2.5 2.5zM16.5 12.563v-12.563h-1v12.563c-1.688 0.25-3 1.688-3 3.438s1.313 3.188 3 3.438v12.563h1v-12.563c1.688-0.25 3-1.688 3-3.438s-1.313-3.188-3-3.438zM16 18.5c-1.375 0-2.5-1.125-2.5-2.5s1.125-2.5 2.5-2.5c1.375 0 2.5 1.125 2.5 2.5s-1.125 2.5-2.5 2.5z"></path>
</svg>
