<?xml version="1.0" encoding="utf-8"?>
<!DOCTYPE svg PUBLIC "-//W3C//DTD SVG 1.1//EN" "http://www.w3.org/Graphics/SVG/1.1/DTD/svg11.dtd">
<svg version="1.1" xmlns="http://www.w3.org/2000/svg" xmlns:xlink="http://www.w3.org/1999/xlink" width="32" height="32" viewBox="0 0 32 32">
<path d="M24.5 8.5c0-4.688-3.813-8.5-8.5-8.5s-8.5 3.813-8.5 8.5v7.5h-4v16h25v-16h-4zM8.5 8.5c0-4.125 3.375-7.5 7.5-7.5s7.5 3.375 7.5 7.5v7.5h-15zM27.5 31h-23v-14h23zM15.5 25.938v1.563h1v-1.563c1.125-0.25 2-1.25 2-2.438 0-1.375-1.125-2.5-2.5-2.5s-2.5 1.125-2.5 2.5c0 1.188 0.875 2.188 2 2.438zM16 22c0.813 0 1.5 0.688 1.5 1.5s-0.688 1.5-1.5 1.5c-0.813 0-1.5-0.688-1.5-1.5s0.688-1.5 1.5-1.5z"></path>
</svg>
