<?xml version="1.0" encoding="utf-8"?>
<!DOCTYPE svg PUBLIC "-//W3C//DTD SVG 1.1//EN" "http://www.w3.org/Graphics/SVG/1.1/DTD/svg11.dtd">
<svg version="1.1" xmlns="http://www.w3.org/2000/svg" xmlns:xlink="http://www.w3.org/1999/xlink" width="32" height="32" viewBox="0 0 32 32">
<path d="M18.5 9.5c0-1.375-1.125-2.5-2.5-2.5s-2.5 1.125-2.5 2.5c0 1.375 1.125 2.5 2.5 2.5s2.5-1.125 2.5-2.5zM14.5 9.5c0-0.813 0.688-1.5 1.5-1.5s1.5 0.688 1.5 1.5c0 0.813-0.688 1.5-1.5 1.5s-1.5-0.688-1.5-1.5zM16 24.313l0.375-0.5c0.25-0.313 6.625-8.188 6.625-13.313 0-4.125-3.188-7.5-7-7.5-3.875 0-7 3.375-7 7.5 0 5.125 6.313 13 6.625 13.313zM16 4c3.313 0 6 2.938 6 6.5 0 4.063-4.625 10.375-6 12.188-1.375-1.813-6-8.125-6-12.188 0-3.563 2.688-6.5 6-6.5zM21.5 18v1h4.188l4.938 9h-29.25l4.938-9h4.188v-1h-4.813l-6.063 11h32.75l-6.063-11z"></path>
</svg>
