<?xml version="1.0" encoding="utf-8"?>
<!DOCTYPE svg PUBLIC "-//W3C//DTD SVG 1.1//EN" "http://www.w3.org/Graphics/SVG/1.1/DTD/svg11.dtd">
<svg version="1.1" xmlns="http://www.w3.org/2000/svg" xmlns:xlink="http://www.w3.org/1999/xlink" width="32" height="32" viewBox="0 0 32 32">
<path d="M29.5 16c0-7.438-6.063-13.5-13.5-13.5s-13.5 6.063-13.5 13.5c0 5.313 3.125 10 7.625 12.188l-3 2.938 0.75 0.75 3.25-3.313c1.5 0.625 3.125 0.938 4.875 0.938s3.375-0.313 4.875-0.938l3.25 3.313 0.75-0.75-3-2.938c4.5-2.188 7.625-6.875 7.625-12.188zM16 28.5c-6.875 0-12.5-5.625-12.5-12.5s5.625-12.5 12.5-12.5c6.875 0 12.5 5.625 12.5 12.5s-5.625 12.5-12.5 12.5zM16.5 10h-1v6.313l4.25 2.125 0.5-0.875-3.75-1.875zM-0.063 3.813l1.25 6.188 7.313-7.313-6.188-1.25zM6.5 3.313l-4.688 4.688-0.75-3.813 1.625-1.625zM23.5 2.688l7.313 7.313 1.25-6.188-2.375-2.375zM30.188 8l-4.688-4.688 3.813-0.75 1.625 1.625z"></path>
</svg>
