<?xml version="1.0" encoding="utf-8"?>
<!DOCTYPE svg PUBLIC "-//W3C//DTD SVG 1.1//EN" "http://www.w3.org/Graphics/SVG/1.1/DTD/svg11.dtd">
<svg version="1.1" xmlns="http://www.w3.org/2000/svg" xmlns:xlink="http://www.w3.org/1999/xlink" width="32" height="32" viewBox="0 0 32 32">
<path d="M0 2.438v25l16 2.063 16-2.063v-25l-16 2.063zM1 3.563l14.5 1.875v23l-14.5-1.875zM31 26.563l-14.5 1.875v-23l14.5-1.875zM3.563 7.5l9.5 1-0.125 1-9.5-1zM12.938 14.5l-9.5-1 0.125-1 9.5 1zM12.938 19.5l-9.5-1 0.125-1 9.5 1zM12.938 24.5l-9.5-1 0.125-1 9.5 1zM28.438 7.5l0.125 1-9.5 1-0.125-1zM28.438 12.5l0.125 1-9.5 1-0.125-1zM28.438 17.5l0.125 1-9.5 1-0.125-1zM19.063 24.5l-0.125-1 9.5-1 0.125 1z"></path>
</svg>
