<?xml version="1.0" encoding="utf-8"?>
<!DOCTYPE svg PUBLIC "-//W3C//DTD SVG 1.1//EN" "http://www.w3.org/Graphics/SVG/1.1/DTD/svg11.dtd">
<svg version="1.1" xmlns="http://www.w3.org/2000/svg" xmlns:xlink="http://www.w3.org/1999/xlink" width="32" height="32" viewBox="0 0 32 32">
<path d="M0 10.625v10.75c0 0.875 0.75 1.563 1.625 1.563h13.313v-13.875h-13.313c-0.875 0-1.625 0.688-1.625 1.563zM13.875 21.875h-12.25c-0.313 0-0.563-0.25-0.563-0.5v-10.75c0-0.25 0.25-0.5 0.563-0.5h12.25zM32 16c0-1.75-1.438-3.188-3.188-3.188v-2.188c0-0.875-0.688-1.563-1.563-1.563h-11.25v1.063h11.25c0.25 0 0.5 0.25 0.5 0.5v10.75c0 0.25-0.25 0.5-0.5 0.5h-11.25v1.063h11.25c0.875 0 1.563-0.688 1.563-1.563v-2.188c1.75 0 3.188-1.438 3.188-3.188zM28.813 18.125v-4.25c1.188 0 2.125 0.938 2.125 2.125s-0.938 2.125-2.125 2.125z"></path>
</svg>
