<?xml version="1.0" encoding="utf-8"?>
<!DOCTYPE svg PUBLIC "-//W3C//DTD SVG 1.1//EN" "http://www.w3.org/Graphics/SVG/1.1/DTD/svg11.dtd">
<svg version="1.1" xmlns="http://www.w3.org/2000/svg" xmlns:xlink="http://www.w3.org/1999/xlink" width="32" height="32" viewBox="0 0 32 32">
<path d="M17.438 30.375h-2.875c-6.375 0-11.5-5.125-11.5-11.5v-14.375c0-1.625 1.25-2.875 2.875-2.875 1.563 0 2.875 1.25 2.875 2.875v14.375c0 3.188 2.563 5.75 5.75 5.75h2.875c3.188 0 5.75-2.25 5.75-5 0-2.875-1.563-5.063-2.875-5.063h-5.75c-1.625 0-2.875-1.313-2.875-2.875 0-1.625 1.25-2.875 2.875-2.875h5.75c4.75 0 8.625 4.813 8.625 10.813 0 5.938-5.125 10.75-11.5 10.75z"></path>
</svg>
