<?xml version="1.0" encoding="utf-8"?>
<!DOCTYPE svg PUBLIC "-//W3C//DTD SVG 1.1//EN" "http://www.w3.org/Graphics/SVG/1.1/DTD/svg11.dtd">
<svg version="1.1" xmlns="http://www.w3.org/2000/svg" xmlns:xlink="http://www.w3.org/1999/xlink" width="32" height="32" viewBox="0 0 32 32">
<path d="M27.625 9.563h-7.25v-1.75h7.25v1.75zM15.563 16.938c0.5 0.688 0.75 1.563 0.75 2.625s-0.313 2-0.813 2.875c-0.375 0.5-0.75 1-1.25 1.375-0.625 0.438-1.25 0.75-2.063 0.875-0.75 0.188-1.625 0.25-2.5 0.25h-8.063v-17.875h8.625c2.188 0 3.75 0.625 4.625 1.875 0.563 0.75 0.813 1.688 0.813 2.75s-0.25 2-0.813 2.625c-0.313 0.375-0.75 0.75-1.375 1 0.938 0.375 1.625 0.875 2.063 1.625zM5.75 14.125h3.75c0.813 0 1.438-0.188 1.938-0.438 0.438-0.313 0.688-0.875 0.688-1.625 0-0.813-0.313-1.375-0.938-1.625-0.563-0.188-1.25-0.313-2.125-0.313h-3.313zM12.5 19.313c0-0.938-0.375-1.563-1.125-1.938-0.438-0.188-1-0.313-1.813-0.313h-3.813v4.813h3.75c0.813 0 1.375-0.125 1.813-0.313 0.813-0.438 1.188-1.188 1.188-2.25zM30.313 16.375c0.063 0.563 0.125 1.438 0.063 2.563h-9.313c0.063 1.313 0.5 2.188 1.313 2.688 0.5 0.313 1.125 0.5 1.875 0.5s1.375-0.188 1.875-0.625c0.25-0.188 0.5-0.5 0.688-0.875h3.438c-0.125 0.813-0.563 1.563-1.25 2.375-1.188 1.188-2.813 1.813-4.875 1.813-1.688 0-3.188-0.5-4.5-1.563s-1.938-2.75-1.938-5.125c0-2.25 0.563-3.938 1.75-5.125s2.688-1.75 4.563-1.75c1.125 0 2.125 0.188 3.063 0.563 0.875 0.438 1.625 1.063 2.188 1.938 0.563 0.75 0.875 1.625 1.063 2.625zM26.938 16.688c-0.063-0.875-0.375-1.563-0.938-2-0.5-0.438-1.188-0.688-2-0.688s-1.5 0.25-2 0.75c-0.438 0.438-0.75 1.125-0.875 1.938z"></path>
</svg>
