<?xml version="1.0" encoding="utf-8"?>
<!DOCTYPE svg PUBLIC "-//W3C//DTD SVG 1.1//EN" "http://www.w3.org/Graphics/SVG/1.1/DTD/svg11.dtd">
<svg version="1.1" xmlns="http://www.w3.org/2000/svg" xmlns:xlink="http://www.w3.org/1999/xlink" width="32" height="32" viewBox="0 0 32 32">
<path d="M27.5 18.938v-7.438c0-6.375-5.125-11.5-11.5-11.5s-11.5 5.125-11.5 11.5v7.438l-3.813 9.188h11.5c0 2.188 1.625 3.875 3.813 3.875s3.813-1.688 3.813-3.875h11.5zM16 1.313c5.625 0 10.25 4.563 10.25 10.188v6.438h-20.5v-6.438c0-5.625 4.625-10.188 10.25-10.188zM16 30.688c-1.375 0-2.563-1.125-2.563-2.563h5.125c0 1.438-1.188 2.563-2.563 2.563zM4.5 26.875h-1.938l3.063-7.438 0.125-0.25h20.5l0.125 0.25 3.063 7.438z"></path>
</svg>
