<?xml version="1.0" encoding="utf-8"?>
<!DOCTYPE svg PUBLIC "-//W3C//DTD SVG 1.1//EN" "http://www.w3.org/Graphics/SVG/1.1/DTD/svg11.dtd">
<svg version="1.1" xmlns="http://www.w3.org/2000/svg" xmlns:xlink="http://www.w3.org/1999/xlink" width="32" height="32" viewBox="0 0 32 32">
<path d="M25.063 21.375v-8.563c0-4.438-3.188-8.188-7.438-8.938v-0.688c0-0.563-0.5-1.063-1.063-1.063h-1.125c-0.563 0-1.063 0.5-1.063 1.063v0.688c-4.188 0.75-7.438 4.5-7.438 8.938v8.563l-3.75 3v1.75h25.625v-1.75l-3.75-3zM27.75 25.063h-23.5v-0.125l3.75-3.063v-9.063c0-4.438 3.625-8 8-8 4.438 0 8 3.563 8 8v9.063l3.75 3.063zM16 29.875c1.5 0 2.688-1.188 2.688-2.688h-5.375c0 1.5 1.188 2.688 2.688 2.688z"></path>
</svg>
