<?xml version="1.0" encoding="utf-8"?>
<!DOCTYPE svg PUBLIC "-//W3C//DTD SVG 1.1//EN" "http://www.w3.org/Graphics/SVG/1.1/DTD/svg11.dtd">
<svg version="1.1" xmlns="http://www.w3.org/2000/svg" xmlns:xlink="http://www.w3.org/1999/xlink" width="32" height="32" viewBox="0 0 32 32">
<path d="M25.563 11.5c-0.563 0-1.125 0.063-1.625 0.25l-1.313-3.313c0.625-0.125 1.563-0.25 2 0.063 0.25 0.125 0.313 0.438 0.313 0.75h0.688c0-0.688-0.313-1.063-0.625-1.313-0.75-0.5-1.938-0.25-2.625-0.125v0l-0.063 0.063c-0.188 0.063-0.375 0.063-0.375 0.125v0l-0.188 0.063 0.625 1.625h-11v-0.625h0.938c0.25 0 0.5-0.188 0.5-0.5 0-0.25-0.25-0.438-0.5-0.438h-2.75c-0.25 0-0.438 0.188-0.438 0.438 0 0.313 0.188 0.5 0.438 0.5h1.125v0.75l-0.625 1.063c-2.438-1.5-5.625-1.438-8 0.375l0.5 0.563c2.125-1.563 4.938-1.688 7.125-0.313l-0.375 0.5c-0.875-0.438-1.813-0.688-2.875-0.688-3.563 0-6.438 2.875-6.438 6.438s2.875 6.438 6.438 6.438c3.438 0 6.25-2.75 6.375-6.188h2.313c0.25 0.438 0.688 0.813 1.188 0.813l0.5 1.25-0.375 0.188c-0.188 0.063-0.313 0.313-0.25 0.5 0.125 0.188 0.375 0.313 0.563 0.188l1.375-0.625c0.25-0.063 0.313-0.313 0.25-0.5-0.125-0.188-0.313-0.25-0.5-0.188l-0.438 0.188-0.438-1.188c0.375-0.25 0.688-0.625 0.688-1.188 0-0.25-0.125-0.5-0.25-0.75l4.625-6.375h0.625l0.625 1.625c-2.438 0.938-4.188 3.25-4.188 6 0 3.563 2.875 6.438 6.438 6.438s6.438-2.875 6.438-6.438c0-3.563-2.875-6.438-6.438-6.438zM6.438 23.5c-3.188 0-5.813-2.563-5.813-5.75s2.625-5.75 5.813-5.75c0.875 0 1.75 0.188 2.563 0.563l-2.375 3.625c0 0-0.063 0-0.125 0-0.75 0-1.375 0.625-1.375 1.375s0.625 1.313 1.375 1.313c0.563 0 1.063-0.375 1.25-0.875h4.438c-0.125 3.063-2.688 5.5-5.75 5.5zM7.813 17.375c-0.063-0.375-0.25-0.688-0.563-0.938l2.313-3.563c1.5 1 2.5 2.625 2.625 4.5zM7.188 17.563c0 0.375-0.313 0.688-0.688 0.688s-0.688-0.313-0.688-0.688c0-0.375 0.313-0.688 0.688-0.688s0.688 0.313 0.688 0.688zM15 17.375h-2.188c-0.125-2.125-1.25-3.938-2.938-5l1.125-1.75 4.438 5.875c-0.25 0.25-0.375 0.563-0.438 0.875zM16.375 18.125c-0.375 0-0.688-0.313-0.688-0.688s0.313-0.625 0.688-0.625c0.313 0 0.625 0.25 0.625 0.625s-0.313 0.688-0.625 0.688zM16.938 16.25c-0.188-0.063-0.375-0.125-0.563-0.125s-0.25 0.063-0.375 0.063l-4.438-5.875h9.688zM25.563 23.688c-3.188 0-5.75-2.563-5.75-5.75 0-2.438 1.563-4.563 3.688-5.375l1.688 4.188c-0.313 0.25-0.5 0.625-0.5 1.063 0 0.688 0.625 1.313 1.375 1.313s1.313-0.625 1.313-1.313c0-0.75-0.563-1.375-1.313-1.375-0.125 0-0.188 0-0.313 0.063l-1.625-4.188c0.5-0.063 0.938-0.125 1.438-0.125 3.188 0 5.813 2.563 5.813 5.75s-2.625 5.75-5.813 5.75zM26.063 17.063c0.375 0 0.688 0.313 0.688 0.75 0 0.375-0.313 0.688-0.688 0.688s-0.688-0.313-0.688-0.688c0-0.438 0.313-0.75 0.688-0.75zM27 13.063l-0.125 0.563c1.813 0.563 3 2.25 3.063 4.063l0.5 0.125c0-2.125-1.375-4.063-3.438-4.75z"></path>
</svg>
