<?xml version="1.0" encoding="utf-8"?>
<!DOCTYPE svg PUBLIC "-//W3C//DTD SVG 1.1//EN" "http://www.w3.org/Graphics/SVG/1.1/DTD/svg11.dtd">
<svg version="1.1" xmlns="http://www.w3.org/2000/svg" xmlns:xlink="http://www.w3.org/1999/xlink" width="32" height="32" viewBox="0 0 32 32">
<path d="M26.125 13.063c-0.75 0-1.438 0.125-2.063 0.375l-2.625-5.188h2v-1.063h-3.75l1.063 2.125h-9.25l-0.5-1.063h1.813v-1.063h-3.563l1.188 2.375c0 0 0 0.063 0 0.063l-2.25 3.938c-0.75-0.313-1.5-0.5-2.313-0.5-3.25 0-5.875 2.625-5.875 5.875s2.625 5.875 5.875 5.875c3.063 0 5.563-2.375 5.813-5.375h4.375c0.188 0 0.375-0.063 0.5-0.25l4.875-8.5 1.625 3.25c-1.688 1-2.813 2.875-2.813 5 0 3.25 2.625 5.875 5.875 5.875s5.875-2.625 5.875-5.875c0-3.25-2.625-5.875-5.875-5.875zM11 10.688l3.875 7.688h-3.188c-0.125-1.813-1.125-3.375-2.563-4.313l1.875-3.375zM10.625 18.375h-4l1.938-3.375c1.125 0.75 1.938 2 2.063 3.375zM5.875 23.75c-2.625 0-4.813-2.188-4.813-4.813s2.188-4.813 4.813-4.813c0.625 0 1.188 0.125 1.75 0.375l-2.375 4.188c-0.125 0.125-0.125 0.375 0 0.5 0.063 0.188 0.25 0.25 0.438 0.25h4.938c-0.25 2.438-2.313 4.313-4.75 4.313zM15.938 18.063l-3.875-7.688h8.313l-4.438 7.688zM26.125 23.75c-2.625 0-4.813-2.188-4.813-4.813 0-1.688 0.938-3.188 2.25-4.063l2.25 4.5 0.938-0.5-2.25-4.438c0.5-0.188 1.063-0.313 1.625-0.313 2.625 0 4.813 2.188 4.813 4.813s-2.188 4.813-4.813 4.813z"></path>
</svg>
