<?xml version="1.0" encoding="utf-8"?>
<!DOCTYPE svg PUBLIC "-//W3C//DTD SVG 1.1//EN" "http://www.w3.org/Graphics/SVG/1.1/DTD/svg11.dtd">
<svg version="1.1" xmlns="http://www.w3.org/2000/svg" xmlns:xlink="http://www.w3.org/1999/xlink" width="32" height="32" viewBox="0 0 32 32">
<path d="M22.813 8.563v-3.5c0.5 0.063 1.313 0.25 1.5 0.625 0.063 0.313-0.188 0.813-0.75 1.375l0.5 0.563c0.875-0.875 1.188-1.563 0.938-2.188-0.375-0.875-1.688-1.063-2.188-1.125v-0.063h-0.75v2.813c-0.563 0-2.438 0.063-4.688 0.563v-0.875h0.375c0.313 0 0.5-0.188 0.5-0.5 0-0.25-0.188-0.438-0.5-0.438h-2.25c-0.25 0-0.438 0.188-0.438 0.438 0 0.313 0.188 0.5 0.438 0.5h1.125v1.063c-3.938 0.938-8.813 3.25-10.75 8.5-0.063 0-0.188 0-0.313 0-3.063 0-5.563 2.5-5.563 5.625 0 3.063 2.5 5.563 5.563 5.563 3.125 0 5.625-2.5 5.625-5.563 0-2.75-2-5-4.563-5.5 1.25-3.25 3.75-5.625 7.5-7.125-1.25 0.938-2.375 2.188-2.5 3.813l0.75 0.063c0.25-3.063 5.188-4.875 5.25-4.875v0c2.125-0.438 3.875-0.5 4.438-0.5v0.75c-5.125 0.188-9.25 4.438-9.25 9.563 0 5.313 4.313 9.625 9.625 9.625 5.25 0 9.563-4.313 9.563-9.625 0-5.125-4.125-9.375-9.188-9.563zM10.438 21.938c0 2.625-2.188 4.813-4.875 4.813-2.625 0-4.813-2.188-4.813-4.813 0-2.688 2.188-4.875 4.813-4.875 0.063 0 0.063 0 0.063 0-0.25 1-0.5 2.125-0.563 3.375v0 0.125c0 0 0 0 0 0v0.5c-0.375 0.125-0.625 0.5-0.625 0.938 0 0.563 0.438 1 1 1s1-0.438 1-1c0-0.438-0.25-0.813-0.625-0.938v-0.438c0.063-1.25 0.25-2.438 0.563-3.5 2.313 0.438 4.063 2.375 4.063 4.813zM5.75 22c0 0.125-0.125 0.25-0.313 0.25-0.125 0-0.25-0.125-0.25-0.25 0-0.063 0-0.125 0.063-0.188h0.375c0.063 0.063 0.125 0.125 0.125 0.188zM22.625 18.438c0 0.125-0.125 0.25-0.25 0.25-0.188 0-0.313-0.125-0.313-0.25 0-0.188 0.125-0.313 0.313-0.313 0.125 0 0.25 0.125 0.25 0.313zM22.438 27c-4.875 0-8.875-4-8.875-8.875 0-4.75 3.813-8.625 8.5-8.813v8.125c-0.438 0.125-0.688 0.563-0.688 1 0 0.563 0.438 1 1 1s1-0.438 1-1c0-0.438-0.25-0.813-0.563-0.938v-8.188c4.688 0.188 8.438 4.063 8.438 8.813 0 4.875-3.938 8.875-8.813 8.875zM15.125 15.875h0.688c0.438-2.313 2.313-4.125 4.625-4.438v-0.688c-2.688 0.375-4.813 2.438-5.313 5.125zM4.563 18c-1.438 0.25-2.625 1.375-2.875 2.813h0.375c0.25-1.25 1.25-2.25 2.5-2.438z"></path>
</svg>
