<?xml version="1.0" encoding="utf-8"?>
<!DOCTYPE svg PUBLIC "-//W3C//DTD SVG 1.1//EN" "http://www.w3.org/Graphics/SVG/1.1/DTD/svg11.dtd">
<svg version="1.1" xmlns="http://www.w3.org/2000/svg" xmlns:xlink="http://www.w3.org/1999/xlink" width="32" height="32" viewBox="0 0 32 32">
<path d="M1.625 3.5v15.375c0.188 5.313 6.563 9.625 14.375 9.625 7.938 0 14.375-4.438 14.375-9.875s-6.438-9.875-14.375-9.875c-3.5 0-6.688 0.875-9.188 2.25v-7.5zM16 12.063c5.063 0 9.188 2.938 9.188 6.563s-4.125 6.563-9.188 6.563c-5.063 0-9.188-2.938-9.188-6.563s4.125-6.563 9.188-6.563zM9.938 18.625c0-2.375 2.688-4.313 6.063-4.313s6.063 1.938 6.063 4.313c0 2.375-2.688 4.375-6.063 4.375s-6.063-2-6.063-4.375z"></path>
</svg>
