<?xml version="1.0" encoding="utf-8"?>
<!DOCTYPE svg PUBLIC "-//W3C//DTD SVG 1.1//EN" "http://www.w3.org/Graphics/SVG/1.1/DTD/svg11.dtd">
<svg version="1.1" xmlns="http://www.w3.org/2000/svg" xmlns:xlink="http://www.w3.org/1999/xlink" width="32" height="32" viewBox="0 0 32 32">
<path d="M21.188 30.375c5.063 0 9.125-4.063 9.125-9.063l0.063-7.375-0.063-0.375-0.25-0.5-0.375-0.313c-0.563-0.438-3.25 0-3.938-0.625-0.563-0.5-0.625-1.313-0.75-2.5-0.313-2.188-0.5-2.313-0.813-3.063-1.313-2.688-4.75-4.688-7.063-4.938h-6.375c-5.063 0-9.125 4.063-9.125 9.063v10.625c0 5 4.063 9.063 9.125 9.063zM10.813 9.063h5.063c1 0 1.75 0.75 1.75 1.688 0 1-0.75 1.75-1.75 1.75h-5.063c-0.938 0-1.688-0.75-1.688-1.75 0-0.938 0.75-1.688 1.688-1.688zM9.125 21.188c0-0.938 0.75-1.75 1.688-1.75h10.313c0.938 0 1.75 0.813 1.75 1.75s-0.813 1.75-1.75 1.75h-10.313c-0.938 0-1.688-0.813-1.688-1.75z"></path>
</svg>
