<?xml version="1.0" encoding="utf-8"?>
<!DOCTYPE svg PUBLIC "-//W3C//DTD SVG 1.1//EN" "http://www.w3.org/Graphics/SVG/1.1/DTD/svg11.dtd">
<svg version="1.1" xmlns="http://www.w3.org/2000/svg" xmlns:xlink="http://www.w3.org/1999/xlink" width="32" height="32" viewBox="0 0 32 32">
<path d="M3.875 24.063h1.063c0.063 0.375 0.125 1.5-0.563 2.688 0 0 3.063-0.188 3.688-2.688h20.063c1.25 0 2.25-1 2.25-2.25v-14.25c0-1.25-1-2.313-2.25-2.313h-24.25c-1.25 0-2.25 1.063-2.25 2.313v14.25c0 1.25 1 2.25 2.25 2.25zM25.75 16.25c0.563 0 1.063 0.438 1.063 1.063 0 0.563-0.5 1.063-1.063 1.063-0.625 0-1.063-0.5-1.063-1.063 0-0.625 0.438-1.063 1.063-1.063zM19.25 19.5c0.063 0.063 0.063 0.188 0.063 0.25 0 1.5-1.25 2.688-2.75 2.688-1.188 0-2.25-0.75-2.563-1.875zM6.375 16.25c0.625 0 1.063 0.438 1.063 1.063 0 0.563-0.438 1.063-1.063 1.063-0.563 0-1.063-0.5-1.063-1.063 0-0.625 0.5-1.063 1.063-1.063z"></path>
</svg>
