<?xml version="1.0" encoding="utf-8"?>
<!DOCTYPE svg PUBLIC "-//W3C//DTD SVG 1.1//EN" "http://www.w3.org/Graphics/SVG/1.1/DTD/svg11.dtd">
<svg version="1.1" xmlns="http://www.w3.org/2000/svg" xmlns:xlink="http://www.w3.org/1999/xlink" width="32" height="32" viewBox="0 0 32 32">
<path d="M27.188 3.75h-9.563c-0.688 0-1.25 0.25-1.625 0.75-0.375-0.5-0.938-0.75-1.625-0.75h-9.563c-1.188 0-2.125 0.938-2.125 2.125v18.125c0 1.188 0.938 2.125 2.125 2.125h9.563c0.063 0 0.063 0 0.063 0 0.563 0 1 0.5 1.063 1.063v1.063h1.063v-1.063c0-0.563 0.438-1.063 1-1.063 0 0 0.063 0 0.063 0h9.563c1.188 0 2.125-0.938 2.125-2.125v-18.125c0-1.188-0.938-2.125-2.125-2.125zM3.75 24v-18.125c0-0.625 0.438-1.063 1.063-1.063h9.563c0.625 0 1.063 0.438 1.063 1.063v18.125c0 0.563-0.438 1.063-1.063 1.063h-9.563c-0.625 0-1.063-0.5-1.063-1.063zM28.25 24c0 0.563-0.438 1.063-1.063 1.063h-9.563c-0.625 0-1.063-0.5-1.063-1.063v-18.125c0-0.625 0.438-1.063 1.063-1.063h9.563c0.625 0 1.063 0.438 1.063 1.063z"></path>
</svg>
