<?xml version="1.0" encoding="utf-8"?>
<!DOCTYPE svg PUBLIC "-//W3C//DTD SVG 1.1//EN" "http://www.w3.org/Graphics/SVG/1.1/DTD/svg11.dtd">
<svg version="1.1" xmlns="http://www.w3.org/2000/svg" xmlns:xlink="http://www.w3.org/1999/xlink" width="32" height="32" viewBox="0 0 32 32">
<path d="M7.375 7.375h-6.125v1.25h6.125v2.438h-6.125v1.25h6.125v2.438h-6.125v1.25h6.125v2.438h-6.125v1.25h6.125v12.313l8.625-8.625 8.625 8.625v-12.313h6.125v-1.25h-6.125v-2.438h6.125v-1.25h-6.125v-2.438h6.125v-1.25h-6.125v-2.438h6.125v-1.25zM23.375 29.063l-6.5-6.563-0.875-0.813-0.875 0.813-6.5 6.563v-20.438h14.75zM1.25 0h29.5v1.25h-29.5zM1.25 3.688h29.5v1.25h-29.5z"></path>
</svg>
