<?xml version="1.0" encoding="utf-8"?>
<!DOCTYPE svg PUBLIC "-//W3C//DTD SVG 1.1//EN" "http://www.w3.org/Graphics/SVG/1.1/DTD/svg11.dtd">
<svg version="1.1" xmlns="http://www.w3.org/2000/svg" xmlns:xlink="http://www.w3.org/1999/xlink" width="32" height="32" viewBox="0 0 32 32">
<path d="M28.813 4h-25.625v6.938h1.063v17.063h23.5v-17.063h1.063zM26.688 26.938h-21.375v-16h21.375zM27.75 9.875h-23.5v-4.813h23.5zM12.125 17.875h7.75c1.125 0 2-0.875 2-1.938v-0.375c0-1.063-0.875-1.938-2-1.938h-7.75c-1.063 0-2 0.875-2 1.938v0.375c0 1.063 0.938 1.938 2 1.938zM11.188 15.563c0-0.5 0.438-0.875 0.938-0.875h7.75c0.5 0 0.938 0.375 0.938 0.875v0.375c0 0.5-0.438 0.875-0.938 0.875h-7.75c-0.5 0-0.938-0.375-0.938-0.875z"></path>
</svg>
