<?xml version="1.0" encoding="utf-8"?>
<!DOCTYPE svg PUBLIC "-//W3C//DTD SVG 1.1//EN" "http://www.w3.org/Graphics/SVG/1.1/DTD/svg11.dtd">
<svg version="1.1" xmlns="http://www.w3.org/2000/svg" xmlns:xlink="http://www.w3.org/1999/xlink" width="32" height="32" viewBox="0 0 32 32">
<path d="M19.813 14.188c0 0.313 0.188 1.625-0.438 2.688-0.563 1-2.438 0.438-2.438 0.438v-5.25c0 0 0.375-0.688 1.75-0.5s1.125 2.313 1.125 2.625zM29.438 1.625v18.125c0 0.625-0.438 1.313-1.25 1.688-1.813 0.875-25.625 8.938-25.625 8.938l5.25-27.063c0 0 0.438-1.688 2.75-1.688 2.25 0 18.875 0 18.875 0zM22.5 10.688c-1.188-3.25-5.25-1.813-5.313-0.75h-0.25v-5.375l-3.5 0.563v13.5c0 0 2.063 1.938 5.438 1.375 3.375-0.5 3.875-3.375 3.875-3.375s0.938-2.75-0.25-5.938z"></path>
</svg>
