<?xml version="1.0" encoding="utf-8"?>
<!DOCTYPE svg PUBLIC "-//W3C//DTD SVG 1.1//EN" "http://www.w3.org/Graphics/SVG/1.1/DTD/svg11.dtd">
<svg version="1.1" xmlns="http://www.w3.org/2000/svg" xmlns:xlink="http://www.w3.org/1999/xlink" width="32" height="32" viewBox="0 0 32 32">
<path d="M2.813 14.25h11.313c0.313 0 0.5-0.25 0.5-0.5s-0.188-0.438-0.5-0.438h-11.313c-0.313 0-0.5 0.188-0.5 0.438s0.188 0.5 0.5 0.5zM2.875 16.5h5.313c0.25 0 0.438-0.188 0.438-0.5 0-0.25-0.188-0.438-0.438-0.438h-5.313c-0.25 0-0.5 0.188-0.5 0.438 0 0.313 0.25 0.5 0.5 0.5zM2.875 18.813h5.313c0.25 0 0.438-0.188 0.438-0.5 0-0.25-0.188-0.438-0.438-0.438h-5.313c-0.25 0-0.5 0.188-0.5 0.438 0 0.313 0.25 0.5 0.5 0.5zM2.875 21.25h11.375c0.25 0 0.5-0.25 0.5-0.5s-0.25-0.5-0.5-0.5h-11.375c-0.25 0-0.438 0.25-0.438 0.5s0.188 0.5 0.438 0.5zM14.25 22.625h-11.375c-0.25 0-0.438 0.188-0.438 0.5 0 0.25 0.188 0.438 0.438 0.438h11.375c0.25 0 0.5-0.188 0.5-0.438 0-0.313-0.25-0.5-0.5-0.5zM29.938 5.125h-27.875c-1.125 0-2.063 0.938-2.063 2.063v17.625c0 1.125 0.938 2.063 2.063 2.063h27.875c1.125 0 2.063-0.938 2.063-2.063v-17.625c0-1.125-0.938-2.063-2.063-2.063zM2.063 5.938h27.875c0.688 0 1.25 0.563 1.25 1.25v2.125h-30.375v-2.125c0-0.688 0.563-1.25 1.25-1.25zM29.938 26.063h-27.875c-0.688 0-1.25-0.563-1.25-1.25v-14.625h30.375v14.625c0 0.688-0.563 1.25-1.25 1.25zM3.063 8.563c0.5 0 0.875-0.438 0.875-0.875 0-0.5-0.375-0.875-0.875-0.875-0.438 0-0.813 0.375-0.813 0.875 0 0.438 0.375 0.875 0.813 0.875zM6.063 7.688c0 0.438-0.375 0.813-0.875 0.813-0.438 0-0.813-0.375-0.813-0.813 0-0.5 0.375-0.875 0.813-0.875 0.5 0 0.875 0.375 0.875 0.875zM8.188 7.688c0 0.438-0.375 0.813-0.875 0.813-0.438 0-0.813-0.375-0.813-0.813 0-0.5 0.375-0.875 0.813-0.875 0.5 0 0.875 0.375 0.875 0.875zM19.438 23.563h9.938v-10.438h-9.938zM20.25 13.938h8.25v8.813h-8.25z"></path>
</svg>
