<?xml version="1.0" encoding="utf-8"?>
<!DOCTYPE svg PUBLIC "-//W3C//DTD SVG 1.1//EN" "http://www.w3.org/Graphics/SVG/1.1/DTD/svg11.dtd">
<svg version="1.1" xmlns="http://www.w3.org/2000/svg" xmlns:xlink="http://www.w3.org/1999/xlink" width="32" height="32" viewBox="0 0 32 32">
<path d="M29.938 5.125h-27.875c-1.125 0-2.063 0.938-2.063 2.063v17.625c0 1.125 0.938 2.063 2.063 2.063h27.875c1.125 0 2.063-0.938 2.063-2.063v-17.625c0-1.125-0.938-2.063-2.063-2.063zM2.063 5.938h27.875c0.688 0 1.25 0.563 1.25 1.25v2.125h-30.375v-2.125c0-0.688 0.563-1.25 1.25-1.25zM29.938 26.063h-27.875c-0.688 0-1.25-0.563-1.25-1.25v-14.625h30.375v14.625c0 0.688-0.563 1.25-1.25 1.25zM3.063 8.563c0.5 0 0.875-0.438 0.875-0.875 0-0.5-0.375-0.875-0.875-0.875-0.438 0-0.813 0.375-0.813 0.875 0 0.438 0.375 0.875 0.813 0.875zM6.063 7.688c0 0.438-0.375 0.813-0.875 0.813-0.438 0-0.813-0.375-0.813-0.813 0-0.5 0.375-0.875 0.813-0.875 0.5 0 0.875 0.375 0.875 0.875zM8.188 7.688c0 0.438-0.375 0.813-0.875 0.813-0.438 0-0.813-0.375-0.813-0.813 0-0.5 0.375-0.875 0.813-0.875 0.5 0 0.875 0.375 0.875 0.875z"></path>
</svg>
