<?xml version="1.0" encoding="utf-8"?>
<!DOCTYPE svg PUBLIC "-//W3C//DTD SVG 1.1//EN" "http://www.w3.org/Graphics/SVG/1.1/DTD/svg11.dtd">
<svg version="1.1" xmlns="http://www.w3.org/2000/svg" xmlns:xlink="http://www.w3.org/1999/xlink" width="32" height="32" viewBox="0 0 32 32">
<path d="M32 5.125l-5.125-5.125-20.5 20.5c-0.25 0-0.375 0-0.625 0-3.188 0-5.75 2.563-5.75 5.75v5.75h5.75c3.188 0 5.75-2.563 5.75-5.75 0-0.25 0-0.375 0-0.625zM30.188 5.125l-15.313 15.25-3.375-3.375 15.375-15.188zM10.75 18.063l3.313 3.313-3.063 3.063-3.313-3.313zM5.75 30.75h-1l2.688-2.688-0.938-0.938-3.563 3.625h-1.688v-1.688l3.75-3.688-0.875-0.938-2.875 2.813v-1c0-2.438 2.063-4.5 4.5-4.5 0.25 0 0.5 0 0.625 0l3.875 3.875c0 0.25 0 0.5 0 0.625 0 2.438-2.063 4.5-4.5 4.5z"></path>
</svg>
