<?xml version="1.0" encoding="utf-8"?>
<!DOCTYPE svg PUBLIC "-//W3C//DTD SVG 1.1//EN" "http://www.w3.org/Graphics/SVG/1.1/DTD/svg11.dtd">
<svg version="1.1" xmlns="http://www.w3.org/2000/svg" xmlns:xlink="http://www.w3.org/1999/xlink" width="32" height="32" viewBox="0 0 32 32">
<path d="M29.688 4.313h-27.375c-1.25 0-2.313 1.063-2.313 2.375v13.25c0 1.313 1.063 2.375 2.313 2.375h3.688c0.938 0 2.375 0.438 3.188 0.938l4.875 3.375c1.25 0.813 1.688 1.063 1.938 1.063 0 0 0 0 0 0s0 0 0 0c0.25 0 0.688-0.25 1.938-1.125l4.875-3.313c0.813-0.5 2.25-0.938 3.188-0.938h3.688c1.25 0 2.313-1.063 2.313-2.375v-13.25c0-1.313-1.063-2.375-2.313-2.375zM31.063 19.938c0 0.813-0.625 1.438-1.375 1.438h-3.688c-1.125 0-2.75 0.5-3.688 1.125l-4.875 3.313c-0.75 0.5-1.25 0.813-1.438 0.875-0.188-0.063-0.688-0.375-1.438-0.875l-4.875-3.313c-0.938-0.625-2.563-1.125-3.688-1.125h-3.688c-0.75 0-1.375-0.625-1.375-1.438v-13.25c0-0.813 0.625-1.438 1.375-1.438h27.375c0.75 0 1.375 0.625 1.375 1.438zM10 11.5c-1.25 0-2.313 1-2.313 2.25s1.063 2.25 2.313 2.25c1.25 0 2.25-1 2.25-2.25s-1-2.25-2.25-2.25zM10 15.063c-0.75 0-1.375-0.625-1.375-1.313 0-0.75 0.625-1.375 1.375-1.375 0.688 0 1.313 0.625 1.313 1.375 0 0.688-0.625 1.313-1.313 1.313zM15.813 11.375c-1.25 0-2.25 1-2.25 2.25s1 2.313 2.25 2.313c1.25 0 2.25-1.063 2.25-2.313s-1-2.25-2.25-2.25zM15.813 15c-0.75 0-1.313-0.625-1.313-1.375 0-0.688 0.563-1.313 1.313-1.313s1.313 0.625 1.313 1.313c0 0.75-0.563 1.375-1.313 1.375zM21.75 11.5c-1.25 0-2.25 1-2.25 2.25s1 2.25 2.25 2.25c1.25 0 2.25-1 2.25-2.25s-1-2.25-2.25-2.25zM21.75 15.063c-0.75 0-1.313-0.625-1.313-1.313 0-0.75 0.563-1.375 1.313-1.375s1.313 0.625 1.313 1.375c0 0.688-0.563 1.313-1.313 1.313z"></path>
</svg>
