<?xml version="1.0" encoding="utf-8"?>
<!DOCTYPE svg PUBLIC "-//W3C//DTD SVG 1.1//EN" "http://www.w3.org/Graphics/SVG/1.1/DTD/svg11.dtd">
<svg version="1.1" xmlns="http://www.w3.org/2000/svg" xmlns:xlink="http://www.w3.org/1999/xlink" width="32" height="32" viewBox="0 0 32 32">
<path d="M32 13.625c0-6.125-4.938-11.063-11-11.063h-10c-2.938 0-5.688 1.188-7.75 3.25-2.125 2.063-3.25 4.875-3.25 7.813 0 6.063 4.938 11 11 11h8.563c0.375 0 2.375 0.25 3.188 1.375 0.375 0.5 0.5 1 0.375 1.688-0.25 1.188-0.313 1.5 0.25 1.688 0.063 0 0.125 0.063 0.188 0.063 0.375 0 0.5-0.375 0.813-1 0.625-1.313 2-4.313 4.625-7.313v0c1.938-2.063 3-4.688 3-7.5zM24.188 26.313c-0.125-0.375-0.313-0.688-0.5-1-1.188-1.5-3.688-1.813-4-1.813v0h-0.063c0 0 0 0 0 0v0h-8.625c-5.438 0-9.875-4.438-9.875-9.875 0-2.688 1.063-5.125 2.875-7 1.875-1.875 4.375-2.938 7-2.938h10c5.438 0 9.875 4.438 9.875 9.938 0 2.625-1.063 5.125-2.938 7h0.063c-1.813 2.125-3.063 4.188-3.813 5.688zM8.375 11.063c-1.5 0-2.75 1.25-2.75 2.75s1.25 2.688 2.75 2.688c1.5 0 2.75-1.188 2.75-2.688s-1.25-2.75-2.75-2.75zM8.375 15.375c-0.875 0-1.625-0.688-1.625-1.563s0.75-1.625 1.625-1.625c0.875 0 1.625 0.75 1.625 1.625s-0.75 1.563-1.625 1.563zM15.438 10.938c-1.5 0-2.75 1.25-2.75 2.75s1.25 2.75 2.75 2.75c1.5 0 2.75-1.25 2.75-2.75s-1.25-2.75-2.75-2.75zM15.438 15.313c-0.875 0-1.625-0.75-1.625-1.625s0.75-1.563 1.625-1.563c0.875 0 1.625 0.688 1.625 1.563s-0.75 1.625-1.625 1.625zM22.563 11.063c-1.5 0-2.688 1.25-2.688 2.75s1.188 2.688 2.688 2.688c1.5 0 2.75-1.188 2.75-2.688s-1.25-2.75-2.75-2.75zM22.563 15.375c-0.875 0-1.563-0.688-1.563-1.563s0.688-1.625 1.563-1.625c0.875 0 1.625 0.75 1.625 1.625s-0.75 1.563-1.625 1.563z"></path>
</svg>
