<?xml version="1.0" encoding="utf-8"?>
<!DOCTYPE svg PUBLIC "-//W3C//DTD SVG 1.1//EN" "http://www.w3.org/Graphics/SVG/1.1/DTD/svg11.dtd">
<svg version="1.1" xmlns="http://www.w3.org/2000/svg" xmlns:xlink="http://www.w3.org/1999/xlink" width="32" height="32" viewBox="0 0 32 32">
<path d="M16 7c-5.938 0-11 3.188-11 7 0 0.25 0.25 0.5 0.5 0.5s0.5-0.25 0.5-0.5c0-3.188 4.688-6 10-6 0.25 0 0.5-0.25 0.5-0.5s-0.25-0.5-0.5-0.5zM16 2c-8.813 0-16 5.375-16 12 0 4.125 2.75 7.75 7 9.938 0 0 0 0.063 0 0.063 0 1.813-1.313 3.75-1.938 4.75 0 0 0 0 0 0-0.063 0.125-0.063 0.188-0.063 0.375 0 0.5 0.375 0.875 0.875 0.875 0.125 0 0.313 0 0.313 0 3.125-0.5 6.063-3.375 6.75-4.25 1 0.188 2 0.25 3.063 0.25 8.813 0 16-5.375 16-12s-7.188-12-16-12zM16 24c-0.938 0-1.875-0.063-2.813-0.188-0.063-0.063-0.188-0.063-0.25-0.063-0.625 0-1.188 0.313-1.563 0.75-0.438 0.5-1.625 1.688-3.063 2.563 0.375-0.938 0.688-1.938 0.688-2.938 0-0.063 0-0.125 0-0.188 0-0.75-0.438-1.438-1.063-1.813-3.75-1.875-5.938-4.938-5.938-8.125 0-5.5 6.25-10 14-10 7.688 0 14 4.5 14 10s-6.25 10-14 10z"></path>
</svg>
