<?xml version="1.0" encoding="utf-8"?>
<!DOCTYPE svg PUBLIC "-//W3C//DTD SVG 1.1//EN" "http://www.w3.org/Graphics/SVG/1.1/DTD/svg11.dtd">
<svg version="1.1" xmlns="http://www.w3.org/2000/svg" xmlns:xlink="http://www.w3.org/1999/xlink" width="32" height="32" viewBox="0 0 32 32">
<path d="M16 0c-6.063 0-11 4.938-11 11 0 4 3.688 8.313 5 12.063 2.063 5.563 1.813 8.938 6 8.938 4.25 0 3.938-3.313 6-8.938 1.313-3.75 5-8.063 5-12.063 0-6.063-4.938-11-11-11zM18.563 27.188l-4.938 0.625c-0.188-0.5-0.375-1.125-0.563-1.938 0 0-0.063 0-0.063 0l6.188-0.75c-0.063 0.25-0.125 0.563-0.25 0.875-0.125 0.438-0.25 0.813-0.375 1.188zM12.75 24.938c-0.188-0.625-0.375-1.25-0.625-1.938h7.75c-0.125 0.375-0.25 0.75-0.313 1.063zM16 30c-1 0-1.5-0.125-2-1.25l4.25-0.5c-0.625 1.625-1.063 1.75-2.25 1.75zM20.688 21h-9.375c-0.5-1.063-1.063-2.188-1.688-3.188-1.25-2.375-2.625-4.75-2.625-6.813 0-4.938 4.063-9 9-9s9 4.063 9 9c0 2-1.375 4.438-2.625 6.813-0.625 1.063-1.188 2.125-1.688 3.188zM16 5c-3.313 0-6 2.688-6 6 0 0.25 0.25 0.5 0.5 0.5s0.5-0.25 0.5-0.5c0-2.75 2.25-5 5-5 0.25 0 0.5-0.25 0.5-0.5s-0.25-0.5-0.5-0.5z"></path>
</svg>
