<?xml version="1.0" encoding="utf-8"?>
<!DOCTYPE svg PUBLIC "-//W3C//DTD SVG 1.1//EN" "http://www.w3.org/Graphics/SVG/1.1/DTD/svg11.dtd">
<svg version="1.1" xmlns="http://www.w3.org/2000/svg" xmlns:xlink="http://www.w3.org/1999/xlink" width="32" height="32" viewBox="0 0 32 32">
<path d="M19.063 0c-7.125 0-13 5.813-13 12.938v7.375l-6.063 6.25 5.438 5.438 6.25-6.063h7.375c7.125 0 12.938-5.875 12.938-13s-5.813-12.938-12.938-12.938zM5.688 22.688l1.063-1.063 3.625 3.625-1.063 1.063zM8.438 27.188l-1.063 1.063-3.625-3.625 1.063-1.063zM1.813 26.563l1.063-1.063 3.625 3.625-1.063 1.063zM19.063 24.625h-7.5l-4.188-4.125v-7.563c0-6.438 5.188-11.625 11.688-11.625 6.438 0 11.625 5.188 11.625 11.625 0 6.5-5.188 11.688-11.625 11.688zM10 12.938h1.25c0-4.25 3.5-7.75 7.813-7.75v-1.313c-5.063 0-9.063 4-9.063 9.063z"></path>
</svg>
