<?xml version="1.0" encoding="utf-8"?>
<!DOCTYPE svg PUBLIC "-//W3C//DTD SVG 1.1//EN" "http://www.w3.org/Graphics/SVG/1.1/DTD/svg11.dtd">
<svg version="1.1" xmlns="http://www.w3.org/2000/svg" xmlns:xlink="http://www.w3.org/1999/xlink" width="32" height="32" viewBox="0 0 32 32">
<path d="M13.5 10.5c0.063 0.063 0.188 0.063 0.25 0.125 0.063 0 0.188 0.063 0.25 0.063s0.188-0.063 0.25-0.063c0.063-0.063 0.188-0.063 0.25-0.125l4-4c0.25-0.313 0.25-0.688 0-1-0.313-0.25-0.688-0.25-1 0l-2.813 2.875v-7.688c0-0.375-0.313-0.688-0.688-0.688s-0.688 0.313-0.688 0.688v7.688l-2.813-2.875c-0.313-0.25-0.688-0.25-1 0-0.25 0.313-0.25 0.688 0 1zM31.313 4h-4.625c-0.313 0-0.625 0.188-0.688 0.5l-1.75 7.5h-23.563c-0.25 0-0.438 0.125-0.563 0.25-0.125 0.188-0.188 0.438-0.063 0.625l4 12c0.063 0.25 0.313 0.438 0.625 0.438h16.438l-0.313 1.375h-14.125c-1.5 0-2.688 1.188-2.688 2.625 0 1.5 1.188 2.688 2.688 2.688 1.438 0 2.625-1.188 2.625-2.688 0-0.438-0.125-0.938-0.375-1.313h10.125c-0.25 0.375-0.375 0.875-0.375 1.313 0 1.5 1.188 2.688 2.625 2.688 1.5 0 2.688-1.188 2.688-2.688 0-1.188-0.813-2.188-1.875-2.5l0.438-1.813c0.063-0.125 0.125-0.188 0.125-0.313 0-0.063 0-0.063 0-0.063l4.5-19.313h4.125c0.375 0 0.688-0.25 0.688-0.625s-0.313-0.688-0.688-0.688zM5.125 24l-3.563-10.688h22.375l-2.5 10.688zM8 29.313c0 0.75-0.625 1.375-1.313 1.375-0.75 0-1.375-0.625-1.375-1.375 0-0.688 0.625-1.313 1.375-1.313 0.688 0 1.313 0.625 1.313 1.313zM22.688 29.313c0 0.75-0.625 1.375-1.375 1.375-0.688 0-1.313-0.625-1.313-1.375 0-0.688 0.625-1.313 1.313-1.313 0.75 0 1.375 0.625 1.375 1.313z"></path>
</svg>
