<?xml version="1.0" encoding="utf-8"?>
<!DOCTYPE svg PUBLIC "-//W3C//DTD SVG 1.1//EN" "http://www.w3.org/Graphics/SVG/1.1/DTD/svg11.dtd">
<svg version="1.1" xmlns="http://www.w3.org/2000/svg" xmlns:xlink="http://www.w3.org/1999/xlink" width="32" height="32" viewBox="0 0 32 32">
<path d="M8.563 10.125h14.875v-4.25h-14.875zM9.625 6.938h12.75v2.125h-12.75v-2.125zM23.438 3.188h-14.875c-1.188 0-2.188 1-2.188 2.125v21.375c0 1.125 1 2.125 2.188 2.125h14.875c1.188 0 2.188-1 2.188-2.125v-21.375c0-1.125-1-2.125-2.188-2.125zM24.5 26.688c0 0.563-0.438 1.063-1.063 1.063h-14.875c-0.625 0-1.063-0.5-1.063-1.063v-21.375c0-0.563 0.438-1.063 1.063-1.063h14.875c0.625 0 1.063 0.5 1.063 1.063zM9.625 14.938v-3.188h-1.063v4.25h4.25v-1.063zM9.625 20.25v-3.188h-1.063v4.25h4.25v-1.063zM9.625 25.625v-3.25h-1.063v4.313h4.25v-1.063zM14.938 14.938v-3.188h-1.063v4.25h4.25v-1.063zM20.25 14.938v-3.188h-1.063v4.25h4.25v-1.063zM14.938 20.25v-3.188h-1.063v4.25h4.25v-1.063zM14.938 25.625v-3.25h-1.063v4.313h4.25v-1.063zM20.25 25.625v-8.563h-1.063v9.625h4.25v-1.063z"></path>
</svg>
