<?xml version="1.0" encoding="utf-8"?>
<!DOCTYPE svg PUBLIC "-//W3C//DTD SVG 1.1//EN" "http://www.w3.org/Graphics/SVG/1.1/DTD/svg11.dtd">
<svg version="1.1" xmlns="http://www.w3.org/2000/svg" xmlns:xlink="http://www.w3.org/1999/xlink" width="32" height="32" viewBox="0 0 32 32">
<path d="M9.625 16.625c0 0.563-0.438 1-1 1s-1-0.438-1-1c0-0.563 0.438-1 1-1s1 0.438 1 1zM13.313 16.625c0 0.563-0.438 1-1 1s-1-0.438-1-1c0-0.563 0.438-1 1-1s1 0.438 1 1zM9.625 20.313c0 0.563-0.438 1-1 1s-1-0.438-1-1c0-0.563 0.438-1 1-1s1 0.438 1 1zM13.313 20.313c0 0.563-0.438 1-1 1s-1-0.438-1-1c0-0.563 0.438-1 1-1s1 0.438 1 1zM9.625 24c0 0.563-0.438 1-1 1s-1-0.438-1-1c0-0.563 0.438-1 1-1s1 0.438 1 1zM13.313 24c0 0.563-0.438 1-1 1s-1-0.438-1-1c0-0.563 0.438-1 1-1s1 0.438 1 1zM9.625 27.688c0 0.563-0.438 1-1 1s-1-0.438-1-1c0-0.563 0.438-1 1-1s1 0.438 1 1zM13.313 27.688c0 0.563-0.438 1-1 1s-1-0.438-1-1c0-0.563 0.438-1 1-1s1 0.438 1 1zM17 16.625c0 0.563-0.438 1-1 1s-1-0.438-1-1c0-0.563 0.438-1 1-1s1 0.438 1 1zM20.688 16.625c0 0.563-0.438 1-1 1s-1-0.438-1-1c0-0.563 0.438-1 1-1s1 0.438 1 1zM24.375 16.625c0 0.563-0.438 1-1 1s-1-0.438-1-1c0-0.563 0.438-1 1-1s1 0.438 1 1zM17 20.313c0 0.563-0.438 1-1 1s-1-0.438-1-1c0-0.563 0.438-1 1-1s1 0.438 1 1zM20.688 20.313c0 0.563-0.438 1-1 1s-1-0.438-1-1c0-0.563 0.438-1 1-1s1 0.438 1 1zM24.375 20.313c0 0.563-0.438 1-1 1s-1-0.438-1-1c0-0.563 0.438-1 1-1s1 0.438 1 1zM17 24c0 0.563-0.438 1-1 1s-1-0.438-1-1c0-0.563 0.438-1 1-1s1 0.438 1 1zM20.688 24c0 0.563-0.438 1-1 1s-1-0.438-1-1c0-0.563 0.438-1 1-1s1 0.438 1 1zM17 27.688c0 0.563-0.438 1-1 1s-1-0.438-1-1c0-0.563 0.438-1 1-1s1 0.438 1 1zM20.688 27.688c0 0.563-0.438 1-1 1s-1-0.438-1-1c0-0.563 0.438-1 1-1s1 0.438 1 1zM3.688 0v32h24.625v-32zM4.938 7.375h22.125v4.938h-22.125zM27.063 30.75h-22.125v-17.188h22.125zM4.938 6.125v-4.875h22.125v4.875zM22.75 23.375h1.25v4.938h-1.25zM12.313 3.688h7.375v1.25h-7.375z"></path>
</svg>
