<?xml version="1.0" encoding="utf-8"?>
<!DOCTYPE svg PUBLIC "-//W3C//DTD SVG 1.1//EN" "http://www.w3.org/Graphics/SVG/1.1/DTD/svg11.dtd">
<svg version="1.1" xmlns="http://www.w3.org/2000/svg" xmlns:xlink="http://www.w3.org/1999/xlink" width="32" height="32" viewBox="0 0 32 32">
<path d="M29.313 3h-4.313v-2c0-0.563-0.438-1-1-1s-1 0.438-1 1v2h-6v-2c0-0.563-0.438-1-1-1s-1 0.438-1 1v2h-6v-2c0-0.563-0.438-1-1-1s-1 0.438-1 1v2h-4.313c-1.5 0-2.688 1.188-2.688 2.688v23.625c0 1.5 1.188 2.688 2.688 2.688h26.625c1.5 0 2.688-1.188 2.688-2.688v-23.625c0-1.5-1.188-2.688-2.688-2.688zM30 29.313c0 0.375-0.313 0.688-0.688 0.688h-26.625c-0.375 0-0.688-0.313-0.688-0.688v-23.625c0-0.375 0.313-0.688 0.688-0.688h4.313v2c0 0.563 0.438 1 1 1s1-0.438 1-1v-2h6v2c0 0.563 0.438 1 1 1s1-0.438 1-1v-2h6v2c0 0.563 0.438 1 1 1s1-0.438 1-1v-2h4.313c0.375 0 0.688 0.313 0.688 0.688zM7 12h4v3h-4zM7 17h4v3h-4zM7 22h4v3h-4zM14 22h4v3h-4zM14 17h4v3h-4zM14 12h4v3h-4zM21 22h4v3h-4zM21 17h4v3h-4zM21 12h4v3h-4z"></path>
</svg>
