<?xml version="1.0" encoding="utf-8"?>
<!DOCTYPE svg PUBLIC "-//W3C//DTD SVG 1.1//EN" "http://www.w3.org/Graphics/SVG/1.1/DTD/svg11.dtd">
<svg version="1.1" xmlns="http://www.w3.org/2000/svg" xmlns:xlink="http://www.w3.org/1999/xlink" width="32" height="32" viewBox="0 0 32 32">
<path d="M26.25 2.563v-2.563h-1.313v2.563h-5.125v-2.563h-1.25v2.563h-5.125v-2.563h-1.25v2.563h-5.125v-2.563h-1.313v2.563h-5.063v29.438h30.625v-29.438zM30.063 30.688h-28.125v-26.813h3.813v2.563h1.313v-2.563h5.125v2.563h1.25v-2.563h5.125v2.563h1.25v-2.563h5.125v2.563h1.313v-2.563h3.813v26.813zM12.188 11.125l-3.5 1.813 0.563 1 1.625-0.75v11.125h-2.563v1.25h6.438v-1.25h-2.563zM21.125 11.125l-3.438 1.813 0.5 1 1.625-0.75v11.125h-2.563v1.25h6.438v-1.25h-2.563z"></path>
</svg>
