<?xml version="1.0" encoding="utf-8"?>
<!DOCTYPE svg PUBLIC "-//W3C//DTD SVG 1.1//EN" "http://www.w3.org/Graphics/SVG/1.1/DTD/svg11.dtd">
<svg version="1.1" xmlns="http://www.w3.org/2000/svg" xmlns:xlink="http://www.w3.org/1999/xlink" width="32" height="32" viewBox="0 0 32 32">
<path d="M23.438 30.375c-2.438 0-8.375-3.063-13.313-9.75-4.688-6.25-6.938-10.75-6.938-13.813 0-2.375 1.688-3.5 2.563-4.125l0.188-0.188c1-0.688 2.5-0.875 3.125-0.875 1 0 1.438 0.563 1.688 1.125 0.25 0.438 2.063 4.375 2.25 4.875 0.313 0.75 0.188 1.813-0.688 2.5l-0.125 0.063c-0.438 0.313-1.25 0.875-1.375 1.563-0.063 0.313 0.063 0.688 0.313 1.063 1.438 1.938 6 7.563 6.813 8.313 0.625 0.625 1.438 0.688 2 0.25 0.563-0.5 0.813-0.813 0.813-0.813l0.063-0.063c0.063 0 0.5-0.375 1.25-0.375 0.5 0 1.063 0.188 1.563 0.563 1.375 0.938 4.5 3 4.5 3l0.063 0.063c0.375 0.313 0.938 1.313 0.313 2.563-0.688 1.313-2.875 4.063-5.125 4.063zM9.063 2.688c-0.5 0-1.75 0.188-2.5 0.688l-0.188 0.188c-0.875 0.563-2.125 1.438-2.125 3.25 0 2.813 2.188 7.125 6.688 13.188 4.938 6.563 10.563 9.313 12.438 9.313 1.688 0 3.5-2.25 4.188-3.5 0.375-0.75 0.063-1.125-0.063-1.25-0.375-0.25-3.188-2.125-4.438-3-0.375-0.25-0.688-0.375-1-0.375s-0.5 0.125-0.563 0.188c-0.063 0.063-0.375 0.375-0.875 0.813-0.938 0.813-2.375 0.688-3.438-0.25-0.938-0.875-5.563-6.688-6.938-8.5-0.438-0.563-0.625-1.25-0.5-1.875 0.188-1.125 1.25-1.813 1.813-2.25l0.125-0.063c0.5-0.375 0.438-1.063 0.313-1.25-0.125-0.438-1.938-4.313-2.188-4.813-0.188-0.375-0.313-0.5-0.75-0.5z"></path>
</svg>
