<?xml version="1.0" encoding="utf-8"?>
<!DOCTYPE svg PUBLIC "-//W3C//DTD SVG 1.1//EN" "http://www.w3.org/Graphics/SVG/1.1/DTD/svg11.dtd">
<svg version="1.1" xmlns="http://www.w3.org/2000/svg" xmlns:xlink="http://www.w3.org/1999/xlink" width="32" height="32" viewBox="0 0 32 32">
<path d="M32 19.188h-3.875v-3.813h-2.125c2-1.438 3.438-3.75 3.438-6.438 0-4.188-3.438-7.625-7.688-7.625-3.188 0-5.875 1.875-7 4.563-1.188-2.688-3.875-4.563-7.063-4.563-4.25 0-7.688 3.438-7.688 7.625 0 2.688 1.438 5 3.438 6.438h-2.125v15.313h26.813v-3.813h3.875zM21.75 2.563c3.563 0 6.375 2.813 6.375 6.375 0 3.625-2.813 6.438-6.375 6.438s-6.375-2.813-6.375-6.438c0-3.563 2.813-6.375 6.375-6.375zM17.563 15.375h-5.625c1.25-0.813 2.125-1.938 2.813-3.313 0.625 1.375 1.5 2.5 2.813 3.313zM1.313 8.938c0-3.563 2.813-6.375 6.375-6.375s6.375 2.813 6.375 6.375c0 3.625-2.813 6.438-6.375 6.438s-6.375-2.813-6.375-6.438zM26.875 29.438h-24.313v-12.813h24.313zM30.688 25.625h-2.563v-5.125h2.563z"></path>
</svg>
