<?xml version="1.0" encoding="utf-8"?>
<!DOCTYPE svg PUBLIC "-//W3C//DTD SVG 1.1//EN" "http://www.w3.org/Graphics/SVG/1.1/DTD/svg11.dtd">
<svg version="1.1" xmlns="http://www.w3.org/2000/svg" xmlns:xlink="http://www.w3.org/1999/xlink" width="32" height="32" viewBox="0 0 32 32">
<path d="M27.188 9.063h-4.375l-2.563-2.563c-0.063 0-0.063 0-0.063 0v0c-0.375-0.375-0.875-0.625-1.5-0.625h-5.313c-0.625 0-1.188 0.25-1.563 0.688v0l-2.5 2.5h-4.5c-1.188 0-2.125 0.938-2.125 2.125v12.813c0 1.188 0.938 2.125 2.125 2.125h22.375c1.188 0 2.125-0.938 2.125-2.125v-12.813c0-1.188-0.938-2.125-2.125-2.125zM28.25 24c0 0.563-0.438 1.063-1.063 1.063h-22.375c-0.625 0-1.063-0.5-1.063-1.063v-12.813c0-0.563 0.438-1.063 1.063-1.063h4.938l1.625-1.625v0.125l1.25-1.313c0.188-0.25 0.438-0.375 0.75-0.375h5.313c0.313 0 0.563 0.125 0.75 0.313l2.875 2.875h4.875c0.625 0 1.063 0.5 1.063 1.063zM16 10.125c-3.813 0-6.938 3.125-6.938 6.938s3.125 6.938 6.938 6.938c3.813 0 6.938-3.125 6.938-6.938s-3.125-6.938-6.938-6.938zM16 22.938c-3.25 0-5.875-2.625-5.875-5.875s2.625-5.875 5.875-5.875c3.25 0 5.875 2.625 5.875 5.875s-2.625 5.875-5.875 5.875zM16 12.25c-2.625 0-4.813 2.188-4.813 4.813s2.188 4.813 4.813 4.813c2.625 0 4.813-2.188 4.813-4.813s-2.188-4.813-4.813-4.813zM16 20.813c-2.063 0-3.75-1.688-3.75-3.75s1.688-3.75 3.75-3.75c2.063 0 3.75 1.688 3.75 3.75s-1.688 3.75-3.75 3.75z"></path>
</svg>
