<?xml version="1.0" encoding="utf-8"?>
<!DOCTYPE svg PUBLIC "-//W3C//DTD SVG 1.1//EN" "http://www.w3.org/Graphics/SVG/1.1/DTD/svg11.dtd">
<svg version="1.1" xmlns="http://www.w3.org/2000/svg" xmlns:xlink="http://www.w3.org/1999/xlink" width="32" height="32" viewBox="0 0 32 32">
<path d="M28.875 6h-0.813l-1.688-1.688c-0.063 0-0.063 0-0.063-0.063v0c-0.063 0-0.063 0-0.063 0-0.063-0.063-0.125-0.063-0.25-0.063h-9.438c-0.063 0-0.125 0-0.188 0s-0.063 0.063-0.125 0.063l-1.75 1.75h-6.625v-0.875c0 0 0 0 0 0s0 0 0 0c0-0.25-0.25-0.438-0.5-0.438h-3.125c-0.25 0-0.438 0.188-0.438 0.438 0 0 0 0 0 0s0 0 0 0.063v0.813h-0.688c-1.75 0-3.125 1.375-3.125 3.125v15.625c0 1.688 1.375 3.063 3.125 3.063h25.75c1.75 0 3.125-1.375 3.125-3.063v-15.625c0-1.75-1.375-3.125-3.125-3.125zM16.875 5.063h8.813l0.938 0.938h-10.75zM4.688 5.5h2.313v0.5h-2.313zM31.125 24.75c0 1.188-1 2.188-2.25 2.188h-25.75c-1.25 0-2.25-1-2.25-2.188v-15.625c0-1.25 1-2.25 2.25-2.25h25.75c1.25 0 2.25 1 2.25 2.25v15.625zM21.25 8.938c-4.375 0-8 3.563-8 8 0 4.375 3.625 7.938 8 7.938s7.938-3.563 7.938-7.938c0-4.438-3.563-8-7.938-8zM21.25 24c-3.938 0-7.063-3.188-7.063-7.063 0-3.938 3.125-7.125 7.063-7.125 3.875 0 7.063 3.188 7.063 7.125 0 3.875-3.188 7.063-7.063 7.063zM21.25 10.813c-3.375 0-6.125 2.75-6.125 6.125s2.75 6.125 6.125 6.125c3.375 0 6.125-2.75 6.125-6.125s-2.75-6.125-6.125-6.125zM21.25 22.188c-2.875 0-5.25-2.375-5.25-5.25s2.375-5.25 5.25-5.25c2.875 0 5.25 2.375 5.25 5.25s-2.375 5.25-5.25 5.25zM6.125 14.25c1.25 0 2.313-1 2.313-2.25s-1.063-2.313-2.313-2.313c-1.25 0-2.313 1.063-2.313 2.313s1.063 2.25 2.313 2.25zM6.125 10.563c0.75 0 1.375 0.625 1.375 1.438 0 0.75-0.625 1.375-1.375 1.375s-1.375-0.625-1.375-1.375c0-0.813 0.625-1.438 1.375-1.438zM3.813 18.938c0 0.25 0.188 0.438 0.438 0.438h5.5c0.25 0 0.438-0.188 0.438-0.438s-0.188-0.438-0.438-0.438h-5.5c-0.25 0-0.438 0.188-0.438 0.438zM3.813 20.875c0 0.188 0.25 0.375 0.5 0.375h6.625c0.25 0 0.5-0.188 0.5-0.375 0-0.25-0.25-0.438-0.5-0.438h-6.625c-0.25 0-0.5 0.188-0.5 0.438zM12.313 22.438h-7.875c-0.375 0-0.625 0.188-0.625 0.438s0.25 0.438 0.625 0.438h7.875c0.313 0 0.563-0.188 0.563-0.438s-0.25-0.438-0.563-0.438zM6.125 8.938c1.188 0 2.313 0.75 2.75 1.875l0.813-0.375c-0.625-1.438-2-2.375-3.563-2.375s-2.938 0.938-3.563 2.375l0.813 0.375c0.438-1.125 1.563-1.875 2.75-1.875z"></path>
</svg>
