<?xml version="1.0" encoding="utf-8"?>
<!DOCTYPE svg PUBLIC "-//W3C//DTD SVG 1.1//EN" "http://www.w3.org/Graphics/SVG/1.1/DTD/svg11.dtd">
<svg version="1.1" xmlns="http://www.w3.org/2000/svg" xmlns:xlink="http://www.w3.org/1999/xlink" width="32" height="32" viewBox="0 0 32 32">
<path d="M16 10c-4.438 0-8 3.563-8 8s3.563 8 8 8c4.438 0 8-3.563 8-8s-3.563-8-8-8zM20.563 21.875c-2.188 2.563-5.938 2.813-8.438 0.688-2.563-2.188-2.813-5.938-0.688-8.438 2.188-2.563 5.938-2.813 8.438-0.688 2.563 2.188 2.813 5.938 0.688 8.438zM16 14c-2.188 0-4 1.813-4 4v0c0 0.25 0.25 0.5 0.5 0.5s0.5-0.25 0.5-0.5v0c0-1.625 1.313-3 3-3 0.25 0 0.5-0.25 0.5-0.5s-0.25-0.5-0.5-0.5zM29.5 9.063l-4.313-0.75-1.375-3.438c-0.5-1.125-1.563-1.875-2.813-1.875h-10c-1.25 0-2.313 0.75-2.813 1.875l-1.375 3.438-4.313 0.75c-1.438 0.25-2.5 1.438-2.5 2.938v15c0 1.625 1.375 3 3 3h26c1.625 0 3-1.375 3-3v-15c0-1.5-1.063-2.688-2.5-2.938zM30 27c0 0.563-0.438 1-1 1h-26c-0.563 0-1-0.438-1-1v-15c0-0.5 0.375-0.875 0.813-1l5.438-0.875 1.813-4.5c0.188-0.375 0.5-0.625 0.938-0.625h10c0.438 0 0.75 0.25 0.938 0.625l1.813 4.5 5.438 0.875c0.438 0.125 0.813 0.5 0.813 1z"></path>
</svg>
