<?xml version="1.0" encoding="utf-8"?>
<!DOCTYPE svg PUBLIC "-//W3C//DTD SVG 1.1//EN" "http://www.w3.org/Graphics/SVG/1.1/DTD/svg11.dtd">
<svg version="1.1" xmlns="http://www.w3.org/2000/svg" xmlns:xlink="http://www.w3.org/1999/xlink" width="32" height="32" viewBox="0 0 32 32">
<path d="M24 5.563l-2.438-2.5h-6.813l-2.438 2.5h-12.313v23.375h32v-23.375zM30.75 27.688h-29.5v-20.938h11.563l2.438-2.438h5.813l2.438 2.438h7.25zM9.875 16.625c0 4.813 3.813 8.625 8.563 8.625 4.813 0 8.625-3.813 8.625-8.625s-3.813-8.625-8.625-8.625c-4.75 0-8.563 3.813-8.563 8.625zM25.875 16.625c0 4.063-3.375 7.375-7.438 7.375s-7.375-3.313-7.375-7.375c0-4.063 3.313-7.375 7.375-7.375s7.438 3.313 7.438 7.375zM13.563 16.625h1.188c0-2.125 1.625-3.688 3.688-3.688v-1.25c-2.688 0-4.875 2.25-4.875 4.938zM5.313 9.875c0 0.5-0.438 0.938-1 0.938s-1-0.438-1-0.938c0-0.563 0.438-1 1-1s1 0.438 1 1z"></path>
</svg>
