<?xml version="1.0" encoding="utf-8"?>
<!DOCTYPE svg PUBLIC "-//W3C//DTD SVG 1.1//EN" "http://www.w3.org/Graphics/SVG/1.1/DTD/svg11.dtd">
<svg version="1.1" xmlns="http://www.w3.org/2000/svg" xmlns:xlink="http://www.w3.org/1999/xlink" width="32" height="32" viewBox="0 0 32 32">
<path d="M7.375 15.438c-1.188 0-2.125 1-2.125 2.188 0 1.125 0.938 2.125 2.125 2.125s2.125-1 2.125-2.125c0-1.188-0.938-2.188-2.125-2.188zM7.375 18.688c-0.625 0-1.063-0.5-1.063-1.063 0-0.625 0.438-1.063 1.063-1.063 0.563 0 1.063 0.438 1.063 1.063 0 0.563-0.5 1.063-1.063 1.063zM24.438 15.438c-1.188 0-2.125 1-2.125 2.188 0 1.125 0.938 2.125 2.125 2.125s2.125-1 2.125-2.125c0-1.188-0.938-2.188-2.125-2.188zM24.438 18.688c-0.563 0-1.063-0.5-1.063-1.063 0-0.625 0.5-1.063 1.063-1.063s1.063 0.438 1.063 1.063c0 0.563-0.5 1.063-1.063 1.063zM26.625 11.188l-0.938-4.25c-0.375-1.375-1.438-2.125-2.875-2.125h-13.875c-1.438 0-2.313 0.75-2.75 2.125l-0.938 4.25h-3.75v1.063h3.438v0.063c-1.625 0.125-2.875 1.5-2.875 3.188v7.438h1.563v1.625c0 1.438 1.188 2.625 2.688 2.625s2.625-1.188 2.625-2.625v-1.625h13.875v1.625c0 1.438 1.188 2.625 2.688 2.625s2.688-1.188 2.688-2.625v-1.625h1.563v-7.438c0-1.625-1.25-3-2.875-3.188v-0.063h3.438v-1.063zM7.188 7.25c0.313-0.938 0.813-1.375 1.75-1.375h13.875c1.063 0 1.625 0.438 1.875 1.313l1.063 5.125h-19.688l1.125-5.063zM7.875 24.563c0 0.875-0.688 1.563-1.563 1.563-0.938 0-1.625-0.688-1.625-1.563v-1.625h3.188zM27.125 24.563c0 0.875-0.688 1.563-1.625 1.563s-1.625-0.688-1.625-1.563v-1.625h3.25zM28.688 15.5v6.375h-25.563v-6.375c0-1.125 0.938-2.125 2.125-2.125h21.313c1.188 0 2.125 1 2.125 2.125z"></path>
</svg>
