<?xml version="1.0" encoding="utf-8"?>
<!DOCTYPE svg PUBLIC "-//W3C//DTD SVG 1.1//EN" "http://www.w3.org/Graphics/SVG/1.1/DTD/svg11.dtd">
<svg version="1.1" xmlns="http://www.w3.org/2000/svg" xmlns:xlink="http://www.w3.org/1999/xlink" width="32" height="32" viewBox="0 0 32 32">
<path d="M30.625 9.625h-22.438l-1.813-7.5h-5v1.063h4.188l5.188 21.438c-1.063 0.375-1.938 1.375-1.938 2.563 0 1.5 1.25 2.688 2.688 2.688 1.5 0 2.688-1.188 2.688-2.688 0-0.625-0.25-1.125-0.563-1.563h7.5c-0.375 0.438-0.563 0.938-0.563 1.563 0 1.5 1.188 2.688 2.688 2.688 1.438 0 2.625-1.188 2.625-2.688 0-1.438-1.188-2.688-2.625-2.688h-11.438l-0.5-2.125h15l4.313-12.75zM13.125 27.188c0 0.875-0.75 1.625-1.625 1.625s-1.563-0.75-1.563-1.625c0-0.875 0.688-1.563 1.563-1.563s1.625 0.688 1.625 1.563zM24.813 27.188c0 0.875-0.688 1.625-1.563 1.625s-1.625-0.75-1.625-1.625c0-0.875 0.75-1.563 1.625-1.563s1.563 0.688 1.563 1.563zM11.063 21.313l-2.563-10.625h20.625l-3.625 10.625z"></path>
</svg>
