<?xml version="1.0" encoding="utf-8"?>
<!DOCTYPE svg PUBLIC "-//W3C//DTD SVG 1.1//EN" "http://www.w3.org/Graphics/SVG/1.1/DTD/svg11.dtd">
<svg version="1.1" xmlns="http://www.w3.org/2000/svg" xmlns:xlink="http://www.w3.org/1999/xlink" width="32" height="32" viewBox="0 0 32 32">
<path d="M18.313 10.75c-1.75 0-3.188 1.438-3.188 3.125 0 1.75 1.438 3.188 3.188 3.188 1.688 0 3.125-1.438 3.125-3.188 0-1.688-1.438-3.125-3.125-3.125zM18.313 16c-1.188 0-2.125-0.938-2.125-2.125 0-1.125 0.938-2.063 2.125-2.063 1.125 0 2.063 0.938 2.063 2.063 0 1.188-0.938 2.125-2.063 2.125zM5.688 6.063v15.688h25.188v-15.688zM29.813 9.563v11.188h-23.063v-13.688h23.063zM25.25 22.813h-20.625v-14.688h-1v15.75h25.125v-1.063zM23.125 24.938h-20.563v-14.688h-1.063v15.688h25.188v-1zM8.313 8.188h3.125v1h-3.125zM8.313 18.625h3.125v1.063h-3.125zM25.125 8.188h3.125v1h-3.125zM25.125 18.625h3.125v1.063h-3.125z"></path>
</svg>
