<?xml version="1.0" encoding="utf-8"?>
<!DOCTYPE svg PUBLIC "-//W3C//DTD SVG 1.1//EN" "http://www.w3.org/Graphics/SVG/1.1/DTD/svg11.dtd">
<svg version="1.1" xmlns="http://www.w3.org/2000/svg" xmlns:xlink="http://www.w3.org/1999/xlink" width="32" height="32" viewBox="0 0 32 32">
<path d="M16 2.688c-7.375 0-13.313 5.938-13.313 13.313s5.938 13.313 13.313 13.313c7.375 0 13.313-5.938 13.313-13.313s-5.938-13.313-13.313-13.313zM16 28.25c-6.75 0-12.25-5.5-12.25-12.25s5.5-12.25 12.25-12.25c6.75 0 12.25 5.5 12.25 12.25s-5.5 12.25-12.25 12.25zM22.688 11.25l-8.563 8.313-3-3c-0.313-0.313-0.813-0.313-1.125 0s-0.313 0.813 0 1.125l3.563 3.563c0.125 0.125 0.313 0.188 0.563 0.188 0.188 0 0.375-0.063 0.5-0.188l9.125-8.875c0.375-0.313 0.375-0.813 0.063-1.125s-0.813-0.313-1.125 0z"></path>
</svg>
