<?xml version="1.0" encoding="utf-8"?>
<!DOCTYPE svg PUBLIC "-//W3C//DTD SVG 1.1//EN" "http://www.w3.org/Graphics/SVG/1.1/DTD/svg11.dtd">
<svg version="1.1" xmlns="http://www.w3.org/2000/svg" xmlns:xlink="http://www.w3.org/1999/xlink" width="32" height="32" viewBox="0 0 32 32">
<path d="M31.125 8.125l0.875-0.813-0.75-0.875-6.438-6.438-0.813 0.875 0.688 0.688-9.375 9.375c-1.438-0.625-2.875-0.813-4.375-0.813-6.063 0-10.938 4.813-10.938 10.938 0 6.063 4.875 10.938 10.938 10.938s10.938-4.875 10.938-10.938c0-1.5-0.25-2.938-0.813-4.375l9.375-9.375zM10.938 30.75c-5.313 0-9.75-4.375-9.75-9.688h19.5c0 5.313-4.375 9.688-9.75 9.688zM19.563 16.438l0.25 0.375c0.5 0.938 0.75 1.938 0.875 2.875h-19.313c0.563-4.75 4.688-8.5 9.563-8.5 1.5 0 2.938 0.375 4.125 1l0.375 0.25 10.125-10 4 4z"></path>
</svg>
