<?xml version="1.0" encoding="utf-8"?>
<!DOCTYPE svg PUBLIC "-//W3C//DTD SVG 1.1//EN" "http://www.w3.org/Graphics/SVG/1.1/DTD/svg11.dtd">
<svg version="1.1" xmlns="http://www.w3.org/2000/svg" xmlns:xlink="http://www.w3.org/1999/xlink" width="32" height="32" viewBox="0 0 32 32">
<path d="M30.25 7.625c0 2.563-2.375 4.75-5.688 5.625l-2.688 2.75v-2.313c-0.188 0-0.438 0-0.625 0-4.938 0-9-2.688-9-6.063 0-3.313 4.063-6 9-6s9 2.688 9 6zM10.063 13.438c-4.75 0-8.625 3.813-8.625 8.5s3.875 8.438 8.625 8.438h3.938c0.063 0 0.063 0 0.125 0v-4.5h-2.5c0 0-4.5 0.375-4.563-3.938 0.063-4.313 4.563-3.938 4.563-3.938h2.5v-4.5c-0.063 0-0.063-0.063-0.125-0.063z"></path>
</svg>
