<?xml version="1.0" encoding="utf-8"?>
<!DOCTYPE svg PUBLIC "-//W3C//DTD SVG 1.1//EN" "http://www.w3.org/Graphics/SVG/1.1/DTD/svg11.dtd">
<svg version="1.1" xmlns="http://www.w3.org/2000/svg" xmlns:xlink="http://www.w3.org/1999/xlink" width="32" height="32" viewBox="0 0 32 32">
<path d="M31.313 8h0.688v-6.063h-32v28.125h32v-20.938h-24.813l1.125-1.125h23zM22.125 6.625h-2.563l-3.25-3.313h2.5zM20.75 3.313h2.875l3.25 3.313h-2.813zM17.625 6.625h-2.875l-3.25-3.313h2.875zM30.625 6.625h-1.813l-3.25-3.313h5.063zM9.563 3.313l3.25 3.313h-4.438l-2.688-3.313zM20.688 13.438l2.875-2.938h2.875l-2.938 2.938zM18.688 13.438h-2.5l2.938-2.938h2.5zM14.25 13.438h-2.875l2.938-2.938h2.875zM9.438 13.438h-2.5l2.938-2.938h2.5zM5 13.438h-3.625v-2.938h6.563zM1.375 28.688v-13.875h29.25v13.875zM30.625 13.438h-5.188l2.938-2.938h2.25zM1.375 9.125v-5.813h2.5l3.188 3.938-1.813 1.875zM2.938 17.063h24.563v1.375h-24.563zM2.938 20.5h7.688v1.375h-7.688zM2.938 24.125h7.688v1.375h-7.688zM3.5 5.375c-0.563 0-1.063 0.438-1.063 1 0 0.625 0.5 1.063 1.063 1.063s1-0.438 1-1.063c0-0.563-0.438-1-1-1z"></path>
</svg>
