<?xml version="1.0" encoding="utf-8"?>
<!DOCTYPE svg PUBLIC "-//W3C//DTD SVG 1.1//EN" "http://www.w3.org/Graphics/SVG/1.1/DTD/svg11.dtd">
<svg version="1.1" xmlns="http://www.w3.org/2000/svg" xmlns:xlink="http://www.w3.org/1999/xlink" width="32" height="32" viewBox="0 0 32 32">
<path d="M25.5 3.813h-6.438v-0.75c0-0.813-0.313-1.563-0.875-2.125-0.563-0.625-1.375-0.938-2.188-0.938-1.688 0-3.063 1.375-3.063 3.063v0.75h-6.375c-0.938 0-1.688 0.813-1.688 1.75v24.688c0 1 0.75 1.75 1.75 1.75h18.75c1 0 1.75-0.75 1.75-1.75v-24.688c0-0.938-0.75-1.75-1.625-1.75zM11.625 5h2.438v-1.938c0-1.063 0.875-1.875 1.938-1.875 0.5 0 1 0.188 1.375 0.563 0.375 0.313 0.563 0.813 0.563 1.313v1.938h5.938v4.313h-15.625v-4.313zM26 30.25c0 0.313-0.313 0.563-0.625 0.563h-18.75c-0.313 0-0.625-0.25-0.625-0.563v-24.688c0-0.313 0.25-0.563 0.563-0.563h0.5v5.438h17.938v-5.438h0.5c0.25 0 0.5 0.25 0.5 0.563zM16 4.938c0.813 0 1.5-0.688 1.5-1.5 0-0.875-0.688-1.563-1.5-1.563s-1.5 0.688-1.5 1.563c0 0.813 0.688 1.5 1.5 1.5zM16 3.063c0.188 0 0.375 0.188 0.375 0.375s-0.188 0.375-0.375 0.375c-0.188 0-0.375-0.188-0.375-0.375s0.188-0.375 0.375-0.375zM7.625 12.313h16.813v1.188h-16.813zM7.625 15.25h5.188v1.188h-5.188zM7.625 18.625h16.813v1.188h-16.813zM7.625 21.438h16.813v1.188h-16.813zM7.625 27.375h16.813v1.188h-16.813z"></path>
</svg>
