<?xml version="1.0" encoding="utf-8"?>
<!DOCTYPE svg PUBLIC "-//W3C//DTD SVG 1.1//EN" "http://www.w3.org/Graphics/SVG/1.1/DTD/svg11.dtd">
<svg version="1.1" xmlns="http://www.w3.org/2000/svg" xmlns:xlink="http://www.w3.org/1999/xlink" width="32" height="32" viewBox="0 0 32 32">
<path d="M29.5 1.875c-2.5-2.5-6.75-2.5-9.438 0l-19.688 19.875 0.938 0.938 19.688-19.875c2.125-2.125 5.438-2.125 7.563 0 1.063 1.063 1.625 2.438 1.625 3.75 0 1.438-0.563 2.813-1.625 3.75l-19.313 19.438c-1.188 1.188-3.438 1.188-4.625 0-1.313-1.375-1.313-3.5 0-4.688l19.313-19.313c0.5-0.5 1.313-0.5 1.875 0 0.25 0.25 0.375 0.563 0.375 0.938s-0.125 0.688-0.375 0.938l-19.875 19.688 0.938 0.938 19.688-19.688c0.563-0.563 0.813-1.188 0.813-1.875 0-0.625-0.25-1.313-0.813-1.875-1.063-1.063-2.75-1.063-3.688 0l-19.188 19.313c-1.875 1.875-1.875 4.813 0 6.563 0.938 0.938 2 1.313 3.313 1.313 1.375 0 2.438-0.563 3.375-1.313l19.25-19.313c1.25-1.188 2-2.938 2-4.688-0.125-1.875-0.938-3.438-2.125-4.813z"></path>
</svg>
