<?xml version="1.0" encoding="utf-8"?>
<!DOCTYPE svg PUBLIC "-//W3C//DTD SVG 1.1//EN" "http://www.w3.org/Graphics/SVG/1.1/DTD/svg11.dtd">
<svg version="1.1" xmlns="http://www.w3.org/2000/svg" xmlns:xlink="http://www.w3.org/1999/xlink" width="32" height="32" viewBox="0 0 32 32">
<path d="M29.375 4.625c-3.5-3.5-9.25-3.5-12.75 0l-14.563 14.438c-2.75 2.75-2.75 7.188 0 9.875 2.688 2.75 7.125 2.75 9.875 0l14.625-14.375c1.938-2 1.938-5.125 0-7.125-2-1.938-5.125-1.938-7.125 0l-10.938 11c-0.375 0.375-0.375 1 0 1.438 0.375 0.375 1 0.375 1.438 0l10.938-11c1.188-1.188 3.063-1.188 4.25 0s1.188 3.063 0 4.25l-14.625 14.438c-1.938 1.938-5.063 1.938-7.063 0-1.938-2-1.938-5.125 0-7.063l14.5-14.313c2.688-2.75 7.125-2.75 9.875 0s2.75 7.188 0 9.875l-10.813 10.875c-0.438 0.375-0.438 1 0 1.375 0.375 0.438 1 0.438 1.375 0l11-10.938c3.5-3.5 3.5-9.25 0-12.75z"></path>
</svg>
