<?xml version="1.0" encoding="utf-8"?>
<!DOCTYPE svg PUBLIC "-//W3C//DTD SVG 1.1//EN" "http://www.w3.org/Graphics/SVG/1.1/DTD/svg11.dtd">
<svg version="1.1" xmlns="http://www.w3.org/2000/svg" xmlns:xlink="http://www.w3.org/1999/xlink" width="32" height="32" viewBox="0 0 32 32">
<path d="M16 0c-8.813 0-16 7.188-16 16s7.188 16 16 16c8.813 0 16-7.188 16-16s-7.188-16-16-16zM16 30.75c-8.125 0-14.75-6.625-14.75-14.75s6.625-14.75 14.75-14.75c8.125 0 14.75 6.625 14.75 14.75s-6.625 14.75-14.75 14.75zM16 4c-6.688 0-12.125 5.375-12.125 12.063s5.438 12.125 12.125 12.125c6.688 0 12.125-5.438 12.125-12.125s-5.438-12.063-12.125-12.063zM16.75 26.875v-1.813h-1.25v1.813c-5.563-0.25-10-4.625-10.313-10.125h1.75v-1.25h-1.75c0.25-5.5 4.688-9.938 10.188-10.25v1.563h1.25v-1.563c5.5 0.313 9.875 4.688 10.188 10.125h-1.563v1.25h1.563c-0.25 5.5-4.625 9.938-10.063 10.25zM22.625 15.375h-5.875v-5.313c0-0.375-0.313-0.688-0.75-0.688s-0.75 0.313-0.75 0.688v6.125c0 0.375 0.313 0.688 0.75 0.688 0 0 0 0 0 0h6.625c0.438 0 0.813-0.313 0.813-0.75s-0.375-0.75-0.813-0.75z"></path>
</svg>
