<?xml version="1.0" encoding="utf-8"?>
<!DOCTYPE svg PUBLIC "-//W3C//DTD SVG 1.1//EN" "http://www.w3.org/Graphics/SVG/1.1/DTD/svg11.dtd">
<svg version="1.1" xmlns="http://www.w3.org/2000/svg" xmlns:xlink="http://www.w3.org/1999/xlink" width="32" height="32" viewBox="0 0 32 32">
<path d="M16 1.313c8.125 0 14.688 6.563 14.688 14.688s-6.563 14.688-14.688 14.688c-8.125 0-14.688-6.563-14.688-14.688s6.563-14.688 14.688-14.688zM16 0c-8.813 0-16 7.188-16 16s7.188 16 16 16c8.813 0 16-7.188 16-16s-7.188-16-16-16zM16 19.625l-7.188-7.063 1.063-1.063 6.125 6.25 8.813-8.938 1.063 1.063zM17.063 4c0 0.563-0.5 1.063-1.063 1.063s-1.063-0.5-1.063-1.063c0-0.563 0.5-1.063 1.063-1.063s1.063 0.5 1.063 1.063zM17.063 28c0 0.563-0.5 1.063-1.063 1.063s-1.063-0.5-1.063-1.063c0-0.563 0.5-1.063 1.063-1.063s1.063 0.5 1.063 1.063zM5.063 16c0 0.563-0.5 1.063-1.063 1.063s-1.063-0.5-1.063-1.063c0-0.563 0.5-1.063 1.063-1.063s1.063 0.5 1.063 1.063zM29.063 16c0 0.563-0.5 1.063-1.063 1.063s-1.063-0.5-1.063-1.063c0-0.563 0.5-1.063 1.063-1.063s1.063 0.5 1.063 1.063z"></path>
</svg>
