<?xml version="1.0" encoding="utf-8"?>
<!DOCTYPE svg PUBLIC "-//W3C//DTD SVG 1.1//EN" "http://www.w3.org/Graphics/SVG/1.1/DTD/svg11.dtd">
<svg version="1.1" xmlns="http://www.w3.org/2000/svg" xmlns:xlink="http://www.w3.org/1999/xlink" width="32" height="32" viewBox="0 0 32 32">
<path d="M17 10c0 0.563-0.438 1-1 1s-1-0.438-1-1c0-0.563 0.438-1 1-1s1 0.438 1 1zM17 22c0 0.563-0.438 1-1 1s-1-0.438-1-1c0-0.563 0.438-1 1-1s1 0.438 1 1zM11 16c0 0.563-0.438 1-1 1s-1-0.438-1-1c0-0.563 0.438-1 1-1s1 0.438 1 1zM23 16c0 0.563-0.438 1-1 1s-1-0.438-1-1c0-0.563 0.438-1 1-1s1 0.438 1 1zM12.75 20.25c0 0.563-0.438 1-1 1s-1-0.438-1-1c0-0.563 0.438-1 1-1s1 0.438 1 1zM12.75 11.75c0 0.563-0.438 1-1 1s-1-0.438-1-1c0-0.563 0.438-1 1-1s1 0.438 1 1zM21.25 20.25c0 0.563-0.438 1-1 1s-1-0.438-1-1c0-0.563 0.438-1 1-1s1 0.438 1 1zM26 14c-0.063 0-0.125 0.063-0.188 0.063-0.375-1.75-1.188-3.313-2.313-4.625l-1.438-7.813c-0.188-0.938-1-1.625-1.938-1.625h-8c-1 0-1.813 0.688-2 1.625l-1.375 7.563c-1.688 1.813-2.75 4.188-2.75 6.813 0 2.563 1 4.875 2.625 6.688l1.438 7.688c0.125 0.938 1 1.625 1.938 1.625h8c0.938 0 1.813-0.688 1.938-1.625l1.438-7.688c1.188-1.313 2.063-2.938 2.438-4.75 0.063 0 0.125 0.063 0.188 0.063 1.125 0 2-0.875 2-2s-0.875-2-2-2zM12.125 2h8l1 5.375c-1.5-0.875-3.188-1.375-5-1.375-1.875 0-3.563 0.5-5 1.375zM20 30h-8l-1-5.375c1.5 0.875 3.188 1.375 5 1.375s3.5-0.5 5-1.375zM16 24c-4.438 0-8-3.563-8-8s3.563-8 8-8c4.438 0 8 3.563 8 8s-3.563 8-8 8zM20.938 11c-0.125-0.125-0.313-0.125-0.438 0l-5.188 4.313c-0.188 0.188-0.313 0.438-0.313 0.688s0.125 0.5 0.313 0.688c0.188 0.188 0.438 0.313 0.688 0.313s0.5-0.125 0.688-0.25l1.875-2.25 2.438-3c0.063-0.188 0.063-0.375-0.063-0.5z"></path>
</svg>
