<?xml version="1.0" encoding="utf-8"?>
<!DOCTYPE svg PUBLIC "-//W3C//DTD SVG 1.1//EN" "http://www.w3.org/Graphics/SVG/1.1/DTD/svg11.dtd">
<svg version="1.1" xmlns="http://www.w3.org/2000/svg" xmlns:xlink="http://www.w3.org/1999/xlink" width="32" height="32" viewBox="0 0 32 32">
<path d="M6.563 6.563c-5.188 5.188-5.188 13.688 0 18.875s13.688 5.188 18.875 0c5.188-5.188 5.188-13.625 0-18.875-5.188-5.188-13.625-5.188-18.875 0zM24.688 24.688c-4.813 4.75-12.563 4.75-17.375 0-4.75-4.813-4.75-12.563 0-17.375 4.813-4.75 12.563-4.75 17.375 0 4.75 4.813 4.75 12.563 0 17.375zM10.75 10l-0.813 0.75 5.313 5.25-5.25 5.25 0.75 0.75 5.25-5.25 5.25 5.25 0.75-0.75-5.25-5.25 5.313-5.25-0.813-0.75-5.25 5.25z"></path>
</svg>
