<?xml version="1.0" encoding="utf-8"?>
<!DOCTYPE svg PUBLIC "-//W3C//DTD SVG 1.1//EN" "http://www.w3.org/Graphics/SVG/1.1/DTD/svg11.dtd">
<svg version="1.1" xmlns="http://www.w3.org/2000/svg" xmlns:xlink="http://www.w3.org/1999/xlink" width="32" height="32" viewBox="0 0 32 32">
<path d="M20.063 25.375l0.75 0.75-4.813 4.75-4.75-4.75 0.75-0.75 3.5 3.5v-14h1.063v14l3.5-3.5zM26.188 9.563c0-0.063 0-0.188 0-0.25 0-4.563-3.688-8.25-8.25-8.25-3.313 0-6.125 1.938-7.438 4.688-0.625-0.25-1.25-0.438-1.938-0.438-2.125 0-3.875 1.5-4.188 3.563-2.5 0.813-4.313 3.25-4.313 6 0 3.563 2.813 6.438 6.375 6.438h6.938v-1.063h-6.938c-2.938 0-5.313-2.438-5.313-5.375 0-2.25 1.438-4.25 3.563-5l0.625-0.25 0.125-0.625c0.25-1.5 1.563-2.625 3.125-2.625 0.5 0 1 0.125 1.438 0.313l1 0.5 0.438-1c1.188-2.5 3.75-4.063 6.5-4.063 3.938 0 7.188 3.25 7.188 7.188 0 0 0 0.063 0 0.063 0 0.063 0 0.125 0 0.188l-0.063 1.063h1.125c2.625 0 4.75 2.188 4.75 4.813s-2.125 4.813-4.75 4.813h-7.5v1.063h7.5c3.25 0 5.813-2.625 5.813-5.875s-2.563-5.875-5.813-5.875z"></path>
</svg>
