<?xml version="1.0" encoding="utf-8"?>
<!DOCTYPE svg PUBLIC "-//W3C//DTD SVG 1.1//EN" "http://www.w3.org/Graphics/SVG/1.1/DTD/svg11.dtd">
<svg version="1.1" xmlns="http://www.w3.org/2000/svg" xmlns:xlink="http://www.w3.org/1999/xlink" width="32" height="32" viewBox="0 0 32 32">
<path d="M7.75 26.375h0.125c0.063 0 0.125 0 0.188 0 0.125 0 0.188 0 0.25 0h14.438c0.125 0 0.188 0 0.313 0 4.063 0 7.313-3.313 7.313-7.375s-3.25-7.375-7.313-7.375c-0.125 0-0.313 0-0.438 0-0.625-3.438-3.625-6-7.188-6-4.063 0-7.375 3.313-7.375 7.375 0 0.125 0.063 0.188 0.063 0.313 0 0 0 0-0.063 0-3.563 0-6.438 2.938-6.438 6.563 0 3.438 2.688 6.313 6.125 6.5z"></path>
</svg>
