<?xml version="1.0" encoding="utf-8"?>
<!DOCTYPE svg PUBLIC "-//W3C//DTD SVG 1.1//EN" "http://www.w3.org/Graphics/SVG/1.1/DTD/svg11.dtd">
<svg version="1.1" xmlns="http://www.w3.org/2000/svg" xmlns:xlink="http://www.w3.org/1999/xlink" width="32" height="32" viewBox="0 0 32 32">
<path d="M25.938 13.125c-0.438-4.563-4.25-8.125-8.938-8.125-3.625 0-6.688 2.125-8.125 5.25-0.438-0.125-0.875-0.25-1.375-0.25-2.5 0-4.5 2-4.5 4.5 0 0.5 0.125 0.938 0.25 1.375-1.938 1.125-3.25 3.25-3.25 5.625 0 3.563 2.938 6.5 6.5 6.5v0h18c4.125 0 7.5-3.375 7.5-7.5 0-3.688-2.625-6.688-6.063-7.375zM24.5 26v0h-18c-2.5 0-4.5-2-4.5-4.5 0-1.625 0.875-3.063 2.25-3.875 1.375-0.75 1.5-0.938 0.875-2.375-0.063-0.25-0.125-0.5-0.125-0.75 0-1.375 1.125-2.5 2.5-2.5 0 0 0.688-0.063 1.375 0.25 1.125 0.438 1.25 0 1.813-1.188 1.125-2.438 3.625-4.063 6.313-4.063 3.625 0 6.563 2.75 6.938 6.313 0.125 1.438 0.125 1.438 1.625 1.813 2.563 0.5 4.438 2.75 4.438 5.375 0 3-2.438 5.5-5.5 5.5z"></path>
</svg>
