<?xml version="1.0" encoding="utf-8"?>
<!DOCTYPE svg PUBLIC "-//W3C//DTD SVG 1.1//EN" "http://www.w3.org/Graphics/SVG/1.1/DTD/svg11.dtd">
<svg version="1.1" xmlns="http://www.w3.org/2000/svg" xmlns:xlink="http://www.w3.org/1999/xlink" width="32" height="32" viewBox="0 0 32 32">
<path d="M27.063 14.75c0-0.25 0-0.375 0-0.563 0-4.813-3.813-8.625-8.625-8.625-3.188 0-5.875 1.688-7.375 4.188-0.75-0.375-1.563-0.5-2.438-0.5-3.438 0-6.188 2.688-6.188 6.125 0 0.625 0.125 1.25 0.25 1.75-1.563 0.813-2.688 2.438-2.688 4.438 0 2.688 2.25 4.875 4.938 4.875h25.813c0.75-1.188 1.25-2.688 1.25-4.313 0-3.313-2.063-6.125-4.938-7.375zM30 25.25h-25.063c-2.125 0-3.688-1.625-3.688-3.688 0-1.375 0.75-2.75 2.063-3.313l1-0.5-0.25-1c-0.25-0.5-0.375-1-0.375-1.375 0-2.688 2.25-4.875 4.938-4.875 0.625 0 1.313 0.063 1.938 0.313l1 0.5 0.625-0.938c1.25-2.25 3.688-3.625 6.25-3.625 4.063 0 7.375 3.375 7.375 7.438 0 0.125 0 0.25 0 0.438v1l0.875 0.375c2.563 1.125 4.188 3.438 4.188 6.313-0.125 0.938-0.375 1.938-0.875 2.938z"></path>
</svg>
