<?xml version="1.0" encoding="utf-8"?>
<!DOCTYPE svg PUBLIC "-//W3C//DTD SVG 1.1//EN" "http://www.w3.org/Graphics/SVG/1.1/DTD/svg11.dtd">
<svg version="1.1" xmlns="http://www.w3.org/2000/svg" xmlns:xlink="http://www.w3.org/1999/xlink" width="32" height="32" viewBox="0 0 32 32">
<path d="M31.688 18.75h-0.063c-0.75-2.875-3.688-5-7.188-5.125-0.625-4.25-4.688-7.438-9.438-7.375-4.25 0.063-8 2.75-9 6.438-0.188 0-0.313 0.063-0.313 0.063v0c-3.25 0.5-5.75 3.25-5.688 6.5 0.063 2.625 1.625 4.938 4.125 5.938l1.125 0.188c0.375 0 6.625 0.375 12.938 0.375 3.75 0 7.5-0.125 10.125-0.5 0.5-0.063 0.938-0.125 1.375-0.25v0c0 0 0 0 0 0 0.063 0 0.125 0 0.125 0v-0.063c2.625-1.063 2.375-4.5 1.875-6.188zM29.375 23.938c-0.375 0.063-0.75 0.125-1.25 0.25-6.938 0.938-22.688 0.063-22.813 0.063l-0.813-0.125c-2.063-0.813-3.375-2.75-3.375-4.875-0.063-2.938 2.188-5.25 5.188-5.438 0.875 0 2.75 0.188 3.75 1.125 0.438 0.438 0.625 1 0.625 1.688l1.063 0.063c0.063-1-0.25-1.875-0.938-2.563-0.938-0.938-2.5-1.25-3.625-1.375 1-3.063 4.188-5.313 7.813-5.375 4.125 0 7.688 2.625 8.313 6.25-0.938 0.125-2.5 0.5-3.563 1.563-0.75 0.813-1.125 1.875-1.063 3.188l1.125-0.063c-0.063-1 0.188-1.75 0.75-2.375 0.813-0.813 2.125-1.125 2.938-1.25h0.5c0 0 0 0 0 0 3.5 0 6.375 2.188 6.75 5.063v0c0.188 1.188 0.375 3.5-1.375 4.188z"></path>
</svg>
