<?xml version="1.0" encoding="utf-8"?>
<!DOCTYPE svg PUBLIC "-//W3C//DTD SVG 1.1//EN" "http://www.w3.org/Graphics/SVG/1.1/DTD/svg11.dtd">
<svg version="1.1" xmlns="http://www.w3.org/2000/svg" xmlns:xlink="http://www.w3.org/1999/xlink" width="32" height="32" viewBox="0 0 32 32">
<path d="M17.875 6.938c4 0 7.188 3.25 7.188 7.188 0 0.063 0 0.063 0 0.063 0 0.063 0 0.125 0 0.188v1.063h1.063c2.625 0 4.813 2.188 4.813 4.813s-2.125 4.813-4.813 4.813h-19.75c-2.938 0-5.313-2.375-5.313-5.313 0-2.313 1.438-4.313 3.625-5.063l0.563-0.188 0.125-0.625c0.25-1.563 1.625-2.688 3.188-2.688 0.438 0 0.938 0.125 1.375 0.375l1 0.438 0.438-0.938c1.25-2.5 3.75-4.125 6.5-4.125zM17.875 5.875c-3.25 0-6.125 1.938-7.438 4.688-0.563-0.25-1.188-0.438-1.875-0.438-2.125 0-3.875 1.563-4.25 3.563-2.5 0.875-4.313 3.25-4.313 6.063 0 3.5 2.875 6.375 6.375 6.375h19.813c3.188 0 5.813-2.625 5.813-5.875s-2.625-5.875-5.875-5.875c0-0.063 0.063-0.125 0.063-0.25 0-4.563-3.75-8.25-8.313-8.25z"></path>
</svg>
