<?xml version="1.0" encoding="utf-8"?>
<!DOCTYPE svg PUBLIC "-//W3C//DTD SVG 1.1//EN" "http://www.w3.org/Graphics/SVG/1.1/DTD/svg11.dtd">
<svg version="1.1" xmlns="http://www.w3.org/2000/svg" xmlns:xlink="http://www.w3.org/1999/xlink" width="32" height="32" viewBox="0 0 32 32">
<path d="M28.125 20.75c-0.375-1.313-1.188-2.438-2.375-3.25 0.25-0.625 0.438-1.313 0.438-2.063 0-2.688-2.25-4.875-4.938-4.875-0.938 0-1.813 0.25-2.625 0.75-0.688-0.5-1.5-0.938-2.375-1.188-0.063-0.125-0.063-0.188-0.188-0.313l-1.625-1.625c-0.188-0.188-0.5-0.25-0.688-0.063-0.125 0.188-0.125 0.438 0.063 0.688l1 1c-0.5-0.125-1-0.125-1.5-0.125-3.75 0.063-7.063 2.438-8 5.688-0.125 0-0.25 0.063-0.25 0.063v0c-2.875 0.438-5.125 2.875-5.063 5.813 0.063 2.313 1.438 4.375 3.688 5.25l0.938 0.188c0.375 0 5.938 0.313 11.563 0.313 3.313 0 6.625-0.125 9-0.438 0.438-0.063 0.813-0.125 1.188-0.25v0c0 0 0.063 0 0.063 0s0.063 0 0.063 0v0c2.375-1 2.125-4.063 1.625-5.563v0zM21.25 11.5c2.188 0 3.938 1.813 3.938 3.938 0 0.563-0.125 1.063-0.313 1.563-0.938-0.438-2-0.75-3.125-0.813-0.25-1.625-1.063-3.063-2.313-4.188 0.563-0.313 1.188-0.5 1.813-0.5zM26.125 25.375c-0.375 0.063-0.688 0.125-1.125 0.188-6.125 0.875-20.188 0.125-20.25 0.125l-0.75-0.125c-1.813-0.75-3-2.438-3-4.375-0.063-2.563 1.938-4.625 4.563-4.813 0.875 0 2.5 0.188 3.375 1 0.375 0.375 0.563 0.875 0.563 1.5l0.938 0.063c0.063-0.875-0.188-1.688-0.813-2.25-0.875-0.875-2.25-1.125-3.25-1.25 0.875-2.75 3.75-4.75 7-4.75 3.688-0.063 6.813 2.313 7.375 5.5-0.875 0.125-2.25 0.438-3.188 1.438-0.688 0.688-1 1.625-0.938 2.813l1-0.063c-0.063-0.875 0.125-1.563 0.688-2.063 0.688-0.75 1.813-1.063 2.563-1.125h0.438c0 0 0 0 0 0 3.125 0 5.688 1.938 6 4.5v0c0.188 1 0.375 3.063-1.188 3.688zM21.313 8.375c0.25 0 0.438-0.25 0.438-0.5v-2.375c0-0.25-0.188-0.5-0.438-0.5-0.188 0-0.438 0.25-0.438 0.5v2.375c0 0.25 0.25 0.5 0.438 0.5zM31.5 14.875h-2.375c-0.25 0-0.438 0.188-0.438 0.438s0.188 0.438 0.438 0.438h2.375c0.25 0 0.5-0.188 0.5-0.438s-0.25-0.438-0.5-0.438zM27 10.25l1.688-1.625c0.188-0.188 0.188-0.5 0.063-0.688-0.188-0.188-0.5-0.125-0.688 0.063l-1.688 1.625c-0.188 0.188-0.188 0.5 0 0.688 0.125 0.188 0.438 0.125 0.625-0.063z"></path>
</svg>
