<?xml version="1.0" encoding="utf-8"?>
<!DOCTYPE svg PUBLIC "-//W3C//DTD SVG 1.1//EN" "http://www.w3.org/Graphics/SVG/1.1/DTD/svg11.dtd">
<svg version="1.1" xmlns="http://www.w3.org/2000/svg" xmlns:xlink="http://www.w3.org/1999/xlink" width="32" height="32" viewBox="0 0 32 32">
<path d="M24 19.75h4.25v-8.563h-24.5v8c0 5.625 4.5 10.125 10.125 10.125 5.375 0 9.813-4.25 10.125-9.563zM24 12.25h3.188v6.438h-3.188v-6.438zM13.875 28.25c-5 0-9.063-4.063-9.063-9.063v-6.938h18.125v6.938c0 5-4.063 9.063-9.063 9.063zM3.75 30.375h20.25v-1.063h-20.25zM9.063 3.188h1.063v4.813h-1.063zM17.625 3.188h1.063v4.813h-1.063zM13.313 1.625h1.063v6.375h-1.063z"></path>
</svg>
