<?xml version="1.0" encoding="utf-8"?>
<!DOCTYPE svg PUBLIC "-//W3C//DTD SVG 1.1//EN" "http://www.w3.org/Graphics/SVG/1.1/DTD/svg11.dtd">
<svg version="1.1" xmlns="http://www.w3.org/2000/svg" xmlns:xlink="http://www.w3.org/1999/xlink" width="32" height="32" viewBox="0 0 32 32">
<path d="M31.438 19.625c0.25-1.25 0.5-2.438 0.5-3.688s-0.125-2.438-0.5-3.688h-2.563c-0.25-0.938-0.75-1.938-1.25-2.938l1.875-1.813c-1.25-2-3.063-3.813-5.188-5.188l-1.813 1.875c-0.875-0.5-1.813-0.875-2.938-1.25v-2.438c-1.125-0.375-2.313-0.5-3.563-0.5s-2.438 0.125-3.688 0.5v2.563c-1 0.25-1.938 0.75-2.938 1.25l-1.688-2c-2.125 1.375-3.938 3.188-5.313 5.313l1.875 1.813c-0.5 0.875-0.875 1.813-1.25 2.938h-2.438c-0.375 1.125-0.5 2.313-0.5 3.563s0.125 2.438 0.5 3.688h2.563c0.25 0.938 0.75 1.938 1.25 2.938l-1.875 1.813c1.25 2 3.063 3.813 5.188 5.188l1.813-1.875c0.875 0.5 1.813 0.875 2.938 1.25v2.563c1.25 0.25 2.438 0.5 3.688 0.5 1.188 0 2.438-0.125 3.688-0.5v-2.563c0.938-0.25 1.938-0.75 2.938-1.25l1.813 1.875c2.063-1.375 3.938-3.063 5.125-5.188l-1.813-1.813c0.5-0.875 0.875-1.875 1.25-2.938zM27.75 19.25c-0.25 1-0.625 1.813-1.063 2.563l-0.5 0.875 1.688 1.688c-0.813 1.375-2.063 2.563-3.438 3.563l-1.688-1.688-0.875 0.5c-0.875 0.438-1.688 0.813-2.563 1.063l-0.875 0.125v2.438c-0.813 0.125-1.563 0.25-2.438 0.25s-1.563-0.125-2.438-0.25v-2.438l-0.875-0.25c-0.938-0.25-1.813-0.625-2.563-1.063l-0.875-0.5-1.688 1.688c-1.375-0.875-2.563-2.063-3.563-3.438l1.125-1.063 0.563-0.625-0.438-0.875c-0.5-0.875-0.875-1.688-1.125-2.563l-0.125-0.875h-2.438c-0.125-0.875-0.25-1.563-0.25-2.438s0.125-1.563 0.25-2.438h2.438l0.25-0.875c0.25-1 0.625-1.813 1.063-2.563l0.5-0.875-0.688-0.75-1.125-0.938c1-1.375 2.188-2.563 3.563-3.563l1.688 1.688 0.875-0.438c0.875-0.5 1.688-0.875 2.563-1.125l0.875-0.125v-2.438c0.875-0.125 1.563-0.25 2.438-0.25s1.563 0.125 2.438 0.25v2.438l0.875 0.25c1 0.25 1.813 0.625 2.563 1.063l0.875 0.5 1.688-1.688c1.375 0.875 2.563 2.063 3.563 3.438l-1.125 1.063-0.563 0.625 0.5 0.875c0.438 0.875 0.813 1.688 1.063 2.563l0.25 0.875h2.438c0.125 0.813 0.25 1.563 0.25 2.438s-0.125 1.563-0.25 2.438h-2.438zM16 11.063c-2.688 0-4.875 2.188-4.875 4.875s2.188 4.875 4.875 4.875c2.688 0 4.875-2.188 4.875-4.875s-2.188-4.875-4.875-4.875zM16 19.625c-2.063 0-3.688-1.625-3.688-3.688s1.625-3.688 3.688-3.688c2.063 0 3.688 1.625 3.688 3.688s-1.625 3.688-3.688 3.688z"></path>
</svg>
