<?xml version="1.0" encoding="utf-8"?>
<!DOCTYPE svg PUBLIC "-//W3C//DTD SVG 1.1//EN" "http://www.w3.org/Graphics/SVG/1.1/DTD/svg11.dtd">
<svg version="1.1" xmlns="http://www.w3.org/2000/svg" xmlns:xlink="http://www.w3.org/1999/xlink" width="32" height="32" viewBox="0 0 32 32">
<path d="M26.688 4.813h-21.375c-1.125 0-2.125 0.938-2.125 2.125v13.875c0 1.188 1 2.125 2.125 2.125h15l4.188 4.25v-4.25h2.188c1.125 0 2.125-0.938 2.125-2.125v-13.875c0-1.188-1-2.125-2.125-2.125zM27.75 20.813c0 0.625-0.5 1.063-1.063 1.063h-3.25v2.75l-2.688-2.75h-15.438c-0.563 0-1.063-0.438-1.063-1.063v-13.875c0-0.563 0.5-1.063 1.063-1.063h21.375c0.563 0 1.063 0.5 1.063 1.063zM16 12.813c-0.563 0-1.063 0.5-1.063 1.063 0 0.625 0.5 1.063 1.063 1.063s1.063-0.438 1.063-1.063c0-0.563-0.5-1.063-1.063-1.063zM20.25 12.813c-0.563 0-1.063 0.5-1.063 1.063 0 0.625 0.5 1.063 1.063 1.063 0.625 0 1.063-0.438 1.063-1.063 0-0.563-0.438-1.063-1.063-1.063zM11.813 12.813c-0.563 0-1.063 0.5-1.063 1.063 0 0.625 0.5 1.063 1.063 1.063 0.625 0 1.063-0.438 1.063-1.063 0-0.563-0.438-1.063-1.063-1.063z"></path>
</svg>
