<?xml version="1.0" encoding="utf-8"?>
<!DOCTYPE svg PUBLIC "-//W3C//DTD SVG 1.1//EN" "http://www.w3.org/Graphics/SVG/1.1/DTD/svg11.dtd">
<svg version="1.1" xmlns="http://www.w3.org/2000/svg" xmlns:xlink="http://www.w3.org/1999/xlink" width="32" height="32" viewBox="0 0 32 32">
<path d="M18 5.5c0.375-0.5 0.688-1.063 0.688-1.75 0-1.5-1.188-2.688-2.688-2.688s-2.688 1.188-2.688 2.688c0 0.688 0.25 1.25 0.688 1.75-6.125 0.938-10.813 6.25-10.813 12.625 0 7.063 5.75 12.813 12.813 12.813s12.813-5.75 12.813-12.813c0-6.375-4.688-11.688-10.813-12.625zM16 2.125c0.875 0 1.625 0.75 1.625 1.625s-0.75 1.563-1.625 1.563c-0.875 0-1.625-0.688-1.625-1.563s0.75-1.625 1.625-1.625zM16 29.875c-6.438 0-11.75-5.25-11.75-11.75 0-6.438 5.313-11.75 11.75-11.75s11.75 5.313 11.75 11.75c0 6.5-5.313 11.75-11.75 11.75zM9.625 24.563l8.625-4.125 4.125-8.688-8.688 4.063-4.063 8.75zM14.25 17.125l2.688 2.75-5.125 2.438 2.438-5.188zM17.75 19.125l-2.75-2.75 5.125-2.375-2.375 5.125z"></path>
</svg>
