<?xml version="1.0" encoding="utf-8"?>
<!DOCTYPE svg PUBLIC "-//W3C//DTD SVG 1.1//EN" "http://www.w3.org/Graphics/SVG/1.1/DTD/svg11.dtd">
<svg version="1.1" xmlns="http://www.w3.org/2000/svg" xmlns:xlink="http://www.w3.org/1999/xlink" width="32" height="32" viewBox="0 0 32 32">
<path d="M17.625 3.75v2.563l0.75 0.25c0.938 0.188 1.813 0.563 2.563 1.063l0.75 0.438 1.875-1.875 2.25 2.25-1.875 1.938 0.375 0.688c0.438 0.75 0.813 1.625 1 2.5l0.188 0.813h2.75v3.25h-2.813l-0.188 0.75c-0.25 0.875-0.563 1.688-1.063 2.438l-0.438 0.688 2.063 2.063-2.25 2.25-2.063-2.063-0.75 0.375c-0.688 0.438-1.5 0.75-2.375 1l-0.75 0.188v2.938h-3.25v-2.938l-0.75-0.188c-0.875-0.25-1.625-0.563-2.375-1l-0.75-0.375-2.063 2.063-2.25-2.25 2.063-2.063-0.438-0.688c-0.438-0.75-0.813-1.563-1.063-2.438l-0.188-0.75h-2.813v-3.25h2.75l0.188-0.813c0.188-0.875 0.563-1.75 1-2.5l0.375-0.688-1.875-1.938 2.25-2.25 1.875 1.875 0.75-0.438c0.75-0.5 1.625-0.875 2.563-1.063l0.75-0.25v-2.563h3.25zM16 20.813c2.625 0 4.813-2.188 4.813-4.813s-2.188-4.813-4.813-4.813c-2.625 0-4.813 2.188-4.813 4.813s2.188 4.813 4.813 4.813zM18.688 2.688h-5.375v2.813c-1 0.25-1.938 0.688-2.813 1.188l-2.063-2-3.75 3.75 2.063 2.063c-0.5 0.875-0.875 1.813-1.125 2.813h-2.938v5.375h3.063c0.25 0.938 0.625 1.813 1.125 2.625l-2.188 2.25 3.75 3.75 2.25-2.25c0.813 0.5 1.688 0.813 2.625 1.063v3.188h5.375v-3.188c0.938-0.25 1.813-0.563 2.625-1.063l2.25 2.25 3.75-3.75-2.188-2.25c0.5-0.813 0.875-1.688 1.125-2.625h3.063v-5.375h-2.938c-0.25-1-0.625-1.938-1.125-2.813l2.063-2.063-3.75-3.75-2.063 2c-0.875-0.5-1.813-0.938-2.813-1.188v-2.813zM16 19.75c-2.063 0-3.75-1.688-3.75-3.75s1.688-3.75 3.75-3.75c2.063 0 3.75 1.688 3.75 3.75s-1.688 3.75-3.75 3.75z"></path>
</svg>
