<?xml version="1.0" encoding="utf-8"?>
<!DOCTYPE svg PUBLIC "-//W3C//DTD SVG 1.1//EN" "http://www.w3.org/Graphics/SVG/1.1/DTD/svg11.dtd">
<svg version="1.1" xmlns="http://www.w3.org/2000/svg" xmlns:xlink="http://www.w3.org/1999/xlink" width="32" height="32" viewBox="0 0 32 32">
<path d="M13.75 20.438c0 0.688-0.625 1.313-1.313 1.313-0.75 0-1.313-0.625-1.313-1.313 0-0.75 0.563-1.313 1.313-1.313 0.688 0 1.313 0.563 1.313 1.313zM28.313 19c0 3.813-3.125 6.938-6.938 6.938-0.063 0-0.125 0-0.188 0-1.25 2.625-3.875 4.438-7 4.438-4.188 0-7.625-3.375-7.625-7.625 0-3.375 2.188-6.25 5.188-7.25 0.125-5.188-1.813-8.625-4.063-8.438-2.313 0.188-4.188 0.188-4-0.938 0.25-1.188 2.125 0.063 2.313-1.375 0.25-1.5-0.813-2.125 0.75-3 1.5-0.75 1.875 1.188 1.75 3.063 5.375-1.375 9.875 5.125 11.25 7.375 0.5-0.063 1.063-0.188 1.625-0.188 3.813 0 6.938 3.125 6.938 7zM13.5 15.125c0.25-0.063 0.5-0.063 0.688-0.063 0.438 0 0.875 0.063 1.313 0.125 0.75-1.188 1.875-2.063 3.188-2.625-3.875-6.063-7.25-6.875-9.188-6.625 3.438 2.625 3.938 7.875 4 9.188zM20.25 22.75c0-2.688-1.75-4.938-4.125-5.688 0 0 0 0 0 0-0.438-0.125-0.938-0.25-1.375-0.313 0 0 0 0 0 0-0.188 0-0.375 0-0.563 0-3.313 0-6 2.688-6 6s2.688 6 6 6c2.25 0 4.25-1.25 5.25-3.063 0 0 0 0 0 0 0.188-0.438 0.375-0.813 0.563-1.313 0 0 0 0 0 0 0.125-0.5 0.25-1.063 0.25-1.625zM26.938 19c0-3.125-2.5-5.625-5.563-5.625-1.813 0-3.438 0.875-4.438 2.188 2.875 1.125 4.938 3.875 4.938 7.188 0 0.625-0.063 1.25-0.25 1.813 3-0.125 5.313-2.563 5.313-5.563z"></path>
</svg>
