<?xml version="1.0" encoding="utf-8"?>
<!DOCTYPE svg PUBLIC "-//W3C//DTD SVG 1.1//EN" "http://www.w3.org/Graphics/SVG/1.1/DTD/svg11.dtd">
<svg version="1.1" xmlns="http://www.w3.org/2000/svg" xmlns:xlink="http://www.w3.org/1999/xlink" width="32" height="32" viewBox="0 0 32 32">
<path d="M16.125 16c0-2.813 1.875-4.438 4.188-4.438 1.625 0 3 0.563 3.813 2.063l-1.875 1c-0.438-1-1.25-1.188-1.625-1.188-1.438 0-1.938 1.125-1.938 2.563s0.625 2.563 1.938 2.563c0.75 0 1.375-0.313 1.813-1.25l1.75 0.875c-0.75 1.375-2.125 2.25-3.75 2.25-2.563 0-4.313-1.563-4.313-4.438zM12.125 20.438c1.625 0 3-0.875 3.75-2.25l-1.813-0.875c-0.375 0.938-1 1.25-1.75 1.25-1.313 0-1.938-1.125-1.938-2.563s0.5-2.563 1.938-2.563c0.375 0 1.188 0.188 1.625 1.188l1.875-1c-0.813-1.5-2.188-2.063-3.813-2.063-2.313 0-4.188 1.625-4.188 4.438 0 2.875 1.75 4.438 4.313 4.438zM5.813 26.125c-2.75-2.75-4.188-6.313-4.188-10.125s1.5-7.438 4.25-10.188c2.688-2.75 6.125-4.188 10.125-4.188 3.938 0 7.5 1.438 10.25 4.188s4.125 6.313 4.125 10.188c0 3.938-1.375 7.438-4.063 10.125-2.875 2.75-6.563 4.25-10.313 4.25-3.813 0-7.438-1.5-10.188-4.25zM4.188 16c0 3.063 1.313 6.063 3.563 8.313s5.125 3.438 8.25 3.438c3.125 0 6.125-1.188 8.438-3.5 2.188-2.188 3.375-5 3.375-8.25 0-3.188-1.188-6.125-3.438-8.313-2.25-2.25-5.125-3.5-8.375-3.5s-6.063 1.188-8.25 3.438c-2.25 2.313-3.563 5.25-3.563 8.375z"></path>
</svg>
