<?xml version="1.0" encoding="utf-8"?>
<!DOCTYPE svg PUBLIC "-//W3C//DTD SVG 1.1//EN" "http://www.w3.org/Graphics/SVG/1.1/DTD/svg11.dtd">
<svg version="1.1" xmlns="http://www.w3.org/2000/svg" xmlns:xlink="http://www.w3.org/1999/xlink" width="32" height="32" viewBox="0 0 32 32">
<path d="M29.563 4.938h-27.125c-1.313 0-2.438 1.063-2.438 2.438v17.25c0 1.313 1.125 2.438 2.438 2.438h27.125c1.313 0 2.438-1.125 2.438-2.438v-17.25c0-1.375-1.125-2.438-2.438-2.438zM2.438 6.125h27.125c0.688 0 1.188 0.5 1.188 1.25v1.25h-29.5v-1.25c0-0.75 0.5-1.25 1.188-1.25zM30.75 9.813v4.938h-29.5v-4.938zM29.563 25.875h-27.125c-0.688 0-1.188-0.5-1.188-1.25v-8.625h29.5v8.625c0 0.75-0.5 1.25-1.188 1.25zM13.563 18.438h14.75v1.25h-14.75zM18.438 20.938h9.875v1.188h-9.875z"></path>
</svg>
