<?xml version="1.0" encoding="utf-8"?>
<!DOCTYPE svg PUBLIC "-//W3C//DTD SVG 1.1//EN" "http://www.w3.org/Graphics/SVG/1.1/DTD/svg11.dtd">
<svg version="1.1" xmlns="http://www.w3.org/2000/svg" xmlns:xlink="http://www.w3.org/1999/xlink" width="32" height="32" viewBox="0 0 32 32">
<path d="M28.813 6.375h-25.625c-0.875 0-1.563 0.75-1.563 1.625v16c0 0.875 0.688 1.625 1.563 1.625h25.625c0.875 0 1.563-0.75 1.563-1.625v-16c0-0.875-0.688-1.625-1.563-1.625zM2.688 10.688h26.625v2.125h-26.625zM29.313 24c0 0.313-0.25 0.5-0.5 0.5h-25.625c-0.25 0-0.5-0.188-0.5-0.5v-10.125h26.625zM2.688 9.625v-1.625c0-0.313 0.25-0.5 0.5-0.5h25.625c0.25 0 0.5 0.188 0.5 0.5v1.625zM4.813 21.313h10.625v1.063h-10.625zM4.813 18.125h6.375v1.063h-6.375v-1.063zM24 22.375h2.125c0.625 0 1.063-0.438 1.063-1v-0.063c0-0.563-0.438-1.063-1.063-1.063h-2.125c-0.625 0-1.063 0.5-1.063 1.063v0.063c0 0.563 0.438 1 1.063 1z"></path>
</svg>
