<?xml version="1.0" encoding="utf-8"?>
<!DOCTYPE svg PUBLIC "-//W3C//DTD SVG 1.1//EN" "http://www.w3.org/Graphics/SVG/1.1/DTD/svg11.dtd">
<svg version="1.1" xmlns="http://www.w3.org/2000/svg" xmlns:xlink="http://www.w3.org/1999/xlink" width="32" height="32" viewBox="0 0 32 32">
<path d="M28.125 5l-1.25-3.625c-0.25-0.813-1-1.375-1.875-1.375h-18c-0.875 0-1.625 0.563-1.875 1.375l-1.25 3.625c-1.063 0.063-1.875 0.938-1.875 2v3c0 1.125 0.875 2 2 2h1.063c0 0.063-0.063 0.125-0.063 0.25l2 18c0.125 1 1 1.75 2 1.75h14c1 0 1.875-0.75 2-1.75l2-18c0-0.125-0.063-0.188-0.063-0.25h1.063c1.125 0 2-0.875 2-2v-3c0-1.063-0.813-1.938-1.875-2zM7 2h18l1 3h-20zM9 30l-0.313-3h14.625l-0.313 3zM23.438 26h-14.875l-1.125-10h17.125zM24.688 15h-17.375l-0.313-3h18zM28 10h-24v-3h24z"></path>
</svg>
