<?xml version="1.0" encoding="utf-8"?>
<!DOCTYPE svg PUBLIC "-//W3C//DTD SVG 1.1//EN" "http://www.w3.org/Graphics/SVG/1.1/DTD/svg11.dtd">
<svg version="1.1" xmlns="http://www.w3.org/2000/svg" xmlns:xlink="http://www.w3.org/1999/xlink" width="32" height="32" viewBox="0 0 32 32">
<path d="M28.25 2.688c0 0-0.063 0-0.125 0h-24.25c-0.063 0-0.125 0-0.125 0-1.188 0-2.125 0.938-2.125 2.125 0 0.563 0.25 1.125 0.625 1.5l4.688 4.688v-0.313c0 4.813 3.75 8.75 8.5 9v8.563h-4.25v1.063h9.625v-1.063h-4.25v-8.563c4.75-0.25 8.5-4.188 8.5-9v0.313l4.688-4.688c0.375-0.375 0.625-0.938 0.625-1.5 0-1.188-0.938-2.125-2.125-2.125zM6.938 9.5l-3.938-3.938c-0.188-0.188-0.313-0.5-0.313-0.75 0-0.563 0.438-1.063 1-1.063 0.063 0 0.063 0 0.125 0v0h3.125v5.75zM24 10.688c0 4.375-3.563 8-8 8s-8-3.625-8-8v-6.938h16zM29 5.563l-3.938 3.938v-5.75h3.125c0.063 0 0.063 0 0.125 0 0.563 0 1 0.5 1 1.063 0 0.25-0.125 0.563-0.313 0.75z"></path>
</svg>
