<?xml version="1.0" encoding="utf-8"?>
<!DOCTYPE svg PUBLIC "-//W3C//DTD SVG 1.1//EN" "http://www.w3.org/Graphics/SVG/1.1/DTD/svg11.dtd">
<svg version="1.1" xmlns="http://www.w3.org/2000/svg" xmlns:xlink="http://www.w3.org/1999/xlink" width="32" height="32" viewBox="0 0 32 32">
<path d="M16 30.375c3.438 0 6.625-1.188 9.063-3.188l5.063 1.813-2.125-5.063c1.5-2.313 2.375-5 2.375-7.938 0-7.938-6.438-14.375-14.375-14.375s-14.375 6.438-14.375 14.375c0 7.938 6.438 14.375 14.375 14.375zM8.063 12.25l2.938-0.688c0.875-1.625 2.563-2.75 4.563-2.75 1.125 0 2.188 0.313 3 0.938l2.938-0.688c0.688-0.125 1.375 0.375 1.563 1.125l1.938 8.375c0.188 0.75-0.188 1.5-0.875 1.688l-13.5 3.125c-0.688 0.188-1.375-0.313-1.563-1.063l-1.938-8.375c-0.188-0.75 0.25-1.5 0.938-1.688zM16.313 19.75c2 0 3.625-1.625 3.625-3.625s-1.625-3.625-3.625-3.625c-2 0-3.625 1.625-3.625 3.625s1.625 3.625 3.625 3.625zM16.313 13.813c1.25 0 2.313 1 2.313 2.313 0 1.25-1.063 2.313-2.313 2.313-1.313 0-2.313-1.063-2.313-2.313 0-1.313 1-2.313 2.313-2.313z"></path>
</svg>
