<?xml version="1.0" encoding="utf-8"?>
<!DOCTYPE svg PUBLIC "-//W3C//DTD SVG 1.1//EN" "http://www.w3.org/Graphics/SVG/1.1/DTD/svg11.dtd">
<svg version="1.1" xmlns="http://www.w3.org/2000/svg" xmlns:xlink="http://www.w3.org/1999/xlink" width="32" height="32" viewBox="0 0 32 32">
<path d="M16 0c-8.813 0-16 7.188-16 16s7.188 16 16 16c8.813 0 16-7.188 16-16s-7.188-16-16-16zM16 1.313c8.125 0 14.688 6.563 14.688 14.688 0 3.75-1.5 7.063-3.75 9.75-2.938-2.813-6.813-4.438-10.938-4.438s-8 1.625-10.938 4.438c-2.25-2.688-3.75-6-3.75-9.75 0-8.125 6.563-14.688 14.688-14.688zM6 26.688c2.688-2.563 6.25-4 10-4s7.313 1.438 10 4c-2.688 2.5-6.125 4-10 4s-7.438-1.5-10-4zM25.75 7.188l-9.313 9.313-0.938-0.938 9.313-9.313zM17.063 4c0 0.563-0.5 1.063-1.063 1.063s-1.063-0.5-1.063-1.063c0-0.563 0.5-1.063 1.063-1.063s1.063 0.5 1.063 1.063zM5.063 16c0 0.563-0.5 1.063-1.063 1.063s-1.063-0.5-1.063-1.063c0-0.563 0.5-1.063 1.063-1.063s1.063 0.5 1.063 1.063zM29.063 16c0 0.563-0.5 1.063-1.063 1.063-0.625 0-1.063-0.5-1.063-1.063s0.438-1.063 1.063-1.063c0.563 0 1.063 0.5 1.063 1.063zM7.438 8.563c0.313 0 0.563-0.188 0.688-0.313 0.438-0.375 0.438-1.063 0-1.438-0.375-0.375-1.063-0.375-1.438 0-0.438 0.375-0.438 1.063 0 1.438 0.25 0.125 0.5 0.313 0.75 0.313zM13.313 26.688h5.375v1.313h-5.375z"></path>
</svg>
