<?xml version="1.0" encoding="utf-8"?>
<!DOCTYPE svg PUBLIC "-//W3C//DTD SVG 1.1//EN" "http://www.w3.org/Graphics/SVG/1.1/DTD/svg11.dtd">
<svg version="1.1" xmlns="http://www.w3.org/2000/svg" xmlns:xlink="http://www.w3.org/1999/xlink" width="32" height="32" viewBox="0 0 32 32">
<path d="M16 0.063c-8.813 0-16 1.438-16 3.313v24.813c0.25 2.938 10.563 3.75 16 3.75s15.625-0.813 16-3.75v-24.813c0-1.875-7.188-3.313-16-3.313zM16 1.375c8 0 12.938 1.25 14.375 2-1.438 0.813-6.375 2-14.375 2s-12.938-1.188-14.375-2c1.438-0.75 6.375-2 14.375-2zM30.688 28.188c0 0.813-4.938 2.563-14.688 2.563s-14.688-1.875-14.688-2.563v-6.25c2.938 1.75 10.313 2.125 14.688 2.125s11.75-0.5 14.688-2.125zM30.688 20.188c0 0.813-4.938 2.563-14.688 2.563s-14.688-1.875-14.688-2.563v-7.563c2.938 1.688 10.313 2.125 14.688 2.125s11.75-0.563 14.688-2.125zM16 13.25c-9.75 0-14.688-1.688-14.688-2.5v-6c2.438 1.188 8.125 2 14.688 2s12.25-0.813 14.688-2v6.125c0 0.688-4.938 2.375-14.688 2.375z"></path>
</svg>
