<?xml version="1.0" encoding="utf-8"?>
<!DOCTYPE svg PUBLIC "-//W3C//DTD SVG 1.1//EN" "http://www.w3.org/Graphics/SVG/1.1/DTD/svg11.dtd">
<svg version="1.1" xmlns="http://www.w3.org/2000/svg" xmlns:xlink="http://www.w3.org/1999/xlink" width="32" height="32" viewBox="0 0 32 32">
<path d="M16 0c-6.75 0-14 2.063-14 6.5v19c0 4.438 7.25 6.5 14 6.5s14-2.063 14-6.5v-19c0-4.438-7.25-6.5-14-6.5zM28 25.5c0 2.5-5.375 4.5-12 4.5s-12-2-12-4.5v-3.75c2.063 2.125 7.063 3.25 12 3.25s9.938-1.125 12-3.25zM28 19.5v0c0 0 0 0 0 0 0 2.5-5.375 4.5-12 4.5s-12-2-12-4.5c0 0 0 0 0 0v0-3.75c2.063 2.125 7.063 3.25 12 3.25s9.938-1.125 12-3.25zM28 13.5v0c0 0 0 0 0 0 0 2.5-5.375 4.5-12 4.5s-12-2-12-4.5c0 0 0 0 0 0v0-3.438c2.625 2 7.438 2.938 12 2.938s9.375-0.938 12-2.938zM16 11c-6.625 0-12-2-12-4.5s5.375-4.5 12-4.5c6.625 0 12 2 12 4.5s-5.375 4.5-12 4.5zM26 26c0 0.563-0.438 1-1 1s-1-0.438-1-1c0-0.563 0.438-1 1-1s1 0.438 1 1zM26 20c0 0.563-0.438 1-1 1s-1-0.438-1-1c0-0.563 0.438-1 1-1s1 0.438 1 1zM26 14c0 0.563-0.438 1-1 1s-1-0.438-1-1c0-0.563 0.438-1 1-1s1 0.438 1 1z"></path>
</svg>
