<?xml version="1.0" encoding="utf-8"?>
<!DOCTYPE svg PUBLIC "-//W3C//DTD SVG 1.1//EN" "http://www.w3.org/Graphics/SVG/1.1/DTD/svg11.dtd">
<svg version="1.1" xmlns="http://www.w3.org/2000/svg" xmlns:xlink="http://www.w3.org/1999/xlink" width="32" height="32" viewBox="0 0 32 32">
<path d="M3.188 3.188v25.625h25.625v-25.625zM27.75 4.25v4.813h-23.5v-4.813zM4.25 27.75v-17.625h23.5v17.625zM11.188 5.875h1.625v1.625h-1.625zM19.188 5.875h1.625v1.625h-1.625zM12.375 13.938c-0.188 1.313-0.813 1.313-2.063 1.375h-0.188v0.875h2.063v5.938h1.125v-8.375h-0.938v0.188zM18.625 16.438c-0.5 0-1 0.188-1.375 0.438l0.375-1.938h3.5v-1.063h-4.313l-0.875 4.5h0.938l0.063-0.063c0.375-0.563 1-0.875 1.625-0.875 1.063 0 1.813 0.813 1.813 1.875 0 1-0.563 2-1.75 2-1 0-1.75-0.688-1.75-1.688v-0.188h-1.125v0.188c0 1.625 1.125 2.688 2.813 2.688 1.625 0 2.938-1.313 2.938-2.938 0-1.75-1.125-2.938-2.875-2.938z"></path>
</svg>
