<?xml version="1.0" encoding="utf-8"?>
<!DOCTYPE svg PUBLIC "-//W3C//DTD SVG 1.1//EN" "http://www.w3.org/Graphics/SVG/1.1/DTD/svg11.dtd">
<svg version="1.1" xmlns="http://www.w3.org/2000/svg" xmlns:xlink="http://www.w3.org/1999/xlink" width="32" height="32" viewBox="0 0 32 32">
<path d="M29.25 10.375c-1.063-2.563-2.875-4.75-5.188-6.313-1.188-0.75-2.438-1.375-3.75-1.813-1.375-0.438-2.813-0.625-4.313-0.625-2 0-3.875 0.375-5.625 1.125-2.563 1.063-4.75 2.875-6.313 5.188-0.75 1.188-1.375 2.438-1.813 3.813-0.438 1.313-0.625 2.75-0.625 4.25 0 2 0.375 3.875 1.125 5.625 1.063 2.563 2.875 4.75 5.188 6.313 1.188 0.75 2.438 1.375 3.813 1.813 1.313 0.438 2.75 0.625 4.25 0.625 2 0 3.875-0.375 5.625-1.125 2.563-1.063 4.75-2.875 6.313-5.188 0.75-1.188 1.375-2.438 1.813-3.75 0.438-1.375 0.625-2.813 0.625-4.313 0-2-0.375-3.875-1.125-5.625zM27.5 20.875c-1 2.188-2.563 4.125-4.563 5.438-1 0.688-2.063 1.188-3.25 1.563-1.125 0.375-2.375 0.563-3.688 0.563v0-12.438h-12.438c0 0 0 0 0 0 0-1.75 0.313-3.375 0.938-4.875 1-2.188 2.563-4.125 4.563-5.438 1-0.688 2.063-1.188 3.25-1.563 1.125-0.375 2.375-0.563 3.688-0.563v12.438h12.438c0 1.75-0.313 3.375-0.938 4.875z"></path>
</svg>
