<?xml version="1.0" encoding="utf-8"?>
<!DOCTYPE svg PUBLIC "-//W3C//DTD SVG 1.1//EN" "http://www.w3.org/Graphics/SVG/1.1/DTD/svg11.dtd">
<svg version="1.1" xmlns="http://www.w3.org/2000/svg" xmlns:xlink="http://www.w3.org/1999/xlink" width="32" height="32" viewBox="0 0 32 32">
<path d="M22.063 22.125c-0.188 0-0.25 0.063-0.375 0.25-0.25 0.313-0.75 0.875-1.5 1.688-1.313 1.25-2.188 1.938-2.813 1.938h-0.125c-0.375-0.125-0.5-0.5-0.438-0.813 0-0.5 0.125-0.875 0.25-1.313 0.938-2.938 2.375-5.688 3.563-8.563 0.688-1.5 1.438-2.938 2-4.5 0.188-0.563 0.375-1.188 0.375-1.813 0-0.938-0.625-1.563-1.438-1.75h-0.125c-0.188 0-0.125 0.188-0.25 0.875-0.063 0.438-0.25 0.938-0.375 1.375-0.688 2.125-1.75 4.063-2.688 6l-0.313 0.563v-0.25c-0.188-1.063-1.375-1.75-2.438-1.75-1.563 0-2.813 0.938-3.938 2-1.375 1.375-2.438 3.25-3 4.938-1 3.188-1.313 7.25 2.313 7.313 1 0 2.125-0.688 3.25-2.125l0.188-0.188c0 0 0 0.125 0 0.188 0 1 0.563 2.125 1.688 2.125 1.25 0 2.688-1.125 4.813-3.563 0.625-0.688 1.125-1.313 1.438-1.875 0.125-0.188 0.188-0.313 0.188-0.438 0-0.188-0.125-0.313-0.25-0.313zM14.438 23.438c-0.563 0.938-1.313 1.813-1.875 2.313-0.375 0.25-0.688 0.375-0.938 0.375-0.688 0-1.125-0.688-1.063-1.75 0.063-2.563 1.25-5.25 3-7.313 0.563-0.625 1.125-1.375 2-1.375 0.75 0 1.125 0.5 1.125 1.313-0.063 2.313-1.063 4.5-2.25 6.438zM13.313 6.438l1.563-0.438c0.25-0.063 0.5-0.313 0.563-0.563l0.375-1.563c0.063-0.25 0.188-0.25 0.25 0l0.375 1.563c0.063 0.25 0.313 0.5 0.563 0.563l1.563 0.438c0.25 0.063 0.25 0.125 0 0.188l-1.563 0.438c-0.25 0.063-0.5 0.313-0.563 0.5l-0.375 1.625c-0.063 0.25-0.188 0.25-0.25 0l-0.375-1.625c-0.063-0.188-0.313-0.438-0.563-0.5l-1.563-0.438c-0.25-0.063-0.25-0.125 0-0.188zM8.688 17.875l-0.938-3.813c-0.188-0.625-0.813-1.25-1.438-1.438l-4.25-1.125c-0.625-0.125-0.625-0.375 0-0.563l4.25-1.125c0.625-0.125 1.25-0.813 1.438-1.438l1.063-4.25c0.188-0.625 0.438-0.625 0.625 0l1.125 4.25c0.125 0.625 0.75 1.313 1.375 1.438l4.25 1.125c0.625 0.188 0.625 0.438 0 0.563l-4.25 1.125c-0.625 0.188-1.25 0.813-1.375 1.438l-0.563 1.938c-0.438 0.563-0.875 1.188-1.313 1.875zM27.625 19l2.5 0.688c0.375 0.063 0.375 0.25 0 0.313l-2.5 0.688c-0.375 0.063-0.75 0.438-0.875 0.813l-0.625 2.563c-0.125 0.313-0.25 0.313-0.375 0l-0.625-2.563c-0.125-0.375-0.5-0.75-0.875-0.813l-2.5-0.688c-0.375-0.063-0.375-0.25 0-0.313l2.5-0.688c0.375-0.125 0.75-0.5 0.875-0.875l0.625-2.5c0.125-0.375 0.25-0.375 0.375 0l0.625 2.5c0.125 0.375 0.5 0.75 0.875 0.875z"></path>
</svg>
