<?xml version="1.0" encoding="utf-8"?>
<!DOCTYPE svg PUBLIC "-//W3C//DTD SVG 1.1//EN" "http://www.w3.org/Graphics/SVG/1.1/DTD/svg11.dtd">
<svg version="1.1" xmlns="http://www.w3.org/2000/svg" xmlns:xlink="http://www.w3.org/1999/xlink" width="32" height="32" viewBox="0 0 32 32">
<path d="M17.938 8.875v-2.813c3.813 0.875 6.563 3.563 7.5 7.688h-2.813c-0.75-2.563-2.438-4.125-4.688-4.875zM13.75 8.875v-2.813c-4.5 0.875-6.813 3.563-7.688 7.688h2.813c0.688-2.563 2.625-4.125 4.875-4.875zM8.875 17.625h-2.813c0.875 4.75 3.188 7 7.688 7.875v-2.813c-2.25-0.688-4.188-2.875-4.875-5.063zM28.438 15.813c0 7.063-5.688 12.75-12.688 12.75-7.063 0-12.75-5.688-12.75-12.75s5.688-12.813 12.75-12.813c7 0 12.688 5.75 12.688 12.813zM27.188 15.813c0-6.375-5.125-11.5-11.438-11.5-6.375 0-11.5 5.125-11.5 11.5 0 6.313 5.125 11.5 11.5 11.5 6.313 0 11.438-5.188 11.438-11.5zM15.75 21.625c-3.25 0-5.813-2.625-5.813-5.813 0-3.25 2.563-5.813 5.813-5.875 3.188 0.063 5.75 2.625 5.813 5.875-0.063 3.188-2.625 5.813-5.813 5.813zM20.25 15.813c0-2.5-2-4.563-4.5-4.563s-4.563 2.063-4.563 4.563c0 2.5 2.063 4.5 4.563 4.5s4.5-2 4.5-4.5zM17.938 22.688v2.813c3.813-0.875 6.563-3.125 7.5-7.875h-2.813c-0.75 2.188-2.438 4.375-4.688 5.063zM28.875 23.25c-0.813 0-1.438 0.625-1.438 1.438 0 0.75 0.625 1.375 1.438 1.375 0.75 0 1.375-0.625 1.375-1.375 0-0.813-0.625-1.438-1.375-1.438zM25.438 26.875c-1 0-1.813 0.813-1.813 1.813s0.813 1.813 1.813 1.813c1 0 1.813-0.813 1.813-1.813s-0.813-1.813-1.813-1.813zM28.438 18.625c-0.5 0-0.875 0.375-0.875 0.875 0 0.438 0.375 0.813 0.875 0.813 0.438 0 0.813-0.375 0.813-0.813 0-0.5-0.375-0.875-0.813-0.875zM3.438 28.25c-0.5 0-0.875 0.375-0.875 0.875s0.375 0.938 0.875 0.938c0.5 0 0.938-0.438 0.938-0.938s-0.438-0.875-0.938-0.875zM3.188 23.438c-0.5 0-0.875 0.375-0.875 0.875s0.375 0.875 0.875 0.875c0.438 0 0.875-0.375 0.875-0.875s-0.438-0.875-0.875-0.875zM6 25.625c-0.625 0-1.188 0.563-1.188 1.188s0.563 1.188 1.188 1.188c0.625 0 1.188-0.563 1.188-1.188s-0.563-1.188-1.188-1.188zM28.875 8c-0.313 0-0.625 0.25-0.625 0.625 0 0.313 0.313 0.563 0.625 0.563s0.625-0.25 0.625-0.563c0-0.375-0.313-0.625-0.625-0.625zM2.5 5.438c-0.563 0-1 0.438-1 1.063 0 0.563 0.438 1 1 1s1-0.438 1-1c0-0.625-0.438-1.063-1-1.063zM4.813 1.688c-0.688 0-1.25 0.563-1.25 1.313 0 0.688 0.563 1.25 1.25 1.25 0.75 0 1.313-0.563 1.313-1.25 0-0.75-0.563-1.313-1.313-1.313zM2.813 9.625c-0.313 0-0.625 0.313-0.625 0.688 0 0.313 0.313 0.625 0.625 0.625 0.375 0 0.688-0.313 0.688-0.625 0-0.375-0.313-0.688-0.688-0.688z"></path>
</svg>
