<?xml version="1.0" encoding="utf-8"?>
<!DOCTYPE svg PUBLIC "-//W3C//DTD SVG 1.1//EN" "http://www.w3.org/Graphics/SVG/1.1/DTD/svg11.dtd">
<svg version="1.1" xmlns="http://www.w3.org/2000/svg" xmlns:xlink="http://www.w3.org/1999/xlink" width="32" height="32" viewBox="0 0 32 32">
<path d="M11.313 10.813c-0.063 0-0.125 0-0.25 0l-1.375-2.813-4.063 0.5 1.625 3.438c-8.625 3.563-4.813 12.063-4.813 12.063l13.25-3.813-3.625-7.438c6.5-1.875 11.938 2 11.938 2l-4.5 1.188-1.25-2.438c-1.25-0.188-2.625-0.25-4.125 0l3.063 6.25 13.188-3.875c0 0-4.75-7.563-19.063-5.063zM6 19.625c0 0-1.25-2.875 2.438-5.25l2 4.063z"></path>
</svg>
