<?xml version="1.0" encoding="utf-8"?>
<!DOCTYPE svg PUBLIC "-//W3C//DTD SVG 1.1//EN" "http://www.w3.org/Graphics/SVG/1.1/DTD/svg11.dtd">
<svg version="1.1" xmlns="http://www.w3.org/2000/svg" xmlns:xlink="http://www.w3.org/1999/xlink" width="32" height="32" viewBox="0 0 32 32">
<path d="M31.438 9.688l-5.125-5.063c-0.375-0.375-0.875-0.625-1.375-0.625h-17.875c-0.5 0-1 0.25-1.375 0.625l-5.125 5.063c-0.375 0.375-0.563 0.875-0.563 1.438 0 0.438 0.188 0.938 0.5 1.313l14 14.875c0.375 0.438 0.938 0.688 1.5 0.688s1.125-0.25 1.5-0.688l14-14.875c0.313-0.375 0.5-0.875 0.5-1.375s-0.188-1-0.563-1.375zM18.25 11h-4.5l2.25-1.813zM16.813 8.5l2.688-2.25 2.063 2-2.563 2.125zM13 10.375l-2.563-2.125 2.063-2 2.75 2.25zM18.5 12l-2.5 12.438-2.5-12.438zM19.5 12h4.938l-7.375 12.25zM19.75 11l2.5-2.063 2.063 2.063zM20.688 6h3.563l-1.938 1.625zM16 7.875l-2.25-1.875h4.438zM9.688 7.625l-1.938-1.625h3.563zM9.75 8.938l2.5 2.063h-4.563zM12.5 12l2.438 12.25-7.375-12.25zM12.688 22.5l-9.813-10.5h3.563zM25.563 12h3.563l-9.813 10.5zM25.688 11l-2.688-2.688 2.313-1.938 4.625 4.625zM6.688 6.375l2.313 1.938-2.688 2.688h-4.313z"></path>
</svg>
