<?xml version="1.0" encoding="utf-8"?>
<!DOCTYPE svg PUBLIC "-//W3C//DTD SVG 1.1//EN" "http://www.w3.org/Graphics/SVG/1.1/DTD/svg11.dtd">
<svg version="1.1" xmlns="http://www.w3.org/2000/svg" xmlns:xlink="http://www.w3.org/1999/xlink" width="32" height="32" viewBox="0 0 32 32">
<path d="M30.375 8.813h-3.688v-5.625h-10.75v5.563h-3.688v7.25h-8.75v-7.25h-1.875v7.313h1.875v1.938h3.375v3.375h-1.438v2h4.813v3.438h-4.813v-3.438h-1.938v5.438h8.688v-5.438h-1.938v-2h-1.438v-3.375h5.438v10.75h14.5v-11.188h1.625zM24.688 5.125v7.125h-6.813v-7.125zM22.438 26.813v-5.438h-1.75v5.438h-4.438v-10.813h-2.063v-5.188h1.75v3.438h10.75v-3.438h1.688v5.25h-1.563v10.75zM10.25 8.75v-1.875h2v1.875zM10.25 6.875h-4.813v-2h4.813zM5.438 8.75h-1.938v-1.875h1.938z"></path>
</svg>
