<?xml version="1.0" encoding="utf-8"?>
<!DOCTYPE svg PUBLIC "-//W3C//DTD SVG 1.1//EN" "http://www.w3.org/Graphics/SVG/1.1/DTD/svg11.dtd">
<svg version="1.1" xmlns="http://www.w3.org/2000/svg" xmlns:xlink="http://www.w3.org/1999/xlink" width="32" height="32" viewBox="0 0 32 32">
<path d="M15.875 12.563c3.625-0.063 5.563-1.938 7.375-3.75v21.563h-3.563c-0.063-0.875-0.063-1.75-0.063-2.625v-6.063c0-2.25 0.063-4.5 0.063-6.75-0.5 0.125-1.125 0.375-1.75 0.563-1.938 0.5-4.5 0.25-5.938-0.625 0 1.063 0 2.125 0 3.188v11.25c0 0.375 0 0.688 0 1.063h-3.625v-21.563c1.813 1.938 3.875 3.813 7.5 3.75zM21.563 6.313c1.25 0 2.313-1.063 2.313-2.375s-1.063-2.375-2.313-2.375c-1.313 0-2.313 1.063-2.313 2.375s1 2.375 2.313 2.375zM10.188 6.313c1.313 0 2.313-1.063 2.313-2.375s-1-2.375-2.313-2.375c-1.25 0-2.313 1.063-2.313 2.375s1.063 2.375 2.313 2.375z"></path>
</svg>
