<?xml version="1.0" encoding="utf-8"?>
<!DOCTYPE svg PUBLIC "-//W3C//DTD SVG 1.1//EN" "http://www.w3.org/Graphics/SVG/1.1/DTD/svg11.dtd">
<svg version="1.1" xmlns="http://www.w3.org/2000/svg" xmlns:xlink="http://www.w3.org/1999/xlink" width="32" height="32" viewBox="0 0 32 32">
<path d="M16.125 18.625c1.438 0 2.625-1.188 2.625-2.625s-1.188-2.625-2.625-2.625c-1.438 0-2.625 1.188-2.625 2.625s1.188 2.625 2.625 2.625zM16.125 14.438c0.875 0 1.563 0.688 1.563 1.563s-0.688 1.563-1.563 1.563c-0.875 0-1.563-0.688-1.563-1.563s0.688-1.563 1.563-1.563zM29.125 17.625c0.063-0.563 0.125-1.063 0.125-1.625 0-7.25-5.875-13.125-13.125-13.125 0 0 0 0 0 0-5 0-9.313 2.75-11.563 6.875 0 0 0 0 0 0 0 0.063-0.063 0.125-0.125 0.25-0.125 0.313-0.25 0.563-0.438 0.875 0 0.063 0 0.125 0 0.188-0.625 1.5-1 3.188-1 4.938 0 7.25 5.875 13.125 13.125 13.125 6.5 0 11.938-4.75 12.938-11 0-0.188 0.063-0.313 0.063-0.5zM28.125 16.688c0 0.125 0 0.188 0 0.25 0 0.125 0 0.313-0.063 0.5 0 0.063 0 0.125 0 0.25s-0.063 0.313-0.063 0.5c-0.063 0.063-0.063 0.125-0.063 0.188-0.063 0.188-0.063 0.438-0.125 0.625 0 0.063 0 0.063 0 0.063-0.063 0.188-0.125 0.438-0.188 0.625-0.063 0.063-0.063 0.125-0.063 0.188-0.063 0.125-0.125 0.313-0.188 0.5-0.063 0.063-0.063 0.063-0.063 0.125-0.063 0.188-0.188 0.375-0.25 0.563 0 0 0 0.063-0.063 0.063-0.063 0.25-0.188 0.438-0.313 0.625l-6.25-3.75c0.25-0.625 0.438-1.313 0.438-2 0-2.625-2.125-4.75-4.75-4.75 0 0 0 0 0 0s0 0 0 0c-0.063 0-0.063 0.063-0.063 0.063-0.188 0-0.313 0-0.5 0 0 0 0 0 0 0-0.938 0.125-1.75 0.5-2.375 1l-5.25-5.188c1.063-1 2.313-1.75 3.625-2.313 0.688-0.25 1.438-0.5 2.188-0.625 0 0 0 0 0.063 0 0.125-0.063 0.313-0.063 0.5-0.125 0.063 0 0.063 0 0.125 0 0.188 0 0.313-0.063 0.5-0.063 0.063 0 0.125 0 0.188 0 0.125-0.063 0.25-0.063 0.375-0.063 0.188 0 0.375 0 0.563 0 0.063 0 0.063 0 0.063 0 6 0 11 4.438 11.938 10.25 0.063 0.563 0.125 1.188 0.125 1.813 0 0.25 0 0.5-0.063 0.688zM25.313 23.75c-0.125 0.188-0.25 0.313-0.375 0.5-0.063 0-0.063 0-0.063 0.063-0.125 0.125-0.25 0.25-0.375 0.375-0.063 0-0.063 0.063-0.125 0.063-0.125 0.125-0.25 0.25-0.375 0.375-0.063 0.063-0.063 0.063-0.125 0.063-0.125 0.125-0.313 0.25-0.438 0.375 0 0.063 0 0.063-0.063 0.063-0.313 0.25-0.688 0.5-1.063 0.75l-3.5-6.5c0.375-0.25 0.75-0.625 1.063-1l6.25 3.813c-0.25 0.375-0.5 0.688-0.75 1.063 0 0-0.063 0-0.063 0zM20.063 27.375c-0.188 0.063-0.313 0.125-0.5 0.188-0.063 0-0.125 0-0.188 0.063-0.125 0-0.25 0.063-0.438 0.125-0.063 0-0.125 0-0.188 0-0.125 0.063-0.313 0.063-0.438 0.125-0.063 0-0.125 0-0.188 0-0.188 0.063-0.313 0.063-0.5 0.063-0.063 0.063-0.125 0.063-0.188 0.063-0.188 0-0.313 0-0.5 0.063-0.063 0-0.125 0-0.125 0-0.25 0-0.5 0-0.688 0-6.438 0-11.75-5.063-12.063-11.438 0-0.188 0-0.438 0-0.625s0-0.438 0-0.625c0-0.125 0-0.313 0.063-0.438 0-0.063 0-0.125 0-0.125 0.125-1.188 0.375-2.313 0.813-3.375 0 0 0 0 0 0 0.563-1.375 1.313-2.563 2.313-3.563l5.188 5.188c-0.563 0.75-0.938 1.625-1 2.625-0.063 0.063-0.063 0.188-0.063 0.313 0 0 0 0 0 0s0 0 0 0c0 2.625 2.125 4.75 4.75 4.75 0.625 0 1.188-0.125 1.75-0.375l3.5 6.5c-0.375 0.188-0.813 0.313-1.188 0.5-0.063 0-0.125 0-0.125 0.063zM19.813 16c0 2-1.688 3.688-3.688 3.688-2.063 0-3.688-1.688-3.688-3.688s1.625-3.688 3.688-3.688c2 0 3.688 1.688 3.688 3.688z"></path>
</svg>
