<?xml version="1.0" encoding="utf-8"?>
<!DOCTYPE svg PUBLIC "-//W3C//DTD SVG 1.1//EN" "http://www.w3.org/Graphics/SVG/1.1/DTD/svg11.dtd">
<svg version="1.1" xmlns="http://www.w3.org/2000/svg" xmlns:xlink="http://www.w3.org/1999/xlink" width="32" height="32" viewBox="0 0 32 32">
<path d="M29.875 22.688v-19.188h-27.75v19.188h13.313v2.063l-5 2.813 0.5 0.938 5.063-2.813 5.063 2.813 0.5-0.938-5-2.813v-2.063zM3.188 4.563h25.625v17.063h-25.625zM15.313 15.438l-3.188-4.438-2.125 4.125-3.313-6.688-2.438 8.938 1.063 0.25 1.688-6.25 3 6.125 2.25-4.438 3.438 4.75 2.938-9.875-1-0.313zM23.438 9.875c-1.75 0-3.188 1.438-3.188 3.25 0 1.75 1.438 3.188 3.188 3.188 1.813 0 3.25-1.438 3.25-3.188 0-1.813-1.438-3.25-3.25-3.25zM23.438 15.25c-1.125 0-2.125-1-2.125-2.125 0-1.188 1-2.125 2.125-2.125 1.188 0 2.188 0.938 2.188 2.125 0 1.125-1 2.125-2.188 2.125z"></path>
</svg>
