<?xml version="1.0" encoding="utf-8"?>
<!DOCTYPE svg PUBLIC "-//W3C//DTD SVG 1.1//EN" "http://www.w3.org/Graphics/SVG/1.1/DTD/svg11.dtd">
<svg version="1.1" xmlns="http://www.w3.org/2000/svg" xmlns:xlink="http://www.w3.org/1999/xlink" width="32" height="32" viewBox="0 0 32 32">
<path d="M30.375 4h-28.75v1.063h2.125v19.188h11.688v2.688h-8.5v1.063h18.125v-1.063h-8.5v-2.688h11.688v-19.188h2.125zM27.188 23.188h-22.375v-18.125h22.375zM14.375 8.25h-6.375v6.438h6.375v-6.438zM13.313 13.625h-4.25v-4.313h4.25zM16.563 13.625h7.438v1.063h-7.438zM16.563 8.25h7.438v1.063h-7.438zM16.563 10.938h7.438v1.063h-7.438zM8 16.813h16v1.063h-16zM8 20h16v1.063h-16z"></path>
</svg>
