<?xml version="1.0" encoding="utf-8"?>
<!DOCTYPE svg PUBLIC "-//W3C//DTD SVG 1.1//EN" "http://www.w3.org/Graphics/SVG/1.1/DTD/svg11.dtd">
<svg version="1.1" xmlns="http://www.w3.org/2000/svg" xmlns:xlink="http://www.w3.org/1999/xlink" width="32" height="32" viewBox="0 0 32 32">
<path d="M15.813 2.688c-7.313 0-13.313 5.938-13.313 13.313s6 13.313 13.313 13.313c7.375 0 13.375-5.938 13.375-13.313s-6-13.313-13.375-13.313zM15.813 28.25c-6.75 0-12.25-5.5-12.25-12.25s5.5-12.25 12.25-12.25c6.813 0 12.313 5.5 12.313 12.25s-5.5 12.25-12.313 12.25zM20.125 12.813c0-2.375-1.938-4.25-4.313-4.25-2.313 0-4.25 1.875-4.25 4.25 0 1.563 0.938 3 2.25 3.75l-2.25 6.375h8.563l-2.188-6.375c1.25-0.75 2.188-2.188 2.188-3.75zM18.625 21.875h-5.563l1.688-4.938 0.313-0.875-0.75-0.438c-1.063-0.563-1.688-1.625-1.688-2.813 0-1.75 1.438-3.188 3.188-3.188 1.813 0 3.25 1.438 3.25 3.188 0 1.188-0.688 2.25-1.688 2.75l-0.813 0.438 0.313 0.875 1.75 5z"></path>
</svg>
