<?xml version="1.0" encoding="utf-8"?>
<!DOCTYPE svg PUBLIC "-//W3C//DTD SVG 1.1//EN" "http://www.w3.org/Graphics/SVG/1.1/DTD/svg11.dtd">
<svg version="1.1" xmlns="http://www.w3.org/2000/svg" xmlns:xlink="http://www.w3.org/1999/xlink" width="32" height="32" viewBox="0 0 32 32">
<path d="M16 1.625c-7.938 0-14.375 6.438-14.375 14.375s6.438 14.375 14.375 14.375c7.938 0 14.375-6.438 14.375-14.375s-6.438-14.375-14.375-14.375zM24.813 9.063c1.438 1.813 2.313 4 2.375 6.438-1.625-0.375-3.125-0.563-4.563-0.563v0 0c-1.188 0-2.25 0.125-3.25 0.313-0.25-0.625-0.5-1.188-0.75-1.75 2.25-1 4.438-2.438 6.188-4.438zM16 4.75c2.625 0 5.063 0.938 7 2.5-1.438 1.75-3.438 3-5.5 3.938-1.5-2.875-2.938-4.875-3.875-6.125 0.75-0.188 1.563-0.313 2.375-0.313zM11.063 5.938c0.75 0.938 2.313 2.938 4 6.125-3.438 1-6.813 1.25-8.875 1.25-0.063 0-0.125 0-0.188 0v0c-0.375 0-0.625 0-0.875-0.063 0.75-3.188 3-5.875 5.938-7.313zM4.75 16c0-0.063 0-0.125 0-0.188 0.313 0.063 0.75 0.063 1.25 0.063v0c2.25 0 6.188-0.188 10.188-1.5 0.25 0.5 0.438 1 0.688 1.5-2.688 0.875-4.813 2.313-6.375 3.75-1.5 1.375-2.5 2.688-3.063 3.625-1.688-2-2.688-4.5-2.688-7.25zM16 27.25c-2.5 0-4.813-0.813-6.688-2.25 0.438-0.625 1.25-1.875 2.625-3.188s3.313-2.688 5.813-3.563c0.875 2.438 1.625 5.188 2.25 8.25-1.25 0.5-2.625 0.75-4 0.75zM22.375 25.25c-0.563-2.813-1.313-5.313-2.063-7.563 0.688-0.125 1.438-0.188 2.25-0.188h0.063c1.313 0 2.813 0.188 4.375 0.563-0.5 2.938-2.25 5.5-4.625 7.188z"></path>
</svg>
