<?xml version="1.0" encoding="utf-8"?>
<!DOCTYPE svg PUBLIC "-//W3C//DTD SVG 1.1//EN" "http://www.w3.org/Graphics/SVG/1.1/DTD/svg11.dtd">
<svg version="1.1" xmlns="http://www.w3.org/2000/svg" xmlns:xlink="http://www.w3.org/1999/xlink" width="32" height="32" viewBox="0 0 32 32">
<path d="M24.813 15.875c0-0.125-0.063-0.188-0.063-0.25l-8.75-14.563-1.25 2.125-7.5 12.5c-0.063 0.063-0.063 0.063-0.063 0.125-0.875 1.5-1.313 3.25-1.313 5 0 5.563 4.563 10.125 10.125 10.125s10.125-4.563 10.125-10.125c0-1.75-0.438-3.438-1.313-4.938zM16 29.875c-5 0-9.063-4.125-9.063-9.063 0-1.625 0.438-3.188 1.25-4.563 0 0 0-0.063 0-0.063l7.813-13 7.813 13c0 0 0 0.063 0 0.063 0.813 1.375 1.25 2.938 1.25 4.563 0 5-4.063 9.063-9.063 9.063z"></path>
</svg>
