<?xml version="1.0" encoding="utf-8"?>
<!DOCTYPE svg PUBLIC "-//W3C//DTD SVG 1.1//EN" "http://www.w3.org/Graphics/SVG/1.1/DTD/svg11.dtd">
<svg version="1.1" xmlns="http://www.w3.org/2000/svg" xmlns:xlink="http://www.w3.org/1999/xlink" width="32" height="32" viewBox="0 0 32 32">
<path d="M22.313 6.938c-1.5-0.875-2.875-1.25-4.25-2.188-0.875-0.563-2.063-1.938-3.063-3.125-0.25 1.875-0.813 2.688-1.5 3.25-1.375 1.063-2.313 1.438-3.5 2.063-1.063 0.563-6.625 3.875-6.625 11.063 0 7.125 6 12.375 12.75 12.375 6.688 0 12.5-4.813 12.5-12.188s-5.438-10.688-6.313-11.25zM22.375 27.625c-0.125 0.125-1.375 1-2.875 1.125s-3.563 0.25-4.75-0.875c-0.25-0.188-0.188-0.438 0-0.563 0.125-0.125 0.25-0.188 0.375-0.188 0.188 0 0.125 0 0.25 0.063 0.563 0.438 1.375 0.75 3.188 0.75 1.75 0 3-0.5 3.563-0.875 0.25-0.188 0.375-0.063 0.375 0.063 0.063 0.125 0.125 0.313-0.125 0.5zM17.563 25.25c0.313-0.25 0.813-0.688 1.313-0.875 0.438-0.25 0.688-0.188 1.188-0.188 0.438 0 0.875 0 1.25 0.25 0.313 0.25 0.5 0.688 0.625 1 0.125 0.25 0 0.438-0.25 0.563-0.188 0.125-0.188 0.063-0.375-0.313-0.25-0.375-0.375-0.75-1.375-0.75-0.938 0-1.25 0.375-1.75 0.75-0.438 0.375-0.625 0.5-0.813 0.313-0.125-0.25-0.125-0.438 0.188-0.75zM27.625 20c0 0.813-0.25 2.375-0.938 3.375-0.688 0.938-1.063 1.313-1.875 1.25-1-0.063-3-3.188-4.313-3.25-1.563-0.063-5.063 3.375-7.875 3.375-1.625 0-2.125-0.25-2.688-0.625-0.875-0.563-1.25-1.438-1.25-2.688 0.063-2.188 2.063-4.188 4.625-4.188 3.25-0.063 5.5 3.188 7.188 3.188 1.375-0.063 4.063-2.75 5.375-2.75 1.375 0 1.75 1.438 1.75 2.313z"></path>
</svg>
