<?xml version="1.0" encoding="utf-8"?>
<!DOCTYPE svg PUBLIC "-//W3C//DTD SVG 1.1//EN" "http://www.w3.org/Graphics/SVG/1.1/DTD/svg11.dtd">
<svg version="1.1" xmlns="http://www.w3.org/2000/svg" xmlns:xlink="http://www.w3.org/1999/xlink" width="32" height="32" viewBox="0 0 32 32">
<path d="M28.125 8.625c-1.063 0-1.938 0.688-2.188 1.688l-10-3.313c0-0.688-0.563-1.25-1.25-1.25s-1.313 0.563-1.313 1.25c0 0.375 0.188 0.688 0.375 0.875l-10.563 12.125c-0.125-0.063-0.25-0.063-0.375-0.063-0.688 0-1.188 0.5-1.188 1.188 0 0.625 0.5 1.188 1.188 1.188 0.438 0 0.813-0.25 1.063-0.688l9.563 2.313c0 0.125-0.063 0.313-0.063 0.438 0 1.188 1 2.125 2.125 2.125 1.188 0 2.125-0.938 2.125-2.125 0-0.188 0-0.438-0.063-0.625l7.313-3c0.188 0.188 0.5 0.313 0.813 0.313 0.625 0 1.125-0.5 1.125-1.125 0-0.375-0.188-0.75-0.438-0.938l1.188-5.875c0.188 0 0.375 0.063 0.563 0.063 1.25 0 2.25-1.063 2.25-2.313s-1-2.25-2.25-2.25zM15.438 8.063l4.5 5.5-4.563 1.875-0.313-7.188c0.125-0.063 0.25-0.125 0.375-0.188zM14.688 8.313l0.25 7.313-2.063 0.813c-0.063-0.188-0.25-0.313-0.375-0.438l1.75-7.75c0.125 0.063 0.313 0.063 0.438 0.063zM13 17.063c0-0.063 0-0.188 0-0.25l2-0.813 0.25 6.25c-0.188 0.063-0.375 0.063-0.563 0.125l-2.063-4.375c0.25-0.25 0.375-0.563 0.375-0.938zM16.813 22.688c-0.313-0.25-0.75-0.438-1.188-0.438l-0.25-6.375 4.813-2 2.188 2.688zM20.5 13.75l5.5-2.188c0.063 0.25 0.188 0.438 0.313 0.688l-3.75 4.063zM25.875 11.188l-5.625 2.25-4.563-5.563c0.125-0.188 0.188-0.375 0.25-0.563l9.938 3.313c0 0.063 0 0.188 0 0.25 0 0.125 0 0.188 0 0.313zM14 8.125c0 0 0 0 0 0l-1.75 7.75c-0.188-0.063-0.313-0.125-0.5-0.125-0.688 0-1.313 0.563-1.313 1.313 0 0.125 0.063 0.25 0.063 0.313l-6.938 2.813c0 0-0.063-0.063-0.125-0.063zM3.938 21.375c0-0.125 0.063-0.188 0.063-0.25 0-0.25-0.063-0.438-0.188-0.563l6.875-2.813c0.188 0.375 0.625 0.563 1.063 0.563 0.25 0 0.438-0.063 0.625-0.125l2.063 4.375c-0.438 0.25-0.75 0.625-0.938 1.063zM17.438 23.5c-0.125-0.25-0.25-0.438-0.375-0.625l5.5-6.063 2.125 2.563c-0.063 0.188-0.125 0.375-0.125 0.563s0.063 0.375 0.125 0.563zM26.125 18.813c-0.125 0-0.313-0.063-0.438-0.063-0.313 0-0.625 0.125-0.813 0.375l-2.125-2.563 3.75-4.125c0.25 0.25 0.5 0.438 0.813 0.563z"></path>
</svg>
