<?xml version="1.0" encoding="utf-8"?>
<!DOCTYPE svg PUBLIC "-//W3C//DTD SVG 1.1//EN" "http://www.w3.org/Graphics/SVG/1.1/DTD/svg11.dtd">
<svg version="1.1" xmlns="http://www.w3.org/2000/svg" xmlns:xlink="http://www.w3.org/1999/xlink" width="32" height="32" viewBox="0 0 32 32">
<path d="M27.438 9.75l-2.25 4.813-2.063-4.813h-3.188l0.563 1.063c-0.313 0-0.625-0.063-1-0.063-0.875 0-1.563 0.188-2.063 0.563-0.563 0.313-0.875 1-0.875 1.938h2.188c0-0.625 0.063-1.25 0.875-1.25s0.875 0.5 0.875 1.188v0.625c-1.25 0-2.5 0-3.25 0.625-0.375-0.313-0.813-0.5-1.438-0.5-0.813 0-1.375 0.188-1.813 0.875h-0.063v-4.188h-2.188v3.813c-0.313-0.188-0.75-0.313-1.188-0.375-0.813-0.188-1.813-0.313-3.063-0.313-5.313 0-5.875 1.688-5.875 3.625 0 2.188 0.625 3.75 5.875 3.75 1.188 0 2.25-0.125 3.063-0.313 0.438-0.063 0.875-0.25 1.188-0.375v1.625h2.125v-0.875c0.438 0.813 1 1.063 1.875 1.063 1.875 0 2.188-1.688 2.25-3.125 0.125 0 0.313 0 0.5 0 1 0 1.625-0.375 2.063-1.188h0.063l0.125 1.063h2.063c-0.063-0.5-0.125-1-0.125-1.5v-2.125l0.938 1.813v4h2.875v-4l3.875-7.438zM7.5 15c1.938 0 1.875 0.938 1.875 1.625h-3.688c0-0.563-0.063-1.625 1.813-1.625zM10.563 18.563h-1.313c0 0.625-0.313 1.313-1.75 1.313-1.75 0-1.813-1.25-1.813-2.125h6.063v0.813h-1.188zM15.813 18c0 2-0.125 2.875-0.938 2.875s-0.938-0.875-0.938-2.875c0-1.625 0-2.688 0.938-2.688s0.938 1.063 0.938 2.688zM19.438 17.75c-0.75 0-0.875-0.688-0.875-1.25 0-1.438 0.875-1.313 1.938-1.438 0 0.875 0.25 2.688-1.063 2.688z"></path>
</svg>
