<?xml version="1.0" encoding="utf-8"?>
<!DOCTYPE svg PUBLIC "-//W3C//DTD SVG 1.1//EN" "http://www.w3.org/Graphics/SVG/1.1/DTD/svg11.dtd">
<svg version="1.1" xmlns="http://www.w3.org/2000/svg" xmlns:xlink="http://www.w3.org/1999/xlink" width="32" height="32" viewBox="0 0 32 32">
<path d="M16 32c-4.25 0-8.313-1.688-11.313-4.688s-4.688-7.063-4.688-11.313c0-4.25 1.688-8.313 4.688-11.313s7.063-4.688 11.313-4.688c4.25 0 8.313 1.688 11.313 4.688s4.688 7.063 4.688 11.313c0 4.25-1.688 8.313-4.688 11.313s-7.063 4.688-11.313 4.688zM16 1c-4 0-7.75 1.563-10.625 4.375-2.813 2.875-4.375 6.625-4.375 10.625s1.563 7.75 4.375 10.625c2.875 2.813 6.625 4.375 10.625 4.375s7.75-1.563 10.625-4.375c2.813-2.875 4.375-6.625 4.375-10.625s-1.563-7.75-4.375-10.625c-2.875-2.813-6.625-4.375-10.625-4.375zM20.5 25h-7.5v-13.5c0-2.5 1.875-4 5-4 2.813 0 3.438 1.75 3.5 1.813l-0.938 0.375c-0.063-0.063-0.5-1.188-2.563-1.188-1.5 0-4 0.375-4 3v12.5h6.5zM10.5 24h3v1h-3zM10.5 15.5h7v1h-7z"></path>
</svg>
