<?xml version="1.0" encoding="utf-8"?>
<!DOCTYPE svg PUBLIC "-//W3C//DTD SVG 1.1//EN" "http://www.w3.org/Graphics/SVG/1.1/DTD/svg11.dtd">
<svg version="1.1" xmlns="http://www.w3.org/2000/svg" xmlns:xlink="http://www.w3.org/1999/xlink" width="32" height="32" viewBox="0 0 32 32">
<path d="M10 32c-1.938 0-3.5-1.563-3.5-3.5s1.563-3.5 3.5-3.5c1.938 0 3.5 1.563 3.5 3.5s-1.563 3.5-3.5 3.5zM10 26c-1.375 0-2.5 1.125-2.5 2.5s1.125 2.5 2.5 2.5c1.375 0 2.5-1.125 2.5-2.5s-1.125-2.5-2.5-2.5zM22 32c-1.938 0-3.5-1.563-3.5-3.5s1.563-3.5 3.5-3.5c1.938 0 3.5 1.563 3.5 3.5s-1.563 3.5-3.5 3.5zM22 26c-1.375 0-2.5 1.125-2.5 2.5s1.125 2.5 2.5 2.5c1.375 0 2.5-1.125 2.5-2.5s-1.125-2.5-2.5-2.5zM13 28h6v1h-6zM6.5 28.563l-1.938-27.063h-4.563v-1h5.438l2.063 27.938zM6.563 22l-0.125-1 21.188-1.5 3.25-14h-25.375v-1h26.625l-3.75 16z"></path>
</svg>
