<?xml version="1.0" encoding="utf-8"?>
<!DOCTYPE svg PUBLIC "-//W3C//DTD SVG 1.1//EN" "http://www.w3.org/Graphics/SVG/1.1/DTD/svg11.dtd">
<svg version="1.1" xmlns="http://www.w3.org/2000/svg" xmlns:xlink="http://www.w3.org/1999/xlink" width="32" height="32" viewBox="0 0 32 32">
<path d="M31 28h-31v-21h31v6h-1v-5h-29v19h29v-5h1zM27.5 7.5h-1v-2.5h-23.5v-1h24.5zM1 7h-1c0-1.625 1.375-3 3-3v1c-1.125 0-2 0.875-2 2zM32 22.5h-10.438c-2.75 0-5-2.25-5-5s2.25-5 5-5h10.438zM21.563 13.5c-2.188 0-4 1.813-4 4s1.813 4 4 4h9.438v-8zM22 19.5c-1.125 0-2-0.875-2-2s0.875-2 2-2c1.125 0 2 0.875 2 2s-0.875 2-2 2zM22 16.5c-0.563 0-1 0.438-1 1s0.438 1 1 1c0.563 0 1-0.438 1-1s-0.438-1-1-1z"></path>
</svg>
