<?xml version="1.0" encoding="utf-8"?>
<!DOCTYPE svg PUBLIC "-//W3C//DTD SVG 1.1//EN" "http://www.w3.org/Graphics/SVG/1.1/DTD/svg11.dtd">
<svg version="1.1" xmlns="http://www.w3.org/2000/svg" xmlns:xlink="http://www.w3.org/1999/xlink" width="32" height="32" viewBox="0 0 32 32">
<path d="M19.5 32.188l-19.5-19.5v-12.688h12.688l19.5 19.5zM1 12.313l18.5 18.5 11.313-11.313-18.5-18.5h-11.313zM8.5 12c-1.938 0-3.5-1.563-3.5-3.5s1.563-3.5 3.5-3.5c1.938 0 3.5 1.563 3.5 3.5s-1.563 3.5-3.5 3.5zM8.5 6c-1.375 0-2.5 1.125-2.5 2.5s1.125 2.5 2.5 2.5c1.375 0 2.5-1.125 2.5-2.5s-1.125-2.5-2.5-2.5z"></path>
</svg>
