<?xml version="1.0" encoding="utf-8"?>
<!DOCTYPE svg PUBLIC "-//W3C//DTD SVG 1.1//EN" "http://www.w3.org/Graphics/SVG/1.1/DTD/svg11.dtd">
<svg version="1.1" xmlns="http://www.w3.org/2000/svg" xmlns:xlink="http://www.w3.org/1999/xlink" width="32" height="32" viewBox="0 0 32 32">
<path d="M14.5 6.5h1v19.5h-1zM16.5 6.5h1v19.5h-1zM16 23.5c-2.063 0-3.5-0.375-4.313-1.188-0.688-0.75-0.688-1.5-0.688-1.813h1c0 0.25 0 0.688 0.438 1.063 0.375 0.438 1.375 0.938 3.563 0.938 1.875 0 3.188-0.375 3.875-1.063s0.625-1.625 0.625-2.188c0-0.125 0-0.188 0-0.25 0 0-0.125-3-4.5-3-4.188 0-4.5-3.563-4.5-3.938 0-0.25-0.125-1.625 0.813-2.688 0.75-0.938 2-1.375 3.688-1.375 4.938 0 5 3.438 5 3.5h-1c0-0.125-0.125-2.5-4-2.5-1.375 0-2.375 0.313-2.938 1-0.688 0.813-0.563 1.938-0.563 1.938v0.063c0 0.125 0.063 3 3.5 3 5.375 0 5.5 3.938 5.5 4s0 0.125 0 0.188c0 0.688 0.063 1.938-0.875 2.938-0.938 0.938-2.438 1.375-4.625 1.375zM16 32c-4.25 0-8.313-1.688-11.313-4.688s-4.688-7.063-4.688-11.313c0-4.25 1.688-8.313 4.688-11.313s7.063-4.688 11.313-4.688c4.25 0 8.313 1.688 11.313 4.688s4.688 7.063 4.688 11.313c0 4.25-1.688 8.313-4.688 11.313s-7.063 4.688-11.313 4.688zM16 1c-4 0-7.75 1.563-10.625 4.375-2.813 2.875-4.375 6.625-4.375 10.625s1.563 7.75 4.375 10.625c2.875 2.813 6.625 4.375 10.625 4.375s7.75-1.563 10.625-4.375c2.813-2.875 4.375-6.625 4.375-10.625s-1.563-7.75-4.375-10.625c-2.875-2.813-6.625-4.375-10.625-4.375z"></path>
</svg>
