<?xml version="1.0" encoding="utf-8"?>
<!DOCTYPE svg PUBLIC "-//W3C//DTD SVG 1.1//EN" "http://www.w3.org/Graphics/SVG/1.1/DTD/svg11.dtd">
<svg version="1.1" xmlns="http://www.w3.org/2000/svg" xmlns:xlink="http://www.w3.org/1999/xlink" width="32" height="32" viewBox="0 0 32 32">
<path d="M17.063 30.188l-17.063-17v-11.188h11.188l17 17.063zM1 12.75l16.063 16.063 9.75-9.75-16.063-16.063h-9.75zM21.375 29.875l-0.688-0.75 10.125-10.063-16.188-16.188 0.688-0.75 16.875 16.938zM7 12c-1.625 0-3-1.375-3-3s1.375-3 3-3c1.625 0 3 1.375 3 3s-1.375 3-3 3zM7 7c-1.125 0-2 0.875-2 2s0.875 2 2 2c1.125 0 2-0.875 2-2s-0.875-2-2-2z"></path>
</svg>
