<?xml version="1.0" encoding="utf-8"?>
<!DOCTYPE svg PUBLIC "-//W3C//DTD SVG 1.1//EN" "http://www.w3.org/Graphics/SVG/1.1/DTD/svg11.dtd">
<svg version="1.1" xmlns="http://www.w3.org/2000/svg" xmlns:xlink="http://www.w3.org/1999/xlink" width="32" height="32" viewBox="0 0 32 32">
<path d="M28.25 5.875c0-1.5-1.188-2.688-2.625-2.688-1.5 0-2.688 1.188-2.688 2.688 0 1.313 0.938 2.375 2.125 2.625v18.188h1.063v-18.188c1.25-0.25 2.125-1.313 2.125-2.625zM25.625 7.5c-0.938 0-1.625-0.75-1.625-1.625s0.688-1.625 1.625-1.625c0.875 0 1.563 0.75 1.563 1.625s-0.688 1.625-1.563 1.625zM6.938 23.5v-18.188h-1.063v18.188c-1.25 0.25-2.125 1.313-2.125 2.625 0 1.5 1.188 2.688 2.625 2.688 1.5 0 2.688-1.188 2.688-2.688 0-1.313-0.938-2.375-2.125-2.625zM6.375 27.75c-0.875 0-1.563-0.75-1.563-1.625s0.688-1.625 1.563-1.625c0.938 0 1.625 0.75 1.625 1.625s-0.688 1.625-1.625 1.625zM16.563 13.375v-8.063h-1.125v8.063c-1.188 0.25-2.125 1.313-2.125 2.625s0.938 2.375 2.125 2.625v8.063h1.125v-8.063c1.188-0.25 2.125-1.313 2.125-2.625s-0.938-2.375-2.125-2.625zM16 17.625c-0.875 0-1.625-0.75-1.625-1.625s0.75-1.625 1.625-1.625c0.875 0 1.625 0.75 1.625 1.625s-0.75 1.625-1.625 1.625z"></path>
</svg>
