<?xml version="1.0" encoding="utf-8"?>
<!DOCTYPE svg PUBLIC "-//W3C//DTD SVG 1.1//EN" "http://www.w3.org/Graphics/SVG/1.1/DTD/svg11.dtd">
<svg version="1.1" xmlns="http://www.w3.org/2000/svg" xmlns:xlink="http://www.w3.org/1999/xlink" width="32" height="32" viewBox="0 0 32 32">
<path d="M27.75 11.5c-0.438 1.563-2.063 2.375-2.063 2.375-3.813-9.563-8.688-12.25-8.688-12.25-0.25 3.063-3.938 5.438-3.938 5.438l-2.563-1.313c0.375 2.188-0.938 4.188-0.938 4.188-5.313 3.5-3.313 10.688-3.313 10.688l-2.25-1.063c1.688 12.25 12.063 10.75 12.063 10.75 14.75-0.063 11.688-18.813 11.688-18.813zM15.625 28.063c-8.813-0.063-7-11.313-7-11.313 0.25 0.938 1.25 1.375 1.25 1.375 2.25-5.75 5.25-7.313 5.25-7.313 0.125 1.813 2.313 3.25 2.313 3.25l1.563-0.813c-0.25 1.313 0.563 2.563 0.563 2.563 3.188 2.063 1.938 6.375 1.938 6.375l1.375-0.625c-1 7.375-7.25 6.5-7.25 6.5z"></path>
</svg>
