<?xml version="1.0" encoding="utf-8"?>
<!DOCTYPE svg PUBLIC "-//W3C//DTD SVG 1.1//EN" "http://www.w3.org/Graphics/SVG/1.1/DTD/svg11.dtd">
<svg version="1.1" xmlns="http://www.w3.org/2000/svg" xmlns:xlink="http://www.w3.org/1999/xlink" width="32" height="32" viewBox="0 0 32 32">
<path d="M30.563 4.75h-29.125c-0.188 0-0.375 0.063-0.5 0.125-0.125 0-0.25 0.063-0.25 0.125-0.438 0.25-0.688 0.688-0.688 1.188v19.625c0 0.813 0.625 1.438 1.438 1.438h29.125c0.813 0 1.438-0.625 1.438-1.438v-19.625c0-0.813-0.625-1.438-1.438-1.438zM9.875 17.188c-0.25-0.188-0.563-0.188-0.75 0.063l-8.188 8.125v-19.188c0-0.125 0.063-0.188 0.125-0.313 0.375 0.438 1.063 1.188 2.375 2.5l9.625 10.125c0.813 0.875 1.875 1.313 3 1.313s2.25-0.438 3-1.313l9.188-9.625c1.75-1.813 2.375-2.625 2.625-3 0.125 0.063 0.188 0.188 0.188 0.313v19.313l-8.25-8.188c-0.188-0.188-0.5-0.188-0.75 0-0.188 0.188-0.188 0.563 0.063 0.75l8.188 8.25h-28.813c0-0.063 0-0.063 0.063-0.063l8.25-8.313c0.25-0.188 0.25-0.5 0.063-0.75zM26.688 5.688c1.375 0 2.438 0.063 3.063 0.125-0.438 0.5-1.188 1.375-2.188 2.375l-9.188 9.688c-1.25 1.313-3.375 1.313-4.625 0l-9.625-10.188c-0.75-0.75-1.438-1.438-1.875-2 0.688 0 1.625 0 2.75 0zM9.25 11.125c1.438 0 2.563-1.125 2.563-2.563s-1.125-2.563-2.563-2.563c-1.438 0-2.563 1.125-2.563 2.563s1.125 2.563 2.563 2.563zM9.25 6.938c0.875 0 1.625 0.75 1.625 1.625s-0.75 1.625-1.625 1.625c-0.875 0-1.625-0.75-1.625-1.625s0.75-1.625 1.625-1.625zM12.688 7.813h4.688c0.25 0 0.438-0.188 0.438-0.438s-0.188-0.5-0.438-0.5h-4.688c-0.25 0-0.438 0.25-0.438 0.5s0.188 0.438 0.438 0.438zM13.5 8.688c0 0.25 0.25 0.5 0.5 0.5h5.313c0.25 0 0.5-0.25 0.5-0.5s-0.25-0.438-0.5-0.438h-5.313c-0.25 0-0.5 0.188-0.5 0.438zM17.813 9.75h-5.063c-0.25 0-0.438 0.188-0.438 0.438s0.188 0.438 0.438 0.438h5.063c0.25 0 0.438-0.188 0.438-0.438s-0.188-0.438-0.438-0.438z"></path>
</svg>
