<?xml version="1.0" encoding="utf-8"?>
<!DOCTYPE svg PUBLIC "-//W3C//DTD SVG 1.1//EN" "http://www.w3.org/Graphics/SVG/1.1/DTD/svg11.dtd">
<svg version="1.1" xmlns="http://www.w3.org/2000/svg" xmlns:xlink="http://www.w3.org/1999/xlink" width="32" height="32" viewBox="0 0 32 32">
<path d="M7.563 30.188c2.438-0.125 5.375 0 8.25 0 2.938 0 6-0.188 8.375 0 1 0.063 1.875 0.625 2.625 0.125 0.625-0.813 0.188-1.875 0.313-2.938 0.25-2 2.125-4.438-0.563-4.938-1.188 1.063-0.375 2.063-1.063 3.375-0.75 1.563-3.625 2.125-6.313 2.313-2.313 0.188-6.375 0.438-7.188-1.188-0.75-1.313-0.313-3.375-0.313-5.063 0-1.938-0.25-3.813 0.313-5.25 2.938 0.188 6.75-1 8.813 0.25 1.375 0.875 0.563 2.563 2.188 3.063 1.125-0.25 0.5-1.688 0.438-3.063 0-0.813 0-2.063 0-3.063 0.063-1.313 0.625-2.875-0.875-2.875-1.125 0.875-0.25 2.375-1.438 3.188-0.438 0.25-1.25 0.375-1.813 0.438-2.188 0.25-5.625 0.063-7.5-0.313-0.25-2.688-0.25-6.313 0-9 1-1 3.313-1.063 4.875-1.063 2.75 0 7 0.25 7.813 1.625 0.438 0.75 0.063 2.313 0.875 2.5 1.563 0.313 0.813-2.5 0.875-3.813 0.063-1 0.5-1.625 0.313-2.313-0.563-0.75-1.313-0.375-1.813-0.313-5 0.625-12.563 0.313-17.938 0.313-0.625 0-1.75-0.313-2.188 0.438-0.313 1.688 2 0.938 2.75 1.875 0.313 0.313 0.688 1.625 0.75 2.5 0.25 2.313 0 5.875 0 9.313 0 3.625 0.313 7.25 0 9.5-0.063 0.75-0.563 2-0.75 2.188-1 1-3.625-0.125-3.375 2 0.938 0.688 2.313 0.25 3.563 0.188z"></path>
</svg>
