<?xml version="1.0" encoding="utf-8"?>
<!DOCTYPE svg PUBLIC "-//W3C//DTD SVG 1.1//EN" "http://www.w3.org/Graphics/SVG/1.1/DTD/svg11.dtd">
<svg version="1.1" xmlns="http://www.w3.org/2000/svg" xmlns:xlink="http://www.w3.org/1999/xlink" width="32" height="32" viewBox="0 0 32 32">
<path d="M9.5 7.813h-4.625l5.813-5.875v4.75zM26.063 5.5c-0.5-0.875-3.125-1.875-4.438-1.875-1.375 0-3.5 0-3.5 0s-1.125-2-3.75-2c-2.625 0-2.438 1.125-2.438 2.125v4.063l-1.188 1.25h-5.5c0 0-1.563 1.063-1.563 3.25 0 2.25 0.688 9.938 5.313 10.688 5.438 0.813 6.375-1.688 6.375-2 0-1.313 0.063-3.25 0.063-3.25s1.563 3.063 4 3.063c2.438 0 3.813 1.375 3.813 2.813s0 2.625 0 2.625c0 0-0.063 1.688-1.5 1.688s-3.063 0-3.063 0c0 0-0.938-0.813-0.938-1.875s0.438-1.375 1-1.375c0.625 0 1.063 0.063 1.063 0.063v-2.25c0 0-4.563 0-4.563 3.5s2.375 4.375 4.313 4.375c1.875 0 3.125 0 3.125 0s5.625-0.688 5.625-11.875c0-11.125-1.75-12.188-2.25-13zM20.438 15.438c0 0 0.313-1.813 1.375-1.813s2.5 2.438 2.5 2.438c0 0-3.313-0.625-3.875-0.625z"></path>
</svg>
