<?xml version="1.0" encoding="utf-8"?>
<!DOCTYPE svg PUBLIC "-//W3C//DTD SVG 1.1//EN" "http://www.w3.org/Graphics/SVG/1.1/DTD/svg11.dtd">
<svg version="1.1" xmlns="http://www.w3.org/2000/svg" xmlns:xlink="http://www.w3.org/1999/xlink" width="32" height="32" viewBox="0 0 32 32">
<path d="M31.938 15.75c0 0 0-0.063 0-0.125 0 0 0 0 0 0 0-0.063 0-0.063-0.063-0.063-2.875-5.563-9.188-9.563-15.875-9.563-6.625 0-12.938 4-15.875 9.5 0 0.063 0 0.063 0 0.125 0 0 0 0 0 0-0.063 0.063-0.063 0.125-0.063 0.125 0 0.125 0 0.188 0 0.25s0 0.125 0 0.188c0 0.063 0 0.125 0.063 0.188 0 0 0 0 0 0 0 0.063 0 0.063 0 0.063 2.938 5.563 9.25 9.563 15.875 9.563 6.688 0 13-4 15.875-9.563 0.063 0 0.063 0 0.063-0.063 0 0 0 0 0 0 0-0.063 0-0.125 0-0.125 0.063-0.125 0.063-0.188 0.063-0.25s0-0.125-0.063-0.25zM16 24c-5.563 0-11.063-3.188-13.813-8 2.75-4.813 8.25-8 13.813-8 5.625 0 11.125 3.188 13.875 8-2.75 4.813-8.25 8-13.875 8zM16 12c0 0 0 0 0 0-2.188 0-4 1.813-4 4 0 0.25 0.25 0.5 0.5 0.5 0.313 0 0.5-0.25 0.5-0.5 0-1.625 1.375-3 3-3v0c0.313 0 0.5-0.25 0.5-0.5s-0.188-0.5-0.5-0.5zM16 9c-3.875 0-7 3.125-7 7s3.125 7 7 7c3.875 0 7-3.125 7-7s-3.125-7-7-7zM16 22c-3.313 0-6-2.688-6-6s2.688-6 6-6c3.313 0 6 2.688 6 6s-2.688 6-6 6z"></path>
</svg>
