<?xml version="1.0" encoding="utf-8"?>
<!DOCTYPE svg PUBLIC "-//W3C//DTD SVG 1.1//EN" "http://www.w3.org/Graphics/SVG/1.1/DTD/svg11.dtd">
<svg version="1.1" xmlns="http://www.w3.org/2000/svg" xmlns:xlink="http://www.w3.org/1999/xlink" width="32" height="32" viewBox="0 0 32 32">
<path d="M27.688 4.313c-0.875-0.875-2-1.25-3.125-1.25s-2.313 0.375-3.188 1.25l-3.813 3.875-2.188-2.188-0.75 0.75 2.563 2.5-11.563 11.563c-1.375 1.375-1.563 3.625-0.375 5.188l-2.25 2.188 0.75 0.75 2.25-2.188c0.688 0.5 1.563 0.75 2.375 0.75 1 0 2.063-0.375 2.813-1.125l11.563-11.563 2.375 2.438 0.75-0.75-2.063-2.125 3.813-3.813c1.75-1.688 1.75-4.5 0.063-6.25zM10.438 25.625c-0.563 0.563-1.313 0.875-2.063 0.875s-1.5-0.313-2-0.875c-1.125-1.063-1.125-2.875 0-4l11.563-11.625 4.063 4.063-11.563 11.563zM23.125 13.688l-4.813-4.75 3.813-3.875c0.688-0.625 1.5-1 2.438-1 0.875 0 1.75 0.375 2.375 1s1 1.5 1 2.375c0 0.938-0.375 1.813-1 2.438z"></path>
</svg>
