<?xml version="1.0" encoding="utf-8"?>
<!DOCTYPE svg PUBLIC "-//W3C//DTD SVG 1.1//EN" "http://www.w3.org/Graphics/SVG/1.1/DTD/svg11.dtd">
<svg version="1.1" xmlns="http://www.w3.org/2000/svg" xmlns:xlink="http://www.w3.org/1999/xlink" width="32" height="32" viewBox="0 0 32 32">
<path d="M25.438 8.75c-0.063-0.375-0.313-0.75-0.438-1.125-1.875-4.438-5.875-6-9.125-6-4.375 0-9.125 2.875-9.813 8.938v1.188c0 0.063 0.063 0.5 0.063 0.75 0.375 2.875 2.625 5.938 4.313 8.813 1.813 3.063 3.688 6.063 5.563 9.063 1.188-1.938 2.313-3.938 3.438-5.875 0.313-0.563 0.688-1.125 0.938-1.625 0.25-0.375 0.625-0.75 0.813-1.063 1.813-3.313 4.75-6.688 4.75-10v-1.375c0-0.313-0.438-1.563-0.5-1.688zM15.938 14.938c-1.25 0-2.688-0.625-3.375-2.375-0.063-0.313-0.063-0.875-0.063-0.938v-0.813c0-2.25 1.875-3.25 3.563-3.25 2.063 0 3.625 1.625 3.625 3.688s-1.688 3.688-3.75 3.688z"></path>
</svg>
