<?xml version="1.0" encoding="utf-8"?>
<!DOCTYPE svg PUBLIC "-//W3C//DTD SVG 1.1//EN" "http://www.w3.org/Graphics/SVG/1.1/DTD/svg11.dtd">
<svg version="1.1" xmlns="http://www.w3.org/2000/svg" xmlns:xlink="http://www.w3.org/1999/xlink" width="32" height="32" viewBox="0 0 32 32">
<path d="M12.188 7.188c0 0.688 0 3.938 0 3.938h-2.938v4.875h2.938v14.375h5.938v-14.375h4.063c0 0 0.375-2.313 0.5-4.875-0.5 0-4.5 0-4.5 0s0-2.813 0-3.313c0-0.5 0.625-1.188 1.313-1.188 0.625 0 1.938 0 3.25 0 0-0.625 0-2.938 0-5-1.688 0-3.625 0-4.438 0-6.25 0-6.125 4.813-6.125 5.563z"></path>
</svg>
