<?xml version="1.0" encoding="utf-8"?>
<!DOCTYPE svg PUBLIC "-//W3C//DTD SVG 1.1//EN" "http://www.w3.org/Graphics/SVG/1.1/DTD/svg11.dtd">
<svg version="1.1" xmlns="http://www.w3.org/2000/svg" xmlns:xlink="http://www.w3.org/1999/xlink" width="32" height="32" viewBox="0 0 32 32">
<path d="M25.25 20.5c0.063-0.375 0.125-0.813 0.125-1.25 0.063-5.438-2.938-7.563-6-9.313 0.875 4.688-2.063 7.625-5.688 6.625 5.313-8.688-2.375-8.688-0.063-14.938-3.625 2.563-7.25 9.75-7.25 15 0.063 1.375 0.188 2.688 0.438 3.875-2.625 1.063-4.25 2.5-4.25 4.188 0 3.125 6.063 5.688 13.438 5.688s13.438-2.563 13.438-5.688c0-1.625-1.625-3.125-4.188-4.188zM10.875 13.625c-1 4.563 1.688 7.938 4.25 7.938 2.938 0 4.625-2.688 5.5-6.25 1.563 1.188 2.313 2.813 2.438 4.5 0 0 0 0 0 0 0.125 1.875-0.688 3.813-2.313 5.188 0 0 0 0 0 0.063-0.375 0.25-0.75 0.5-1.188 0.75 0 0-0.063 0.063-0.125 0.063-0.125 0.063-0.313 0.188-0.5 0.25-0.063 0-0.125 0.063-0.125 0.063-0.5 0.188-0.938 0.313-1.438 0.438-0.125 0-0.188 0-0.25 0.063-0.188 0-0.375 0.063-0.563 0.063-0.125 0-0.188 0-0.25 0.063-0.313 0-0.563 0-0.875 0-0.188 0-0.375 0-0.563 0-0.063 0-0.125 0-0.188 0-0.188 0-0.313-0.063-0.5-0.063 0 0-0.063 0-0.063 0-0.25-0.063-0.438-0.125-0.625-0.125 0-0.063-0.063-0.063-0.063-0.063-0.188-0.063-0.375-0.125-0.563-0.188 0 0 0 0-0.063 0-2.375-0.938-4.125-3.313-4-6.563 0 0-0.063 0.063-0.063 0.063 0.063-1.813 0.688-3.938 2.125-6.25z"></path>
</svg>
