<?xml version="1.0" encoding="utf-8"?>
<!DOCTYPE svg PUBLIC "-//W3C//DTD SVG 1.1//EN" "http://www.w3.org/Graphics/SVG/1.1/DTD/svg11.dtd">
<svg version="1.1" xmlns="http://www.w3.org/2000/svg" xmlns:xlink="http://www.w3.org/1999/xlink" width="32" height="32" viewBox="0 0 32 32">
<path d="M22.5 17.625c3.563-3.563 3.563-9.25 0-12.813-1.75-1.75-4.063-2.688-6.375-2.688-2.375 0-4.688 0.875-6.438 2.688-3.563 3.563-3.563 9.25 0 12.813 1.625 1.688 3.688 2.563 5.875 2.625v4.313h-4.313v1.063h4.313v4.25h1.063v-4.25h4.25v-1.063h-4.25v-4.313c2.125-0.063 4.25-1 5.875-2.625zM10.438 5.563c1.438-1.563 3.5-2.375 5.625-2.375s4.188 0.875 5.688 2.375c3.125 3.125 3.125 8.188 0 11.375-1.5 1.438-3.563 2.25-5.688 2.25s-4.188-0.813-5.625-2.313c-3.188-3.125-3.188-8.25 0-11.313z"></path>
</svg>
