<?xml version="1.0" encoding="utf-8"?>
<!DOCTYPE svg PUBLIC "-//W3C//DTD SVG 1.1//EN" "http://www.w3.org/Graphics/SVG/1.1/DTD/svg11.dtd">
<svg version="1.1" xmlns="http://www.w3.org/2000/svg" xmlns:xlink="http://www.w3.org/1999/xlink" width="32" height="32" viewBox="0 0 32 32">
<path d="M0.125-0.75h0.438v0.688h-0.438zM0.75-0.75h0.438v0.688h-0.438zM1.375-0.75h0.438v0.688h-0.438zM28.563 4.25c-0.063 0-0.063-0.063-0.063-0.125-0.063 0-0.063-0.063-0.125-0.125 0 0-0.063 0-0.063-0.063v0c0 0 0 0 0 0l-3.5-3.375c-0.063-0.063-0.063-0.063-0.125-0.125-0.25-0.25-0.625-0.438-1-0.438h-19.063c-0.75 0-1.313 0.625-1.313 1.375v29.25c0 0.75 0.563 1.375 1.313 1.375h22.75c0.75 0 1.313-0.625 1.313-1.375v-25.75c0-0.188-0.063-0.438-0.125-0.625zM25.063 2l1.563 1.563h-1.125c-0.25 0-0.438-0.188-0.438-0.438zM27.813 30.625c0 0.25-0.188 0.5-0.438 0.5h-22.75c-0.25 0-0.438-0.25-0.438-0.5v-29.25c0-0.25 0.188-0.5 0.438-0.5h19.063c0.25 0 0.438 0.25 0.438 0.5v1.75c0 0.688 0.625 1.313 1.375 1.313h1.875c0.25 0 0.438 0.188 0.438 0.438v25.75zM6.625 24.813h10.063v-2.625h-7.438v-10.375h13.875v10.375h-1.25v2.625h3.688v-15.5h-18.938zM7.563 10.188h17.125v13.688h-1.938v-0.813h1.25v-12.125h-15.625v12.125h7.375v0.813h-8.188zM17.813 22l0.438 3.125 0.938-0.563 0.688 1.125 0.563-0.313-0.75-1.188 0.938-0.563z"></path>
</svg>
