<?xml version="1.0" encoding="utf-8"?>
<!DOCTYPE svg PUBLIC "-//W3C//DTD SVG 1.1//EN" "http://www.w3.org/Graphics/SVG/1.1/DTD/svg11.dtd">
<svg version="1.1" xmlns="http://www.w3.org/2000/svg" xmlns:xlink="http://www.w3.org/1999/xlink" width="32" height="32" viewBox="0 0 32 32">
<path d="M28.563 4.25c-0.063 0-0.063-0.063-0.063-0.125-0.063 0-0.063 0-0.063-0.063-0.063-0.063-0.063-0.063-0.125-0.125v0c0 0 0 0 0 0l-3.5-3.375c-0.063-0.063-0.063-0.063-0.125-0.125-0.25-0.25-0.625-0.438-1-0.438h-19.063c-0.75 0-1.313 0.625-1.313 1.375v29.25c0 0.75 0.563 1.375 1.313 1.375h22.75c0.75 0 1.313-0.625 1.313-1.375v-25.75c0-0.188-0.063-0.438-0.125-0.625zM25.063 2l1.563 1.563h-1.125c-0.25 0-0.438-0.188-0.438-0.438v-1.125zM27.813 30.625c0 0.25-0.188 0.5-0.438 0.5h-22.75c-0.25 0-0.438-0.25-0.438-0.5v-29.25c0-0.25 0.188-0.5 0.438-0.5h19.063c0.25 0 0.438 0.25 0.438 0.5v1.75c0 0.688 0.625 1.313 1.375 1.313h1.875c0.25 0 0.438 0.188 0.438 0.438v25.75zM12.625 3.25h-6.313v6.313h6.313zM11.75 8.625h-4.5v-4.5h4.5zM13.938 3.25h8.938v0.75h-8.938zM13.938 5.25h10.688v0.75h-10.688zM13.938 7.063h10.688v0.75h-10.688zM14.063 8.625h10.688v0.875h-10.688zM6.313 13.875h19.563v0.875h-19.563zM6.375 15.875h19.563v0.875h-19.563zM6.375 17.938h19.563v0.813h-19.563zM6.5 27.688h19.5v0.813h-19.5z"></path>
</svg>
