<?xml version="1.0" encoding="utf-8"?>
<!DOCTYPE svg PUBLIC "-//W3C//DTD SVG 1.1//EN" "http://www.w3.org/Graphics/SVG/1.1/DTD/svg11.dtd">
<svg version="1.1" xmlns="http://www.w3.org/2000/svg" xmlns:xlink="http://www.w3.org/1999/xlink" width="32" height="32" viewBox="0 0 32 32">
<path d="M3 5v22h26.25v-22zM7.188 25.938h-3.125v-4.188h3.125zM7.188 20.75h-3.125v-4.25h3.125zM7.188 15.5h-3.125v-4.25h3.125zM7.188 10.25h-3.125v-4.188h3.125zM24 12v13.938h-15.75v-19.875h15.75zM28.188 25.938h-3.188v-4.188h3.188zM28.188 20.75h-3.188v-4.25h3.188zM28.188 15.5h-3.188v-4.25h3.188zM28.188 10.25h-3.188v-4.188h3.188zM13.5 11.75v8.5l7.313-4.25zM14.563 13.563l4.188 2.438-4.188 2.438z"></path>
</svg>
