<?xml version="1.0" encoding="utf-8"?>
<!DOCTYPE svg PUBLIC "-//W3C//DTD SVG 1.1//EN" "http://www.w3.org/Graphics/SVG/1.1/DTD/svg11.dtd">
<svg version="1.1" xmlns="http://www.w3.org/2000/svg" xmlns:xlink="http://www.w3.org/1999/xlink" width="32" height="32" viewBox="0 0 32 32">
<path d="M22 9c-0.063 2.688-2.063 4.938-2.063 4.938 0-5-3.938-8.938-3.938-8.938s-0.063 2.938-2.063 5.938c-2-6.938-7.938-10.938-7.938-10.938 3 10.938-1 14.938-1 22.875 0 4.688 3.938 9.125 10 9.125 8.938 0 10.688-3.313 11.625-7 1.25-5.125-0.625-11-4.625-16zM24.688 24.5c-0.625 2.563-1.375 5.5-9.688 5.5-5 0-8-3.625-8-7.125 0-2.688 0.5-4.875 1-7.188 0.688-2.938 1.313-5.938 1.063-9.938 3.063 4.25 4.188 9.938 4.188 9.938s2.875-4.063 3.625-5.938c0.563 1.188 1.125 5.25 1.125 9.25 0 0 2.625-2.188 4.625-5.5 2.125 3.813 2.875 7.688 2.063 11zM22.438 16.813l-0.875 0.938c-1.063 1.25-2 2.438-4.688 3.75-0.375-1.125-0.75-2.375-0.75-4.313v-1.688l-1.5 2.375c-0.5 0.813-0.938 1.438-1.563 2.375-0.938-2.188-1.625-3.75-2.125-5.25l-0.5-1.313-0.5 1.5c-0.688 1.938-1.313 3.75-1.313 8.438 0 0.25 0.25 0.5 0.5 0.5s0.5-0.25 0.5-0.5c0-3.625 0.375-5.375 0.813-6.938 0.563 1.313 1.188 2.813 2.063 4.75l0.375 0.75 0.5-0.688c0.813-1.125 1.313-1.875 1.875-2.688 0.125 1.438 0.5 2.5 0.875 3.563l0.188 0.5 0.5-0.188c2.688-1.313 3.938-2.5 4.938-3.625 0.188 1.875-0.063 3.938-0.625 5.375-0.125 0.25 0 0.563 0.25 0.625 0.063 0.063 0.125 0.063 0.188 0.063 0.188 0 0.375-0.125 0.438-0.313 0.813-1.938 1.063-4.688 0.625-7z"></path>
</svg>
