<?xml version="1.0" encoding="utf-8"?>
<!DOCTYPE svg PUBLIC "-//W3C//DTD SVG 1.1//EN" "http://www.w3.org/Graphics/SVG/1.1/DTD/svg11.dtd">
<svg version="1.1" xmlns="http://www.w3.org/2000/svg" xmlns:xlink="http://www.w3.org/1999/xlink" width="32" height="32" viewBox="0 0 32 32">
<path d="M25.625 4.625l-0.75 0.25c0 0-1.938 0.625-4.938 0.625-1.563 0-3.063-0.313-4.5-0.625s-2.875-0.625-4.5-0.625c-3.125 0-4.188 0.688-4.313 0.75l-0.25 0.188v22.563h1.125v-10.188c0.375-0.188 1.438-0.5 3.438-0.5 1.5 0 2.875 0.313 4.313 0.625 1.5 0.313 3 0.625 4.688 0.625 3.188 0 5.188-0.688 5.313-0.75l0.375-0.125v-12.813zM24.5 16.688c-0.688 0.188-2.313 0.563-4.563 0.563-1.563 0-3.063-0.313-4.5-0.625s-2.875-0.625-4.5-0.625c-1.688 0-2.813 0.188-3.438 0.375v-10.563c0.375-0.188 1.438-0.5 3.438-0.5 1.5 0 2.875 0.313 4.313 0.625 1.5 0.313 3 0.625 4.688 0.625 2.125 0 3.75-0.313 4.563-0.5z"></path>
</svg>
