<?xml version="1.0" encoding="utf-8"?>
<!DOCTYPE svg PUBLIC "-//W3C//DTD SVG 1.1//EN" "http://www.w3.org/Graphics/SVG/1.1/DTD/svg11.dtd">
<svg version="1.1" xmlns="http://www.w3.org/2000/svg" xmlns:xlink="http://www.w3.org/1999/xlink" width="32" height="32" viewBox="0 0 32 32">
<path d="M26.688 7.75h-13.875v-0.563c0-1.188-0.938-2.125-2.125-2.125h-5.375c-1.125 0-2.125 0.938-2.125 2.125v17.625c0 1.188 1 2.125 2.125 2.125h21.375c1.125 0 2.125-0.938 2.125-2.125v-14.938c0-1.188-1-2.125-2.125-2.125zM4.25 7.188c0-0.563 0.5-1.063 1.063-1.063h5.375c0.563 0 1.063 0.5 1.063 1.063v1.625h14.938c0.563 0 1.063 0.438 1.063 1.063v1.063h-23.5v-3.75zM26.688 25.875h-21.375c-0.563 0-1.063-0.5-1.063-1.063v-12.813h23.5v12.813c0 0.563-0.5 1.063-1.063 1.063z"></path>
</svg>
