<?xml version="1.0" encoding="utf-8"?>
<!DOCTYPE svg PUBLIC "-//W3C//DTD SVG 1.1//EN" "http://www.w3.org/Graphics/SVG/1.1/DTD/svg11.dtd">
<svg version="1.1" xmlns="http://www.w3.org/2000/svg" xmlns:xlink="http://www.w3.org/1999/xlink" width="32" height="32" viewBox="0 0 32 32">
<path d="M19.938 10.125c-0.188 0.188-0.625 0.125-1 0.125-0.125 0.313-0.125 0.75-0.313 1 0.625 0.5 1.938 0.438 2.5 1 1.188-0.438 0.25-1.375 1-2.125 1.188-0.188 1.438 0.563 1.75 1.25-0.25 0.25-0.938 0.125-1.438 0.125-0.313 0.25-0.375 0.625-0.625 0.875 0.313 0.625 1 0.75 1.188 1.438 1.5-0.375 3.063-0.75 4.625-1 0.438-0.438 0.375-1.375 1.063-1.563 1.125 0.188 1.5 1.188 1.563 2.438-0.563 1.063-2.125 0.625-2.625-0.313-1.5 0.25-2.938 0.563-4.313 0.875-0.125 0.313 0.063 1.313-0.188 1.875 1 0.625 1.375-0.5 2.188-0.438 0.5 0.5 0.5 2.438-0.563 2.25-0.625 0-0.688-0.625-0.75-1.25-0.438 0.063-0.5-0.188-0.875-0.125-0.625 0.375-1 1.063-1.75 1.375 0.125 1.313 1.5 0.438 2.188 1-0.063 1.063-0.813 1.438-1.875 1.438-0.063-0.813 0.25-1.5-0.75-2-0.938 0.188-1.375 0.813-2.313 1 0 0.438 0.188 0.688 0.313 1 0.25 0.188 1.188-0.188 1.438 0.313 0 1.125-1.5 1.875-2.313 1.25-0.063-0.625 0.375-0.75 0.563-1.125-0.25-0.313-0.438-0.75-0.563-1.125-0.938 0.313-1.75 0.813-2.938 0.875 0 0.313-0.25 0.375-0.125 0.813-0.063 0.563 0.688 0.313 0.75 0.75 0.25 1.313-1.875 1.5-2.188 0.563-0.063-0.875 1.063-0.688 0.688-1.875-0.688-0.25-1.938-0.063-2.625-0.438-0.375 0.188-0.375 0.688-0.688 0.875 0.063 0.438 0.5 0.438 0.438 1-0.938 0.375-2.375 0.063-2.188-1.125 0.563-0.625 1.5-0.125 1.875-1-0.563-0.688-1.188-1.313-1.438-2.313-2.188 0.5-3.938 1.375-6 2-0.188 0.5-0.188 1.125-0.563 1.438-0.625 0.125-0.625 0.063-1.313 0-0.563-0.875-0.25-2.75 0.875-2.875 0.625-0.125 0.438 0.563 0.875 0.563 2.063-0.438 3.875-1.188 6-1.688-0.5-2.563 3.25-4.375-0.875-4-0.438-1.25 0.375-2.25 1.125-2.125 1.313 0.125 0.313 1.75 1.313 2.25 0.938-0.5 1.563-1.313 2.75-1.563 0.125-0.438-0.063-0.688-0.125-1s-0.875 0-1-0.313c0-0.313 0-0.625 0-1 0.438-0.438 1.688-0.313 2 0.188 0.125 0.625-0.25 0.75-0.688 0.813 0 0.5 0.313 0.688 0.438 1 0.875-0.375 2.313-0.25 3.625-0.25 0.188-0.188 0.25-0.5 0.25-0.875 0.125-0.5-0.75-0.063-0.563-0.688 0.188-1.563 2.188-0.688 2.188 0.438zM21.125 16.563c0.625-0.438 0.375-1.75 0.438-2.75-1.813-1.438-3 2.813-0.438 2.75zM14.688 18.125c1.375 0.188 3.25-1.313 3.063-2.563-0.125-1.313-2.625-2.438-4.063-1.75-1.875 0.875-0.438 4.125 1 4.313z"></path>
</svg>
