<?xml version="1.0" encoding="utf-8"?>
<!DOCTYPE svg PUBLIC "-//W3C//DTD SVG 1.1//EN" "http://www.w3.org/Graphics/SVG/1.1/DTD/svg11.dtd">
<svg version="1.1" xmlns="http://www.w3.org/2000/svg" xmlns:xlink="http://www.w3.org/1999/xlink" width="32" height="32" viewBox="0 0 32 32">
<path d="M29.5 21h-2.688c-0.063-0.25-0.125-0.5-0.188-0.688l4.813-2.438c0.5-0.25 0.688-0.813 0.438-1.313s-0.813-0.688-1.313-0.438l-4.563 2.25c-1.75-3.75-5.563-6.375-10-6.375-5.375 0-9.875 3.875-10.813 9h-2.688c-1.375 0-2.5 1.125-2.5 2.5 0 0.5 0.188 0.938 0.5 1.313l3.5 3.938v0.75c0 1.375 1.125 2.5 2.5 2.5h19c1.375 0 2.5-1.125 2.5-2.5v-0.75l3.5-3.938c0.313-0.375 0.5-0.813 0.5-1.313 0-1.375-1.125-2.5-2.5-2.5zM25.813 21h-0.563l0.5-0.25c0 0.063 0 0.188 0.063 0.25zM16 13c4 0 7.5 2.375 9.063 5.813l-0.875 0.5c-1.438-3.125-4.563-5.313-8.188-5.313-4.313 0-7.875 3-8.75 7h-1.063c0.938-4.563 5-8 9.813-8zM20.563 21c-0.75-1.75-2.5-3-4.563-3s-3.813 1.25-4.563 3h-1.063c0.813-2.313 3-4 5.625-4 2.438 0 4.563 1.5 5.5 3.625l-0.75 0.375zM16 20c-0.875 0-1.688 0.375-2.25 1h-1.188c0.688-1.188 1.938-2 3.438-2s2.75 0.813 3.438 2h-1.25c-0.5-0.625-1.313-1-2.188-1zM16 16c-3.188 0-5.813 2.125-6.688 5h-1.063c0.875-3.438 4-6 7.75-6 3.25 0 6.063 1.938 7.313 4.75l-0.938 0.438c-1.063-2.438-3.5-4.188-6.375-4.188zM26 28v1.5c0 0.25-0.25 0.5-0.5 0.5h-19c-0.25 0-0.5-0.25-0.5-0.5v-1.5l-4-4.5c0-0.25 0.25-0.5 0.5-0.5h27c0.25 0 0.5 0.25 0.5 0.5zM8 11.688c0 0 0 0.063 0 0.063s0 0 0 0c0.063 0.125 0.25 0.25 0.438 0.25 0.25 0 0.5-0.25 0.5-0.5 0-0.063 0-0.063 0-0.125 0 0 0 0 0 0-0.375-0.875-0.063-1.875 0.375-2.938 0.5-1.125 1-2.375 0.438-3.625-0.063-0.188-0.25-0.313-0.438-0.313-0.313 0-0.5 0.25-0.5 0.5 0 0.063 0 0.125 0 0.188 0 0 0 0 0 0s0.063 0 0.063 0c0 0 0 0 0 0 0.375 0.938 0 1.813-0.438 2.875-0.5 1.125-1 2.375-0.5 3.625 0 0 0.063 0 0.063 0zM20.125 11.563c0.063 0 0.063 0 0.063 0v0c0.063 0.188 0.25 0.313 0.438 0.313 0.25 0 0.5-0.25 0.5-0.5 0-0.063 0-0.125-0.063-0.125 0.063 0 0.063-0.063 0-0.063-0.375-0.875 0-1.813 0.438-2.875 0.5-1.125 1-2.375 0.438-3.625-0.063-0.188-0.25-0.313-0.438-0.313-0.313 0-0.5 0.188-0.5 0.5 0 0 0 0.063 0 0.125 0 0 0 0 0 0s0 0 0 0c0 0.063 0 0.063 0 0.063 0.438 0.875 0.063 1.813-0.375 2.875-0.5 1.125-1 2.313-0.5 3.563 0 0.063 0 0.063 0 0.063zM15 7.188c0 0 0 0.063 0 0.063s0 0 0 0c0.125 0.125 0.25 0.25 0.5 0.25s0.5-0.25 0.5-0.5c0-0.063-0.063-0.063-0.063-0.125 0 0 0 0 0 0-0.375-0.875 0-1.875 0.438-2.938 0.5-1.125 1-2.375 0.438-3.625-0.063-0.188-0.25-0.313-0.5-0.313s-0.438 0.25-0.438 0.5c0 0.063 0 0.125 0 0.188 0 0 0 0 0 0s0 0 0 0 0 0 0 0c0.438 0.938 0 1.813-0.438 2.875-0.438 1.125-0.938 2.375-0.438 3.625 0 0 0 0 0 0z"></path>
</svg>
