<?xml version="1.0" encoding="utf-8"?>
<!DOCTYPE svg PUBLIC "-//W3C//DTD SVG 1.1//EN" "http://www.w3.org/Graphics/SVG/1.1/DTD/svg11.dtd">
<svg version="1.1" xmlns="http://www.w3.org/2000/svg" xmlns:xlink="http://www.w3.org/1999/xlink" width="32" height="32" viewBox="0 0 32 32">
<path d="M13.5 3.813c1.875-1.438 4.375-2.188 7-2.188 1.938 0 3.813 0.375 5.438 1.188v0 0c0.375 0.188 0.625 0.625 0.625 1.063 0 0.125 0 0.25 0 0.313-0.125 0.375-0.375 0.625-0.688 0.75-0.125 0.063-0.313 0.063-0.438 0.063-0.188 0-0.375 0-0.5-0.125-1.063-0.5-2.188-0.813-3.375-0.938-0.938-0.188-1.938-0.25-2.938-0.25-2.313 0-4.563 0.5-6.5 1.438 0.438-0.438 0.875-0.875 1.375-1.313zM28 22.375c0-0.375-0.188-0.688-0.5-0.938-0.188-0.125-0.438-0.188-0.625-0.188-0.375 0-0.75 0.125-0.938 0.438-0.625 0.875-1.25 1.5-1.938 1.938-0.813 0.563-2.125 1.375-2.125 1.438v0c-0.313 0.188-0.5 0.563-0.5 0.938v1.5l-3.563-1.5c-0.125-0.063-0.313-0.063-0.438-0.063h-0.063c-0.25 0-0.563 0-0.813 0-3.938 0-7.563-1.625-9.375-4.25v0c-0.063 0-0.125-0.063-0.188-0.125v0 0c-0.75-1.125-1.125-2.313-1.125-3.5 0-2.188 1.25-4.188 3.125-5.563 1.938-1.438 4.625-2.313 7.5-2.313 2.125 0 4.188 0.5 5.938 1.375h0.063c0.875 0.438 1.563 1.063 2.063 1.688s0.75 1.375 0.75 2.125c0 1.25-0.688 2.375-1.875 3.25-1.375 1-3.188 1.5-5.125 1.5-0.5 0-1 0-1.438-0.063h-0.063c-1.313-0.25-2.625-0.688-3.75-1.313v0 0c-2.188-1.313-3.438-3.188-3.438-5.25 0-0.125 0-0.313 0-0.438-0.875 0.625-1.563 1.375-2.063 2.188 0.5 2.188 2.063 4.188 4.375 5.5l0.063 0.063c1.375 0.75 2.875 1.25 4.5 1.5h0.063c0.563 0.063 1.125 0.125 1.75 0.125 2.438 0 4.75-0.688 6.438-1.938 1.875-1.375 2.875-3.188 2.875-5.125 0-2.375-1.5-4.563-4.125-5.875l-0.063-0.063c-2.063-1-4.438-1.563-6.938-1.563-3.375 0-6.625 1.063-9 2.875-2.563 1.938-3.938 4.563-3.938 7.313 0 1.75 0.563 3.438 1.625 4.938 0.063 0.063 0.125 0.125 0.188 0.188v0 0c2.313 3.125 6.563 5.063 11.188 5.063 0.188 0 0.438 0 0.625 0h0.063l4.875 2.063c0.125 0.063 0.313 0.063 0.438 0.063 0.25 0 0.438-0.063 0.625-0.188 0.375-0.188 0.563-0.563 0.563-0.938v-2.625l0.063-0.063c0.438-0.313 1.063-0.688 1.563-1 0.938-0.625 1.75-1.5 2.5-2.5 0.125-0.25 0.188-0.438 0.188-0.688zM18.625 17.375v0c0.563 0.063 1.063 0.125 1.563 0.125 1.375 0 2.688-0.25 3.875-0.75 0.25-0.438 0.438-0.938 0.438-1.375s-0.125-0.813-0.313-1.25c-1.125 0.688-2.5 1.063-4 1.063-0.375 0-0.813-0.063-1.188-0.125-2.75-0.375-4.875-1.813-5.813-3.625-0.75 0.188-1.438 0.438-2.125 0.75 1.125 2.625 4 4.625 7.563 5.188zM28.5 11.188c0-2.063-1.375-4.063-3.625-5.188l-0.125-0.063c-1.813-0.875-3.938-1.375-6.125-1.375-3 0-5.813 0.875-7.938 2.5-0.688 0.563-1.313 1.188-1.813 1.813 2.188-1.125 4.75-1.75 7.438-1.813 0.75-0.125 1.5-0.25 2.313-0.25 1.875 0 3.625 0.438 5.188 1.188l0.063 0.063c1 0.563 1.75 1.313 2.063 2.125 1 0.875 1.688 1.875 2.125 3 0.25-0.625 0.438-1.313 0.438-2z"></path>
</svg>
