<?xml version="1.0" encoding="utf-8"?>
<!DOCTYPE svg PUBLIC "-//W3C//DTD SVG 1.1//EN" "http://www.w3.org/Graphics/SVG/1.1/DTD/svg11.dtd">
<svg version="1.1" xmlns="http://www.w3.org/2000/svg" xmlns:xlink="http://www.w3.org/1999/xlink" width="32" height="32" viewBox="0 0 32 32">
<path d="M30.375 3.688l-10.75 11-3.875-3.75-1.625 1.563c-0.875-2.438-3.25-4.25-6.063-4.25-3.563 0-6.438 2.813-6.438 6.25s2.813 6.188 6.313 6.25l7.813 7.563 8.938-8.688-0.875-0.875 6.563-5.125zM29.438 13.063l-14.438 11.375-5.438-4.813c-0.5 0.125-1 0.25-1.563 0.25-3.063 0-5.5-2.438-5.5-5.375s2.438-5.313 5.5-5.313c3 0 5.5 2.375 5.5 5.313 0 0.813-0.188 1.563-0.5 2.25l2.188 3.563 14.25-14.625z"></path>
</svg>
