<?xml version="1.0" encoding="utf-8"?>
<!DOCTYPE svg PUBLIC "-//W3C//DTD SVG 1.1//EN" "http://www.w3.org/Graphics/SVG/1.1/DTD/svg11.dtd">
<svg version="1.1" xmlns="http://www.w3.org/2000/svg" xmlns:xlink="http://www.w3.org/1999/xlink" width="32" height="32" viewBox="0 0 32 32">
<path d="M13.375 6.563c2 1.688 2.75 4.688 2 7.188-0.875 2.25-4.625 2.25-5.438-0.063s-0.438-5.25 1.25-7.125c0.625-0.563 1.625-0.688 2.188 0zM18.563 4.375c-2 0.938-2.125 3.688-2.063 5.625 0.188 1.813 0.688 4.563 2.938 4.625 2.625-1.063 2.563-4.438 2.188-6.75-0.188-1.563-1.125-3.813-3.063-3.5zM28.688 7.688c-1.125-0.25-2.75-0.313-3.25 0.938-1.688 3.375-1.563 7.438-3.875 10.5-1.938 2.313-4.938 3.875-8 3.375-1.625-0.25-3.125-1.188-4-2.563-1.688-2.875-1.75-6.563-3.813-9.188-4.938-2.125-4.188 4-4 5.063 0 0 0 0.063 0 0.125 0 0 0 0 0 0 0.25 1.5 0.313 3 1.063 4.375 2.813 5.813 10.063 8.563 16.125 6.875 6.625-1.875 11.25-8.688 11.438-15.563 0-1.438-0.25-3.25-1.688-3.938z"></path>
</svg>
