<?xml version="1.0" encoding="utf-8"?>
<!DOCTYPE svg PUBLIC "-//W3C//DTD SVG 1.1//EN" "http://www.w3.org/Graphics/SVG/1.1/DTD/svg11.dtd">
<svg version="1.1" xmlns="http://www.w3.org/2000/svg" xmlns:xlink="http://www.w3.org/1999/xlink" width="32" height="32" viewBox="0 0 32 32">
<path d="M22.563 9.625c0.875-0.813 1.438-1.938 1.438-3.25 0-2.313-1.938-4.25-4.25-4.25-1.625 0-3 0.875-3.75 2.25-0.75-1.375-2.125-2.25-3.75-2.25-2.313 0-4.25 1.938-4.25 4.25 0 1.313 0.563 2.438 1.438 3.25h-6.25v20.25h25.625v-20.25zM27.75 10.688v8.5h-11.188v-8.5h0.625l2.625 4.5 0.938-0.5-2.313-4zM16 8.563l0.625 1.063h-1.25l0.625-1.063zM19.75 3.188c1.75 0 3.188 1.438 3.188 3.188 0 1.813-1.438 3.25-3.188 3.25-1.813 0-3.188-1.438-3.188-3.25 0-1.75 1.375-3.188 3.188-3.188zM9.063 6.375c0-1.75 1.438-3.188 3.188-3.188 1.813 0 3.188 1.438 3.188 3.188 0 1.813-1.375 3.25-3.188 3.25-1.75 0-3.188-1.438-3.188-3.25zM13.563 10.688l-2.313 4 0.938 0.5 2.625-4.5h0.625v8.5h-11.188v-8.5h9.313zM4.25 20.25h11.188v8.563h-11.188zM16.563 28.813v-8.563h11.188v8.563z"></path>
</svg>
