<?xml version="1.0" encoding="utf-8"?>
<!DOCTYPE svg PUBLIC "-//W3C//DTD SVG 1.1//EN" "http://www.w3.org/Graphics/SVG/1.1/DTD/svg11.dtd">
<svg version="1.1" xmlns="http://www.w3.org/2000/svg" xmlns:xlink="http://www.w3.org/1999/xlink" width="32" height="32" viewBox="0 0 32 32">
<path d="M22.625 4.813c0.375 0.875 0.625 2.25 0.25 3.313 1.5 1.25 2 4.313 1.313 6.813 2.063 0.188 4.563-0.063 6.188 0.563-1.5-0.188-3.563-0.563-5.5-0.438-0.375 0.063-0.938 0-0.938 0.5 2.313 0.188 4.563 0.375 6.375 1-1.813-0.313-4.063-0.813-6.375-0.875-0.938 1.875-2.813 2.813-5.438 3 0.25 0.625 0.813 0.875 0.938 1.813 0.188 1.5-0.313 3.688 0.188 4.625 0.25 0.5 0.625 0.5 0.875 0.938-0.625 0.75-2.188-0.125-2.375-0.938-0.313-1.375 0.438-3.5-0.375-4.375 0.063 1.438-0.375 3.563 0.063 4.938 0.125 0.5 0.625 0.688 0.5 1.188-3 0.313-1.75-3.875-2.25-6.375-0.438 0.063-0.25 0.688-0.25 1 0 2.375 0.5 5.688-2.125 5.375-0.063-0.5 0.375-0.688 0.5-1.125 0.5-1.375-0.063-3.375 0.188-5-1 0.688 0.063 3.313-0.563 4.688-0.313 0.75-1.5 1.063-2.313 0.75 0.063-0.563 0.688-0.5 0.938-1.063 0.375-0.688 0-1.813 0.125-2.875-1.813 0.375-3.25-0.063-3.938-1.188-0.313-0.563-0.375-1.125-0.813-1.625-0.313-0.438-0.938-0.5-1.125-1.125 2.25-0.563 2.375 2.313 4.438 2.438 0.625 0 0.938-0.188 1.5-0.375 0.188-0.688 0.5-1.25 1-1.625-2.5-0.375-4.625-1.125-5.563-3.063-2.313 0.125-4.438 0.438-6.375 0.938 1.75-0.688 3.938-0.875 6.313-1-0.188-0.813-1.375-0.563-2.125-0.563-1.375 0.063-3.188 0.25-4.25 0.438 1.563-0.563 3.875-0.5 6-0.5-0.625-2.063-0.438-5.375 1.063-6.625-0.438-1.063-0.313-2.75 0.25-3.563 1.625 0.063 2.625 0.75 3.625 1.438 1.25-0.313 2.625-0.5 4.313-0.438 0.75 0.063 1.5 0.375 2.063 0.313s1.125-0.625 1.625-0.875c0.688-0.313 1.313-0.438 2.063-0.438z"></path>
</svg>
