<?xml version="1.0" encoding="utf-8"?>
<!DOCTYPE svg PUBLIC "-//W3C//DTD SVG 1.1//EN" "http://www.w3.org/Graphics/SVG/1.1/DTD/svg11.dtd">
<svg version="1.1" xmlns="http://www.w3.org/2000/svg" xmlns:xlink="http://www.w3.org/1999/xlink" width="32" height="32" viewBox="0 0 32 32">
<path d="M23.813 1.688c-2.563 1.625-5.188 0.25-7.125 0-8.438-1.125-11.125 8.75-5 12.688-1.563 0.813-1.438 5 0.25 5.625-4 0.438-4.75 6.063-2.625 8.375 2.625 2.813 10.688 2.625 13 0 1.625-1.813 1.875-5.563 0.438-7.313-1.313-1.563-7.875-1.813-7.813-4.313 0.125-1.75 2.5-1.438 3.938-2.125 2.688-1.313 4.313-5.188 3.25-8.188 0.563-0.125 1.125-0.313 1.688-0.438zM13.438 10.75c-3.125-6.938 7.313-6.438 4.125 0-1.063 0.75-3.063 0.813-4.125 0zM19.313 24.313c0.25 3.063-6 3.188-6.75 1.063-0.563-1.813 0.188-2.375 2-2.813 2-0.5 4.563-0.375 4.75 1.75z"></path>
</svg>
