<?xml version="1.0" encoding="utf-8"?>
<!DOCTYPE svg PUBLIC "-//W3C//DTD SVG 1.1//EN" "http://www.w3.org/Graphics/SVG/1.1/DTD/svg11.dtd">
<svg version="1.1" xmlns="http://www.w3.org/2000/svg" xmlns:xlink="http://www.w3.org/1999/xlink" width="32" height="32" viewBox="0 0 32 32">
<path d="M31.188 15.188h-0.313c-0.375-3.313-3.188-5.875-6.625-5.875-3.125 0-5.813 2.25-6.5 5.188l-1.5-0.813c-0.188-0.063-0.313-0.063-0.5 0l-1.5 0.813c-0.688-2.938-3.375-5.188-6.5-5.188-3.438 0-6.25 2.563-6.625 5.875h-0.313c-0.438 0-0.813 0.375-0.813 0.813s0.375 0.813 0.813 0.813h0.313c0.375 3.313 3.188 5.875 6.625 5.875 3.688 0 6.625-3 6.625-6.688 0-0.125 0-0.25 0-0.375l1.625-0.813 1.625 0.813c0 0.125 0 0.25 0 0.375 0 3.688 2.938 6.688 6.625 6.688 3.438 0 6.25-2.563 6.625-5.875h0.313c0.438 0 0.813-0.375 0.813-0.813s-0.375-0.813-0.813-0.813zM7.75 21.625c-3.125 0-5.625-2.563-5.625-5.625s2.5-5.625 5.625-5.625c3.063 0 5.563 2.563 5.563 5.625s-2.5 5.625-5.563 5.625zM24.25 21.625c-3.063 0-5.563-2.563-5.563-5.625s2.5-5.625 5.563-5.625c3.125 0 5.625 2.563 5.625 5.625s-2.5 5.625-5.625 5.625z"></path>
</svg>
