<?xml version="1.0" encoding="utf-8"?>
<!DOCTYPE svg PUBLIC "-//W3C//DTD SVG 1.1//EN" "http://www.w3.org/Graphics/SVG/1.1/DTD/svg11.dtd">
<svg version="1.1" xmlns="http://www.w3.org/2000/svg" xmlns:xlink="http://www.w3.org/1999/xlink" width="32" height="32" viewBox="0 0 32 32">
<path d="M16 2.688c0 0 0 0 0 0s0 0 0 0 0 0-0.063 0c-7.313 0-13.25 5.938-13.25 13.313s5.938 13.313 13.25 13.313c0.063 0 0.063 0 0.063 0s0 0 0 0 0 0 0 0c7.375 0 13.313-5.938 13.313-13.313s-5.938-13.313-13.313-13.313zM16.563 10.625c1.375 0 2.75-0.188 4.063-0.5 0.438 1.563 0.688 3.375 0.688 5.313h-4.75zM16.563 9.563v-5.75c1.438 0.438 2.875 2.313 3.813 5.25-1.25 0.313-2.5 0.5-3.813 0.5zM15.438 3.813v5.75c-1.313 0-2.563-0.188-3.813-0.5 0.938-2.938 2.375-4.875 3.813-5.25zM15.438 10.625v4.813h-4.813c0.063-1.938 0.313-3.75 0.688-5.313 1.375 0.313 2.75 0.5 4.125 0.5zM9.563 15.438h-5.813c0.125-2.688 1.125-5.25 2.75-7.188 1.188 0.625 2.5 1.188 3.813 1.563-0.438 1.688-0.688 3.625-0.75 5.625zM9.563 16.563c0.063 2 0.313 3.938 0.75 5.625-1.313 0.375-2.625 0.938-3.813 1.563-1.625-1.938-2.625-4.5-2.75-7.188zM10.625 16.563h4.813v4.813c-1.375 0-2.75 0.188-4.125 0.5-0.375-1.563-0.625-3.375-0.688-5.313zM15.438 22.438v5.75c-1.438-0.375-2.875-2.313-3.813-5.25 1.25-0.313 2.5-0.5 3.813-0.5zM16.563 28.188v-5.75c1.313 0 2.563 0.188 3.813 0.5-0.938 2.938-2.375 4.813-3.813 5.25zM16.563 21.375v-4.813h4.75c0 1.938-0.25 3.75-0.688 5.313-1.313-0.313-2.688-0.5-4.063-0.5zM22.375 16.563h5.875c-0.125 2.688-1.125 5.25-2.75 7.188-1.25-0.625-2.5-1.188-3.813-1.563 0.438-1.688 0.688-3.625 0.688-5.625zM22.375 15.438c0-2-0.25-3.938-0.688-5.625 1.313-0.375 2.563-0.938 3.813-1.563 1.625 1.938 2.625 4.5 2.75 7.188h-5.875zM24.75 7.438c-1.063 0.563-2.188 1-3.375 1.375-0.625-2-1.5-3.688-2.5-4.75 2.25 0.563 4.25 1.75 5.875 3.375zM13.125 4.063c-1.063 1.125-1.938 2.75-2.563 4.75-1.125-0.375-2.25-0.813-3.313-1.375 1.563-1.625 3.625-2.813 5.875-3.375zM7.25 24.563c1.063-0.563 2.188-1 3.313-1.375 0.625 2 1.5 3.625 2.563 4.75-2.25-0.563-4.313-1.75-5.875-3.375zM18.875 27.938c1-1.063 1.875-2.75 2.5-4.75 1.188 0.375 2.313 0.813 3.375 1.375-1.625 1.625-3.625 2.813-5.875 3.375z"></path>
</svg>
