<?xml version="1.0" encoding="utf-8"?>
<!DOCTYPE svg PUBLIC "-//W3C//DTD SVG 1.1//EN" "http://www.w3.org/Graphics/SVG/1.1/DTD/svg11.dtd">
<svg version="1.1" xmlns="http://www.w3.org/2000/svg" xmlns:xlink="http://www.w3.org/1999/xlink" width="32" height="32" viewBox="0 0 32 32">
<path d="M15.75 21.938c3.125-0.063 5.375-1.625 6.688-4.688h0.063v4.688c0 0.375-0.063 0.875-0.063 1.625-0.125 0.813-0.375 1.625-0.75 2.5-0.438 0.813-1.063 1.563-2 2.125-0.875 0.625-2.125 0.938-3.75 1-1.563 0-2.875-0.438-3.938-1.25-1.063-0.75-1.688-2.063-1.875-3.813h-1.375c0.125 2.313 0.875 3.938 2.188 4.938 1.313 0.938 3 1.438 5 1.438 1.938 0 3.5-0.375 4.625-1.125 1.063-0.688 1.875-1.625 2.313-2.688 0.5-1.063 0.75-2.063 0.875-3 0.063-1 0.125-1.688 0.125-2.063v-19.5h-1.375v4.313h-0.063c-0.563-1.563-1.438-2.75-2.625-3.563s-2.563-1.188-4.063-1.188c-2.563 0.063-4.5 1.063-5.813 3-1.375 1.875-2.063 4.25-2.063 7.063 0 2.938 0.625 5.313 1.938 7.188 1.313 1.938 3.313 2.938 5.938 3zM10.875 5.688c1.063-1.75 2.688-2.625 4.875-2.688 2.313 0.063 4 0.938 5.063 2.625 1.125 1.688 1.625 3.75 1.625 6.125 0 2.438-0.5 4.438-1.625 6.125-1.063 1.75-2.75 2.688-5.063 2.75-2.125-0.063-3.75-0.938-4.875-2.688-1.125-1.688-1.688-3.75-1.688-6.188 0-2.25 0.563-4.25 1.688-6.063z"></path>
</svg>
