<?xml version="1.0" encoding="utf-8"?>
<!DOCTYPE svg PUBLIC "-//W3C//DTD SVG 1.1//EN" "http://www.w3.org/Graphics/SVG/1.1/DTD/svg11.dtd">
<svg version="1.1" xmlns="http://www.w3.org/2000/svg" xmlns:xlink="http://www.w3.org/1999/xlink" width="32" height="32" viewBox="0 0 32 32">
<path d="M30.25 13.188c0-6.313-6.438-11.438-14.375-11.438s-14.375 5.125-14.375 11.438c0 5.5 4.875 10.125 11.313 11.25-0.125 1.813-0.5 3.938-1.313 6.063 3.188-0.813 5.938-3.625 7.875-6.188 6.25-1.25 10.875-5.75 10.875-11.125zM22.063 20.25c-0.188 0.063-0.375 0.125-0.625 0.125-0.188 0-0.375 0-0.625 0-0.188 0-0.313 0-0.5 0 2.25-1.625 3.688-4.25 3.688-7.188 0-3.188-1.75-6-4.375-7.563 0.375-0.125 0.813-0.125 1.188-0.125 3.875 0 6.938 3.313 6.938 7.438 0 3.688-2.438 6.75-5.688 7.313z"></path>
</svg>
