<?xml version="1.0" encoding="utf-8"?>
<!DOCTYPE svg PUBLIC "-//W3C//DTD SVG 1.1//EN" "http://www.w3.org/Graphics/SVG/1.1/DTD/svg11.dtd">
<svg version="1.1" xmlns="http://www.w3.org/2000/svg" xmlns:xlink="http://www.w3.org/1999/xlink" width="32" height="32" viewBox="0 0 32 32">
<path d="M25.438 1.625h-7.813c-2 0-4.563 0.25-6.75 2.063-1.625 1.375-2.438 3.313-2.438 5.063 0 2.938 2.313 5.938 6.313 5.938 0.375 0 0.75-0.063 1.188-0.063-0.188 0.438-0.375 0.813-0.375 1.438 0 1.188 0.625 1.875 1.125 2.563-1.688 0.125-4.875 0.313-7.188 1.75-2.25 1.313-2.938 3.25-2.938 4.625 0 2.813 2.625 5.375 8.125 5.375 6.5 0 9.938-3.563 9.938-7.125 0-2.625-1.5-3.875-3.125-5.313l-1.375-1.063c-0.438-0.313-1-0.75-1-1.625 0-0.813 0.563-1.313 1.063-1.813 1.563-1.25 3.188-2.563 3.188-5.375 0-2.875-1.813-4.375-2.688-5.125h2.313zM22.125 24.75c0 2.313-1.938 4.063-5.563 4.063-4.063 0-6.688-1.938-6.688-4.625s2.438-3.563 3.25-3.875c1.625-0.563 3.625-0.625 4-0.625s0.563 0 0.875 0.063c2.875 2 4.125 3.063 4.125 5zM19.063 12.563c-0.563 0.625-1.625 1.063-2.563 1.063-3.25 0-4.688-4.188-4.688-6.75 0-0.938 0.188-2 0.813-2.813 0.625-0.75 1.625-1.188 2.625-1.188 3.125 0 4.813 4.188 4.813 6.938 0 0.688-0.125 1.875-1 2.75z"></path>
</svg>
