<?xml version="1.0" encoding="utf-8"?>
<!DOCTYPE svg PUBLIC "-//W3C//DTD SVG 1.1//EN" "http://www.w3.org/Graphics/SVG/1.1/DTD/svg11.dtd">
<svg version="1.1" xmlns="http://www.w3.org/2000/svg" xmlns:xlink="http://www.w3.org/1999/xlink" width="32" height="32" viewBox="0 0 32 32">
<path d="M30.375 14.875c0 2.438-0.938 4.688-2.563 6.563l-8.625-8.688 7.125-6c2.5 2.125 4.063 4.938 4.063 8.125zM12 17.313l13.438-11.188c-2.563-1.75-5.813-2.813-9.438-2.813-5.25 0-9.813 2.25-12.313 5.563zM5.5 22.75l5.688-4.75-8.125-8.188c-0.938 1.5-1.438 3.25-1.438 5.063 0 3 1.438 5.813 3.875 7.875zM27.063 22.25l-8.688-8.813-6.313 5.25-0.125 0.125v0.063l-1.875 1.625h-0.063l-2.625 2.063c0 0 0 0 0 0l-1 0.875c0.188 0.125 0.375 0.25 0.625 0.375-0.5 1.375-1.25 2.875-2.313 4.438 2.563 1.063 5.438-0.625 7.438-2.313 1.25 0.313 2.563 0.438 3.875 0.438 4.438 0 8.438-1.625 11.063-4.125z"></path>
</svg>
