<?xml version="1.0" encoding="utf-8"?>
<!DOCTYPE svg PUBLIC "-//W3C//DTD SVG 1.1//EN" "http://www.w3.org/Graphics/SVG/1.1/DTD/svg11.dtd">
<svg version="1.1" xmlns="http://www.w3.org/2000/svg" xmlns:xlink="http://www.w3.org/1999/xlink" width="32" height="32" viewBox="0 0 32 32">
<path d="M19 14.563c-0.188 1.813 0.313 4.188-0.25 5.563-8.25 1-7.125-16.688 0-15.25-1.25 5.688 5.375 5.375 5.563 1.438 0.125-2.938-3.25-4.313-5.125-4.563-5.563-0.813-12.5 2.375-13.313 9.688-0.75 7.25 2.063 9.5 7.5 12.125-2.75 7.938 7.625 8.375 11.188 4.313 2.625-3 1.063-8.438 1.688-13.313-2.438 0-4.875 0-7.25 0zM16.813 26.438c-2.25-1.313-0.125-4.188 1.688-4.375 0.25 0 0.438 0.063 0.5 0.25 0.188 2.313-0.438 3.813-2.188 4.125z"></path>
</svg>
