<?xml version="1.0" encoding="utf-8"?>
<!DOCTYPE svg PUBLIC "-//W3C//DTD SVG 1.1//EN" "http://www.w3.org/Graphics/SVG/1.1/DTD/svg11.dtd">
<svg version="1.1" xmlns="http://www.w3.org/2000/svg" xmlns:xlink="http://www.w3.org/1999/xlink" width="32" height="32" viewBox="0 0 32 32">
<path d="M9.313 1.688c0.188-0.063 0.375-0.063 0.625-0.063 0.875 0.063 1.375 0.813 1.438 2 0.125 2-0.625 4.188-1 5.563 3.313 0.688 6 2.375 7.625 5.375 0.813 1.313 1.438 2.875 1.563 4.875 0 0.25-0.125 0.688-0.063 1 0.063 0.25 0.5 0.625 0.75 0.875 0.688 0.75 1.75 1.75 2.625 2 1.625 0.625 3.875-0.375 5.438-0.688 1.063-0.25 1.75-0.125 2 0.688 0.063 0.125 0.063 0.313 0.063 0.5-0.25 1.125-1.375 1.813-2.5 2.375-3.188 1.688-8.5 2.5-12.813 2.438-0.813 0.75-1.875 1.188-3.188 1.5-0.688 0.063-1.313 0.125-2 0.25-1.563 0.063-3.5 0.125-4.375-0.75-0.438-0.438-0.75-1.25-0.563-2 0.25-1.188 1.688-1.875 3.125-2.25-0.063-0.375-0.375-0.75-0.5-1.125-0.625-1.688-0.438-3.75 0.125-5-0.375-0.125-0.813-0.188-1.125-0.313-0.188 0.375-0.125 0.75-0.313 1-0.813 1.063-2.875 0.625-2.75-1.125 0.063-1.063 1.563-1.875 2.375-2.375 0.5-0.313 1.125-0.625 1.625-0.938s1.125-0.75 1.25-1.125c0.125-0.5-0.063-1.25-0.25-1.563-0.188 0-0.313 0.313-0.438 0.438-0.438 0.5-0.938 0.938-1.5 1.438-0.688 0.563-1.5 1.25-2.375 1.5-1.188 0.375-2.125-0.125-2.5-1.188-0.063-0.25-0.063-0.438-0.063-0.625 0.438-2.438 2.438-3.688 4.625-4.75-0.875-1-2.563-2.5-2.813-4.625-0.063-0.938 0.313-1.813 1-2.25 1.25-0.688 2.25 0.563 3 1.125 0.375-0.938 0.875-1.75 1.875-2.188zM15.688 12.75c-1.313-1.375-3.188-2.375-5.375-2.75-0.375-0.125-0.75-0.125-0.813-0.313s0.063-0.563 0.188-0.875c0.438-1.563 0.813-2.688 0.938-4.438 0.063-1-0.188-2.438-1.188-1.938-0.813 0.438-1.188 1.438-1.438 2.188 0.75 0.688 2.188 4.125 0 4.063-1.563 0-1.188-3-0.875-4-0.313-0.313-0.5-0.625-0.938-0.938-0.25-0.188-0.688-0.563-1.313-0.375-0.375 0.125-0.625 0.688-0.688 0.938-0.063 0.375 0.063 0.813 0.125 1.125 0.313 1.375 1.5 2.75 2.313 3.438 0.25 0.25 0.938 0.438 0.938 0.875-0.063 0.313-0.938 0.5-1.375 0.688-0.625 0.313-1 0.625-1.313 0.813-0.875 0.625-1.688 1.25-2.125 2-0.188 0.313-0.5 0.875-0.375 1.375 0.125 0.688 0.688 1.063 1.5 0.875s1.75-0.938 2.563-1.688c0.375-0.375 0.625-0.563 1.063-1.063 0.313-0.313 0.688-1.063 1.063-1 0.375 0 0.813 1.063 0.875 1.438 0.25 1.125-0.125 1.875-0.563 2.313-0.625 0.563-1.625 0.938-2.563 1.563-0.625 0.375-2.125 1.188-2.063 1.938 0 0.875 1.188 0.938 1.438 0.375 0.125-0.438-0.25-1.063 0.063-1.25 0.313-0.25 0.875 0.063 1.125 0.125 0.5 0.125 0.875 0.188 1.125 0.25 0.563-0.688 1.125-1.938 2.25-1.938 1 0 1.625 1.688 0.875 2.375-0.688 0.625-1.75 0.375-2.625 0.375-0.875 1.375-0.75 4.5 0.375 5.875 1-0.125 1.938-0.063 2.813 0-1.875-2.625-0.75-6.563 2.375-7 2.813-0.375 4.5 1.5 4.75 1.688-0.25-3.25-1.438-5.438-3.125-7.125zM8.125 7.938c0.438 0 0.313-0.688 0.188-1.188-0.125-0.438-0.375-0.813-0.563-1.125 0-0.063 0-0.063 0-0.063-0.188 0.5-0.313 2.438 0.375 2.375zM8.875 18.625c0.625 0 1.438 0.063 1.813-0.375 0.063-0.313-0.125-0.688-0.313-0.875-0.75 0-1.188 0.688-1.5 1.25zM14.188 18.938c-2.625 0.438-3.5 3.813-1.875 5.875 0.313 0.375 1.188 0.875 1.188 1.188-0.063 0.438-0.438 0.313-0.813 0.188-0.938-0.25-2.125-0.375-3.125-0.25 1.063 1.25 3.063 1.875 5.188 1.938 0.688-0.563 1-1.875 0.375-2.938-0.188-0.438-0.563-0.625-0.438-0.938s0.625-0.188 1-0.188c1.75-0.188 2.625-1.625 2.938-3-1.188-1.063-2.313-2.25-4.438-1.875zM15.813 24.563c0.625 0.938 0.313 2.438 0 3.125 0 0-0.125 0.25-0.063 0.188 4.5-0.125 10.125-0.875 13-3.063 0.375-0.25 1-0.813 0.875-1.313-0.188-0.625-1.875 0.063-2.438 0.25-0.813 0.188-1.938 0.438-2.875 0.5-2.5 0.188-3.563-1.5-4.938-2.75-0.063-0.125-0.125-0.188-0.125-0.063-0.5 1.563-1.438 2.813-3.438 3.125zM9 26.5c-0.313-0.25-0.313-0.563-0.688-0.438-1.188 0.375-2.688 0.875-2.688 2.063 0 0.75 0.625 1.188 1.063 1.313 0.875 0.313 2.25 0.25 3.563 0.125 1.375-0.125 2.75-0.438 3.563-1-1.938-0.25-3.625-0.813-4.813-2.063z"></path>
</svg>
