<?xml version="1.0" encoding="utf-8"?>
<!DOCTYPE svg PUBLIC "-//W3C//DTD SVG 1.1//EN" "http://www.w3.org/Graphics/SVG/1.1/DTD/svg11.dtd">
<svg version="1.1" xmlns="http://www.w3.org/2000/svg" xmlns:xlink="http://www.w3.org/1999/xlink" width="32" height="32" viewBox="0 0 32 32">
<path d="M0 5.063v21.875h32v-21.875zM31.063 26.063h-30.125v-20.125h30.125zM30.188 6.688h-28.25v18.5h28.25zM29.25 7.625v10.875l-6.125-4.125c0.125-0.188 0.125-0.375 0.125-0.625 0-1.063-0.813-1.938-1.875-1.938s-1.938 0.875-1.938 1.938c0 0.313 0.125 0.688 0.313 0.938l-3.063 2.938c-0.313-0.188-0.688-0.313-1.063-0.313-0.438 0-0.813 0.125-1.125 0.375l-5.188-5.188c0.188-0.313 0.25-0.625 0.25-1 0-1.063-0.813-1.875-1.875-1.875s-1.938 0.813-1.938 1.875c0 0.313 0.125 0.625 0.25 0.875l-3.188 2.875v-7.625zM20.375 13.75c0-0.563 0.438-1 1-1s1 0.438 1 1c0 0.563-0.438 1-1 1s-1-0.438-1-1zM15.625 18.25c0.563 0 1 0.438 1 1 0 0.5-0.438 1-1 1s-1-0.5-1-1c0-0.563 0.438-1 1-1zM6.688 11.5c0-0.563 0.438-1 1-1s1 0.438 1 1c0 0.563-0.438 1-1 1s-1-0.438-1-1zM2.813 24.25v-7.75l3.813-3.438c0.313 0.25 0.688 0.375 1.063 0.375s0.688-0.125 1-0.313l5.25 5.25c-0.125 0.25-0.25 0.563-0.25 0.875 0 1.063 0.875 1.875 1.938 1.875s1.875-0.813 1.875-1.875c0-0.313-0.063-0.625-0.188-0.875l3.063-3c0.313 0.188 0.625 0.25 1 0.25 0.5 0 0.938-0.188 1.25-0.5l6.625 4.5v4.625z"></path>
</svg>
