<?xml version="1.0" encoding="utf-8"?>
<!DOCTYPE svg PUBLIC "-//W3C//DTD SVG 1.1//EN" "http://www.w3.org/Graphics/SVG/1.1/DTD/svg11.dtd">
<svg version="1.1" xmlns="http://www.w3.org/2000/svg" xmlns:xlink="http://www.w3.org/1999/xlink" width="32" height="32" viewBox="0 0 32 32">
<path d="M29.313 16c0-7.188-5.688-13.063-12.75-13.313v0h-1.125c-7.063 0.25-12.75 6.125-12.75 13.313 0 7.375 5.938 13.313 13.313 13.313 2.563 0 5-0.75 7.063-2v0l0.375-0.25c0 0 0 0 0 0l0.5-0.313v-0.063c3.25-2.375 5.375-6.313 5.375-10.688zM27.188 11.063l-10.625 4.188v-11.5c4.75 0.188 8.813 3.125 10.625 7.313zM16 28.25c-6.75 0-12.25-5.5-12.25-12.25 0-6.563 5.188-11.938 11.688-12.25v12.438l7 10.25c-1.875 1.125-4.063 1.813-6.438 1.813zM23.313 25.813l-6.5-9.563 10.813-4.188c0.375 1.25 0.625 2.563 0.625 3.938 0 4-1.938 7.563-4.938 9.813z"></path>
</svg>
