<?xml version="1.0" encoding="utf-8"?>
<!DOCTYPE svg PUBLIC "-//W3C//DTD SVG 1.1//EN" "http://www.w3.org/Graphics/SVG/1.1/DTD/svg11.dtd">
<svg version="1.1" xmlns="http://www.w3.org/2000/svg" xmlns:xlink="http://www.w3.org/1999/xlink" width="32" height="32" viewBox="0 0 32 32">
<path d="M28 1.063c-1.5 0-2.688 1.188-2.688 2.688 0 0.938 0.5 1.75 1.188 2.188l-5 13.313c-0.125 0-0.313-0.063-0.438-0.063-0.625 0-1.25 0.25-1.688 0.625l-5.063-4.188c0.25-0.375 0.375-0.75 0.375-1.25 0-1.438-1.25-2.625-2.688-2.625-1.5 0-2.688 1.188-2.688 2.625 0 0.813 0.375 1.5 0.938 2l-5.375 9.375c-0.313-0.125-0.563-0.125-0.875-0.125-1.438 0-2.688 1.188-2.688 2.625 0 1.5 1.25 2.688 2.688 2.688 1.5 0 2.688-1.188 2.688-2.688 0-0.75-0.375-1.5-0.875-1.938l5.375-9.375c0.25 0.063 0.5 0.125 0.813 0.125 0.625 0 1.188-0.25 1.688-0.625l5 4.188c-0.188 0.375-0.313 0.813-0.313 1.25 0 1.438 1.188 2.625 2.688 2.625 1.438 0 2.688-1.188 2.688-2.625 0-0.938-0.5-1.813-1.25-2.25l5-13.25c0.188 0 0.313 0 0.5 0 1.438 0 2.688-1.188 2.688-2.625 0-1.5-1.25-2.688-2.688-2.688zM4 29.875c-0.875 0-1.625-0.75-1.625-1.625s0.75-1.563 1.625-1.563c0.875 0 1.625 0.688 1.625 1.563s-0.75 1.625-1.625 1.625zM12 16c-0.875 0-1.625-0.688-1.625-1.625 0-0.875 0.75-1.563 1.625-1.563s1.625 0.688 1.625 1.563c0 0.938-0.75 1.625-1.625 1.625zM21.063 23.438c-0.875 0-1.625-0.688-1.625-1.563s0.75-1.625 1.625-1.625c0.875 0 1.625 0.75 1.625 1.625s-0.75 1.563-1.625 1.563zM28 5.313c-0.875 0-1.625-0.688-1.625-1.563s0.75-1.625 1.625-1.625c0.875 0 1.625 0.75 1.625 1.625s-0.75 1.563-1.625 1.563z"></path>
</svg>
