<?xml version="1.0" encoding="utf-8"?>
<!DOCTYPE svg PUBLIC "-//W3C//DTD SVG 1.1//EN" "http://www.w3.org/Graphics/SVG/1.1/DTD/svg11.dtd">
<svg version="1.1" xmlns="http://www.w3.org/2000/svg" xmlns:xlink="http://www.w3.org/1999/xlink" width="32" height="32" viewBox="0 0 32 32">
<path d="M16 1.625c-7.938 0-14.375 6.438-14.375 14.375s6.438 14.375 14.375 14.375c7.938 0 14.375-6.438 14.375-14.375s-6.438-14.375-14.375-14.375zM23.75 20.438c-1.125 0-2.188-2.25-2.188-2.25s-1.625-5.5-8.875-6.625c0.625 10-3.063 8.75-4.438 8.875-1.375 0.063-2.188-1.938-2.188-4.438 0-5.5 4.438-9.938 9.938-9.938s9.813 4.438 9.938 9.938c0.063 1.125-1.063 4.438-2.188 4.438z"></path>
</svg>
