<?xml version="1.0" encoding="utf-8"?>
<!DOCTYPE svg PUBLIC "-//W3C//DTD SVG 1.1//EN" "http://www.w3.org/Graphics/SVG/1.1/DTD/svg11.dtd">
<svg version="1.1" xmlns="http://www.w3.org/2000/svg" xmlns:xlink="http://www.w3.org/1999/xlink" width="32" height="32" viewBox="0 0 32 32">
<path d="M30 14.563l-0.75 0.813-12.5-12.5 0.813-0.75-0.75-0.75-0.813 0.75-8.063 8.125 0.75 0.75 0.563-0.563 5.875 5.875-13.625 13.563 0.75 0.75 13.625-13.625 5.813 5.875-0.5 0.563 0.75 0.75 8.813-8.875-0.75-0.75zM22.438 22.125l-1.875-1.875 6-6.063 1.875 1.875zM19.813 19.438l-7.188-7.125 6.063-6 7.125 7.125zM16 3.625l1.875 1.875-6 6.063-1.813-1.875z"></path>
</svg>
