<?xml version="1.0" encoding="utf-8"?>
<!DOCTYPE svg PUBLIC "-//W3C//DTD SVG 1.1//EN" "http://www.w3.org/Graphics/SVG/1.1/DTD/svg11.dtd">
<svg version="1.1" xmlns="http://www.w3.org/2000/svg" xmlns:xlink="http://www.w3.org/1999/xlink" width="32" height="32" viewBox="0 0 32 32">
<path d="M29.188 14.375c0-7.313-6-13.313-13.375-13.313-7.313 0-13.313 6-13.313 13.313v5.438h0.063c0 0.188 0 0.375 0 0.438 0 3.563 2.813 6.438 6.313 6.438v-12.813c-2.25 0-4.188 1.125-5.313 2.875v-2.375c0-6.75 5.5-12.25 12.25-12.25 6.813 0 12.313 5.5 12.313 12.25v2.375c-1.125-1.688-3.125-2.875-5.313-2.875h-0.063v12.813h0.063c0.563 0 1-0.063 1.563-0.25-1.625 1.563-3.563 2.625-5.813 3.188v-1.875h-5.375v3.188h5.313v-0.188c3.438-0.75 6.375-2.688 8.25-5.5 1.438-1.125 2.438-2.938 2.438-5 0-0.125 0-0.313 0-0.438v-5.438zM7.813 15.063v10.438c-2.375-0.5-4.25-2.688-4.25-5.25s1.875-4.75 4.25-5.188zM17.438 29.875h-3.188v-1.063h3.188zM23.813 25.5v-10.438c2.5 0.438 4.313 2.625 4.313 5.188s-1.813 4.75-4.313 5.25z"></path>
</svg>
