<?xml version="1.0" encoding="utf-8"?>
<!DOCTYPE svg PUBLIC "-//W3C//DTD SVG 1.1//EN" "http://www.w3.org/Graphics/SVG/1.1/DTD/svg11.dtd">
<svg version="1.1" xmlns="http://www.w3.org/2000/svg" xmlns:xlink="http://www.w3.org/1999/xlink" width="32" height="32" viewBox="0 0 32 32">
<path d="M31.063 13.688c0.063-0.063 0.063-0.188 0.125-0.25 0.75-1.438 1-3.125 0.688-4.813-0.438-1.875-1.438-3.5-2.938-4.563-1.563-1.125-3.5-1.563-5.438-1.188-1.688 0.25-3.125 1.125-4.188 2.313h-0.063c-0.25 0.313-0.625 0.688-1 1.125-0.375 0.375-0.75 0.813-1.063 1.125l-1.313 1.438-3.063-3.438v0.063c-1.25-1.688-3.188-2.75-5.313-2.813-2.25-0.125-4.313 0.75-5.75 2.438-1.438 1.625-2 3.813-1.625 6 0.125 0.938 0.438 1.813 0.938 2.625l-0.188 0.188 0.188-0.125c0.563 0.875 1.25 1.688 2.063 2.313v0.063l12.813 13.125 0.438-0.375c1.25-1.375 2.563-2.688 3.875-4.063l2.375-2.375c1.813-1.875 3.688-3.75 5.5-5.625 0.25-0.25 0.75-0.75 1.313-1.313 0.75-0.75 1.188-1.25 1.438-1.625l0.063 0.063h-0.063c0.063-0.125 0.125-0.188 0.188-0.313zM28.563 14.75c-0.188 0.188-0.375 0.375-0.5 0.563v0c-0.25 0.25-0.5 0.5-0.75 0.75-0.125 0.063-0.125 0.125-0.125 0.125v0c-1.813 1.813-3.625 3.625-5.438 5.5l-2.313 2.375c-1.188 1.25-2.313 2.438-3.5 3.625l-11.875-12.188 0.063-0.063c-1.5-1.063-2.563-2.688-2.875-4.5-0.313-1.875 0.188-3.688 1.375-5.063s2.938-2.125 4.813-2.063c1.875 0.125 3.5 1.063 4.563 2.563v-0.063l3.813 4.375 2.25-2.5c0.25-0.313 0.625-0.688 1-1.063 0.25-0.25 0.438-0.5 0.688-0.688v0c0.938-1.25 2.313-2.125 3.938-2.438 1.625-0.25 3.25 0.063 4.563 1 1.25 0.875 2.125 2.25 2.438 3.875 0.313 1.5 0.063 3.063-0.688 4.313-0.188 0.25-0.625 0.75-1.438 1.563z"></path>
</svg>
