<?xml version="1.0" encoding="utf-8"?>
<!DOCTYPE svg PUBLIC "-//W3C//DTD SVG 1.1//EN" "http://www.w3.org/Graphics/SVG/1.1/DTD/svg11.dtd">
<svg version="1.1" xmlns="http://www.w3.org/2000/svg" xmlns:xlink="http://www.w3.org/1999/xlink" width="32" height="32" viewBox="0 0 32 32">
<path d="M29.188 5.25c-3.625-3.563-9.438-3.625-13.188-0.25-3.75-3.375-9.563-3.313-13.188 0.25-3.75 3.75-3.75 9.75 0 13.438 1.063 1.063 11.063 10.938 11.063 10.938 1.188 1.188 3.063 1.188 4.25 0 0 0 10.938-10.813 11.063-10.938 3.75-3.688 3.75-9.688 0-13.438zM27.75 17.25l-11.063 10.938c-0.375 0.438-1 0.438-1.375 0l-11.063-10.938c-2.938-2.875-2.938-7.625 0-10.563 2.813-2.813 7.375-2.938 10.375-0.25l1.375 1.25 1.375-1.25c3-2.688 7.563-2.563 10.375 0.25 2.938 2.938 2.938 7.688 0 10.563zM9.25 7.5c0 0 0 0 0 0-2.375 0-4.25 1.875-4.25 4.25 0 0.25 0.25 0.5 0.5 0.5s0.5-0.25 0.5-0.5v0c0-1.813 1.438-3.25 3.25-3.25v0c0.25 0 0.5-0.25 0.5-0.5s-0.25-0.5-0.5-0.5z"></path>
</svg>
