<?xml version="1.0" encoding="utf-8"?>
<!DOCTYPE svg PUBLIC "-//W3C//DTD SVG 1.1//EN" "http://www.w3.org/Graphics/SVG/1.1/DTD/svg11.dtd">
<svg version="1.1" xmlns="http://www.w3.org/2000/svg" xmlns:xlink="http://www.w3.org/1999/xlink" width="32" height="32" viewBox="0 0 32 32">
<path d="M29.5 4.813c-1.688-1.688-3.813-2.438-6-2.438s-4.438 0.875-6 2.438c-0.5 0.5-1 1.125-1.375 1.875-0.375-0.625-0.875-1.25-1.375-1.875-1.688-1.688-3.813-2.438-6-2.438s-4.563 0.75-6.25 2.438c-3.313 3.313-3.313 8.75 0 12.188l13.5 12.625 13.5-12.75c3.313-3.313 3.313-8.75 0-12.063zM28.625 16l-12.625 12.063-12.625-12.063c-1.375-1.375-2.125-3.188-2.125-5.188 0-1.938 0.75-3.75 2.125-5.125 1.438-1.5 3.313-2.25 5.25-2.25s3.813 0.75 5.188 2.125c0.438 0.5 0.813 1 1.063 1.438l1.125 1.875 1.125-1.875c0.375-0.563 0.75-1.063 1.063-1.438 1.375-1.375 3.25-2.125 5.188-2.125s3.813 0.75 5.125 2.125c1.375 1.375 2.125 3.188 2.125 5.125 0 2-0.625 3.938-2 5.313z"></path>
</svg>
