<?xml version="1.0" encoding="utf-8"?>
<!DOCTYPE svg PUBLIC "-//W3C//DTD SVG 1.1//EN" "http://www.w3.org/Graphics/SVG/1.1/DTD/svg11.dtd">
<svg version="1.1" xmlns="http://www.w3.org/2000/svg" xmlns:xlink="http://www.w3.org/1999/xlink" width="32" height="32" viewBox="0 0 32 32">
<path d="M31.438 16.563v-1.125h-3.75c-0.125-2.875-1.188-5.438-3-7.438l2.625-2.688-0.75-0.75-2.625 2.688c-2-1.813-4.563-2.938-7.375-3.063v-3.625h-1.063v3.625c-2.813 0.125-5.375 1.313-7.375 3.063l-2.688-2.688-0.75 0.75 2.688 2.688c-1.875 2-3.063 4.563-3.125 7.438h-3.75v1.125h3.75c0.125 2.813 1.25 5.375 3 7.25l-2.625 2.688 0.75 0.75 2.625-2.688c2 1.813 4.563 2.938 7.375 3.063v3.813h1.063v-3.75c2.813-0.125 5.438-1.313 7.375-3.063l2.688 2.688 0.75-0.75-2.688-2.688c1.75-1.938 2.938-4.438 3-7.313h3.875zM26.625 15.438h-6.375c-0.125-0.75-0.438-1.5-0.938-2.125l4.563-4.5c1.563 1.75 2.625 4.125 2.75 6.625zM15.938 19.188c-1.75 0-3.188-1.438-3.188-3.188s1.438-3.188 3.188-3.188c1.813 0 3.25 1.438 3.25 3.188s-1.438 3.188-3.25 3.188zM23.125 8.063l-4.625 4.563c-0.563-0.438-1.25-0.75-2-0.813v-6.563c2.563 0.188 4.875 1.188 6.625 2.813zM15.438 5.25v6.5c-0.75 0.063-1.438 0.375-2.063 0.813l-4.563-4.563c1.75-1.563 4.063-2.563 6.625-2.75zM8.063 8.813l4.563 4.5c-0.5 0.625-0.813 1.375-0.938 2.125h-6.375c0.125-2.563 1.188-4.875 2.75-6.625zM5.375 16.563h6.375c0.125 0.688 0.375 1.438 0.875 2l-4.5 4.5c-1.625-1.75-2.688-4-2.75-6.5zM8.813 23.813l4.5-4.438c0.563 0.438 1.313 0.813 2.125 0.875v6.375c-2.563-0.188-4.875-1.188-6.625-2.813zM16.5 26.563v-6.375c0.813-0.063 1.563-0.375 2.125-0.875l4.5 4.5c-1.75 1.625-4.063 2.625-6.625 2.75zM23.875 23.063l-4.5-4.438c0.438-0.625 0.75-1.313 0.875-2.063h6.375c-0.125 2.5-1.188 4.75-2.75 6.5z"></path>
</svg>
