<?xml version="1.0" encoding="utf-8"?>
<!DOCTYPE svg PUBLIC "-//W3C//DTD SVG 1.1//EN" "http://www.w3.org/Graphics/SVG/1.1/DTD/svg11.dtd">
<svg version="1.1" xmlns="http://www.w3.org/2000/svg" xmlns:xlink="http://www.w3.org/1999/xlink" width="32" height="32" viewBox="0 0 32 32">
<path d="M16 2.688c-7.375 0-13.313 5.938-13.313 13.313s5.938 13.313 13.313 13.313c7.375 0 13.313-5.938 13.313-13.313s-5.938-13.313-13.313-13.313zM16 28.25c-6.75 0-12.25-5.5-12.25-12.25s5.5-12.25 12.25-12.25c6.75 0 12.25 5.5 12.25 12.25s-5.5 12.25-12.25 12.25zM15.938 9c-2.688 0-4.188 1.688-4.188 4.313h1.125c0-1.875 1-3.313 3-3.313 1.5 0 2.688 1 2.688 2.5 0 1-0.5 1.75-1.188 2.438-1.438 1.313-1.813 1.938-1.938 3.75h1.25c0.063-1.625 0-1.625 1.438-3.063 0.938-0.875 1.625-1.75 1.625-3.188 0-2.125-1.75-3.438-3.813-3.438zM16 20.813c-0.563 0-1.063 0.438-1.063 1.063 0 0.563 0.5 1.063 1.063 1.063s1.063-0.5 1.063-1.063c0-0.625-0.5-1.063-1.063-1.063z"></path>
</svg>
