<?xml version="1.0" encoding="utf-8"?>
<!DOCTYPE svg PUBLIC "-//W3C//DTD SVG 1.1//EN" "http://www.w3.org/Graphics/SVG/1.1/DTD/svg11.dtd">
<svg version="1.1" xmlns="http://www.w3.org/2000/svg" xmlns:xlink="http://www.w3.org/1999/xlink" width="32" height="32" viewBox="0 0 32 32">
<path d="M16 3.188c-7.063 0-12.813 5.75-12.813 12.813s5.75 12.813 12.813 12.813c7.063 0 12.813-5.75 12.813-12.813s-5.75-12.813-12.813-12.813zM16 21.875c-3.25 0-5.875-2.625-5.875-5.875s2.625-5.875 5.875-5.875v0c3.25 0 5.875 2.625 5.875 5.875s-2.625 5.875-5.875 5.875zM22.375 13.313l4.063-2.688c0.813 1.625 1.313 3.438 1.313 5.375s-0.5 3.688-1.313 5.313l-4-2.688c0.313-0.813 0.5-1.688 0.5-2.625s-0.188-1.875-0.563-2.688zM25.875 9.688l-4 2.688c-0.563-0.938-1.375-1.75-2.313-2.313l2.688-4c1.438 0.938 2.688 2.188 3.625 3.625zM21.313 5.563l-2.688 4c-0.813-0.313-1.688-0.5-2.625-0.5v0c-0.938 0-1.813 0.188-2.625 0.5l-2.688-4c1.625-0.813 3.375-1.313 5.313-1.313s3.75 0.5 5.313 1.313zM9.75 6.063l2.688 4c-0.938 0.563-1.75 1.375-2.313 2.313l-4-2.688c0.938-1.438 2.188-2.688 3.625-3.625zM5.563 10.625l4.063 2.688c-0.375 0.813-0.563 1.75-0.563 2.688s0.188 1.813 0.5 2.625l-4 2.688c-0.813-1.625-1.313-3.438-1.313-5.313 0-1.938 0.5-3.75 1.313-5.375zM6.063 22.25l4-2.688c0.563 0.938 1.375 1.75 2.313 2.375l-2.625 3.938c-1.5-0.938-2.75-2.188-3.688-3.625zM10.625 26.438l2.75-4.063c0.813 0.375 1.688 0.563 2.625 0.563 0 0 0 0 0 0 0.938 0 1.813-0.188 2.625-0.563l2.75 4.063c-1.625 0.813-3.438 1.313-5.375 1.313s-3.75-0.5-5.375-1.313zM22.25 25.875l-2.625-3.938c0.938-0.625 1.75-1.438 2.313-2.375l4 2.688c-0.938 1.438-2.188 2.688-3.688 3.625z"></path>
</svg>
