<?xml version="1.0" encoding="utf-8"?>
<!DOCTYPE svg PUBLIC "-//W3C//DTD SVG 1.1//EN" "http://www.w3.org/Graphics/SVG/1.1/DTD/svg11.dtd">
<svg version="1.1" xmlns="http://www.w3.org/2000/svg" xmlns:xlink="http://www.w3.org/1999/xlink" width="32" height="32" viewBox="0 0 32 32">
<path d="M29.375 14.25l0.25-5.063h-9.688l-1.438 7.875h0.063c-0.125 0.25-0.188 0.5-0.25 0.813v1.25h0.938v1.813c1 1.063 2.688 1.875 5 1.875 3.625 0 6.125-2.313 6.125-5.625 0-1-0.313-2.063-1-2.938zM24.313 21.563c-2.938 0-4.75-1.563-4.75-3.063 0-1 0.688-1.875 1.938-1.875 0.813 0 1.25 0.563 1.25 1.188 0 0.375-0.125 0.5-0.125 0.813 0 0.375 0.188 0.688 0.875 0.688 0.938 0 1.375-1 1.375-2 0-0.875-0.313-1.563-1.063-1.563-0.563 0-0.875 0.25-0.938 0.563l-2.75-0.313 1-5.563h7.313l-0.125 2.813h-4.875l-0.25 1.438c0.313-0.5 1.313-0.875 2.563-0.875 2.313 0 3.5 1.75 3.5 3.375 0 2.438-1.75 4.375-4.938 4.375zM19.563 17.875v-7.875h-5.313v2.375h-1.75v4.688h0.938v0.813h-0.938v4.625h8v-4.625zM15.5 11.25h2.813v1.813h-2.813zM19.25 21.25h-5.5v-2.125h0.938v-3.313h-0.938v-2.125h4.563v5.438h0.938zM13.75 21.25v-2.125h0.938v-1.25h-1v-1.875c0-2.125-1.5-3.75-3.438-3.75-0.563 0-1.125 0.125-1.563 0.313v-3.375h-7.063v4.688h0.938v4h-0.938v4.625h13.063v-1.25h-0.938zM13.438 21.25h-5v-2.125h0.375v-2.188c0-0.625 0-1.25-0.375-1.25s-0.75 0.5-1 1.438v2h0.375v2.125h-4.938v-2.125h0.938v-6.5h-0.938v-2.188h4.563v4.875c0.5-0.938 1.5-1.813 2.813-1.813 1.25 0 2.188 1.063 2.188 2.5v3.125h1z"></path>
</svg>
