<?xml version="1.0" encoding="utf-8"?>
<!DOCTYPE svg PUBLIC "-//W3C//DTD SVG 1.1//EN" "http://www.w3.org/Graphics/SVG/1.1/DTD/svg11.dtd">
<svg version="1.1" xmlns="http://www.w3.org/2000/svg" xmlns:xlink="http://www.w3.org/1999/xlink" width="32" height="32" viewBox="0 0 32 32">
<path d="M27.438 24.688c-0.313 0-0.625 0.063-0.938 0.125l-9.813-9.813v-7.813c1.625-0.313 2.875-1.813 2.875-3.563 0-2-1.625-3.625-3.625-3.625s-3.625 1.625-3.625 3.625c0 1.875 1.375 3.375 3.125 3.625v7.625l-9.938 10c-0.313-0.063-0.625-0.125-0.938-0.125-2 0-3.625 1.625-3.625 3.625s1.625 3.625 3.625 3.625c2 0 3.625-1.625 3.625-3.625 0-1.25-0.625-2.313-1.5-2.938l8.75-8.75v8.125c-1.75 0.25-3.125 1.75-3.125 3.563 0 2 1.688 3.625 3.688 3.625s3.625-1.625 3.625-3.625c0-1.75-1.25-3.25-2.938-3.563v-8.063l8.625 8.625c-0.938 0.688-1.5 1.75-1.5 2.938 0 2 1.625 3.625 3.625 3.625s3.625-1.625 3.625-3.625c0-2-1.625-3.625-3.625-3.625zM4.563 30.75c-1.313 0-2.375-1.063-2.375-2.375s1.063-2.375 2.375-2.375c1.313 0 2.375 1.063 2.375 2.375s-1.063 2.375-2.375 2.375zM13.563 3.625c0-1.313 1.063-2.375 2.375-2.375s2.375 1.063 2.375 2.375c0 1.313-1.063 2.375-2.375 2.375s-2.375-1.063-2.375-2.375zM18.375 28.375c0 1.313-1.063 2.375-2.375 2.375s-2.438-1.063-2.438-2.375c0-1.313 1.125-2.375 2.438-2.375s2.375 1.063 2.375 2.375zM27.438 30.688c-1.313 0-2.375-1.063-2.375-2.375s1.063-2.375 2.375-2.375c1.313 0 2.375 1.063 2.375 2.375s-1.063 2.375-2.375 2.375z"></path>
</svg>
