<?xml version="1.0" encoding="utf-8"?>
<!DOCTYPE svg PUBLIC "-//W3C//DTD SVG 1.1//EN" "http://www.w3.org/Graphics/SVG/1.1/DTD/svg11.dtd">
<svg version="1.1" xmlns="http://www.w3.org/2000/svg" xmlns:xlink="http://www.w3.org/1999/xlink" width="32" height="32" viewBox="0 0 32 32">
<path d="M24.188 24.688v-10.375h-7.75v-7.063c1.75-0.25 3.125-1.813 3.125-3.625 0-2-1.625-3.625-3.625-3.625-2.063 0-3.688 1.625-3.688 3.625 0 1.75 1.25 3.25 2.938 3.563v7.125h-7.313v10.5c-1.688 0.25-3 1.75-3 3.563 0 2 1.625 3.625 3.625 3.625s3.625-1.625 3.625-3.625c0-1.813-1.25-3.313-3-3.563v-9.25h13.813v9.125c-1.75 0.25-3.063 1.75-3.063 3.563 0 2 1.625 3.625 3.625 3.625s3.625-1.625 3.625-3.625c0-1.75-1.25-3.25-2.938-3.563zM13.5 3.625c0-1.313 1.063-2.375 2.438-2.375 1.313 0 2.375 1.063 2.375 2.375s-1.063 2.375-2.375 2.375c-1.375 0-2.438-1.063-2.438-2.375zM10.875 28.375c0 1.313-1.063 2.375-2.375 2.375s-2.375-1.063-2.375-2.375c0-1.313 1.063-2.438 2.375-2.438s2.375 1.125 2.375 2.438zM23.5 30.625c-1.313 0-2.375-1.063-2.375-2.375s1.063-2.375 2.375-2.375c1.313 0 2.375 1.063 2.375 2.375s-1.063 2.375-2.375 2.375z"></path>
</svg>
