<?xml version="1.0" encoding="utf-8"?>
<!DOCTYPE svg PUBLIC "-//W3C//DTD SVG 1.1//EN" "http://www.w3.org/Graphics/SVG/1.1/DTD/svg11.dtd">
<svg version="1.1" xmlns="http://www.w3.org/2000/svg" xmlns:xlink="http://www.w3.org/1999/xlink" width="32" height="32" viewBox="0 0 32 32">
<path d="M32 16.563l-16-15.875-16 15.875 0.813 0.813 2.063-1.938v15.875h26.25v-15.875l1.938 1.938zM18.375 30.125h-4.75v-9.5h4.75v9.5zM27.938 30.125h-8.375v-10.75h-7.125v10.75h-8.375v-15.875l11.938-11.938 11.938 11.938zM12.438 12.25c0 2 1.563 3.563 3.563 3.563s3.563-1.563 3.563-3.563c0-2.063-1.563-3.563-3.563-3.563s-3.563 1.5-3.563 3.563zM18.375 12.25c0 1.313-1.063 2.375-2.375 2.375s-2.375-1.063-2.375-2.375c0-1.313 1.063-2.375 2.375-2.375s2.375 1.063 2.375 2.375z"></path>
</svg>
