<?xml version="1.0" encoding="utf-8"?>
<!DOCTYPE svg PUBLIC "-//W3C//DTD SVG 1.1//EN" "http://www.w3.org/Graphics/SVG/1.1/DTD/svg11.dtd">
<svg version="1.1" xmlns="http://www.w3.org/2000/svg" xmlns:xlink="http://www.w3.org/1999/xlink" width="32" height="32" viewBox="0 0 32 32">
<path d="M27.313 18c-0.375 0-0.625 0.313-0.625 0.688v12h-6.688v-8.688h-8v8.688h-6.688v-12.688c0-0.375-0.25-0.688-0.625-0.688s-0.688 0.313-0.688 0.688v14h9.313v-8.688h5.375v8.688h9.313v-13.313c0-0.375-0.313-0.688-0.688-0.688zM31.813 16.875l-15.813-15.125-15.813 15.125c-0.25 0.25-0.25 0.625 0 0.938 0.25 0.25 0.688 0.25 0.938 0l14.875-14.25 14.875 14.25c0.125 0.125 0.313 0.188 0.438 0.188 0.188 0 0.375-0.063 0.5-0.188 0.25-0.313 0.25-0.688 0-0.938zM21.313 5.313h4v4c0 0.375 0.313 0.688 0.688 0.688s0.688-0.313 0.688-0.688v-5.313h-5.375c-0.375 0-0.625 0.313-0.625 0.688s0.25 0.625 0.625 0.625z"></path>
</svg>
