<?xml version="1.0" encoding="utf-8"?>
<!DOCTYPE svg PUBLIC "-//W3C//DTD SVG 1.1//EN" "http://www.w3.org/Graphics/SVG/1.1/DTD/svg11.dtd">
<svg version="1.1" xmlns="http://www.w3.org/2000/svg" xmlns:xlink="http://www.w3.org/1999/xlink" width="32" height="32" viewBox="0 0 32 32">
<path d="M22.438 10.063v-6.313h2.75v-1.063h-18.688v1.063h2.688v6.313c0 1.75 0.688 3.938 5.375 6.188-4 1.938-5.375 3.625-5.375 6.5v5.5h-2.688v1.063h18.688v-1.063h-2.75v-5.5c0-2.875-1.375-4.563-5.375-6.563 4.688-2.188 5.375-4.375 5.375-6.125zM21.375 22.75v5.5h-11.125v-5.5c0-2.25 0.875-3.813 5.563-5.938 4.688 2.188 5.563 3.75 5.563 5.938zM15.75 15.688c-4.875-2.25-5.5-4.125-5.5-5.625v-6.313h11.125v6.313c0 1.5-0.688 3.375-5.625 5.625z"></path>
</svg>
