<?xml version="1.0" encoding="utf-8"?>
<!DOCTYPE svg PUBLIC "-//W3C//DTD SVG 1.1//EN" "http://www.w3.org/Graphics/SVG/1.1/DTD/svg11.dtd">
<svg version="1.1" xmlns="http://www.w3.org/2000/svg" xmlns:xlink="http://www.w3.org/1999/xlink" width="32" height="32" viewBox="0 0 32 32">
<path d="M15.375 4.188c-7.938 0-14.438 4.813-14.438 10.813 0 3.188 1.875 6.063 4.875 8.063-0.313 1.5-0.813 3.313-1.813 4.75 1.313 0 4.5-1.438 6.75-2.625 1.438 0.375 3 0.563 4.625 0.563 7.938 0 14.375-4.813 14.375-10.75 0-6-6.438-10.813-14.375-10.813zM22.25 15.125c-0.063 0.188-0.125 0.438-0.25 0.688-0.313 0.438-0.625 0.875-1.063 1.25-2 2.125-5.563 4.5-5.563 4.5s-3.563-2.375-5.625-4.5c-0.375-0.375-0.75-0.813-1-1.25-0.188-0.25-0.25-0.5-0.313-0.688-0.125-0.438-0.188-0.875-0.188-1.375 0-2.375 1.938-4.313 4.313-4.313 1.625 0 2.813 1.688 2.813 2.875 0-1.188 0.563-2.875 2.75-2.875 2.438 0 4.375 1.938 4.375 4.313 0 0.5-0.125 0.938-0.25 1.375z"></path>
</svg>
