<?xml version="1.0" encoding="utf-8"?>
<!DOCTYPE svg PUBLIC "-//W3C//DTD SVG 1.1//EN" "http://www.w3.org/Graphics/SVG/1.1/DTD/svg11.dtd">
<svg version="1.1" xmlns="http://www.w3.org/2000/svg" xmlns:xlink="http://www.w3.org/1999/xlink" width="32" height="32" viewBox="0 0 32 32">
<path d="M16 0c-8.813 0-16 7.188-16 16s7.188 16 16 16c8.813 0 16-7.188 16-16s-7.188-16-16-16zM16 30c-7.75 0-14-6.25-14-14s6.25-14 14-14c7.75 0 14 6.25 14 14s-6.25 14-14 14zM12.813 10.75c-0.188-0.125-0.313-0.25-0.438-0.313-0.063 0-0.063 0-0.063 0s0 0 0 0c-0.188-0.125-0.375-0.188-0.375-0.188l0.063 0.063c-0.375-0.188-0.688-0.25-1.063-0.25-1.625 0-2.938 1.375-2.938 3.063s1.313 3.063 2.938 3.063c0.5 0 1-0.188 1.438-0.438-0.125 1.688-1 4.063-4 6.5-0.438 0.313-0.5 0.938-0.188 1.375 0.188 0.25 0.5 0.438 0.813 0.438 0.188 0 0.375-0.125 0.563-0.25 3.688-3 4.625-6.063 4.75-8.125 0.25-2.625-0.563-4-1.313-4.688-0.063-0.063-0.125-0.188-0.188-0.25zM22.5 10.75c-0.188-0.125-0.313-0.25-0.438-0.313 0 0 0 0-0.063 0 0 0 0 0 0 0-0.188-0.125-0.313-0.188-0.313-0.188v0.063c-0.313-0.188-0.688-0.25-1.063-0.25-1.625 0-2.938 1.375-2.938 3.063s1.313 3.063 2.938 3.063c0.563 0 1-0.188 1.438-0.438-0.125 1.688-0.938 4.063-4 6.5-0.438 0.313-0.5 0.938-0.125 1.375 0.188 0.25 0.438 0.438 0.75 0.438 0.188 0 0.375-0.125 0.563-0.25 3.75-3 4.625-6.063 4.75-8.125 0.25-2.625-0.563-4-1.313-4.688-0.063-0.063-0.125-0.188-0.188-0.25z"></path>
</svg>
