<?xml version="1.0" encoding="utf-8"?>
<!DOCTYPE svg PUBLIC "-//W3C//DTD SVG 1.1//EN" "http://www.w3.org/Graphics/SVG/1.1/DTD/svg11.dtd">
<svg version="1.1" xmlns="http://www.w3.org/2000/svg" xmlns:xlink="http://www.w3.org/1999/xlink" width="32" height="32" viewBox="0 0 32 32">
<path d="M8.063 14.813c1.188 1.25 2.938 1.625 4.563 1.188l-8.875-8.875c-0.313-0.313-0.438-0.75-0.438-1.25 0-0.813 0.375-1.875 1-2.438 0.75-0.75 2.75-1.625 3.75-0.625l8.875 8.875c0.125-0.438 0.188-0.875 0.188-1.375 0-1.188-0.5-2.375-1.313-3.188l-6.063-6.063c-1.813-1.813-5.375-1.125-7.188 0.625-1 1.063-1.625 2.625-1.625 4.188 0 1.188 0.375 2.25 1.063 2.938zM23.938 15.25c-1.188-1.188-2.938-1.625-4.563-1.125l8.875 8.875c0.313 0.313 0.438 0.75 0.438 1.25 0 0.813-0.375 1.875-1 2.438-0.75 0.75-2.75 1.563-3.75 0.625l-8.875-8.875c-0.125 0.438-0.188 0.875-0.188 1.313 0 1.25 0.5 2.438 1.313 3.25l6.063 6.063c1.813 1.813 5.375 1.125 7.188-0.625 1-1.063 1.625-2.625 1.625-4.188 0-1.188-0.375-2.25-1.063-2.938zM9.563 8.625c-0.25 0.25-0.375 0.563-0.375 0.875 0 0.375 0.125 0.688 0.375 0.938l11.063 11.063c0.5 0.5 1.313 0.5 1.813 0 0.25-0.25 0.375-0.563 0.375-0.875 0-0.375-0.125-0.688-0.375-0.938l-11.063-11.063c-0.5-0.5-1.313-0.5-1.813 0z"></path>
</svg>
