<?xml version="1.0" encoding="utf-8"?>
<!DOCTYPE svg PUBLIC "-//W3C//DTD SVG 1.1//EN" "http://www.w3.org/Graphics/SVG/1.1/DTD/svg11.dtd">
<svg version="1.1" xmlns="http://www.w3.org/2000/svg" xmlns:xlink="http://www.w3.org/1999/xlink" width="32" height="32" viewBox="0 0 32 32">
<path d="M32 13.813c-0.125-4.875-4.063-9.25-9-9.25-2.875 0-5.375 1.5-7 3.688-1.625-2.188-4.125-3.688-7-3.688-4.938 0-8.875 4.375-9 9.25v0c0 0.063 0 0.063 0 0.125 0 0 0 0 0 0.063 0 0.125 0.063 0.25 0.063 0.375 0.438 12.5 15.813 17.625 15.813 17.625s15.625-5.125 16.063-17.625c0-0.125 0.063-0.25 0.063-0.375 0-0.063 0-0.063 0-0.063 0-0.063 0-0.063 0-0.125z"></path>
</svg>
