<?xml version="1.0" encoding="utf-8"?>
<!DOCTYPE svg PUBLIC "-//W3C//DTD SVG 1.1//EN" "http://www.w3.org/Graphics/SVG/1.1/DTD/svg11.dtd">
<svg version="1.1" xmlns="http://www.w3.org/2000/svg" xmlns:xlink="http://www.w3.org/1999/xlink" width="32" height="32" viewBox="0 0 32 32">
<path d="M26 0h-24c-1.125 0-2 0.875-2 2v28c0 1.125 0.875 2 2 2h24c1.125 0 2-0.875 2-2v-28c0-1.125-0.875-2-2-2zM2 2h4v28h-4zM26 30h-18v-28h18zM13.875 10.75c0 1.688 1.313 3 3 3s3.063-1.313 3.063-3c0-1.688-1.375-3.063-3.063-3.063s-3 1.375-3 3.063zM16.938 15c-2.75 0-4.938 2.938-4.938 6.625s9.875 3.688 9.875 0c0-3.688-2.188-6.625-4.938-6.625zM30 2h2v6h-2zM30 10h2v6h-2zM30 18h2v6h-2z"></path>
</svg>
