<?xml version="1.0" encoding="utf-8"?>
<!DOCTYPE svg PUBLIC "-//W3C//DTD SVG 1.1//EN" "http://www.w3.org/Graphics/SVG/1.1/DTD/svg11.dtd">
<svg version="1.1" xmlns="http://www.w3.org/2000/svg" xmlns:xlink="http://www.w3.org/1999/xlink" width="32" height="32" viewBox="0 0 32 32">
<path d="M25.313 2h-18.813c-1.125 0-2 0.75-2.5 2l-4 13.938v11.063c0 0.563 0.438 1 1 1h30c0.563 0 1-0.438 1-1v-10.938l-4-14.063c-0.563-1.25-1.563-2-2.688-2zM5.875 4.688c0.125-0.25 0.313-0.688 0.625-0.688h18.813c0.25 0 0.563 0.313 0.813 0.688l3.75 13.313h-8.875c-0.563 0-1 0.438-1 1v3h-8v-3c0-0.563-0.438-1-1-1h-8.938zM30 28h-28v-8h8v3c0 0.563 0.438 1 1 1h10c0.563 0 1-0.438 1-1v-3h8z"></path>
</svg>
