<?xml version="1.0" encoding="utf-8"?>
<!DOCTYPE svg PUBLIC "-//W3C//DTD SVG 1.1//EN" "http://www.w3.org/Graphics/SVG/1.1/DTD/svg11.dtd">
<svg version="1.1" xmlns="http://www.w3.org/2000/svg" xmlns:xlink="http://www.w3.org/1999/xlink" width="32" height="32" viewBox="0 0 32 32">
<path d="M30 10h-2v-8c0-1.125-0.875-2-2-2h-20c-1.125 0-2 0.875-2 2v8h-2c-1.125 0-2 0.875-2 2v10c0 1.125 0.875 2 2 2h2v6c0 1.125 0.875 2 2 2h20c1.125 0 2-0.875 2-2v-6h2c1.125 0 2-0.875 2-2v-10c0-1.125-0.875-2-2-2zM6 20h20v10h-20zM22 15c0-0.563 0.438-1 1-1s1 0.438 1 1c0 0.563-0.438 1-1 1s-1-0.438-1-1zM5 16c-0.563 0-1-0.438-1-1s0.438-1 1-1c0.563 0 1 0.438 1 1s-0.438 1-1 1zM27 16c-0.563 0-1-0.438-1-1s0.438-1 1-1c0.563 0 1 0.438 1 1s-0.438 1-1 1zM6 2h20v8h-20zM24 23c0-0.563-0.438-1-1-1h-14c-0.563 0-1 0.438-1 1s0.438 1 1 1h14c0.563 0 1-0.438 1-1zM23 26h-14c-0.563 0-1 0.438-1 1s0.438 1 1 1h14c0.563 0 1-0.438 1-1s-0.438-1-1-1z"></path>
</svg>
