<?xml version="1.0" encoding="utf-8"?>
<!DOCTYPE svg PUBLIC "-//W3C//DTD SVG 1.1//EN" "http://www.w3.org/Graphics/SVG/1.1/DTD/svg11.dtd">
<svg version="1.1" xmlns="http://www.w3.org/2000/svg" xmlns:xlink="http://www.w3.org/1999/xlink" width="32" height="32" viewBox="0 0 32 32">
<path d="M13.188 8.063c-0.375-4.375-4.938-6.563-5.125-6.625-0.188-0.125-0.375-0.125-0.563-0.063-5.313 0.875-6.125 3.938-6.125 4.063-0.063 0.188-0.063 0.375 0 0.563 6.313 19.563 19.438 23.188 23.75 24.375 0.313 0.125 0.625 0.188 0.813 0.25 0.063 0 0.188 0.063 0.313 0.063s0.25-0.063 0.375-0.125c0.188-0.063 3.25-1.5 4.063-6.313 0-0.188 0-0.438-0.125-0.625-0.063-0.125-1.688-3.188-6.188-4.313-0.313-0.063-0.688 0-0.938 0.188-1.375 1.25-3.375 2.563-4.25 2.688-5.688-2.813-8.875-8.125-9-9.188-0.063-0.563 1.25-2.563 2.75-4.188 0.188-0.188 0.313-0.438 0.25-0.75z"></path>
</svg>
