<?xml version="1.0" encoding="utf-8"?>
<!DOCTYPE svg PUBLIC "-//W3C//DTD SVG 1.1//EN" "http://www.w3.org/Graphics/SVG/1.1/DTD/svg11.dtd">
<svg version="1.1" xmlns="http://www.w3.org/2000/svg" xmlns:xlink="http://www.w3.org/1999/xlink" width="32" height="32" viewBox="0 0 32 32">
<path d="M27.188 16.125c0.125-0.375 0.25-0.75 0.375-1.125 0-0.063 0-0.125 0.063-0.188 0.063-0.375 0.125-0.75 0.188-1.125 0-0.125 0-0.188 0.063-0.313 0-0.438 0.063-0.875 0.063-1.375 0-6.625-5.375-12-12-12s-12 5.375-12 12c0 0.5 0 0.938 0.063 1.375 0 0.125 0.063 0.188 0.063 0.313 0.063 0.375 0.125 0.75 0.188 1.125 0.063 0.063 0.063 0.125 0.063 0.188 0.125 0.375 0.25 0.75 0.375 1.125 0 0.063 0 0.125 0.063 0.125 0.125 0.438 0.313 0.813 0.5 1.188 0 0.063 0 0.063 0.063 0.063 0.188 0.438 0.438 0.813 0.688 1.188 0 0 0 0 0 0 0.25 0.375 0.5 0.75 0.813 1.125 0 0 0.063 0 0.063 0.063 0.25 0.313 0.563 0.563 0.875 0.875 0.063 0.063 0.125 0.125 0.188 0.188s0.188 0.125 0.25 0.25c0.063 0 0.125 0.063 0.188 0.125 0.188 0.125 0.375 0.313 0.563 0.438 0.125 0.063 0.188 0.125 0.25 0.188 1.375 1.188 0.688 2.063 2.25 2.063 0.188 0 7 0 9 0 1.563 0 0.875-0.875 2.25-2.063 0.063-0.063 0.125-0.125 0.188-0.188 0.25-0.125 0.438-0.313 0.625-0.438 0.063-0.063 0.125-0.125 0.188-0.125 0.063-0.125 0.188-0.188 0.25-0.25s0.125-0.125 0.188-0.188c0.313-0.313 0.563-0.563 0.875-0.875 0-0.063 0-0.063 0.063-0.063 0.25-0.375 0.563-0.75 0.813-1.125 0 0 0 0 0 0 0.25-0.375 0.5-0.75 0.688-1.188 0 0 0 0 0.063-0.063 0.188-0.375 0.375-0.75 0.5-1.188 0 0 0.063-0.063 0.063-0.125zM23 12.125c-0.563 0-1-0.5-1-1 0-3.063-2.75-5.125-5-5.125-0.563 0-1-0.438-1-1s0.438-1 1-1c3.438 0 7 2.563 7 7.125 0 0.5-0.438 1-1 1zM15.813 30h-4.375l3.563 1.875c0.313 0.125 0.625 0.188 0.938 0.188s0.625-0.063 0.875-0.188l3.688-1.875zM22 27c0-0.563-0.438-1-1-1h-10c-0.563 0-1 0.438-1 1s0.438 1 1 1h10c0.563 0 1-0.438 1-1z"></path>
</svg>
