<?xml version="1.0" encoding="utf-8"?>
<!DOCTYPE svg PUBLIC "-//W3C//DTD SVG 1.1//EN" "http://www.w3.org/Graphics/SVG/1.1/DTD/svg11.dtd">
<svg version="1.1" xmlns="http://www.w3.org/2000/svg" xmlns:xlink="http://www.w3.org/1999/xlink" width="32" height="32" viewBox="0 0 32 32">
<path d="M24 0h-22c-1.125 0-2 0.875-2 2v28c0 1.125 0.875 2 2 2h28c1.125 0 2-0.875 2-2v-24l-6-6zM24 2v8h-4v-8zM18 2v8h-10v-8zM8 30v-12h16v12zM30 30h-4v-12c0-1.125-0.875-2-2-2h-16c-1.125 0-2 0.875-2 2v12h-4v-28h4v8c0 1.125 0.875 2 2 2h16c1.125 0 2-0.875 2-2v-7.188l4 4z"></path>
</svg>
