<?xml version="1.0" encoding="utf-8"?>
<!DOCTYPE svg PUBLIC "-//W3C//DTD SVG 1.1//EN" "http://www.w3.org/Graphics/SVG/1.1/DTD/svg11.dtd">
<svg version="1.1" xmlns="http://www.w3.org/2000/svg" xmlns:xlink="http://www.w3.org/1999/xlink" width="32" height="32" viewBox="0 0 32 32">
<path d="M19 0c-7.188 0-13 5.813-13 13 0 3.063 1.063 5.938 2.875 8.188l-8.563 8.563c-0.563 0.563-0.563 1.438 0 1.938 0.5 0.563 1.375 0.563 1.938 0l8.563-8.563c2.25 1.813 5.125 2.875 8.188 2.875 7.188 0 13-5.813 13-13s-5.813-13-13-13zM19 24c-6.063 0-11-4.938-11-11s4.938-11 11-11c6.063 0 11 4.938 11 11s-4.938 11-11 11z"></path>
</svg>
