<?xml version="1.0" encoding="utf-8"?>
<!DOCTYPE svg PUBLIC "-//W3C//DTD SVG 1.1//EN" "http://www.w3.org/Graphics/SVG/1.1/DTD/svg11.dtd">
<svg version="1.1" xmlns="http://www.w3.org/2000/svg" xmlns:xlink="http://www.w3.org/1999/xlink" width="32" height="32" viewBox="0 0 32 32">
<path d="M27 22.813c0 0.125 0.125 0.188 0.188 0.188 0.125 0 0.188-0.063 0.188-0.188 0-0.063-0.063-0.188-0.188-0.188-0.063 0-0.188 0.125-0.188 0.188zM23 26.938c0 0.25 0.188 0.375 0.375 0.375s0.375-0.125 0.375-0.375c0-0.188-0.188-0.313-0.375-0.313s-0.375 0.125-0.375 0.313zM17.563 29.125c0 0.25 0.25 0.5 0.563 0.5s0.563-0.25 0.563-0.5c0-0.313-0.25-0.563-0.563-0.563s-0.563 0.25-0.563 0.563zM11.75 28.813c0 0.375 0.313 0.75 0.75 0.75 0.375 0 0.688-0.375 0.688-0.75s-0.313-0.75-0.688-0.75c-0.438 0-0.75 0.375-0.75 0.75zM6.563 26.188c0 0.5 0.438 0.875 0.938 0.875s0.875-0.375 0.875-0.875c0-0.5-0.375-0.938-0.875-0.938s-0.938 0.438-0.938 0.938zM3 21.625c0 0.625 0.5 1.125 1.063 1.125 0.625 0 1.125-0.5 1.125-1.125 0-0.563-0.5-1.063-1.125-1.063-0.563 0-1.063 0.5-1.063 1.063zM1.688 16.125c0 0.688 0.563 1.25 1.25 1.25s1.25-0.563 1.25-1.25c0-0.688-0.563-1.313-1.25-1.313s-1.25 0.625-1.25 1.313zM2.75 10.625c0 0.75 0.688 1.438 1.438 1.438 0.813 0 1.5-0.688 1.5-1.438 0-0.813-0.688-1.5-1.5-1.5-0.75 0-1.438 0.688-1.438 1.5zM6.063 6.188c0 0.875 0.75 1.625 1.625 1.625 0.938 0 1.688-0.75 1.688-1.625 0-0.938-0.75-1.625-1.688-1.625-0.875 0-1.625 0.688-1.625 1.625zM10.938 3.625c0 1 0.813 1.813 1.813 1.813s1.813-0.813 1.813-1.813c0-1-0.813-1.813-1.813-1.813s-1.813 0.813-1.813 1.813zM16.438 3.438c0 1.125 0.875 2 2 2 1.063 0 2-0.875 2-2 0-1.063-0.938-1.938-2-1.938-1.125 0-2 0.875-2 1.938zM21.438 5.75c0 1.188 1 2.125 2.188 2.125s2.188-0.938 2.188-2.125c0-1.25-1-2.188-2.188-2.188s-2.188 0.938-2.188 2.188zM25 9.938c0 1.313 1.063 2.375 2.375 2.375 1.25 0 2.313-1.063 2.313-2.375s-1.063-2.313-2.313-2.313c-1.313 0-2.375 1-2.375 2.313zM26.438 15.438c0 1.375 1.125 2.563 2.5 2.563 1.438 0 2.563-1.188 2.563-2.563s-1.125-2.563-2.563-2.563c-1.375 0-2.5 1.188-2.5 2.563z"></path>
</svg>
