<?xml version="1.0" encoding="utf-8"?>
<!DOCTYPE svg PUBLIC "-//W3C//DTD SVG 1.1//EN" "http://www.w3.org/Graphics/SVG/1.1/DTD/svg11.dtd">
<svg version="1.1" xmlns="http://www.w3.org/2000/svg" xmlns:xlink="http://www.w3.org/1999/xlink" width="32" height="32" viewBox="0 0 32 32">
<path d="M30 6h-10v4c0 1.125-0.875 2-2 2h1c1.625 0 3-1.375 3-3 0-0.375 0-0.688 0-1h8v22h-28v-22h8c0 0.313 0 0.625 0 1 0 1.625 1.375 3 3 3h1c-1.125 0-2-0.875-2-2v-4h-10c-1.125 0-2 0.875-2 2v22c0 1.125 0.875 2 2 2h28c1.125 0 2-0.875 2-2v-22c0-1.125-0.875-2-2-2zM27.188 20h-12.188c-0.563 0-1 0.438-1 1s0.438 1 1 1h12.188c0.5 0 1-0.438 1-1s-0.5-1-1-1zM27.188 24h-12.188c-0.563 0-1 0.438-1 1s0.438 1 1 1h12.188c0.5 0 1-0.438 1-1s-0.5-1-1-1zM15 18h12.188c0.5 0 1-0.438 1-1s-0.5-1-1-1h-12.188c-0.563 0-1 0.438-1 1s0.438 1 1 1zM5.563 16.438c0 1.313 1.125 2.375 2.438 2.375s2.438-1.063 2.438-2.375c0-1.375-1.125-2.438-2.438-2.438s-2.438 1.063-2.438 2.438zM8.063 19.813c-2.188 0-3.938 2.375-3.938 5.313 0 2.875 7.875 2.875 7.875 0 0-2.938-1.75-5.313-3.938-5.313zM12 10c0 1.125 0.875 2 2 2h4c1.125 0 2-0.875 2-2v-8c0-1.125-0.875-2-2-2h-4c-1.125 0-2 0.875-2 2zM18 10h-4v-8h4z"></path>
</svg>
