<?xml version="1.0" encoding="utf-8"?>
<!DOCTYPE svg PUBLIC "-//W3C//DTD SVG 1.1//EN" "http://www.w3.org/Graphics/SVG/1.1/DTD/svg11.dtd">
<svg version="1.1" xmlns="http://www.w3.org/2000/svg" xmlns:xlink="http://www.w3.org/1999/xlink" width="32" height="32" viewBox="0 0 32 32">
<path d="M9.75 3.938c1.125-1.125 3-1.125 4.125 0l10.375 10.375c0.5-1.938 0.063-4.063-1.438-5.563l-6.875-6.875c-2.313-2.25-6-2.25-8.25 0l-1.563 1.563c-2.25 2.25-2.25 5.938 0 8.188l6.875 6.875c1.5 1.5 3.688 2 5.625 1.5l-10.438-10.438c-1.125-1.125-1.125-2.938 0-4.063zM16.063 29.125c2.313 2.313 6 2.313 8.25 0l1.563-1.5c2.25-2.313 2.25-6 0-8.25l-6.875-6.875c-1.5-1.5-3.688-2-5.625-1.438l10.438 10.375c1.125 1.125 1.125 3 0 4.125l-1.563 1.563c-1.125 1.125-3 1.125-4.125 0l-10.375-10.438c-0.5 1.938-0.063 4.063 1.438 5.625z"></path>
</svg>
