<?xml version="1.0" encoding="utf-8"?>
<!DOCTYPE svg PUBLIC "-//W3C//DTD SVG 1.1//EN" "http://www.w3.org/Graphics/SVG/1.1/DTD/svg11.dtd">
<svg version="1.1" xmlns="http://www.w3.org/2000/svg" xmlns:xlink="http://www.w3.org/1999/xlink" width="32" height="32" viewBox="0 0 32 32">
<path d="M16.063 0c-8.813 0-16 7.188-16 16s7.188 16 16 16c8.875 0 16-7.188 16-16s-7.125-16-16-16zM23.5 11.563l-7.688 11.75c0 0 0 0 0 0 0 0.063-0.063 0.125-0.125 0.188s-0.125 0.125-0.188 0.125c-0.063 0.063-0.063 0.063-0.063 0.063-0.125 0.063-0.25 0.125-0.438 0.188 0 0-0.063 0-0.125 0-0.125 0.063-0.188 0.063-0.313 0-0.125 0-0.188 0-0.25 0-0.063-0.063-0.125-0.063-0.25-0.125-0.063 0-0.125 0-0.188-0.063 0 0-0.063-0.063-0.063-0.125-0.063 0-0.063 0-0.063 0l-4.5-4.125c-0.563-0.563-0.563-1.438-0.063-2s1.438-0.563 2-0.063l3.188 3 6.75-10.313c0.438-0.688 1.313-0.875 1.938-0.438 0.688 0.438 0.875 1.313 0.438 1.938z"></path>
</svg>
