<?xml version="1.0" encoding="utf-8"?>
<!DOCTYPE svg PUBLIC "-//W3C//DTD SVG 1.1//EN" "http://www.w3.org/Graphics/SVG/1.1/DTD/svg11.dtd">
<svg version="1.1" xmlns="http://www.w3.org/2000/svg" xmlns:xlink="http://www.w3.org/1999/xlink" width="32" height="32" viewBox="0 0 32 32">
<path d="M16 0c-8.813 0-16 7.188-16 16s7.188 16 16 16c8.813 0 16-7.188 16-16s-7.188-16-16-16zM23.875 9.5l-2.375 3.75-1.5 2.5c0 0.063 0 0.188 0 0.25 0 2.188-1.813 4-4 4-0.063 0-0.188 0-0.25 0l-2.5 1.5-3.75 2.375c-0.125 0.063-0.313 0.125-0.5 0.125-0.25 0-0.5-0.125-0.688-0.313-0.375-0.313-0.438-0.813-0.188-1.188l2.375-3.75 1.5-2.5c0-0.063 0-0.188 0-0.25 0-2.188 1.813-4 4-4 0.063 0 0.188 0 0.25 0l2.5-1.5 3.75-2.375c0.375-0.25 0.875-0.188 1.188 0.188 0.375 0.313 0.438 0.813 0.188 1.188zM14 16c0 1.125 0.875 2 2 2s2-0.875 2-2c0-1.125-0.875-2-2-2s-2 0.875-2 2z"></path>
</svg>
