<?xml version="1.0" encoding="utf-8"?>
<!DOCTYPE svg PUBLIC "-//W3C//DTD SVG 1.1//EN" "http://www.w3.org/Graphics/SVG/1.1/DTD/svg11.dtd">
<svg version="1.1" xmlns="http://www.w3.org/2000/svg" xmlns:xlink="http://www.w3.org/1999/xlink" width="32" height="32" viewBox="0 0 32 32">
<path d="M29.063 2c0 0-0.063 0-0.063 0s0 0-0.063 0h-12.563c-0.313 0-1 0.5-1.063 0.563l-14.75 14.75c-0.75 0.75-0.75 2.063 0 2.813l11.313 11.313c0.375 0.375 0.875 0.563 1.438 0.563 0.5 0 1-0.188 1.375-0.563l14.75-14.75c0.063-0.063 0.563-0.688 0.563-1.063v-12.625c0-0.563-0.375-1-0.938-1zM27 6c-0.563 0-1-0.438-1-1s0.438-1 1-1c0.563 0 1 0.438 1 1s-0.438 1-1 1z"></path>
</svg>
