<?xml version="1.0" encoding="utf-8"?>
<!DOCTYPE svg PUBLIC "-//W3C//DTD SVG 1.1//EN" "http://www.w3.org/Graphics/SVG/1.1/DTD/svg11.dtd">
<svg version="1.1" xmlns="http://www.w3.org/2000/svg" xmlns:xlink="http://www.w3.org/1999/xlink" width="32" height="32" viewBox="0 0 32 32">
<path d="M23.188 0.563c-0.375-0.375-0.875-0.563-1.375-0.563h-11.625c-0.5 0-1 0.188-1.375 0.563l-8.25 8.25c-0.375 0.375-0.563 0.875-0.563 1.375v11.625c0 0.5 0.188 1 0.563 1.375l8.25 8.25c0.375 0.375 0.875 0.563 1.375 0.563h11.625c0.5 0 1-0.188 1.375-0.563l8.25-8.25c0.375-0.375 0.563-0.875 0.563-1.375v-11.625c0-0.5-0.188-1-0.563-1.375zM16 20c-1.125 0-2-0.875-2-2v-12c0-1.125 0.875-2 2-2s2 0.875 2 2v12c0 1.125-0.875 2-2 2zM18 26c0 1.125-0.875 2-2 2s-2-0.875-2-2c0-1.125 0.875-2 2-2s2 0.875 2 2z"></path>
</svg>
