<?xml version="1.0" encoding="utf-8"?>
<!DOCTYPE svg PUBLIC "-//W3C//DTD SVG 1.1//EN" "http://www.w3.org/Graphics/SVG/1.1/DTD/svg11.dtd">
<svg version="1.1" xmlns="http://www.w3.org/2000/svg" xmlns:xlink="http://www.w3.org/1999/xlink" width="32" height="32" viewBox="0 0 32 32">
<path d="M14.063 4.875c0-2.625-2.25-4.875-4.875-4.875-2.563 0-4.813 2.25-4.813 4.875 0 2.563 2.25 4.813 4.813 4.813 2.625 0 4.875-2.25 4.875-4.813zM17.438 23.25c0-7.75-4-11.625-8.438-11.625-4.5 0-8.5 3.875-8.5 11.625 0 5.313 16.938 5.313 16.938 0zM23.25 13.5c2.625 0 4.875-2.313 4.875-4.875 0-2.625-2.25-4.875-4.875-4.875-2.563 0-4.813 2.25-4.813 4.875 0 2.563 2.25 4.875 4.813 4.875zM23 15.438c-1.313 0-2.563 0.375-3.75 1.063 0.688 1.875 1.125 4.125 1.125 6.75s-1.75 4.688-4.75 5.813c3.688 3.188 15.875 2.5 15.875-2 0-7.75-4-11.625-8.5-11.625z"></path>
</svg>
