<?xml version="1.0" encoding="utf-8"?>
<!DOCTYPE svg PUBLIC "-//W3C//DTD SVG 1.1//EN" "http://www.w3.org/Graphics/SVG/1.1/DTD/svg11.dtd">
<svg version="1.1" xmlns="http://www.w3.org/2000/svg" xmlns:xlink="http://www.w3.org/1999/xlink" width="32" height="32" viewBox="0 0 32 32">
<path d="M4 10h4c1.125 0 2-0.875 2-2v-4c0-1.125-0.875-2-2-2h-4c-1.125 0-2 0.875-2 2v4c0 1.125 0.875 2 2 2zM14 10h4c1.125 0 2-0.875 2-2v-4c0-1.125-0.875-2-2-2h-4c-1.125 0-2 0.875-2 2v4c0 1.125 0.875 2 2 2zM24 10h4c1.125 0 2-0.875 2-2v-4c0-1.125-0.875-2-2-2h-4c-1.125 0-2 0.875-2 2v4c0 1.125 0.875 2 2 2zM2 18c0 1.125 0.875 2 2 2h4c1.125 0 2-0.875 2-2v-4c0-1.125-0.875-2-2-2h-4c-1.125 0-2 0.875-2 2zM12 18c0 1.125 0.875 2 2 2h4c1.125 0 2-0.875 2-2v-4c0-1.125-0.875-2-2-2h-4c-1.125 0-2 0.875-2 2zM22 18c0 1.125 0.875 2 2 2h4c1.125 0 2-0.875 2-2v-4c0-1.125-0.875-2-2-2h-4c-1.125 0-2 0.875-2 2zM2 28c0 1.125 0.875 2 2 2h4c1.125 0 2-0.875 2-2v-4c0-1.125-0.875-2-2-2h-4c-1.125 0-2 0.875-2 2zM12 28c0 1.125 0.875 2 2 2h4c1.125 0 2-0.875 2-2v-4c0-1.125-0.875-2-2-2h-4c-1.125 0-2 0.875-2 2zM22 28c0 1.125 0.875 2 2 2h4c1.125 0 2-0.875 2-2v-4c0-1.125-0.875-2-2-2h-4c-1.125 0-2 0.875-2 2z"></path>
</svg>
