<?xml version="1.0" encoding="utf-8"?>
<!DOCTYPE svg PUBLIC "-//W3C//DTD SVG 1.1//EN" "http://www.w3.org/Graphics/SVG/1.1/DTD/svg11.dtd">
<svg version="1.1" xmlns="http://www.w3.org/2000/svg" xmlns:xlink="http://www.w3.org/1999/xlink" width="32" height="32" viewBox="0 0 32 32">
<path d="M16 0c-8.813 0-16 7.188-16 16s7.188 16 16 16c8.813 0 16-7.188 16-16s-7.188-16-16-16zM14 14c0-1.125 0.875-2 2-2s2 0.875 2 2v10c0 1.125-0.875 2-2 2s-2-0.875-2-2zM16 10.063c-1.125 0-2-0.938-2-2 0-1.125 0.875-2 2-2s2 0.875 2 2c0 1.063-0.875 2-2 2z"></path>
</svg>
