<?xml version="1.0" encoding="utf-8"?>
<!DOCTYPE svg PUBLIC "-//W3C//DTD SVG 1.1//EN" "http://www.w3.org/Graphics/SVG/1.1/DTD/svg11.dtd">
<svg version="1.1" xmlns="http://www.w3.org/2000/svg" xmlns:xlink="http://www.w3.org/1999/xlink" width="32" height="32" viewBox="0 0 32 32">
<path d="M6.313 6.313c-5.688 5.625-5.688 14.813 0 20.5 5.625 5.625 14.813 5.625 20.5 0 5.625-5.688 5.625-14.875 0-20.5-5.688-5.688-14.875-5.688-20.5 0zM24.25 17.438h-7.75c0 0 0 0 0 0-0.563 0-1-0.438-1-0.938v-9.688c0-0.563 0.438-1 1-1 0.5 0 0.938 0.438 0.938 1v8.688h6.813c0.5 0 0.938 0.438 0.938 1 0 0.5-0.438 0.938-0.938 0.938z"></path>
</svg>
