<?xml version="1.0" encoding="utf-8"?>
<!DOCTYPE svg PUBLIC "-//W3C//DTD SVG 1.1//EN" "http://www.w3.org/Graphics/SVG/1.1/DTD/svg11.dtd">
<svg version="1.1" xmlns="http://www.w3.org/2000/svg" xmlns:xlink="http://www.w3.org/1999/xlink" width="32" height="32" viewBox="0 0 32 32">
<path d="M6 32h20c1.125 0 2-0.875 2-2v-28c0-1.125-0.875-2-2-2h-20c-1.125 0-2 0.875-2 2v28c0 1.125 0.875 2 2 2zM22 22c-1.125 0-2-0.875-2-2s0.875-2 2-2c1.125 0 2 0.875 2 2s-0.875 2-2 2zM24 26c0 1.125-0.875 2-2 2s-2-0.875-2-2c0-1.125 0.875-2 2-2s2 0.875 2 2zM22 16c-1.125 0-2-0.875-2-2s0.875-2 2-2c1.125 0 2 0.875 2 2s-0.875 2-2 2zM8 8v-4h16v4zM16 22c-1.125 0-2-0.875-2-2s0.875-2 2-2c1.125 0 2 0.875 2 2s-0.875 2-2 2zM18 26c0 1.125-0.875 2-2 2s-2-0.875-2-2c0-1.125 0.875-2 2-2s2 0.875 2 2zM16 16c-1.125 0-2-0.875-2-2s0.875-2 2-2c1.125 0 2 0.875 2 2s-0.875 2-2 2zM10 12c1.125 0 2 0.875 2 2s-0.875 2-2 2c-1.125 0-2-0.875-2-2s0.875-2 2-2zM10 18c1.125 0 2 0.875 2 2s-0.875 2-2 2c-1.125 0-2-0.875-2-2s0.875-2 2-2zM10 24c1.125 0 2 0.875 2 2s-0.875 2-2 2c-1.125 0-2-0.875-2-2s0.875-2 2-2z"></path>
</svg>
