<?xml version="1.0" encoding="utf-8"?>
<!DOCTYPE svg PUBLIC "-//W3C//DTD SVG 1.1//EN" "http://www.w3.org/Graphics/SVG/1.1/DTD/svg11.dtd">
<svg version="1.1" xmlns="http://www.w3.org/2000/svg" xmlns:xlink="http://www.w3.org/1999/xlink" width="32" height="32" viewBox="0 0 32 32">
<path d="M30 0c-1.125 0-2.063 0.938-2.063 2v4.75c-2.25-2.75-4.875-6.75-12.125-6.75-8.75 0-15.813 7.063-15.813 15.813 0 8.688 7.063 15.75 15.813 15.75 6.813 0 12.813-4.375 15-10.875 0.313-1.063-0.25-2.25-1.313-2.563-1.125-0.375-2.25 0.188-2.625 1.313-1.563 4.813-6.063 8-11.063 8-6.438 0-11.688-5.25-11.688-11.625 0-6.438 5.25-11.688 11.688-11.688 4.5 0 7.063 2.875 9.125 5.813h-5.125c-1.063 0-2 0.938-2 2.063s0.938 2 2 2h10.188c1.063 0 2-0.875 2-2v-10c0-1.063-0.938-2-2-2z"></path>
</svg>
