<?xml version="1.0" encoding="utf-8"?>
<!DOCTYPE svg PUBLIC "-//W3C//DTD SVG 1.1//EN" "http://www.w3.org/Graphics/SVG/1.1/DTD/svg11.dtd">
<svg version="1.1" xmlns="http://www.w3.org/2000/svg" xmlns:xlink="http://www.w3.org/1999/xlink" width="32" height="32" viewBox="0 0 32 32">
<path d="M26 10.625v-8.625h1c0.563 0 1-0.438 1-1s-0.438-1-1-1h-20c-0.563 0-1 0.438-1 1s0.438 1 1 1h1v8.625c0 0.625 0.25 1.125 0.688 1.5l4.313 3.875-4.313 3.875c-0.438 0.375-0.688 0.875-0.688 1.5v8.625h-1c-0.563 0-1 0.438-1 1s0.438 1 1 1h20c0.563 0 1-0.438 1-1s-0.438-1-1-1h-1v-8.625c0-0.625-0.25-1.125-0.688-1.5l-4.313-3.875 4.313-3.875c0.438-0.375 0.688-0.875 0.688-1.5zM24 10.625l-6 5.375 6 5.375v8.625h-14v-8.625l6-5.375-6-5.375v-8.625h14zM22 7.75v-1.75h-10v1.75l5 4.438zM12 24.25v3.75h10v-3.75l-2.5-2.25h-5z"></path>
</svg>
