<?xml version="1.0" encoding="utf-8"?>
<!DOCTYPE svg PUBLIC "-//W3C//DTD SVG 1.1//EN" "http://www.w3.org/Graphics/SVG/1.1/DTD/svg11.dtd">
<svg version="1.1" xmlns="http://www.w3.org/2000/svg" xmlns:xlink="http://www.w3.org/1999/xlink" width="32" height="32" viewBox="0 0 32 32">
<path d="M2 24.25h4.563c0.375 0.375 8.75 7.375 8.75 7.375 0.375 0.25 0.813 0.375 1.125 0.375 0.063 0 0.063 0 0.125 0 0.75-0.063 1.25-0.688 1.438-1.375v-29.25c-0.125-0.688-0.688-1.313-1.438-1.375-0.063 0-0.063 0-0.125 0-0.313 0-0.75 0.125-1.125 0.375 0 0-8.375 7.25-8.75 7.625h-4.563c-1.125 0-2 0.875-2 2v12.25c0 1.125 0.875 2 2 2zM2 22v-12h4.563c0.563 0 1.063-0.188 1.438-0.563 0.313-0.375 4.875-4.313 8-7.063v27.25c-3.125-2.625-7.625-6.438-8-6.813s-0.875-0.563-1.438-0.563h-4.563zM31.625 10.813c-0.438-0.438-1.25-0.438-1.688 0l-3.5 3.438-3.438-3.438c-0.438-0.438-1.25-0.438-1.688 0-0.5 0.5-0.5 1.25 0 1.75l3.438 3.438-3.438 3.438c-0.5 0.5-0.5 1.25 0 1.75 0.438 0.438 1.25 0.438 1.688 0l3.438-3.438 3.5 3.438c0.438 0.438 1.25 0.438 1.688 0 0.5-0.5 0.5-1.25 0-1.75l-3.438-3.438 3.438-3.438c0.5-0.5 0.5-1.25 0-1.75z"></path>
</svg>
