<?xml version="1.0" encoding="utf-8"?>
<!DOCTYPE svg PUBLIC "-//W3C//DTD SVG 1.1//EN" "http://www.w3.org/Graphics/SVG/1.1/DTD/svg11.dtd">
<svg version="1.1" xmlns="http://www.w3.org/2000/svg" xmlns:xlink="http://www.w3.org/1999/xlink" width="32" height="32" viewBox="0 0 32 32">
<path d="M30 10h-8c0 1.125-0.875 2-2 2h10v4h-10c1.125 0 2 0.875 2 2h8v12h-28v-12h8c0-1.125 0.875-2 2-2h-10v-4h10c-1.125 0-2-0.875-2-2h-8c-1.125 0-2 0.875-2 2v18c0 1.125 0.875 2 2 2h28c1.125 0 2-0.875 2-2v-18c0-1.125-0.875-2-2-2zM12 12h8c1.125 0 2-0.875 2-2v-2c0-1.125-0.875-2-2-2h-8c-1.125 0-2 0.875-2 2v2c0 1.125 0.875 2 2 2zM12 8h8v2h-8zM10 18v2c0 1.125 0.875 2 2 2h8c1.125 0 2-0.875 2-2v-2c0-1.125-0.875-2-2-2h-8c-1.125 0-2 0.875-2 2zM20 20h-8v-2h8z"></path>
</svg>
