<?xml version="1.0" encoding="utf-8"?>
<!DOCTYPE svg PUBLIC "-//W3C//DTD SVG 1.1//EN" "http://www.w3.org/Graphics/SVG/1.1/DTD/svg11.dtd">
<svg version="1.1" xmlns="http://www.w3.org/2000/svg" xmlns:xlink="http://www.w3.org/1999/xlink" width="32" height="32" viewBox="0 0 32 32">
<path d="M13.625 6.75c-2-2.063-4.625-2.188-6.375-0.438-1.813 1.813-1.625 4.375 0.375 6.438l11.125 11.125c0.375 0.375 1 0.375 1.375 0s0.375-1 0-1.375l-11.125-11.125c-1-1-1.625-2.438-0.438-3.688 1.25-1.188 2.75-0.563 3.688 0.438l12.375 12.375c3.563 3.5 4.438 5.188 2.313 7.25-2.125 2.125-4.375 1.625-7.813-1.813l-13.688-13.688c-2.25-2.188-3.813-5.813-0.875-8.75 3.438-3.438 7.375-0.063 8.5 1.063l12.625 12.625c0.375 0.375 1 0.375 1.375 0s0.375-1 0-1.375l-12.625-12.625c-3.813-3.813-8.125-4.188-11.25-1.063-3.188 3.188-2.813 7.813 0.875 11.5l13.688 13.688c1.188 1.188 3.688 3.688 6.563 3.688 1.25 0 2.625-0.5 4-1.875 3.875-3.875 0.313-7.438-2.313-10z"></path>
</svg>
