<?xml version="1.0" encoding="utf-8"?>
<!DOCTYPE svg PUBLIC "-//W3C//DTD SVG 1.1//EN" "http://www.w3.org/Graphics/SVG/1.1/DTD/svg11.dtd">
<svg version="1.1" xmlns="http://www.w3.org/2000/svg" xmlns:xlink="http://www.w3.org/1999/xlink" width="32" height="32" viewBox="0 0 32 32">
<path d="M24 0h-22c-1.125 0-2 0.875-2 2v28c0 1.125 0.875 2 2 2h28c1.125 0 2-0.875 2-2v-24l-6-6zM22 10v-8h2v8c0 1.125-0.875 2-2 2h-12c-1.125 0-2-0.875-2-2v-8h8v8zM6 18c0-1.125 0.875-2 2-2h16c1.125 0 2 0.875 2 2v12h-20z"></path>
</svg>
