<?xml version="1.0" encoding="utf-8"?>
<!DOCTYPE svg PUBLIC "-//W3C//DTD SVG 1.1//EN" "http://www.w3.org/Graphics/SVG/1.1/DTD/svg11.dtd">
<svg version="1.1" xmlns="http://www.w3.org/2000/svg" xmlns:xlink="http://www.w3.org/1999/xlink" width="32" height="32" viewBox="0 0 32 32">
<path d="M14.625 1.375c-3.75 0-7.5 1.438-10.313 4.25-5.75 5.75-5.75 15 0 20.75 2.813 2.813 6.563 4.25 10.313 4.25s7.5-1.438 10.375-4.25c5.688-5.75 5.688-15 0-20.75-2.875-2.813-6.625-4.25-10.375-4.25zM9.438 21.188c-1.375-1.375-2.125-3.25-2.125-5.188s0.75-3.813 2.125-5.188c1.375-1.375 3.25-2.125 5.188-2.125s3.813 0.75 5.188 2.125c1.375 1.375 2.125 3.25 2.125 5.188s-0.75 3.813-2.125 5.188c-1.375 1.375-3.25 2.125-5.188 2.125s-3.813-0.75-5.188-2.125zM20.313 4.5l-2.875 2.875c-0.875-0.313-1.875-0.5-2.813-0.5-0.875 0-1.75 0.125-2.563 0.375l-2.875-2.813c1.688-0.813 3.5-1.25 5.438-1.25 2 0 3.938 0.5 5.688 1.313zM3.063 10.563l2.813 2.875c-0.5 1.75-0.5 3.625 0.125 5.375l-2.875 2.875c-0.813-1.75-1.313-3.688-1.313-5.688 0-1.938 0.438-3.75 1.25-5.438zM5.563 25.063c0 0 0 0 0 0zM9.438 27.688l2.875-2.875c0.75 0.188 1.5 0.313 2.313 0.313 0.875 0 1.75-0.125 2.563-0.375l2.875 2.813c-1.688 0.813-3.5 1.25-5.438 1.25-1.813 0-3.563-0.375-5.188-1.125zM26.188 21.438l-2.813-2.875c0.438-1.563 0.5-3.25 0.063-4.875l2.875-2.875c1.5 3.375 1.438 7.25-0.125 10.625z"></path>
</svg>
