<?xml version="1.0" encoding="utf-8"?>
<!DOCTYPE svg PUBLIC "-//W3C//DTD SVG 1.1//EN" "http://www.w3.org/Graphics/SVG/1.1/DTD/svg11.dtd">
<svg version="1.1" xmlns="http://www.w3.org/2000/svg" xmlns:xlink="http://www.w3.org/1999/xlink" width="32" height="32" viewBox="0 0 32 32">
<path d="M22 24v-6c0-1.125 0.875-2 2-2h6v-4c0-1.125-0.875-2-2-2h-2.313l-0.938-5.813c-0.063-0.25-0.188-0.5-0.438-0.625-0.188-0.188-0.5-0.25-0.75-0.188l-19.75 3.625c-0.25 0.063-0.5 0.188-0.625 0.438-0.188 0.25-0.25 0.5-0.188 0.75l0.375 1.813h-1.375c-1.125 0-2 0.875-2 2v18c0 1.125 0.875 2 2 2h26c1.125 0 2-0.875 2-2v-4h-6c-1.125 0-2-0.875-2-2zM5.188 8.813l17.75-3.25 0.75 4.438h-18.25zM31 18h-7v6h7c0.563 0 1-0.438 1-1v-4c0-0.563-0.438-1-1-1zM27 22c-0.563 0-1-0.438-1-1s0.438-1 1-1c0.563 0 1 0.438 1 1s-0.438 1-1 1z"></path>
</svg>
