<?xml version="1.0" encoding="utf-8"?>
<!DOCTYPE svg PUBLIC "-//W3C//DTD SVG 1.1//EN" "http://www.w3.org/Graphics/SVG/1.1/DTD/svg11.dtd">
<svg version="1.1" xmlns="http://www.w3.org/2000/svg" xmlns:xlink="http://www.w3.org/1999/xlink" width="32" height="32" viewBox="0 0 32 32">
<path d="M27 14h-16c-0.563 0-1 0.438-1 1s0.438 1 1 1h16c0.563 0 1-0.438 1-1s-0.438-1-1-1zM27 6h-16c-0.563 0-1 0.438-1 1s0.438 1 1 1h16c0.563 0 1-0.438 1-1s-0.438-1-1-1zM27 22h-16c-0.563 0-1 0.438-1 1s0.438 1 1 1h16c0.563 0 1-0.438 1-1s-0.438-1-1-1zM6.938 9.438v-4.875h-0.563l-1.063 0.563 0.125 0.5 0.875-0.5v4.313zM5.375 16.563l-0.5 0.5v0.375h3.125v-0.5h-2.188v-0.063l0.375-0.313c1-1 1.688-1.75 1.688-2.688 0-0.688-0.438-1.438-1.5-1.438-0.563 0-1.063 0.25-1.375 0.5l0.188 0.5c0.25-0.188 0.625-0.438 1.063-0.438 0.688 0 0.938 0.438 0.938 1 0 0.688-0.563 1.375-1.813 2.563zM6.188 24.938c-0.438 0-0.875-0.188-1.063-0.313l-0.188 0.5c0.25 0.188 0.688 0.313 1.25 0.313 1.188 0 1.813-0.688 1.813-1.438 0-0.688-0.5-1.188-1.125-1.25v-0.063c0.625-0.188 0.938-0.625 0.938-1.125 0-0.625-0.438-1.188-1.438-1.188-0.5 0-1 0.188-1.25 0.375l0.188 0.5c0.188-0.188 0.563-0.313 0.938-0.313 0.625 0 0.875 0.313 0.875 0.688 0 0.625-0.625 0.875-1.063 0.875h-0.375v0.5h0.375c0.625 0 1.25 0.313 1.25 1 0 0.375-0.25 0.938-1.125 0.938z"></path>
</svg>
