<?xml version="1.0" encoding="utf-8"?>
<!DOCTYPE svg PUBLIC "-//W3C//DTD SVG 1.1//EN" "http://www.w3.org/Graphics/SVG/1.1/DTD/svg11.dtd">
<svg version="1.1" xmlns="http://www.w3.org/2000/svg" xmlns:xlink="http://www.w3.org/1999/xlink" width="32" height="32" viewBox="0 0 32 32">
<path d="M16 0c-8.813 0-16 7.188-16 16s7.188 16 16 16c8.813 0 16-7.188 16-16s-7.188-16-16-16zM16 30c-7.75 0-14-6.25-14-14s6.25-14 14-14c7.75 0 14 6.25 14 14s-6.25 14-14 14zM16 6c-5.5 0-10 4.5-10 10s4.5 10 10 10c5.5 0 10-4.5 10-10s-4.5-10-10-10zM16 22c-3.313 0-6-2.688-6-6s2.688-6 6-6c3.313 0 6 2.688 6 6s-2.688 6-6 6zM14 16c0 1.125 0.875 2 2 2s2-0.875 2-2c0-1.125-0.875-2-2-2s-2 0.875-2 2z"></path>
</svg>
