<?xml version="1.0" encoding="utf-8"?>
<!DOCTYPE svg PUBLIC "-//W3C//DTD SVG 1.1//EN" "http://www.w3.org/Graphics/SVG/1.1/DTD/svg11.dtd">
<svg version="1.1" xmlns="http://www.w3.org/2000/svg" xmlns:xlink="http://www.w3.org/1999/xlink" width="32" height="32" viewBox="0 0 32 32">
<path d="M2 30h18c1.125 0 2-0.875 2-2v-2.688c0.438-0.188 0.813-0.438 1.188-0.75l6.125 6.125c0.25 0.188 0.5 0.313 0.75 0.313s0.5-0.125 0.688-0.313c0.375-0.375 0.375-1 0-1.375l-6.125-6.188c0.875-1.125 1.375-2.563 1.375-4.125 0-2.813-1.625-5.188-4-6.313v-10.688c0-1.125-0.875-2-2-2h-18c-1.125 0-2 0.875-2 2v26c0 1.125 0.875 2 2 2zM19 24c-2.75 0-5-2.25-5-5s2.25-5 5-5c2.75 0 5 2.25 5 5s-2.25 5-5 5zM2 2h18v10h-14.688c-0.75 0-1.313 0.438-1.313 1s0.563 1 1.313 1h8.813c-1.063 1.063-1.813 2.438-2 4h-7.125c-0.563 0-1 0.438-1 1s0.438 1 1 1h7.125c0.438 3.375 3.375 6 6.875 6 0.313 0 0.688-0.063 1-0.125v2.125h-18zM5 8h12c0.563 0 1-0.438 1-1s-0.438-1-1-1h-12c-0.563 0-1 0.438-1 1s0.438 1 1 1z"></path>
</svg>
