<?xml version="1.0" encoding="utf-8"?>
<!DOCTYPE svg PUBLIC "-//W3C//DTD SVG 1.1//EN" "http://www.w3.org/Graphics/SVG/1.1/DTD/svg11.dtd">
<svg version="1.1" xmlns="http://www.w3.org/2000/svg" xmlns:xlink="http://www.w3.org/1999/xlink" width="32" height="32" viewBox="0 0 32 32">
<path d="M26 16c-0.063 0-0.125 0-0.188 0 0.125-0.625 0.188-1.313 0.188-2 0-5.5-4.5-10-10-10s-10 4.5-10 10c0 0.063 0 0.063 0 0.125-3.375 0.438-6 3.375-6 6.875s2.625 6.438 6 6.875v0.125h20c3.313 0 6-2.688 6-6s-2.688-6-6-6zM26 26h-19.375c-0.125-0.063-0.25-0.063-0.313-0.063-2.5-0.375-4.313-2.5-4.313-4.938s1.875-4.563 4.313-4.938c1-0.125 1.688-1 1.688-2 0-0.063 0-0.125 0-0.188 0.063-4.313 3.625-7.875 8-7.875 4.438 0 8 3.563 8 8 0 0.563-0.063 1.063-0.188 1.625s0.063 1.188 0.438 1.688c0.375 0.438 0.938 0.688 1.563 0.688 0 0 0 0 0.063 0s0.125 0 0.188 0c2.188 0.063 3.938 1.813 3.938 4s-1.813 4-4 4z"></path>
</svg>
