<?xml version="1.0" encoding="utf-8"?>
<!DOCTYPE svg PUBLIC "-//W3C//DTD SVG 1.1//EN" "http://www.w3.org/Graphics/SVG/1.1/DTD/svg11.dtd">
<svg version="1.1" xmlns="http://www.w3.org/2000/svg" xmlns:xlink="http://www.w3.org/1999/xlink" width="32" height="32" viewBox="0 0 32 32">
<path d="M4 32h24c2.188 0 4-1.813 4-4v-2c0-0.125 0-0.188 0-0.25 0-0.125 0-0.25 0-0.313l-2-21.438c-0.125-1.938-1.813-4-4-4h-20c-2.188 0-3.875 2.063-4 4l-2 21.438c0 0.063 0 0.188 0 0.313 0 0.063 0 0.125 0 0.25v2c0 2.188 1.813 4 4 4zM2 28v-2c0-1.125 0.875-2 2-2h24c1.125 0 2 0.875 2 2v2c0 1.125-0.875 2-2 2h-24c-1.125 0-2-0.875-2-2zM26 27c0 0.563 0.438 1 1 1s1-0.438 1-1c0-0.563-0.438-1-1-1s-1 0.438-1 1zM22.188 26.938c0 0.563 0.438 1 1 1s1-0.438 1-1c0-0.563-0.438-1-1-1s-1 0.438-1 1zM5 28h14c0.563 0 1-0.438 1-1s-0.438-1-1-1h-14c-0.563 0-1 0.438-1 1s0.438 1 1 1z"></path>
</svg>
