<?xml version="1.0" encoding="utf-8"?>
<!DOCTYPE svg PUBLIC "-//W3C//DTD SVG 1.1//EN" "http://www.w3.org/Graphics/SVG/1.1/DTD/svg11.dtd">
<svg version="1.1" xmlns="http://www.w3.org/2000/svg" xmlns:xlink="http://www.w3.org/1999/xlink" width="32" height="32" viewBox="0 0 32 32">
<path d="M30 6h-28c-1.125 0-2 0.875-2 2v18c0 1.125 0.875 2 2 2h28c1.125 0 2-0.875 2-2v-18c0-1.125-0.875-2-2-2zM27.188 18h-12.188c-0.563 0-1-0.438-1-1s0.438-1 1-1h12.188c0.5 0 1 0.438 1 1s-0.5 1-1 1zM28.188 21c0 0.563-0.5 1-1 1h-12.188c-0.563 0-1-0.438-1-1s0.438-1 1-1h12.188c0.5 0 1 0.438 1 1zM27.188 14h-12.188c-0.563 0-1-0.438-1-1s0.438-1 1-1h12.188c0.5 0 1 0.438 1 1s-0.5 1-1 1zM8.063 15.813c2.188 0 3.938 2.375 3.938 5.313 0 2.875-7.875 2.875-7.875 0 0-2.938 1.75-5.313 3.938-5.313zM5.563 12.438c0-1.375 1.125-2.438 2.438-2.438s2.438 1.063 2.438 2.438c0 1.313-1.125 2.375-2.438 2.375s-2.438-1.063-2.438-2.375z"></path>
</svg>
