<?xml version="1.0" encoding="utf-8"?>
<!DOCTYPE svg PUBLIC "-//W3C//DTD SVG 1.1//EN" "http://www.w3.org/Graphics/SVG/1.1/DTD/svg11.dtd">
<svg version="1.1" xmlns="http://www.w3.org/2000/svg" xmlns:xlink="http://www.w3.org/1999/xlink" width="32" height="32" viewBox="0 0 32 32">
<path d="M30 2h-26c-1.125 0-2 0.875-2 2v26c0 1.125 0.875 2 2 2h26c1.125 0 2-0.875 2-2v-26c0-1.125-0.875-2-2-2zM30 30h-26v-26h26zM9 18h16c0.563 0 1-0.438 1-1s-0.438-1-1-1h-16c-0.563 0-1 0.438-1 1s0.438 1 1 1zM9 12h16c0.563 0 1-0.438 1-1s-0.438-1-1-1h-16c-0.563 0-1 0.438-1 1s0.438 1 1 1zM9 24h16c0.563 0 1-0.438 1-1s-0.438-1-1-1h-16c-0.563 0-1 0.438-1 1s0.438 1 1 1z"></path>
</svg>
