<?xml version="1.0" encoding="utf-8"?>
<!DOCTYPE svg PUBLIC "-//W3C//DTD SVG 1.1//EN" "http://www.w3.org/Graphics/SVG/1.1/DTD/svg11.dtd">
<svg version="1.1" xmlns="http://www.w3.org/2000/svg" xmlns:xlink="http://www.w3.org/1999/xlink" width="32" height="32" viewBox="0 0 32 32">
<path d="M1.875 29.375c0.188 0.375 0.563 0.563 0.938 0.563 2.875 0 5.313-0.688 8.063-2.313 1.313 0.25 3.938 0.5 5.125 0.5 8.75 0 15.875-5.875 15.875-13.063s-7.125-13-15.875-13c-8.75 0-15.875 5.813-15.875 13 0 3.375 1.625 6.688 4.5 9.125-0.625 1.438-1.5 2.875-2.563 4.125-0.25 0.313-0.313 0.75-0.188 1.063zM2.125 15.063c0-6.063 6.25-11 13.875-11s13.875 4.938 13.875 11c0 6.125-6.25 11.063-13.875 11.063-1.125 0-4.125-0.313-5.125-0.5-0.25-0.063-0.5 0-0.75 0.125-1.875 1.125-3.5 1.75-5.188 2.063 0.75-1.125 1.375-2.375 1.813-3.625 0.188-0.375 0.063-0.875-0.313-1.125-2.813-2.125-4.313-4.938-4.313-8z"></path>
</svg>
