<?xml version="1.0" encoding="utf-8"?>
<!DOCTYPE svg PUBLIC "-//W3C//DTD SVG 1.1//EN" "http://www.w3.org/Graphics/SVG/1.1/DTD/svg11.dtd">
<svg version="1.1" xmlns="http://www.w3.org/2000/svg" xmlns:xlink="http://www.w3.org/1999/xlink" width="32" height="32" viewBox="0 0 32 32">
<path d="M24.938 20l-0.75-2h-16.375l-0.75 2-3.063 8h24zM9.188 20h13.625l2.313 6h-18.25zM20.563 14h2.125l-0.75-2-4.063-10.75c-0.313-0.75-1.063-1.25-1.875-1.25s-1.563 0.5-1.875 1.25l-4.063 10.75-0.75 2zM16 2l3.813 10h-7.625zM31 30h-30c-0.563 0-1 0.438-1 1s0.438 1 1 1h30c0.563 0 1-0.438 1-1s-0.438-1-1-1z"></path>
</svg>
