<?xml version="1.0" encoding="utf-8"?>
<!DOCTYPE svg PUBLIC "-//W3C//DTD SVG 1.1//EN" "http://www.w3.org/Graphics/SVG/1.1/DTD/svg11.dtd">
<svg version="1.1" xmlns="http://www.w3.org/2000/svg" xmlns:xlink="http://www.w3.org/1999/xlink" width="32" height="32" viewBox="0 0 32 32">
<path d="M29.063 0c0 0 0 0 0 0s0 0-0.063 0c0 0 0 0 0 0s0 0 0 0 0 0 0 0h-10.625c-0.25 0-1 0.5-1.063 0.563l-12.75 12.75c-0.75 0.75-0.75 2.063 0 2.813l1.625 1.625-1.625 1.563c-0.75 0.75-0.75 2.063 0 2.813l9.313 9.313c0.375 0.375 0.875 0.563 1.438 0.563 0.5 0 1-0.188 1.375-0.563l12.75-12.75c0.063-0.063 0.563-0.688 0.563-1.063v-16.625c0-0.563-0.375-1-0.938-1zM28 17.25c0 0 0 0.063 0 0.063l-12.688 12.688-9.313-9.25 1.563-1.625 6.313 6.313c0.375 0.375 0.875 0.563 1.438 0.563 0.5 0 1-0.188 1.375-0.563l11.313-11.313zM28 8v3.25c0 0 0 0.063 0 0.063l-12.688 12.688-9.313-9.25 12.625-12.688c0.063 0 0.125-0.063 0.125-0.063h9.25zM24 5c0 0.563 0.5 1 1 1 0.563 0 1-0.438 1-1s-0.438-1-1-1c-0.5 0-1 0.438-1 1z"></path>
</svg>
