<?xml version="1.0" encoding="utf-8"?>
<!DOCTYPE svg PUBLIC "-//W3C//DTD SVG 1.1//EN" "http://www.w3.org/Graphics/SVG/1.1/DTD/svg11.dtd">
<svg version="1.1" xmlns="http://www.w3.org/2000/svg" xmlns:xlink="http://www.w3.org/1999/xlink" width="32" height="32" viewBox="0 0 32 32">
<path d="M20 14h-8v10c0 2-4 4.875-4 6v1c0 0.563 0.438 1 1 1h14c0.563 0 1-0.438 1-1v-1c0-1.125-4-4-4-6zM23.188 2.063v-0.063h-2v0.063c-0.063-0.063-0.125-0.063-0.188-0.063-0.563 0-1 0.438-1 1v1h-2v-1c0-0.5-0.375-0.875-0.813-0.938v-0.063h-2v0.063c-0.063-0.063-0.125-0.063-0.188-0.063-0.563 0-1 0.438-1 1v1h-2v-1c0-0.5-0.375-0.875-0.813-0.938v-0.063h-2v0.063c-0.063-0.063-0.125-0.063-0.188-0.063-0.563 0-1 0.438-1 1v5c0 0.5 0.188 1.063 0.563 1.438l2 2c0.375 0.375 0.938 0.563 1.438 0.563h8c0.5 0 1.063-0.188 1.438-0.563l2-2c0.375-0.375 0.563-0.938 0.563-1.438v-5c0-0.5-0.375-0.875-0.813-0.938z"></path>
</svg>
