<?xml version="1.0" encoding="utf-8"?>
<!DOCTYPE svg PUBLIC "-//W3C//DTD SVG 1.1//EN" "http://www.w3.org/Graphics/SVG/1.1/DTD/svg11.dtd">
<svg version="1.1" xmlns="http://www.w3.org/2000/svg" xmlns:xlink="http://www.w3.org/1999/xlink" width="32" height="32" viewBox="0 0 32 32">
<path d="M4 32h24.063c1.125 0 2-0.875 2-2v-28c0-1.125-0.875-2-2-2h-24.063c-1.125 0-2 0.875-2 2v28c0 1.125 0.875 2 2 2zM15 6h8.063c0.563 0 1 0.438 1 1s-0.438 1-1 1h-8.063c-0.563 0-1-0.438-1-1s0.438-1 1-1zM9 12h14.063c0.563 0 1 0.438 1 1s-0.438 1-1 1h-14.063c-0.563 0-1-0.438-1-1s0.438-1 1-1zM9 18h14.063c0.563 0 1 0.438 1 1s-0.438 1-1 1h-14.063c-0.563 0-1-0.438-1-1s0.438-1 1-1zM9 24h14.063c0.563 0 1 0.438 1 1s-0.438 1-1 1h-14.063c-0.563 0-1-0.438-1-1s0.438-1 1-1z"></path>
</svg>
