<?xml version="1.0" encoding="utf-8"?>
<!DOCTYPE svg PUBLIC "-//W3C//DTD SVG 1.1//EN" "http://www.w3.org/Graphics/SVG/1.1/DTD/svg11.dtd">
<svg version="1.1" xmlns="http://www.w3.org/2000/svg" xmlns:xlink="http://www.w3.org/1999/xlink" width="32" height="32" viewBox="0 0 32 32">
<path d="M16 0c-8.813 0-16 7.188-16 16s7.188 16 16 16c8.813 0 16-7.188 16-16s-7.188-16-16-16zM16 4c6.625 0 12 5.375 12 12 0 2.563-0.813 5-2.25 6.938l-16.688-16.688c1.938-1.438 4.375-2.25 6.938-2.25zM4 16c0-2.563 0.813-5 2.25-6.938l16.688 16.688c-1.938 1.438-4.375 2.25-6.938 2.25-6.625 0-12-5.375-12-12z"></path>
</svg>
