<?xml version="1.0" encoding="utf-8"?>
<!DOCTYPE svg PUBLIC "-//W3C//DTD SVG 1.1//EN" "http://www.w3.org/Graphics/SVG/1.1/DTD/svg11.dtd">
<svg version="1.1" xmlns="http://www.w3.org/2000/svg" xmlns:xlink="http://www.w3.org/1999/xlink" width="32" height="32" viewBox="0 0 32 32">
<path d="M24 32c1.125 0 2-0.875 2-2v-28c0-1.125-0.875-2-2-2h-14c-1.125 0-2 0.875-2 2v28c0 1.125 0.875 2 2 2zM16 28.875c0-0.625 0.5-1.125 1.125-1.125s1.125 0.5 1.125 1.125c0 0.625-0.5 1.125-1.125 1.125s-1.125-0.5-1.125-1.125zM21 2c0.563 0 1 0.438 1 1s-0.438 1-1 1h-2c-0.563 0-1-0.438-1-1s0.438-1 1-1zM16 3c0 0.563-0.438 1-1 1s-1-0.438-1-1c0-0.563 0.438-1 1-1s1 0.438 1 1zM10 6h14v20h-14z"></path>
</svg>
