<?xml version="1.0" encoding="utf-8"?>
<!DOCTYPE svg PUBLIC "-//W3C//DTD SVG 1.1//EN" "http://www.w3.org/Graphics/SVG/1.1/DTD/svg11.dtd">
<svg version="1.1" xmlns="http://www.w3.org/2000/svg" xmlns:xlink="http://www.w3.org/1999/xlink" width="32" height="32" viewBox="0 0 32 32">
<path d="M27.063 0h-22c-2.75 0-5 2.188-5.063 4.938v0 22c0 2.813 2.25 5.063 5.063 5.063h17c1.063 0 1.938-0.875 1.938-2v-21c0-0.563-0.375-1-0.938-1h-18c-1.688 0-3.063-1.313-3.063-2.938 0-1.688 1.375-3.063 3.063-3.063h20.938v23c0 0.563 0.5 1 1.063 1s0.938-0.438 0.938-1v-24c0-0.563-0.375-1-0.938-1zM5.063 10h16.938l0.063 20h-17c-1.688 0-3.063-1.375-3.063-3.063v-17.938c0.813 0.625 1.875 1 3.063 1z"></path>
</svg>
