<?xml version="1.0" encoding="utf-8"?>
<!DOCTYPE svg PUBLIC "-//W3C//DTD SVG 1.1//EN" "http://www.w3.org/Graphics/SVG/1.1/DTD/svg11.dtd">
<svg version="1.1" xmlns="http://www.w3.org/2000/svg" xmlns:xlink="http://www.w3.org/1999/xlink" width="32" height="32" viewBox="0 0 32 32">
<path d="M1.25 29.563c1.438 1.875 4.438 2 6.688 0.25 0.938-0.688 1.563-1.625 1.938-2.563 0.188-0.375 0.313-0.938 0.313-1.625v-14.5l17.438-3.25v7.625c0 2.688-2.063 3.313-2.813 3.438-0.063 0-0.125 0.063-0.188 0.063 0 0-0.063 0-0.063 0v0c-0.875 0.188-1.688 0.5-2.5 1.125-2.25 1.75-2.875 4.688-1.438 6.563s4.438 2 6.688 0.25c1.125-0.875 1.875-2.063 2.125-3.25 0.063-0.313 0.125-0.625 0.125-1v-18.813c0-0.125 0-0.188 0-0.313 0-0.063 0-0.125 0-0.188v-1.938c0-1.063-0.875-1.688-1.938-1.375l-17.438 3.313c-1.063 0.313-1.938 1.5-1.938 2.563v1.938c0 0 0 0 0 0.063s0 0.125 0 0.188v10.25c0 2.688-2.063 3.313-2.813 3.438-0.063 0-0.063 0-0.125 0.063-0.063 0-0.125 0-0.125 0v0c-0.875 0.188-1.688 0.5-2.5 1.125-2.25 1.75-2.875 4.625-1.438 6.563z"></path>
</svg>
