<?xml version="1.0" encoding="utf-8"?>
<!DOCTYPE svg PUBLIC "-//W3C//DTD SVG 1.1//EN" "http://www.w3.org/Graphics/SVG/1.1/DTD/svg11.dtd">
<svg version="1.1" xmlns="http://www.w3.org/2000/svg" xmlns:xlink="http://www.w3.org/1999/xlink" width="32" height="32" viewBox="0 0 32 32">
<path d="M16 0c-5.625 0-10.125 4.563-10.125 10.125v1.875h-1.875c-1.125 0-2 0.875-2 2v16c0 1.125 0.875 2 2 2h24c1.125 0 2-0.875 2-2v-16c0-1.125-0.875-2-2-2h-1.875v-1.875c0-5.563-4.5-10.125-10.125-10.125zM9.875 10.125c0-3.375 2.75-6.125 6.125-6.125s6.125 2.75 6.125 6.125v1.875h-12.25zM16 26c-2.188 0-4-1.813-4-4s1.813-4 4-4c2.188 0 4 1.813 4 4s-1.813 4-4 4z"></path>
</svg>
