<?xml version="1.0" encoding="utf-8"?>
<!DOCTYPE svg PUBLIC "-//W3C//DTD SVG 1.1//EN" "http://www.w3.org/Graphics/SVG/1.1/DTD/svg11.dtd">
<svg version="1.1" xmlns="http://www.w3.org/2000/svg" xmlns:xlink="http://www.w3.org/1999/xlink" width="32" height="32" viewBox="0 0 32 32">
<path d="M30 2h-28c-1.125 0-2 0.875-2 2v18c0 1.125 0.875 2 2 2h10c0 1.438-0.063 3.313-0.625 4h-0.375c-0.563 0-1 0.438-1 1s0.438 1 1 1h10c0.563 0 1-0.438 1-1s-0.438-1-1-1h-0.375c-0.563-0.688-0.625-2.563-0.625-4h10c1.125 0 2-0.875 2-2v-18c0-1.125-0.875-2-2-2zM14 24v0c0 0 0 0 0 0zM18 24v0 0c0 0 0 0 0 0zM30 20h-28v-16h28z"></path>
</svg>
