<?xml version="1.0" encoding="utf-8"?>
<!DOCTYPE svg PUBLIC "-//W3C//DTD SVG 1.1//EN" "http://www.w3.org/Graphics/SVG/1.1/DTD/svg11.dtd">
<svg version="1.1" xmlns="http://www.w3.org/2000/svg" xmlns:xlink="http://www.w3.org/1999/xlink" width="32" height="32" viewBox="0 0 32 32">
<path d="M2.563 24.625c0.438 0.75 1.5 1.688 3.563 1.688 1.313 0 3-0.375 4.813-1.063 0.813 3.563 2.313 6.75 5.063 6.75 2.813 0 4.313-3.313 5.063-6.938 1.875 0.625 3.563 1 4.875 1 2.188 0 3.25-0.938 3.75-1.75 1.5-2.5-0.875-5.75-3.813-8.438 0.5-0.5 1.063-1 1.5-1.5 2.5-2.938 3.188-5.25 2.063-7-0.438-0.75-1.5-1.688-3.563-1.688-1.313 0-3 0.375-4.813 1.063-0.813-3.563-2.313-6.75-5.063-6.75-2.813 0-4.313 3.313-5.063 6.938-1.875-0.625-3.563-1-4.875-1-2.188 0-3.25 0.938-3.75 1.75-1.5 2.5 0.875 5.75 3.813 8.438-0.5 0.5-1.063 1-1.5 1.5-2.5 2.938-3.188 5.25-2.063 7zM16 30c-1.313 0-2.438-2.188-3.188-5.5 1.063-0.438 2.125-1 3.25-1.563 1.063 0.5 2.125 1 3.125 1.438-0.688 3.375-1.875 5.625-3.188 5.625zM12 16c0-0.75 0-1.438 0.063-2.125 0.563-0.438 1.125-0.813 1.75-1.25 0.75-0.438 1.438-0.875 2.125-1.25 0.688 0.375 1.438 0.75 2.125 1.188s1.313 0.813 1.875 1.25c0.063 0.688 0.063 1.438 0.063 2.188s0 1.438-0.063 2.125c-0.563 0.438-1.125 0.813-1.75 1.25-0.75 0.438-1.438 0.875-2.125 1.25-0.688-0.375-1.438-0.75-2.125-1.188s-1.313-0.813-1.875-1.25c-0.063-0.688-0.063-1.438-0.063-2.188zM10 16.75c-0.313-0.25-0.563-0.438-0.875-0.688 0.313-0.188 0.563-0.438 0.875-0.688 0 0.25 0 0.5 0 0.625s0 0.438 0 0.75zM12.25 11.313c0.063-0.563 0.125-1.125 0.188-1.625 0.438 0.188 0.938 0.375 1.375 0.625-0.313 0.188-0.688 0.438-1.063 0.625-0.188 0.125-0.313 0.25-0.5 0.375zM18 10.25c0.563-0.25 1.063-0.5 1.563-0.75 0.063 0.563 0.125 1.188 0.188 1.75-0.25-0.125-0.5-0.313-0.625-0.375-0.375-0.25-0.75-0.438-1.125-0.625zM22 15.25c0.313 0.25 0.563 0.438 0.875 0.688-0.313 0.188-0.563 0.438-0.875 0.688 0-0.25 0-0.5 0-0.625s0-0.438 0-0.75zM19.75 20.688c-0.063 0.563-0.125 1.125-0.188 1.625-0.438-0.188-0.938-0.375-1.375-0.625 0.313-0.188 0.688-0.438 1.063-0.625 0.188-0.125 0.313-0.25 0.5-0.375zM12.875 21.125c0.375 0.25 0.75 0.438 1.125 0.625-0.563 0.25-1.063 0.5-1.563 0.75-0.063-0.563-0.125-1.188-0.188-1.75 0.25 0.125 0.5 0.313 0.625 0.375zM27.938 23.313c-0.313 0.5-1 0.75-2 0.75-1.125 0-2.688-0.375-4.5-1 0.25-1.375 0.375-2.688 0.438-3.813 0.875-0.688 1.75-1.375 2.5-2 2.813 2.563 4.313 4.875 3.563 6.063zM25.875 7.688c0.938 0 1.563 0.25 1.875 0.75 0.75 1.125-0.625 3.5-3.375 6.125-0.875-0.688-1.75-1.313-2.5-1.875-0.063-1.188-0.25-2.563-0.438-3.938 1.75-0.688 3.313-1.063 4.438-1.063zM16 2c1.313 0 2.438 2.188 3.188 5.5-1.063 0.438-2.125 1-3.25 1.563-1.063-0.5-2.125-1-3.125-1.438 0.688-3.375 1.875-5.625 3.188-5.625zM4.063 8.688c0.313-0.5 1-0.75 2-0.75 1.125 0 2.688 0.375 4.5 1-0.25 1.375-0.375 2.688-0.438 3.813-0.875 0.688-1.75 1.375-2.5 2-2.813-2.563-4.313-4.875-3.563-6.063zM10.125 19.313c0.063 1.188 0.25 2.563 0.438 3.938-1.75 0.688-3.313 1.063-4.438 1.063-0.938 0-1.563-0.25-1.875-0.75-0.75-1.188 0.625-3.5 3.375-6.125 0.875 0.688 1.75 1.313 2.5 1.875z"></path>
</svg>
