<?xml version="1.0" encoding="utf-8"?>
<!DOCTYPE svg PUBLIC "-//W3C//DTD SVG 1.1//EN" "http://www.w3.org/Graphics/SVG/1.1/DTD/svg11.dtd">
<svg version="1.1" xmlns="http://www.w3.org/2000/svg" xmlns:xlink="http://www.w3.org/1999/xlink" width="32" height="32" viewBox="0 0 32 32">
<path d="M30.125 21.625c-5.438 5.438-14.313 5.438-19.75 0-2.625-2.625-4.125-6.125-4.125-9.875s1.5-7.25 4.125-9.875c0.375-0.375 0.375-1 0-1.375-0.375-0.438-1.063-0.438-1.438 0-3 3-4.688 7-4.688 11.25s1.688 8.313 4.688 11.313c2.563 2.563 5.75 4 9.063 4.5v2.438h-3c-0.563 0-1 0.438-1 1s0.438 1 1 1h8c0.563 0 1-0.438 1-1s-0.438-1-1-1h-3v-2.313c0.063 0 0.188 0.063 0.25 0.063 4.063 0 8.188-1.563 11.313-4.688 0.375-0.375 0.375-1.063 0-1.438-0.438-0.375-1.063-0.375-1.438 0zM8.5 11.75c0 6.5 5.25 11.75 11.75 11.75s11.75-5.25 11.75-11.75c0-6.5-5.25-11.75-11.75-11.75s-11.75 5.25-11.75 11.75z"></path>
</svg>
