<?xml version="1.0" encoding="utf-8"?>
<!DOCTYPE svg PUBLIC "-//W3C//DTD SVG 1.1//EN" "http://www.w3.org/Graphics/SVG/1.1/DTD/svg11.dtd">
<svg version="1.1" xmlns="http://www.w3.org/2000/svg" xmlns:xlink="http://www.w3.org/1999/xlink" width="32" height="32" viewBox="0 0 32 32">
<path d="M30 6h-9.063c-1.063 0-2.313 0.563-2.938 2 0 0-0.25 1.813-2 2h-14c-1.125 0-2 0.875-2 1.938v18.063c0 1.125 0.875 2 2 2h28c1.125 0 2-0.875 2-2v-22c0-1.125-0.875-2-2-2zM30 11.938v18.063h-28v-18h14c0.063 0 0.125 0 0.188 0 1.875-0.188 3.063-1.5 3.563-2.875 0.563-1.25 1.438-1.125 1.438-1.125h8.813z"></path>
</svg>
