<?xml version="1.0" encoding="utf-8"?>
<!DOCTYPE svg PUBLIC "-//W3C//DTD SVG 1.1//EN" "http://www.w3.org/Graphics/SVG/1.1/DTD/svg11.dtd">
<svg version="1.1" xmlns="http://www.w3.org/2000/svg" xmlns:xlink="http://www.w3.org/1999/xlink" width="32" height="32" viewBox="0 0 32 32">
<path d="M1.625 17.813l2.375-1.938v14.125c0 1.125 0.875 2 2 2h6c1.125 0 2-0.875 2-2v-8h4v8c0 1.125 0.875 2 2 2h6c1.125 0 2-0.875 2-2v-14.125l2.375 1.938c0.188 0.125 0.375 0.188 0.625 0.188 0.313 0 0.563-0.125 0.813-0.375 0.313-0.438 0.25-1.063-0.188-1.438l-15-12c-0.375-0.25-0.875-0.25-1.25 0l-5.375 4.313v-2.5c0-1.125-0.875-2-2-2s-2 0.875-2 2v5.688l-5.625 4.5c-0.438 0.375-0.5 1-0.125 1.438 0.313 0.438 0.938 0.5 1.375 0.188zM16 6.25l10 8v15.75h-6v-10h-8v10h-6v-15.688z"></path>
</svg>
