<?xml version="1.0" encoding="utf-8"?>
<!DOCTYPE svg PUBLIC "-//W3C//DTD SVG 1.1//EN" "http://www.w3.org/Graphics/SVG/1.1/DTD/svg11.dtd">
<svg version="1.1" xmlns="http://www.w3.org/2000/svg" xmlns:xlink="http://www.w3.org/1999/xlink" width="32" height="32" viewBox="0 0 32 32">
<path d="M30 6h-2v-4c0-1.125-0.875-2-2-2h-24c-1.125 0-2 0.875-2 2v22c0 1.125 0.875 2 2 2h2v4c0 1.125 0.875 2 2 2h24c1.125 0 2-0.875 2-2v-22c0-1.125-0.875-2-2-2zM2 24v-22h24v22zM30 30h-24v-4h2v2h20v-20h2zM14.813 8.188c0 1.563 1.25 2.813 2.75 2.813 1.563 0 2.813-1.25 2.813-2.813s-1.25-2.813-2.813-2.813c-1.5 0-2.75 1.25-2.75 2.813zM10 10l-6 4v8h20v-10l-8 4z"></path>
</svg>
