<?xml version="1.0" encoding="utf-8"?>
<!DOCTYPE svg PUBLIC "-//W3C//DTD SVG 1.1//EN" "http://www.w3.org/Graphics/SVG/1.1/DTD/svg11.dtd">
<svg version="1.1" xmlns="http://www.w3.org/2000/svg" xmlns:xlink="http://www.w3.org/1999/xlink" width="32" height="32" viewBox="0 0 32 32">
<path d="M2 0c-1.125 0-2 0.875-2 2v28c0 1.125 0.875 2 2 2h2v-32zM26 0h-20v32h20c1.125 0 2-0.875 2-2v-28c0-1.125-0.875-2-2-2zM16.875 7.688c1.688 0 3.063 1.375 3.063 3.063 0 1.625-1.375 3-3.063 3s-3-1.375-3-3c0-1.688 1.313-3.063 3-3.063zM12 21.625c0-3.688 2.188-6.625 4.938-6.625s4.938 2.938 4.938 6.625c0 3.625-9.875 3.625-9.875 0zM30 2h2v6h-2zM30 10h2v6h-2zM30 18h2v6h-2z"></path>
</svg>
