<?xml version="1.0" encoding="utf-8"?>
<!DOCTYPE svg PUBLIC "-//W3C//DTD SVG 1.1//EN" "http://www.w3.org/Graphics/SVG/1.1/DTD/svg11.dtd">
<svg version="1.1" xmlns="http://www.w3.org/2000/svg" xmlns:xlink="http://www.w3.org/1999/xlink" width="32" height="32" viewBox="0 0 32 32">
<path d="M7 16h18c0.563 0 1-0.438 1-1s-0.438-1-1-1h-18c-0.563 0-1 0.438-1 1s0.438 1 1 1zM7 10h18c0.563 0 1-0.438 1-1s-0.438-1-1-1h-18c-0.563 0-1 0.438-1 1s0.438 1 1 1zM7 22h18c0.563 0 1-0.438 1-1s-0.438-1-1-1h-18c-0.563 0-1 0.438-1 1s0.438 1 1 1z"></path>
</svg>
