<?xml version="1.0" encoding="utf-8"?>
<!DOCTYPE svg PUBLIC "-//W3C//DTD SVG 1.1//EN" "http://www.w3.org/Graphics/SVG/1.1/DTD/svg11.dtd">
<svg version="1.1" xmlns="http://www.w3.org/2000/svg" xmlns:xlink="http://www.w3.org/1999/xlink" width="32" height="32" viewBox="0 0 32 32">
<path d="M26 12h-18.125v-1.875c0-3.375 2.75-6.125 6.125-6.125 2.25 0 4.188 1.188 5.25 3 0 0 0.063 0 0.063-0.063 0.375 0.563 0.938 0.938 1.625 0.938 1.063 0 2-0.938 2-2 0-0.313-0.063-0.563-0.188-0.813 0 0 0 0 0 0-0.125-0.25-0.25-0.375-0.375-0.563-1.813-2.688-4.875-4.5-8.375-4.5-5.625 0-10.125 4.563-10.125 10.125v1.875h-1.875c-1.125 0-2 0.875-2 2v16c0 1.125 0.875 2 2 2h24c1.125 0 2-0.875 2-2v-16c0-1.125-0.875-2-2-2zM14 26c-2.188 0-4-1.813-4-4s1.813-4 4-4c2.188 0 4 1.813 4 4s-1.813 4-4 4z"></path>
</svg>
