<?xml version="1.0" encoding="utf-8"?>
<!DOCTYPE svg PUBLIC "-//W3C//DTD SVG 1.1//EN" "http://www.w3.org/Graphics/SVG/1.1/DTD/svg11.dtd">
<svg version="1.1" xmlns="http://www.w3.org/2000/svg" xmlns:xlink="http://www.w3.org/1999/xlink" width="32" height="32" viewBox="0 0 32 32">
<path d="M16 32c5.188 0 9.75-2.438 12.688-6.25l-12.688-9.75v-16c-8.813 0-16 7.188-16 16s7.188 16 16 16zM14 2.125v13.875c0 0.625 0.313 1.188 0.75 1.563l11 8.5c-2.625 2.5-6.063 3.938-9.75 3.938-7.75 0-14-6.25-14-14 0-7.063 5.25-12.875 12-13.875zM18.75 0.25v14.313l11.438 8.813c1.125-2.188 1.813-4.688 1.813-7.375 0-7.875-5.75-14.438-13.25-15.75z"></path>
</svg>
