<?xml version="1.0" encoding="utf-8"?>
<!DOCTYPE svg PUBLIC "-//W3C//DTD SVG 1.1//EN" "http://www.w3.org/Graphics/SVG/1.1/DTD/svg11.dtd">
<svg version="1.1" xmlns="http://www.w3.org/2000/svg" xmlns:xlink="http://www.w3.org/1999/xlink" width="32" height="32" viewBox="0 0 32 32">
<path d="M30 8h-28c-1.125 0-2 0.875-2 2v20c0 1.125 0.875 2 2 2h28c1.125 0 2-0.875 2-2v-20c0-1.125-0.875-2-2-2zM11.375 22.063l4.625 3.125 4.625-3.125 7.938 7.938h-25.125zM2 28.563v-12.875l7.688 5.25zM22.313 20.875l7.688-5.313v13zM30 10v3.25l-0.063-0.063-13.938 9.625-14-9.563v-3.25z"></path>
</svg>
