<?xml version="1.0" encoding="utf-8"?>
<!DOCTYPE svg PUBLIC "-//W3C//DTD SVG 1.1//EN" "http://www.w3.org/Graphics/SVG/1.1/DTD/svg11.dtd">
<svg version="1.1" xmlns="http://www.w3.org/2000/svg" xmlns:xlink="http://www.w3.org/1999/xlink" width="32" height="32" viewBox="0 0 32 32">
<path d="M13.75 26c0 1.188 0.938 2.063 2.063 2.063 1.188 0 2.063-0.875 2.063-2.063 0-1.125-0.875-2.063-2.063-2.063-1.125 0-2.063 0.938-2.063 2.063zM19.438 18.25c2.938-1.625 4.375-3.938 4.375-6.875 0-5.063-4-7.375-8-7.375-3.875 0-8 2.813-8 8.063 0 1.063 0.938 2 2 2 1.125 0 2-0.938 2-2 0-2.813 2.125-4.063 4-4.063 1.5 0 4 0.438 4 3.375 0 1.063-0.25 2.25-2.25 3.375-1.375 0.75-3.75 2.688-3.75 5.25 0 1.125 0.938 2 2 2 1.125 0 2-0.875 2-2 0-0.375 0.813-1.313 1.625-1.75z"></path>
</svg>
