<?xml version="1.0" encoding="utf-8"?>
<!DOCTYPE svg PUBLIC "-//W3C//DTD SVG 1.1//EN" "http://www.w3.org/Graphics/SVG/1.1/DTD/svg11.dtd">
<svg version="1.1" xmlns="http://www.w3.org/2000/svg" xmlns:xlink="http://www.w3.org/1999/xlink" width="32" height="32" viewBox="0 0 32 32">
<path d="M31.875 12.938c-0.25-0.688-0.875-1.25-1.625-1.375l-8.625-1.25-3.813-7.813c-0.375-0.688-1.063-1.125-1.813-1.125s-1.438 0.438-1.813 1.125l-3.813 7.813-8.625 1.25c-0.75 0.125-1.375 0.688-1.625 1.375-0.25 0.75-0.063 1.5 0.5 2.063l6.25 6.063-1.5 8.625c-0.125 0.75 0.188 1.5 0.813 1.938 0.375 0.25 0.75 0.375 1.188 0.375 0.313 0 0.625-0.063 0.938-0.25l7.688-4.063 7.688 4.063c0.313 0.188 0.625 0.25 0.938 0.25 0.438 0 0.813-0.125 1.188-0.375 0.625-0.438 0.938-1.188 0.813-1.938l-1.5-8.625 6.25-6.063c0.563-0.563 0.75-1.313 0.5-2.063zM23 20.375l1.625 9.625-8.625-4.563v-22.063l4.313 8.813 9.688 1.375z"></path>
</svg>
