<?xml version="1.0" encoding="utf-8"?>
<!DOCTYPE svg PUBLIC "-//W3C//DTD SVG 1.1//EN" "http://www.w3.org/Graphics/SVG/1.1/DTD/svg11.dtd">
<svg version="1.1" xmlns="http://www.w3.org/2000/svg" xmlns:xlink="http://www.w3.org/1999/xlink" width="32" height="32" viewBox="0 0 32 32">
<path d="M10.063 23.938c0.375 0.375 1 0.375 1.375 0l5.563-5.5 5.563 5.5c0.375 0.375 1 0.375 1.375 0s0.375-1 0-1.375l-5.5-5.563 5.5-5.563c0.375-0.375 0.375-1 0-1.375s-1-0.375-1.375 0l-5.563 5.5-5.563-5.5c-0.375-0.375-1-0.375-1.375 0s-0.375 1 0 1.375l5.5 5.563-5.5 5.563c-0.375 0.375-0.375 1 0 1.375z"></path>
</svg>
