<?xml version="1.0" encoding="utf-8"?>
<!DOCTYPE svg PUBLIC "-//W3C//DTD SVG 1.1//EN" "http://www.w3.org/Graphics/SVG/1.1/DTD/svg11.dtd">
<svg version="1.1" xmlns="http://www.w3.org/2000/svg" xmlns:xlink="http://www.w3.org/1999/xlink" width="32" height="32" viewBox="0 0 32 32">
<path d="M25.875 10c0.063-0.813 0.125-1.5 0.125-1.938 0-0.5-0.188-1.063-0.563-1.438s-0.875-0.625-1.438-0.625h-22c-0.563 0-1.063 0.25-1.438 0.625s-0.563 0.938-0.563 1.438c0.125 2.688 0.875 16 4.688 19.438 0.375 0.313 0.813 0.5 1.313 0.5h14c0.5 0 0.938-0.188 1.313-0.5 1.188-1.063 2.125-3.125 2.75-5.5 1 0 1.688 0 1.75 0 3.438 0 6.188-2.5 6.188-6 0-4.75-4.125-6-6.125-6zM25.813 19h-0.625c-0.125 0-0.25 0-0.375 0 0.375-2.063 0.625-4.188 0.813-6h0.188c0.563 0 3.188 0.125 3.188 3 0 2.063-1.625 3-3.188 3z"></path>
</svg>
