<?xml version="1.0" encoding="utf-8"?>
<!DOCTYPE svg PUBLIC "-//W3C//DTD SVG 1.1//EN" "http://www.w3.org/Graphics/SVG/1.1/DTD/svg11.dtd">
<svg version="1.1" xmlns="http://www.w3.org/2000/svg" xmlns:xlink="http://www.w3.org/1999/xlink" width="32" height="32" viewBox="0 0 32 32">
<path d="M2 32h26c1.125 0 2-0.875 2-2v-12c0-1.125-0.875-2-2-2h-6c-1.125 0-2 0.875-2 2v-16c0-1.125-0.875-2-2-2h-6c-1.125 0-2 0.875-2 2v8c0-1.125-0.875-2-2-2h-6c-1.125 0-2 0.875-2 2v20c0 1.125 0.875 2 2 2zM2 30v-4h2v4zM4 18v2h-2v-2zM2 16v-2h2v2zM4 22v2h-2v-2zM6 20v-2h2v2zM8 22v2h-2v-2zM6 16v-2h2v2zM6 30v-4h2v4zM8 12h-2v-2h2zM4 12h-2v-2h2zM16 30v-4h2v4zM14 10v2h-2v-2zM12 8v-2h2v2zM14 14v2h-2v-2zM14 18v2h-2v-2zM14 22v2h-2v-2zM16 20v-2h2v2zM18 22v2h-2v-2zM16 16v-2h2v2zM16 12v-2h2v2zM16 8v-2h2v2zM18 4h-2v-2h2zM14 4h-2v-2h2zM12 26h2v4h-2zM24 24h-2v-2h2zM26 22h2v2h-2zM26 26h2v4h-2zM28 20h-2v-2h2zM24 20h-2v-2h2zM22 26h2v4h-2z"></path>
</svg>
