<?xml version="1.0" encoding="utf-8"?>
<!DOCTYPE svg PUBLIC "-//W3C//DTD SVG 1.1//EN" "http://www.w3.org/Graphics/SVG/1.1/DTD/svg11.dtd">
<svg version="1.1" xmlns="http://www.w3.org/2000/svg" xmlns:xlink="http://www.w3.org/1999/xlink" width="32" height="32" viewBox="0 0 32 32">
<path d="M16 0c-8.813 0-16 7.188-16 16s7.188 16 16 16c8.813 0 16-7.188 16-16s-7.188-16-16-16zM16 30c-7.75 0-14-6.25-14-14s6.25-14 14-14c7.75 0 14 6.25 14 14s-6.25 14-14 14zM14.125 10.938c0-1.688-1.375-3.063-3.063-3.063s-3.063 1.375-3.063 3.063c0 1.688 1.375 3.063 3.063 3.063s3.063-1.375 3.063-3.063zM10 10.938c0-0.563 0.5-1.063 1.063-1.063s1.063 0.5 1.063 1.063c0 0.563-0.5 1.063-1.063 1.063s-1.063-0.5-1.063-1.063zM20.938 17.875c-1.688 0-3.063 1.375-3.063 3.063s1.375 3.063 3.063 3.063c1.688 0 3.063-1.375 3.063-3.063s-1.375-3.063-3.063-3.063zM20.938 22c-0.563 0-1.063-0.5-1.063-1.063s0.5-1.063 1.063-1.063c0.563 0 1.063 0.5 1.063 1.063s-0.5 1.063-1.063 1.063zM22.688 9.313c-0.375-0.438-1-0.438-1.375 0l-12 12c-0.438 0.375-0.438 1 0 1.375 0.188 0.188 0.438 0.313 0.688 0.313s0.5-0.125 0.688-0.313l12-12c0.438-0.375 0.438-1 0-1.375z"></path>
</svg>
