<?xml version="1.0" encoding="utf-8"?>
<!DOCTYPE svg PUBLIC "-//W3C//DTD SVG 1.1//EN" "http://www.w3.org/Graphics/SVG/1.1/DTD/svg11.dtd">
<svg version="1.1" xmlns="http://www.w3.org/2000/svg" xmlns:xlink="http://www.w3.org/1999/xlink" width="32" height="32" viewBox="0 0 32 32">
<path d="M15.438 31.938c0.188 0.063 0.375 0.063 0.563 0.063s0.375 0 0.563-0.063c12.375-3.563 14.188-16.063 13.438-22.188-0.125-1-1-1.75-2-1.75-0.313 0-2-0.313-2-4 0-0.5-0.188-1.063-0.563-1.438-0.438-0.438-2.938-2.563-9.438-2.563s-9 2.125-9.438 2.563c-0.375 0.375-0.563 0.938-0.563 1.438 0 3.688-1.688 4-2.063 4-1 0-1.813 0.75-1.938 1.75-0.75 6.125 1.063 18.625 13.438 22.188zM4 10c0 0 4 0 4-6 0 0 2-2 8-2v14h11.75c-0.75 5-3.375 11.625-11.75 14v-14h-11.75c-0.563-3.375-0.25-6-0.25-6z"></path>
</svg>
