<?xml version="1.0" encoding="utf-8"?>
<!DOCTYPE svg PUBLIC "-//W3C//DTD SVG 1.1//EN" "http://www.w3.org/Graphics/SVG/1.1/DTD/svg11.dtd">
<svg version="1.1" xmlns="http://www.w3.org/2000/svg" xmlns:xlink="http://www.w3.org/1999/xlink" width="32" height="32" viewBox="0 0 32 32">
<path d="M11.25 23.438c-0.875 0-1.75-0.375-2.375-1-1.688-1.75-3.813-1-4.313 1.375-0.813 3.75-0.75 6.188 0.25 7.375 0.563 0.688 1.188 0.75 1.375 0.75l20.875 0.063c2.688 0 4.938-2.125 4.938-4.75v-13.75c0-1.563 0.063-3.25-0.813-4.125-0.563-0.563-1.375-0.688-2.313-0.313-1.688 0.75-3.563 0.875-6 0.375-0.563-0.125-0.813-0.313-0.813-0.313s0.063-0.125 0.438-0.438c1.063-1 1.688-2.313 1.688-3.688 0-2.75-2.313-5-5.188-5s-5.188 2.25-5.188 5c0 1.313 0.625 2.625 1.875 3.813 0.063 0 0.188 0.125 0.25 0.25-0.188 0.063-0.563 0.25-1.313 0.375-2 0.313-4-0.125-5.5-0.5-1.625-0.375-2.688-0.5-3.313 0.125-0.688 0.688-2.188 2.813-1.25 7.625 0.125 0.75 0.563 3 2.313 3 0.813 0 1.438-0.625 1.813-1 2.5-2.375 5.75-0.688 5.75 1.813 0 1.625-1.438 2.938-3.188 2.938zM11.25 15.5c-1.375 0-2.75 0.563-4 1.813-0.063 0.063-0.188 0.188-0.313 0.313-0.125-0.188-0.25-0.563-0.438-1.313-0.688-3.625 0.188-5.25 0.625-5.75 0.313 0 0.938 0.188 1.563 0.313 1.25 0.313 2.813 0.688 4.5 0.688 0.625 0 1.188-0.063 1.75-0.188 1.125-0.188 2.688-0.563 3.063-1.75 0.313-1.063-0.563-1.938-0.938-2.313-0.813-0.75-1.25-1.563-1.25-2.313 0-1.688 1.438-3 3.188-3s3.188 1.313 3.188 3c0 0.813-0.375 1.563-1.063 2.125-1.125 1-1.125 1.938-1 2.5 0.25 0.875 1.125 1.5 2.375 1.75 2.813 0.563 5.063 0.438 7.125-0.438 0.125-0.063 0.125-0.063 0.188-0.063 0.188 0.438 0.188 1.875 0.188 2.625v13.75c0 1.5-1.313 2.75-2.938 2.75h-20.688c0 0-0.938-0.813 0.125-5.813 0.125-0.5 0.313-0.75 0.375-0.75 0 0 0.188 0 0.563 0.438 1 1 2.375 1.563 3.813 1.563 2.813 0 5.188-2.25 5.188-4.938 0-2.75-2.313-5-5.188-5z"></path>
</svg>
