<?xml version="1.0" encoding="utf-8"?>
<!DOCTYPE svg PUBLIC "-//W3C//DTD SVG 1.1//EN" "http://www.w3.org/Graphics/SVG/1.1/DTD/svg11.dtd">
<svg version="1.1" xmlns="http://www.w3.org/2000/svg" xmlns:xlink="http://www.w3.org/1999/xlink" width="32" height="32" viewBox="0 0 32 32">
<path d="M16 32c8.813 0 16-7.188 16-16s-7.188-16-16-16c-8.813 0-16 7.188-16 16s7.188 16 16 16zM16 4c4 0 8 2.25 8 7.375 0 2.938-1.5 5.313-4.375 6.875-0.813 0.438-1.625 1.375-1.625 1.75 0 1.125-0.875 2-2 2s-2-0.875-2-2c0-2.563 2.313-4.5 3.688-5.25 2.063-1.125 2.313-2.313 2.313-3.375 0-2.938-2.5-3.375-4-3.375-1.938 0-4 1.25-4 4.063 0 1.063-0.875 2-2 2s-2-0.938-2-2c0-5.25 4.125-8.063 8-8.063zM16 28.063c-1.125 0-2.063-0.875-2.063-2.063 0-1.125 0.938-2.063 2.063-2.063s2.063 0.938 2.063 2.063c0 1.188-0.938 2.063-2.063 2.063z"></path>
</svg>
