<?xml version="1.0" encoding="utf-8"?>
<!DOCTYPE svg PUBLIC "-//W3C//DTD SVG 1.1//EN" "http://www.w3.org/Graphics/SVG/1.1/DTD/svg11.dtd">
<svg version="1.1" xmlns="http://www.w3.org/2000/svg" xmlns:xlink="http://www.w3.org/1999/xlink" width="32" height="32" viewBox="0 0 32 32">
<path d="M30 10h-8v-2c0-1.125-0.875-2-2-2h-8c-1.125 0-2 0.875-2 2v2h-8c-1.125 0-2 0.875-2 2v4h32v-4c0-1.125-0.875-2-2-2zM12 8h8v2h-8zM12 18h8v2h-8zM22 20c0 1.125-0.875 2-2 2h-8c-1.125 0-2-0.875-2-2v-2h-10v12c0 1.125 0.875 2 2 2h28c1.125 0 2-0.875 2-2v-12h-10z"></path>
</svg>
