<?xml version="1.0" encoding="utf-8"?>
<!DOCTYPE svg PUBLIC "-//W3C//DTD SVG 1.1//EN" "http://www.w3.org/Graphics/SVG/1.1/DTD/svg11.dtd">
<svg version="1.1" xmlns="http://www.w3.org/2000/svg" xmlns:xlink="http://www.w3.org/1999/xlink" width="32" height="32" viewBox="0 0 32 32">
<path d="M30 0h-26c-1.125 0-2 0.875-2 2s0.875 2 2 2v16c0 1.125 0.875 2 2 2h10v3.125l-5.688 5.125c-0.375 0.375-0.438 1-0.063 1.438 0.375 0.375 1 0.438 1.438 0.063l4.313-3.938v3.188c0 0.563 0.438 1 1 1s1-0.438 1-1v-3.188l4.313 3.938c0.188 0.188 0.438 0.25 0.688 0.25s0.563-0.125 0.75-0.313c0.375-0.438 0.313-1.063-0.063-1.438l-5.688-5.125v-3.125h10c1.125 0 2-0.875 2-2v-16c1.125 0 2-0.875 2-2s-0.875-2-2-2zM25.688 7.75l-7 6.75c-0.375 0.313-1 0.375-1.375 0l-3.063-2.938-4.5 4.625c-0.188 0.188-0.438 0.313-0.75 0.313-0.25 0-0.438-0.063-0.688-0.25-0.375-0.438-0.375-1.063 0-1.438l5.125-5.375c0.438-0.375 1.063-0.438 1.438-0.063l3.125 3 6.313-6.125c0.375-0.375 1-0.375 1.438 0.063 0.375 0.375 0.313 1-0.063 1.438z"></path>
</svg>
