<?xml version="1.0" encoding="utf-8"?>
<!DOCTYPE svg PUBLIC "-//W3C//DTD SVG 1.1//EN" "http://www.w3.org/Graphics/SVG/1.1/DTD/svg11.dtd">
<svg version="1.1" xmlns="http://www.w3.org/2000/svg" xmlns:xlink="http://www.w3.org/1999/xlink" width="32" height="32" viewBox="0 0 32 32">
<path d="M8.25 18.938c0 1.5 3.75 2.25 7.75 2.375 0 0 0 0 0 0v5.813c0 1.125 0.438 3.875 1 3.875 0.5 0 0.938-2.75 0.938-3.875v-5.813c0 0 0 0 0 0 4-0.125 7.75-0.875 7.75-2.375 0-1.563-1.438-2.75-3.875-3.375v-10.063c2.438-0.813 3.875-2.125 3.875-3.063 0-3.25-17.438-3.25-17.438 0 0 1 1.438 2.313 3.875 3.125v10c-2.438 0.625-3.875 1.813-3.875 3.375z"></path>
</svg>
