<?xml version="1.0" encoding="utf-8"?>
<!DOCTYPE svg PUBLIC "-//W3C//DTD SVG 1.1//EN" "http://www.w3.org/Graphics/SVG/1.1/DTD/svg11.dtd">
<svg version="1.1" xmlns="http://www.w3.org/2000/svg" xmlns:xlink="http://www.w3.org/1999/xlink" width="32" height="32" viewBox="0 0 32 32">
<path d="M16 0c-8.813 0-16 7.188-16 16s7.188 16 16 16c8.813 0 16-7.188 16-16s-7.188-16-16-16zM24 15.688c-0.125 2.063-1 5.125-4.75 8.125-0.188 0.125-0.375 0.25-0.563 0.25-0.313 0-0.563-0.188-0.75-0.438-0.375-0.438-0.25-1.063 0.125-1.375 3.063-2.438 3.875-4.813 4-6.5-0.438 0.25-0.875 0.438-1.438 0.438-1.625 0-2.938-1.375-2.938-3.063s1.313-3.063 2.938-3.063c0.375 0 0.75 0.063 1.063 0.25v-0.063c0 0 0.125 0.063 0.313 0.188 0 0 0 0 0 0 0.063 0 0.063 0 0.063 0 0.125 0.063 0.25 0.188 0.438 0.313 0.063 0.063 0.125 0.188 0.188 0.25 0.75 0.688 1.563 2.063 1.313 4.688zM10.938 16.188c-1.625 0-2.938-1.375-2.938-3.063s1.313-3.063 2.938-3.063c0.375 0 0.688 0.063 1.063 0.25l-0.063-0.063c0 0 0.188 0.063 0.375 0.188 0 0 0 0 0 0s0 0 0.063 0c0.125 0.063 0.25 0.188 0.438 0.313 0.063 0.063 0.125 0.188 0.188 0.25 0.75 0.688 1.563 2.063 1.313 4.688-0.125 2.063-1.063 5.125-4.75 8.125-0.188 0.125-0.375 0.25-0.563 0.25-0.313 0-0.625-0.188-0.813-0.438-0.313-0.438-0.25-1.063 0.188-1.375 3-2.438 3.875-4.813 4-6.5-0.438 0.25-0.938 0.438-1.438 0.438z"></path>
</svg>
