<?xml version="1.0" encoding="utf-8"?>
<!DOCTYPE svg PUBLIC "-//W3C//DTD SVG 1.1//EN" "http://www.w3.org/Graphics/SVG/1.1/DTD/svg11.dtd">
<svg version="1.1" xmlns="http://www.w3.org/2000/svg" xmlns:xlink="http://www.w3.org/1999/xlink" width="32" height="32" viewBox="0 0 32 32">
<path d="M11 25c0-0.625-0.125-1.188-0.375-1.688-0.688-1.438-2.063-2.313-3.625-2.313-2.188 0-4 1.813-4 4 0 0.375 0.063 0.75 0.188 1.125 0.688 1.125 1.563 2 2.688 2.688 0.375 0.125 0.75 0.188 1.125 0.188 2.188 0 4-1.813 4-4zM7 23c0.75 0 1.5 0.438 1.813 1.125 0.125 0.313 0.188 0.563 0.188 0.875 0 1.125-0.875 2-2 2s-2-0.875-2-2c0-1.125 0.875-2 2-2zM31 0h-4.313c-0.25 0-0.5 0.063-0.688 0.25l-14.125 11.938c-0.688-0.125-1.25-0.188-1.875-0.188-5.5 0-10 4.5-10 10s4.5 10 10 10c5.5 0 10-4.5 10-10 0-1.063-0.188-2.063-0.5-3.125l3.063-1.938c0.25-0.188 0.438-0.5 0.438-0.875v-3.625l3.813-0.188c0.5 0 0.875-0.438 0.938-0.875l0.375-3.875 3.313-1.625c0.313-0.125 0.563-0.5 0.563-0.875v-4c0-0.563-0.438-1-1-1zM30 4.375l-3.25 1.563c-0.313 0.125-0.563 0.438-0.563 0.813l-0.375 3.563-3.875 0.188c-0.5 0-0.938 0.438-0.938 1v4.063l-3.25 2.125c-0.438 0.25-0.563 0.75-0.375 1.188 0.438 1 0.625 2.063 0.625 3.125 0 4.438-3.563 8-8 8-1.5 0-2.938-0.438-4.125-1.188-1.125-0.688-2-1.563-2.688-2.688-0.75-1.188-1.188-2.625-1.188-4.125 0-4.438 3.563-8 8-8 0.563 0 1.188 0.063 1.875 0.25 0.313 0.063 0.688 0 0.875-0.188l14.313-12.063h2.938z"></path>
</svg>
