<?xml version="1.0" encoding="utf-8"?>
<!DOCTYPE svg PUBLIC "-//W3C//DTD SVG 1.1//EN" "http://www.w3.org/Graphics/SVG/1.1/DTD/svg11.dtd">
<svg version="1.1" xmlns="http://www.w3.org/2000/svg" xmlns:xlink="http://www.w3.org/1999/xlink" width="32" height="32" viewBox="0 0 32 32">
<path d="M20.438 0c-0.313 0-0.75 0.125-1.125 0.375 0 0-8.375 7.25-8.75 7.625h-4.563c-1.125 0-2 0.875-2 2v12.25c0 1.125 0.875 2 2 2h4.563c0.375 0.375 8.75 7.375 8.75 7.375 0.375 0.25 0.813 0.375 1.125 0.375 0.063 0 0.063 0 0.125 0 0.75-0.063 1.25-0.688 1.438-1.375v-29.25c-0.125-0.688-0.688-1.313-1.438-1.375-0.063 0-0.063 0-0.125 0zM20 29.625c-3.125-2.625-7.625-6.438-8-6.813s-0.875-0.563-1.438-0.563h-4.563v-12.25h4.563c0.563 0 1.063-0.188 1.438-0.563 0.313-0.375 4.875-4.313 8-7.063zM25.063 19.5c-0.5 0.25-0.688 0.875-0.438 1.313 0.188 0.375 0.563 0.563 0.875 0.563 0.188 0 0.313 0 0.5-0.063 2-1.063 3.25-3.063 3.25-5.313s-1.25-4.25-3.25-5.313c-0.5-0.25-1.125 0-1.375 0.5-0.25 0.438-0.063 1.063 0.438 1.313 1.375 0.688 2.188 2 2.188 3.5s-0.813 2.813-2.188 3.5z"></path>
</svg>
