<?xml version="1.0" encoding="utf-8"?>
<!DOCTYPE svg PUBLIC "-//W3C//DTD SVG 1.1//EN" "http://www.w3.org/Graphics/SVG/1.1/DTD/svg11.dtd">
<svg version="1.1" xmlns="http://www.w3.org/2000/svg" xmlns:xlink="http://www.w3.org/1999/xlink" width="32" height="32" viewBox="0 0 32 32">
<path d="M15.25 31.438c0.188 0.188 0.375 0.313 0.5 0.438 0 0 0 0 0 0 0.125 0.063 0.25 0.063 0.313 0.063 0.125 0 0.25 0 0.313-0.063 0 0 0 0 0 0 0.188-0.125 0.375-0.25 0.5-0.438 0 0 9.313-10.063 10.25-18.875 0.063-0.438 0.063-0.875 0.063-1.375 0-6.188-5-11.188-11.188-11.188s-11.188 5-11.188 11.188c0 0.5 0 0.938 0.063 1.438 0.938 8.75 10.375 18.813 10.375 18.813zM16 4c4 0 7.188 3.25 7.188 7.188 0 4-3.188 7.25-7.188 7.25s-7.188-3.25-7.188-7.25c0-3.938 3.188-7.188 7.188-7.188z"></path>
</svg>
