<?xml version="1.0" encoding="utf-8"?>
<!DOCTYPE svg PUBLIC "-//W3C//DTD SVG 1.1//EN" "http://www.w3.org/Graphics/SVG/1.1/DTD/svg11.dtd">
<svg version="1.1" xmlns="http://www.w3.org/2000/svg" xmlns:xlink="http://www.w3.org/1999/xlink" width="32" height="32" viewBox="0 0 32 32">
<path d="M30 10h-4c0 0-1.125 0-2-2-0.438-1-0.875-2-2-2h-8c-1.125 0-1.563 1-2 2-0.813 2-2 2-2 2h-2c0-1.125-0.875-2-2-2h-2c-1.125 0-2 0.875-2 2-1.125 0-2 0.875-2 2v4h11.125c1.375-2.375 3.938-4 6.875-4s5.5 1.625 6.875 4h7.125v-4c0-1.125-0.875-2-2-2zM7 14h-4c-0.563 0-1-0.438-1-1s0.438-1 1-1h4c0.563 0 1 0.438 1 1s-0.438 1-1 1zM12 20c0 3.313 2.688 6 6 6s6-2.688 6-6c0-3.313-2.688-6-6-6s-6 2.688-6 6zM26 20c0 4.438-3.563 8-8 8s-8-3.563-8-8c0-0.688 0.125-1.375 0.313-2h-10.313v10c0 1.125 0.875 2 2 2h28c1.125 0 2-0.875 2-2v-10h-6.313c0.188 0.625 0.313 1.313 0.313 2z"></path>
</svg>
