<?xml version="1.0" encoding="utf-8"?>
<!DOCTYPE svg PUBLIC "-//W3C//DTD SVG 1.1//EN" "http://www.w3.org/Graphics/SVG/1.1/DTD/svg11.dtd">
<svg version="1.1" xmlns="http://www.w3.org/2000/svg" xmlns:xlink="http://www.w3.org/1999/xlink" width="32" height="32" viewBox="0 0 32 32">
<path d="M2.063 32h27.813c0.688 0 1.375-0.375 1.688-1 0.375-0.563 0.438-1.313 0.063-1.938l-13.875-26c-0.313-0.625-1-1.063-1.75-1.063v0c-0.75 0-1.438 0.375-1.75 1.063l-13.938 26c-0.375 0.625-0.313 1.375 0.063 1.938 0.313 0.625 1 1 1.688 1zM16 24c1.125 0 2 0.875 2 2s-0.875 2-2 2c-1.125 0-2-0.875-2-2s0.875-2 2-2zM14 20.063v-8c0-1.125 0.875-2 2-2s2 0.875 2 2v8c0 1.063-0.875 2-2 2s-2-0.938-2-2z"></path>
</svg>
