<?xml version="1.0" encoding="utf-8"?>
<!DOCTYPE svg PUBLIC "-//W3C//DTD SVG 1.1//EN" "http://www.w3.org/Graphics/SVG/1.1/DTD/svg11.dtd">
<svg version="1.1" xmlns="http://www.w3.org/2000/svg" xmlns:xlink="http://www.w3.org/1999/xlink" width="32" height="32" viewBox="0 0 32 32">
<path d="M31 0h-4c-0.25 0-0.5 0.063-0.688 0.25l-13.75 12.125c-0.75-0.188-1.875-0.375-2.563-0.375-5.5 0-10 4.5-10 10s4.5 10 10 10c5.5 0 10-4.5 10-10 0-1.625-0.313-2.75-0.688-3.625l3.438-1.188c0.375-0.125 0.688-0.5 0.688-0.938l-0.125-3.813 3.813-0.25c0.563-0.063 0.938-0.5 0.938-1l0.188-4.563 2.938-0.625c0.5-0.125 0.813-0.563 0.813-1v-4c0-0.563-0.438-1-1-1zM7 22c1.188 0 2.25 0.688 2.688 1.75 0.188 0.375 0.313 0.813 0.313 1.25 0 1.625-1.375 3-3 3s-3-1.375-3-3c0-1.625 1.375-3 3-3z"></path>
</svg>
