<?xml version="1.0" encoding="utf-8"?>
<!DOCTYPE svg PUBLIC "-//W3C//DTD SVG 1.1//EN" "http://www.w3.org/Graphics/SVG/1.1/DTD/svg11.dtd">
<svg version="1.1" xmlns="http://www.w3.org/2000/svg" xmlns:xlink="http://www.w3.org/1999/xlink" width="32" height="32" viewBox="0 0 32 32">
<path d="M31.688 14.313l-4.813-8.813c0 0-0.063 0-0.063-0.063-0.25-0.375-0.688-0.563-1.125-0.375l-7.688 2.563v-2.625c0-0.563-0.438-1-1-1s-1 0.438-1 1v3.25l-8.375 2.813c-0.063 0-0.125 0.063-0.125 0.063s0 0-0.063 0c-0.125 0.125-0.25 0.188-0.313 0.375 0 0 0 0 0 0l-5 8.75c-0.125 0.188-0.125 0.438-0.125 0.625 0 0.063 0 0.063 0 0.125 0 2.063 3.125 5 6 5s6-2.938 6-5c0-0.125 0-0.25-0.063-0.375 0 0 0 0 0 0s0 0 0 0c-0.063-0.125-0.063-0.25-0.125-0.375l-4.375-7.688 6.563-2.188v16.625c0 0.563 0.438 1 1 1s1-0.438 1-1v-17.313l5.875-1.938-3.563 6.563c-0.188 0.125-0.313 0.438-0.313 0.688 0 2.063 3.125 5 6 5s6-2.938 6-5c0-0.25-0.125-0.563-0.313-0.688zM4.563 20l3.375-6 3.438 6zM22.75 14l3.25-5.938 3.25 5.938z"></path>
</svg>
