<?xml version="1.0" encoding="utf-8"?>
<!DOCTYPE svg PUBLIC "-//W3C//DTD SVG 1.1//EN" "http://www.w3.org/Graphics/SVG/1.1/DTD/svg11.dtd">
<svg version="1.1" xmlns="http://www.w3.org/2000/svg" xmlns:xlink="http://www.w3.org/1999/xlink" width="32" height="32" viewBox="0 0 32 32">
<path d="M21.188 21.188l-1.813-5.375-10.25-10.313-3.625 3.625 10.313 10.25zM0.75 0.75c-1 1-1 2.625 0 3.625l2.625 2.625 3.625-3.625-2.625-2.625c-1-1-2.625-1-3.625 0zM30 6h-14.188l2 2h12.188v22h-22v-12.188l-2-2v14.188c0 1.125 0.875 2 2 2h22c1.125 0 2-0.875 2-2v-22c0-1.125-0.875-2-2-2z"></path>
</svg>
