<?xml version="1.0" encoding="utf-8"?>
<!DOCTYPE svg PUBLIC "-//W3C//DTD SVG 1.1//EN" "http://www.w3.org/Graphics/SVG/1.1/DTD/svg11.dtd">
<svg version="1.1" xmlns="http://www.w3.org/2000/svg" xmlns:xlink="http://www.w3.org/1999/xlink" width="32" height="32" viewBox="0 0 32 32">
<path d="M9 16.5c0.313 0 0.625-0.125 0.813-0.375l4.438-5.688 3 3.563c0.188 0.188 0.375 0.313 0.75 0.313 0.313 0 0.563-0.125 0.75-0.313l7-8.375c0.375-0.375 0.313-1.063-0.125-1.375-0.375-0.375-1.063-0.313-1.375 0.125l-6.25 7.438-3.063-3.625c-0.188-0.188-0.563-0.313-0.75-0.313-0.313 0-0.625 0.125-0.813 0.375l-5.125 6.625c-0.375 0.438-0.25 1.063 0.188 1.438 0.188 0.125 0.375 0.188 0.563 0.188zM31 0h-28c-0.563 0-1 0.438-1 1s0.438 1 1 1h1v18c0 1.125 0.875 2 2 2h10v3.125l-5.688 5.125c-0.375 0.375-0.438 1-0.063 1.438 0.375 0.375 1 0.438 1.438 0.063l4.313-3.938v3.188c0 0.563 0.438 1 1 1s1-0.438 1-1v-3.188l4.313 3.938c0.188 0.188 0.438 0.25 0.688 0.25s0.563-0.125 0.75-0.313c0.375-0.438 0.313-1.063-0.063-1.438l-5.688-5.125v-3.125h10c1.125 0 2-0.875 2-2v-18h1c0.563 0 1-0.438 1-1s-0.438-1-1-1zM28 20h-22v-18h22z"></path>
</svg>
