<?xml version="1.0" encoding="utf-8"?>
<!DOCTYPE svg PUBLIC "-//W3C//DTD SVG 1.1//EN" "http://www.w3.org/Graphics/SVG/1.1/DTD/svg11.dtd">
<svg version="1.1" xmlns="http://www.w3.org/2000/svg" xmlns:xlink="http://www.w3.org/1999/xlink" width="32" height="32" viewBox="0 0 32 32">
<path d="M16 0c-8.813 0-16 7.188-16 16s7.188 16 16 16c8.813 0 16-7.188 16-16s-7.188-16-16-16zM16 30c-7.75 0-14-6.25-14-14s6.25-14 14-14c7.75 0 14 6.25 14 14s-6.25 14-14 14zM22.5 8.125l-3.75 2.375-2.5 1.5c2 0.188 3.563 1.75 3.75 3.75l1.5-2.5 2.375-3.75c0.25-0.375 0.188-0.875-0.188-1.188-0.313-0.375-0.813-0.438-1.188-0.188zM12 16.25l-1.5 2.5-2.375 3.75c-0.25 0.375-0.188 0.875 0.188 1.188 0.188 0.188 0.438 0.313 0.688 0.313 0.188 0 0.375-0.063 0.5-0.125l3.75-2.375 2.5-1.5c-2-0.188-3.563-1.75-3.75-3.75zM16.25 12c-0.063 0-0.188 0-0.25 0-2.188 0-4 1.813-4 4 0 0.063 0 0.188 0 0.25 0.188 2 1.75 3.563 3.75 3.75 0.063 0 0.188 0 0.25 0 2.188 0 4-1.813 4-4 0-0.063 0-0.188 0-0.25-0.188-2-1.75-3.563-3.75-3.75zM14 16c0-1.125 0.875-2 2-2s2 0.875 2 2c0 1.125-0.875 2-2 2s-2-0.875-2-2z"></path>
</svg>
