<?xml version="1.0" encoding="utf-8"?>
<!DOCTYPE svg PUBLIC "-//W3C//DTD SVG 1.1//EN" "http://www.w3.org/Graphics/SVG/1.1/DTD/svg11.dtd">
<svg version="1.1" xmlns="http://www.w3.org/2000/svg" xmlns:xlink="http://www.w3.org/1999/xlink" width="32" height="32" viewBox="0 0 32 32">
<path d="M27.938 11.813c0.125 0.75 0.25 1.563 0.25 2.438 0 6.438-5.5 11.813-12.688 13 1.5 0.563 3.25 0.938 5.063 0.938 1.688 0 3.313-0.313 4.813-0.875 1.813 0.625 3.875 0.813 5.5 0.813-0.813-1.063-1.438-2.063-1.875-2.938 1.875-1.688 3-3.875 3-6.313 0-2.813-1.625-5.375-4.063-7.063zM25.188 14.25c0-5.688-5.625-10.25-12.563-10.25-7 0-12.625 4.563-12.625 10.25 0 2.938 1.563 5.563 4 7.438-0.438 1.188-1.25 2.75-2.563 4.375 2.5 0 5.75-0.375 8.25-1.875 0.938 0.188 1.875 0.25 2.938 0.25 6.938 0 12.563-4.563 12.563-10.188z"></path>
</svg>
