<?xml version="1.0" encoding="utf-8"?>
<!DOCTYPE svg PUBLIC "-//W3C//DTD SVG 1.1//EN" "http://www.w3.org/Graphics/SVG/1.1/DTD/svg11.dtd">
<svg version="1.1" xmlns="http://www.w3.org/2000/svg" xmlns:xlink="http://www.w3.org/1999/xlink" width="32" height="32" viewBox="0 0 32 32">
<path d="M4 4v18l0.313 0.75 3.688 9.25 4-10c0 0 0 0 0 0v-18c0-2.188-1.813-4-4-4s-4 1.813-4 4zM6 4c0-1.125 0.875-2 2-2s2 0.875 2 2v2h-4zM8 26.625l-1-2.563-0.438-1v-0.125l1.438-0.688 1.438 0.688v0.125l-0.438 1zM25.188 5.938l-1.875-4.813h-0.063c-0.063-0.625-0.563-1.125-1.25-1.125-0.625 0-1.188 0.5-1.313 1.125v0l-1.875 4.813-0.813 2.063v20c0 2.188 1.813 4 4 4s4-1.813 4-4c1.125 0 2-0.875 2-2v-6c0-1.125-0.875-2-2-2v-10zM23.313 6.688l0.563 1.313h-3.75l0.563-1.313 0.25-0.688 1.063-2.625 1.063 2.625z"></path>
</svg>
