<?xml version="1.0" encoding="utf-8"?>
<!DOCTYPE svg PUBLIC "-//W3C//DTD SVG 1.1//EN" "http://www.w3.org/Graphics/SVG/1.1/DTD/svg11.dtd">
<svg version="1.1" xmlns="http://www.w3.org/2000/svg" xmlns:xlink="http://www.w3.org/1999/xlink" width="32" height="32" viewBox="0 0 32 32">
<path d="M16 32c8.813 0 16-7.188 16-16s-7.188-16-16-16c-8.813 0-16 7.188-16 16s7.188 16 16 16zM16 2c7.75 0 14 6.25 14 14s-6.25 14-14 14c-7.75 0-14-6.25-14-14s6.25-14 14-14zM12 22c1.125 0 2-0.875 2-2v-8c0-1.125-0.875-2-2-2s-2 0.875-2 2v8c0 1.125 0.875 2 2 2zM20 22c1.125 0 2-0.875 2-2v-8c0-1.125-0.875-2-2-2s-2 0.875-2 2v8c0 1.125 0.875 2 2 2z"></path>
</svg>
