<?xml version="1.0" encoding="utf-8"?>
<!DOCTYPE svg PUBLIC "-//W3C//DTD SVG 1.1//EN" "http://www.w3.org/Graphics/SVG/1.1/DTD/svg11.dtd">
<svg version="1.1" xmlns="http://www.w3.org/2000/svg" xmlns:xlink="http://www.w3.org/1999/xlink" width="32" height="32" viewBox="0 0 32 32">
<path d="M27.125 10c0 0-7.625 0-9.125 0v-5.188c0.063-2.813-0.563-4.813-2.938-4.813-2.563 0-3.063 2.125-3.063 2.125-0.438 7.563-8 9.875-8 9.875v16l2.938 0.125c7.563 0 3 3.875 15.438 3.875 9.438 0 9.625-8.313 9.625-14s-2.625-8-4.875-8zM22.375 30c-6.313 0-7.625-1-8.813-1.875-1.5-1.125-2.938-2-6.563-2 0 0 0 0 0 0l-1-0.063v-12.688c2.5-1.188 7.438-4.313 8-10.875 0.063-0.125 0.313-0.5 1.063-0.5 0.188 0 0.438 0 0.5 0.125 0.063 0.063 0.5 0.625 0.438 2.688v7.188h11.125c1.438 0 2.875 2.063 2.875 6 0 7.813-1.188 12-7.625 12zM1 30c0.563 0 1-0.438 1-1v-17.938c0-0.5-0.438-1-1-1s-1 0.5-1 1v17.938c0 0.563 0.438 1 1 1z"></path>
</svg>
