<?xml version="1.0" encoding="utf-8"?>
<!DOCTYPE svg PUBLIC "-//W3C//DTD SVG 1.1//EN" "http://www.w3.org/Graphics/SVG/1.1/DTD/svg11.dtd">
<svg version="1.1" xmlns="http://www.w3.org/2000/svg" xmlns:xlink="http://www.w3.org/1999/xlink" width="32" height="32" viewBox="0 0 32 32">
<path d="M26 16c-0.063 0-0.125 0-0.188 0 0.125-0.625 0.188-1.313 0.188-2 0-5.5-4.5-10-10-10s-10 4.5-10 10c0 0.063 0 0.063 0 0.125-3.375 0.438-6 3.375-6 6.875s2.625 6.438 6 6.875v0.125h10l-6.25-8h4.25v-8c0-1.125 0.875-2 2-2s2 0.875 2 2v8h4.25l-6.25 8h10c3.313 0 6-2.688 6-6s-2.688-6-6-6z"></path>
</svg>
