<?xml version="1.0" encoding="utf-8"?>
<!DOCTYPE svg PUBLIC "-//W3C//DTD SVG 1.1//EN" "http://www.w3.org/Graphics/SVG/1.1/DTD/svg11.dtd">
<svg version="1.1" xmlns="http://www.w3.org/2000/svg" xmlns:xlink="http://www.w3.org/1999/xlink" width="32" height="32" viewBox="0 0 32 32">
<path d="M20 4h2v2h-2zM24 4h2v2h-2zM20 8h2v2h-2zM24 8h2v2h-2zM20 12h2v2h-2zM24 12h2v2h-2zM20 16h2v2h-2zM24 16h2v2h-2zM20 20h2v2h-2zM24 20h2v2h-2zM28 0h-10c-1.125 0-2 0.875-2 2v6h-10c-1.125 0-2 0.875-2 2v20c0 1.125 0.875 2 2 2h22c1.125 0 2-0.875 2-2v-28c0-1.125-0.875-2-2-2zM12 30h-2v-4h2zM14 30v-6h-6v6h-2v-20h10v20zM24 30h-2v-4h2zM28 30h-2v-6h-6v6h-2v-28h10zM8 12h2v2h-2zM12 12h2v2h-2zM8 16h2v2h-2zM12 16h2v2h-2zM8 20h2v2h-2zM12 20h2v2h-2z"></path>
</svg>
