<?xml version="1.0" encoding="utf-8"?>
<!DOCTYPE svg PUBLIC "-//W3C//DTD SVG 1.1//EN" "http://www.w3.org/Graphics/SVG/1.1/DTD/svg11.dtd">
<svg version="1.1" xmlns="http://www.w3.org/2000/svg" xmlns:xlink="http://www.w3.org/1999/xlink" width="32" height="32" viewBox="0 0 32 32">
<path d="M30 8h-11.938v6h13.938v-4c0-1.125-0.875-2-2-2zM2 8c-1.125 0-2 0.875-2 2v4h14v-6zM2 16v14c0 1.125 0.875 2 2 2h10v-16zM28 32c1.125 0 2-0.875 2-2v-14h-11.938v16zM16 6v0c0 0 0 0 0 0h2.063c1.813 0 4.313 0 5.938 0 2.75 0 4-1.375 4-3s-1.25-3-4-3c-2.563 0-4.625 1.188-6 2.5-0.625-0.375-1.313-0.563-2.063-0.563s-1.375 0.188-2 0.563c-1.375-1.375-3.375-2.5-5.938-2.5-2.75 0-4 1.375-4 3s1.25 3 4 3c1.688 0 4.25 0 6 0h2c0 0 0 0 0 0zM26 3c0 0.813-1.063 1-2 1h-4.563c0 0 0-0.063 0-0.063 1-1 2.5-1.938 4.563-1.938 0.938 0 2 0.188 2 1zM6 3c0-0.813 1.063-1 2-1 2 0 3.5 0.875 4.5 1.875 0 0-0.063 0.063-0.063 0.125h-4.438c-0.938 0-2-0.188-2-1z"></path>
</svg>
