<?xml version="1.0" encoding="utf-8"?>
<!DOCTYPE svg PUBLIC "-//W3C//DTD SVG 1.1//EN" "http://www.w3.org/Graphics/SVG/1.1/DTD/svg11.dtd">
<svg version="1.1" xmlns="http://www.w3.org/2000/svg" xmlns:xlink="http://www.w3.org/1999/xlink" width="32" height="32" viewBox="0 0 32 32">
<path d="M29.063 0c0 0-0.063 0-0.063 0s0 0-0.063 0h-10.563c-0.313 0-1 0.5-1.063 0.563l-12.75 12.75c-0.75 0.75-0.75 2.063 0 2.813l1.563 1.625-1.563 1.563c-0.75 0.75-0.75 2.063 0 2.813l9.313 9.313c0.375 0.375 0.875 0.563 1.375 0.563s1.063-0.188 1.438-0.563l12.688-12.75c0.125-0.063 0.625-0.688 0.625-1.063v-16.625c0-0.563-0.375-1-0.938-1zM27 2c0.563 0 1 0.438 1 1s-0.438 1-1 1c-0.563 0-1-0.438-1-1s0.438-1 1-1zM28 17.313l-12.75 12.688-9.25-9.25 1.563-1.625 6.313 6.313c0.375 0.375 0.875 0.563 1.375 0.563s1.063-0.188 1.438-0.563l11.313-11.313v3.125c0 0 0 0.063 0 0.063s0 0 0 0z"></path>
</svg>
