<?xml version="1.0" encoding="utf-8"?>
<!DOCTYPE svg PUBLIC "-//W3C//DTD SVG 1.1//EN" "http://www.w3.org/Graphics/SVG/1.1/DTD/svg11.dtd">
<svg version="1.1" xmlns="http://www.w3.org/2000/svg" xmlns:xlink="http://www.w3.org/1999/xlink" width="32" height="32" viewBox="0 0 32 32">
<path d="M26 24c0.25 0 0.5 0.063 0.688 0.125 0.25 0.125 0.5 0.25 0.75 0.438l3.938 4c0.375-0.75 0.625-1.625 0.625-2.563 0-3.188-2.5-5.75-5.625-5.938-0.125 0-0.25-0.063-0.375-0.063-0.75 0-1.438 0.125-2.063 0.375l-12.313-12.313c0.25-0.625 0.375-1.313 0.375-2.063 0-0.125-0.063-0.25-0.063-0.375-0.188-3.125-2.75-5.625-5.938-5.625-0.938 0-1.813 0.25-2.563 0.625l4 3.938c0.188 0.25 0.313 0.5 0.438 0.75 0.25 0.688 0.125 1.5-0.438 2.125-0.438 0.375-0.938 0.563-1.438 0.563-0.25 0-0.5-0.063-0.688-0.125-0.25-0.125-0.5-0.25-0.75-0.438l-3.938-4c-0.375 0.75-0.625 1.625-0.625 2.563 0 3.188 2.5 5.75 5.625 5.938 0.125 0 0.25 0.063 0.375 0.063 0.75 0 1.438-0.125 2.063-0.375l12.313 12.313c-0.25 0.625-0.375 1.313-0.375 2.063 0 0.125 0.063 0.25 0.063 0.375 0.188 3.125 2.75 5.625 5.938 5.625 0.938 0 1.813-0.25 2.563-0.625l-4-3.938c-0.188-0.25-0.313-0.5-0.438-0.75-0.25-0.688-0.125-1.5 0.438-2.125 0.438-0.375 0.938-0.563 1.438-0.563z"></path>
</svg>
