<?xml version="1.0" encoding="utf-8"?>
<!DOCTYPE svg PUBLIC "-//W3C//DTD SVG 1.1//EN" "http://www.w3.org/Graphics/SVG/1.1/DTD/svg11.dtd">
<svg version="1.1" xmlns="http://www.w3.org/2000/svg" xmlns:xlink="http://www.w3.org/1999/xlink" width="32" height="32" viewBox="0 0 32 32">
<path d="M27.938 11.813c0.125 0.75 0.25 1.563 0.25 2.438 0 6.438-5.5 11.813-12.688 13 1.5 0.563 3.25 0.938 5.063 0.938 1.688 0 3.313-0.313 4.813-0.875 1.813 0.625 3.875 0.813 5.5 0.813-0.813-1.063-1.438-2.063-1.875-2.938 1.875-1.688 3-3.875 3-6.313 0-2.813-1.625-5.375-4.063-7.063zM1.5 25.438c0.125 0.313 0.5 0.5 0.875 0.5 0 0 0 0 0 0 1.063-0.063 3.188-0.75 5.438-2.125 1.188 0.188 3.875 0.563 4.75 0.563 7.063 0 12.563-4.875 12.563-11.125 0-6.188-5.625-11.188-12.563-11.188-6.875 0-12.5 5-12.5 11.188 0 2.875 1.25 5.625 3.438 7.688-0.438 1.188-1.125 2.375-1.938 3.438-0.25 0.25-0.25 0.688-0.063 1.063zM2.063 13.25c0-5.063 4.688-9.188 10.563-9.188 5.813 0 10.5 4.125 10.5 9.188 0 5.188-4.5 9.125-10.5 9.125-0.813 0-3.938-0.438-4.813-0.625-0.25-0.063-0.563 0-0.75 0.125-0.875 0.563-1.688 1-2.375 1.313 0.375-0.688 0.688-1.438 0.938-2.188 0.188-0.438 0.063-0.875-0.25-1.125-2.125-1.75-3.313-4.125-3.313-6.625z"></path>
</svg>
