<?xml version="1.0" encoding="utf-8"?>
<!DOCTYPE svg PUBLIC "-//W3C//DTD SVG 1.1//EN" "http://www.w3.org/Graphics/SVG/1.1/DTD/svg11.dtd">
<svg version="1.1" xmlns="http://www.w3.org/2000/svg" xmlns:xlink="http://www.w3.org/1999/xlink" width="32" height="32" viewBox="0 0 32 32">
<path d="M27.5 12.688c-0.25-0.875-0.563-1.688-1-2.5l2-4.188c-0.75-0.938-1.563-1.75-2.5-2.5l-4.188 2c-0.813-0.438-1.625-0.75-2.5-1l-1.563-4.375c-0.563-0.063-1.125-0.125-1.75-0.125s-1.188 0.063-1.75 0.125l-1.563 4.375c-0.875 0.25-1.688 0.563-2.5 1l-4.188-2c-0.938 0.75-1.75 1.563-2.5 2.5l2 4.188c-0.438 0.813-0.75 1.625-1 2.5l-4.375 1.563c-0.063 0.563-0.125 1.125-0.125 1.75s0.063 1.188 0.125 1.75l4.375 1.563c0.25 0.875 0.563 1.688 1 2.5l-2 4.188c0.75 0.938 1.563 1.75 2.5 2.5l4.188-2c0.813 0.438 1.625 0.75 2.5 1l1.563 4.375c0.563 0.063 1.125 0.125 1.75 0.125s1.188-0.063 1.75-0.125l1.563-4.375c0.875-0.25 1.688-0.563 2.5-1l4.188 2c0.938-0.75 1.75-1.563 2.5-2.5l-2-4.188c0.438-0.813 0.75-1.625 1-2.5l4.375-1.563c0.063-0.563 0.125-1.125 0.125-1.75s-0.063-1.188-0.125-1.75zM16 24c-4.438 0-8-3.563-8-8s3.563-8 8-8c4.438 0 8 3.563 8 8s-3.563 8-8 8zM12 16c0 2.188 1.813 4 4 4s4-1.813 4-4c0-2.188-1.813-4-4-4s-4 1.813-4 4z"></path>
</svg>
