<?xml version="1.0" encoding="utf-8"?>
<!DOCTYPE svg PUBLIC "-//W3C//DTD SVG 1.1//EN" "http://www.w3.org/Graphics/SVG/1.1/DTD/svg11.dtd">
<svg version="1.1" xmlns="http://www.w3.org/2000/svg" xmlns:xlink="http://www.w3.org/1999/xlink" width="32" height="32" viewBox="0 0 32 32">
<path d="M11.875 25.063c-1.25 0-2.375-0.563-3.125-1.375-1.375-1.5-2.375-0.563-2.688 0.875-1.563 7.5 0.688 7.438 0.688 7.438l21.25 0.063c2.188 0 4-1.813 4-4v-14c0-2.188 0.25-5.313-1.75-4.438-1.563 0.688-3.563 1.125-6.688 0.438-1.5-0.313-2.438-1.313-0.938-2.688 0.875-0.75 1.375-1.875 1.375-3.125 0-2.375-1.875-4.25-4.25-4.25-2.313 0-4.25 1.875-4.25 4.25 0 1.313 0.75 2.438 1.625 3.313 0.5 0.5 1.875 1.875-1.688 2.5-3.875 0.688-7.625-1.5-8.375-0.75-0.5 0.563-1.875 2.563-1 7.25 0.688 3.563 2 2.063 2.5 1.563 0.875-0.875 2-1.563 3.313-1.563 2.375 0 4.25 1.875 4.25 4.25 0 2.313-1.875 4.25-4.25 4.25z"></path>
</svg>
