<?xml version="1.0" encoding="utf-8"?>
<!DOCTYPE svg PUBLIC "-//W3C//DTD SVG 1.1//EN" "http://www.w3.org/Graphics/SVG/1.1/DTD/svg11.dtd">
<svg version="1.1" xmlns="http://www.w3.org/2000/svg" xmlns:xlink="http://www.w3.org/1999/xlink" width="32" height="32" viewBox="0 0 32 32">
<path d="M14 25.813v4.188h-3c-0.563 0-1 0.438-1 1s0.438 1 1 1h10c0.563 0 1-0.438 1-1s-0.438-1-1-1h-3v-4.188c4.188-0.813 8-4.188 8-9.813v-3c0-0.563-0.438-1-1-1s-1 0.438-1 1v3c0 5.25-4 8-8 8-3.875 0-8-2.5-8-8v-3c0-0.563-0.438-1-1-1s-1 0.438-1 1v3c0 5.688 3.75 9 8 9.813zM16 22c3.313 0 6-2.688 6-6v-10c0-3.313-2.688-6-6-6s-6 2.688-6 6v10c0 3.313 2.688 6 6 6zM12 6c0-2.188 1.813-4 4-4s4 1.813 4 4v10c0 2.188-1.813 4-4 4s-4-1.813-4-4z"></path>
</svg>
