<?xml version="1.0" encoding="utf-8"?>
<!DOCTYPE svg PUBLIC "-//W3C//DTD SVG 1.1//EN" "http://www.w3.org/Graphics/SVG/1.1/DTD/svg11.dtd">
<svg version="1.1" xmlns="http://www.w3.org/2000/svg" xmlns:xlink="http://www.w3.org/1999/xlink" width="32" height="32" viewBox="0 0 32 32">
<path d="M6 32h20c1.125 0 2-0.875 2-2v-28c0-1.125-0.875-2-2-2h-20c-1.125 0-2 0.875-2 2v28c0 1.125 0.875 2 2 2zM6 2h20v28h-20zM22 4h-12c-1.125 0-2 0.875-2 2v2c0 1.125 0.875 2 2 2h12c1.125 0 2-0.875 2-2v-2c0-1.125-0.875-2-2-2zM22 8h-12v-2h12zM8 14c0 1.125 0.875 2 2 2s2-0.875 2-2c0-1.125-0.875-2-2-2s-2 0.875-2 2zM8 20c0 1.125 0.875 2 2 2s2-0.875 2-2c0-1.125-0.875-2-2-2s-2 0.875-2 2zM8 26c0 1.125 0.875 2 2 2s2-0.875 2-2c0-1.125-0.875-2-2-2s-2 0.875-2 2zM14 14c0 1.125 0.875 2 2 2s2-0.875 2-2c0-1.125-0.875-2-2-2s-2 0.875-2 2zM14 20c0 1.125 0.875 2 2 2s2-0.875 2-2c0-1.125-0.875-2-2-2s-2 0.875-2 2zM14 26c0 1.125 0.875 2 2 2s2-0.875 2-2c0-1.125-0.875-2-2-2s-2 0.875-2 2zM20 14c0 1.125 0.875 2 2 2s2-0.875 2-2c0-1.125-0.875-2-2-2s-2 0.875-2 2zM20 20c0 1.125 0.875 2 2 2s2-0.875 2-2c0-1.125-0.875-2-2-2s-2 0.875-2 2zM20 26c0 1.125 0.875 2 2 2s2-0.875 2-2c0-1.125-0.875-2-2-2s-2 0.875-2 2z"></path>
</svg>
