<?xml version="1.0" encoding="utf-8"?>
<!DOCTYPE svg PUBLIC "-//W3C//DTD SVG 1.1//EN" "http://www.w3.org/Graphics/SVG/1.1/DTD/svg11.dtd">
<svg version="1.1" xmlns="http://www.w3.org/2000/svg" xmlns:xlink="http://www.w3.org/1999/xlink" width="32" height="32" viewBox="0 0 32 32">
<path d="M17 2c-8.313 0-15 6.688-15 15s6.688 15 15 15c8.313 0 15-6.688 15-15s-6.688-15-15-15zM18.688 16c2.938 0 5.313 2.25 5.313 5s-2.375 5-5.313 5h-0.688v1c0 0.563-0.438 1-1 1s-1-0.438-1-1v-1h-0.688c-2.938 0-5.313-2.25-5.313-5 0-0.563 0.438-1 1-1s1 0.438 1 1c0 1.625 1.5 3 3.313 3h0.688v-6h-0.688c-2.938 0-5.313-2.25-5.313-5s2.375-5 5.313-5h0.688v-1c0-0.563 0.438-1 1-1s1 0.438 1 1v1h0.688c2.938 0 5.313 2.25 5.313 5 0 0.563-0.438 1-1 1s-1-0.438-1-1c0-1.625-1.5-3-3.313-3h-0.688v6zM12 13c0 1.625 1.5 3 3.313 3h0.688v-6h-0.688c-1.813 0-3.313 1.375-3.313 3zM18.688 24c1.813 0 3.313-1.375 3.313-3s-1.5-3-3.313-3h-0.688v6z"></path>
</svg>
