<?xml version="1.0" encoding="utf-8"?>
<!DOCTYPE svg PUBLIC "-//W3C//DTD SVG 1.1//EN" "http://www.w3.org/Graphics/SVG/1.1/DTD/svg11.dtd">
<svg version="1.1" xmlns="http://www.w3.org/2000/svg" xmlns:xlink="http://www.w3.org/1999/xlink" width="32" height="32" viewBox="0 0 32 32">
<path d="M25.875 10c0.063-0.813 0.125-1.5 0.125-1.938 0-0.5-0.188-1.063-0.563-1.438s-0.875-0.625-1.438-0.625h-22c-0.563 0-1.063 0.25-1.438 0.625s-0.563 0.938-0.563 1.438c0.125 2.688 0.875 16 4.688 19.438 0.375 0.313 0.813 0.5 1.313 0.5h14c0.5 0 0.938-0.188 1.313-0.5 1.188-1.063 2.125-3.125 2.75-5.5 1 0 1.688 0 1.75 0 3.438 0 6.188-2.5 6.188-6 0-4.75-4.125-6-6.125-6zM20 26h-14c-3.375-3-4-18-4-18h22c0 0-0.625 15-4 18zM25.813 20h-0.625c-0.188 0-0.375 0-0.625 0 0.625-2.75 0.938-5.688 1.188-8h0.063c0.188 0 4.188 0.063 4.188 4 0 2.313-1.75 4-4.188 4z"></path>
</svg>
