<?xml version="1.0" encoding="utf-8"?>
<!DOCTYPE svg PUBLIC "-//W3C//DTD SVG 1.1//EN" "http://www.w3.org/Graphics/SVG/1.1/DTD/svg11.dtd">
<svg version="1.1" xmlns="http://www.w3.org/2000/svg" xmlns:xlink="http://www.w3.org/1999/xlink" width="32" height="32" viewBox="0 0 32 32">
<path d="M16.563 2.563c-3.75 0-7.438 1.375-10.25 4.25-5.688 5.625-5.688 14.813 0 20.438 2.813 2.875 6.5 4.25 10.25 4.25 3.688 0 7.375-1.375 10.25-4.25 5.625-5.625 5.625-14.813 0-20.438-2.875-2.875-6.563-4.25-10.25-4.25zM25.438 25.875c-2.375 2.375-5.563 3.688-8.875 3.688-3.375 0-6.5-1.313-8.875-3.688-2.375-2.313-3.688-5.5-3.688-8.813 0-3.375 1.313-6.5 3.688-8.875s5.5-3.688 8.875-3.688c3.313 0 6.5 1.313 8.875 3.688s3.625 5.5 3.625 8.875c0 3.313-1.25 6.5-3.625 8.813zM22.313 16h-4.875v-6.813c0-0.5-0.438-0.938-0.938-0.938-0.563 0-1 0.438-1 0.938v7.75c0 0 0 0 0 0v0.063c0 0.5 0.438 0.938 1 0.938h5.813c0.5 0 0.938-0.438 0.938-0.938 0-0.563-0.438-1-0.938-1z"></path>
</svg>
