<?xml version="1.0" encoding="utf-8"?>
<!DOCTYPE svg PUBLIC "-//W3C//DTD SVG 1.1//EN" "http://www.w3.org/Graphics/SVG/1.1/DTD/svg11.dtd">
<svg version="1.1" xmlns="http://www.w3.org/2000/svg" xmlns:xlink="http://www.w3.org/1999/xlink" width="32" height="32" viewBox="0 0 32 32">
<path d="M30 20v-4c0-1.125-0.875-2-2-2h-10v-4h6c1.125 0 2-0.875 2-2v-2c0-1.125-0.875-2-2-2h-14c-1.125 0-2 0.875-2 2v2c0 1.125 0.875 2 2 2h6v4h-10c-1.125 0-2 0.875-2 2v4c-1.125 0-2 0.875-2 2v4c0 1.125 0.875 2 2 2h2c1.125 0 2-0.875 2-2v-4c0-1.125-0.875-2-2-2v-4h10v4c-1.125 0-2 0.875-2 2v4c0 1.125 0.875 2 2 2h2c1.125 0 2-0.875 2-2v-4c0-1.125-0.875-2-2-2v-4h10v4c-1.125 0-2 0.875-2 2v4c0 1.125 0.875 2 2 2h2c1.125 0 2-0.875 2-2v-4c0-1.125-0.875-2-2-2z"></path>
</svg>
