<?xml version="1.0" encoding="utf-8"?>
<!DOCTYPE svg PUBLIC "-//W3C//DTD SVG 1.1//EN" "http://www.w3.org/Graphics/SVG/1.1/DTD/svg11.dtd">
<svg version="1.1" xmlns="http://www.w3.org/2000/svg" xmlns:xlink="http://www.w3.org/1999/xlink" width="32" height="32" viewBox="0 0 32 32">
<path d="M30 20v-4c0-9.188-7.063-14-14-14-6.813 0-14 4.875-14 14v4c-1.125 0-2 0.875-2 2v4c0 1.125 0.875 2 2 2 0 1.125 0.875 2 2 2s2-0.875 2-2v-8c0-1.125-0.875-2-2-2v-2c0-7.875 6.063-12 12-12 5.75 0 12 3.75 12 12v2c-1.125 0-2 0.875-2 2v8c0 1.125 0.875 2 2 2s2-0.875 2-2c1.125 0 2-0.875 2-2v-4c0-1.125-0.875-2-2-2z"></path>
</svg>
