<?xml version="1.0" encoding="utf-8"?>
<!DOCTYPE svg PUBLIC "-//W3C//DTD SVG 1.1//EN" "http://www.w3.org/Graphics/SVG/1.1/DTD/svg11.dtd">
<svg version="1.1" xmlns="http://www.w3.org/2000/svg" xmlns:xlink="http://www.w3.org/1999/xlink" width="32" height="32" viewBox="0 0 32 32">
<path d="M26 2h-4c0-1.125-0.875-2-2-2h-6c-1.125 0-2 0.875-2 2h-4c-1.125 0-2 0.875-2 2h22c0-1.125-0.875-2-2-2zM6 30c0 1.125 0.875 2 2 2h18c1.125 0 2-0.875 2-2v-24h-22zM22 11c0-0.563 0.438-1 1-1s1 0.438 1 1v16c0 0.563-0.438 1-1 1s-1-0.438-1-1zM16 11c0-0.563 0.438-1 1-1s1 0.438 1 1v16c0 0.563-0.438 1-1 1s-1-0.438-1-1zM10 11c0-0.563 0.438-1 1-1s1 0.438 1 1v16c0 0.563-0.438 1-1 1s-1-0.438-1-1z"></path>
</svg>
