<?xml version="1.0" encoding="utf-8"?>
<!DOCTYPE svg PUBLIC "-//W3C//DTD SVG 1.1//EN" "http://www.w3.org/Graphics/SVG/1.1/DTD/svg11.dtd">
<svg version="1.1" xmlns="http://www.w3.org/2000/svg" xmlns:xlink="http://www.w3.org/1999/xlink" width="32" height="32" viewBox="0 0 32 32">
<path d="M4 6v24c0 0.813 0.5 1.563 1.25 1.875 0.25 0.063 0.5 0.125 0.75 0.125 0.5 0 1.063-0.188 1.438-0.563l8.563-8.625 8.563 8.625c0.375 0.375 0.938 0.563 1.438 0.563 0.25 0 0.5-0.063 0.75-0.125 0.75-0.313 1.25-1.063 1.25-1.875v-24zM28 4v-2c0-1.125-0.875-2-2-2h-20c-1.125 0-2 0.875-2 2v2z"></path>
</svg>
