<?xml version="1.0" encoding="utf-8"?>
<!DOCTYPE svg PUBLIC "-//W3C//DTD SVG 1.1//EN" "http://www.w3.org/Graphics/SVG/1.1/DTD/svg11.dtd">
<svg version="1.1" xmlns="http://www.w3.org/2000/svg" xmlns:xlink="http://www.w3.org/1999/xlink" width="32" height="32" viewBox="0 0 32 32">
<path d="M20.625 24.188l5.375 1.813-1.813-5.375-10.25-10.313-3.625 3.625zM8.25 11.813l3.563-3.563-2.625-2.688c-1-1-2.625-1-3.625 0s-1 2.625 0 3.625zM30 0h-28c-1.125 0-2 0.875-2 2v28c0 1.125 0.875 2 2 2h28c1.125 0 2-0.875 2-2v-28c0-1.125-0.875-2-2-2zM30 30h-28v-28h28z"></path>
</svg>
