<?xml version="1.0" encoding="utf-8"?>
<!DOCTYPE svg PUBLIC "-//W3C//DTD SVG 1.1//EN" "http://www.w3.org/Graphics/SVG/1.1/DTD/svg11.dtd">
<svg version="1.1" xmlns="http://www.w3.org/2000/svg" xmlns:xlink="http://www.w3.org/1999/xlink" width="32" height="32" viewBox="0 0 32 32">
<path d="M29.813 17.438l-0.188-0.313c-0.313-0.5-0.688-0.938-1.125-1.313-0.438-0.25-0.938-0.438-1.375-0.688 1.25-0.563 2.125-1.438 2.563-2.563 0.313-0.875-0.25-1.625-0.25-2.313v-0.125c0-0.813-1.125-1.313-2.188-1.625-0.563-0.063-1.25-0.063-1.875-0.063l-1.375 0.313 0.438-1.063c0.438-1.25 0.313-2.5-0.375-3.688l-0.125-0.25c-0.625-1-1.563-1.625-2.813-1.938s-2.375-0.188-3.5 0.438c-1.188 0.625-2.25 1.5-2.25 2.75v0.063l-0.188 0.313-0.188-0.313-0.438-0.688c-0.688-1.063-1.5-1.625-2.563-1.938-0.875-0.188-1.625-0.125-2.438 0.313-0.875 0.5-1.375 1.313-1.563 2.438-0.188 1.188 0 2.313 0.625 3.438l0.25 0.438-0.938-0.313c-1.25-0.313-2.438-0.125-3.563 0.5-1.25 0.563-2 1.438-2.438 2.625-0.5 1.125-0.438 2.188 0.125 3.25 0.25 0.438 0.625 0.813 0.938 1.063 0.5 0.438 1.125 0.75 1.875 0.875l0.313 0.063-0.625 0.563c-0.563 0.438-0.938 1.063-1.125 1.688-0.188 0.75-0.125 1.438 0.313 2.125 0.188 0.375 0.375 0.625 0.75 0.813 0.313 0.313 0.75 0.5 1.188 0.563 0.938 0.188 1.875 0.188 2.938-0.125l-0.75 1.188-0.188 0.563c-0.438 1.313-0.313 2.438 0.313 3.625 0.25 0.438 0.625 0.813 0.938 1.188 0.5 0.438 1.125 0.75 1.875 0.938 1.25 0.313 2.5 0.313 3.688-0.313 1.125-0.625 1.875-1.625 2.25-2.813l0.063-0.25c0.75 0.875 1.5 1.438 2.375 1.625 0.813 0.25 1.625 0.188 2.375-0.25 0.688-0.438 1.188-1.125 1.438-2 0.188-0.875 0.188-1.75 0-2.75 0.438 0.25 0.813 0.438 1.313 0.563 1.313 0.438 2.5 0.375 3.688-0.25 1.063-0.563 1.813-1.563 2.188-2.813s0.25-2.375-0.375-3.563zM23.813 10.688l0.5-0.188c0.75-0.375 1.5-0.438 2.188-0.375 0.75 0.125 1.25 0.438 1.5 0.938l0.125 0.5-0.063 0.438c-0.313 0.688-0.938 1.25-1.938 1.75-0.438 0.188-0.875 0.25-1.375 0.313l-5.063 0.625-0.188-0.375 0.188-0.25zM16.813 5.563c0.188-0.813 0.75-1.438 1.5-1.813 0.75-0.438 1.625-0.5 2.375-0.188 0.875 0.188 1.5 0.625 1.875 1.313 0.188 0.438 0.313 0.875 0.313 1.438l-0.125 0.875c-0.125 0.438-0.375 0.875-0.625 1.25l-3.688 4.438c-0.375-0.313-0.813-0.5-1.25-0.688l-0.375-4.563-0.063-1.625zM9.75 5.688c0-0.75 0.313-1.188 0.813-1.5 0.25-0.188 0.625-0.188 0.938-0.063 0.75 0.25 1.375 0.75 1.875 1.75 0.188 0.438 0.438 0.813 0.5 1.313l0.813 4.813-0.625 0.188-3.688-3.938-0.188-0.438c-0.313-0.688-0.563-1.375-0.438-2.125zM3.625 14.313c-0.313-0.625-0.313-1.25-0.063-1.813 0.313-0.813 0.813-1.438 1.625-1.75 0.75-0.375 1.5-0.5 2.313-0.313l1.125 0.438 3.625 2.625c-0.313 0.375-0.563 0.813-0.688 1.188l-5.938 0.75-0.375-0.063c-0.75-0.125-1.25-0.5-1.625-1.063zM15.375 26.25l-0.188 0.438c-0.25 0.75-0.813 1.313-1.563 1.625-0.75 0.438-1.563 0.5-2.313 0.313-0.813-0.188-1.438-0.688-1.75-1.313-0.25-0.438-0.375-0.938-0.375-1.375l0.188-0.938c0.063-0.438 0.25-0.813 0.625-1.188l3.438-4.063c0.438 0.25 0.938 0.438 1.375 0.5 0.125 1.375 0.563 2.813 0.563 4.375zM13.813 18.125c-0.563-0.438-0.875-1.125-0.875-1.875s0.313-1.375 0.875-1.938c0.438-0.438 1.125-0.688 1.938-0.688 0.75 0 1.438 0.25 1.875 0.688 0.563 0.563 0.813 1.188 0.813 1.938s-0.25 1.438-0.813 1.875c-0.5 0.563-1.125 0.813-1.875 0.813-0.813 0-1.5-0.25-1.938-0.813zM21.438 25.25c-0.063 0.75-0.313 1.25-0.813 1.5-0.313 0.188-0.625 0.188-0.938 0.125-0.813-0.188-1.438-0.813-1.875-1.75l-0.5-1.375-0.625-3.5 0.688-0.25 0.563-0.313 1.75 1.75 1.063 1.313 0.188 0.375c0.375 0.688 0.563 1.375 0.5 2.125zM28.563 20.5c-0.188 0.813-0.688 1.438-1.438 1.75-0.75 0.438-1.438 0.5-2.313 0.188-0.5-0.125-0.813-0.313-1.125-0.625l-4.313-3.563 0.313-0.563 0.125-0.5 4.625-0.438h2.063c0.625 0.25 1.25 0.563 1.563 1.188 0.438 0.438 0.625 1.063 0.625 1.75z"></path>
</svg>
