<?xml version="1.0" encoding="utf-8"?>
<!DOCTYPE svg PUBLIC "-//W3C//DTD SVG 1.1//EN" "http://www.w3.org/Graphics/SVG/1.1/DTD/svg11.dtd">
<svg version="1.1" xmlns="http://www.w3.org/2000/svg" xmlns:xlink="http://www.w3.org/1999/xlink" width="32" height="32" viewBox="0 0 32 32">
<path d="M19.313 12.313h7.313v1.063h-7.313zM19.313 18.625h7.313v1.063h-7.313zM19.313 15.5h5.188v1h-5.188zM18.25 6.063v-3.188h-4.188v3.188h-11.563v23.063h27.25v-23.063zM28.75 7.063v2.125h-10.5v-2.125zM15.063 3.938h2.125v5.25h-2.125zM3.563 7.063h10.5v2.125h-10.5zM3.563 28.063v-17.813h25.188v17.813zM17.938 23.375c-0.75-0.313-2.5-0.938-3.625-1.25-0.125 0-0.125 0-0.125-0.438 0-0.313 0.125-0.625 0.25-0.875 0.188-0.313 0.313-0.813 0.375-1.313 0.188-0.188 0.438-0.563 0.563-1.313 0.125-0.625 0.063-0.875 0-1.063 0-0.063 0-0.063-0.063-0.063 0-0.188 0.063-0.938 0.125-1.563 0.125-0.438 0-1.313-0.563-2.063-0.375-0.438-1.063-1-2.375-1.125h-0.688c-1.25 0.125-1.938 0.688-2.313 1.125-0.563 0.75-0.625 1.625-0.563 2.063 0.125 0.625 0.125 1.375 0.125 1.563 0 0-0.063 0-0.063 0.063-0.063 0.188-0.125 0.438 0 1.063 0.125 0.75 0.375 1.125 0.563 1.313 0.063 0.5 0.188 1 0.375 1.313 0.063 0.188 0.125 0.5 0.125 0.938 0 0.375 0 0.375-0.125 0.375-1.125 0.375-2.938 1-3.625 1.313-0.563 0.25-0.688 0.625-0.688 1 0 0.125 0 0.313 0 0.5h1.063v-0.5c0 0 0 0 0 0s0.063 0 0.063 0c0.625-0.313 2.438-0.938 3.563-1.313 0.813-0.25 0.813-1 0.813-1.375 0-0.625-0.063-1.063-0.25-1.438-0.125-0.188-0.25-0.625-0.313-0.938v-0.313l-0.25-0.25c0 0-0.188-0.188-0.25-0.813-0.125-0.375-0.063-0.438-0.063-0.5s0.063-0.125 0.063-0.25c0.125-0.438 0-1.5-0.125-1.938 0-0.188 0-0.75 0.438-1.25 0.313-0.375 0.813-0.625 1.5-0.688h0.625c0.688 0.063 1.188 0.313 1.563 0.688 0.375 0.5 0.375 1.063 0.375 1.25-0.125 0.438-0.188 1.5-0.125 1.938v0.125c0.063 0 0.063 0.063 0.063 0.125s0.063 0.125 0 0.5c-0.125 0.625-0.313 0.813-0.313 0.813l-0.25 0.25v0.313c-0.063 0.313-0.188 0.75-0.313 0.938-0.125 0.375-0.375 0.875-0.375 1.375 0 0.375 0 1.188 0.875 1.438 1.063 0.313 2.813 0.938 3.563 1.25 0.125 0.063 0.125 0.125 0.125 0.125v0.438h1.063c0-0.188 0-0.375 0-0.5 0-0.375-0.25-0.813-0.813-1.063z"></path>
</svg>
