<?xml version="1.0" encoding="utf-8"?>
<!DOCTYPE svg PUBLIC "-//W3C//DTD SVG 1.1//EN" "http://www.w3.org/Graphics/SVG/1.1/DTD/svg11.dtd">
<svg version="1.1" xmlns="http://www.w3.org/2000/svg" xmlns:xlink="http://www.w3.org/1999/xlink" width="32" height="32" viewBox="0 0 32 32">
<path d="M1.625 15.25c-0.063 7.063 5.813 12.75 13.125 12.75 2.063 0 4-0.438 5.75-1.313l9.875 2.938-3.188-10.313c0.438-1.313 0.688-2.688 0.688-4.125 0-7.063-5.875-12.813-13.125-12.813s-13.125 5.75-13.125 12.875zM23.625 15.188c0 1.125-0.188 2.125-0.563 3.063l1.688 4.688 0.125 0.375c0 0 0 0 0 0l0.563 1.563-2.063-0.563-4.5-1.375c-1.25 0.625-2.688 0.938-4.125 0.938-4.938 0-8.938-3.875-8.938-8.688 0-4.75 4-8.688 8.938-8.688s8.875 3.875 8.875 8.688z"></path>
</svg>
