<?xml version="1.0" encoding="utf-8"?>
<!DOCTYPE svg PUBLIC "-//W3C//DTD SVG 1.1//EN" "http://www.w3.org/Graphics/SVG/1.1/DTD/svg11.dtd">
<svg version="1.1" xmlns="http://www.w3.org/2000/svg" xmlns:xlink="http://www.w3.org/1999/xlink" width="32" height="32" viewBox="0 0 32 32">
<path d="M30.188 3.188h-28.375c-1 0-1.813 0.813-1.813 1.813v17c0 1 0.813 1.813 1.813 1.813h9.563v1.625l-2.688 2.688c-0.063 0.125-0.125 0.25-0.063 0.375 0.063 0.188 0.188 0.313 0.375 0.313h13.625c0.125 0 0.25-0.125 0.313-0.313 0.063-0.125 0.063-0.25-0.063-0.375l-2.688-2.688v-1.625h10c1 0 1.813-0.813 1.813-1.813v-17c0-1-0.813-1.813-1.813-1.813zM19.625 25.813c0 0 0 0 0 0.063l2.188 2.188h-12.063l2.188-2.188c0.063 0 0.063-0.063 0.063-0.063h7.625zM19.5 25.563h-7.438v-1.75h7.438zM31.25 22c0 0.625-0.438 1.125-1.063 1.125h-28.375c-0.625 0-1.063-0.5-1.063-1.125v-17c0-0.563 0.438-1.063 1.063-1.063h28.375c0.625 0 1.063 0.5 1.063 1.063zM1.938 19.688h28.063v-13.688h-28.063zM2.688 6.688h19.875l5.375 5.438 0.375-0.375-5-5.063h1.375l3.563 3.625 0.375-0.375-3.188-3.25h1.125l1.875 1.875 0.375-0.375-1.438-1.5h1.875v12.25h-26.563zM16.188 5c0 0.125-0.125 0.25-0.313 0.25-0.125 0-0.313-0.125-0.313-0.25 0-0.188 0.188-0.313 0.313-0.313 0.188 0 0.313 0.125 0.313 0.313zM16.875 21.375c0 0.563-0.438 1-1 1s-1-0.438-1-1c0-0.563 0.438-1 1-1s1 0.438 1 1zM10.813 27.5h10.125v0.25h-10.125zM11.563 26.875h8.5v0.25h-8.5zM12.125 26.188h7.313v0.313h-7.313z"></path>
</svg>
