<?xml version="1.0" encoding="utf-8"?>
<!DOCTYPE svg PUBLIC "-//W3C//DTD SVG 1.1//EN" "http://www.w3.org/Graphics/SVG/1.1/DTD/svg11.dtd">
<svg version="1.1" xmlns="http://www.w3.org/2000/svg" xmlns:xlink="http://www.w3.org/1999/xlink" width="32" height="32" viewBox="0 0 32 32">
<path d="M16.063 11.125c0.875 0 1.625-0.688 1.625-1.563s-0.75-1.625-1.625-1.625c-0.875 0-1.625 0.75-1.625 1.625s0.75 1.563 1.625 1.563zM17.125 13.313v-1.063h-3.188v1.063h1.063v9.063h-1.063v1.063h4.313v-1.063h-1.125zM16 2.688c-7.375 0-13.313 5.938-13.313 13.313s5.938 13.313 13.313 13.313c7.375 0 13.313-5.938 13.313-13.313s-5.938-13.313-13.313-13.313zM16 28.25c-6.75 0-12.25-5.5-12.25-12.25s5.5-12.25 12.25-12.25c6.75 0 12.25 5.5 12.25 12.25s-5.5 12.25-12.25 12.25z"></path>
</svg>
