<?xml version="1.0" encoding="utf-8"?>
<!DOCTYPE svg PUBLIC "-//W3C//DTD SVG 1.1//EN" "http://www.w3.org/Graphics/SVG/1.1/DTD/svg11.dtd">
<svg version="1.1" xmlns="http://www.w3.org/2000/svg" xmlns:xlink="http://www.w3.org/1999/xlink" width="32" height="32" viewBox="0 0 32 32">
<path d="M28 12l-0.75 0.813 3.188 3.125-7.313 7.313c-1.875 1.875-4.5 2.938-7.25 2.938-0.688 0-1.375-0.125-2.063-0.25l-0.875 0.938c0.875 0.188 1.938 0.313 2.938 0.313 2.938 0 5.813-1.125 8.063-3.313l8.063-8zM4.75 19.125l-3.125-3.188 7.25-7.25c1.813-1.938 4.375-2.938 7.125-2.938 0.688 0 1.375 0.125 2.063 0.25l0.875-0.938c-1-0.313-1.938-0.438-2.938-0.438-2.938 0-5.813 1.125-8.063 3.313l-7.938 8 4 4zM29.938 2.813l-27.188 27.188-0.813-0.813 27.188-27.188z"></path>
</svg>
