<?xml version="1.0" encoding="utf-8"?>
<!DOCTYPE svg PUBLIC "-//W3C//DTD SVG 1.1//EN" "http://www.w3.org/Graphics/SVG/1.1/DTD/svg11.dtd">
<svg version="1.1" xmlns="http://www.w3.org/2000/svg" xmlns:xlink="http://www.w3.org/1999/xlink" width="32" height="32" viewBox="0 0 32 32">
<path d="M25.813 0h-19.625c-1.5 0-2.688 1.25-2.688 2.75v26.5c0 1.5 1.188 2.75 2.688 2.75h19.625c1.5 0 2.688-1.25 2.688-2.75v-26.5c0-1.5-1.188-2.75-2.688-2.75zM27.75 29.25c0 1.125-0.875 2-1.938 2h-19.625c-1.063 0-1.938-0.875-1.938-2v-26.5c0-1.125 0.875-2 1.938-2h19.625c1.063 0 1.938 0.875 1.938 2zM5.188 26.625h21.75v-23.688h-21.75zM5.938 3.75h11.875l7.25 5.375 0.5-0.375-6.813-5h1.75l-0.188 0.125 4.563 3.375 0.5-0.375-4.25-3.125h1.563l2.188 1.625 0.5-0.375-1.75-1.25h2.563v22.063h-20.25zM16.188 1.813c0 0.063 0 0.125-0.063 0.125s-0.125-0.063-0.125-0.125c0-0.063 0.063-0.063 0.125-0.063s0.063 0 0.063 0.063zM16.125 2.313c0.25 0 0.5-0.188 0.5-0.5 0-0.25-0.25-0.5-0.5-0.5-0.313 0-0.5 0.25-0.5 0.5 0 0.313 0.188 0.5 0.5 0.5zM16.125 1.563c0.125 0 0.25 0.125 0.25 0.25 0 0.188-0.125 0.313-0.25 0.313-0.188 0-0.313-0.125-0.313-0.313 0-0.125 0.125-0.25 0.313-0.25zM16 27.438c-0.75 0-1.313 0.563-1.313 1.313s0.563 1.375 1.313 1.375c0.75 0 1.375-0.625 1.375-1.375s-0.625-1.313-1.375-1.313zM16 29.313c-0.313 0-0.563-0.25-0.563-0.563s0.25-0.563 0.563-0.563c0.313 0 0.563 0.25 0.563 0.563s-0.25 0.563-0.563 0.563z"></path>
</svg>
