<?xml version="1.0" encoding="utf-8"?>
<!DOCTYPE svg PUBLIC "-//W3C//DTD SVG 1.1//EN" "http://www.w3.org/Graphics/SVG/1.1/DTD/svg11.dtd">
<svg version="1.1" xmlns="http://www.w3.org/2000/svg" xmlns:xlink="http://www.w3.org/1999/xlink" width="32" height="32" viewBox="0 0 32 32">
<path d="M22.313 0h-12.625c-1.75 0-3.125 1.375-3.125 3.125v25.75c0 1.75 1.375 3.125 3.125 3.125h12.625c1.75 0 3.125-1.375 3.125-3.125v-25.75c0-1.75-1.375-3.125-3.125-3.125zM24.563 28.875c0 1.25-1 2.25-2.25 2.25h-12.625c-1.25 0-2.25-1-2.25-2.25v-25.75c0-1.25 1-2.25 2.25-2.25h12.625c1.25 0 2.25 1 2.25 2.25zM8.688 24.563h14.563v-19.125h-14.563zM9.563 6.313h5.813l5.938 6 0.438-0.438-5.563-5.563h1.188l3.813 3.875 0.438-0.438-3.438-3.438h1.25l1.75 1.75 0.438-0.438-1.313-1.313h2.063v17.375h-12.813zM16.875 3.313c0 0.438-0.375 0.813-0.813 0.813s-0.75-0.375-0.75-0.813c0-0.438 0.313-0.813 0.75-0.813s0.813 0.375 0.813 0.813zM16.125 25.688c-1.188 0-2.188 1-2.188 2.25 0 1.188 1 2.188 2.188 2.188 1.25 0 2.188-1 2.188-2.188 0-1.25-0.938-2.25-2.188-2.25zM16.125 29.25c-0.75 0-1.313-0.625-1.313-1.313 0-0.75 0.563-1.313 1.313-1.313s1.313 0.563 1.313 1.313c0 0.688-0.563 1.313-1.313 1.313z"></path>
</svg>
