<?xml version="1.0" encoding="utf-8"?>
<!DOCTYPE svg PUBLIC "-//W3C//DTD SVG 1.1//EN" "http://www.w3.org/Graphics/SVG/1.1/DTD/svg11.dtd">
<svg version="1.1" xmlns="http://www.w3.org/2000/svg" xmlns:xlink="http://www.w3.org/1999/xlink" width="32" height="32" viewBox="0 0 32 32">
<path d="M16 1.625c-7.938 0-14.375 6.438-14.375 14.375s6.438 14.375 14.375 14.375c7.938 0 14.375-6.438 14.375-14.375s-6.438-14.375-14.375-14.375zM16 27.5c-6.375 0-11.5-5.125-11.5-11.5s5.125-11.5 11.5-11.5c6.375 0 11.5 5.125 11.5 11.5s-5.125 11.5-11.5 11.5zM21.25 19.875c0.125 1.188-0.813 2.313-2.063 2.5-1.188 0.125-2.25-0.75-2.375-1.938-0.063-1.25 0.875-2.375 2.063-2.5 0.375-0.063 0.75 0 1.125 0.125v-6l-5.813 1.063v7.5c0 0 0 0.063 0 0.063 0.125 1.25-0.813 2.313-2 2.5-1.25 0.125-2.313-0.75-2.438-1.938-0.063-1.25 0.813-2.375 2.063-2.5 0.375-0.063 0.75 0 1.125 0.125v-8.625l8.313-1.438v11c0 0 0 0 0 0.063z"></path>
</svg>
