<?xml version="1.0" encoding="utf-8"?>
<!DOCTYPE svg PUBLIC "-//W3C//DTD SVG 1.1//EN" "http://www.w3.org/Graphics/SVG/1.1/DTD/svg11.dtd">
<svg version="1.1" xmlns="http://www.w3.org/2000/svg" xmlns:xlink="http://www.w3.org/1999/xlink" width="32" height="32" viewBox="0 0 32 32">
<path d="M23.25 12.75c-2 0-4.063 1.813-6.563 2.063v-1.063c0.063-2.563 1.938-5.25 5.188-5.25h0.625c2.938 0 6-2.313 6.313-6.25h-1.063c-0.313 3.25-2.813 5.25-5.25 5.25h-0.625c-3.813 0-6.188 3.188-6.188 6.188v0 0.063c0 0 0 0 0 0v0 1.063c-2.5-0.25-4.563-2.063-6.563-2.063-2.188 0-7.625 4.25-7.625 12.625 0 4.25 2.875 4.375 3.25 4.375 0 0 0 0 0 0 1.813 0 3.438-0.813 5.5-2.875s2.875-2.625 4.375-2.625c0.563 0 1.313 0 1.5 0 0.063 0 0.125 0 0.125 0 0.188 0 0.938 0 1.5 0 1.5 0 2.313 0.563 4.375 2.625s3.688 2.875 5.5 2.875c0 0 0 0 0 0 0.375 0 3.25-0.125 3.25-4.375 0-8.375-5.438-12.625-7.625-12.625zM27.625 28.688v0 0c-1.5 0-2.938-0.75-4.75-2.563-2-2-3.125-2.938-5.125-2.938h-3.125c-2 0-3.125 0.938-5.125 2.938-1.813 1.813-3.25 2.563-4.75 2.563v0 0c-0.563 0-2.188-0.188-2.188-3.313 0-8 5.188-11.625 6.563-11.625 0.75 0 1.75 0.438 2.688 0.875 1.313 0.563 2.75 1.25 4.375 1.25s3.063-0.688 4.375-1.25c0.938-0.438 1.875-0.875 2.688-0.875 1.375 0 6.563 3.625 6.563 11.625 0 3.125-1.688 3.313-2.188 3.313zM9.875 16.938h-1v2.063h-2.125v1.063h2.125v2.125h1v-2.125h2.125v-1.063h-2.125zM20.938 17.938c-0.875 0-1.625 0.75-1.625 1.625s0.75 1.563 1.625 1.563c0.813 0 1.563-0.688 1.563-1.563s-0.75-1.625-1.563-1.625zM20.938 20.063c-0.313 0-0.563-0.25-0.563-0.5 0-0.313 0.25-0.563 0.563-0.563 0.25 0 0.5 0.25 0.5 0.563 0 0.25-0.25 0.5-0.5 0.5zM25.125 19c-0.875 0-1.625 0.75-1.625 1.563 0 0.875 0.75 1.625 1.625 1.625s1.563-0.75 1.563-1.625c0-0.813-0.688-1.563-1.563-1.563zM25.125 21.125c-0.313 0-0.563-0.25-0.563-0.563 0-0.25 0.25-0.5 0.563-0.5 0.25 0 0.5 0.25 0.5 0.5 0 0.313-0.25 0.563-0.5 0.563z"></path>
</svg>
