<?xml version="1.0" encoding="utf-8"?>
<!DOCTYPE svg PUBLIC "-//W3C//DTD SVG 1.1//EN" "http://www.w3.org/Graphics/SVG/1.1/DTD/svg11.dtd">
<svg version="1.1" xmlns="http://www.w3.org/2000/svg" xmlns:xlink="http://www.w3.org/1999/xlink" width="32" height="32" viewBox="0 0 32 32">
<path d="M22.125 6.5c0 0.563-0.5 1-1.063 1s-1-0.438-1-1c0-0.563 0.438-1.063 1-1.063s1.063 0.5 1.063 1.063zM26.563 10.938c0 0.563-0.5 1-1.063 1s-1-0.438-1-1c0-0.563 0.438-1 1-1s1.063 0.438 1.063 1zM26.563 6.5c0 0.563-0.5 1-1.063 1s-1-0.438-1-1c0-0.563 0.438-1.063 1-1.063s1.063 0.5 1.063 1.063zM22.125 10.938c0 0.563-0.5 1-1.063 1s-1-0.438-1-1c0-0.563 0.438-1 1-1s1.063 0.438 1.063 1zM29.313 2.688c-1.75-1.813-4.063-2.688-6.313-2.688-2.313 0-4.563 0.875-6.375 2.688l-6.438 6.438-5.75-5.688-1 1 5.688 5.688-6.438 6.5c-3.438 3.438-3.438 9.25 0 12.688 1.75 1.813 4.063 2.688 6.313 2.688 2.313 0 4.563-0.875 6.375-2.688l1.875-1.875v-3.813l6.375-6.375h3.813l1.875-1.875c3.438-3.438 3.438-9.25 0-12.688zM28.438 14.5l-1.5 1.5h-3.813l-7.125 7.125v3.813l-1.5 1.5c-1.438 1.375-3.438 2.313-5.5 2.313-2 0-4.063-0.813-5.438-2.313-2.938-2.938-2.938-8 0-10.938l13.938-13.938c1.438-1.375 3.438-2.313 5.5-2.313 2 0 4.063 0.813 5.438 2.313 2.938 2.938 2.938 8 0 10.938zM11.063 19.938l-2.063 2.188-2-2.188-1 1 2.125 2.063-2.125 2 1 1 2-2.125 2.063 2.125 1-1-2.188-2 2.188-2.063z"></path>
</svg>
