<?xml version="1.0" encoding="utf-8"?>
<!DOCTYPE svg PUBLIC "-//W3C//DTD SVG 1.1//EN" "http://www.w3.org/Graphics/SVG/1.1/DTD/svg11.dtd">
<svg version="1.1" xmlns="http://www.w3.org/2000/svg" xmlns:xlink="http://www.w3.org/1999/xlink" width="32" height="32" viewBox="0 0 32 32">
<path d="M19.938 14.938l-0.75-0.75-3.188 3.188-3.188-3.188-0.75 0.75 3.188 3.188-3.25 3.188 0.813 0.75 3.188-3.188 3.25 3.188 0.75-0.75-3.25-3.188zM29.313 6.938h-26.625v1.063h0.75l0.313 2.125c0 0.875 0.5 1.563 1.188 1.938l1.875 10.938c0.25 1.125 0.938 2.063 2.063 2.063h14.25c1.125 0 1.813-0.875 2.063-2.063l1.875-10.938c0.688-0.375 1.188-1.063 1.188-1.938l0.313-2.125h0.75v-1.063zM24.125 22.813c-0.125 0.438-0.375 1.188-1 1.188h-14.25c-0.75 0-0.938-0.875-1-1.125l-1.813-10.625h19.875l-1.813 10.563zM27.188 10v0.125c0 0.625-0.5 1.063-1.063 1.063h-20.25c-0.563 0-1.063-0.438-1.063-1.063v-0.125l-0.25-2h22.938l-0.313 2z"></path>
</svg>
