<?xml version="1.0" encoding="utf-8"?>
<!DOCTYPE svg PUBLIC "-//W3C//DTD SVG 1.1//EN" "http://www.w3.org/Graphics/SVG/1.1/DTD/svg11.dtd">
<svg version="1.1" xmlns="http://www.w3.org/2000/svg" xmlns:xlink="http://www.w3.org/1999/xlink" width="32" height="32" viewBox="0 0 32 32">
<path d="M23 0c-5.5 0-10 4.5-10 10 0 1.313 0.25 2.5 0.688 3.625l-12.125 12.125c-0.375 0.375-0.563 0.688-0.563 1.25v3c0 1.063 0.938 2 2 2h3c0.563 0 0.875-0.188 1.25-0.563l1.438-1.438h2.313c1.125 0 2-0.875 2-2v-2h2c1.125 0 2-0.875 2-2v-2.375l2.375-2.313c1.125 0.438 2.313 0.688 3.625 0.688 5.5 0 10-4.5 10-10s-4.5-10-10-10zM23 18c-1.5 0-2.875-0.438-4.063-1.125l-3.375 3.375c-0.375 0.375-0.563 0.875-0.563 1.375v2.375h-2c-1.125 0-2 0.875-2 2v2h-2.313c-0.563 0-1.063 0.188-1.438 0.563l-1.438 1.438h-2.813v-2.875l11.688-11.625c0 0 0 0 0 0l1.438-1.438c-0.688-1.188-1.125-2.563-1.125-4.063 0-4.438 3.563-8 8-8s8 3.563 8 8c0 4.438-3.563 8-8 8zM28.813 8.25c-1.125-1.563-2.5-2.938-4.063-4.063-0.25-0.188-0.563-0.25-0.875-0.125-1.375 0.5-2.313 1.438-2.813 2.813-0.063 0.125-0.063 0.25-0.063 0.313 0 0.188 0.063 0.438 0.188 0.563 1.125 1.563 2.5 2.938 4.063 4.063 0.25 0.188 0.563 0.25 0.875 0.125 1.375-0.5 2.313-1.438 2.813-2.813 0.063-0.125 0.063-0.188 0.063-0.313 0-0.188-0.063-0.438-0.188-0.563zM25.813 11c-1.5-1.063-2.75-2.313-3.813-3.813 0.375-1.063 1.125-1.813 2.188-2.188 1.5 1.063 2.75 2.375 3.813 3.813-0.375 1.063-1.125 1.813-2.188 2.188z"></path>
</svg>
