<?xml version="1.0" encoding="utf-8"?>
<!DOCTYPE svg PUBLIC "-//W3C//DTD SVG 1.1//EN" "http://www.w3.org/Graphics/SVG/1.1/DTD/svg11.dtd">
<svg version="1.1" xmlns="http://www.w3.org/2000/svg" xmlns:xlink="http://www.w3.org/1999/xlink" width="32" height="32" viewBox="0 0 32 32">
<path d="M17.813 11.438c0 1.5 1.25 2.75 2.75 2.75 0.813 0 1.563-0.313 2.125-0.938 0.75 0.313 1.563 0.5 2.438 0.5 3.75 0 6.813-3.125 6.813-6.875 0-3.813-3.063-6.875-6.813-6.875-3.125 0-5.75 2.063-6.563 4.938-0.188 0-0.313 0-0.438 0-5 0-9.063 4.063-9.063 9 0 1.375 0.375 2.75 1 4l-10.063 10 4.063 4.063 10-10c1.25 0.625 2.625 1 4.063 1 2.125 0 4.25-0.813 5.875-2.188 1.625-1.438 2.688-3.313 3-5.438l-1.25-0.188c-0.25 1.813-1.188 3.438-2.625 4.625-1.375 1.25-3.188 1.875-5 1.875-1.375 0-2.688-0.375-3.875-1l-0.438-0.25-9.75 9.75-2.25-2.188 9.813-9.813-0.25-0.438c-0.688-1.125-1-2.5-1-3.813 0-4.25 3.5-7.75 7.75-7.75 0.063 0 0.125 0 0.188 0 0 0.25-0.063 0.438-0.063 0.688 0 0.875 0.188 1.688 0.5 2.438-0.625 0.5-0.938 1.25-0.938 2.125zM22.125 11.563c-0.688-0.438-1.25-1-1.688-1.688 0.063 0 0.125 0 0.125 0 0.875 0 1.563 0.688 1.563 1.563 0 0 0 0.063 0 0.125zM19.563 6.875c0-0.188 0-0.375 0-0.563 2.5 0.5 4.688 2.188 5.688 4.625l1.188-0.5c-1.188-2.813-3.688-4.75-6.625-5.313 0.75-2.25 2.875-3.813 5.313-3.813 3.063 0 5.563 2.5 5.563 5.563s-2.5 5.563-5.563 5.563c-0.625 0-1.25-0.125-1.813-0.313 0-0.25 0.063-0.438 0.063-0.688 0-1.563-1.25-2.813-2.75-2.813-0.313 0-0.5 0-0.75 0.063-0.25-0.563-0.313-1.188-0.313-1.813zM21.438 12.688c-0.25 0.125-0.563 0.25-0.875 0.25-0.813 0-1.5-0.688-1.5-1.5 0-0.313 0.125-0.625 0.25-0.875 0.563 0.813 1.313 1.563 2.125 2.125z"></path>
</svg>
