<?xml version="1.0" encoding="utf-8"?>
<!DOCTYPE svg PUBLIC "-//W3C//DTD SVG 1.1//EN" "http://www.w3.org/Graphics/SVG/1.1/DTD/svg11.dtd">
<svg version="1.1" xmlns="http://www.w3.org/2000/svg" xmlns:xlink="http://www.w3.org/1999/xlink" width="32" height="32" viewBox="0 0 32 32">
<path d="M15.313 6.063h1.063v4.188h-1.063zM23.188 9.188c0-4.063-3.313-7.375-7.375-7.375-4 0-7.313 3.313-7.313 7.375 0 3.125 1.938 5.75 4.688 6.813v14.188h5.25v-3.688l1.625-1.563-1.625-1.625v-2.063l2.625-2.625-2.563-2.625c2.75-1.063 4.688-3.688 4.688-6.813zM18.125 15.063l-0.75 0.25v1.125l2.25 2.188-2.25 2.188v2.938l1.188 1.188-1.188 1.125v3.063h-3.125v-13.813l-0.688-0.25c-2.438-0.938-4-3.25-4-5.875 0-3.5 2.813-6.313 6.25-6.313 3.5 0 6.313 2.813 6.313 6.313 0 2.625-1.563 4.938-4 5.875z"></path>
</svg>
