<?xml version="1.0" encoding="utf-8"?>
<!DOCTYPE svg PUBLIC "-//W3C//DTD SVG 1.1//EN" "http://www.w3.org/Graphics/SVG/1.1/DTD/svg11.dtd">
<svg version="1.1" xmlns="http://www.w3.org/2000/svg" xmlns:xlink="http://www.w3.org/1999/xlink" width="32" height="32" viewBox="0 0 32 32">
<path d="M30.813 11.563h-19.188c0.875-1.125 2.25-1.875 3.938-2.188 4.5-0.813 4.75-1.938 4.625-3.188-0.063-0.25-0.063-0.438 0-0.563l-0.75-0.313c-0.125 0.375-0.125 0.688-0.063 0.938 0.063 0.75 0.125 1.563-3.938 2.313-2.188 0.438-3.813 1.438-4.813 3h-9.438c-0.625 0-1.188 0.563-1.188 1.188v12.688c0 0.688 0.563 1.25 1.188 1.25h29.625c0.625 0 1.188-0.563 1.188-1.25v-12.688c0-0.625-0.563-1.188-1.188-1.188zM31.188 25.438c0 0.25-0.188 0.438-0.375 0.438h-29.625c-0.188 0-0.375-0.188-0.375-0.438v-12.688c0-0.188 0.188-0.375 0.375-0.375h29.625c0.188 0 0.375 0.188 0.375 0.375zM9.438 23.375h13.375v0.75h-13.375zM4.313 15h1.375v1.313h-1.375zM6.688 15h1.375v1.313h-1.375zM9.125 15h1.438v1.313h-1.438zM11.563 15h1.438v1.25h-1.438zM14 14.938h1.438v1.313h-1.438zM16.375 14.938h1.438v1.313h-1.438zM18.875 14.938h1.438v1.313h-1.438zM21.563 14.938h1.438v1.313h-1.438zM24 14.938h1.438v1.313h-1.438zM26.375 14.938h1.438v1.313h-1.438zM4.25 17h1.375v1.313h-1.375zM6.625 17h1.375v1.313h-1.375zM9.063 17h1.438v1.313h-1.438zM11.5 17h1.438v1.313h-1.438zM13.938 17h1.438v1.25h-1.438zM16.313 17h1.438v1.25h-1.438zM18.813 16.938h1.375v1.313h-1.375zM21.5 16.938h1.438v1.313h-1.438zM23.938 16.938h1.375v1.313h-1.375zM26.375 16.938h1.438v1.313h-1.438zM4.313 19h1.375v1.313h-1.375zM6.625 19h1.438v1.313h-1.438zM9.125 19h1.438v1.313h-1.438zM11.563 19h1.438v1.25h-1.438zM14 18.938h1.438v1.313h-1.438zM16.375 18.938h1.375v1.313h-1.375zM18.813 18.938h1.438v1.313h-1.438zM21.563 18.938h1.375v1.313h-1.375zM23.938 18.938h1.438v1.313h-1.438zM26.375 19h1.438v1.25h-1.438z"></path>
</svg>
