<?xml version="1.0" encoding="utf-8"?>
<!DOCTYPE svg PUBLIC "-//W3C//DTD SVG 1.1//EN" "http://www.w3.org/Graphics/SVG/1.1/DTD/svg11.dtd">
<svg version="1.1" xmlns="http://www.w3.org/2000/svg" xmlns:xlink="http://www.w3.org/1999/xlink" width="32" height="32" viewBox="0 0 32 32">
<path d="M6.938 21.875c-1.75 0-3.188 1.438-3.188 3.188s1.438 3.188 3.188 3.188c1.75 0 3.188-1.438 3.188-3.188s-1.438-3.188-3.188-3.188zM6.938 27.188c-1.188 0-2.125-0.938-2.125-2.125s0.938-2.125 2.125-2.125c1.188 0 2.125 0.938 2.125 2.125s-0.938 2.125-2.125 2.125zM6.938 3.75c-1.75 0-3.188 1.438-3.188 3.188s1.438 3.188 3.188 3.188c1.75 0 3.188-1.438 3.188-3.188s-1.438-3.188-3.188-3.188zM6.938 9.063c-1.188 0-2.125-0.938-2.125-2.125s0.938-2.125 2.125-2.125c1.188 0 2.125 0.938 2.125 2.125s-0.938 2.125-2.125 2.125zM6.938 12.75c-1.75 0-3.188 1.438-3.188 3.25 0 1.75 1.438 3.188 3.188 3.188s3.188-1.438 3.188-3.188c0-1.813-1.438-3.25-3.188-3.25zM6.938 18.125c-1.188 0-2.125-1-2.125-2.125 0-1.188 0.938-2.125 2.125-2.125s2.125 0.938 2.125 2.125c0 1.125-0.938 2.125-2.125 2.125zM16 21.875c-1.75 0-3.188 1.438-3.188 3.188s1.438 3.188 3.188 3.188c1.75 0 3.188-1.438 3.188-3.188s-1.438-3.188-3.188-3.188zM16 27.188c-1.188 0-2.125-0.938-2.125-2.125s0.938-2.125 2.125-2.125c1.188 0 2.125 0.938 2.125 2.125s-0.938 2.125-2.125 2.125zM16 3.75c-1.75 0-3.188 1.438-3.188 3.188s1.438 3.188 3.188 3.188c1.75 0 3.188-1.438 3.188-3.188s-1.438-3.188-3.188-3.188zM16 9.063c-1.188 0-2.125-0.938-2.125-2.125s0.938-2.125 2.125-2.125c1.188 0 2.125 0.938 2.125 2.125s-0.938 2.125-2.125 2.125zM16 12.75c-1.75 0-3.188 1.438-3.188 3.25 0 1.75 1.438 3.188 3.188 3.188s3.188-1.438 3.188-3.188c0-1.813-1.438-3.25-3.188-3.25zM16 18.125c-1.188 0-2.125-1-2.125-2.125 0-1.188 0.938-2.125 2.125-2.125s2.125 0.938 2.125 2.125c0 1.125-0.938 2.125-2.125 2.125zM25.063 21.875c-1.75 0-3.188 1.438-3.188 3.188s1.438 3.188 3.188 3.188c1.75 0 3.188-1.438 3.188-3.188s-1.438-3.188-3.188-3.188zM25.063 27.188c-1.188 0-2.125-0.938-2.125-2.125s0.938-2.125 2.125-2.125c1.188 0 2.125 0.938 2.125 2.125s-0.938 2.125-2.125 2.125zM25.063 10.125c1.75 0 3.188-1.438 3.188-3.188s-1.438-3.188-3.188-3.188c-1.75 0-3.188 1.438-3.188 3.188s1.438 3.188 3.188 3.188zM25.063 4.813c1.188 0 2.125 0.938 2.125 2.125s-0.938 2.125-2.125 2.125c-1.188 0-2.125-0.938-2.125-2.125s0.938-2.125 2.125-2.125zM25.063 12.75c-1.75 0-3.188 1.438-3.188 3.25 0 1.75 1.438 3.188 3.188 3.188s3.188-1.438 3.188-3.188c0-1.813-1.438-3.25-3.188-3.25zM25.063 18.125c-1.188 0-2.125-1-2.125-2.125 0-1.188 0.938-2.125 2.125-2.125s2.125 0.938 2.125 2.125c0 1.125-0.938 2.125-2.125 2.125z"></path>
</svg>
