<?xml version="1.0" encoding="utf-8"?>
<!DOCTYPE svg PUBLIC "-//W3C//DTD SVG 1.1//EN" "http://www.w3.org/Graphics/SVG/1.1/DTD/svg11.dtd">
<svg version="1.1" xmlns="http://www.w3.org/2000/svg" xmlns:xlink="http://www.w3.org/1999/xlink" width="32" height="32" viewBox="0 0 32 32">
<path d="M4 27.438v-22.875c0-1.625 1.188-2.938 2.625-2.938 1.375 0 2.563 1.313 2.563 2.938v12.875l6.5-7c0.75-0.813 1.375-1.313 2.313-1.313 1.375 0 2.25 1.313 2.25 2.625 0 1-0.5 1.813-1.188 2.563l-4.125 4 4.938 7.5c0.438 0.688 0.625 1.25 0.625 1.938 0 1.563-1.125 2.625-2.438 2.625-1 0-1.625-0.375-2.25-1.313l-4.563-7.125-2.063 2.125v3.375c0 1.625-1.188 2.938-2.563 2.938-1.438 0-2.625-1.313-2.625-2.938zM24.875 23.938c1.75 0 3.125-1.375 3.125-3.125 0-1.688-1.375-3.125-3.125-3.125-1.688 0-3.125 1.438-3.125 3.125 0 1.75 1.438 3.125 3.125 3.125z"></path>
</svg>
