<?xml version="1.0" encoding="utf-8"?>
<!DOCTYPE svg PUBLIC "-//W3C//DTD SVG 1.1//EN" "http://www.w3.org/Graphics/SVG/1.1/DTD/svg11.dtd">
<svg version="1.1" xmlns="http://www.w3.org/2000/svg" xmlns:xlink="http://www.w3.org/1999/xlink" width="32" height="32" viewBox="0 0 32 32">
<path d="M12.75 21.563c0.125 0.625-0.5 1.25-0.938 1.375-0.25 0-0.375-0.063-0.375-0.188-0.063-0.125 0.063-0.25 0.063-0.375-0.125-0.438-2.063-1.938-5.75-4.75-0.25 3.813-0.25 5.875-0.313 6.125-0.063 0.375-0.438 0.688-0.875 0.75-0.438 0.125-0.688-0.063-0.813-0.5-0.125-0.563 0.125-5.25 0.813-13.875 0-0.125-0.063-0.25-0.063-0.25-0.25-1.063 0.25-1.75 0.938-1.875 0.438-0.063 1.063 0.063 1.188 0.5 0.063 0.375-0.313 2.688-0.625 6.813 1.438-2.438 3.563-5.25 6.188-8.563 0.375-0.5 0.688-0.813 1-0.875 0.25-0.063 0.438 0.063 0.5 0.375 0.063 0.25-0.063 0.563-0.313 0.75-1.5 1.875-3.563 5-6.375 9.25 3.75 2.375 5.563 4.563 5.75 5.313zM27.875 13.625c0.563 2.813-0.563 5.75-2.125 6.063-0.563 0.188-1.25-0.063-1.563-0.5-0.063 3.5 0 5.438 0.125 5.938 0.063 0.25 0.313 0.25 0.313 0.375 0.063 0.25-0.188 0.5-0.438 0.563-0.563 0.125-1 0-1.063-0.563-0.125-0.375-0.313-3.625-0.063-9.5-0.313 0.438-0.688 0.688-1.063 0.875-0.188 2.688-1.063 4.25-2.5 4.563-0.938 0.25-1.813-0.188-2.125-1.25-0.438 0.938-0.875 1.438-1.563 1.563-0.875 0.188-1.563-0.313-1.813-1.313-0.188-1-0.125-2.375 0.188-4.188l-0.75-0.063c-0.313 2.313-0.625 3.5-1.125 3.625-0.188 0.063-0.375-0.063-0.438-0.313 0-0.125 0.438-1.5 0.5-4-0.313-0.125-0.5-0.25-0.5-0.438-0.125-0.5 0.375-1.313 1.125-1.438 0.313-0.125 0.688 0.063 0.75 0.375 0 0.125 0 0.375 0 0.688l0.875 0.063c0.063-0.25 0.188-0.438 0.375-0.688 0.125-0.063 0.25-0.125 0.313-0.125 0.375-0.125 0.938 0.125 1 0.438 0.063 0.25-0.063 0.5-0.313 0.875-0.688 2-0.875 3.625-0.625 4.813 0.125 0.438 0.313 0.625 0.5 0.625 0.438-0.125 0.875-0.875 1.313-2.313 0.063-0.875 0.25-1.938 0.625-3 0.313-0.875 0.75-1.375 1.25-1.5 0.313-0.063 0.625 0 0.813 0.25 0.125-0.063 0.25-0.125 0.375-0.125 0.688-0.125 1.375 0.438 1.688 1.688 0.813-0.438 1-1.25 1.25-1.688 0.125-2.5 0.188-3.5 0.75-3.625 0.25-0.063 0.625 0.063 0.688 0.375s-0.125 1.313-0.188 3c0.5-1.25 0.938-2 1.438-2.063 0.813-0.188 1.688 0.5 2 1.938zM20.625 15.688c-0.063-0.438-0.313-0.625-0.563-0.563-0.75 0.125-1.75 2.75-1.313 4.563 0.063 0.5 0.313 0.688 0.688 0.625 0.813-0.188 1.625-2.813 1.188-4.625zM26.625 13.75c-0.125-0.5-0.313-0.75-0.563-0.688-0.375 0.063-1.438 1.813-1.688 5.063 0.125 0.5 0.563 0.75 0.938 0.625 0.688-0.125 1-0.813 1.25-2.125 0.188-1.188 0.188-2.188 0.063-2.875z"></path>
</svg>
