<?xml version="1.0" encoding="utf-8"?>
<!DOCTYPE svg PUBLIC "-//W3C//DTD SVG 1.1//EN" "http://www.w3.org/Graphics/SVG/1.1/DTD/svg11.dtd">
<svg version="1.1" xmlns="http://www.w3.org/2000/svg" xmlns:xlink="http://www.w3.org/1999/xlink" width="32" height="32" viewBox="0 0 32 32">
<path d="M20.688 3.75c-0.5-0.5-1.125-0.75-1.75-0.75-0.688 0-1.313 0.25-1.813 0.75l-1.375 1.375c-0.5 0.5-0.75 1.125-0.75 1.813 0 0.438 0.125 0.875 0.375 1.313l-13.563 5.438c-0.938 0.375-1.563 1.188-1.75 2.188-0.188 0.938 0.125 1.938 0.813 2.688l12.75 12.563c0.5 0.563 1.25 0.875 2 0.875 0.063 0 0.063 0 0.125 0 0.188 0 0.375 0 0.563-0.063 1-0.188 1.813-0.875 2.188-1.813l5.375-13.375c0.375 0.25 0.875 0.375 1.375 0.375 0.625 0 1.25-0.25 1.75-0.688l1.375-1.438c0.5-0.5 0.75-1.125 0.75-1.75 0-0.688-0.25-1.313-0.75-1.813zM16.688 29.375c-0.125 0.313-0.438 0.563-0.75 0.625-0.063 0-0.188 0-0.25 0-0.25 0-0.5-0.125-0.688-0.313l-12.688-12.563c-0.25-0.25-0.375-0.563-0.313-0.875 0.063-0.375 0.313-0.625 0.625-0.75l6.188-2.5c4.188 1.375 8.375 0.063 12.563 4.5zM27 13.563l-1.438 1.438c-0.188 0.188-0.5 0.188-0.688 0l-1.75-1.75-1.438 3.563 0.125-0.313c-3.063-3-6.063-3.375-8.875-3.688-0.875-0.125-1.75-0.25-2.563-0.438l8.5-3.375-1.75-1.75c-0.188-0.188-0.188-0.5 0-0.688l1.438-1.438c0.188-0.188 0.5-0.188 0.688 0l7.75 7.75c0.188 0.188 0.188 0.5 0 0.688zM16.5 21c1.375 0 2.5-1.125 2.5-2.5s-1.125-2.5-2.5-2.5c-1.375 0-2.5 1.125-2.5 2.5s1.125 2.5 2.5 2.5zM16.5 17c0.813 0 1.5 0.688 1.5 1.5s-0.688 1.5-1.5 1.5c-0.813 0-1.5-0.688-1.5-1.5s0.688-1.5 1.5-1.5zM29.5 0c-1.375 0-2.5 1.125-2.5 2.5s1.125 2.5 2.5 2.5c1.375 0 2.5-1.125 2.5-2.5s-1.125-2.5-2.5-2.5zM29.5 4c-0.813 0-1.5-0.688-1.5-1.5s0.688-1.5 1.5-1.5c0.813 0 1.5 0.688 1.5 1.5s-0.688 1.5-1.5 1.5zM8 17c0 1.125 0.875 2 2 2s2-0.875 2-2c0-1.125-0.875-2-2-2s-2 0.875-2 2zM10 16c0.563 0 1 0.438 1 1s-0.438 1-1 1c-0.563 0-1-0.438-1-1s0.438-1 1-1zM14 23c0 0.563-0.438 1-1 1s-1-0.438-1-1c0-0.563 0.438-1 1-1s1 0.438 1 1zM30 8c0 0.563-0.438 1-1 1s-1-0.438-1-1c0-0.563 0.438-1 1-1s1 0.438 1 1z"></path>
</svg>
