<?xml version="1.0" encoding="utf-8"?>
<!DOCTYPE svg PUBLIC "-//W3C//DTD SVG 1.1//EN" "http://www.w3.org/Graphics/SVG/1.1/DTD/svg11.dtd">
<svg version="1.1" xmlns="http://www.w3.org/2000/svg" xmlns:xlink="http://www.w3.org/1999/xlink" width="32" height="32" viewBox="0 0 32 32">
<path d="M5 21.25h22.313v-12.875h-22.313zM5.5 8.875h15.563l4.188 4.188 0.313-0.25-3.875-3.938h1.063l2.813 2.75 0.25-0.313-2.438-2.438h0.875l1.438 1.375 0.313-0.313-1.125-1.063h1.938v11.875h-21.313zM16.313 7.813c0 0.125-0.125 0.188-0.25 0.188s-0.188-0.063-0.188-0.188c0-0.188 0.063-0.25 0.188-0.25s0.25 0.063 0.25 0.25zM31.313 22.25h-2.438v-14.313c0-0.625-0.5-1.188-1.125-1.188h-23.125c-0.625 0-1.188 0.563-1.188 1.188v14.313h-2.75c-0.375 0-0.688 0.313-0.688 0.688v0.625c0 0.313 0.188 0.563 0.5 0.688l1.375 0.938v0.063h28.188v-0.063l1.375-0.938c0.313-0.063 0.563-0.313 0.563-0.688v-0.625c0-0.375-0.313-0.688-0.688-0.688zM3.938 7.938c0-0.375 0.313-0.688 0.688-0.688h23.125c0.375 0 0.688 0.313 0.688 0.688v14.313h-24.5zM1.375 24.25h29.188l-0.688 0.5h-27.75zM31.563 23.563c0 0.125-0.125 0.25-0.25 0.25h-30.625c0 0 0 0 0 0l-0.063-0.063v0.063c-0.063-0.063-0.188-0.125-0.188-0.25v-0.625c0-0.125 0.125-0.25 0.25-0.25h30.625c0.125 0 0.25 0.125 0.25 0.25z"></path>
</svg>
