<?xml version="1.0" encoding="utf-8"?>
<!DOCTYPE svg PUBLIC "-//W3C//DTD SVG 1.1//EN" "http://www.w3.org/Graphics/SVG/1.1/DTD/svg11.dtd">
<svg version="1.1" xmlns="http://www.w3.org/2000/svg" xmlns:xlink="http://www.w3.org/1999/xlink" width="32" height="32" viewBox="0 0 32 32">
<path d="M24.625 24.563c-3-0.063-4.563-1.5-5.688-4.125l-0.313-0.688-2.75-6.313c-0.875-2.188-3.125-3.688-5.688-3.688-3.438 0-6.25 2.813-6.25 6.25s2.813 6.25 6.25 6.25c2.375 0 4.5-1.313 5.5-3.313l1.125 2.563c-1.563 1.938-3.938 3.125-6.625 3.125-4.75 0-8.563-3.875-8.563-8.625s3.813-8.625 8.563-8.625c3.563 0 6.438 1.938 7.938 5.313 0.125 0.25 1.563 3.688 2.813 6.563 0.75 1.75 1.438 2.938 3.563 3 2.125 0.125 3.563-1.188 3.563-2.813s-1.063-2-2.938-2.625c-3.375-1.125-5.125-2.25-5.125-4.938 0-2.625 1.75-4.313 4.625-4.313 1.875 0 3.25 0.813 4.188 2.5l-1.813 0.938c-0.75-1-1.5-1.375-2.438-1.375-1.375 0-2.313 0.938-2.313 2.188 0 1.813 1.563 2.063 3.813 2.813 2.938 0.938 4.313 2.063 4.313 4.875 0 2.938-2.438 5.063-5.75 5.063z"></path>
</svg>
