<?xml version="1.0" encoding="utf-8"?>
<!DOCTYPE svg PUBLIC "-//W3C//DTD SVG 1.1//EN" "http://www.w3.org/Graphics/SVG/1.1/DTD/svg11.dtd">
<svg version="1.1" xmlns="http://www.w3.org/2000/svg" xmlns:xlink="http://www.w3.org/1999/xlink" width="32" height="32" viewBox="0 0 32 32">
<path d="M24.563 16.688c0-7.125-4.813-12.375-8.5-16.688-3.75 4.313-8.563 9.563-8.563 16.688 0 6.75 4.938 8.5 8 9.438v5.875h1.063v-5.875c3.063-0.938 8-2.688 8-9.438zM16.563 25v-4.125l3.375-3.375-0.75-0.75-2.625 2.625v-10.813h-1.063v5.063l-2.75-2.75-0.75 0.75 3.5 3.5v9.875c-2.938-0.938-6.938-2.625-6.938-8.313 0-6.25 3.875-10.938 7.5-15.063 3.563 4.125 7.438 8.813 7.438 15.063 0 5.688-4 7.375-6.938 8.313z"></path>
</svg>
