<?xml version="1.0" encoding="utf-8"?>
<!DOCTYPE svg PUBLIC "-//W3C//DTD SVG 1.1//EN" "http://www.w3.org/Graphics/SVG/1.1/DTD/svg11.dtd">
<svg version="1.1" xmlns="http://www.w3.org/2000/svg" xmlns:xlink="http://www.w3.org/1999/xlink" width="32" height="32" viewBox="0 0 32 32">
<path d="M16 0c-8.813 0-16 7.188-16 16s7.188 16 16 16c8.813 0 16-7.188 16-16s-7.188-16-16-16zM25.875 5.188l-3.75 3.75c-1.625-1.438-3.75-2.25-6.125-2.25s-4.563 0.813-6.125 2.25l-3.75-3.75c2.688-2.375 6-3.875 9.875-3.875s7.188 1.5 9.875 3.875zM16 24c-4.375 0-8-3.625-8-8s3.625-8 8-8c4.375 0 8 3.625 8 8s-3.625 8-8 8zM1.313 16c0-3.875 1.5-7.188 3.875-9.875l3.75 3.75c-1.438 1.625-2.25 3.75-2.25 6.125s0.813 4.563 2.25 6.125l-3.75 3.75c-2.375-2.688-3.875-6-3.875-9.875zM6.125 26.813l3.75-3.75c1.625 1.438 3.75 2.25 6.125 2.25s4.563-0.813 6.125-2.25l3.75 3.75c-2.688 2.375-6.125 3.875-9.875 3.875s-7.188-1.5-9.875-3.875zM26.813 25.875l-3.75-3.75c1.438-1.625 2.25-3.75 2.25-6.125s-0.813-4.563-2.25-6.125l3.75-3.75c2.375 2.688 3.875 6.125 3.875 9.875s-1.5 7.188-3.875 9.875z"></path>
</svg>
