<?xml version="1.0" encoding="utf-8"?>
<!DOCTYPE svg PUBLIC "-//W3C//DTD SVG 1.1//EN" "http://www.w3.org/Graphics/SVG/1.1/DTD/svg11.dtd">
<svg version="1.1" xmlns="http://www.w3.org/2000/svg" xmlns:xlink="http://www.w3.org/1999/xlink" width="32" height="32" viewBox="0 0 32 32">
<path d="M26.688 11.188c0-5.875-4.813-10.688-10.688-10.688s-10.688 4.813-10.688 10.688c0 3.5 1.688 6.563 4.25 8.5v0c0.063 0 0.125 0.063 0.125 0.125 0 0 0.063 0 0.063 0 0.813 0.625 2 2.188 2 4.188v7.5h8.5v-7.5c0-2.125 1.25-3.688 2.125-4.313v0c2.625-1.938 4.313-5 4.313-8.5zM12.813 30.375v-3.188h6.375v3.188zM16 12.25c-0.563 0-1.063-0.5-1.063-1.063s0.5-1.063 1.063-1.063c0.563 0 1.063 0.5 1.063 1.063s-0.5 1.063-1.063 1.063zM21.75 18.875c0 0 0 0-0.063 0-1.125 0.875-2.5 2.688-2.5 5.125v2.125h-2.625v-12.875c0.875-0.25 1.563-1.063 1.563-2.063 0-1.188-0.938-2.125-2.125-2.125s-2.125 0.938-2.125 2.125c0 1 0.688 1.813 1.563 2.063v12.875h-2.625v-2.125c0-2.313-1.313-4.125-2.438-5 0 0 0-0.063 0-0.063-0.063 0-0.063-0.063-0.125-0.063 0 0 0 0-0.063-0.063-2.375-1.813-3.813-4.625-3.813-7.625 0-5.313 4.313-9.563 9.625-9.563s9.563 4.25 9.563 9.563c0 3.063-1.375 5.813-3.813 7.688z"></path>
</svg>
