<?xml version="1.0" encoding="utf-8"?>
<!DOCTYPE svg PUBLIC "-//W3C//DTD SVG 1.1//EN" "http://www.w3.org/Graphics/SVG/1.1/DTD/svg11.dtd">
<svg version="1.1" xmlns="http://www.w3.org/2000/svg" xmlns:xlink="http://www.w3.org/1999/xlink" width="32" height="32" viewBox="0 0 32 32">
<path d="M29.75 15.625c0-1.25-1-2.25-2.375-2.25h-8.5c0.563-1.313 1.5-3.938 1.5-6.688 0-3.125-1.563-3.75-2.875-3.75-0.813 0-2 0.625-2 1.688 0 0.5-0.063 4.688-2.625 6.875-2.75 2.25-3.5 2.875-5 2.875-1.75 0-4.875 0-4.875 0l-0.5 0.063v12.188h5.688c0.375 0 1.5 0.5 2.5 0.938 1.625 0.688 3.438 1.5 4.688 1.5h8.25c1.313 0 2.438-1.063 2.438-2.313 0-0.563-0.188-1.063-0.5-1.438 1-0.25 1.688-1.188 1.688-2.25 0-0.5-0.188-1-0.5-1.438 1-0.313 1.688-1.188 1.688-2.25 0-0.563-0.188-1.063-0.438-1.438 1-0.25 1.75-1.188 1.75-2.313zM27.375 16.938h-1.813v1.063h0.5c0.75 0 1.375 0.625 1.375 1.375s-0.625 1.313-1.375 1.313h-1.563v1.063h0.438c0.688 0 1.313 0.625 1.313 1.313 0 0.75-0.625 1.313-1.313 1.313h-1.438v1.063h0.125c0.75 0 1.375 0.563 1.375 1.313 0 0.688-0.625 1.313-1.375 1.313h-8.25c-1 0-2.813-0.813-4.25-1.5-1.438-0.625-2.375-1-2.938-1h-4.625v-10.125c0.938 0 3 0 4.313 0 1.938 0 2.938-0.875 5.688-3.188 2.875-2.375 3-6.75 3-7.625 0-0.375 0.625-0.688 0.938-0.688 0.563 0 1.813 0 1.813 2.75 0 3.438-1.688 6.938-1.75 6.938l-0.375 0.75h6.438c0 0.063 0 0 0 0h3.75c0.813 0 1.375 0.563 1.375 1.25 0 0.75-0.625 1.313-1.375 1.313z"></path>
</svg>
