<?xml version="1.0" encoding="utf-8"?>
<!DOCTYPE svg PUBLIC "-//W3C//DTD SVG 1.1//EN" "http://www.w3.org/Graphics/SVG/1.1/DTD/svg11.dtd">
<svg version="1.1" xmlns="http://www.w3.org/2000/svg" xmlns:xlink="http://www.w3.org/1999/xlink" width="32" height="32" viewBox="0 0 32 32">
<path d="M29.188 10.5c-1.25-0.375-4.188-0.375-8.5-0.438 0.188-0.938 0.25-1.813 0.25-3.313 0-3.563-2.625-6.75-4.938-6.75-1.625 0-3 1.313-3 3 0 2-0.625 5.5-4 7.25-0.25 0.125-0.938 0.438-1.063 0.5l0.063 0.063c-0.5-0.438-1.25-0.813-2-0.813h-3c-1.625 0-3 1.375-3 3v16c0 1.625 1.375 3 3 3h3c1.188 0 2.188-0.75 2.688-1.75 0 0 0 0.063 0 0.063 0.063 0 0.188 0 0.25 0.063 0.063 0 0.063 0 0.063 0 0.563 0.125 1.688 0.375 4.063 0.938 0.5 0.125 3.188 0.688 5.938 0.688h5.5c1.688 0 2.875-0.625 3.563-1.938 0 0 0.25-0.438 0.438-1.063 0.125-0.438 0.188-1.125 0-1.75 1.125-0.75 1.438-1.875 1.688-2.625 0.375-1.188 0.25-2.063 0-2.688 0.563-0.563 1.125-1.438 1.313-2.75 0.125-0.875 0-1.688-0.375-2.375 0.563-0.688 0.813-1.438 0.875-2.188v-0.25c0-0.125 0-0.188 0-0.5 0-1.25-0.875-2.813-2.813-3.375zM7 29c0 0.563-0.438 1-1 1h-3c-0.563 0-1-0.438-1-1v-16c0-0.563 0.438-1 1-1h3c0.563 0 1 0.438 1 1zM30 14.563c-0.063 0.438-0.25 1.438-2 1.438-1.5 0-2 0-2 0-0.25 0-0.5 0.25-0.5 0.5s0.25 0.5 0.5 0.5c0 0 0.438 0 1.938 0s1.688 1.25 1.625 1.875c-0.125 0.688-0.5 2.125-2.188 2.125s-2.375 0-2.375 0c-0.25 0-0.5 0.25-0.5 0.5s0.25 0.5 0.5 0.5c0 0 1.188 0 2 0 1.688 0 1.5 1.313 1.25 2.063-0.313 1-0.5 1.938-2.625 1.938-0.75 0-1.625 0-1.625 0-0.313 0-0.5 0.25-0.5 0.5s0.188 0.5 0.5 0.5c0 0 0.688 0 1.563 0 1.063 0 1.125 1.063 1 1.375-0.125 0.438-0.25 0.75-0.25 0.75-0.313 0.563-0.813 0.875-1.813 0.875h-5.5c-2.75 0-5.438-0.625-5.5-0.625-4.188-1-4.375-1.063-4.625-1.125 0 0-0.875-0.125-0.875-0.875v-13.813c0-0.438 0.313-0.875 0.813-1.063 0.063 0 0.125 0 0.188-0.063 4.563-1.875 5.938-6.063 6-9.438 0-0.5 0.375-1 1-1 1.063 0 2.938 2.125 2.938 4.75 0 2.375-0.125 2.75-0.938 5.25 10 0 9.938 0.125 10.813 0.375 1.063 0.313 1.188 1.25 1.188 1.5 0 0.375 0 0.313 0 0.688zM4.5 26c-0.813 0-1.5 0.688-1.5 1.5s0.688 1.5 1.5 1.5c0.813 0 1.5-0.688 1.5-1.5s-0.688-1.5-1.5-1.5zM4.5 28c-0.25 0-0.5-0.25-0.5-0.5s0.25-0.5 0.5-0.5c0.25 0 0.5 0.25 0.5 0.5s-0.25 0.5-0.5 0.5z"></path>
</svg>
