<?xml version="1.0" encoding="utf-8"?>
<!DOCTYPE svg PUBLIC "-//W3C//DTD SVG 1.1//EN" "http://www.w3.org/Graphics/SVG/1.1/DTD/svg11.dtd">
<svg version="1.1" xmlns="http://www.w3.org/2000/svg" xmlns:xlink="http://www.w3.org/1999/xlink" width="32" height="32" viewBox="0 0 32 32">
<path d="M21.875 5.125c3.563 0 6.375 2.875 6.375 6.375 0 1.813-0.75 3.438-1.938 4.563l-10.313 10.375-10.5-10.563c-1.063-1.125-1.75-2.688-1.75-4.375 0-3.5 2.875-6.375 6.375-6.375 2.625 0 4.938 1.625 5.875 3.938 0.938-2.313 3.25-3.938 5.875-3.938zM21.875 4.063c-2.313 0-4.5 1.063-5.875 2.875-1.375-1.813-3.563-2.875-5.875-2.875-4.125 0-7.438 3.313-7.438 7.438 0 1.938 0.75 3.75 2.063 5.125l11.25 11.313 11.063-11.063c1.438-1.438 2.25-3.313 2.25-5.375 0-4.125-3.313-7.438-7.438-7.438z"></path>
</svg>
