<?xml version="1.0" encoding="utf-8"?>
<!DOCTYPE svg PUBLIC "-//W3C//DTD SVG 1.1//EN" "http://www.w3.org/Graphics/SVG/1.1/DTD/svg11.dtd">
<svg version="1.1" xmlns="http://www.w3.org/2000/svg" xmlns:xlink="http://www.w3.org/1999/xlink" width="32" height="32" viewBox="0 0 32 32">
<path d="M32 11.813h-11.125v1.438h-2.813l-5.563-12.563h-5.563v9.75h-6.938v19.5h15.313l2.75-2.813h2.813v4.188h11.125v-1.375h-9.75v-16.688h9.75v-1.438zM1.375 28.563v-16.75h9.75v16.75zM18.063 25.75h-0.563l-2.75 2.75h-2.25v-18.063h-4.125v-8.313h3.313l5.125 11.688 0.438 0.813h3.625v11.125zM26.125 27.125c0 0.625-0.5 1.125-1.125 1.125-0.563 0-1.063-0.5-1.063-1.125 0-0.563 0.5-1.063 1.063-1.063 0.625 0 1.125 0.5 1.125 1.063z"></path>
</svg>
