<?xml version="1.0" encoding="utf-8"?>
<!DOCTYPE svg PUBLIC "-//W3C//DTD SVG 1.1//EN" "http://www.w3.org/Graphics/SVG/1.1/DTD/svg11.dtd">
<svg version="1.1" xmlns="http://www.w3.org/2000/svg" xmlns:xlink="http://www.w3.org/1999/xlink" width="32" height="32" viewBox="0 0 32 32">
<path d="M16.563 24.75v-17.5c1.75-0.25 3.188-1.75 3.188-3.625 0-2-1.688-3.625-3.688-3.625s-3.625 1.625-3.625 3.625c0 1.75 1.188 3.25 2.875 3.625v17.5c-1.75 0.313-3.063 1.813-3.063 3.625 0 2 1.688 3.625 3.688 3.625s3.625-1.625 3.625-3.625c0-1.813-1.313-3.313-3-3.625zM13.688 3.625c0-1.313 1.063-2.375 2.375-2.375s2.438 1.063 2.438 2.375c0 1.375-1.125 2.438-2.438 2.438s-2.375-1.063-2.375-2.438zM15.938 30.75c-1.313 0-2.438-1.063-2.438-2.375 0-1.375 1.125-2.438 2.438-2.438s2.375 1.063 2.375 2.438c0 1.313-1.063 2.375-2.375 2.375z"></path>
</svg>
