<?xml version="1.0" encoding="utf-8"?>
<!DOCTYPE svg PUBLIC "-//W3C//DTD SVG 1.1//EN" "http://www.w3.org/Graphics/SVG/1.1/DTD/svg11.dtd">
<svg version="1.1" xmlns="http://www.w3.org/2000/svg" xmlns:xlink="http://www.w3.org/1999/xlink" width="32" height="32" viewBox="0 0 32 32">
<path d="M30.375 19.125v10.625h-6.125v-9.938c0-2.5-0.938-4.188-3.125-4.188-1.75 0-2.75 1.125-3.188 2.25-0.188 0.438-0.188 0.938-0.188 1.5v10.375h-6.188c0 0 0.063-16.813 0-18.563h6.188v2.625c-0.063 0-0.063 0.063-0.063 0.063h0.063v-0.063c0.813-1.25 2.25-3.063 5.563-3.063 4.063 0 7.063 2.688 7.063 8.375zM5.125 2.25c-2.125 0-3.5 1.375-3.5 3.188s1.313 3.25 3.375 3.25h0.063c2.125 0 3.5-1.438 3.5-3.25-0.063-1.813-1.375-3.188-3.438-3.188zM1.938 29.75h6.188v-18.563h-6.188z"></path>
</svg>
