<?xml version="1.0" encoding="utf-8"?>
<!DOCTYPE svg PUBLIC "-//W3C//DTD SVG 1.1//EN" "http://www.w3.org/Graphics/SVG/1.1/DTD/svg11.dtd">
<svg version="1.1" xmlns="http://www.w3.org/2000/svg" xmlns:xlink="http://www.w3.org/1999/xlink" width="32" height="32" viewBox="0 0 32 32">
<path d="M17.563 20.813c-1.313 0-2.625-0.5-3.625-1.5l0.75-0.75c1.563 1.563 4.125 1.563 5.688 0l6.688-6.75c1.563-1.563 1.563-4.063 0-5.625l-1.25-1.25c-1.563-1.563-4.063-1.563-5.625 0l-4.75 4.688-0.75-0.75 4.75-4.688c1.938-2 5.188-2 7.125 0l1.25 1.25c2 1.938 2 5.188 0 7.125l-6.688 6.75c-1 1-2.313 1.5-3.563 1.5zM9 29.313c-1.375 0-2.625-0.5-3.563-1.5l-1.25-1.25c-2-1.938-2-5.188 0-7.188l6.688-6.688c2-2 5.188-2 7.188 0l1.25 1.25-0.75 0.75-1.25-1.25c-1.563-1.563-4.125-1.563-5.688 0l-6.688 6.75c-1.563 1.563-1.563 4.063 0 5.625l1.25 1.25c0.75 0.813 1.75 1.188 2.813 1.188s2.063-0.375 2.813-1.188l4.5-4.438 0.75 0.75-4.5 4.438c-0.938 1-2.188 1.5-3.563 1.5z"></path>
</svg>
