<?xml version="1.0" encoding="utf-8"?>
<!DOCTYPE svg PUBLIC "-//W3C//DTD SVG 1.1//EN" "http://www.w3.org/Graphics/SVG/1.1/DTD/svg11.dtd">
<svg version="1.1" xmlns="http://www.w3.org/2000/svg" xmlns:xlink="http://www.w3.org/1999/xlink" width="32" height="32" viewBox="0 0 32 32">
<path d="M28.125 1.813h-24.563c-1.188 0-2.125 0.875-2.125 2.063v24.625c0 1.188 0.938 2.125 2.125 2.125h24.563c1.188 0 2.125-0.938 2.125-2.125v-24.625c0-1.188-0.938-2.063-2.125-2.063zM10.188 25.875h-4.375v-13h4.375zM8 11.125v0c-1.5 0-2.438-1-2.438-2.25s1-2.25 2.438-2.25c1.5 0 2.438 1 2.438 2.25s-0.938 2.25-2.438 2.25zM25.875 25.875h-4.375v-6.938c0-1.75-0.625-2.938-2.188-2.938-1.188 0-1.938 0.813-2.25 1.563-0.125 0.313-0.125 0.688-0.125 1.063v7.25h-4.375c0 0 0.063-11.75 0-13h4.375v1.875c0.563-0.875 1.625-2.188 3.938-2.188 2.813 0 5 1.875 5 5.875zM16.938 14.813c0-0.063 0-0.063 0-0.063v0.063z"></path>
</svg>
