<?xml version="1.0" encoding="utf-8"?>
<!DOCTYPE svg PUBLIC "-//W3C//DTD SVG 1.1//EN" "http://www.w3.org/Graphics/SVG/1.1/DTD/svg11.dtd">
<svg version="1.1" xmlns="http://www.w3.org/2000/svg" xmlns:xlink="http://www.w3.org/1999/xlink" width="32" height="32" viewBox="0 0 32 32">
<path d="M8.563 0v3.188l3.688 6.438v22.375h7.5v-22.375l3.688-6.438v-3.188zM9.625 1.063h12.75v1.875l-0.125 0.25h-12.5l-0.125-0.25zM13.313 30.938v-2.125h5.375v2.125zM18.813 9.063l-0.125 0.25v18.438h-5.375v-18.438l-2.938-5.063h11.25zM16 14.938c-0.875 0-1.625 0.688-1.625 1.625v2.125c0 0.875 0.75 1.563 1.625 1.563s1.625-0.688 1.625-1.563v-2.125c0-0.938-0.75-1.625-1.625-1.625zM16.563 18.688c0 0.25-0.25 0.5-0.563 0.5s-0.563-0.25-0.563-0.5v-2.125c0-0.313 0.25-0.563 0.563-0.563s0.563 0.25 0.563 0.563z"></path>
</svg>
