<?xml version="1.0" encoding="utf-8"?>
<!DOCTYPE svg PUBLIC "-//W3C//DTD SVG 1.1//EN" "http://www.w3.org/Graphics/SVG/1.1/DTD/svg11.dtd">
<svg version="1.1" xmlns="http://www.w3.org/2000/svg" xmlns:xlink="http://www.w3.org/1999/xlink" width="32" height="32" viewBox="0 0 32 32">
<path d="M26.813 29.75c0 0-0.063 0-0.063 0l-9.75-4.063c-0.063-0.063-0.125-0.125-0.125-0.188-0.063-0.063 0-0.188 0.063-0.25 1.125-1.063 1.688-2.5 1.688-4.063 0-0.688-0.063-1.313-0.313-1.938 0-0.063 0-0.063 0-0.063l-7.125-9.563c-1.438 1.25-2.75 3.063-2.625 4.875 0 0.125-0.063 0.25-0.25 0.25-0.125 0.063-0.25-0.063-0.25-0.188-0.188-2.188 1.5-4.313 3.188-5.625 2-1.563 4.125-2.25 5.625-1.75 0.125 0 0.188 0.188 0.188 0.313-0.063 0.125-0.188 0.188-0.375 0.125-1.25-0.375-3.25 0.25-5.125 1.688l7.313 9.75c1.875 1.125 4.375 1.063 6.188-0.188 0.063-0.063 0.188-0.063 0.25 0 0.063 0 0.125 0.063 0.125 0.188l1.625 10.438c0 0.063 0 0.188-0.063 0.188-0.063 0.063-0.125 0.063-0.188 0.063zM17.563 25.375l8.938 3.75-1.5-9.625c-1.813 1.063-4.125 1.188-6 0.188 0.125 0.5 0.188 1 0.188 1.5 0 1.563-0.625 3-1.625 4.188zM6.375 12.063c-0.125 0-0.25-0.125-0.25-0.25-0.188-2.188 1.5-4.313 3.188-5.625 2-1.563 4.125-2.25 5.625-1.75 0.125 0.063 0.188 0.188 0.188 0.313-0.063 0.125-0.188 0.188-0.375 0.188-1.25-0.438-3.313 0.188-5.125 1.625-1.563 1.25-3.125 3.25-3 5.188 0 0.125-0.063 0.25-0.25 0.25 0 0.063 0 0.063 0 0.063zM23.5 28.125c0.375-1.25 1.438-2.25 2.75-2.5l0.563 3.875zM12.125 2.75c-3.313 0-8.438 4.688-6.563 7.938l10.938 14.5 10.313 4.313-1.75-11.313-10.938-14.438c-0.438-0.688-1.125-1-2-1zM12.125 1.75c1.25 0 2.25 0.5 2.875 1.375l10.875 14.438c0.125 0.125 0.188 0.313 0.188 0.438l1.75 11.375c0.063 0.375-0.063 0.688-0.375 0.938-0.188 0.125-0.375 0.188-0.625 0.188-0.125 0-0.25 0-0.375-0.063l-10.375-4.313c-0.125-0.063-0.313-0.188-0.375-0.313l-10.938-14.5c0-0.063-0.063-0.063-0.063-0.125-0.813-1.375-0.688-3.125 0.313-4.813 1.5-2.563 4.688-4.625 7.125-4.625z"></path>
</svg>
