<?xml version="1.0" encoding="utf-8"?>
<!DOCTYPE svg PUBLIC "-//W3C//DTD SVG 1.1//EN" "http://www.w3.org/Graphics/SVG/1.1/DTD/svg11.dtd">
<svg version="1.1" xmlns="http://www.w3.org/2000/svg" xmlns:xlink="http://www.w3.org/1999/xlink" width="32" height="32" viewBox="0 0 32 32">
<path d="M16 17.75c3.313 0 6-2.688 6-6s-2.688-6-6-6c-3.313 0-6 2.688-6 6s2.688 6 6 6zM16 6.75c2.75 0 5 2.25 5 5s-2.25 5-5 5c-2.75 0-5-2.25-5-5s2.25-5 5-5zM16 0c-6.625 0-12 5.313-12 12 0 7 6 14.188 10.375 19.188 0 0 0.75 0.813 1.563 0.813 0 0 0.125 0 0.125 0 0.813 0 1.563-0.813 1.563-0.813 4.375-5 10.375-12.188 10.375-19.188 0-6.688-5.375-12-12-12zM16.125 29.875c0 0-0.063 0.063-0.125 0.125 0-0.063-0.125-0.125-0.125-0.125-3.688-4.25-9.875-11.375-9.875-17.875 0-5.5 4.5-10 10-10s10 4.5 10 10c0 6.5-6.188 13.625-9.875 17.875z"></path>
</svg>
