<?xml version="1.0" encoding="utf-8"?>
<!DOCTYPE svg PUBLIC "-//W3C//DTD SVG 1.1//EN" "http://www.w3.org/Graphics/SVG/1.1/DTD/svg11.dtd">
<svg version="1.1" xmlns="http://www.w3.org/2000/svg" xmlns:xlink="http://www.w3.org/1999/xlink" width="32" height="32" viewBox="0 0 32 32">
<path d="M25 13v-4c0-5-4-9-9-9s-9 4-9 9v4c-1.688 0-3 1.313-3 3v7c0 5 4 9 9 9h6c5 0 9-4 9-9v-7c0-1.688-1.375-3-3-3zM9 9c0-3.875 3.125-7 7-7s7 3.125 7 7v4h-2v-4c0-2.75-2.25-5-5-5s-5 2.25-5 5v4h-2zM20 9v4h-8v-4c0-2.188 1.813-4 4-4s4 1.813 4 4zM26 19v4c0 3.875-3.125 7-7 7h-6c-3.875 0-7-3.125-7-7v-7c0-0.563 0.438-1 1-1 0.688 0 1.313 0 2 0h14c0.688 0 1.313 0 2 0 0.563 0 1 0.438 1 1zM16 19c-1.125 0-2 0.875-2 2 0 0.625 0.313 1.75 0.688 2.688 0.25 0.75 0.563 1.313 1.313 1.313 0.813 0 1.063-0.563 1.313-1.313 0.375-0.938 0.688-2.063 0.688-2.688 0-1.125-0.875-2-2-2z"></path>
</svg>
