<?xml version="1.0" encoding="utf-8"?>
<!DOCTYPE svg PUBLIC "-//W3C//DTD SVG 1.1//EN" "http://www.w3.org/Graphics/SVG/1.1/DTD/svg11.dtd">
<svg version="1.1" xmlns="http://www.w3.org/2000/svg" xmlns:xlink="http://www.w3.org/1999/xlink" width="32" height="32" viewBox="0 0 32 32">
<path d="M24.25 9.938v-1.875c0-2.188-0.875-4.188-2.438-5.688-1.5-1.563-3.563-2.375-5.75-2.375-4.5 0-8.188 3.625-8.188 8.063v1.875h-5.75v22.063h27.75v-22.063zM9.25 8.063c0-3.688 3.063-6.688 6.813-6.688 1.813 0 3.5 0.688 4.813 2 1.25 1.25 1.938 2.875 1.938 4.688v1.875h-1.313v-1.813c0-1.375-0.563-2.75-1.625-3.75-1-1-2.438-1.5-3.875-1.5-3.063 0-5.5 2.375-5.5 5.25v1.813h-1.25zM20.125 9.938h-8.25v-1.813c0-2.125 1.875-3.875 4.125-3.875 1.125 0 2.125 0.438 2.938 1.125 0.75 0.75 1.188 1.75 1.188 2.75zM28.5 30.625h-25v-19.313h25zM15.875 25.313c1.688 0 3.063-1.375 3.063-3.063v-3.875c0-1.625-1.375-3-3.063-3-1.625 0-3 1.375-3 3v3.875c0 1.688 1.375 3.063 3 3.063zM14.25 18.375c0-0.875 0.75-1.625 1.625-1.625 0.938 0 1.625 0.75 1.625 1.625v3.875c0 0.938-0.688 1.688-1.625 1.688-0.875 0-1.625-0.75-1.625-1.688z"></path>
</svg>
