<?xml version="1.0" encoding="utf-8"?>
<!DOCTYPE svg PUBLIC "-//W3C//DTD SVG 1.1//EN" "http://www.w3.org/Graphics/SVG/1.1/DTD/svg11.dtd">
<svg version="1.1" xmlns="http://www.w3.org/2000/svg" xmlns:xlink="http://www.w3.org/1999/xlink" width="32" height="32" viewBox="0 0 32 32">
<path d="M16 6.375c-5.875 0-10.375 3.688-16 9.625 4.813 5.063 8.875 9.625 16 9.625s12.375-5.75 16-9.5c-3.688-4.438-8.938-9.75-16-9.75zM16 24.5c-6.313 0-10.188-3.875-14.5-8.5 5.188-5.438 9.313-8.5 14.5-8.5 6.188 0 11 4.438 14.563 8.563-3.5 3.688-8.313 8.438-14.563 8.438zM16 9.625c-3.5 0-6.375 2.875-6.375 6.375s2.875 6.375 6.375 6.375c3.5 0 6.375-2.875 6.375-6.375s-2.875-6.375-6.375-6.375zM16 21.313c-2.938 0-5.313-2.375-5.313-5.313s2.375-5.313 5.313-5.313c2.938 0 5.313 2.375 5.313 5.313s-2.375 5.313-5.313 5.313zM16 12.25c-2.063 0-3.75 1.688-3.75 3.75s1.688 3.75 3.75 3.75c2.063 0 3.75-1.688 3.75-3.75s-1.688-3.75-3.75-3.75zM16 18.688c-1.5 0-2.688-1.188-2.688-2.688s1.188-2.688 2.688-2.688c1.5 0 2.688 1.188 2.688 2.688s-1.188 2.688-2.688 2.688z"></path>
</svg>
