<?xml version="1.0" encoding="utf-8"?>
<!DOCTYPE svg PUBLIC "-//W3C//DTD SVG 1.1//EN" "http://www.w3.org/Graphics/SVG/1.1/DTD/svg11.dtd">
<svg version="1.1" xmlns="http://www.w3.org/2000/svg" xmlns:xlink="http://www.w3.org/1999/xlink" width="32" height="32" viewBox="0 0 32 32">
<path d="M20.438 10.813l-9.25 9.188 0.75 0.75 9.25-9.188zM6.938 21.875c-3.25 0-5.875-2.625-5.875-5.875s2.625-5.875 5.875-5.875c1.563 0 3 0.625 4.063 1.625v0l2.125 2.125h-1.938v1.063h3.75v-3.75h-1.063v1.938l-2.063-2.063h-0.063c-1.25-1.25-2.938-2-4.813-2-3.813 0-6.938 3.125-6.938 6.938s3.125 6.938 6.938 6.938c2 0 3.75-0.813 5-2.188l-0.75-0.75c-1.063 1.125-2.563 1.875-4.25 1.875zM25.063 9.063c-1.75 0-3.375 0.688-4.625 1.75l0.813 0.75c1-0.875 2.313-1.438 3.813-1.438 3.25 0 5.875 2.625 5.875 5.875s-2.625 5.875-5.875 5.875c-1.563 0-3-0.625-4-1.625v0l-3.563-3.5-0.75 0.75 3.5 3.5h0.063c1.188 1.188 2.875 1.938 4.75 1.938 3.813 0 6.938-3.125 6.938-6.938s-3.125-6.938-6.938-6.938z"></path>
</svg>
