<?xml version="1.0" encoding="utf-8"?>
<!DOCTYPE svg PUBLIC "-//W3C//DTD SVG 1.1//EN" "http://www.w3.org/Graphics/SVG/1.1/DTD/svg11.dtd">
<svg version="1.1" xmlns="http://www.w3.org/2000/svg" xmlns:xlink="http://www.w3.org/1999/xlink" width="32" height="32" viewBox="0 0 32 32">
<path d="M23.875 1.625c-2.063-0.063-3.125 0.125-4.313 0.75-1.625 0.813-2.625 2.438-3.5 4.5-1.25-2.188-2-3.688-3.813-4.563-1.125-0.563-2.25-0.875-4.563-0.563-1.813 0.438-3.75 1.813-4.188 4.875-0.313 1.125-0.125 3.438 1.438 5.75 0.438 0.688 1 1.688 1.75 2.688 1.563 2.125 3.563 4.563 4.625 6.188 2.625 4.125 3.063 4.813 3.813 6.688 0.125 0.25 0.813 2.188 0.938 2.438 0.813-3.5 3.75-8.438 7.375-12.75 3.75-4.313 6.5-9.313 4.563-12.813-0.813-1.75-2.313-2.688-4.125-3.188z"></path>
</svg>
