<?xml version="1.0" encoding="utf-8"?>
<!DOCTYPE svg PUBLIC "-//W3C//DTD SVG 1.1//EN" "http://www.w3.org/Graphics/SVG/1.1/DTD/svg11.dtd">
<svg version="1.1" xmlns="http://www.w3.org/2000/svg" xmlns:xlink="http://www.w3.org/1999/xlink" width="32" height="32" viewBox="0 0 32 32">
<path d="M20.188 0c-6.563 0-11.813 5.25-11.813 11.813 0 3 1.188 5.75 3.063 7.875l-11.438 11.375 0.938 0.938 11.375-11.438c2.125 1.875 4.875 3.063 7.875 3.063 6.563 0 11.813-5.25 11.813-11.813s-5.25-11.813-11.813-11.813zM20.188 22.313c-5.75 0-10.5-4.75-10.5-10.5s4.75-10.5 10.5-10.5c5.813 0 10.5 4.75 10.5 10.5s-4.75 10.5-10.5 10.5zM12.313 11.813h1.313c0-3.688 2.875-6.563 6.563-6.563v-1.313c-4.313 0-7.875 3.563-7.875 7.875z"></path>
</svg>
