<?xml version="1.0" encoding="utf-8"?>
<!DOCTYPE svg PUBLIC "-//W3C//DTD SVG 1.1//EN" "http://www.w3.org/Graphics/SVG/1.1/DTD/svg11.dtd">
<svg version="1.1" xmlns="http://www.w3.org/2000/svg" xmlns:xlink="http://www.w3.org/1999/xlink" width="32" height="32" viewBox="0 0 32 32">
<path d="M11.938 3.125c-4.813 0-8.688 3.875-8.688 8.625s3.875 8.625 8.688 8.625c4.75 0 8.625-3.875 8.625-8.625s-3.875-8.625-8.625-8.625zM11.938 19.188c-4.125 0-7.438-3.313-7.438-7.438 0-4.063 3.313-7.438 7.438-7.438 4.063 0 7.375 3.375 7.375 7.438 0 4.125-3.313 7.438-7.375 7.438zM31.125 26.25l-8.813-8.75c0.938-1.688 1.438-3.625 1.438-5.625 0-6.563-5.313-11.875-11.875-11.875s-11.875 5.313-11.875 11.875c0 6.563 5.313 11.875 11.875 11.875 2.063 0 3.938-0.5 5.625-1.438l8.813 8.813c0.563 0.563 1.313 0.875 2.125 0.875 0 0 0 0 0 0 0.813 0 1.625-0.313 2.188-0.875l0.5-0.5c1.188-1.188 1.188-3.125 0-4.375zM29.25 26.125l-3.125 3.125-1.25-1.25 3.125-3.063zM1.25 11.875c0-5.875 4.75-10.625 10.625-10.625s10.625 4.75 10.625 10.625c0 5.875-4.75 10.625-10.625 10.625s-10.625-4.75-10.625-10.625zM21.688 18.563l5.438 5.5-3.063 3.063-5.5-5.438c1.188-0.875 2.25-1.938 3.125-3.125zM30.25 29.75l-0.5 0.5c-0.375 0.313-0.813 0.5-1.313 0.5s-0.938-0.188-1.313-0.5l-0.125-0.125 3.063-3.125 0.188 0.125c0.688 0.75 0.688 1.938 0 2.625zM11.438 5.813c-1.625 0.063-3.125 0.813-4.125 1.938-1.063 1.125-1.625 2.688-1.563 4.313 0 0.063 0 0.063 0 0.125l1.375-0.063v-0.063c-0.125-2.5 1.813-4.625 4.313-4.75h0.125l-0.063-1.5z"></path>
</svg>
