<?xml version="1.0" encoding="utf-8"?>
<!DOCTYPE svg PUBLIC "-//W3C//DTD SVG 1.1//EN" "http://www.w3.org/Graphics/SVG/1.1/DTD/svg11.dtd">
<svg version="1.1" xmlns="http://www.w3.org/2000/svg" xmlns:xlink="http://www.w3.org/1999/xlink" width="32" height="32" viewBox="0 0 32 32">
<path d="M21.375 2.688v14.875c0 3-2.438 5.375-5.375 5.375s-5.375-2.375-5.375-5.375v-14.875h-6.375v14.938c0 6.438 5.25 11.688 11.75 11.688s11.75-5.25 11.75-11.688v-14.938zM26.688 3.75v3.188h-4.25v-3.188zM9.563 3.75v3.188h-4.25v-3.188zM16 28.25c-5.875 0-10.688-4.75-10.688-10.625v-9.625h4.25v9.563c0 3.563 2.875 6.438 6.438 6.438s6.438-2.875 6.438-6.438v-9.563h4.25v9.625c0 5.875-4.813 10.625-10.688 10.625z"></path>
</svg>
