<?xml version="1.0" encoding="utf-8"?>
<!DOCTYPE svg PUBLIC "-//W3C//DTD SVG 1.1//EN" "http://www.w3.org/Graphics/SVG/1.1/DTD/svg11.dtd">
<svg version="1.1" xmlns="http://www.w3.org/2000/svg" xmlns:xlink="http://www.w3.org/1999/xlink" width="32" height="32" viewBox="0 0 32 32">
<path d="M29.25 13.313l-11.625-11.563c-0.438-0.438-1-0.688-1.625-0.688s-1.188 0.25-1.625 0.688l-11.688 11.688v17.5h26.625v-17.5l-0.063-0.125zM4.375 13.25l10.75-10.75c0.438-0.5 1.313-0.5 1.75 0l11.25 11.25-7.688 7.688-2.813-2.875c-0.438-0.438-1-0.688-1.625-0.688s-1.188 0.25-1.625 0.688l-2.875 2.875-7.688-7.625zM10.75 22.188l-0.063 0.125-6.938 6.875v-14l7 7zM4.563 29.875l0.625-0.563 9.938-10c0.438-0.438 1.313-0.438 1.75 0l10.563 10.563zM28.25 15.563v13.625l-7.063-7 7.063-7.063z"></path>
</svg>
