<?xml version="1.0" encoding="utf-8"?>
<!DOCTYPE svg PUBLIC "-//W3C//DTD SVG 1.1//EN" "http://www.w3.org/Graphics/SVG/1.1/DTD/svg11.dtd">
<svg version="1.1" xmlns="http://www.w3.org/2000/svg" xmlns:xlink="http://www.w3.org/1999/xlink" width="32" height="32" viewBox="0 0 32 32">
<path d="M28 5h-24c-2.188 0-4 1.813-4 4v13c0 2.188 1.813 4 4 4h24c2.188 0 4-1.813 4-4v-13c0-2.188-1.813-4-4-4zM2 10.25l7 5.25-7 5.25zM30 22c0 1.125-0.875 2-2 2h-24c-1.125 0-2-0.875-2-2l7.813-5.875 4.375 3.25c0.563 0.438 1.188 0.625 1.813 0.625s1.25-0.188 1.813-0.625l4.375-3.25zM30 20.75l-7-5.25 7-5.25zM17.188 18.625c-0.313 0.25-0.75 0.375-1.188 0.375s-0.875-0.125-1.188-0.375l-4.125-3.125-0.875-0.625-7.813-5.875c0-1.125 0.875-2 2-2h24c1.125 0 2 0.875 2 2z"></path>
</svg>
