<?xml version="1.0" encoding="utf-8"?>
<!DOCTYPE svg PUBLIC "-//W3C//DTD SVG 1.1//EN" "http://www.w3.org/Graphics/SVG/1.1/DTD/svg11.dtd">
<svg version="1.1" xmlns="http://www.w3.org/2000/svg" xmlns:xlink="http://www.w3.org/1999/xlink" width="32" height="32" viewBox="0 0 32 32">
<path d="M29.25 13.313l-11.625-11.563c-0.438-0.438-1-0.688-1.625-0.688s-1.188 0.25-1.625 0.688l-2.563 2.5h-3.813v3.875l-5.313 5.313v17.5h26.625v-17.5l-0.063-0.125zM28.125 13.75l-4.125 4.125v-8.25l4.125 4.125zM15.125 2.5c0.438-0.5 1.313-0.5 1.75 0l1.75 1.75h-5.25zM19.75 5.313l3.188 3.25v10.375l-2.5 2.5-2.813-2.875c-0.438-0.438-1-0.688-1.625-0.688s-1.188 0.25-1.625 0.688l-2.875 2.875-2.438-2.438v-13.688h10.625zM4.375 13.25l3.625-3.625v8.313l-4.188-4.125 0.563-0.563zM3.75 16.063v-0.875l7 7-0.063 0.125-6.938 6.875zM4.563 29.875l0.625-0.563 9.938-10c0.438-0.438 1.313-0.438 1.75 0l10.563 10.563zM28.25 15.375v13.813l-7.063-7 7.063-7.063v0.25zM12.25 8.563h7.5v1.063h-7.5zM12.25 14.938h7.5v1.063h-7.5zM12.25 11.75h5.375v1.063h-5.375z"></path>
</svg>
