<?xml version="1.0" encoding="utf-8"?>
<!DOCTYPE svg PUBLIC "-//W3C//DTD SVG 1.1//EN" "http://www.w3.org/Graphics/SVG/1.1/DTD/svg11.dtd">
<svg version="1.1" xmlns="http://www.w3.org/2000/svg" xmlns:xlink="http://www.w3.org/1999/xlink" width="32" height="32" viewBox="0 0 32 32">
<path d="M17.75 5.688l0.25 1.063 8.125-1.875-8.063 8.063c-1.563-1.438-3.625-2.25-6-2.25-5 0-9.063 4.063-9.063 9.063s4.063 9.063 9.063 9.063c5 0 9.063-4.063 9.063-9.063 0-2.313-0.875-4.438-2.313-6.063l8.125-8.063-1.938 8.125 1.063 0.25 2.563-10.813zM12.063 27.75c-4.438 0-8-3.563-8-8s3.563-8 8-8c4.438 0 8 3.563 8 8s-3.563 8-8 8z"></path>
</svg>
