<?xml version="1.0" encoding="utf-8"?>
<!DOCTYPE svg PUBLIC "-//W3C//DTD SVG 1.1//EN" "http://www.w3.org/Graphics/SVG/1.1/DTD/svg11.dtd">
<svg version="1.1" xmlns="http://www.w3.org/2000/svg" xmlns:xlink="http://www.w3.org/1999/xlink" width="32" height="32" viewBox="0 0 32 32">
<path d="M16 1.063c5.313 0 9.625 4.313 9.625 9.625 0 1.688-0.5 3.313-1.313 4.75l-8.313 14.438-8.313-14.438c-0.813-1.438-1.313-3.063-1.313-4.75 0-5.313 4.313-9.625 9.625-9.625zM16 14.375c2.063 0 3.75-1.625 3.75-3.688s-1.688-3.75-3.75-3.75c-2.063 0-3.75 1.688-3.75 3.75s1.688 3.688 3.75 3.688zM16 0c-5.875 0-10.688 4.75-10.688 10.688 0 1.938 0.563 3.75 1.438 5.313l9.25 16 9.25-16c0.875-1.563 1.438-3.375 1.438-5.313 0-5.938-4.813-10.688-10.688-10.688zM16 13.313c-1.5 0-2.688-1.188-2.688-2.625 0-1.5 1.188-2.688 2.688-2.688s2.688 1.188 2.688 2.688c0 1.438-1.188 2.625-2.688 2.625z"></path>
</svg>
