<?xml version="1.0" encoding="utf-8"?>
<!DOCTYPE svg PUBLIC "-//W3C//DTD SVG 1.1//EN" "http://www.w3.org/Graphics/SVG/1.1/DTD/svg11.dtd">
<svg version="1.1" xmlns="http://www.w3.org/2000/svg" xmlns:xlink="http://www.w3.org/1999/xlink" width="32" height="32" viewBox="0 0 32 32">
<path d="M26.25 10.25c0-5.625-4.625-10.25-10.25-10.25s-10.25 4.625-10.25 10.25c0 1.563 0.375 3.125 1.063 4.5v0l9 17.25 9.375-17.25c0.688-1.375 1.063-2.938 1.063-4.5zM7.625 14.25c-0.625-1.25-0.938-2.625-0.938-4 0-5.125 4.188-9.313 9.313-9.313s9.313 4.188 9.313 9.313c0 1.438-0.313 2.75-0.938 4.063l-8.563 15.688zM16.063 4c-3.125 0-5.75 2.625-5.75 5.75 0 3.188 2.625 5.75 5.75 5.75 3.188 0 5.75-2.563 5.75-5.75 0-3.125-2.563-5.75-5.75-5.75zM16.063 14.563c-2.625 0-4.813-2.125-4.813-4.813 0-2.625 2.188-4.813 4.813-4.813 2.688 0 4.813 2.188 4.813 4.813 0 2.688-2.125 4.813-4.813 4.813zM16.063 6.063c-2 0-3.688 1.688-3.688 3.688 0 2.063 1.688 3.75 3.688 3.75 2.063 0 3.688-1.688 3.688-3.75 0-2-1.625-3.688-3.688-3.688zM16.063 12.563c-1.5 0-2.75-1.25-2.75-2.813 0-1.5 1.25-2.75 2.75-2.75 1.563 0 2.75 1.25 2.75 2.75 0 1.563-1.188 2.813-2.75 2.813z"></path>
</svg>
