<?xml version="1.0" encoding="utf-8"?>
<!DOCTYPE svg PUBLIC "-//W3C//DTD SVG 1.1//EN" "http://www.w3.org/Graphics/SVG/1.1/DTD/svg11.dtd">
<svg version="1.1" xmlns="http://www.w3.org/2000/svg" xmlns:xlink="http://www.w3.org/1999/xlink" width="32" height="32" viewBox="0 0 32 32">
<path d="M16 0c-5.875 0-10.688 4.813-10.688 10.688 0 5.625 9.75 19.75 10.125 20.375l0.563 0.75 0.563-0.75c0.375-0.625 10.125-14.75 10.125-20.375 0-5.875-4.813-10.688-10.688-10.688zM16 29.5c-2.063-3.125-9.313-14.313-9.313-18.813 0-5.188 4.188-9.375 9.313-9.375s9.313 4.188 9.313 9.375c0 4.5-7.25 15.688-9.313 18.813zM16 6c-2.563 0-4.688 2.063-4.688 4.688 0 2.563 2.125 4.625 4.688 4.625s4.688-2.063 4.688-4.625c0-2.625-2.125-4.688-4.688-4.688zM16 14c-1.813 0-3.313-1.5-3.313-3.313 0-1.875 1.5-3.375 3.313-3.375s3.313 1.5 3.313 3.375c0 1.813-1.5 3.313-3.313 3.313z"></path>
</svg>
