<?xml version="1.0" encoding="utf-8"?>
<!DOCTYPE svg PUBLIC "-//W3C//DTD SVG 1.1//EN" "http://www.w3.org/Graphics/SVG/1.1/DTD/svg11.dtd">
<svg version="1.1" xmlns="http://www.w3.org/2000/svg" xmlns:xlink="http://www.w3.org/1999/xlink" width="32" height="32" viewBox="0 0 32 32">
<path d="M32 7.25l-0.125-0.063 0.063-0.063-6.25-3.75-0.063 0.125-0.063-0.063-6.563 3.188-6.125-2.813-0.063 0.063v-0.063l-6.75 2.688v0.063l-0.063-0.063-6 21.125h0.063l0.438 0.625 7.063-4.188 5.438 4.5 0.063-0.063 0.063 0.125 7.063-4.875 5 3.938 0.063-0.063 0.688 0.188zM19.375 7.375l5.563-2.688-5 18.188-6.063 4.188zM12.875 27.313l-4.75-3.875 5.125-18.5 5.25 2.375zM25.875 4.5l5.125 3.063-5.625 19.188-4.625-3.625zM6.688 7.125l5.688-2.25-5.063 18.375-6.25 3.688zM7 7.375l0.813 0.25-2.188 8.125-0.813-0.25zM13.313 19.125l-0.813-0.25 2.313-8.063 0.813 0.25zM17.375 9.063l-3.5 12.813-0.813-0.25 3.5-12.813zM24.875 12.188c0 0 0 0 0 0v0l2 3.813 2.063-3.813c0.188-0.313 0.25-0.688 0.25-1 0-1.25-1-2.313-2.25-2.313-1.313 0-2.313 1.063-2.313 2.313 0 0.313 0.063 0.688 0.25 1v0zM26.938 9.75c0.75 0 1.375 0.625 1.375 1.438 0 0.188 0 0.375-0.125 0.625l-1.313 2.375-1.25-2.375c-0.063-0.188-0.125-0.438-0.125-0.625 0-0.813 0.625-1.438 1.438-1.438zM26.938 12.313c0.688 0 1.188-0.563 1.188-1.25 0-0.625-0.5-1.188-1.188-1.188s-1.25 0.563-1.25 1.188c0 0.688 0.563 1.25 1.25 1.25zM26.938 10.313c0.438 0 0.75 0.313 0.75 0.75s-0.313 0.813-0.75 0.813c-0.438 0-0.813-0.375-0.813-0.813s0.375-0.75 0.813-0.75zM4 19.375v0l2 3.875 2.125-3.875c0.125-0.313 0.25-0.625 0.25-1 0-1.25-1.063-2.313-2.313-2.313s-2.25 1.063-2.25 2.313c0 0.375 0.063 0.688 0.188 1zM6.063 16.938c0.813 0 1.438 0.625 1.438 1.438 0 0.188-0.063 0.438-0.125 0.625l-1.313 2.375-1.25-2.375c-0.125-0.188-0.188-0.438-0.188-0.625 0-0.813 0.625-1.438 1.438-1.438zM6.063 19.5c0.688 0 1.25-0.563 1.25-1.188 0-0.688-0.563-1.25-1.25-1.25-0.625 0-1.188 0.563-1.188 1.25 0 0.625 0.563 1.188 1.188 1.188zM6.063 17.5c0.438 0 0.813 0.375 0.813 0.813 0 0.375-0.375 0.75-0.813 0.75s-0.75-0.375-0.75-0.75c0-0.438 0.313-0.813 0.75-0.813z"></path>
</svg>
