<?xml version="1.0" encoding="utf-8"?>
<!DOCTYPE svg PUBLIC "-//W3C//DTD SVG 1.1//EN" "http://www.w3.org/Graphics/SVG/1.1/DTD/svg11.dtd">
<svg version="1.1" xmlns="http://www.w3.org/2000/svg" xmlns:xlink="http://www.w3.org/1999/xlink" width="32" height="32" viewBox="0 0 32 32">
<path d="M20.125 12.813c0.625-1.563 2.625-6.438 2.625-7.438v-4.063h-13.625v4.063c0 1 2 5.938 2.625 7.438-3.125 1.5-5.25 4.75-5.25 8.438 0 5.188 4.25 9.438 9.438 9.438s9.438-4.25 9.438-9.438c0-3.75-2.125-6.938-5.25-8.438zM10.188 5.375v-3h5.188v7.188h1.063v-7.188h5.25v3c0 0.563-1.25 3.938-2.563 7-1-0.375-2.063-0.563-3.188-0.563s-2.188 0.188-3.25 0.563c-1.063-2.625-2.5-6.375-2.5-7zM15.938 29.625c-4.625 0-8.375-3.75-8.375-8.375s3.75-8.375 8.375-8.375c4.625 0 8.375 3.75 8.375 8.375s-3.75 8.375-8.375 8.375zM15.938 14.938c-3.5 0-6.313 2.813-6.313 6.313s2.813 6.313 6.313 6.313c3.5 0 6.313-2.813 6.313-6.313s-2.813-6.313-6.313-6.313zM15.938 26.5c-2.875 0-5.25-2.375-5.25-5.25s2.375-5.25 5.25-5.25c2.875 0 5.25 2.375 5.25 5.25s-2.375 5.25-5.25 5.25z"></path>
</svg>
