<?xml version="1.0" encoding="utf-8"?>
<!DOCTYPE svg PUBLIC "-//W3C//DTD SVG 1.1//EN" "http://www.w3.org/Graphics/SVG/1.1/DTD/svg11.dtd">
<svg version="1.1" xmlns="http://www.w3.org/2000/svg" xmlns:xlink="http://www.w3.org/1999/xlink" width="32" height="32" viewBox="0 0 32 32">
<path d="M14.75 16.438c-0.063 0-0.188 0-0.25-0.125 0-0.375 0.125-0.688 0.25-0.938 0.063-0.125 0.125-0.25 0.188-0.375v-0.188l0.063 0.188c0.125 0.375 0.063 1.063-0.063 1.438zM26.813 14l-0.063 0.063c-0.813 0.75-1.125 2.063-1.375 3.25 0.688-0.188 1.313-0.813 1.563-1.5 0.125-0.438 0.25-1.063-0.125-1.75zM11.75 16.125c0.063 0 0.125 0.063 0.188 0.063v0l0.125-0.063c0.063-0.313 0-0.75-0.063-1.125-0.25 0.313-0.438 0.625-0.5 1.063v0.063h0.125c0.063 0 0.125 0 0.125 0zM30.375 23.625c0 0.563-0.438 1-1 1h-26.75c-0.563 0-1-0.438-1-1v-15.25c0-0.563 0.438-1 1-1h26.75c0.563 0 1 0.438 1 1zM10.25 18c-0.313-0.75-0.5-1.688-0.625-2.563-0.25-1.063-0.5-2.25-0.875-3.125-0.063 0-0.125 0.063-0.188 0.063-0.125 0-0.25 0-0.375 0s-0.25 0.125-0.375 0.125c0 0 0 0 0 0-0.063 0-0.063-0.188-0.125-0.188-0.625 0.875-0.875 2.063-1.125 3.25-0.188-0.313-0.313-0.563-0.438-0.875-0.313-0.5-0.563-1.063-0.875-1.5-0.063 0-0.125 0-0.25 0-0.313 0-0.625 0.063-0.938 0.188v0.75c-0.063 1.375-0.063 2.563 0.313 3.688 0.063 0 0.125 0 0.188 0 0.375 0 0.75-0.188 0.938-0.25 0-0.375-0.063-0.625-0.063-0.938-0.063-0.125-0.063-0.313 0-0.5 0.25 0.313 0.438 0.688 0.688 1 0.125 0.25 0.25 0.438 0.375 0.625 0.063 0 0.125 0 0.188 0 0.125 0 0.313 0 0.438 0 0.125-0.063 0.313-0.063 0.438-0.063h0.125c0.188-0.375 0.188-1 0.188-1.625 0-0.563 0.063-1.125 0.25-1.563 0.313 1.25 0.688 2.438 1.125 3.688 0.188 0 0.375-0.063 0.563-0.125 0.125-0.063 0.25-0.063 0.313-0.063s0.063 0 0.125 0zM13.563 18.25c-0.063-0.125-0.25-0.25-0.438-0.25-0.125 0-0.313 0.063-0.438 0.125-0.188 0.063-0.313 0.063-0.5 0.063 0 0-0.063 0-0.125 0-0.188-0.063-0.313-0.125-0.438-0.313-0.188-0.313-0.188-0.75-0.063-1.313 0.313 0.063 0.625 0.063 1 0.063 0.063 0 0.063 0 0.125 0 0.125 0 0.188 0.063 0.25 0.063 0.188-0.75 0.063-1.813-0.063-2.375-0.125-0.063-0.25-0.063-0.313-0.125-0.188-0.063-0.375-0.125-0.625-0.125 0 0-0.063 0-0.125 0-0.688 0.125-1.188 1.125-1.313 2.125-0.125 0.875 0.063 1.938 0.938 2.25 0.188 0.125 0.375 0.125 0.625 0.125 0.5 0 1.125-0.125 1.5-0.313zM16.5 18.063c-0.063-0.188-0.188-0.25-0.375-0.313-0.188 0.25-0.438 0.438-0.75 0.438s-0.688-0.188-0.875-0.438c-0.188-0.25-0.188-0.625-0.063-0.938 0.25 0.063 0.563 0.063 0.75 0.063 0.25 0 0.438 0 0.563 0-0.063-0.625 0-1 0.063-1.438 0.063-0.375 0.125-0.75 0.188-1.25-0.375-0.25-0.688-0.375-1.125-0.375-0.938 0.75-1.438 1.875-1.375 3.5 0.125 0.688 1.063 1.125 1.875 1.125 0.438 0 0.875-0.125 1.125-0.375zM19.875 15.875c-0.125-0.125-0.25-0.25-0.313-0.375-0.188-0.188-0.375-0.375-0.688-0.5-0.063 0-0.063 0.063-0.063 0.188-0.063 0.125-0.063 0.313-0.188 0.313h-0.125v-0.063c0-0.5 0-1.063-0.063-1.688-0.063-0.875-0.125-1.75 0.063-2.5-0.188-0.25-0.5-0.375-1.063-0.375 0 0-0.063 0-0.063 0s-0.063-0.125-0.063-0.188c-0.313 0.938-0.188 1.938-0.063 3.063 0.125 0.625 0.188 1.25 0.063 1.813-0.063 0-0.188 0-0.313-0.063-0.125 0-0.188 0-0.313 0s-0.25 0.063-0.313 0.125c-0.063 0.063-0.063 0.188-0.063 0.375 0.188 0.125 0.625 0.125 1 0.125l0.25 0.063c0 0.375 0 0.688 0.063 1 0 0.5 0.063 0.938 0.063 1.5 0.125 0 0.188 0 0.25 0 0.188-0.063 0.375-0.063 0.563-0.063 0-0.375-0.063-0.75-0.063-1.063 0-0.5 0-1 0-1.438 0.188-0.063 0.375-0.063 0.625-0.125 0.313 0 0.688 0 0.813-0.125zM23.438 15.25c-0.25-0.188-0.5-0.5-0.875-0.5 0 0-0.063 0-0.063 0-0.063 0-0.063 0.063-0.125 0.063v0.313c0 1-0.063 2.375-0.938 2.688-0.125-0.625-0.125-1.25-0.188-1.813 0-0.313 0-0.563 0-0.75-0.063-0.063-0.188-0.125-0.25-0.188-0.25-0.125-0.438-0.25-0.813-0.313-0.125 1.688 0.063 2.813 0.5 3.313 0.188 0.188 0.438 0.313 0.75 0.313 0.25 0 0.438-0.063 0.688-0.125l0.125-0.125c0.125-0.25 0.25-0.438 0.5-0.625 0.063-0.125 0.125-0.25 0.188-0.375 0.313-0.5 0.625-1 0.5-1.875zM27.938 13.688c-0.5-0.313-0.938-0.438-1.375-0.438-0.5 0-0.938 0.188-1.313 0.688-0.75 0.875-0.938 2.75-1.063 3.625 0 0.063-0.063 0.063-0.125 0.063-0.125 0.063-0.25 0.063-0.313 0.125 0.438 0.5 0.5 1.25 0.563 2 0.063 0.563 0.125 1.188 0.313 1.563 0.063 0 0.188 0.063 0.375 0.063 0.063 0 0.188 0 0.25 0 0.188 0 0.313 0 0.438 0-0.313-0.688-0.375-1.625-0.313-2.938 1.125-0.313 2.125-1.063 2.563-2.063 0.313-0.625 0.5-1.563 0-2.688z"></path>
</svg>
