<?xml version="1.0" encoding="utf-8"?>
<!DOCTYPE svg PUBLIC "-//W3C//DTD SVG 1.1//EN" "http://www.w3.org/Graphics/SVG/1.1/DTD/svg11.dtd">
<svg version="1.1" xmlns="http://www.w3.org/2000/svg" xmlns:xlink="http://www.w3.org/1999/xlink" width="32" height="32" viewBox="0 0 32 32">
<path d="M27.5 11.5v-11.5l-26.875 11.5v7.688l3.875 1.688v11.125h7.688v-7.813l15.313 6.5v-11.5c2.188 0 3.875-1.625 3.875-3.813s-1.688-3.875-3.875-3.875zM1.938 12.438l17.875-7.688v21.375l-17.875-7.688zM10.875 30.688h-5.125v-9.313l5.125 2.188zM26.25 28.813l-5.125-2.188v-22.5l5.125-2.188zM27.5 17.938v-5.125c1.438 0 2.563 1.125 2.563 2.563 0 1.375-1.125 2.563-2.563 2.563z"></path>
</svg>
