<?xml version="1.0" encoding="utf-8"?>
<!DOCTYPE svg PUBLIC "-//W3C//DTD SVG 1.1//EN" "http://www.w3.org/Graphics/SVG/1.1/DTD/svg11.dtd">
<svg version="1.1" xmlns="http://www.w3.org/2000/svg" xmlns:xlink="http://www.w3.org/1999/xlink" width="32" height="32" viewBox="0 0 32 32">
<path d="M25 0c-2.063 0-3.688 1.438-4.813 3.563h-0.063c-1.625 3.313-4.125 5.438-6.875 5.438h-9.25c-2.25 0-4 2.188-4 5s1.75 5 4 5c1.125 0 2 0.875 2 2v9c0 1.125 0.875 2 2 2h4c1.125 0 2-0.875 2-2v-1c0-1-1-1.438-1-2v-7c0 0 0-0.063 0-0.063 0-0.125 0.063-0.25 0.125-0.375 0-0.063 0.063-0.063 0.063-0.125 0.063-0.125 0.188-0.188 0.313-0.25 0 0 0-0.063 0-0.063s0 0 0 0c0.063 0 0.188-0.063 0.25-0.063 2.563 0.25 4.813 2.313 6.375 5.375h0.063c1.125 2.188 2.75 3.563 4.813 3.563 4.625 0 7-7.063 7-14s-2.375-14-7-14zM20 14c0-1.063 0.063-2.063 0.188-3h2.813c1.125 0 2 1.375 2 3 0 1.688-0.875 3-2 3h-2.813c-0.125-0.938-0.188-1.938-0.188-3zM2 14c0-1.625 0.875-3 2-3h7c-0.625 0.75-1 1.813-1 3s0.375 2.25 1 3h-7c-1.125 0-2-1.313-2-3zM12 30h-4v-9c0-0.75-0.188-1.438-0.563-2h3.75c-0.125 0.313-0.188 0.625-0.188 1v7c0 0.938 0.563 1.625 0.875 2 0 0.063 0.063 0.063 0.125 0.125zM13.25 17h-0.25c-1.125 0-2-1.313-2-3 0-1.625 0.875-3 2-3h0.25c1.875 0 3.625-0.75 5.188-2-0.313 1.563-0.438 3.313-0.438 5s0.125 3.438 0.438 5c-1.563-1.25-3.313-2-5.188-2zM25 26c-2 0-3.75-2.875-4.563-7h2.563c2.25 0 4-2.188 4-5s-1.75-5-4-5h-2.563c0.813-4.125 2.563-7 4.563-7 2.75 0 5 5.375 5 12s-2.25 12-5 12z"></path>
</svg>
