<?xml version="1.0" encoding="utf-8"?>
<!DOCTYPE svg PUBLIC "-//W3C//DTD SVG 1.1//EN" "http://www.w3.org/Graphics/SVG/1.1/DTD/svg11.dtd">
<svg version="1.1" xmlns="http://www.w3.org/2000/svg" xmlns:xlink="http://www.w3.org/1999/xlink" width="32" height="32" viewBox="0 0 32 32">
<path d="M27.813 30.375l-4.25-3.063-4.25 3.063 1.625-4.938-4.188-3.063h5.188l1.625-4.938 1.625 4.938h5.188l-4.188 3.063zM19.75 25.813c-0.875-0.625-6.188-4.438-6.188-4.438s6.563 0 7.625 0c0.375-1.063 2.375-7.25 2.375-7.25s2 6.188 2.375 7.25c0.5 0 2.313 0 4.063 0l-6.438-19.75-5.188 15.875h-16.75l16.813 12.25c0.563-1.625 1.125-3.375 1.313-3.938z"></path>
</svg>
