<?xml version="1.0" encoding="utf-8"?>
<!DOCTYPE svg PUBLIC "-//W3C//DTD SVG 1.1//EN" "http://www.w3.org/Graphics/SVG/1.1/DTD/svg11.dtd">
<svg version="1.1" xmlns="http://www.w3.org/2000/svg" xmlns:xlink="http://www.w3.org/1999/xlink" width="32" height="32" viewBox="0 0 32 32">
<path d="M16 22.375c3.25 0 5.875-2.625 5.875-5.875v-10.625c0-3.25-2.625-5.813-5.875-5.813s-5.875 2.563-5.875 5.813v10.625c0 3.25 2.625 5.875 5.875 5.875zM11.188 5.875c0-2.625 2.188-4.75 4.813-4.75s4.813 2.125 4.813 4.75v10.625c0 2.688-2.188 4.813-4.813 4.813s-4.813-2.125-4.813-4.813zM24 11.188v5.313c0 4.438-3.625 8-8 8s-8-3.563-8-8v-5.313h-1.063v5.313c0 4.875 3.813 8.813 8.625 9.063h-0.063v5.313h-4.813v1.063h10.625v-1.063h-4.75v-5.313h-0.125c4.813-0.25 8.625-4.188 8.625-9.063v-5.313z"></path>
</svg>
