<?xml version="1.0" encoding="utf-8"?>
<!DOCTYPE svg PUBLIC "-//W3C//DTD SVG 1.1//EN" "http://www.w3.org/Graphics/SVG/1.1/DTD/svg11.dtd">
<svg version="1.1" xmlns="http://www.w3.org/2000/svg" xmlns:xlink="http://www.w3.org/1999/xlink" width="32" height="32" viewBox="0 0 32 32">
<path d="M25.563 0.063c-3.563 0-6.438 2.813-6.438 6.438 0 0.375 0 0.75 0.125 1.125l-16.813 16.875 2.063 2.063-4.5 4.5 0.875 0.875 4.5-4.5 2.188 2.188 16.875-16.813c0.375 0.125 0.75 0.125 1.125 0.125 3.625 0 6.438-2.875 6.438-6.438 0-3.625-2.813-6.438-6.438-6.438zM7.563 27.813l-3.313-3.313 15.563-15.563 3.313 3.313zM25.563 11.625c-0.5 0-1-0.125-1.5-0.25l-3.375-3.375c-0.125-0.5-0.25-1-0.25-1.5 0-2.813 2.313-5.125 5.125-5.125s5.125 2.313 5.125 5.125c0 2.813-2.313 5.125-5.125 5.125z"></path>
</svg>
