<?xml version="1.0" encoding="utf-8"?>
<!DOCTYPE svg PUBLIC "-//W3C//DTD SVG 1.1//EN" "http://www.w3.org/Graphics/SVG/1.1/DTD/svg11.dtd">
<svg version="1.1" xmlns="http://www.w3.org/2000/svg" xmlns:xlink="http://www.w3.org/1999/xlink" width="32" height="32" viewBox="0 0 32 32">
<path d="M26.375 21.063c0-1.125 0.875-2 2-2s2 0.875 2 2c0 1.063-0.875 2-2 2s-2-0.938-2-2zM28.375 12.75c1.125 0 2-0.875 2-2 0-1.063-0.875-1.938-2-1.938s-2 0.875-2 1.938c0 1.125 0.875 2 2 2zM20.75 13.188c0 1.125 0.875 2 2 2s2-0.875 2-2c0-1.125-0.875-2-2-2s-2 0.875-2 2zM10.75 26.375c-1.125 0-2 0.938-2 2 0 1.125 0.875 2 2 2s2-0.875 2-2c0-1.063-0.875-2-2-2zM18.75 11.188c1.063 0 2-0.875 2-2 0-1.063-0.938-2-2-2-1.125 0-2.063 0.938-2.063 2 0 1.125 0.938 2 2.063 2zM22.75 16.688c-1.125 0-2 0.875-2 2s0.875 2 2 2c1.125 0 2-0.875 2-2s-0.875-2-2-2zM13.25 20.688c-1.063 0-2 0.875-2 2s0.938 2 2 2c1.125 0 2.063-0.875 2.063-2s-0.938-2-2.063-2zM21.25 26.375c-1.125 0-2.063 0.938-2.063 2 0 1.125 0.938 2 2.063 2 1.063 0 2-0.875 2-2 0-1.063-0.938-2-2-2zM21.25 5.625c1.063 0 2-0.938 2-2 0-1.125-0.938-2-2-2-1.125 0-2.063 0.875-2.063 2 0 1.063 0.938 2 2.063 2zM9.25 20.688c1.125 0 2-0.875 2-2s-0.875-2-2-2c-1.125 0-2 0.875-2 2s0.875 2 2 2zM3.625 12.75c1.125 0 2-0.875 2-2 0-1.063-0.875-1.938-2-1.938s-2 0.875-2 1.938c0 1.125 0.875 2 2 2zM3.625 23.063c1.125 0 2-0.938 2-2 0-1.125-0.875-2-2-2s-2 0.875-2 2c0 1.063 0.875 2 2 2zM9.25 15.188c1.125 0 2-0.875 2-2s-0.875-2-2-2c-1.125 0-2 0.875-2 2s0.875 2 2 2zM18.75 24.688c1.063 0 2-0.875 2-2s-0.938-2-2-2c-1.125 0-2.063 0.875-2.063 2s0.938 2 2.063 2zM11.25 9.188c0 1.125 0.938 2 2 2 1.125 0 2.063-0.875 2.063-2 0-1.063-0.938-2-2.063-2-1.063 0-2 0.938-2 2zM10.75 5.625c1.125 0 2-0.938 2-2 0-1.125-0.875-2-2-2s-2 0.875-2 2c0 1.063 0.875 2 2 2z"></path>
</svg>
