<?xml version="1.0" encoding="utf-8"?>
<!DOCTYPE svg PUBLIC "-//W3C//DTD SVG 1.1//EN" "http://www.w3.org/Graphics/SVG/1.1/DTD/svg11.dtd">
<svg version="1.1" xmlns="http://www.w3.org/2000/svg" xmlns:xlink="http://www.w3.org/1999/xlink" width="32" height="32" viewBox="0 0 32 32">
<path d="M10.313 15.438c-1.938 2-4.188 3.75-6.25 5.625-0.438-0.188-0.688-0.5-0.875-0.875 2.125-1.813 4.188-3.625 6.25-5.5 0.313 0.188 0.625 0.5 0.875 0.75zM21.688 15.125c-0.188 0.313-0.563 0.438-0.688 0.75 2.188 1.875 4.313 3.75 6.625 5.438 0.313-0.25 0.625-0.375 0.75-0.75-2.313-1.75-4.313-3.75-6.688-5.438zM9.188 6.313c-1.625 0-3.938 0-6 0 0 0.375 0 0.688 0 1.063 1.875 0.125 4.063 0 6.063 0.063 0.563 4.313 2.313 7.5 6.313 8.438 0 2.375 0 4.688 0 7.063-5.938 0.5-10.313 2.5-11.688 7.5 1.063 0.188 2.438 0.063 3.688 0.063 1.188-3.313 3.875-5.125 8-5.563 0 1.813 0 3.688 0 5.5 0.25 0.188 0.813 0.063 1.25 0.063 0-1.875-0.125-3.938 0.063-5.75 4.75 0.25 7.938 2.063 9.25 5.75 0.75 0 1.563 0 2.313 0-1.313-5.125-5.875-7-11.625-7.625 0-2.375 0-4.688 0-7.063 3.75-1 5.25-4.25 5.875-8.375 1.938 0 3.813 0 5.75 0 0.188-0.375 0-0.75 0-1.125-2.125-0.063-3.625 0.063-5.813-0.063 0-1.813-0.313-3.25-0.875-4.5-0.688 0-1.313 0-2 0 0.438 1.313 1 2.875 0.75 4.563-2.313-0.125-6 0.188-8.75-0.125 0-1.75 0.438-3.063 0.813-4.438-0.813 0-1.625 0-2.438 0-0.625 1.125-0.813 3.125-0.938 4.563zM12 7.438c2.813 0 5.688 0 8.5 0-0.25 2.625-1.188 5.938-3.563 6.563-0.563 0.125-1.125 0.125-1.625 0-2.25-0.625-3.125-3.75-3.5-6.375 0-0.125 0.063-0.188 0.188-0.188z"></path>
</svg>
