<?xml version="1.0" encoding="utf-8"?>
<!DOCTYPE svg PUBLIC "-//W3C//DTD SVG 1.1//EN" "http://www.w3.org/Graphics/SVG/1.1/DTD/svg11.dtd">
<svg version="1.1" xmlns="http://www.w3.org/2000/svg" xmlns:xlink="http://www.w3.org/1999/xlink" width="32" height="32" viewBox="0 0 32 32">
<path d="M15 21.938c-0.75 0-1.5-0.25-2.125-0.563 0.938 0.25 2.063 0.188 3.188-0.25 1.25-0.5 2.25-1.375 2.688-2.375 0 1.75-1.688 3.188-3.75 3.188zM15.563 23.813c2.688 0 4.938-1.625 5.563-3.875-0.875 1.625-2.688 2.938-4.938 3.25-1.938 0.25-3.813-0.313-5.063-1.375 1 1.25 2.625 2 4.438 2zM22.75 17.25c0 0.188 0 0.375 0 0.563 0 3.938-3.188 7.188-7.125 7.188-2.813 0-5.25-1.688-6.438-4.188 0.875 2.938 3.563 5.063 6.75 5.063 3.875 0 7-3.125 7-7 0-0.563-0.063-1.125-0.188-1.625zM26.875 19.563c0 6.125-4.938 11.063-11 11.063-6.125 0-11.063-4.938-11.063-11.063 0-4.5 2.688-8.375 6.563-10.125l-2-5.938c-0.25-0.688 0.125-1.375 0.813-1.563v-0.063c0.125 0 0.25 0 0.375 0 0.563 0 1.063 0.375 1.25 0.938l1.375 6.063c0.875-0.25 1.75-0.375 2.688-0.375 6.063 0 11 5 11 11.063zM24.75 19.563c0-4.938-4-8.938-8.875-8.938-0.75 0-1.5 0.125-2.188 0.313l1.688 7c0.125 0.75 0.125 1.375-0.125 1.438 0 0 0 0.063-0.063 0.063-0.188 0-0.563-0.5-0.75-1.125l-2.375-6.813c-3 1.438-5.125 4.5-5.125 8.063 0 4.938 4 8.938 8.938 8.938 4.875 0 8.875-4 8.875-8.938z"></path>
</svg>
