<?xml version="1.0" encoding="utf-8"?>
<!DOCTYPE svg PUBLIC "-//W3C//DTD SVG 1.1//EN" "http://www.w3.org/Graphics/SVG/1.1/DTD/svg11.dtd">
<svg version="1.1" xmlns="http://www.w3.org/2000/svg" xmlns:xlink="http://www.w3.org/1999/xlink" width="32" height="32" viewBox="0 0 32 32">
<path d="M30.375 20.063c0 3.125-2.5 5.688-5.625 5.688h-17.5c-3.125 0-5.625-2.563-5.625-5.688 0-2.813 2.063-5.188 4.75-5.625-0.063-0.188-0.063-0.375-0.063-0.625 0-2 1.625-3.625 3.563-3.625 0.875 0 1.688 0.375 2.313 0.875 1.125-2.5 2.563-4.813 6.563-4.813 4.875 0 7.125 3.75 7.125 7.75 0 0.125 0 0.313 0 0.5 2.563 0.5 4.5 2.813 4.5 5.563z"></path>
</svg>
