<?xml version="1.0" encoding="utf-8"?>
<!DOCTYPE svg PUBLIC "-//W3C//DTD SVG 1.1//EN" "http://www.w3.org/Graphics/SVG/1.1/DTD/svg11.dtd">
<svg version="1.1" xmlns="http://www.w3.org/2000/svg" xmlns:xlink="http://www.w3.org/1999/xlink" width="32" height="32" viewBox="0 0 32 32">
<path d="M16 0c-8.813 0-16 7.188-16 16s7.188 16 16 16c8.813 0 16-7.188 16-16s-7.188-16-16-16zM16 30.688c-8.125 0-14.688-6.563-14.688-14.688s6.563-14.688 14.688-14.688c8.125 0 14.688 6.563 14.688 14.688s-6.563 14.688-14.688 14.688zM12.563 11.875c0-1.5 1.438-2.813 3.688-2.813 2.313 0 4 1.5 4 1.5l0.938-1.375c0 0-1.438-1.438-4.25-1.563v-2.313h-1.5v2.313c-2.75 0.25-4.625 2.25-4.625 4.375 0 5.063 9.063 4.125 9.063 8.25 0 1.75-1.625 2.813-3.625 2.813-2.75 0-4.625-1.875-4.625-1.875l-1.063 1.188c0 0 1.688 1.875 5.063 2v2.313h1.438v-2.125c2.938-0.313 4.688-2.188 4.688-4.438-0.125-5.313-9.188-4.5-9.188-8.25z"></path>
</svg>
