<?xml version="1.0" encoding="utf-8"?>
<!DOCTYPE svg PUBLIC "-//W3C//DTD SVG 1.1//EN" "http://www.w3.org/Graphics/SVG/1.1/DTD/svg11.dtd">
<svg version="1.1" xmlns="http://www.w3.org/2000/svg" xmlns:xlink="http://www.w3.org/1999/xlink" width="32" height="32" viewBox="0 0 32 32">
<path d="M21.375 0.938l-1.875-0.938 0.438 2.063c0.25 1.125 0.375 2.375 0.375 3.75 0 9.938-7.063 18.375-16.813 20.125l-2 0.375 1.5 1.375c3 2.75 6.938 4.313 11.063 4.313 9.063 0 16.438-7.375 16.438-16.438 0-6.25-3.5-11.875-9.125-14.625zM14.063 30c-2.938 0-5.75-0.938-8.125-2.563 9.625-2.688 16.375-11.438 16.375-21.625 0-0.688 0-1.375-0.063-2.063 3.875 2.688 6.188 7.063 6.188 11.813 0 7.938-6.438 14.438-14.375 14.438z"></path>
</svg>
