<?xml version="1.0" encoding="utf-8"?>
<!DOCTYPE svg PUBLIC "-//W3C//DTD SVG 1.1//EN" "http://www.w3.org/Graphics/SVG/1.1/DTD/svg11.dtd">
<svg version="1.1" xmlns="http://www.w3.org/2000/svg" xmlns:xlink="http://www.w3.org/1999/xlink" width="32" height="32" viewBox="0 0 32 32">
<path d="M9.875 5.063c-0.813 1.688-1.313 3.625-1.313 5.563 0 6.938 5.688 12.625 12.688 12.625 2.063 0 4-0.5 5.813-1.375-2.188 3.875-6.25 6.375-10.875 6.375-6.875 0-12.438-5.625-12.438-12.5 0-4.438 2.375-8.5 6.125-10.688zM12.813 2.688c-5.813 1.5-10.125 6.813-10.125 13.063 0 7.5 6.063 13.563 13.5 13.563 6.375 0 11.75-4.438 13.125-10.438-2.063 2.063-4.938 3.313-8.063 3.313-6.438 0-11.625-5.188-11.625-11.563 0-3.063 1.25-5.875 3.188-7.938z"></path>
</svg>
