<?xml version="1.0" encoding="utf-8"?>
<!DOCTYPE svg PUBLIC "-//W3C//DTD SVG 1.1//EN" "http://www.w3.org/Graphics/SVG/1.1/DTD/svg11.dtd">
<svg version="1.1" xmlns="http://www.w3.org/2000/svg" xmlns:xlink="http://www.w3.org/1999/xlink" width="32" height="32" viewBox="0 0 32 32">
<path d="M3.188 12.813c-1.75 0-3.188 1.438-3.188 3.188s1.438 3.188 3.188 3.188c1.813 0 3.188-1.438 3.188-3.188s-1.375-3.188-3.188-3.188zM3.188 18.125c-1.188 0-2.125-0.938-2.125-2.125s0.938-2.125 2.125-2.125c1.188 0 2.125 0.938 2.125 2.125s-0.938 2.125-2.125 2.125zM28.813 12.813c-1.813 0-3.188 1.438-3.188 3.188s1.375 3.188 3.188 3.188c1.75 0 3.188-1.438 3.188-3.188s-1.438-3.188-3.188-3.188zM28.813 18.125c-1.188 0-2.125-0.938-2.125-2.125s0.938-2.125 2.125-2.125c1.188 0 2.125 0.938 2.125 2.125s-0.938 2.125-2.125 2.125zM16 12.813c-1.75 0-3.188 1.438-3.188 3.188s1.438 3.188 3.188 3.188c1.75 0 3.188-1.438 3.188-3.188s-1.438-3.188-3.188-3.188zM16 18.125c-1.188 0-2.125-0.938-2.125-2.125s0.938-2.125 2.125-2.125c1.188 0 2.125 0.938 2.125 2.125s-0.938 2.125-2.125 2.125z"></path>
</svg>
