<?xml version="1.0" encoding="utf-8"?>
<!DOCTYPE svg PUBLIC "-//W3C//DTD SVG 1.1//EN" "http://www.w3.org/Graphics/SVG/1.1/DTD/svg11.dtd">
<svg version="1.1" xmlns="http://www.w3.org/2000/svg" xmlns:xlink="http://www.w3.org/1999/xlink" width="32" height="32" viewBox="0 0 32 32">
<path d="M26.813 1.313c-0.063-0.313-0.063-0.688 0-0.938l-1.063-0.375c-0.188 0.5-0.125 1-0.125 1.438 0.125 1.188 0.25 2.5-6.25 3.688-8.063 1.5-9.125 8.125-9.25 10.063-2.75 0.25-4.938 2.563-4.938 5.438v5.875c0 3.063 2.438 5.5 5.5 5.5 3 0 5.5-2.438 5.5-5.5v-5.875c0-2.813-2.188-5.125-4.938-5.438 0.125-1.75 1-7.563 8.375-8.938 7-1.25 7.375-2.875 7.188-4.938zM15 20.625v5.875c0 2.375-1.938 4.375-4.313 4.375-2.438 0-4.375-2-4.375-4.375v-5.875c0-2.438 1.938-4.375 4.375-4.375 2.375 0 4.313 1.938 4.313 4.375zM9.813 18.625h1.188v2.813h-1.188z"></path>
</svg>
