<?xml version="1.0" encoding="utf-8"?>
<!DOCTYPE svg PUBLIC "-//W3C//DTD SVG 1.1//EN" "http://www.w3.org/Graphics/SVG/1.1/DTD/svg11.dtd">
<svg version="1.1" xmlns="http://www.w3.org/2000/svg" xmlns:xlink="http://www.w3.org/1999/xlink" width="32" height="32" viewBox="0 0 32 32">
<path d="M16.563 8.563v-1.625c0-0.5 1-1.125 1.813-1.688 1.188-0.75 2.438-1.5 2.438-2.625v-2.625h-1.063v2.625c0 0.563-1.063 1.188-1.938 1.75-1.125 0.688-2.375 1.438-2.375 2.563v1.625c-4.125 0.25-7.438 3.625-7.438 7.75v7.938c0 4.25 3.563 7.75 8 7.75s8-3.5 8-7.75v-7.938c0-4.125-3.313-7.5-7.438-7.75zM22.938 16.313v0.75h-6.375v-7.438c3.563 0.25 6.375 3.125 6.375 6.688zM9.063 16.313c0-3.563 2.813-6.438 6.375-6.688v7.438h-6.375zM16 30.938c-3.813 0-6.938-3-6.938-6.688v-6.125h13.875v6.125c0 3.688-3.125 6.688-6.938 6.688z"></path>
</svg>
