<?xml version="1.0" encoding="utf-8"?>
<!DOCTYPE svg PUBLIC "-//W3C//DTD SVG 1.1//EN" "http://www.w3.org/Graphics/SVG/1.1/DTD/svg11.dtd">
<svg version="1.1" xmlns="http://www.w3.org/2000/svg" xmlns:xlink="http://www.w3.org/1999/xlink" width="32" height="32" viewBox="0 0 32 32">
<path d="M1.625 18.688c0.438-4.5 4.125-6.063 4.688-6.25-0.938-0.75-1.5-1.813-1.5-3.063 0-2.188 1.813-4 4.063-4 2.188 0 4 1.813 4 4 0 1.188-0.563 2.313-1.438 3.063 0.75 0.25 1.5 0.625 2.125 1.188-1.75 0.875-5.625 3.375-6.188 8.875 0 0.063 0 0.063 0 0.125-3.438-0.188-3.75-1.125-3.75-1.125v0c-0.25-0.25-0.375-0.5-0.5-0.813-0.5-0.125-0.813-0.375-0.813-0.375s-0.75-0.313-0.688-1.625zM15.813 13.75c-0.813 0.313-6.313 2.625-7 9.25-0.063 1.938 1.063 2.375 1.063 2.375s0 0 0 0 0.438 0.438 1.188 0.625c0.125 0.438 0.375 0.813 0.75 1.125v0c0 0 0.5 1.438 5.938 1.75 0.063 0 0.188 0 0.25 0 0.438 0 0.875 0 1.313 0 0.188 0 0.375 0 0.563 0 0.5 0 1 0 1.5 0 0.188 0 0.313 0 0.438-0.063 5.563-0.375 6.125-2.063 6.125-2.063v-0.063c0.188-0.188 0.313-0.438 0.375-0.688 2.563-0.5 2.313-3.563 1.563-5.875-1.063-3.188-3.688-5.438-6.5-6.438 1.313-1.063 2.188-2.688 2.188-4.5 0-3.25-2.688-5.875-6-5.875s-6 2.625-6 5.875c0 1.813 0.875 3.5 2.25 4.563z"></path>
</svg>
