<?xml version="1.0" encoding="utf-8"?>
<!DOCTYPE svg PUBLIC "-//W3C//DTD SVG 1.1//EN" "http://www.w3.org/Graphics/SVG/1.1/DTD/svg11.dtd">
<svg version="1.1" xmlns="http://www.w3.org/2000/svg" xmlns:xlink="http://www.w3.org/1999/xlink" width="32" height="32" viewBox="0 0 32 32">
<path d="M28.813 1.438l-17.625 6.25v15.438c-0.813-1-2.063-1.625-3.438-1.625-2.5 0-4.563 2-4.563 4.5s2.063 4.563 4.563 4.563c2.438 0 4.5-2 4.5-4.5v0-17.625l15.5-5.5v14.313c-0.875-1-2.125-1.625-3.5-1.625-2.5 0-4.5 2-4.5 4.5s2 4.563 4.5 4.563c2.5 0 4.563-2.063 4.563-4.563 0-0.063 0-0.125 0-0.25v0zM7.75 29.5c-1.938 0-3.5-1.563-3.5-3.5 0-1.875 1.563-3.438 3.5-3.438 1.875 0 3.438 1.563 3.438 3.438 0 1.938-1.563 3.5-3.438 3.5zM24.25 23.625c-1.875 0-3.438-1.563-3.438-3.5 0-1.875 1.563-3.438 3.438-3.438 1.938 0 3.5 1.563 3.5 3.438 0 1.938-1.563 3.5-3.5 3.5z"></path>
</svg>
