<?xml version="1.0" encoding="utf-8"?>
<!DOCTYPE svg PUBLIC "-//W3C//DTD SVG 1.1//EN" "http://www.w3.org/Graphics/SVG/1.1/DTD/svg11.dtd">
<svg version="1.1" xmlns="http://www.w3.org/2000/svg" xmlns:xlink="http://www.w3.org/1999/xlink" width="32" height="32" viewBox="0 0 32 32">
<path d="M31.313 0.5c-0.375-0.313-0.875-0.5-1.313-0.5-0.125 0-0.25 0-0.375 0l-17 3c-0.938 0.188-1.625 1-1.625 2v17.188c-1-0.75-2.313-1.188-3.813-1.188-0.813 0-1.688 0.125-2.5 0.438-1.938 0.625-3.438 1.875-4.188 3.438-0.563 1.25-0.688 2.563-0.188 3.75 0.75 2.063 2.875 3.375 5.5 3.375 0.813 0 1.688-0.125 2.5-0.438 1.938-0.625 3.438-1.875 4.188-3.438 0.313-0.688 0.5-1.438 0.5-2.125v0-16c0.125 0 0.25 0 0.375 0l16.625-2.938v12.125c-1-0.75-2.313-1.188-3.813-1.188-0.813 0-1.688 0.125-2.5 0.438-1.938 0.625-3.438 1.875-4.188 3.438-0.563 1.25-0.688 2.563-0.188 3.75 0.75 2.063 2.875 3.375 5.5 3.375 0.813 0 1.688-0.125 2.5-0.438 1.938-0.625 3.438-1.875 4.188-3.438 0.313-0.688 0.5-1.438 0.5-2.125v0-21c0-0.563-0.25-1.125-0.688-1.5zM7.688 29.688c-2.375 0.813-4.875 0-5.5-1.75-0.688-1.75 0.75-3.813 3.125-4.625s4.875 0 5.5 1.75c0.688 1.75-0.75 3.813-3.125 4.625zM26.625 26.688c-2.375 0.813-4.875 0-5.5-1.75-0.688-1.75 0.75-3.813 3.125-4.625 2.438-0.813 4.875 0 5.563 1.75 0.625 1.75-0.75 3.813-3.188 4.625zM29.938 5l-17 3v-3l17-3z"></path>
</svg>
