<?xml version="1.0" encoding="utf-8"?>
<!DOCTYPE svg PUBLIC "-//W3C//DTD SVG 1.1//EN" "http://www.w3.org/Graphics/SVG/1.1/DTD/svg11.dtd">
<svg version="1.1" xmlns="http://www.w3.org/2000/svg" xmlns:xlink="http://www.w3.org/1999/xlink" width="32" height="32" viewBox="0 0 32 32">
<path d="M2.688 8.563h13.875v1.063h-13.875zM2.688 13.313h13.875v1.063h-13.875zM2.688 18.125h13.875v1.063h-13.875zM21.875 9.188l7.438 0.938c0-5.313-4.25-6.375-8.5-7.438v20.25c-0.625 0-1.688 0-3.313 0-3.125 0-4.188 1.625-4.188 3.188 0 1.25 1 3.188 4.313 3.188 4.688 0 4.25-3.75 4.25-6.375zM28.188 8.938l-6.313-0.813v-4.063c3.563 0.938 5.813 2 6.313 4.875zM20 27.5c-0.438 0.5-1.25 0.75-2.375 0.75-3.063 0-3.25-1.813-3.25-2.125 0-1.375 1.188-2.125 3.125-2.125h3.313v0.813c-0.063 1.063-0.188 2.125-0.813 2.688z"></path>
</svg>
