<?xml version="1.0" encoding="utf-8"?>
<!DOCTYPE svg PUBLIC "-//W3C//DTD SVG 1.1//EN" "http://www.w3.org/Graphics/SVG/1.1/DTD/svg11.dtd">
<svg version="1.1" xmlns="http://www.w3.org/2000/svg" xmlns:xlink="http://www.w3.org/1999/xlink" width="32" height="32" viewBox="0 0 32 32">
<path d="M22.563 11.313c-2.625 0-4.813-2.188-4.813-4.813 0-2.688 2.188-4.813 4.813-4.813 2.688 0 4.813 2.125 4.813 4.813 0 2.625-2.125 4.813-4.813 4.813zM18.625 15.938c0-2.688-2.125-4.813-4.813-4.813-2.625 0-4.75 2.125-4.75 4.813 0 0.063 0 0.188 0 0.313v0 8.313h9.563v-8.313c0-0.125 0-0.25 0-0.313zM13.813 10.438c2 0 3.563-1.563 3.563-3.5s-1.563-3.5-3.563-3.5c-1.938 0-3.5 1.563-3.5 3.5s1.563 3.5 3.5 3.5zM29.125 18.688c0-3.625-2.938-6.563-6.563-6.563s-6.563 2.938-6.563 6.563c0 0.188 0.063 0.313 0.063 0.438h-0.063v11.375h13.125v-11.375c0-0.125 0-0.25 0-0.438zM6.875 10.563c-2.188 0-3.938 1.75-3.938 3.938 0 0.125 0 0.188 0 0.25v0 6.813h7.875v-6.813h-0.063c0-0.063 0-0.125 0-0.25 0-2.188-1.75-3.938-3.875-3.938zM6.875 10.063c1.563 0 2.875-1.313 2.875-2.875 0-1.625-1.313-2.875-2.875-2.875-1.625 0-2.938 1.25-2.938 2.875 0 1.563 1.313 2.875 2.938 2.875z"></path>
</svg>
