<?xml version="1.0" encoding="utf-8"?>
<!DOCTYPE svg PUBLIC "-//W3C//DTD SVG 1.1//EN" "http://www.w3.org/Graphics/SVG/1.1/DTD/svg11.dtd">
<svg version="1.1" xmlns="http://www.w3.org/2000/svg" xmlns:xlink="http://www.w3.org/1999/xlink" width="32" height="32" viewBox="0 0 32 32">
<path d="M17 20.188l3.438-2.5c0.313 0.188 0.688 0.313 1.063 0.313 1.125 0 2.063-0.875 2.063-2s-0.938-2.063-2.063-2.063c-1.125 0-2 0.938-2 2.063 0 0.063 0 0.125 0 0.25l-2.5 1.813v-5.688l3.438-2.5c0.313 0.188 0.688 0.25 1.063 0.25 1.125 0 2.063-0.875 2.063-2s-0.938-2.063-2.063-2.063c-1.125 0-2 0.938-2 2.063 0 0.063 0 0.188 0 0.25l-2.5 1.813v-8.563h-2v4.5l-2.5-1.813c0-0.125 0-0.25 0-0.375 0-1.125-0.875-2.063-2-2.063-1.188 0-2.063 0.938-2.063 2.063s0.875 2.063 2.063 2.063c0.313 0 0.688-0.125 0.938-0.25l3.563 2.563v5.688l-2.5-1.875c0-0.063 0-0.188 0-0.313 0-1.125-0.875-2.063-2-2.063-1.188 0-2.063 0.938-2.063 2.063s0.875 2 2.063 2c0.313 0 0.688-0.063 1-0.25l3.5 2.563v6.063l-2.5-1.813c0-0.125 0-0.25 0-0.375 0-1.125-0.875-2-2-2-1.188 0-2.063 0.875-2.063 2s0.875 2.063 2.063 2.063c0.313 0 0.688-0.125 1-0.25l3.5 2.5v6.063h2v-2l3.438-2.438c0.313 0.188 0.688 0.313 1.063 0.313 1.125 0 2.063-0.938 2.063-2.063s-0.938-2.063-2.063-2.063c-1.125 0-2 0.938-2 2.063 0 0.063 0 0.188 0 0.25l-2.5 1.813v-6.063z"></path>
</svg>
