<?xml version="1.0" encoding="utf-8"?>
<!DOCTYPE svg PUBLIC "-//W3C//DTD SVG 1.1//EN" "http://www.w3.org/Graphics/SVG/1.1/DTD/svg11.dtd">
<svg version="1.1" xmlns="http://www.w3.org/2000/svg" xmlns:xlink="http://www.w3.org/1999/xlink" width="32" height="32" viewBox="0 0 32 32">
<path d="M9.063 2.688v14.938h-6.375c0 0 0 6.563 0 8.688s1.938 3 3.438 3c1.438 0 16.25 0 20 0 1.625 0 3.188-1.563 3.188-3.188 0-1.188 0-23.438 0-23.438zM6.125 28.25c-0.688 0-2.375-0.313-2.375-1.938v-7.625h5.313v7.188c0 0.688-0.938 2.375-2.375 2.375zM28.25 26.125c0 1.063-1.063 2.125-2.125 2.125h-17.125c0.75-0.75 1.125-1.75 1.125-2.375v-22.125h18.125v22.375zM12.25 5.875h13.875v1.063h-13.875zM12.25 20.25h13.875v1.063h-13.875zM12.25 24h13.875v1.063h-13.875zM26.125 9.625h-13.875v8h13.875zM25.063 16.563h-11.75v-5.875h11.75z"></path>
</svg>
