<?xml version="1.0" encoding="utf-8"?>
<!DOCTYPE svg PUBLIC "-//W3C//DTD SVG 1.1//EN" "http://www.w3.org/Graphics/SVG/1.1/DTD/svg11.dtd">
<svg version="1.1" xmlns="http://www.w3.org/2000/svg" xmlns:xlink="http://www.w3.org/1999/xlink" width="32" height="32" viewBox="0 0 32 32">
<path d="M29 0h-22c-1.688 0-3 1.313-3 3v2h-1c-1.688 0-3 1.313-3 3v20c0 2.188 1.813 4 4 4h24c2.188 0 4-1.813 4-4v-25c0-1.688-1.375-3-3-3zM30 28c0 1.125-0.875 2-2 2h-24c-1.125 0-2-0.875-2-2v-20c0-0.563 0.438-1 1-1h1v20c0 0.563 0.438 1 1 1s1-0.438 1-1v-24c0-0.563 0.438-1 1-1h22c0.563 0 1 0.438 1 1zM19.5 13h8c0.25 0 0.5-0.25 0.5-0.5s-0.25-0.5-0.5-0.5h-8c-0.25 0-0.5 0.25-0.5 0.5s0.25 0.5 0.5 0.5zM19.5 10h8c0.25 0 0.5-0.25 0.5-0.5s-0.25-0.5-0.5-0.5h-8c-0.25 0-0.5 0.25-0.5 0.5s0.25 0.5 0.5 0.5zM19.5 7h8c0.25 0 0.5-0.25 0.5-0.5s-0.25-0.5-0.5-0.5h-8c-0.25 0-0.5 0.25-0.5 0.5s0.25 0.5 0.5 0.5zM16.5 27h-8c-0.25 0-0.5 0.25-0.5 0.5s0.25 0.5 0.5 0.5h8c0.25 0 0.5-0.25 0.5-0.5s-0.25-0.5-0.5-0.5zM16.5 24h-8c-0.25 0-0.5 0.25-0.5 0.5s0.25 0.5 0.5 0.5h8c0.25 0 0.5-0.25 0.5-0.5s-0.25-0.5-0.5-0.5zM16.5 21h-8c-0.25 0-0.5 0.25-0.5 0.5s0.25 0.5 0.5 0.5h8c0.25 0 0.5-0.25 0.5-0.5s-0.25-0.5-0.5-0.5zM27.5 27h-8c-0.25 0-0.5 0.25-0.5 0.5s0.25 0.5 0.5 0.5h8c0.25 0 0.5-0.25 0.5-0.5s-0.25-0.5-0.5-0.5zM27.5 24h-8c-0.25 0-0.5 0.25-0.5 0.5s0.25 0.5 0.5 0.5h8c0.25 0 0.5-0.25 0.5-0.5s-0.25-0.5-0.5-0.5zM27.5 21h-8c-0.25 0-0.5 0.25-0.5 0.5s0.25 0.5 0.5 0.5h8c0.25 0 0.5-0.25 0.5-0.5s-0.25-0.5-0.5-0.5zM27.5 15h-19c-0.25 0-0.5 0.25-0.5 0.5s0.25 0.5 0.5 0.5h19c0.25 0 0.5-0.25 0.5-0.5s-0.25-0.5-0.5-0.5zM27.5 18h-19c-0.25 0-0.5 0.25-0.5 0.5s0.25 0.5 0.5 0.5h19c0.25 0 0.5-0.25 0.5-0.5s-0.25-0.5-0.5-0.5zM9 13h7c0.563 0 1-0.438 1-1v-7c0-0.563-0.438-1-1-1h-7c-0.563 0-1 0.438-1 1v7c0 0.563 0.438 1 1 1zM10 6h5v5h-5z"></path>
</svg>
