<?xml version="1.0" encoding="utf-8"?>
<!DOCTYPE svg PUBLIC "-//W3C//DTD SVG 1.1//EN" "http://www.w3.org/Graphics/SVG/1.1/DTD/svg11.dtd">
<svg version="1.1" xmlns="http://www.w3.org/2000/svg" xmlns:xlink="http://www.w3.org/1999/xlink" width="32" height="32" viewBox="0 0 32 32">
<path d="M30.875 8.938l-10.688-7.25v4h-19.188v24.563h24.563v-17.688l5.313-3.625zM21.25 3.75l7.688 5.125-7.688 5.25v-3.875h-1.875c-0.063 0-0.063 0-0.125 0-1.938 0-5.875 0.375-8.938 2.875 1.438-3.5 4.75-6.313 9.75-6.313 0 0 0.063 0 0.063 0s0 0 0.063 0h1.063v-1c0 0 0 0 0-0.063v-2zM24.438 29.25h-22.375v-22.438h12.938c-4.25 1.875-6.563 6.125-6.563 10.563 2.5-5.438 8.188-6.125 10.813-6.125 0.375 0 0.688 0 0.938 0.063v4.813l4.25-2.875z"></path>
</svg>
