<?xml version="1.0" encoding="utf-8"?>
<!DOCTYPE svg PUBLIC "-//W3C//DTD SVG 1.1//EN" "http://www.w3.org/Graphics/SVG/1.1/DTD/svg11.dtd">
<svg version="1.1" xmlns="http://www.w3.org/2000/svg" xmlns:xlink="http://www.w3.org/1999/xlink" width="32" height="32" viewBox="0 0 32 32">
<path d="M16 3.188h-8.5c-2.563 0-4.313 1.75-4.313 4.313v17.688c0 0.875 0.313 3.625 4.375 3.625h21.25v-25.625zM14.938 4.25v10.25l-2.625-2.438-2.875 2.5v-10.313h5.5zM7.5 4.25h0.875v12.563l3.938-3.313 3.688 3.375v-12.625h11.75v17.625h-20.25c-1.375 0-2.5 0.375-3.25 1.125v-15.5c0-2 1.25-3.25 3.25-3.25zM7.563 27.75c-2.438 0-3.125-1.125-3.25-2.188 0-1.625 1.188-2.625 3.188-2.625h20.25v4.813z"></path>
</svg>
