<?xml version="1.0" encoding="utf-8"?>
<!DOCTYPE svg PUBLIC "-//W3C//DTD SVG 1.1//EN" "http://www.w3.org/Graphics/SVG/1.1/DTD/svg11.dtd">
<svg version="1.1" xmlns="http://www.w3.org/2000/svg" xmlns:xlink="http://www.w3.org/1999/xlink" width="32" height="32" viewBox="0 0 32 32">
<path d="M27.75 4.188c-0.313-0.313-0.688-0.438-1.125-0.438-0.375 0-0.813 0.125-1.125 0.438l-4.688 4.688v-0.875h-17.063v20.25h20.25v-17.063h-1l4.75-4.75c0.625-0.625 0.625-1.625 0-2.25zM22.938 27.188h-18.125v-18.125h15.813l-8.375 8.375v2.313h2.25l8.438-8.438zM27 5.688l-12.938 13h-0.688v-0.813l12.875-12.938c0.188-0.125 0.313-0.125 0.375-0.125 0.125 0 0.25 0 0.375 0.125 0.188 0.125 0.188 0.313 0.188 0.375 0 0.125 0 0.25-0.188 0.375z"></path>
</svg>
