<?xml version="1.0" encoding="utf-8"?>
<!DOCTYPE svg PUBLIC "-//W3C//DTD SVG 1.1//EN" "http://www.w3.org/Graphics/SVG/1.1/DTD/svg11.dtd">
<svg version="1.1" xmlns="http://www.w3.org/2000/svg" xmlns:xlink="http://www.w3.org/1999/xlink" width="32" height="32" viewBox="0 0 32 32">
<path d="M9.813 14.188h12.563v1h-12.563zM9.813 18.375h12.563v1.063h-12.563zM9.813 22.563h8.375v1.063h-8.375zM19.188 3.688c-0.25-1.5-1.563-2.625-3.125-2.625s-2.813 1.125-3.063 2.625h-9.5v27.25h25.188v-27.25h-9.5zM14 6.063v-1.875c0-1.125 0.938-2.063 2.063-2.063 1.188 0 2.125 0.938 2.125 2.063v1.875l0.5 0.313c1.063 0.625 1.875 1.5 2.313 2.563h-9.813c0.438-1.063 1.25-1.938 2.25-2.563zM27.625 29.875h-23.063v-25.125h8.375v0.75c-1.625 0.875-2.813 2.563-3.125 4.438h12.563c-0.313-1.875-1.5-3.563-3.125-4.438v-0.75h8.375z"></path>
</svg>
