<?xml version="1.0" encoding="utf-8"?>
<!DOCTYPE svg PUBLIC "-//W3C//DTD SVG 1.1//EN" "http://www.w3.org/Graphics/SVG/1.1/DTD/svg11.dtd">
<svg version="1.1" xmlns="http://www.w3.org/2000/svg" xmlns:xlink="http://www.w3.org/1999/xlink" width="32" height="32" viewBox="0 0 32 32">
<path d="M31.438 7.563l-6-6c-0.375-0.375-0.938-0.563-1.438-0.563h-21c-1.625 0-3 1.375-3 3v24c0 1.625 1.375 3 3 3h26c1.625 0 3-1.375 3-3v-19c0-0.5-0.188-1.063-0.563-1.438zM30 28c0 0.563-0.438 1-1 1h-26c-0.563 0-1-0.438-1-1v-24c0-0.563 0.438-1 1-1h20v4c0 1.688 1.313 3 3 3h4zM27 9h-1c-1.125 0-2-0.875-2-2v0-4l6 6zM15.5 8h5c0.25 0 0.5-0.25 0.5-0.5s-0.25-0.5-0.5-0.5h-5c-0.25 0-0.5 0.25-0.5 0.5s0.25 0.5 0.5 0.5zM15.5 11h5c0.25 0 0.5-0.25 0.5-0.5s-0.25-0.5-0.5-0.5h-5c-0.25 0-0.5 0.25-0.5 0.5s0.25 0.5 0.5 0.5zM15 13.5c0 0.25 0.25 0.5 0.5 0.5h12c0.25 0 0.5-0.25 0.5-0.5s-0.25-0.5-0.5-0.5h-12c-0.25 0-0.5 0.25-0.5 0.5zM27.5 19h-23c-0.25 0-0.5 0.25-0.5 0.5s0.25 0.5 0.5 0.5h23c0.25 0 0.5-0.25 0.5-0.5s-0.25-0.5-0.5-0.5zM27.5 22h-23c-0.25 0-0.5 0.25-0.5 0.5s0.25 0.5 0.5 0.5h23c0.25 0 0.5-0.25 0.5-0.5s-0.25-0.5-0.5-0.5zM27.5 25h-23c-0.25 0-0.5 0.25-0.5 0.5s0.25 0.5 0.5 0.5h23c0.25 0 0.5-0.25 0.5-0.5s-0.25-0.5-0.5-0.5zM27.5 16h-23c-0.25 0-0.5 0.25-0.5 0.5s0.25 0.5 0.5 0.5h23c0.25 0 0.5-0.25 0.5-0.5s-0.25-0.5-0.5-0.5zM5 14h7c0.563 0 1-0.438 1-1v-6c0-0.563-0.438-1-1-1h-7c-0.563 0-1 0.438-1 1v6c0 0.563 0.438 1 1 1zM6 8h5v4h-5z"></path>
</svg>
