<?xml version="1.0" encoding="utf-8"?>
<!DOCTYPE svg PUBLIC "-//W3C//DTD SVG 1.1//EN" "http://www.w3.org/Graphics/SVG/1.1/DTD/svg11.dtd">
<svg version="1.1" xmlns="http://www.w3.org/2000/svg" xmlns:xlink="http://www.w3.org/1999/xlink" width="32" height="32" viewBox="0 0 32 32">
<path d="M26.688 20.688c-1.563-1.188-2-8.438-3.438-12.625-1.5-4.188-6.375-4.313-7.125-4.938s-1.188-1.313-1.188-1.313c0 0-0.063-0.063-0.125-0.125-0.188-0.25-1.125 0.125-1.125 0.313s0 15.75 0 18.125c0 2.313-2.75 1.375-6.063 3.75-2.5 1.813-2.938 3.938-2.188 5.313 0.625 1.188 3.5 2.125 6.75-0.375 2.875-2.188 2.688-5.125 2.688-5.938 0-1.563 0-17.875 0-17.875s0-1.313 0-2.313c0.063 0.125 0.188 0.313 0.438 0.688 1.625 2.688-0.188 5.063 1.875 10.063 2.313 5.438 11.063 8.438 9.5 7.25zM24.563 18.875c0 0-2.75-3.313-3.75-6.063-0.938-2.375-2.063-5.25-3.125-6.75-0.688-0.938-1.25-1.75-1.438-2.063-0.125-0.188 0.063-0.125 0.063-0.125s0.688 0.875 1.5 1.875c1.313 1.688 1.75 2.625 3.188 6.375 0.5 1.313 1.188 2.938 1.875 4 0.875 1.5 1.5 2.375 1.813 2.813 0.063 0.063-0.125-0.063-0.125-0.063z"></path>
</svg>
