<?xml version="1.0" encoding="utf-8"?>
<!DOCTYPE svg PUBLIC "-//W3C//DTD SVG 1.1//EN" "http://www.w3.org/Graphics/SVG/1.1/DTD/svg11.dtd">
<svg version="1.1" xmlns="http://www.w3.org/2000/svg" xmlns:xlink="http://www.w3.org/1999/xlink" width="32" height="32" viewBox="0 0 32 32">
<path d="M28 5.313v-1.625c0-1.438-1.188-2.625-2.625-2.625h-17.188c-1.438 0-2.563 1.188-2.563 2.625v1.625h-0.5c-1.188 0-2.188 1-2.188 2.188v3.688c0 1.188 1 2.188 2.188 2.188l10-0.063c0.625 0 1.125 0.5 1.125 1.125v3.688h-2.125v12.813h5.313v-12.813h-2.125v-3.688c0-1.188-0.938-2.188-2.188-2.188h-10c-0.625 0-1.125-0.5-1.125-1.063v-3.688c0-0.625 0.5-1.125 1.125-1.125h0.5v1.688c0 1.438 1.125 2.625 2.563 2.625h17.188c1.438 0 2.625-1.188 2.625-2.625v-1.688h1.063v-1.063zM18.375 29.875h-3.188v-10.688h3.188zM26.938 8.063c0 0.875-0.688 1.563-1.563 1.563h-17.188c-0.813 0-1.5-0.688-1.5-1.563v-4.375c0-0.875 0.688-1.563 1.5-1.563h17.188c0.875 0 1.563 0.688 1.563 1.563z"></path>
</svg>
