<?xml version="1.0" encoding="utf-8"?>
<!DOCTYPE svg PUBLIC "-//W3C//DTD SVG 1.1//EN" "http://www.w3.org/Graphics/SVG/1.1/DTD/svg11.dtd">
<svg version="1.1" xmlns="http://www.w3.org/2000/svg" xmlns:xlink="http://www.w3.org/1999/xlink" width="32" height="32" viewBox="0 0 32 32">
<path d="M24.375 14.813l-10.438-10.438-0.188 0.188v-0.313c0-1.75-1.438-3.188-3.188-3.188-1.813 0-3.25 1.438-3.25 3.188v6.688l-4.375 4.438c-1.25 1.188-1.25 3.188 0 4.438l6 6c0.563 0.625 1.438 0.938 2.25 0.938s1.563-0.375 2.25-0.938l7.625-7.688h6.563l-3.25-3.313zM8.375 4.25c0-1.125 1-2.125 2.188-2.125 1.125 0 2.125 1 2.125 2.125v1.375l-4.313 4.25v-5.625zM20.625 17.063l-8 8c-0.375 0.375-0.938 0.563-1.5 0.563s-1.063-0.188-1.438-0.563l-6.063-6c-0.75-0.813-0.75-2.125 0-2.938l9.063-9v6.75h1.063v-7.813l0.125-0.125 11.188 11.125zM30.188 27c-0.313-2.875-3.375-6.75-3.375-6.75s-3.188 3.938-3.438 6.813c0 0.125 0 0.25 0 0.375 0 1.938 1.563 3.5 3.5 3.5 1.875 0 3.438-1.563 3.438-3.5-0.063-0.125-0.063-0.313-0.125-0.438zM26.813 29.875c-1.375 0-2.438-1.063-2.438-2.438 0-0.063 0-0.125 0-0.25 0.188-1.563 1.438-3.688 2.375-5.125 0.938 1.375 2.188 3.563 2.375 5.063 0 0.125 0 0.25 0 0.313 0.063 1.375-1 2.438-2.313 2.438z"></path>
</svg>
