<?xml version="1.0" encoding="utf-8"?>
<!DOCTYPE svg PUBLIC "-//W3C//DTD SVG 1.1//EN" "http://www.w3.org/Graphics/SVG/1.1/DTD/svg11.dtd">
<svg version="1.1" xmlns="http://www.w3.org/2000/svg" xmlns:xlink="http://www.w3.org/1999/xlink" width="32" height="32" viewBox="0 0 32 32">
<path d="M24.563 4c-1.813-1.563-4.313-2.313-7.438-2.313h-12.313v1c3.938 0 4.438 0.688 4.438 5.563v15.625c0 4.875-0.5 5.625-4.438 5.625v1h12.625v-1c-3.938 0-4.438-0.75-4.438-5.625v-6h4.125c3.125 0 5.625-0.75 7.438-2.25 1.75-1.563 2.625-3.438 2.625-5.813s-0.875-4.25-2.625-5.813zM17.125 16.125h-4.125v-12.625h4.125c3.875 0 5.938 2.625 5.938 6.313s-2.063 6.313-5.938 6.313z"></path>
</svg>
