<?xml version="1.0" encoding="utf-8"?>
<!DOCTYPE svg PUBLIC "-//W3C//DTD SVG 1.1//EN" "http://www.w3.org/Graphics/SVG/1.1/DTD/svg11.dtd">
<svg version="1.1" xmlns="http://www.w3.org/2000/svg" xmlns:xlink="http://www.w3.org/1999/xlink" width="32" height="32" viewBox="0 0 32 32">
<path d="M4.625 5.875c1.313-1.25 3-2 4.875-2s3.563 0.75 4.875 2l14.063 14.063c1.875 1.875 1.875 4.938 0 6.813-0.938 0.875-2.125 1.375-3.375 1.375-1.313 0-2.5-0.5-3.438-1.375l-6.188-6.25-7.375-7.375c-0.5-0.5-0.813-1.188-0.813-1.875 0-0.75 0.313-1.375 0.813-1.875s1.188-0.813 1.875-0.813c0.688 0 1.375 0.313 1.875 0.813l11.875 11.875-0.75 0.688-11.875-11.875c-0.625-0.563-1.688-0.563-2.25 0-0.313 0.313-0.5 0.75-0.5 1.188s0.188 0.813 0.5 1.125l13.563 13.625c0.75 0.688 1.688 1.063 2.688 1.063s1.938-0.375 2.625-1.063c1.438-1.5 1.438-3.875 0-5.313l-14-14.063c-1.125-1.063-2.625-1.688-4.188-1.688s-3.063 0.625-4.188 1.688c-1.063 1.125-1.688 2.625-1.688 4.188s0.625 3.063 1.688 4.125l12.313 12.313-0.75 0.75-12.25-12.313c-1.313-1.313-2.063-3.063-2.063-4.875 0-1.875 0.75-3.625 2.063-4.938z"></path>
</svg>
