<?xml version="1.0" encoding="utf-8"?>
<!DOCTYPE svg PUBLIC "-//W3C//DTD SVG 1.1//EN" "http://www.w3.org/Graphics/SVG/1.1/DTD/svg11.dtd">
<svg version="1.1" xmlns="http://www.w3.org/2000/svg" xmlns:xlink="http://www.w3.org/1999/xlink" width="32" height="32" viewBox="0 0 32 32">
<path d="M31.563 0.188c-0.188-0.125-0.375-0.188-0.563-0.188s-0.375 0.063-0.563 0.188l-30 20c-0.313 0.188-0.5 0.563-0.438 0.938s0.313 0.688 0.625 0.813l7.813 3.125 3.688 6.438c0.188 0.313 0.5 0.5 0.875 0.5 0 0 0 0 0 0 0.375 0 0.688-0.188 0.875-0.5l2.063-3.438 9.688 3.875c0.125 0.063 0.25 0.063 0.375 0.063 0.188 0 0.313-0.063 0.5-0.125 0.25-0.125 0.438-0.438 0.5-0.688l5-30c0.063-0.438-0.125-0.813-0.438-1zM3.125 20.75l23.188-15.438-16.875 18.063c-0.063-0.063-0.125-0.125-0.25-0.188zM10.188 24.063c0 0 0 0 0 0l18.938-20.313-16.125 25.188zM25.188 29.625l-8.5-3.438c-0.188-0.063-0.438-0.125-0.625-0.125l13.125-20.375z"></path>
</svg>
