<?xml version="1.0" encoding="utf-8"?>
<!DOCTYPE svg PUBLIC "-//W3C//DTD SVG 1.1//EN" "http://www.w3.org/Graphics/SVG/1.1/DTD/svg11.dtd">
<svg version="1.1" xmlns="http://www.w3.org/2000/svg" xmlns:xlink="http://www.w3.org/1999/xlink" width="32" height="32" viewBox="0 0 32 32">
<path d="M8 6v-3c0-1.625-1.375-3-3-3s-3 1.375-3 3v3c-1.188 0.938-2 2.375-2 4s0.813 3.063 2 4v15c0 1.625 1.375 3 3 3s3-1.375 3-3v-15c1.188-0.938 2-2.375 2-4s-0.813-3.063-2-4zM4 3c0-0.563 0.438-1 1-1s1 0.438 1 1v2.125c-0.313-0.063-0.688-0.125-1-0.125s-0.688 0.063-1 0.125zM6 29c0 0.563-0.438 1-1 1s-1-0.438-1-1v-14.125c0.313 0.063 0.688 0.125 1 0.125s0.688-0.063 1-0.125zM7.875 10.813c0 0.063-0.063 0.125-0.063 0.188-0.063 0.25-0.188 0.5-0.375 0.75 0 0 0 0 0 0-0.188 0.25-0.375 0.438-0.625 0.625 0 0 0 0 0 0-0.25 0.188-0.5 0.313-0.813 0.438s-0.625 0.188-1 0.188c-0.375 0-0.688-0.063-1-0.188s-0.563-0.25-0.813-0.438c0 0 0 0 0 0-0.25-0.188-0.438-0.375-0.625-0.625 0 0 0 0 0 0-0.188-0.25-0.313-0.5-0.375-0.75 0-0.063-0.063-0.125-0.063-0.188-0.063-0.25-0.125-0.5-0.125-0.813s0.063-0.563 0.125-0.813c0-0.063 0.063-0.125 0.063-0.188 0.063-0.25 0.188-0.5 0.375-0.75 0 0 0 0 0 0 0.188-0.25 0.375-0.438 0.625-0.625 0 0 0 0 0 0 0.25-0.188 0.5-0.313 0.813-0.438s0.625-0.188 1-0.188c0.375 0 0.688 0.063 1 0.188s0.563 0.25 0.813 0.438c0 0 0 0 0 0 0.25 0.188 0.438 0.375 0.625 0.625 0 0 0 0 0 0 0.188 0.25 0.313 0.5 0.375 0.75 0 0.063 0.063 0.125 0.063 0.188 0.063 0.25 0.125 0.5 0.125 0.813s-0.063 0.563-0.125 0.813zM30 6v-3c0-1.625-1.375-3-3-3s-3 1.375-3 3v3c-1.188 0.938-2 2.375-2 4s0.813 3.063 2 4v15c0 1.625 1.375 3 3 3s3-1.375 3-3v-15c1.188-0.938 2-2.375 2-4s-0.813-3.063-2-4zM26 3c0-0.563 0.438-1 1-1s1 0.438 1 1v2.125c-0.313-0.063-0.688-0.125-1-0.125-0.375 0-0.688 0.063-1 0.125zM28 29c0 0.563-0.438 1-1 1s-1-0.438-1-1v-14.125c0.313 0.063 0.625 0.125 1 0.125 0.313 0 0.688-0.063 1-0.125zM29.875 10.813c0 0.063-0.063 0.125-0.063 0.188-0.063 0.25-0.188 0.5-0.375 0.75 0 0 0 0 0 0-0.188 0.25-0.375 0.438-0.625 0.625 0 0 0 0 0 0-0.25 0.188-0.5 0.313-0.813 0.438s-0.625 0.188-1 0.188c-0.375 0-0.688-0.063-1-0.188s-0.563-0.25-0.813-0.438c0 0 0 0 0 0-0.25-0.188-0.438-0.375-0.625-0.625 0 0 0 0 0 0-0.188-0.25-0.313-0.5-0.375-0.75 0-0.063-0.063-0.125-0.063-0.188-0.063-0.25-0.125-0.5-0.125-0.813s0.063-0.563 0.125-0.813c0-0.063 0.063-0.125 0.063-0.188 0.063-0.25 0.188-0.5 0.375-0.75 0 0 0 0 0 0 0.188-0.25 0.375-0.438 0.625-0.625 0 0 0 0 0 0 0.25-0.188 0.5-0.313 0.813-0.438s0.625-0.188 1-0.188c0.375 0 0.688 0.063 1 0.188s0.563 0.25 0.813 0.438c0 0 0 0 0 0 0.25 0.188 0.438 0.375 0.625 0.625 0 0 0 0 0 0 0.188 0.25 0.313 0.5 0.375 0.75 0 0.063 0.063 0.125 0.063 0.188 0.063 0.25 0.125 0.5 0.125 0.813s-0.063 0.563-0.125 0.813zM19 18v-15c0-1.625-1.375-3-3-3s-3 1.375-3 3v15c-1.188 0.938-2 2.375-2 4s0.813 3.063 2 4v3c0 1.625 1.375 3 3 3s3-1.375 3-3v-3c1.188-0.938 2-2.375 2-4s-0.813-3.063-2-4zM15 3c0-0.563 0.438-1 1-1s1 0.438 1 1v14.125c-0.313-0.063-0.688-0.125-1-0.125s-0.688 0.063-1 0.125zM17 29c0 0.563-0.438 1-1 1s-1-0.438-1-1v-2.125c0.313 0.063 0.688 0.125 1 0.125s0.688-0.063 1-0.125zM18.875 22.813c0 0.063-0.063 0.125-0.063 0.188-0.063 0.25-0.188 0.5-0.375 0.75 0 0 0 0 0 0-0.188 0.25-0.375 0.438-0.625 0.625 0 0 0 0 0 0-0.25 0.188-0.5 0.313-0.813 0.438s-0.625 0.188-1 0.188c-0.375 0-0.688-0.063-1-0.188s-0.563-0.25-0.813-0.438c0 0 0 0 0 0-0.25-0.188-0.438-0.375-0.625-0.625 0 0 0 0 0 0-0.188-0.25-0.313-0.5-0.375-0.75 0-0.063-0.063-0.125-0.063-0.188-0.063-0.25-0.125-0.5-0.125-0.813s0.063-0.563 0.125-0.813c0-0.063 0.063-0.125 0.063-0.188 0.063-0.25 0.188-0.5 0.375-0.75 0 0 0 0 0 0 0.188-0.25 0.375-0.438 0.625-0.625 0 0 0 0 0 0 0.25-0.188 0.5-0.313 0.813-0.438s0.625-0.188 1-0.188c0.375 0 0.688 0.063 1 0.188s0.563 0.25 0.813 0.438c0 0 0 0 0 0 0.25 0.188 0.438 0.375 0.625 0.625 0 0 0 0 0 0 0.188 0.25 0.313 0.5 0.375 0.75 0 0.063 0.063 0.125 0.063 0.188 0.063 0.25 0.125 0.5 0.125 0.813s-0.063 0.563-0.125 0.813z"></path>
</svg>
