<?xml version="1.0" encoding="utf-8"?>
<!DOCTYPE svg PUBLIC "-//W3C//DTD SVG 1.1//EN" "http://www.w3.org/Graphics/SVG/1.1/DTD/svg11.dtd">
<svg version="1.1" xmlns="http://www.w3.org/2000/svg" xmlns:xlink="http://www.w3.org/1999/xlink" width="32" height="32" viewBox="0 0 32 32">
<path d="M8.75 2.938c-3.688 1.5-6.25 4.313-6.938 8.125-0.438 2.375-0.25 4.875 0.75 7.063 0.25 0.5 0.563 1 0.875 1.438 0.125 0.188 0.313 0.375 0.5 0.563 0.313-0.125 0.625-0.25 0.938-0.438 1.25-0.688 2.188-1.813 3.25-2.688-3.563-4.188 0.25-9.313 5-10.438 4.375-1.063 10.375 0.75 11.75 5.313 0.563 1.875 0.188 3.938-1.375 5.313-0.813 0.75-1.813 1.188-2.875 1.375-0.625 0.125-1.313 0.125-1.938 0.063-0.313 0-0.688-0.063-1.063-0.125-0.563-0.188-1.063-0.125-1.063-0.813 0-1.625 0-3.313 0-4.938 0-0.813 0-1.688 0-2.5 0-0.5 0-0.438-0.375-0.438-0.375-0.063-0.688-0.125-1-0.125-1.188-0.063-2.438-0.125-3.563 0.063-0.438 0.063-0.5 0-0.5 0.438 0 0.375 0 0.813 0 1.188 0 0.938 0 1.813 0 2.75 0 2.813 0.188 5.625 0.125 8.375-0.063 0.813-0.063 2.813-1 3.25-1.063 0.438-2-0.563-3-0.75 0.125 1.375-0.75 4.125 0.875 4.875 1.5 0.625 3.188 0.875 4.75 0.313 3.313-1.125 4.375-4.75 3.938-7.75 5.125 1.5 10.563-1.063 12.75-5.625 1.563-3.25 0.875-7.313-1.438-10.063-4.375-5.25-13.188-6.25-19.375-3.813z"></path>
</svg>
