<?xml version="1.0" encoding="utf-8"?>
<!DOCTYPE svg PUBLIC "-//W3C//DTD SVG 1.1//EN" "http://www.w3.org/Graphics/SVG/1.1/DTD/svg11.dtd">
<svg version="1.1" xmlns="http://www.w3.org/2000/svg" xmlns:xlink="http://www.w3.org/1999/xlink" width="32" height="32" viewBox="0 0 32 32">
<path d="M20.188 1.625h-12.625l-5.563 25.625h7.375l1.813-8.5h5.313c5.063 0 9.25-3.125 10.375-8.438 1.313-6-3-8.688-6.688-8.688zM14.688 13.813h-2.438l1.563-7h3.625c1.25 0 2.188 0.75 2.5 1.813-0.125 0-0.313-0.063-0.438-0.063h-3.625zM19.938 10.313c-0.438 1.938-2.25 3.438-4.063 3.5l0.875-3.813h3.25c0 0.125 0 0.188-0.063 0.313zM28.938 12.063c0.375-1.938 0.188-3.563-0.375-4.875 1.188 1.438 1.813 3.5 1.25 6.313-1.188 5.313-5.375 8.375-10.438 8.375h-5.313l-1.813 8.5h-7.375l0.313-1.375h6.188l1.813-8.5h5.313c5.063 0 9.25-3.125 10.438-8.438z"></path>
</svg>
