<?xml version="1.0" encoding="utf-8"?>
<!DOCTYPE svg PUBLIC "-//W3C//DTD SVG 1.1//EN" "http://www.w3.org/Graphics/SVG/1.1/DTD/svg11.dtd">
<svg version="1.1" xmlns="http://www.w3.org/2000/svg" xmlns:xlink="http://www.w3.org/1999/xlink" width="32" height="32" viewBox="0 0 32 32">
<path d="M29.375 2.563c-1.625-1.625-3.813-2.563-5.938-2.563-1.813 0-3.438 0.688-4.688 1.875l-4.813 4.875c-0.063 0.063-0.063 0.063-0.063 0.063s0 0 0 0.063v0l-10.375 10.375c-0.438 0.5-0.813 1.063-1 1.688l-2.375 8.563c0 0-0.125 0.688-0.125 1 0 1.938 1.563 3.5 3.5 3.5 0.375 0 1.125-0.188 1.188-0.188l8.438-2.25c0.688-0.188 1.25-0.5 1.75-1l15.25-15.375c2.75-2.813 2.438-7.438-0.75-10.625zM16 23.813c-0.063-0.938-0.313-1.813-0.688-2.625l9.438-9.5c0.563 1.875 0.25 3.75-1 5 0 0.063 0 0.063 0 0.063v0l-7.75 7.813c0-0.25 0.063-0.5 0-0.75zM14.813 20.25c-0.375-0.625-0.813-1.188-1.313-1.75-0.625-0.563-1.313-1.063-2.063-1.438l9.5-9.563c0.75 0.313 1.5 0.813 2.125 1.438 0.563 0.563 0.938 1.125 1.25 1.75zM10.5 16.563c-0.938-0.375-1.938-0.563-2.875-0.625l7.688-7.75c1.188-1.125 2.875-1.438 4.625-1.063zM4.188 29.875c-0.125 0-0.438 0.125-0.688 0.125-0.813 0-1.5-0.688-1.5-1.5 0-0.188 0.063-0.438 0.125-0.563l1-3.813c1.188-0.063 2.375 0.438 3.375 1.375 1 1 1.438 2.25 1.375 3.375zM8.875 28.625c0-1.313-0.563-2.75-1.688-3.813-1-1.063-2.375-1.688-3.75-1.688l1-3.625c0.063-0.25 0.188-0.5 0.375-0.688 2-1.438 5.125-1 7.25 1.125 2.25 2.25 2.625 5.563 0.875 7.563-0.125 0.063-0.25 0.125-0.375 0.188zM28.688 11.75l-1.688 1.75c0-0.25 0.063-0.5 0-0.688-0.188-1.938-1.063-3.813-2.5-5.313-1.688-1.625-3.813-2.563-5.938-2.563l1.625-1.625c0.813-0.875 2-1.313 3.25-1.313 1.625 0 3.25 0.75 4.563 2 1.188 1.188 1.875 2.688 2 4.188 0.063 1.375-0.375 2.625-1.313 3.563z"></path>
</svg>
