<?xml version="1.0" encoding="utf-8"?>
<!DOCTYPE svg PUBLIC "-//W3C//DTD SVG 1.1//EN" "http://www.w3.org/Graphics/SVG/1.1/DTD/svg11.dtd">
<svg version="1.1" xmlns="http://www.w3.org/2000/svg" xmlns:xlink="http://www.w3.org/1999/xlink" width="32" height="32" viewBox="0 0 32 32">
<path d="M30.75 5.813l-4.25-4.25-1 1-1.5-1.438c-0.188-0.188-0.5-0.188-0.75 0l-8.625 8.625c-0.188 0.25-0.188 0.563 0 0.75 0.125 0.125 0.25 0.188 0.375 0.188s0.313-0.063 0.375-0.188l8.25-8.25 1.125 1.125-18.313 18.313 1.188 1.188c-0.5-0.25-1.063-0.375-1.625-0.375-0.938 0-1.938 0.375-2.625 1.125-0.125 0.063-0.188 0.125-0.25 0.25 0 0-0.063 0.063-0.063 0.063-0.063 0.063-0.125 0.125-0.125 0.188-0.063 0-0.063 0.063-0.063 0.125-1.563 2.313-1.625 6.75-1.625 6.75s0.125 0 0.438 0c1.25 0 5-0.188 6.938-2.125 1.188-1.125 1.375-2.875 0.688-4.25l1.375 1.313 20.063-20.125zM7.875 28.125c-1.188 1.188-3.25 1.625-4.75 1.75l2.438-2.438-0.75-0.75-2.375 2.313c0.188-1.375 0.563-3.125 1.313-4.188v-0.063h0.063c0-0.063 0-0.063 0.063-0.125 0-0.063 0.063-0.063 0.063-0.125 0.063-0.063 0.125-0.063 0.188-0.125 0.5-0.5 1.125-0.813 1.875-0.813 0.688 0 1.375 0.313 1.875 0.813 1.063 1 1.063 2.75 0 3.75zM29.25 5.813l-6.313 6.313-2.75-2.75 6.313-6.313zM19.438 10.125l2.75 2.75-11.5 11.563-2.75-2.75z"></path>
</svg>
