<?xml version="1.0" encoding="utf-8"?>
<!DOCTYPE svg PUBLIC "-//W3C//DTD SVG 1.1//EN" "http://www.w3.org/Graphics/SVG/1.1/DTD/svg11.dtd">
<svg version="1.1" xmlns="http://www.w3.org/2000/svg" xmlns:xlink="http://www.w3.org/1999/xlink" width="32" height="32" viewBox="0 0 32 32">
<path d="M19.5 6.625h-0.063v-2.75c0-1.063-0.313-2-1-2.75-0.625-0.688-1.5-1.125-2.438-1.125-1.938 0-3.5 1.75-3.5 3.875v2.813h0.063v19.063l3.313 6.25 3.563-6.188v-19.188zM14.063 26.688l0.625-0.625 0.625 0.563 0.625 0.688 0.625-0.625v-0.063h0.063l0.563-0.563 0.688 0.688-0.813 1.375h-2.25zM17.188 24.813l-1.25 1.25-1.25-1.25-1.063 1.125-0.188-0.438v-15.375h5.188v15.438l-0.313 0.438zM18.625 9.25h-5.188v-0.813h5.188zM16 0.875c0.688 0 1.313 0.313 1.813 0.875s0.75 1.313 0.75 2.125v1.938h-5.125v-0.125h-0.063v-1.813c0-1.688 1.188-3 2.625-3zM18.625 6.688v0.875h-5.188v-0.875zM15.25 29h1.313l-0.688 1.188z"></path>
</svg>
