<?xml version="1.0" encoding="utf-8"?>
<!DOCTYPE svg PUBLIC "-//W3C//DTD SVG 1.1//EN" "http://www.w3.org/Graphics/SVG/1.1/DTD/svg11.dtd">
<svg version="1.1" xmlns="http://www.w3.org/2000/svg" xmlns:xlink="http://www.w3.org/1999/xlink" width="32" height="32" viewBox="0 0 32 32">
<path d="M30.938 16.875h-29.875c-0.563 0-1.063 0.5-1.063 1.063v4.125c0 0.625 0.5 1.063 1.063 1.063h29.875c0.563 0 1.063-0.438 1.063-1.063v-4.125c0-0.563-0.5-1.063-1.063-1.063zM31.313 22.063c0 0.25-0.188 0.375-0.375 0.375h-29.875c-0.188 0-0.375-0.125-0.375-0.375v-4.125c0-0.188 0.188-0.313 0.375-0.313h0.813v1.125h0.688v-1.125h0.625v1.125h0.75v-1.125h0.625v2.188h0.75v-2.188h0.625v1.188h0.688v-1.188h0.688v1.188h0.688v-1.188h0.625v2.25h0.688v-2.25h0.625v1.188h0.688v-1.188h0.563v1.188h0.75v-1.188h0.563v2.188h0.688v-2.188h0.688v1.125h0.75v-1.125h0.625v1.125h0.688v-1.125h0.688v2.188h0.75v-2.188h0.625v1.125h0.688v-1.125h0.625v1.125h0.75v-1.125h0.625v2.188h0.75v-2.188h0.625v1.188h0.688v-1.188h0.625v1.125h0.688v-1.125h0.75v2.188h0.75v-2.188h0.75v1.188h0.688v-1.188h0.625v1.188h0.75v-1.188h0.75v2.188h0.688v-2.188h1.125c0.188 0 0.375 0.125 0.375 0.313v4.125zM7.188 14.438v0h17.688c0.813 0 1.625-0.25 2.188-0.813 0.563-0.5 0.938-1.25 0.938-2 0-1.5-1.438-2.75-3.125-2.75h-17.688l-5 2.688zM19.813 13.75h-12.438l-0.375-0.188 0.938-0.938-0.875-0.938-0.125-0.063 1-1-0.875-0.875 0.313-0.188h12.438zM20.563 9.563h0.625v4.188h-0.625zM6.938 10.625l-0.438 0.438-0.563 0.5 0.5 0.563h0.063v0.063l0.438 0.438-0.563 0.563-1.063-0.625v-1.875l1.125-0.625zM4.563 12.125l-0.938-0.563 0.938-0.5zM27.25 11.625c0 0.563-0.188 1.125-0.688 1.5-0.438 0.375-1.063 0.625-1.688 0.625h-1.563v-4.188h1.563c1.313 0 2.375 0.938 2.375 2.063zM22.563 13.75h-0.688v-4.188h0.688z"></path>
</svg>
