<?xml version="1.0" encoding="utf-8"?>
<!DOCTYPE svg PUBLIC "-//W3C//DTD SVG 1.1//EN" "http://www.w3.org/Graphics/SVG/1.1/DTD/svg11.dtd">
<svg version="1.1" xmlns="http://www.w3.org/2000/svg" xmlns:xlink="http://www.w3.org/1999/xlink" width="32" height="32" viewBox="0 0 32 32">
<path d="M22.188 14.75l9.188-9.188-4.938-4.938-9.188 9.25-9.875-9.875-7.375 7.375 9.875 9.875-8.625 8.625v4.875h4.875l8.625-8.625 9.875 9.875 7.375-7.375zM29.688 5.563l-3 2.938-3.188-3.188 2.938-3zM1.75 7.375l5.625-5.625 1.75 1.688-2.25 2.25 0.875 0.813 2.25-2.188 1.563 1.563-2.188 2.25 0.813 0.875 2.25-2.25 1.563 1.625-2.188 2.188 0.875 0.875 2.188-2.188 1.375 1.313-5.688 5.688zM5.688 29.563h-3.25v-3.25l20.188-20.063 3.25 3.25zM15.625 21.313l5.688-5.688 1.313 1.375-2.188 2.188 0.875 0.875 2.188-2.25 1.625 1.625-2.25 2.25 0.875 0.813 2.25-2.188 1.563 1.563-2.188 2.25 0.813 0.875 2.25-2.25 1.75 1.75-5.563 5.75z"></path>
</svg>
