<?xml version="1.0" encoding="utf-8"?>
<!DOCTYPE svg PUBLIC "-//W3C//DTD SVG 1.1//EN" "http://www.w3.org/Graphics/SVG/1.1/DTD/svg11.dtd">
<svg version="1.1" xmlns="http://www.w3.org/2000/svg" xmlns:xlink="http://www.w3.org/1999/xlink" width="32" height="32" viewBox="0 0 32 32">
<path d="M23.063 1.625h-14.125c-0.813 0-1.438 0.625-1.438 1.438v25.875c0 0.813 0.625 1.438 1.438 1.438h14.125c0.813 0 1.438-0.625 1.438-1.438v-25.875c0-0.813-0.625-1.438-1.438-1.438zM23.438 28.938c0 0.25-0.125 0.375-0.375 0.375h-14.125c-0.25 0-0.375-0.125-0.375-0.375v-4.938h14.875v4.938zM23.438 22.938h-14.875v-17.063h14.875zM23.438 4.813h-14.875v-1.75c0-0.25 0.125-0.375 0.375-0.375h14.125c0.25 0 0.375 0.125 0.375 0.375v1.75zM14.375 26.125h3.25v1.063h-3.25z"></path>
</svg>
