<?xml version="1.0" encoding="utf-8"?>
<!DOCTYPE svg PUBLIC "-//W3C//DTD SVG 1.1//EN" "http://www.w3.org/Graphics/SVG/1.1/DTD/svg11.dtd">
<svg version="1.1" xmlns="http://www.w3.org/2000/svg" xmlns:xlink="http://www.w3.org/1999/xlink" width="32" height="32" viewBox="0 0 32 32">
<path d="M24 0h-16c-1.688 0-3 1.313-3 3v26c0 1.688 1.313 3 3 3h16c1.625 0 3-1.375 3-3v-26c0-1.688-1.375-3-3-3zM25 29c0 0.563-0.438 1-1 1h-16c-0.563 0-1-0.438-1-1v-2h18zM25 26h-18v-20h18zM25 5h-18v-2c0-0.563 0.438-1 1-1h16c0.563 0 1 0.438 1 1zM18 3.5c0 0.25-0.25 0.5-0.5 0.5h-3c-0.25 0-0.5-0.25-0.5-0.5s0.25-0.5 0.5-0.5h3c0.25 0 0.5 0.25 0.5 0.5zM17 28.5c0 0.25-0.25 0.5-0.5 0.5h-1c-0.25 0-0.5-0.25-0.5-0.5s0.25-0.5 0.5-0.5h1c0.25 0 0.5 0.25 0.5 0.5z"></path>
</svg>
