<?xml version="1.0" encoding="utf-8"?>
<!DOCTYPE svg PUBLIC "-//W3C//DTD SVG 1.1//EN" "http://www.w3.org/Graphics/SVG/1.1/DTD/svg11.dtd">
<svg version="1.1" xmlns="http://www.w3.org/2000/svg" xmlns:xlink="http://www.w3.org/1999/xlink" width="32" height="32" viewBox="0 0 32 32">
<path d="M29.063 6.875h-8c-1.5-0.813-3.25-1.25-5.063-1.25s-3.563 0.438-5.063 1.25h-2.813c0-0.688-0.563-1.25-1.313-1.25h-2.625c-0.688 0-1.25 0.563-1.25 1.25-0.75 0-1.313 0.625-1.313 1.313v15.625c0 0.688 0.563 1.313 1.313 1.313h8c1.5 0.813 3.25 1.25 5.063 1.25s3.563-0.438 5.063-1.25h8c0.75 0 1.313-0.625 1.313-1.313v-15.625c0-0.688-0.563-1.313-1.313-1.313zM2.938 23.813v-15.625h6.125c-2.125 1.938-3.563 4.688-3.563 7.813s1.438 5.875 3.563 7.813zM20.688 23.813c-0.688 0.375-1.375 0.688-2.188 0.938 0 0-0.063 0-0.125 0-0.313 0.125-0.625 0.188-0.938 0.25-0.125 0-0.188 0-0.313 0-0.375 0.063-0.75 0.125-1.125 0.125s-0.75-0.063-1.125-0.125c-0.125 0-0.188 0-0.313 0-0.313-0.063-0.625-0.125-0.938-0.25-0.063 0-0.125 0-0.125 0-0.813-0.25-1.5-0.563-2.188-0.938-2.688-1.625-4.5-4.5-4.5-7.813s1.813-6.188 4.5-7.813c0.688-0.375 1.375-0.688 2.188-0.938 0 0 0.063 0 0.125 0 0.313-0.125 0.625-0.188 0.938-0.25 0.125 0 0.188 0 0.313 0 0.375-0.063 0.75-0.125 1.125-0.125s0.75 0.063 1.125 0.125c0.125 0 0.188 0 0.313 0 0.313 0.063 0.625 0.125 0.938 0.25 0.063 0 0.125 0 0.125 0 0.813 0.25 1.5 0.563 2.188 0.938 2.688 1.625 4.5 4.5 4.5 7.813s-1.813 6.188-4.5 7.813zM29.063 23.813h-6.125c2.125-1.938 3.563-4.688 3.563-7.813s-1.438-5.875-3.563-7.813h6.125v15.625zM23.188 16h-1.125c0-3.313-2.688-6.063-6.063-6.063v-1.063c4 0 7.188 3.188 7.188 7.125z"></path>
</svg>
