<?xml version="1.0" encoding="utf-8"?>
<!DOCTYPE svg PUBLIC "-//W3C//DTD SVG 1.1//EN" "http://www.w3.org/Graphics/SVG/1.1/DTD/svg11.dtd">
<svg version="1.1" xmlns="http://www.w3.org/2000/svg" xmlns:xlink="http://www.w3.org/1999/xlink" width="32" height="32" viewBox="0 0 32 32">
<path d="M2.5 3.188v25.625h26.688v-25.625zM3.563 19.313l7.5-7.875 7.375 7.438 3.75-3.188 5.563 5.625h-24.188v-2zM28.125 27.75h-24.563v-5.375h24.563zM28.125 20.188l-5.813-6-3.75 3.188-7.5-7.438-7.5 7.813v-13.5h24.563zM22.25 11.75c1.5 0 2.625-1.188 2.625-2.688s-1.125-2.688-2.625-2.688c-1.5 0-2.688 1.188-2.688 2.688s1.188 2.688 2.688 2.688zM22.25 7.438c0.875 0 1.563 0.75 1.563 1.625 0 0.938-0.688 1.625-1.563 1.625-0.938 0-1.625-0.688-1.625-1.625 0-0.875 0.688-1.625 1.625-1.625z"></path>
</svg>
