<?xml version="1.0" encoding="utf-8"?>
<!DOCTYPE svg PUBLIC "-//W3C//DTD SVG 1.1//EN" "http://www.w3.org/Graphics/SVG/1.1/DTD/svg11.dtd">
<svg version="1.1" xmlns="http://www.w3.org/2000/svg" xmlns:xlink="http://www.w3.org/1999/xlink" width="32" height="32" viewBox="0 0 32 32">
<path d="M27 0h-22c-2.188 0-4 1.813-4 4v24c0 2.188 1.813 4 4 4h22c2.188 0 4-1.813 4-4v-24c0-2.188-1.813-4-4-4zM29 28c0 1.125-0.875 2-2 2h-22c-1.125 0-2-0.875-2-2v-24c0-1.125 0.875-2 2-2h22c1.125 0 2 0.875 2 2zM26 4h-20c-0.563 0-1 0.438-1 1v18c0 0.563 0.438 1 1 1h20c0.563 0 1-0.438 1-1v-18c0-0.563-0.438-1-1-1zM26 5v13.875l-3.25-3.563c-0.188-0.188-0.438-0.313-0.75-0.313s-0.563 0.125-0.75 0.313l-2.625 3-7.875-9c-0.188-0.188-0.438-0.313-0.75-0.313s-0.563 0.125-0.75 0.313l-3.25 3.75v-8.063zM6 14.625l4-4.625 8.063 9.125 0.563 0.688 2.813 3.188h-15.438zM22.75 23l-3.438-3.938 2.688-3.063 4 4.375v2.625zM20 13c1.625 0 3-1.313 3-3s-1.375-3-3-3c-1.688 0-3 1.313-3 3s1.313 3 3 3zM20 8c1.125 0 2 0.875 2 2s-0.875 2-2 2c-1.125 0-2-0.875-2-2s0.875-2 2-2z"></path>
</svg>
