<?xml version="1.0" encoding="utf-8"?>
<!DOCTYPE svg PUBLIC "-//W3C//DTD SVG 1.1//EN" "http://www.w3.org/Graphics/SVG/1.1/DTD/svg11.dtd">
<svg version="1.1" xmlns="http://www.w3.org/2000/svg" xmlns:xlink="http://www.w3.org/1999/xlink" width="32" height="32" viewBox="0 0 32 32">
<path d="M10.125 22.313c0.313 0 18.313 0 18.813 0-2.188 4.563-6.625 7.625-11.625 8.063h-2.625c-1.563-0.125-3.125-0.5-4.563-1.188 0-0.188 0-6.563 0-6.875zM21.938 2.875c-1.875-0.813-3.875-1.25-5.938-1.25-1.688 0-3.375 0.313-5 0.938 0.375 0.313 10.438 9.5 10.938 9.938 0-0.625 0-9.375 0-9.625zM9.438 3.188c-4.813 2.5-7.813 7.375-7.813 12.813 0 1.25 0.188 2.5 0.5 3.75 0.375-0.313 12.5-11.375 12.75-11.563-0.25-0.25-5.25-4.813-5.438-5zM8.563 28.375c0-0.563 0-11.75 0-12.438-0.438 0.438-5.75 5.25-5.938 5.438 1.188 2.875 3.25 5.375 5.938 7zM23.438 3.75c0 0.563 0 16.75 0 17 0.313 0 5.938 0 6.125 0 0.563-1.5 0.813-3.125 0.813-4.75 0-5-2.625-9.688-6.938-12.25z"></path>
</svg>
