<?xml version="1.0" encoding="utf-8"?>
<!DOCTYPE svg PUBLIC "-//W3C//DTD SVG 1.1//EN" "http://www.w3.org/Graphics/SVG/1.1/DTD/svg11.dtd">
<svg version="1.1" xmlns="http://www.w3.org/2000/svg" xmlns:xlink="http://www.w3.org/1999/xlink" width="32" height="32" viewBox="0 0 32 32">
<path d="M23.313 0h-22.625v32h30.625v-24zM29.438 8h-6.125v-6.125zM8.125 30.688l11.188-12.438 10.688 10.688v1.75zM30 27.063l-10.688-10.688-12.938 14.313h-4.375v-29.375h20v8h8zM9.313 8c-2.25 0-4 1.75-4 4s1.75 4 4 4c2.25 0 4-1.75 4-4s-1.688-4-4-4zM9.313 14.688c-1.438 0-2.625-1.25-2.625-2.688s1.188-2.688 2.625-2.688c1.5 0 2.688 1.25 2.688 2.688s-1.188 2.688-2.688 2.688z"></path>
</svg>
