<?xml version="1.0" encoding="utf-8"?>
<!DOCTYPE svg PUBLIC "-//W3C//DTD SVG 1.1//EN" "http://www.w3.org/Graphics/SVG/1.1/DTD/svg11.dtd">
<svg version="1.1" xmlns="http://www.w3.org/2000/svg" xmlns:xlink="http://www.w3.org/1999/xlink" width="32" height="32" viewBox="0 0 32 32">
<path d="M24.813 9.625l0.063-0.063-7.063-5.125c0.063-0.125 0.063-0.188 0.063-0.313 0-0.875-0.688-1.563-1.563-1.563-0.813 0-1.5 0.688-1.5 1.563 0 0.188 0.063 0.375 0.125 0.563l-7.125 4.938h-7.813v19.813h32v-19.813zM16.313 3.563c0.313 0 0.563 0.25 0.563 0.563 0 0.25-0.25 0.5-0.563 0.5-0.25 0-0.5-0.25-0.5-0.5 0-0.313 0.25-0.563 0.5-0.563zM15.625 5.438c0.188 0.125 0.438 0.188 0.688 0.188 0.375 0 0.688-0.125 0.938-0.313l5.938 4.313h-13.563zM31 28.438h-30v-17.813h30zM30.063 11.5h-28.188v15.938h28.188zM29 12.5v7.25h-7.125v-3.75h-7.375v3.5h-5.25v-5h-4.313v4.5h-2.063v-6.5zM2.875 26.438v-6.438h3.063v-4.5h2.313v5.063h7.313v-3.563h5.313v3.813h8.125v5.625z"></path>
</svg>
