<?xml version="1.0" encoding="utf-8"?>
<!DOCTYPE svg PUBLIC "-//W3C//DTD SVG 1.1//EN" "http://www.w3.org/Graphics/SVG/1.1/DTD/svg11.dtd">
<svg version="1.1" xmlns="http://www.w3.org/2000/svg" xmlns:xlink="http://www.w3.org/1999/xlink" width="32" height="32" viewBox="0 0 32 32">
<path d="M30.688 7.313v23.375h-23.375v1.313h24.688v-24.688zM29.313 3.313h-1.313v24.688h-24.688v1.313h26zM26.688 21.313v-21.313h-26.688v26.688h26.688zM1.313 1.313h24v18.688h-2.188l-3.813-10.25c-0.125-0.188-0.313-0.375-0.563-0.438-0.25 0-0.5 0.125-0.625 0.313l-4.875 7.25-2.75-3.313c-0.125-0.125-0.313-0.25-0.563-0.25-0.188 0.063-0.375 0.188-0.5 0.375l-3.813 6.313h-4.313zM21.688 20h-14.5l2.875-4.875 2.75 3.313c0.125 0.125 0.375 0.25 0.563 0.25 0.188-0.063 0.375-0.125 0.5-0.313l4.625-6.938zM1.313 25.313v-4h24v4zM8 9.313c1.5 0 2.688-1.188 2.688-2.625 0-1.5-1.188-2.688-2.688-2.688s-2.688 1.188-2.688 2.688c0 1.438 1.188 2.625 2.688 2.625zM8 5.313c0.75 0 1.313 0.625 1.313 1.375 0 0.688-0.563 1.313-1.313 1.313s-1.313-0.625-1.313-1.313c0-0.75 0.563-1.375 1.313-1.375z"></path>
</svg>
