<?xml version="1.0" encoding="utf-8"?>
<!DOCTYPE svg PUBLIC "-//W3C//DTD SVG 1.1//EN" "http://www.w3.org/Graphics/SVG/1.1/DTD/svg11.dtd">
<svg version="1.1" xmlns="http://www.w3.org/2000/svg" xmlns:xlink="http://www.w3.org/1999/xlink" width="32" height="32" viewBox="0 0 32 32">
<path d="M28.813 14.938h-0.625c-0.813-2.063-2.375-3.875-4.5-5.125 0-2.813 0.25-3.438 0.813-5.25-2.188 0.313-4.375 1.625-5.5 3.563-0.75-0.188-1.438-0.25-2.188-0.313 0.063-0.375 0.188-0.875 0.188-1.438 0-2.625-2.125-4.75-4.813-4.75-2.625 0-4.813 2.125-4.813 4.75 0 1.375 0.563 2.5 1.438 3.438-2.063 1.25-3.625 2.938-4.5 4.938-1.438-0.5-2.25-1.313-2.25-2.313 0-1.125 0.938-2.125 1.688-2.438l-0.313-1c-1.313 0.375-2.438 1.875-2.438 3.313 0 0.875 0.375 2.438 2.938 3.438-0.188 0.688-0.25 1.375-0.25 2.125 0 2.688 1.313 5.125 3.438 6.938l-0.625 1.875c-0.438 1.25 0.188 2.563 1.5 3l1.5 0.563c0.25 0.125 0.5 0.125 0.75 0.125 1.063 0 1.938-0.625 2.313-1.563l0.438-1.25c1.063 0.25 2.125 0.375 3.313 0.375 0.75 0 1.5-0.063 2.188-0.125l0.625 1.313c0.438 0.875 1.313 1.313 2.188 1.313 0.375 0 0.688-0.063 1.063-0.25l1.375-0.688c1.188-0.625 1.75-2.063 1.125-3.188l-0.375-0.813c1.438-1 2.563-2.188 3.375-3.625h1.063c1.438 0 2.625-1.188 2.625-2.625v-1.688c-0.188-1.438-1.313-2.625-2.75-2.625zM8.438 6.375c0-2.063 1.688-3.688 3.75-3.688s3.75 1.625 3.75 3.688c0 0.563-0.125 1.063-0.313 1.5-2.125 0.063-4.125 0.625-5.813 1.375-0.813-0.688-1.375-1.688-1.375-2.875zM30.313 19.25c0 0.875-0.688 1.563-1.5 1.563h-1.75l-0.313 0.5c-0.688 1.25-1.688 2.375-3 3.25l-0.75 0.563 0.438 0.813 0.375 0.813c0.313 0.625 0.063 1.438-0.625 1.813l-1.375 0.625c-0.188 0.063-0.375 0.125-0.625 0.125-0.5 0-0.938-0.25-1.188-0.75l-0.625-1.313-0.375-0.688-0.75 0.125c-0.75 0.063-1.438 0.125-2.063 0.125-1 0-2.063-0.063-3.063-0.313l-0.938-0.188-0.25 0.875-0.438 1.25c-0.188 0.5-0.688 0.875-1.25 0.875-0.188 0-0.375 0-0.438-0.063l-1.5-0.5c-0.688-0.25-1.063-1-0.813-1.688l0.625-1.938 0.313-0.688-0.625-0.5c-2-1.625-3.063-3.75-3.063-6.063 0-4.938 5.125-8.938 11.438-8.938 0.875 0 1.75 0.063 2.625 0.188l0.75 0.125 0.375-0.625c0.625-1.125 1.75-2 3-2.563-0.25 0.938-0.313 1.938-0.375 3.75v0.563l0.5 0.375c1.938 1.125 3.438 2.75 4.125 4.563l0.25 0.688h1.375c0.813 0 1.5 0.688 1.5 1.563v1.688zM24.438 15.75c0 0.75-0.563 1.313-1.313 1.313s-1.313-0.563-1.313-1.313c0-0.75 0.563-1.375 1.313-1.375s1.313 0.625 1.313 1.375z"></path>
</svg>
