<?xml version="1.0" encoding="utf-8"?>
<!DOCTYPE svg PUBLIC "-//W3C//DTD SVG 1.1//EN" "http://www.w3.org/Graphics/SVG/1.1/DTD/svg11.dtd">
<svg version="1.1" xmlns="http://www.w3.org/2000/svg" xmlns:xlink="http://www.w3.org/1999/xlink" width="32" height="32" viewBox="0 0 32 32">
<path d="M8.375 11.063c0 0.563-0.438 1-1 1-0.5 0-0.938-0.438-0.938-1 0-0.5 0.438-0.938 0.938-0.938 0.563 0 1 0.438 1 0.938zM11.438 11.063c0 0.563-0.438 1-1 1-0.5 0-0.938-0.438-0.938-1 0-0.5 0.438-0.938 0.938-0.938 0.563 0 1 0.438 1 0.938zM14.75 3.688h4.938v1.25h-4.938zM17.25 1.25c-3.688 0-7.125 1.313-9.75 3.688h-3.813v5.188c-0.25 0.688-0.625 1.438-0.75 2.188h-2.938v7.375h2.938c0.875 3.438 3 6.25 5.688 8.25v2.813h7.375v-1.188h2.438v1.188h7.375v-2.813c3.688-2.688 6.188-7 6.188-11.938 0-8.125-6.625-14.75-14.75-14.75zM25.125 26.938l-0.5 0.375v2.25h-4.938v-1.25h-4.938v1.25h-4.875v-2.25l-0.5-0.375c-2.625-1.813-4.438-4.563-5.188-7.625l-0.25-0.875h-2.688v-4.875h2.688l0.25-1c0.125-0.625 0.375-1.375 0.75-2v-4.375h3.063l0.375-0.375c2.438-2.125 5.563-3.313 8.875-3.313 7.5 0 13.5 6 13.5 13.5 0 4.313-2.063 8.5-5.625 10.938z"></path>
</svg>
