<?xml version="1.0" encoding="utf-8"?>
<!DOCTYPE svg PUBLIC "-//W3C//DTD SVG 1.1//EN" "http://www.w3.org/Graphics/SVG/1.1/DTD/svg11.dtd">
<svg version="1.1" xmlns="http://www.w3.org/2000/svg" xmlns:xlink="http://www.w3.org/1999/xlink" width="32" height="32" viewBox="0 0 32 32">
<path d="M24.188 3.438c-2.188-2.188-5.063-3.438-8.188-3.438s-6 1.25-8.188 3.438c-2.188 2.188-3.438 5.063-3.438 8.188s1.25 6.063 3.5 8.25l8.125 8.125 8.125-8.125c2.25-2.188 3.5-5.125 3.5-8.25s-1.25-6-3.438-8.188zM23.438 18.75l-7.438 7.5-7.25-7.25c-2-1.938-3.063-4.563-3.063-7.375 0-5.688 4.625-10.313 10.313-10.313s10.313 4.625 10.313 10.313c0 2.688-1 5.188-2.875 7.125zM8.25 30.688h15.5v1.313h-15.5z"></path>
</svg>
