<?xml version="1.0" encoding="utf-8"?>
<!DOCTYPE svg PUBLIC "-//W3C//DTD SVG 1.1//EN" "http://www.w3.org/Graphics/SVG/1.1/DTD/svg11.dtd">
<svg version="1.1" xmlns="http://www.w3.org/2000/svg" xmlns:xlink="http://www.w3.org/1999/xlink" width="32" height="32" viewBox="0 0 32 32">
<path d="M2.5 10.313l0.5 0.313c0.125 0.063 0.938 0.625 2.625 0.625 0.25 0 0.563 0 0.813 0 3.75 4.313 6.438 7.438 7.063 8.25-1.25 2.75-1.438 5.813-0.563 8.688l0.313 0.875 7.625-7.625 8.313 8.25 0.688-0.688-8.25-8.313 7.625-7.625-0.875-0.313c-2.813-0.813-5.938-0.625-8.688 0.563-0.813-0.625-3.938-3.313-8.25-7.063 0.125-0.625 0.25-2.188-0.563-3.438l-0.375-0.5-8 8zM4.25 10.063l6-6.063c0.375 1.125 0.125 2.313 0.125 2.313l-0.125 0.313 0.25 0.25c7.438 6.375 8.625 7.375 9 7.563v0l0.188 0.063 0.188-0.125c2.25-1.063 4.938-1.375 7.375-0.813l-13.5 13.5c-0.563-2.5-0.25-5.063 0.813-7.375l0.125-0.188-0.125-0.25c-0.313-0.625-1.813-2.375-7.5-8.938l-0.188-0.188h-0.313c-0.313 0.063-0.625 0.063-0.938 0.063-0.625 0-1.063-0.063-1.375-0.125z"></path>
</svg>
