<?xml version="1.0" encoding="utf-8"?>
<!DOCTYPE svg PUBLIC "-//W3C//DTD SVG 1.1//EN" "http://www.w3.org/Graphics/SVG/1.1/DTD/svg11.dtd">
<svg version="1.1" xmlns="http://www.w3.org/2000/svg" xmlns:xlink="http://www.w3.org/1999/xlink" width="32" height="32" viewBox="0 0 32 32">
<path d="M1.625 9.375c0.75-0.125 1.813-0.25 3.25-0.25 1.563 0 2.688 0.375 3.375 0.938 0.75 0.563 1.188 1.5 1.188 2.563 0 1.125-0.375 2-1 2.625-0.875 0.813-2.188 1.25-3.688 1.25-0.375 0-0.75-0.063-1.063-0.125v4.375h-2.063zM3.688 14.75c0.313 0.063 0.625 0.063 1.063 0.063 1.563 0 2.563-0.75 2.563-2.125 0-1.25-0.875-1.938-2.375-1.938-0.563 0-1 0.063-1.25 0.125zM10.125 20.75v-8.313h2.125v8.313zM13.688 14.875c0-0.938-0.063-1.75-0.063-2.438h1.813l0.125 1.25h0.063c0.375-0.688 1.313-1.438 2.688-1.438 1.438 0 3 0.938 3 3.563v4.938h-2.125v-4.688c0-1.188-0.438-2.125-1.625-2.125-0.875 0-1.438 0.625-1.688 1.25-0.063 0.188-0.063 0.438-0.063 0.688v4.875h-2.125zM30.313 19.563c0 1.688-0.375 2.938-1.25 3.75-0.813 0.75-2.063 1-3.25 1-1.063 0-2.188-0.25-2.938-0.688l0.5-1.563c0.5 0.313 1.438 0.625 2.438 0.625 1.375 0 2.438-0.688 2.438-2.5v-0.75h-0.063c-0.438 0.75-1.313 1.25-2.438 1.25-2.125 0-3.563-1.688-3.563-4.063 0-2.75 1.75-4.375 3.813-4.375 1.313 0 2 0.625 2.438 1.313v0l0.125-1.125h1.813c0 0.563-0.063 1.25-0.063 2.375v4.75zM28.188 15.75c0-0.188 0-0.375-0.063-0.563-0.188-0.75-0.813-1.313-1.75-1.313-1.188 0-2.063 1-2.063 2.688 0 1.438 0.75 2.563 2.063 2.563 0.813 0 1.5-0.5 1.75-1.313 0.063-0.188 0.063-0.438 0.063-0.688zM11.188 7.688c-1.063 0-1.938 0.813-1.938 1.875s0.875 1.875 1.938 1.875c1.063 0 1.938-0.813 1.938-1.875s-0.875-1.875-1.938-1.875zM11.188 11.063c-0.875 0-1.5-0.688-1.5-1.5s0.625-1.5 1.5-1.5c0.813 0 1.5 0.688 1.5 1.5s-0.688 1.5-1.5 1.5zM11.875 10.063c0 0.188-0.125 0.313-0.25 0.313-0.188 0.063-0.313-0.063-0.313-0.25 0-0.125 0.063-0.313 0.25-0.313 0.063 0 0.125 0 0.125 0v-0.75l-0.75 0.125v1c0 0 0 0 0 0 0 0.125-0.125 0.313-0.25 0.313-0.188 0-0.313-0.063-0.313-0.25s0.063-0.313 0.25-0.313c0.063 0 0.125 0 0.125 0v-1.125l1.125-0.188v1.438c0 0 0 0 0 0z"></path>
</svg>
