<?xml version="1.0" encoding="utf-8"?>
<!DOCTYPE svg PUBLIC "-//W3C//DTD SVG 1.1//EN" "http://www.w3.org/Graphics/SVG/1.1/DTD/svg11.dtd">
<svg version="1.1" xmlns="http://www.w3.org/2000/svg" xmlns:xlink="http://www.w3.org/1999/xlink" width="32" height="32" viewBox="0 0 32 32">
<path d="M9.938 22.125h8.688c0 4.688-3.875 8.438-8.688 8.438-4.75 0-8.688-3.75-8.688-8.438 0-4.625 3.938-8.438 8.688-8.438zM30.063 10.063c0 4.563-3.813 8.25-8.5 8.25h-8.5v-8.688c0.188-4.375 3.938-7.875 8.5-7.875 4.688 0 8.5 3.75 8.5 8.313zM22.813 14.188c0-0.688-0.563-1.25-1.313-1.25-0.688 0-1.25 0.563-1.25 1.25s0.563 1.25 1.25 1.25c0.75 0 1.313-0.563 1.313-1.25zM22.813 5.813c0-0.688-0.563-1.25-1.313-1.25-0.688 0-1.25 0.563-1.25 1.25 0 0.063 0 0.125 0 0.188l0.375 4.938c0 0.5 0.375 0.938 0.875 0.938 0.563 0 0.938-0.438 0.938-0.938l0.375-4.938c0-0.063 0-0.125 0-0.188z"></path>
</svg>
