<?xml version="1.0" encoding="utf-8"?>
<!DOCTYPE svg PUBLIC "-//W3C//DTD SVG 1.1//EN" "http://www.w3.org/Graphics/SVG/1.1/DTD/svg11.dtd">
<svg version="1.1" xmlns="http://www.w3.org/2000/svg" xmlns:xlink="http://www.w3.org/1999/xlink" width="32" height="32" viewBox="0 0 32 32">
<path d="M9.125 30.438l-1.313-6.25-6.313-1.375 1.25-2.5 5.813-0.313c0.313-0.375 0.938-1.25 1.375-1.625l5.25-5.313-11-5.375 2.813-2.75 13.938 2.438 4.938-4.938c0.563-0.563 1.5-0.875 2.625-0.875 0.75 0 1.375 0.125 1.438 0.125l0.25 0.063 0.125 0.313c0.438 1.563 0.188 3.313-0.688 4.125l-4.938 5 2.438 13.875-2.813 2.75-5.375-10.938-4.875 4.938c-0.563 0.5-1.625 1.5-2.063 1.875l-0.438 5.438-2.438 1.313zM3.063 22.063l5.625 1.25 1.188 5.563 0.688-0.375 0.438-5.313 0.125-0.125c0 0 1.563-1.438 2.188-2l5.938-6 5.375 10.938 1.313-1.313-2.438-13.875 5.375-5.375c0.438-0.438 0.75-1.563 0.5-2.75-0.25-0.063-0.563-0.063-0.875-0.063-0.625 0-1.438 0.063-1.875 0.563l-5.313 5.313-13.938-2.438-1.375 1.313 11 5.438-6.313 6.313c-0.5 0.5-1.438 1.688-1.438 1.75l-0.125 0.188-5.688 0.313-0.375 0.688z"></path>
</svg>
