<?xml version="1.0" encoding="utf-8"?>
<!DOCTYPE svg PUBLIC "-//W3C//DTD SVG 1.1//EN" "http://www.w3.org/Graphics/SVG/1.1/DTD/svg11.dtd">
<svg version="1.1" xmlns="http://www.w3.org/2000/svg" xmlns:xlink="http://www.w3.org/1999/xlink" width="32" height="32" viewBox="0 0 32 32">
<path d="M17.125 27.188l-4.438-1.875v-20.5c0 0 9.563 1.563 10.875 5.563s-0.688 6.563-1.438 6.625c-2 0.25-2.75-1.063-2.75-1.063v-6.375l-2.188-0.938zM18.25 24.375v2.375c0 0 10.375-3.313 11.875-4.625 1.5-1.25-3.563-4.5-6.313-3.875 0 0-2.875 0.188-5.5 1.313-0.063 0 0 2.188 0 2.188l6.625-1.625 2.375 1.063zM11.625 24.188c0 0-1.375 0.688-4.375 0.688-3-0.063-5.688-0.875-5.625-2.688 0-1.813 4.938-3.813 9.938-4.625v2.5l-5.313 1.438c0 0-0.875 1.125 0.313 1.188 2.813 0.063 5.063-0.688 5.063-0.688z"></path>
</svg>
