<?xml version="1.0" encoding="utf-8"?>
<!DOCTYPE svg PUBLIC "-//W3C//DTD SVG 1.1//EN" "http://www.w3.org/Graphics/SVG/1.1/DTD/svg11.dtd">
<svg version="1.1" xmlns="http://www.w3.org/2000/svg" xmlns:xlink="http://www.w3.org/1999/xlink" width="32" height="32" viewBox="0 0 32 32">
<path d="M12.188 8.813l6.5 6.5 3.75-3.75-7.938-4.438c-4.375-2.438-8.125-4.5-8.375-4.625-0.313-0.125 0.875 1.125 6.063 6.313zM4.5 2.875c-0.438 0.438-0.438 0.75-0.438 13.188 0 12.5 0 12.75 0.438 13.125 0.125 0.125 0.813-0.5 6.813-6.5l6.688-6.688-6.688-6.688c-6.25-6.25-6.688-6.625-6.813-6.438zM21.375 14l-2 2 2 1.938 1.938 2 2.438-1.375c1.375-0.75 2.625-1.563 2.813-1.75 0.563-0.563 0.563-1.125 0-1.688-0.188-0.188-1.25-0.813-2.375-1.438-1.063-0.625-2.188-1.25-2.438-1.375l-0.438-0.25zM14.875 20.375c-9.063 9.188-9.188 9.313-8.75 9.125 0.375-0.125 14.875-8.25 16-8.938l0.313-0.125-3.813-3.813z"></path>
</svg>
