<?xml version="1.0" encoding="utf-8"?>
<!DOCTYPE svg PUBLIC "-//W3C//DTD SVG 1.1//EN" "http://www.w3.org/Graphics/SVG/1.1/DTD/svg11.dtd">
<svg version="1.1" xmlns="http://www.w3.org/2000/svg" xmlns:xlink="http://www.w3.org/1999/xlink" width="32" height="32" viewBox="0 0 32 32">
<path d="M10.188 16.813c0.063 1.063 0.313 3.563 0.813 4.938-0.625-0.125-1.313-0.25-2-0.438-0.75-0.125-1.5-0.25-1.938-0.625-0.5-0.375-1-1-1-1.875 0-1.313 0.938-2.313 2.188-2.438 0.75-0.063 1.313 0.188 1.938 0.438zM24.25 5.125c-1.063-1.813-2.875-3.75-5.938-3.5-1.5 0.125-2.688 0.875-3.625 1.688-1.875 1.625-3.188 3.938-3.75 6.75-0.313 1.563-0.375 3.188-0.313 4.813 0 0.875 0 1.75 0.125 2.5 0.25 2.375 0.688 4.5 1.438 6.438 0.688 1.875 1.625 3.563 2.875 5 0.438 0.438 0.875 1.063 1.313 1.313 1.563 0.813 3.313-0.25 3.313-1.875 0-0.813-0.313-1-0.75-1.563-0.188-0.313-0.438-0.688-0.625-1-0.063-0.188-0.125-0.313-0.25-0.438v0c0 0-1.313-1.625-2.25-6.188-0.188-0.938-0.313-2-0.438-3.063 0 0 0 0 0 0v0c-0.063-0.688-0.063-1.375-0.063-2.125 0-2.875 0.438-5.25 1.75-6.875 0.375-0.5 1.125-1.188 1.875-1.125 1.25 0 1.875 1.313 2.188 2.188 0.813 2.5 0.375 5.5-0.5 7.5-0.438 1.063-0.938 1.938-1.938 2.438-0.75 0.375-1.625 0.375-2.438 0.188 0 0-0.125 1.25 1.25 4.75 1.313 0.063 2.438-0.375 3.313-0.938 2.813-1.75 4.625-5.125 5.063-9.125 0.25-3.125-0.438-5.813-1.625-7.75z"></path>
</svg>
