<?xml version="1.0" encoding="utf-8"?>
<!DOCTYPE svg PUBLIC "-//W3C//DTD SVG 1.1//EN" "http://www.w3.org/Graphics/SVG/1.1/DTD/svg11.dtd">
<svg version="1.1" xmlns="http://www.w3.org/2000/svg" xmlns:xlink="http://www.w3.org/1999/xlink" width="32" height="32" viewBox="0 0 32 32">
<path d="M21.313 18.438l-8.25 8.313c-0.063 0-0.063 0.063-0.125 0.063-2.125 2.125-5.625 2.125-7.813 0-2.063-2.063-2.125-5.438-0.125-7.563l1.063 1.063 1.75-1.75c2.375 1.125 5.25 0.75 7.188-1.188l2.938-3 0.75 0.75 0.75-0.75-3-2.938 4.5-4.438-0.75-0.75-4.438 4.438-3-3 4.438-4.438-0.75-0.75-4.438 4.5-2.938-3-0.75 0.75 0.75 0.75-3 2.938c-1.938 1.938-2.313 4.813-1.188 7.188l-1.75 1.75 1.125 1.125c-2.375 2.563-2.313 6.563 0.188 9.063 2.563 2.563 6.688 2.563 9.25 0l8.375-8.375c1.813-1.813 4.813-1.813 6.625 0l0.75-0.75c-2.25-2.25-5.875-2.25-8.125 0zM6.813 9.188l3-2.938 7.375 7.375-2.938 3c-2.063 2.063-5.375 2.063-7.438 0s-2.063-5.375 0-7.438zM5.438 16.563c0.188 0.25 0.375 0.563 0.625 0.813s0.563 0.438 0.813 0.688l-0.813 0.75-1.438-1.438z"></path>
</svg>
