<?xml version="1.0" encoding="utf-8"?>
<!DOCTYPE svg PUBLIC "-//W3C//DTD SVG 1.1//EN" "http://www.w3.org/Graphics/SVG/1.1/DTD/svg11.dtd">
<svg version="1.1" xmlns="http://www.w3.org/2000/svg" xmlns:xlink="http://www.w3.org/1999/xlink" width="32" height="32" viewBox="0 0 32 32">
<path d="M15.875 9.625c-2.313 0-4.25 1.125-4.25 2.625s1.938 2.688 4.25 2.688c2.375 0 4.313-1.188 4.313-2.688s-1.938-2.625-4.313-2.625zM15.875 13.875c-1.813 0-3.188-0.875-3.188-1.625s1.375-1.563 3.188-1.563c1.813 0 3.25 0.813 3.25 1.563s-1.438 1.625-3.25 1.625zM28.313 10.125c0.313-0.313 0.375-0.688 0.375-1.125 0-1.5-1.938-2.625-4.25-2.625-1.25 0-2.313 0.313-3.063 0.75l-1.375-0.563c0.125-0.188 0.188-0.5 0.188-0.75 0-1.5-1.938-2.688-4.313-2.688-2.313 0-4.25 1.188-4.25 2.688 0 0.25 0.063 0.5 0.188 0.75l-1.063 0.5c-0.75-0.438-1.813-0.688-2.875-0.688-2.313 0-4.25 1.125-4.25 2.625 0 0.313 0.125 0.625 0.25 1l-2.375 1.063v10.563l14.375 6.125 14.438-6.188v-10.5l-2-0.938zM15.875 16.75l-12.5-5.375 1.313-0.563c0.813 0.563 1.938 0.938 3.188 0.938 2.375 0 4.313-1.188 4.313-2.688 0-0.438-0.188-0.875-0.5-1.25l0.813-0.313c0.813 0.688 2 1.063 3.375 1.063 1.438 0 2.625-0.375 3.438-1.063l1.25 0.563c-0.25 0.313-0.375 0.688-0.375 1.063 0 1.5 1.875 2.688 4.25 2.688 1.188 0 2.25-0.313 3-0.75l1 0.375-12.563 5.313zM27.625 9c0 0.75-1.375 1.625-3.188 1.625s-3.188-0.875-3.188-1.625c0-0.75 1.375-1.563 3.188-1.563s3.188 0.813 3.188 1.563zM15.875 4.25c1.813 0 3.25 0.875 3.25 1.625s-1.438 1.563-3.25 1.563c-1.813 0-3.188-0.813-3.188-1.563s1.375-1.625 3.188-1.625zM7.875 7.438c1.813 0 3.25 0.813 3.25 1.563s-1.438 1.625-3.25 1.625c-1.813 0-3.188-0.875-3.188-1.625s1.375-1.563 3.188-1.563zM2.563 12.188l12.813 5.438v8.75l-12.813-5.5zM16.438 26.375v-8.75l12.813-5.438v8.688z"></path>
</svg>
