<?xml version="1.0" encoding="utf-8"?>
<!DOCTYPE svg PUBLIC "-//W3C//DTD SVG 1.1//EN" "http://www.w3.org/Graphics/SVG/1.1/DTD/svg11.dtd">
<svg version="1.1" xmlns="http://www.w3.org/2000/svg" xmlns:xlink="http://www.w3.org/1999/xlink" width="32" height="32" viewBox="0 0 32 32">
<path d="M1.625 17.125c0-0.188 0-0.375 0-0.563 0-8.25 6.438-14.938 14.375-14.938s14.375 6.688 14.375 14.938c0 0.188 0 0.375 0 0.563-0.313-8-6.625-14.375-14.375-14.375s-14.063 6.375-14.375 14.375zM16 8.188c4.875 0 8.813 3.938 9.125 8.875 0-0.188 0-0.375 0-0.563 0-5.188-4.063-9.438-9.125-9.438s-9.125 4.25-9.125 9.438c0 0.188 0 0.375 0 0.563 0.313-4.938 4.25-8.875 9.125-8.875zM16 10.938c-1.625 0-3 1.438-3 3.125s1.375 3.125 3 3.125c1.625 0 3-1.438 3-3.125s-1.375-3.125-3-3.125zM16 17.438c-2.375 0-4.375 0.125-4.375 4.688s2 8.25 4.375 8.25c2.375 0 4.375-3.688 4.375-8.25s-2-4.688-4.375-4.688z"></path>
</svg>
