<?xml version="1.0" encoding="utf-8"?>
<!DOCTYPE svg PUBLIC "-//W3C//DTD SVG 1.1//EN" "http://www.w3.org/Graphics/SVG/1.1/DTD/svg11.dtd">
<svg version="1.1" xmlns="http://www.w3.org/2000/svg" xmlns:xlink="http://www.w3.org/1999/xlink" width="32" height="32" viewBox="0 0 32 32">
<path d="M9.813 30.375v-10.875l0.125-0.188h0.313l0.063 0.063c1.188 2 3.438 3.125 6.125 3.125 4.563 0 9.188-3.313 9.188-10.75 0-6-3.5-10.125-8.563-10.125-3.125 0-5.625 1.313-7.125 3.813l-0.125 0.063h-0.313l-0.188-3.5h-2.938c0.125 2 0.188 4 0.188 6.5v21.875zM9.813 10.375c0-0.375 0.125-0.875 0.313-1.5 0.625-2.813 3.063-4.75 5.813-4.75 3.688 0 6.313 3.188 6.313 7.813 0 4.875-2.563 8.063-6.438 8.063-2.75 0-5.063-1.813-5.813-4.5-0.125-0.438-0.188-0.938-0.188-1.563z"></path>
</svg>
