<?xml version="1.0" encoding="utf-8"?>
<!DOCTYPE svg PUBLIC "-//W3C//DTD SVG 1.1//EN" "http://www.w3.org/Graphics/SVG/1.1/DTD/svg11.dtd">
<svg version="1.1" xmlns="http://www.w3.org/2000/svg" xmlns:xlink="http://www.w3.org/1999/xlink" width="32" height="32" viewBox="0 0 32 32">
<path d="M27.438 6.313h-2.313v-4.625h-18.25v4.625h-2.313l-4.563 4.563v16h4.563v3.438h22.875v-3.438h4.563v-16zM8 2.875h16v5.688h-16zM5 7.438h1.875v1.125h-1.188l-1.125 1.125h22.875l-1.125-1.125h-1.188v-1.125h1.875l3.375 3.438h-28.75zM26.313 29.125h-20.625v-5.688h20.625zM27.438 25.688v-2.25h1.125v-1.125h-25.125v1.125h1.125v2.25h-3.438v-13.688h29.75v13.688zM28.938 14.875c0 0.5-0.438 0.875-0.938 0.875s-0.938-0.375-0.938-0.875c0-0.5 0.438-0.938 0.938-0.938s0.938 0.438 0.938 0.938zM3.438 14.313h6.875v1.125h-6.875z"></path>
</svg>
