<?xml version="1.0" encoding="utf-8"?>
<!DOCTYPE svg PUBLIC "-//W3C//DTD SVG 1.1//EN" "http://www.w3.org/Graphics/SVG/1.1/DTD/svg11.dtd">
<svg version="1.1" xmlns="http://www.w3.org/2000/svg" xmlns:xlink="http://www.w3.org/1999/xlink" width="32" height="32" viewBox="0 0 32 32">
<path d="M7.5 12.25c-0.625 0-1.125 0.5-1.125 1.063 0 0.625 0.5 1.063 1.125 1.063 0.563 0 1.063-0.438 1.063-1.063 0-0.563-0.5-1.063-1.063-1.063zM10.688 12.25c-0.625 0-1.063 0.5-1.063 1.063 0 0.625 0.438 1.063 1.063 1.063 0.563 0 1.063-0.438 1.063-1.063 0-0.563-0.5-1.063-1.063-1.063zM29.313 8h-5.875v-5.313h-14.875v5.313h-5.875c-0.313 0-0.563 0.25-0.563 0.563v15.938c0 0.313 0.25 0.563 0.563 0.563h5.875v4.25h14.875v-4.25h5.875c0.313 0 0.563-0.25 0.563-0.563v-15.938c0-0.313-0.25-0.563-0.563-0.563zM9.625 3.75h12.75v4.25h-12.75zM22.375 28.25h-12.75v-9.563h12.75zM28.813 24h-5.375v-6.375h-14.875v6.375h-5.375v-14.938h25.625z"></path>
</svg>
