<?xml version="1.0" encoding="utf-8"?>
<!DOCTYPE svg PUBLIC "-//W3C//DTD SVG 1.1//EN" "http://www.w3.org/Graphics/SVG/1.1/DTD/svg11.dtd">
<svg version="1.1" xmlns="http://www.w3.org/2000/svg" xmlns:xlink="http://www.w3.org/1999/xlink" width="32" height="32" viewBox="0 0 32 32">
<path d="M22.5 30.375c0.063 0 0.063 0 0.125 0 1.313 0 2.563 0 3.813 0 0.563-3.313 1-6.375 1.438-9.375 0.5-3.063 1.313-6.125 1.563-9.313 0.5-6.313-3.25-9.625-9.25-10-6.5-0.5-10.875 1.688-13.75 4.563-2.25 2.25-3.75 4.938-3.938 8.563-0.313 5.75 4.063 10.188 11.563 9.563 0.875-0.063 1.75-0.313 2.563-0.688 1.188-0.5 1.938-1.438 2.938-2-0.75 3.375-2 8.688 2.938 8.688zM18.438 17.563c-1.125 0.875-3.875 1.313-5.625 0.25-3.063-1.875-1.188-7.875 1.063-9.563 0.625-0.438 1.438-0.75 2.563-0.875 0.875-0.125 2.438 0.063 3.188 0.563 2.625 1.813 1.313 7.875-1.188 9.625z"></path>
</svg>
