<?xml version="1.0" encoding="utf-8"?>
<!DOCTYPE svg PUBLIC "-//W3C//DTD SVG 1.1//EN" "http://www.w3.org/Graphics/SVG/1.1/DTD/svg11.dtd">
<svg version="1.1" xmlns="http://www.w3.org/2000/svg" xmlns:xlink="http://www.w3.org/1999/xlink" width="32" height="32" viewBox="0 0 32 32">
<path d="M22.75 24.875c3.625-2.25 6.063-6.375 6.063-11 0-7.188-5.75-13-12.813-13s-12.813 5.813-12.813 13c0 7.125 5.75 12.938 12.813 12.938 1.063 0 2.063-0.125 3-0.375 1.25 2.25 3.063 3.813 7 3.063v-2.188c0 0-2.5-0.688-3.25-2.438zM22.625 15.563c0 2.188-0.688 4.125-1.813 5.563-1.375-1.5-3.625-2.688-6.375-2.563v2.563c0 0 1.875 0.063 3.188 2.313-0.5 0.125-1 0.188-1.5 0.188-3.625 0-6.563-3.563-6.563-8.063 0-0.563 0-2.75 0-3.375 0-4.438 2.938-8.063 6.563-8.063 3.563 0 6.5 3.625 6.5 8.063 0 0.625 0 2.813 0 3.375z"></path>
</svg>
