<svg xmlns="http://www.w3.org/2000/svg" xmlns:xlink="http://www.w3.org/1999/xlink" preserveAspectRatio="xMidYMid" width="44.812" height="39.06" viewBox="0 0 44.812 39.06">
  <path d="M43.345,0.076 C41.876,-0.217 40.775,0.372 40.042,1.842 L23.527,36.066 C22.790,37.688 23.086,38.643 24.407,38.936 C25.873,39.378 26.974,38.792 27.710,37.170 L44.446,2.946 C45.179,1.328 44.810,0.372 43.345,0.076 L43.345,0.076 ZM20.224,0.076 C18.754,-0.217 17.653,0.372 16.920,1.842 L0.405,36.066 C-0.331,37.688 -0.035,38.643 1.286,38.936 C2.752,39.378 3.853,38.792 4.589,37.170 L21.325,2.946 C22.057,1.328 21.689,0.372 20.224,0.076 L20.224,0.076 Z" class="cls-1"/>
</svg>
