<?xml version="1.0" encoding="utf-8"?>
<!DOCTYPE svg PUBLIC "-//W3C//DTD SVG 1.1//EN" "http://www.w3.org/Graphics/SVG/1.1/DTD/svg11.dtd">
<svg version="1.1" xmlns="http://www.w3.org/2000/svg" xmlns:xlink="http://www.w3.org/1999/xlink" width="32" height="32" viewBox="0 0 32 32">
<path d="M28.125 9.125c0 0 0-0.063-0.063-0.063l-22.625-5.313c-0.25-0.063-0.563 0.125-0.625 0.375-0.063 0.313 0.125 0.625 0.375 0.688l18.188 4.25h-19.188c-0.875 0-1.5 0.688-1.5 1.5v16.188c0 0.813 0.625 1.5 1.5 1.5h23.625c0.875 0 1.5-0.688 1.5-1.5v-16.188c0-0.75-0.5-1.313-1.188-1.438zM28.25 26.75c0 0.25-0.188 0.438-0.438 0.438h-23.625c-0.25 0-0.438-0.188-0.438-0.438v-16.188c0-0.25 0.188-0.438 0.438-0.438h23.625c0.25 0 0.438 0.188 0.438 0.438zM12.25 17.625c-0.438 0-0.813 0.313-0.813 0.75s0.375 0.813 0.813 0.813c0.438 0 0.813-0.375 0.813-0.813s-0.375-0.75-0.813-0.75zM6.375 18.375c0-0.438-0.313-0.75-0.75-0.75s-0.813 0.313-0.813 0.75c0 0.438 0.375 0.813 0.813 0.813s0.75-0.375 0.75-0.813zM18.938 17.625c-0.438 0-0.813 0.313-0.813 0.75s0.375 0.813 0.813 0.813c0.438 0 0.813-0.375 0.813-0.813s-0.375-0.75-0.813-0.75zM9.313 19.125c-0.438 0-0.75 0.375-0.75 0.813s0.313 0.813 0.75 0.813c0.438 0 0.813-0.375 0.813-0.813s-0.375-0.813-0.813-0.813zM16 20c0-0.438-0.375-0.813-0.813-0.813s-0.813 0.375-0.813 0.813c0 0.438 0.375 0.813 0.813 0.813s0.813-0.375 0.813-0.813zM9.313 16c-0.438 0-0.75 0.375-0.75 0.813s0.313 0.813 0.75 0.813c0.438 0 0.813-0.375 0.813-0.813s-0.375-0.813-0.813-0.813zM15.188 17.625c0.438 0 0.813-0.375 0.813-0.813s-0.375-0.813-0.813-0.813c-0.438 0-0.813 0.375-0.813 0.813s0.375 0.813 0.813 0.813zM6.688 20.813c-0.438 0-0.813 0.375-0.813 0.813s0.375 0.813 0.813 0.813c0.438 0 0.813-0.375 0.813-0.813s-0.375-0.813-0.813-0.813zM17.875 20.813c-0.438 0-0.813 0.375-0.813 0.813s0.375 0.813 0.813 0.813c0.438 0 0.813-0.375 0.813-0.813s-0.375-0.813-0.813-0.813zM6.688 14.375c-0.438 0-0.813 0.375-0.813 0.813s0.375 0.813 0.813 0.813c0.438 0 0.813-0.375 0.813-0.813s-0.375-0.813-0.813-0.813zM17.875 16c0.438 0 0.813-0.375 0.813-0.813s-0.375-0.813-0.813-0.813c-0.438 0-0.813 0.375-0.813 0.813s0.375 0.813 0.813 0.813zM8.75 22.938c-0.438 0-0.813 0.375-0.813 0.813s0.375 0.75 0.813 0.75c0.438 0 0.813-0.313 0.813-0.75s-0.375-0.813-0.813-0.813zM15.688 22.938c-0.438 0-0.75 0.375-0.75 0.813s0.313 0.75 0.75 0.75c0.438 0 0.813-0.313 0.813-0.75s-0.375-0.813-0.813-0.813zM8.813 13.875c0.438 0 0.813-0.375 0.813-0.813s-0.375-0.813-0.813-0.813c-0.438 0-0.813 0.375-0.813 0.813s0.375 0.813 0.813 0.813zM15.688 12.25c-0.438 0-0.75 0.375-0.75 0.813s0.313 0.813 0.75 0.813c0.438 0 0.813-0.375 0.813-0.813s-0.375-0.813-0.813-0.813zM12.25 20.813c-0.438 0-0.813 0.375-0.813 0.813s0.375 0.813 0.813 0.813c0.438 0 0.813-0.375 0.813-0.813s-0.375-0.813-0.813-0.813zM12.25 24c-0.438 0-0.813 0.375-0.813 0.813s0.375 0.813 0.813 0.813c0.438 0 0.813-0.375 0.813-0.813s-0.375-0.813-0.813-0.813zM12.25 14.375c-0.438 0-0.813 0.375-0.813 0.813s0.375 0.813 0.813 0.813c0.438 0 0.813-0.375 0.813-0.813s-0.375-0.813-0.813-0.813zM12.25 11.188c-0.438 0-0.813 0.375-0.813 0.813s0.375 0.813 0.813 0.813c0.438 0 0.813-0.375 0.813-0.813s-0.375-0.813-0.813-0.813zM24.5 12.25c-0.875 0-1.563 0.75-1.563 1.625s0.688 1.563 1.563 1.563c0.938 0 1.625-0.688 1.625-1.563s-0.688-1.625-1.625-1.625zM24.5 14.375c-0.25 0-0.5-0.188-0.5-0.5s0.25-0.563 0.5-0.563c0.313 0 0.563 0.25 0.563 0.563s-0.25 0.5-0.563 0.5zM24.5 16.563c-0.875 0-1.563 0.688-1.563 1.563s0.688 1.625 1.563 1.625c0.938 0 1.625-0.75 1.625-1.625s-0.688-1.563-1.625-1.563zM24.5 18.688c-0.25 0-0.5-0.25-0.5-0.563s0.25-0.5 0.5-0.5c0.313 0 0.563 0.188 0.563 0.5s-0.25 0.563-0.563 0.563z"></path>
</svg>
