<?xml version="1.0" encoding="utf-8"?>
<!DOCTYPE svg PUBLIC "-//W3C//DTD SVG 1.1//EN" "http://www.w3.org/Graphics/SVG/1.1/DTD/svg11.dtd">
<svg version="1.1" xmlns="http://www.w3.org/2000/svg" xmlns:xlink="http://www.w3.org/1999/xlink" width="32" height="32" viewBox="0 0 32 32">
<path d="M13.813 21l2.063 0.063v1.063h-2.125zM31.688 15.188c-0.813-2.875-3.75-5-7.188-5.125-0.688-4.25-4.75-7.438-9.5-7.375-4.25 0.063-8 2.75-9 6.438-0.188 0-0.313 0.063-0.313 0.063v0c-3.25 0.5-5.75 3.25-5.688 6.5 0.063 2.625 1.625 4.938 4.125 5.938l1.063 0.188c0 0 0.938 0.063 2.375 0.125l0.063-1.125c-1.375-0.063-2.313-0.063-2.313-0.125l-0.813-0.125c-2.063-0.813-3.375-2.75-3.375-4.875-0.063-2.875 2.188-5.25 5.125-5.438 1.063 0 2.875 0.25 3.813 1.125 0.438 0.438 0.625 1 0.625 1.688l1.063 0.063c0.063-1-0.25-1.875-0.938-2.563-0.938-0.938-2.5-1.25-3.625-1.375 1-3.063 4.188-5.313 7.813-5.375 4.125-0.063 7.688 2.625 8.313 6.25-0.938 0.125-2.5 0.5-3.563 1.563-0.75 0.813-1.125 1.875-1.063 3.188l1.125-0.063c-0.063-1 0.188-1.75 0.75-2.375 0.875-0.875 2.188-1.125 3-1.25h0.438c0 0 0 0 0 0 3.5 0 6.375 2.188 6.75 5.063v0c0.25 1.188 0.375 3.5-1.375 4.188-0.375 0.063-0.75 0.188-1.25 0.25-1.5 0.188-3.563 0.313-6.25 0.375v1.125c2.75-0.063 4.813-0.188 6.375-0.438h0.063c0.563-0.063 1-0.125 1.375-0.25v0c0 0 0 0 0 0 0.063 0 0.125 0 0.125 0v-0.063c2.625-1.063 2.375-4.5 1.875-6.188zM10.813 18.938c-1.188 0-1.813 3.875-1.813 4.125 0 1 1 1.563 1.75 1.563 0.688 0 1.688-0.563 1.688-1.563 0-0.063-0.438-4.125-1.625-4.125zM10.75 23.5c-0.188 0-0.688-0.188-0.688-0.438 0-0.438 0.375-1.75 0.688-2.5 0.25 0.75 0.563 2.063 0.563 2.5 0 0.25-0.375 0.438-0.563 0.438zM19.188 17.375c-1.188 0-1.875 4-1.875 4.25 0 1 1.063 1.563 1.813 1.563 0.688 0 1.75-0.563 1.75-1.563 0-0.063-0.438-4.25-1.688-4.25zM19.125 22.125c-0.188 0-0.688-0.25-0.688-0.5 0-0.438 0.375-1.813 0.688-2.625 0.313 0.75 0.625 2.125 0.625 2.625 0 0.313-0.438 0.5-0.625 0.5zM15.813 23.5c-1.188 0-1.875 4-1.875 4.188 0 1.063 1.063 1.625 1.813 1.625 0.688 0 1.688-0.563 1.688-1.625 0-0.063-0.438-4.188-1.625-4.188zM15.75 28.188c-0.188 0-0.688-0.188-0.688-0.5 0-0.438 0.375-1.813 0.688-2.625 0.313 0.813 0.563 2.188 0.563 2.625 0 0.313-0.375 0.5-0.563 0.5z"></path>
</svg>
