<?xml version="1.0" encoding="utf-8"?>
<!DOCTYPE svg PUBLIC "-//W3C//DTD SVG 1.1//EN" "http://www.w3.org/Graphics/SVG/1.1/DTD/svg11.dtd">
<svg version="1.1" xmlns="http://www.w3.org/2000/svg" xmlns:xlink="http://www.w3.org/1999/xlink" width="32" height="32" viewBox="0 0 32 32">
<path d="M26.5 14.313c0.063 0.563 0.125 1.125 0.125 1.688 0 6.625-5.625 12-12.5 12-6.938 0-12.5-5.375-12.5-12s5.563-12 12.5-12c1.313 0 2.625 0.188 3.875 0.563v7.313c0 0-3.75-2.063-7.063 0.313s-2.688 4.938-2.688 4.938c0 0 0.125 3.938 4.813 3.938 5.25 0 6.75-4.813 6.75-4.813v-10.938c1 0.5 1.938 1.125 2.875 1.875 2.25 1.375 4.563 2.25 7.188 2.188 0 0 0.5-0.125 0.5 0.875 0 0.563-0.188 1.188-0.75 1.813 0 0-1 1.563-3.125 2.25z"></path>
</svg>
