<?xml version="1.0" encoding="utf-8"?>
<!DOCTYPE svg PUBLIC "-//W3C//DTD SVG 1.1//EN" "http://www.w3.org/Graphics/SVG/1.1/DTD/svg11.dtd">
<svg version="1.1" xmlns="http://www.w3.org/2000/svg" xmlns:xlink="http://www.w3.org/1999/xlink" width="32" height="32" viewBox="0 0 32 32">
<path d="M2.625 13.188c0.688-2.25 2.5-2.688 2.813-2.75 1.813-4.188 6-7.125 10.875-7.125 4.938 0 9.188 2.938 10.938 7.188 0.063 0 0.125 0 0.188 0v-5.625c-0.625-0.25-1.063-0.875-1.063-1.563 0-0.938 0.75-1.688 1.688-1.688 1 0 1.75 0.75 1.75 1.688 0 0.813-0.563 1.438-1.313 1.625v6.125c0.563 0.375 1.125 1.063 1.438 2.125 0 0 0.563 2.813-0.375 3.5 0 0-0.438 0.688-1.813 1.188-0.063 0.375-0.188 0.75-0.375 1.125-0.5 0.125-1 0.188-1.563 0.313 0.813-1.438 1.25-3.063 1.25-4.813 0-5.625-4.813-10.125-10.813-10.125s-10.875 4.5-10.875 10.125c0 1.813 0.5 3.5 1.375 4.938-0.5-0.125-0.938-0.188-1.438-0.313-0.125-0.375-0.25-0.813-0.375-1.188 0 0 0 0 0-0.063-1.438-0.5-1.938-1.188-1.938-1.188-0.938-0.688-0.375-3.5-0.375-3.5zM16 25.688c-4.125-5-14.375-5.438-14.375-5.438v3.813c9.25 0.063 14.375 6.313 14.375 6.313v0c0 0 5.125-6.25 14.375-6.313v-3.813c0 0-10.25 0.438-14.375 5.438zM25.813 16.25c0 1.188-0.25 2.375-0.625 3.375-3.188 0.75-7 2.125-9.188 4.75v0c-2.063-2.5-5.688-3.875-8.75-4.625-0.438-1.063-0.688-2.25-0.688-3.5 0-5.25 4.313-9.438 9.625-9.438s9.625 4.188 9.625 9.438zM11.625 14.75c0-0.563-0.5-1.063-1.063-1.063-0.625 0-1.063 0.5-1.063 1.063 0 0.625 0.438 1.063 1.063 1.063 0.563 0 1.063-0.438 1.063-1.063zM14.188 12.063c0-0.875-0.75-1.625-1.625-1.625-0.938 0-1.688 0.75-1.688 1.625 0 0.938 0.75 1.625 1.688 1.625 0.875 0 1.625-0.688 1.625-1.625z"></path>
</svg>
