<?xml version="1.0" encoding="utf-8"?>
<!DOCTYPE svg PUBLIC "-//W3C//DTD SVG 1.1//EN" "http://www.w3.org/Graphics/SVG/1.1/DTD/svg11.dtd">
<svg version="1.1" xmlns="http://www.w3.org/2000/svg" xmlns:xlink="http://www.w3.org/1999/xlink" width="32" height="32" viewBox="0 0 32 32">
<path d="M22.188 17.063c0.063 0.188 0.125 0.375 0.125 0.563 0 0.438-0.125 0.813-0.375 1.125s-0.563 0.563-0.938 0.625v0c0 0 0 0 0 0s0 0 0 0c-0.188 0.063-0.375 0.125-0.5 0.125-0.438 0-0.875-0.188-1.188-0.438s-0.563-0.625-0.625-1.063v0c0 0 0 0 0 0s0 0 0 0v0c-0.063-0.125-0.063-0.25-0.063-0.313 0-0.375 0.125-0.75 0.313-1.063 0.25-0.313 0.563-0.563 0.875-0.688 0 0 0 0 0 0s0 0 0 0c0.188-0.063 0.438-0.063 0.625-0.063 0.375 0 0.75 0.125 1.063 0.313s0.563 0.5 0.688 0.875c0 0 0 0 0 0s0 0 0 0zM21.063 21.688c-0.188-0.063-0.313-0.125-0.5-0.125s-0.313 0.063-0.438 0.125c-1.313 0.75-2.813 1.188-4.25 1.188-1.125 0-2.25-0.25-3.25-0.75v0 0c-0.188-0.063-0.313-0.188-0.5-0.313-0.125-0.063-0.188-0.125-0.313-0.188-0.125 0-0.25-0.063-0.375-0.063s-0.25 0-0.313 0.063c0 0 0 0-0.063 0v0c-0.125 0.063-0.313 0.188-0.375 0.375-0.063 0.125-0.125 0.313-0.125 0.5 0 0.125 0 0.313 0.125 0.438 0.063 0.125 0.188 0.25 0.313 0.313 1.438 1 3.125 1.438 4.813 1.438 1.563 0 3.063-0.375 4.438-1v0 0c0.188-0.125 0.438-0.25 0.688-0.375 0.063-0.063 0.188-0.125 0.313-0.25 0.063-0.125 0.125-0.25 0.188-0.375v0c0-0.125 0.063-0.188 0.063-0.25 0-0.125-0.063-0.25-0.125-0.313-0.063-0.188-0.188-0.313-0.313-0.438zM10.938 19.375c0 0 0.063 0 0.063 0 0.188 0.063 0.375 0.125 0.563 0.125 0.438 0 0.875-0.188 1.25-0.5 0.313-0.313 0.563-0.75 0.563-1.25 0-0.063 0-0.063 0-0.063s0-0.063 0-0.063c0-0.5-0.25-0.938-0.563-1.25-0.375-0.313-0.813-0.5-1.25-0.5-0.125 0-0.25 0-0.375 0 0 0 0 0 0 0s0 0 0 0c-0.625 0.125-1.188 0.625-1.375 1.25v0c0 0 0 0 0 0-0.063 0.188-0.125 0.375-0.125 0.5 0 0.438 0.125 0.813 0.375 1.125 0.188 0.25 0.5 0.5 0.875 0.625 0 0 0 0 0 0zM30.375 14.875v0c0 0.063 0 0.125 0 0.188 0 0.688-0.188 1.375-0.563 1.938s-0.813 1-1.375 1.313c0 0.25 0.063 0.5 0.063 0.813 0 1.5-0.563 3-1.438 4.188v0 0c-1.688 2.188-4.25 3.5-6.875 4.188v0 0c-1.375 0.313-2.813 0.5-4.188 0.5-2.125 0-4.25-0.375-6.25-1.188v0 0c-2.063-0.813-4-2.188-5.188-4.125-0.688-1.063-1-2.313-1-3.563 0-0.25 0-0.563 0-0.813-0.5-0.313-1-0.75-1.313-1.25-0.375-0.563-0.625-1.25-0.625-1.938v0c0-0.938 0.375-1.875 1.063-2.5 0.625-0.688 1.5-1.125 2.438-1.125 0.063 0 0.063 0 0.063 0 0.125 0 0.188 0 0.313 0 0.438 0 0.938 0.063 1.375 0.25v0 0c0.438 0.125 0.813 0.375 1.125 0.625 0.125-0.063 0.25-0.125 0.375-0.188 2.063-1.25 4.5-1.688 6.875-1.813 0-1.188 0.125-2.438 0.75-3.5 0.438-0.875 1.25-1.563 2.25-1.813v0 0c0.375-0.063 0.75-0.125 1.125-0.125 1 0 2 0.25 2.938 0.625 0.375-0.625 0.938-1.063 1.625-1.375v0 0c0.438-0.125 0.875-0.188 1.25-0.188 0.5 0 0.938 0.063 1.375 0.25v0c0 0 0 0 0 0s0 0 0 0c0.563 0.25 1.125 0.688 1.438 1.25 0.375 0.5 0.625 1.188 0.625 1.813 0 0.125 0 0.25-0.063 0.375v0c0 0 0 0 0 0-0.063 0.875-0.5 1.625-1.125 2.188-0.563 0.5-1.375 0.813-2.188 0.813-0.188 0-0.313 0-0.438 0-0.813-0.063-1.563-0.438-2.125-1.063-0.563-0.563-0.938-1.375-0.938-2.188 0-0.063 0-0.063 0-0.125-0.75-0.375-1.563-0.625-2.375-0.625-0.125 0-0.25 0-0.313 0v0c-0.625 0.063-1.188 0.438-1.438 1v0c-0.438 0.813-0.5 1.75-0.563 2.688 2.313 0.125 4.688 0.688 6.75 1.875v0 0c0.063 0.063 0.125 0.063 0.188 0.125 0.125-0.125 0.313-0.25 0.438-0.313 0.625-0.438 1.375-0.625 2.125-0.625 0.313 0 0.625 0 0.938 0.125v0 0c0.063 0 0.063 0 0.063 0v0c0.75 0.188 1.375 0.625 1.938 1.188 0.5 0.563 0.813 1.313 0.875 2.125v0zM23.563 7.25c0 0.063 0 0.063 0 0.125v0c0 0.375 0.188 0.75 0.5 1.063 0.313 0.25 0.688 0.438 1.063 0.438v0c0.063 0 0.063 0 0.125 0 0.375 0 0.75-0.188 1.063-0.438s0.5-0.625 0.5-1.063v0 0c0-0.063 0-0.063 0-0.125 0-0.375-0.188-0.813-0.5-1.063-0.313-0.313-0.688-0.5-1.125-0.5-0.125 0-0.25 0-0.375 0.063v0 0c-0.375 0.063-0.688 0.313-0.875 0.563-0.25 0.25-0.375 0.625-0.375 0.938zM6.438 13.5c-0.313-0.125-0.625-0.25-0.938-0.25-0.063 0-0.125 0-0.188 0v0 0c-0.438 0-0.938 0.188-1.25 0.563-0.375 0.313-0.563 0.688-0.563 1.188v0 0c-0.063 0.063-0.063 0.063-0.063 0.125 0 0.313 0.125 0.563 0.25 0.813 0.125 0.188 0.25 0.375 0.438 0.5 0.563-1.125 1.375-2.125 2.313-2.938zM26.625 19.188c0-1.063-0.375-2.063-0.938-2.938-1.25-1.688-3.125-2.75-5.063-3.375v0c-0.375-0.125-0.75-0.25-1.125-0.313-1.125-0.25-2.313-0.375-3.5-0.375-1.563 0-3.125 0.25-4.625 0.688-1.938 0.625-3.813 1.688-5.063 3.375v0c-0.563 0.875-0.938 1.938-0.938 2.938 0 0.375 0.063 0.75 0.125 1.125v0c0.25 0.875 0.688 1.625 1.25 2.25 0.5 0.688 1.188 1.25 1.938 1.688 0.125 0.063 0.313 0.188 0.438 0.25 2.125 1.188 4.5 1.688 6.875 1.688 0.438 0 0.813 0 1.25-0.063 2.375-0.188 4.75-0.875 6.75-2.313v0c0.563-0.5 1.188-1 1.625-1.625 0.438-0.688 0.813-1.375 0.938-2.125v0 0c0.063-0.313 0.063-0.563 0.063-0.875zM28.563 15.063c0-0.25-0.063-0.5-0.188-0.75v0 0c-0.188-0.375-0.438-0.625-0.75-0.813-0.375-0.188-0.75-0.25-1.125-0.25-0.313 0-0.625 0.063-0.938 0.25 0.938 0.813 1.75 1.813 2.313 2.938 0.188-0.125 0.313-0.313 0.438-0.5 0.125-0.313 0.25-0.563 0.25-0.875z"></path>
</svg>
