<?xml version="1.0" encoding="utf-8"?>
<!DOCTYPE svg PUBLIC "-//W3C//DTD SVG 1.1//EN" "http://www.w3.org/Graphics/SVG/1.1/DTD/svg11.dtd">
<svg version="1.1" xmlns="http://www.w3.org/2000/svg" xmlns:xlink="http://www.w3.org/1999/xlink" width="32" height="32" viewBox="0 0 32 32">
<path d="M23 18.625l-1.125 7.813 7.625-1.188-3-3c1-1.875 1.625-3.938 1.625-6.25 0-7.063-5.75-12.813-12.813-12.813v1.063c6.438 0 11.75 5.313 11.75 11.75 0 2-0.5 3.813-1.375 5.438zM23.063 25.188l0.688-4.313 3.5 3.688zM3.563 16c0-2.813 1-5.375 2.688-7.438l3.25 3.313 1.125-7.813-7.625 1.188 2.438 2.563c-1.813 2.188-2.938 5.125-2.938 8.188 0 7.125 5.688 12.813 12.813 12.813v-1.063c-6.438 0-11.75-5.313-11.75-11.75zM9.313 5.375l-0.625 4.25-3.5-3.625z"></path>
</svg>
