<?xml version="1.0" encoding="utf-8"?>
<!DOCTYPE svg PUBLIC "-//W3C//DTD SVG 1.1//EN" "http://www.w3.org/Graphics/SVG/1.1/DTD/svg11.dtd">
<svg version="1.1" xmlns="http://www.w3.org/2000/svg" xmlns:xlink="http://www.w3.org/1999/xlink" width="32" height="32" viewBox="0 0 32 32">
<path d="M26.563 8.875c0-4.875-4-8.875-8.875-8.875-4.938 0-8.875 4-8.875 8.875 0 2.875 1.375 5.438 3.5 7.063l-6.875 12.438 5.063-1.313 2.813 4.438 3.125-12.188 0.188 12.688 3.75-3.688 4.625 2.438-3.75-13.75c3.125-1.375 5.313-4.5 5.313-8.125zM9.813 8.875c0-4.313 3.5-7.875 7.875-7.875 4.313 0 7.875 3.563 7.875 7.875 0 4.375-3.563 7.875-7.875 7.875-4.375 0-7.875-3.5-7.875-7.875zM12.938 29l-2-3.125-3.5 0.938 5.625-10.25 0.313 0.063c0.75 0.438 1.563 0.75 2.438 0.938zM23.438 28.813l-3.25-1.688-2.625 2.5-0.125-11.688 0.938-0.188c0.688-0.063 1.313-0.188 1.938-0.375zM20 7l-0.375-0.063c-0.375-0.063-0.875-0.438-1.063-0.75l-0.125-0.313c-0.438-0.875-1.375-0.875-1.813 0l-0.188 0.313c-0.125 0.313-0.625 0.688-1.063 0.75l-0.313 0.063c-0.5 0.063-0.813 0.313-0.938 0.625-0.063 0.375 0.063 0.75 0.375 1.063l0.25 0.25c0.313 0.25 0.5 0.875 0.438 1.25l-0.063 0.375c-0.125 0.438 0.063 0.75 0.188 0.875 0.25 0.375 0.75 0.438 1.25 0.188l0.313-0.188c0.313-0.188 1-0.188 1.313 0l0.313 0.188c0.188 0.063 0.375 0.125 0.563 0.125 0.313 0 0.5-0.063 0.688-0.313 0.125-0.125 0.25-0.438 0.188-0.875l-0.063-0.375c-0.063-0.375 0.125-1 0.438-1.25l0.25-0.25c0.313-0.313 0.438-0.688 0.313-1.063-0.125-0.313-0.438-0.563-0.875-0.625zM19.563 8.25c-0.5 0.5-0.813 1.375-0.688 2.125l0.063 0.313-0.313-0.125c-0.625-0.313-1.625-0.313-2.25 0l-0.313 0.125 0.063-0.313c0.125-0.75-0.125-1.625-0.688-2.125l-0.25-0.25 0.375-0.063c0.688-0.125 1.5-0.688 1.813-1.313l0.125-0.313 0.188 0.313c0.313 0.625 1.063 1.188 1.813 1.313l0.313 0.063zM24.75 8.813c0-3.938-3.188-7.125-7.125-7.125-3.875 0-7.063 3.188-7.063 7.125 0 3.875 3.188 7.063 7.063 7.063 3.938 0 7.125-3.188 7.125-7.063zM17.625 14.875c-3.313 0-6.063-2.688-6.063-6.063s2.75-6.063 6.063-6.063c3.375 0 6.125 2.688 6.125 6.063s-2.75 6.063-6.125 6.063zM10 24.188l2.875-5.813 0.938 0.438-2.875 5.813z"></path>
</svg>
