<?xml version="1.0" encoding="utf-8"?>
<!DOCTYPE svg PUBLIC "-//W3C//DTD SVG 1.1//EN" "http://www.w3.org/Graphics/SVG/1.1/DTD/svg11.dtd">
<svg version="1.1" xmlns="http://www.w3.org/2000/svg" xmlns:xlink="http://www.w3.org/1999/xlink" width="32" height="32" viewBox="0 0 32 32">
<path d="M16.125 29.125c7.25 0 13.125-5.875 13.125-13.125s-5.875-13.125-13.125-13.125c-7.25 0-13.125 5.875-13.125 13.125s5.875 13.125 13.125 13.125zM16.125 3.938c6.625 0 12.063 5.438 12.063 12.063s-5.438 12.063-12.063 12.063c-6.688 0-12.063-5.438-12.063-12.063s5.375-12.063 12.063-12.063zM16.875 21.625l0.75 0.75 6.375-6.375-6.375-6.375-0.75 0.75 5.125 5.125h-12.688v1h12.688z"></path>
</svg>
