<?xml version="1.0" encoding="utf-8"?>
<!DOCTYPE svg PUBLIC "-//W3C//DTD SVG 1.1//EN" "http://www.w3.org/Graphics/SVG/1.1/DTD/svg11.dtd">
<svg version="1.1" xmlns="http://www.w3.org/2000/svg" xmlns:xlink="http://www.w3.org/1999/xlink" width="32" height="32" viewBox="0 0 32 32">
<path d="M18.438 13.125c0-0.625 0.5-1.063 1.063-1.063s1.063 0.438 1.063 1.063c0 0.563-0.5 1-1.063 1s-1.063-0.438-1.063-1zM15.25 4.188v0 1.438h1.313v-1.375c0.438-0.25 0.75-0.688 0.75-1.25 0-0.75-0.625-1.375-1.375-1.375s-1.375 0.625-1.375 1.375c0 0.5 0.25 0.938 0.688 1.188zM12.375 14.125c0.563 0 1-0.438 1-1 0-0.625-0.438-1.063-1-1.063s-1.063 0.438-1.063 1.063c0 0.563 0.5 1 1.063 1zM15.938 30.375c1.563 0 2.875-1 3.375-2.375h-6.75c0.5 1.375 1.813 2.375 3.375 2.375zM5.125 26.125c0-0.5 0.313-1 0.75-1.25v-5.875c0-1.188 0.938-2.125 2.063-2.25v-2.813c0 0 0.313-5.25 4.625-6.875 1.25-0.5 2.438-0.688 3.438-0.688s2.188 0.188 3.438 0.688c4.313 1.625 4.625 6.875 4.625 6.875v2.813c1.125 0.125 2.063 1.063 2.063 2.25v5.875c0.438 0.25 0.75 0.75 0.75 1.25 0 0.813-0.625 1.438-1.375 1.438s-1.375-0.625-1.375-1.438c0-0.5 0.313-1 0.75-1.25v-3.938c-0.25 0.125-0.5 0.188-0.813 0.25v1.375c0 0.125 0 0.188 0 0.313s0 0.25 0 0.375v0 0c-0.188 2.313-2 4.188-4.25 4.438v0h-7.625c-2.25-0.25-4.063-2.125-4.25-4.438v0 0c0-0.125 0-0.25 0-0.375s0-0.188 0-0.313v-1.375c-0.313-0.063-0.563-0.125-0.813-0.25v3.938c0.438 0.25 0.75 0.75 0.75 1.25 0 0.813-0.625 1.438-1.375 1.438s-1.375-0.625-1.375-1.438zM18.313 18.875c0-0.375-0.313-0.688-0.688-0.688s-0.625 0.313-0.625 0.688c0 0.375 0.25 0.688 0.625 0.688s0.688-0.313 0.688-0.688zM19.938 18.875c0-0.375-0.313-0.688-0.688-0.688-0.313 0-0.625 0.313-0.625 0.688s0.313 0.688 0.625 0.688c0.375 0 0.688-0.313 0.688-0.688zM21.563 18.875c0-0.375-0.25-0.688-0.625-0.688s-0.688 0.313-0.688 0.688c0 0.375 0.313 0.688 0.688 0.688s0.625-0.313 0.625-0.688zM10.375 13.313c0 1.75 1.438 1.875 1.438 1.875 0.438 0.125 1.438 0.063 1.938 0 0.438-0.063 1.938-0.188 2.188-0.25 0.063 0 0.063 0 0.063 0s0 0 0.063 0c0.25 0.063 1.75 0.188 2.188 0.25 0.5 0.063 1.5 0.125 1.938 0 0 0 1.438-0.125 1.438-1.875 0 0 0-2-1.438-3.188-1.313-1.188-3.313-1.438-4.125-1.438v0c0 0 0 0 0 0-0.063 0-0.063 0-0.063 0s0 0-0.063 0c0 0 0 0 0 0v0c-0.813 0-2.813 0.25-4.125 1.438-1.438 1.188-1.438 3.188-1.438 3.188z"></path>
</svg>
