<?xml version="1.0" encoding="utf-8"?>
<!DOCTYPE svg PUBLIC "-//W3C//DTD SVG 1.1//EN" "http://www.w3.org/Graphics/SVG/1.1/DTD/svg11.dtd">
<svg version="1.1" xmlns="http://www.w3.org/2000/svg" xmlns:xlink="http://www.w3.org/1999/xlink" width="32" height="32" viewBox="0 0 32 32">
<path d="M16.188 7.438c-1.5 0-2.688 1.188-2.688 2.688s1.188 2.688 2.688 2.688c1.5 0 2.625-1.188 2.625-2.688s-1.125-2.688-2.625-2.688zM16.188 11.75c-0.938 0-1.625-0.688-1.625-1.625 0-0.875 0.688-1.563 1.625-1.563 0.875 0 1.563 0.688 1.563 1.563 0 0.938-0.688 1.625-1.563 1.625zM21.5 18.938c0-3.875 0-8.188 0-9.813 0-3-2-7.063-5.313-9.125-3.375 2.063-5.375 6.125-5.375 9.188 0 1.563 0 5.938 0 9.813l-5.313 6.625h21.313l-5.313-6.688zM10.813 24.563h-3.063l3.063-3.938zM20.438 24.563h-8.563v-15.375c0-2.438 1.5-5.875 4.313-7.938 2.75 2.063 4.25 5.5 4.25 7.938v15.375zM21.5 20.625l3.063 3.938h-3.063c0-0.938 0-2.313 0-3.938zM15.625 26.688h1.063v5.313h-1.063zM18.313 26.688h1.063v3.188h-1.063zM12.938 26.688h1.125v3.188h-1.125z"></path>
</svg>
