<?xml version="1.0" encoding="utf-8"?>
<!DOCTYPE svg PUBLIC "-//W3C//DTD SVG 1.1//EN" "http://www.w3.org/Graphics/SVG/1.1/DTD/svg11.dtd">
<svg version="1.1" xmlns="http://www.w3.org/2000/svg" xmlns:xlink="http://www.w3.org/1999/xlink" width="32" height="32" viewBox="0 0 32 32">
<path d="M8.125 23.875c0.688 0.688 1.125 1.625 1.125 2.688s-0.438 2-1.125 2.688v0c-0.688 0.688-1.625 1.125-2.688 1.125s-2-0.438-2.688-1.125c-0.75-0.688-1.125-1.625-1.125-2.688s0.375-2 1.125-2.688v0c0.688-0.688 1.625-1.125 2.688-1.125s2 0.438 2.688 1.125zM8.125 23.875v0c0 0 0 0 0 0zM2.75 29.25c0 0 0 0 0 0s0 0 0 0zM1.625 11.375v5.5c3.563 0 6.938 1.438 9.5 4 2.563 2.5 3.938 5.938 3.938 9.5v0 0h5.563c0-5.188-2.125-9.938-5.625-13.375-3.438-3.5-8.188-5.625-13.375-5.625zM1.625 1.625v5.5c12.813 0 23.25 10.438 23.25 23.25h5.5c0-7.938-3.188-15.125-8.438-20.313-5.188-5.25-12.375-8.438-20.313-8.438z"></path>
</svg>
