<?xml version="1.0" encoding="utf-8"?>
<!DOCTYPE svg PUBLIC "-//W3C//DTD SVG 1.1//EN" "http://www.w3.org/Graphics/SVG/1.1/DTD/svg11.dtd">
<svg version="1.1" xmlns="http://www.w3.org/2000/svg" xmlns:xlink="http://www.w3.org/1999/xlink" width="32" height="32" viewBox="0 0 32 32">
<path d="M16.125 11.25c-2.438 0-4.438 1.875-4.688 4.25h-1.125v1h1.125c0.25 2.375 2.25 4.25 4.688 4.25 2.625 0 4.688-2.125 4.688-4.75s-2.063-4.75-4.688-4.75zM16.125 19.688c-1.875 0-3.375-1.375-3.625-3.188h3.625v-1h-3.625c0.25-1.813 1.75-3.188 3.625-3.188 2 0 3.688 1.688 3.688 3.688s-1.688 3.688-3.688 3.688zM6.125 20.813v-3.188h-1v4.188h1zM6.125 13.375v-3.125h-1v4.188h1zM7.188 7.063v17.875h17.813v-17.875zM24 23.875h-15.75v-15.75h15.75zM3 3.938v24.125h26.25v-24.125zM28.188 27h-24.125v-22h24.125z"></path>
</svg>
