<?xml version="1.0" encoding="utf-8"?>
<!DOCTYPE svg PUBLIC "-//W3C//DTD SVG 1.1//EN" "http://www.w3.org/Graphics/SVG/1.1/DTD/svg11.dtd">
<svg version="1.1" xmlns="http://www.w3.org/2000/svg" xmlns:xlink="http://www.w3.org/1999/xlink" width="32" height="32" viewBox="0 0 32 32">
<path d="M30.5 15.813c0.875-0.875 1-1.5 0.5-2.688-0.063-0.25 0-0.375 0.063-0.5 0.813-2.375-0.563-4.5-3-4.563-0.438 0-0.5-0.125-0.5-0.5 0-1.5-0.875-2.688-2.25-3.063s-2.688 0.188-3.5 1.5c-0.125 0.25-0.25 0.313-0.563 0.125-0.688-0.438-1.5-0.5-2.313-0.188-0.313 0.125-0.375 0.125-0.5-0.188-0.5-1.375-1.563-2.188-3-2.25s-2.5 0.563-3.125 1.813c-0.25 0.375-0.313 0.375-0.688 0.188-1.375-0.813-3.063-0.313-3.688 1.063-0.25 0.438-0.563 0.625-1 0.625-1.625 0.25-2.938 1-3.938 2.313-1.375 1.688-1.813 3.625-1.125 5.75 0.125 0.5 0.25 0.875-0.438 1.188-1.375 0.688-1.75 2-1.125 3.375 1.25 2.813 2.563 5.625 3.813 8.438 0.25 0.5 0.5 0.625 1 0.625 2 0 4 0 6 0 5.188 0 10.313 0 15.438 0 0.5 0 0.813-0.125 1-0.563 0.25-0.688 0.563-1.375 0.875-2.063 1.063-2.375 2.188-4.688 3.25-7.063 0.688-1.563 0.25-2.688-1.188-3.375zM11.688 6.063c0.5 0.438 0.625 0.313 0.813-0.25 0.438-1.188 1.688-2 2.875-1.938 1.313 0.063 2.375 0.938 2.688 2.25 0.125 0.563 0.25 0.688 0.875 0.313 0.813-0.5 1.688-0.375 2.438 0.313 0.313 0.25 0.438 0.313 0.625-0.188 0.563-1.375 1.938-2.063 3.25-1.625 1.375 0.375 2.125 1.688 1.813 3.188-0.125 0.5 0.063 0.563 0.5 0.438 1.125-0.25 2.063 0.125 2.75 1.063 0.688 0.875 0.813 1.875 0.313 2.938-0.188 0.313-0.125 0.5 0 0.813 0.563 0.813 0.188 1.875-0.75 2.125-0.313-1.313-0.688-1.688-2.063-1.875-0.313 0-0.313-0.188-0.375-0.438-0.375-2.313-2.75-3.25-4.625-1.875-0.25 0.25-0.438 0.188-0.688 0.063-1.125-0.75-2.25-0.625-3.125 0.375-0.25 0.375-0.375 0.313-0.625 0.063-1.25-1-2.625-1.313-4.125-1-0.313 0.063-0.5 0.125-0.688-0.188-1.125-2.063-2.813-3.188-5.125-3.5-0.063 0-0.125-0.063-0.25-0.063 0.5-1.5 2.25-2 3.5-1zM12.438 15.063c0.125-1.25 1.25-2.313 2.5-2.375 1.563-0.125 2.813 0.75 3.188 2.25 0.313 1-0.188 2.813-1.813 3.313 0.375-2.125-1.375-4.125-3.875-3.188zM18.25 14.125c-0.625-1.375-1.813-1.938-3.313-1.875-1.313 0.063-2.375 0.938-3 2.5-0.063-0.063-0.125-0.063-0.188-0.125-0.063-0.375-0.625-0.375-0.563-0.75 0-0.438 0.313-0.813 0.625-1.125 1.313-1.625 3.688-2.063 5.563-1.125 1.813 1 2.875 3.438 2.063 5.313-0.063 0.25-0.125 0.5-0.25 0.75-0.563 1.063-1.063 1.25-2.375 0.938 1.625-1.188 2.313-2.625 1.438-4.5zM9.5 13.75c-0.188 0.063-0.313 0.063-0.438 0.125-0.688 0.313-1 0.25-1.688-0.188-1-0.625-2-0.625-3 0-0.188 0.125-0.375 0.25-0.563 0.438-0.625-2.5 1.625-5 4.188-4.875 1.688 0.063 2.875 0.875 3.625 2.313 0.188 0.313 0.25 0.563-0.063 0.813-0.063 0.063-0.063 0.063-0.125 0.125-0.375 0.5-1.313 1.125-1.938 1.25zM2 13.625c0-2.938 1.875-5.25 4.5-5.938 2.5-0.625 5.25 0.625 6.563 2.813 0.375 0.75-0.188 0.75-0.5 1-0.438 0.375-0.5-0.063-0.625-0.313-1.188-2-3.438-2.875-5.563-2.125-2.188 0.813-3.438 2.938-3 5.25 0.125 0.563-0.25 1-0.188 1.563 0 0.188-0.188 0.125-0.313 0.188-0.25 0-0.313-0.188-0.375-0.375-0.313-0.75-0.5-1.5-0.5-2.063zM0.5 18.188c0.188-0.938 1.313-1.75 2.5-1.75 0.375 0.063 0.625 0.125 0.625-0.5 0-1.188 0.688-1.938 1.75-2.25 0.938-0.188 1.813 0.188 2.438 1.188 0.313 0.438 0.438 0.313 0.688 0 1.063-1.25 2.625-1 3.125 0.5 0.188 0.563 0.375 0.563 0.813 0.25 0.813-0.563 1.75-0.563 2.563 0.125 0.813 0.563 1.188 1.625 0.875 2.5-0.125 0.313-0.188 0.563-0.563 0.563-1.5-0.188-3 0-4.5-0.063-3.25 0-6.563 0-9.875 0.063-0.438 0-0.563-0.188-0.438-0.625zM27.125 28.125c-0.188 0.375-0.5 0.313-0.813 0.313-6 0-12.063 0-18.063 0-1 0-2 0-3 0-0.375 0.063-0.625-0.125-0.75-0.438-1.25-2.75-2.5-5.5-3.75-8.25-0.313-0.625 0.063-0.563 0.438-0.563 8.625 0 17.25 0 25.875 0 1.313 0 2.688 0 4.125 0-1.375 3.063-2.75 6-4.063 8.938zM25.875 17.625c-0.375 0-0.813 0.125-0.938 0.5-0.188 0.625-0.5 0.75-0.875 0.625-1.188 0-2.188 0-3.188 0.063-0.313 0-0.375-0.188-0.313-0.438 0.25-1.063 0.5-2.125 0.75-3.188 0.125-0.438 0.25-0.438 0.688-0.375 2 0.563 4 1 6 1.5 0.375 0.063 0.5 0.25 0.375 0.563-0.125 0.438-0.188 0.875-0.313 1.313-0.125 0.25-0.125 0.625-0.625 0.625-0.375-0.063-0.625-0.125-0.688-0.563-0.125-0.438-0.5-0.563-0.875-0.625zM26.375 18.563c-0.063 0.313-0.375 0.063-0.563 0.188-0.125-0.125-0.5 0.125-0.5-0.25 0-0.25 0.188-0.5 0.5-0.438 0.313 0 0.563 0.25 0.563 0.5zM31.5 18.438c-0.063 0.188-0.063 0.313-0.313 0.313-0.813 0-1.625-0.063-2.438-0.063-0.25 0-0.375-0.125-0.313-0.375 0.125-0.5 0.188-0.938 0.375-1.438 0.25-0.563 0-0.813-0.563-0.938-1.563-0.375-3.125-0.75-4.688-1.188-0.688-0.125-1.313-0.25-1.938-0.438-0.375-0.125-0.5 0-0.563 0.313-0.25 1-0.563 2.063-0.75 3.063-0.188 0.875-0.313 1.063-1.125 0.938 0.313-0.75 0.75-1.375 0.875-2.125 0.188-1.313 0-2.5-0.688-3.563-0.313-0.438-0.25-0.688 0.063-1 0.688-0.813 1.875-0.813 2.688-0.063 0.313 0.313 0.438 0.313 0.75 0 0.75-0.75 1.688-1 2.688-0.563s1.5 1.25 1.438 2.313c0 0.438 0.125 0.5 0.563 0.438 1.188-0.125 1.813 0.438 1.813 1.688 0 0.438 0.188 0.438 0.5 0.438 1.063 0.063 1.938 1.313 1.625 2.25zM22.875 16c-0.563 0-0.938 0.375-0.938 0.938s0.375 0.875 0.938 0.875c0.563 0.063 0.938-0.313 0.875-0.875 0-0.563-0.313-0.938-0.875-0.938zM22.813 17.438c-0.25-0.063-0.375-0.25-0.375-0.563 0-0.25 0.125-0.438 0.5-0.438 0.313 0.063 0.438 0.25 0.438 0.563s-0.25 0.438-0.563 0.438z"></path>
</svg>
