<?xml version="1.0" encoding="utf-8"?>
<!DOCTYPE svg PUBLIC "-//W3C//DTD SVG 1.1//EN" "http://www.w3.org/Graphics/SVG/1.1/DTD/svg11.dtd">
<svg version="1.1" xmlns="http://www.w3.org/2000/svg" xmlns:xlink="http://www.w3.org/1999/xlink" width="32" height="32" viewBox="0 0 32 32">
<path d="M25.063 9.563c-2.125-1.438-4.938-1.563-7.938-0.375 0.563-0.875 1.313-1.938 2.25-3.063 0.938-1 2.75-2.438 2.813-2.438 0.125-0.125 0.25-0.313 0.25-0.5-0.063-0.188-0.188-0.313-0.375-0.438l-2.25-1.063c-0.375-0.188-0.875-0.063-1.188 0.313 0 0-1 1.563-2.375 4.625 0-0.375 0.063-2.875-1.75-4.688-1.938-1.938-4.625-1.688-4.688-1.688-0.438 0-0.813 0.375-0.875 0.813 0 0.125-0.188 2.813 1.688 4.75 1.563 1.563 3.688 1.688 4.438 1.688 0.188 0 0.313 0 0.313 0 0.25 0 0.438-0.125 0.563-0.25-0.25 0.625-0.563 1.313-0.813 2-2.875-1.188-5.75-1.063-8.063 0.438-2.375 1.5-3.75 4.25-3.75 7.563 0 4.625 2.5 11.25 6.5 13.813 1.938 1.313 4.063 1.5 6.188 0.563 0.938 0.438 1.875 0.625 2.813 0.625 1.25 0 2.438-0.375 3.563-1.125 3.938-2.625 6.313-9.125 6.313-13.875 0-3.438-1.313-6.188-3.625-7.688zM15.875 6.625c0 0.25-0.25 0.5-0.5 0.563-0.063 0-2.688 0.188-4.5-1.625-1.75-1.813-1.563-4.438-1.563-4.438 0-0.313 0.25-0.5 0.5-0.563 0 0 0.125 0 0.25 0 0.688 0 2.688 0.125 4.188 1.625 1.813 1.813 1.625 4.438 1.625 4.438zM22.188 30.813c-1.875 1.25-3.938 1.438-6.125 0.5l-0.063-0.063-0.063 0.063c-2.063 0.875-4.063 0.688-5.938-0.5-3.938-2.563-6.313-9.063-6.313-13.563 0-3.188 1.313-5.813 3.563-7.25 2.25-1.5 5.125-1.563 7.875-0.313l0.188 0.063 0.063-0.188c1.938-4.938 3.563-7.313 3.563-7.375 0.188-0.188 0.5-0.25 0.75-0.188l2.25 1.063c0.063 0.063 0.125 0.125 0.125 0.188s-0.063 0.125-0.125 0.188c-0.063 0.063-1.875 1.375-2.813 2.5-1.125 1.313-2 2.625-2.563 3.563l-0.313 0.438 0.563-0.188c3-1.375 5.875-1.313 8.063 0.125s3.438 4.063 3.438 7.375c0 4.688-2.25 11.063-6.125 13.563z"></path>
</svg>
