<?xml version="1.0" encoding="utf-8"?>
<!DOCTYPE svg PUBLIC "-//W3C//DTD SVG 1.1//EN" "http://www.w3.org/Graphics/SVG/1.1/DTD/svg11.dtd">
<svg version="1.1" xmlns="http://www.w3.org/2000/svg" xmlns:xlink="http://www.w3.org/1999/xlink" width="32" height="32" viewBox="0 0 32 32">
<path d="M31.438 18c-0.813-1.313-2.125-1.688-3.563-1.688-4 0-7.938 0-11.938 0 0 0 0 0 0 0-3.875 0-7.813 0-11.688 0-1.063 0-2.125 0.063-2.938 0.813-0.75 0.688-1.5 1.5-0.688 2.5 0.813 0.875 1.688 0.375 2.375-0.375 0.75-0.813 1.438-0.875 2.188 0 0.875 1.063 1.75 1 2.625 0 0.75-0.875 1.438-0.75 2.188 0.063 0.813 1 1.688 0.938 2.5 0 0.75-0.875 1.438-0.938 2.188-0.063 0.875 1 1.75 1.063 2.625 0 0.75-0.813 1.438-0.875 2.188 0 0.813 0.938 1.688 1.063 2.563 0.063 0.75-0.875 1.438-0.875 2.25 0 0.563 0.688 1.375 1.125 2.125 0.313 1.125-1.313 2.063-1.125 3.125 0.063 0.5 0.563 1.188 0.5 1.75 0.063 0.563-0.5 0.438-1.188 0.125-1.75zM31.063 19.438c-0.5 0.375-0.938 0.313-1.375-0.063-0.125-0.125-0.25-0.25-0.375-0.375-0.875-1-1.813-1.063-2.688-0.063-0.75 1-1.5 0.875-2.188 0-0.875-1-1.688-0.938-2.563 0-0.688 0.813-1.375 1-2.125 0.063-0.875-1.063-1.75-1.063-2.625-0.063-0.813 0.938-1.5 0.875-2.25 0-0.813-1-1.688-1-2.5 0-0.813 0.938-1.5 0.875-2.25 0-0.875-1-1.75-0.938-2.563 0-0.75 0.938-1.438 0.875-2.25 0-0.813-1-1.688-0.938-2.5 0-0.188 0.188-0.375 0.375-0.625 0.563-0.438 0.313-0.875 0.25-1.25-0.063-0.375-0.375-0.313-0.75-0.125-1.125 0.625-1.188 1.625-1.625 2.813-1.625 4.188 0 8.375 0 12.5 0 4.063 0 8.063 0 12.125 0 1.188 0 2.125 0.438 2.813 1.438 0.313 0.375 0.5 0.875 0 1.313zM4.625 15.25c3.813 0 7.563 0 11.375 0 3.875 0 7.813 0 11.688 0 0.938 0 1.313-0.188 1.063-1.25-0.438-2.25-1.813-3.875-3.625-5.125-5-3.5-13.063-3.563-18.125-0.063-1.75 1.125-3.125 2.625-3.625 4.813-0.375 1.563-0.375 1.625 1.25 1.625zM3.75 13.5c0.625-2 1.875-3.375 3.563-4.5 5-3.375 12.938-3.25 17.813 0.25 1.563 1.125 2.688 2.563 3.188 4.5 0.25 0.75 0.125 1.125-0.875 1.125-3.813-0.063-7.563 0-11.375 0-3.75 0-7.5-0.063-11.25 0-1.125 0-1.375-0.375-1.063-1.375zM27.688 21.063c-3.875 0.063-7.75 0-11.625 0 0 0 0 0 0 0-4 0-7.938 0-11.938 0-0.375 0-0.813-0.188-1 0.438-0.625 2.438 0.938 4.563 3.438 4.625 6.125 0 12.25-0.125 18.375 0 3.063 0.063 3.688-1 3.938-3.813 0.063-0.875-0.125-1.313-1.188-1.25zM28.438 22.625c-0.125 2.375-0.875 3.188-3.25 3.188-6.188 0-12.375 0-18.5 0-2.313 0-3.625-1.688-3.063-3.938 0.188-0.875 0.875-0.5 1.313-0.5 3.688-0.063 7.375 0 11.125 0 0 0 0 0 0 0 3.688 0 7.375 0.063 11.063 0 1.063-0.063 1.375 0.188 1.313 1.25z"></path>
</svg>
