<?xml version="1.0" encoding="utf-8"?>
<!DOCTYPE svg PUBLIC "-//W3C//DTD SVG 1.1//EN" "http://www.w3.org/Graphics/SVG/1.1/DTD/svg11.dtd">
<svg version="1.1" xmlns="http://www.w3.org/2000/svg" xmlns:xlink="http://www.w3.org/1999/xlink" width="32" height="32" viewBox="0 0 32 32">
<path d="M14.438 17.875c-0.313-0.5-0.75-0.938-1.25-1.313s-1.063-0.625-1.688-0.813c0.938-0.438 1.75-1.125 2.313-2.063s0.813-1.938 0.813-3c0-0.688-0.125-1.375-0.313-2.063-0.25-0.625-0.625-1.25-1-1.75-0.438-0.563-1-0.938-1.625-1.313-0.563-0.313-1.25-0.5-2-0.5h-9.688v21.875h10.125c0.75 0 1.438-0.188 2.125-0.5 0.625-0.313 1.188-0.688 1.688-1.25 0.5-0.5 0.875-1.063 1.188-1.75s0.438-1.438 0.438-2.188c0-0.625-0.125-1.188-0.25-1.813-0.188-0.563-0.5-1.063-0.875-1.563zM0.625 5.688h9.063c0.625 0 1.188 0.125 1.75 0.438 0.5 0.25 1 0.625 1.375 1.063 0.375 0.5 0.688 1 0.875 1.625 0.25 0.563 0.313 1.188 0.313 1.875 0 0.563-0.063 1.188-0.313 1.75-0.25 0.625-0.563 1.125-0.938 1.625-0.375 0.438-0.875 0.813-1.438 1.125-0.563 0.25-1.188 0.438-1.813 0.438h-8.875zM14.563 23.125c-0.25 0.625-0.563 1.125-1 1.625-0.438 0.438-1 0.813-1.563 1.125s-1.188 0.438-1.875 0.438h-9.5v-10.063h9.688c0.688 0 1.313 0.125 1.875 0.375 0.563 0.313 1 0.688 1.438 1.125 0.438 0.5 0.75 1 0.938 1.625 0.25 0.625 0.375 1.25 0.375 1.875s-0.125 1.25-0.375 1.875zM29.75 13.125c-0.688-0.75-1.5-1.313-2.438-1.75s-1.938-0.625-3-0.625c-1.063 0-2 0.188-2.938 0.625-0.875 0.375-1.688 1-2.375 1.688-0.688 0.75-1.25 1.625-1.625 2.625-0.375 0.938-0.563 2-0.563 3.125 0 1.188 0.188 2.25 0.563 3.25 0.438 1.063 1 1.938 1.688 2.688s1.5 1.375 2.438 1.813c0.938 0.438 1.938 0.688 3 0.688 0.688 0 1.375-0.125 2-0.313 0.688-0.188 1.313-0.438 1.875-0.813 0.563-0.313 1.063-0.75 1.438-1.188 0.438-0.438 0.75-0.938 1-1.5l-0.563-0.188c-0.25 0.5-0.563 0.938-0.938 1.375-0.375 0.375-0.875 0.75-1.375 1.063s-1.063 0.5-1.625 0.688c-0.563 0.188-1.188 0.25-1.813 0.25-0.938 0-1.813-0.188-2.625-0.563s-1.563-0.938-2.188-1.563c-0.625-0.688-1.188-1.438-1.563-2.313s-0.625-1.875-0.75-2.875h14.625v-0.375c0-1.125-0.188-2.188-0.625-3.188-0.375-1-0.938-1.875-1.625-2.625zM17.375 18.688c0.063-1.063 0.313-2 0.688-2.938 0.375-0.875 0.875-1.688 1.5-2.313 0.625-0.688 1.313-1.188 2.125-1.563s1.75-0.563 2.688-0.563c0.938 0 1.813 0.188 2.625 0.563s1.563 0.875 2.188 1.563c0.625 0.625 1.125 1.375 1.5 2.313 0.375 0.875 0.625 1.875 0.688 2.938zM31.813 7.688h-14c-0.125 0-0.188 0.063-0.188 0.188v0.188c0 0.063 0.063 0.188 0.188 0.188h14c0.125 0 0.188-0.125 0.188-0.188v-0.188c0-0.125-0.063-0.188-0.188-0.188z"></path>
</svg>
