<?xml version="1.0" encoding="utf-8"?>
<!DOCTYPE svg PUBLIC "-//W3C//DTD SVG 1.1//EN" "http://www.w3.org/Graphics/SVG/1.1/DTD/svg11.dtd">
<svg version="1.1" xmlns="http://www.w3.org/2000/svg" xmlns:xlink="http://www.w3.org/1999/xlink" width="32" height="32" viewBox="0 0 32 32">
<path d="M29.5 8.813c0-0.938-0.313-1.313-1.313-1.313-1.188-0.063-2.313 0-3.5 0-0.313-0.063-0.75 0.063-0.688-0.5 0.063-0.438 0-0.938 0.688-0.938s1.5 0.313 1.875-0.188c0.438-0.5 0.125-1.313 0.188-2 0-0.063 0-0.063 0-0.125 0.125-0.75-0.188-1-0.938-1-2 0.063-3.938 0-5.875 0-1.688 0-1.75 0-1.75-1.688 0.063-0.688-0.25-0.875-0.875-0.813-1.5 0-3 0-4.5 0-1.75 0-1.813 0-1.813 1.813 0 0.625-0.25 0.688-0.813 0.688-2.125 0-4.188 0-6.313 0-1.563 0-1.375-0.125-1.375 1.438-0.063 1.875 0 1.875 1.813 1.875 0.5 0 0.75 0.125 0.813 0.75 0.5 4.688 1 9.438 1.438 14.188 0.125 1.438 0.438 1.313-1.188 1.313-1.5 0-2.188 0.625-2.188 2.063 0 1.375 0 2.688 0.063 4.063 0 1.438 0.5 2 1.938 1.938 0.75-0.063 1.063 0.188 0.938 1-0.125 0.625 0.188 0.875 0.875 0.875 0.875-0.063 1.75-0.063 2.625 0 0.813 0.063 1.188-0.188 1.063-1.063-0.125-0.688 0.188-0.813 0.875-0.813 1.938 0 3.875 0.063 5.875 0 0.813-0.063 1.188 0.188 1.063 1.063-0.063 0.625 0.25 0.813 0.875 0.813 0.938-0.063 1.938-0.063 2.875 0 0.563 0 0.75-0.188 0.75-0.75-0.063-1.313 0-1.125 1.188-1.125s1.688-0.5 1.75-1.688c0-1.563 0-3.125 0-4.688 0-1.063-0.563-1.625-1.625-1.688-0.438-0.063-0.875-0.063-1.313 0-0.438 0-0.563-0.188-0.5-0.625 0.125-0.75 0.25-1.5 0.25-2.25 0.063-0.563 0.25-0.688 0.75-0.688 1.563 0 3.063 0 4.625 0 1 0 1.375-0.375 1.375-1.375 0.063-1.438 0-2.813 0-4.25 0 0 0.063 0 0.063 0 0-1.438 0-2.875-0.063-4.313zM12.75 0.688c1.375 0 2.813 0.063 4.188 0 0.625 0 0.813 0.188 0.813 0.813-0.063 1.5 0.125 1.25-1.25 1.25-0.313 0-0.625 0-1 0-0.313 0-0.625 0-0.938 0-0.813 0-1.625 0-2.438 0-0.5 0.063-0.688-0.125-0.688-0.625-0.063-1.438-0.063-1.438 1.313-1.438zM3.875 5.625c-0.688 0-1-0.125-0.938-0.938 0.063-1.438 0-1.438 1.438-1.438 6.938 0 13.875 0 20.875 0 0.813 0 1.125 0.188 1 1 0 0.188 0 0.375 0 0.5 0.125 0.75-0.25 0.875-0.875 0.875-3.563 0-7.188 0-10.75 0s-7.125 0-10.75 0zM27.25 15.813c0 0.5-0.125 0.688-0.625 0.625-1 0-2 0-3 0-0.438 0.063-0.563-0.125-0.5-0.563 0.188-1.875 0.375-3.75 0.563-5.625 0-0.313 0.125-0.5 0.5-0.5 0.875 0 1.688 0 2.563 0 0.438 0 0.5 0.25 0.5 0.625 0 0.875 0 1.813 0 2.688 0 0.938 0 1.813 0 2.75zM9.438 31.75c-0.75 0-1.438 0-2.125 0-0.5 0-0.75-0.125-0.688-0.688 0-0.5 0.125-0.75 0.625-0.688 0.438 0.063 0.813 0 1.188 0 0.313 0 0.625 0 0.938 0 0.563-0.063 0.875 0.063 0.875 0.688-0.063 0.688-0.375 0.688-0.813 0.688zM21.75 31.75c-0.75-0.063-1.5-0.063-2.25 0-0.563 0-0.5-0.375-0.5-0.75s0-0.688 0.5-0.625c0.438 0 0.875 0 1.313 0 0.313 0 0.625 0 0.938 0 0.438 0 0.813-0.063 0.813 0.625 0 0.625-0.25 0.75-0.813 0.75zM23.875 22.813c1.313 0 1.563 0.25 1.563 1.5 0 1.438 0 2.875 0 4.313 0 0.938-0.375 1.25-1.25 1.25-6.375 0.063-12.75 0-19.125 0-1 0-1.375-0.375-1.375-1.313 0-1.438 0-2.875 0-4.375 0-1.063 0.375-1.375 1.438-1.375 3.188 0 6.313 0 9.5 0 0 0 0 0 0 0 3.063 0 6.188-0.063 9.25 0zM22.063 21.563c-0.063 0.563-0.25 0.75-0.813 0.75-4.438 0-8.938 0-13.375 0-0.5 0-0.688-0.188-0.75-0.75-0.375-2.563-0.563-5.188-0.875-7.75-0.25-2.375-0.438-4.688-0.688-7.063-0.063-0.5 0.125-0.688 0.688-0.688 2.75 0.063 5.563 0 8.313 0 0 0 0 0 0 0 2.813 0 5.563 0.063 8.313 0 0.563 0 0.75 0.188 0.688 0.75-0.25 2.313-0.5 4.688-0.688 7-0.313 2.625-0.563 5.188-0.813 7.75zM29.063 17.25c0 0.75-0.313 1.063-1 1.063-1.5-0.063-3 0-4.5 0-0.313 0-0.75 0.125-0.625-0.438 0.063-0.375-0.125-1 0.625-0.938 1.125 0 2.188-0.063 3.313 0 0.625 0 0.938-0.125 0.875-0.875 0-2 0-3.938 0-5.938 0-0.625-0.188-0.875-0.813-0.875-0.875 0.063-1.688 0-2.563 0-0.375 0.063-0.625-0.063-0.563-0.5 0.063-0.313-0.063-0.813 0.563-0.813 1.313 0 2.625 0 4 0 0.625 0.063 0.688 0.5 0.688 1 0 1.375 0 2.75 0 4.125 0 0 0 0 0 0 0 1.438 0 2.813 0 4.188zM20.813 14.438c-1.5 1.375-3.063 1.563-4.813 0.5-0.5-0.25-0.938-0.688-1.438-1.063-1.25-1.125-2.75-1.313-4.313-0.625-1.625 0.688-2.375 2.125-2.375 3.75 0 1.063 0.188 2.125 0.25 3.188 0.063 0.625 0.313 0.813 0.938 0.813 1.813 0 3.688 0 5.5 0 0 0 0 0 0 0 1.875 0 3.75 0 5.563 0 0.563 0 0.813-0.125 0.875-0.688 0.188-1.875 0.375-3.688 0.563-5.563 0.063-0.188 0.188-0.563-0.063-0.688-0.313-0.188-0.5 0.188-0.688 0.375zM20.563 20c-0.063 0.438-0.25 0.563-0.625 0.563-3.563-0.063-7.125-0.063-10.688-0.063-0.25 0-0.563 0.063-0.563-0.313 0-1.125-0.5-2.25-0.438-3.438 0.125-1.438 0.938-2.5 2.25-3.063 1.25-0.625 2.5-0.438 3.563 0.375 0.5 0.375 0.875 0.75 1.375 1.125 1.688 1.188 3.438 1.188 5.188 0.063 0.125-0.063 0.188-0.125 0.438-0.25-0.188 1.75-0.375 3.375-0.5 5zM18.438 12.25c0.375 0 0.813 0 1.188 0s0.813 0 1.188 0c0.125 0 0.313 0 0.313-0.188 0.063-0.25-0.125-0.25-0.313-0.25-0.813 0-1.625 0-2.375 0-0.188 0-0.313 0-0.313 0.188-0.063 0.25 0.125 0.25 0.313 0.25zM20.875 10.188c0.188 0 0.313-0.063 0.25-0.25 0-0.125-0.125-0.188-0.25-0.188-0.375 0-0.813 0-1.25 0s-0.875 0-1.25 0c-0.188 0-0.313 0.125-0.25 0.313 0 0.125 0.125 0.125 0.25 0.125 0.813 0.063 1.688 0.063 2.5 0zM18.375 8.188c0.813 0 1.688 0 2.5 0 0.125 0 0.25-0.063 0.25-0.25 0-0.125-0.125-0.25-0.25-0.25-0.438 0-0.813 0-1.188 0 0 0 0 0 0 0-0.438 0-0.875 0-1.313 0-0.125 0-0.25 0.125-0.313 0.25 0 0.188 0.188 0.25 0.313 0.25zM10.688 23.813c-1.438 0-2.563 1.125-2.563 2.563 0 1.375 1.125 2.5 2.5 2.5 1.438 0 2.563-1.125 2.5-2.563 0-1.375-1.125-2.5-2.438-2.5zM10.688 28.375c-1.188 0-2.063-0.875-2.063-2.063 0-1.063 0.875-2 1.938-2.063 1.063 0 2.125 1 2.125 2.063 0.063 1.125-0.875 2.063-2 2.063zM20.5 28.5c0.688 0.063 1.25-0.438 1.25-1.063 0.063-0.625-0.438-1.125-1.063-1.188s-1.188 0.438-1.25 1.063c-0.063 0.563 0.438 1.188 1.063 1.188zM20.563 26.75c0.438 0 0.688 0.188 0.75 0.625 0 0.375-0.25 0.625-0.688 0.625s-0.625-0.25-0.688-0.563c0.063-0.438 0.25-0.688 0.625-0.688zM16.625 28.5c0.688 0.063 1.188-0.438 1.188-1.063 0.063-0.625-0.438-1.125-1.063-1.188-0.688 0-1.25 0.5-1.25 1.125s0.5 1.125 1.125 1.125zM16.688 26.75c0.375 0 0.625 0.25 0.625 0.625 0.063 0.375-0.188 0.625-0.625 0.625-0.438 0.063-0.688-0.188-0.688-0.625 0-0.375 0.313-0.625 0.688-0.625z"></path>
</svg>
