<?xml version="1.0" encoding="utf-8"?>
<!DOCTYPE svg PUBLIC "-//W3C//DTD SVG 1.1//EN" "http://www.w3.org/Graphics/SVG/1.1/DTD/svg11.dtd">
<svg version="1.1" xmlns="http://www.w3.org/2000/svg" xmlns:xlink="http://www.w3.org/1999/xlink" width="32" height="32" viewBox="0 0 32 32">
<path d="M30.688 16.313c-0.063-1.688-0.813-2.938-2.313-3.625-1.625-0.75-3.188-0.438-4.688 0.75 0.063-0.938 0.125-1.75-0.188-2.563-0.188-0.313-0.063-0.563 0.125-0.813 1.813-2.25 3.563-4.438 5.375-6.625 0.438-0.563 0.688-1.188 0.5-1.875-0.25-0.688-0.75-1.125-1.438-1.313-0.75-0.125-1.375 0.125-1.813 0.688-1.688 2.063-3.313 4.063-4.938 6.125-0.5 0.625-0.875 1-1.875 0.938-2.438-0.125-4.25 1.188-5.625 3.125-0.125 0.188-0.188 0.438-0.438 0.5-0.063-0.063-0.125-0.125-0.125-0.188-1-1.5-2.625-2.25-4.25-1.875-1.688 0.313-2.875 1.563-3.188 3.313-0.063 0.375-0.188 0.438-0.5 0.313-1.875-0.375-3.625 0.75-3.875 2.625-0.313 1.75-0.125 3.5 0.313 5.188 1.438 6.125 6.375 10.5 12.625 11.125 4.563 0.5 8.563-0.813 11.938-4 3.313-3.25 4.625-7.25 4.375-11.813zM21.063 8c1.813-2.25 3.625-4.5 5.5-6.75 0.438-0.563 1.063-0.75 1.688-0.5 0.563 0.25 0.875 0.75 0.875 1.375 0 0.375-0.125 0.688-0.375 0.938-1.813 2.25-3.625 4.5-5.438 6.75-0.188 0.25-0.313 0.313-0.563 0.063-0.563-0.438-1.125-0.875-1.688-1.313-0.188-0.188-0.188-0.313 0-0.563zM23.125 14.125c-0.563-0.563-0.938-1.063-0.5-1.813 0.25-0.438 0.25-1 0.313-1.5 0.5 1.063 0.5 2.188 0.188 3.313zM21.125 12c0.313-0.5 0.625-1.063 0.875-1.625 0.063-0.125 0.063-0.313 0.313-0.313 0.125 0.063 0.125 0.25 0.125 0.375 0 0.188 0 0.313 0 0.438 0.063 0.438-0.063 0.813-0.188 1.188-0.188 0.813-0.188 0.813-0.938 0.5-0.375-0.125-0.438-0.25-0.188-0.563zM20.5 12.188c-0.063 0.063-0.188 0.125-0.25 0.125-0.688 0.063-1.313 0.25-1.813 0.625-0.063 0-0.063 0-0.125 0.063-0.125 0-0.125-0.125-0.188-0.188-0.125-0.125-0.125-0.25 0-0.375 0.938-1.063 1.875-2.125 3.063-2.938 0.125-0.063 0.25-0.125 0.438 0 0.125 0.125 0.188 0.25 0.125 0.438-0.313 0.813-0.813 1.5-1.25 2.25zM20.5 8.938c0.25-0.063 0.438-0.063 0.438 0.125 0.063 0.125-0.063 0.188-0.188 0.25-1.063 0.75-1.938 1.688-2.813 2.688-0.188 0.25-0.375 0.313-0.625 0.063 0-0.063-0.125-0.063-0.188-0.125-0.188-0.188-0.688-0.188-0.688-0.438s0.375-0.5 0.625-0.688c0.938-0.875 2-1.625 3.25-1.875 0.125 0 0.188 0 0.188 0zM20.063 8.5c-1 0.313-1.938 0.813-2.688 1.5-0.938 0.75-1.625 1.688-2.938 1.813-0.188 0-0.438 0.188-0.625 0.313 0.688-2.188 3.688-3.938 6.25-3.625zM1.875 15.688c0.375-1.625 2.063-2.5 3.688-1.938 0.438 0.125 0.625 0.188 0.625-0.375 0.063-1.75 1.375-3.188 3-3.438 1.813-0.25 3.375 0.688 4 2.438 0.25 0.625 0.25 0.625 0.75 0.188 1.313-1 3.063-0.75 3.875 0.688 0.25 0.375 0.438 0.375 0.75 0.125 1.5-1.125 3.5-0.563 4.188 1.188 0.063 0.125 0 0.438 0.25 0.438 0.313 0.063 0.313-0.25 0.375-0.438 0.813-1.313 2-1.938 3.5-1.875 1.563 0.125 2.688 1.063 3.25 2.563 0.25 0.75 0.125 0.875-0.625 0.875-2 0-4 0-6 0-2.75 0-5.563 0.063-8.375 0.063-2.5 0-5-0.063-7.5-0.063-1.813 0-3.625 0-5.438 0-0.375 0-0.438-0.063-0.313-0.438zM18.438 31.625c-8.375 1.375-15.313-4.25-16.5-11.813-0.188-0.938-0.188-1.813-0.188-2.75 0-0.375 0.125-0.438 0.438-0.438 1.25 0 2.5-0.063 3.75-0.063 2.5 0 5.063 0 7.625 0 0.813 0 1.688 0 2.5 0 0 0 0 0 0 0 2.25 0 4.5 0 6.75 0 2.375 0 4.688 0.063 7 0 0.375 0 0.438 0.125 0.438 0.5 0.313 7.125-4.688 13.438-11.813 14.563zM12.563 7.25c1.438 0 2.625-1.125 2.563-2.563 0-1.375-1.188-2.563-2.563-2.563s-2.563 1.188-2.563 2.563c0 1.438 1.125 2.563 2.563 2.563zM12.563 2.563c1.188 0 2.188 1 2.125 2.188 0 1.125-1 2.125-2.125 2.125s-2.125-1-2.125-2.188c0-1.188 0.938-2.125 2.125-2.125zM4.438 10.375c0.938 0 1.75-0.813 1.688-1.688 0-0.938-0.813-1.688-1.688-1.688s-1.625 0.75-1.688 1.688c0 0.875 0.813 1.688 1.688 1.688zM4.5 7.438c0.688 0 1.188 0.563 1.188 1.25s-0.563 1.25-1.25 1.25c-0.625 0-1.25-0.563-1.25-1.25s0.625-1.25 1.313-1.25zM26.938 9.125c0 0.75 0.625 1.313 1.375 1.313 0.688-0.063 1.25-0.625 1.25-1.313 0-0.75-0.563-1.313-1.313-1.313s-1.313 0.625-1.313 1.313zM29.125 9.063c0 0.5-0.313 0.875-0.813 0.938-0.563 0-0.938-0.375-0.938-0.875s0.375-0.875 0.875-0.875c0.5 0 0.875 0.375 0.875 0.813zM6.438 23.813c-0.813-1.375-1.375-2.813-1.688-4.313-0.063-0.25-0.063-0.438-0.313-0.5-0.25 0.125-0.188 0.313-0.125 0.5 0.438 2.313 1.438 4.375 2.938 6.25 0.125 0.125 0.25 0.313 0.438 0.188s0-0.313-0.125-0.438c-0.438-0.563-0.813-1.125-1.125-1.688zM27.563 3.125c0.5 0 0.938-0.438 0.938-0.938-0.063-0.438-0.5-0.875-0.938-0.875-0.5 0.063-0.875 0.438-0.875 0.938s0.375 0.875 0.875 0.875zM27.625 1.75c0.25 0 0.375 0.188 0.375 0.438 0 0.313-0.188 0.5-0.438 0.5s-0.438-0.188-0.438-0.5c0.063-0.25 0.188-0.438 0.5-0.438z"></path>
</svg>
