<?xml version="1.0" encoding="utf-8"?>
<!DOCTYPE svg PUBLIC "-//W3C//DTD SVG 1.1//EN" "http://www.w3.org/Graphics/SVG/1.1/DTD/svg11.dtd">
<svg version="1.1" xmlns="http://www.w3.org/2000/svg" xmlns:xlink="http://www.w3.org/1999/xlink" width="32" height="32" viewBox="0 0 32 32">
<path d="M31.5 14c-0.625-2.188-1.938-3.875-3.875-5.063-1-0.563-2.063-0.938-3.188-1.063-0.125 0-0.125-0.063-0.188-0.188 0-0.375-0.063-0.75-0.188-1.063-0.625-2.5-2.063-4.313-4.313-5.5-1.313-0.688-2.688-0.938-4.188-0.875-0.25 0-0.5 0-0.75 0.063-0.25 0-0.5 0.063-0.75 0.125-1.938 0.5-3.563 1.5-4.75 3.125-0.875 1.188-1.438 2.5-1.563 3.938-0.063 0.375-0.063 0.375-0.375 0.375-0.125 0.063-0.188 0.063-0.25 0.063-1.813 0.313-3.313 1.125-4.625 2.438-1.625 1.75-2.375 3.813-2.25 6.188 0 0.25-0.063 0.5 0.063 0.688 0 0.063 0 0.188 0 0.25 0.375 2.063 1.313 3.75 2.938 5.063 1.313 1.125 2.875 1.75 4.563 1.875 0.5 0.063 0.5 0.063 0.563 0.5 0.125 1.063 0.25 2.125 0.375 3.188s0.25 2.125 0.375 3.188c0.063 0.563 0.5 0.938 1.063 0.938 3.875 0 7.75 0 11.625 0 0.563 0 0.938-0.375 1-0.875 0.125-1 0.25-2 0.375-3 0.188-1.25 0.313-2.5 0.5-3.75 0-0.125 0-0.188 0.125-0.188 0.625 0 1.25-0.125 1.875-0.25 2.25-0.688 4-2.063 5.125-4.188 1-1.875 1.188-3.875 0.688-6zM22.375 31.25c0 0.375-0.188 0.563-0.625 0.563-1.688 0-3.313 0-5 0-2.188 0-4.313 0-6.5 0-0.188 0-0.375 0-0.563-0.188-0.063-0.063-0.063-0.188-0.125-0.25-0.063-0.75-0.188-1.5-0.25-2.25 0-0.125 0-0.125 0.125-0.125 0 0 0.063 0 0.125 0 2.125 0 4.313 0 6.438 0s4.313 0 6.438 0c0.188 0 0.25 0 0.25 0.25-0.125 0.688-0.188 1.313-0.313 2zM28.375 22.25c-1.063 0.938-2.375 1.5-3.875 1.688-0.25 0.063-0.563 0.063-0.875 0.125-0.25 0-0.313 0.063-0.375 0.25-0.063 0.688-0.125 1.375-0.25 2.063-0.063 0.688-0.188 1.375-0.25 2.063 0 0.063-0.063 0.125-0.125 0.125-0.125 0-0.25 0-0.313 0-3 0-5.938 0-8.875 0-1.313 0-2.688 0-4 0-0.188 0-0.188-0.063-0.25-0.25-0.125-1-0.25-2-0.375-3-0.063-0.313-0.063-0.625-0.125-0.938 0-0.25-0.063-0.313-0.313-0.313-2.688-0.188-4.813-1.313-6.375-3.5-0.688-1.063-1.125-2.25-1.313-3.5 0-0.063 0-0.125-0.063-0.125 0.063-0.313 0-0.625 0-0.938 0.125-2.625 1.25-4.75 3.375-6.313 1-0.75 2.188-1.188 3.5-1.375 0.125 0 0.125 0.063 0.188 0.188 0 1.063 0.125 2.125 0.563 3.188 0 0 0 0 0 0 0.063 0.188 0.188 0.313 0.313 0.25 0.188-0.125 0.188-0.25 0.125-0.375-0.125-0.313-0.25-0.625-0.313-0.938-0.625-2.375-0.25-4.625 1.188-6.625 1.25-1.75 3-2.875 5.125-3.25 0.188 0 0.313 0 0.5-0.063 0.375 0 0.688-0.063 1.063 0 2.688 0.125 4.75 1.25 6.25 3.438 0.625 0.875 1 1.875 1.25 2.875 0.063 0.313 0.063 0.625 0.125 0.938 0 0.188 0.063 0.313 0.25 0.313 0.563 0.063 1.063 0.188 1.563 0.313 0.813 0.25 1.625 0.625 2.313 1.125 1.625 1.188 2.688 2.75 3.125 4.688 0.688 3.125-0.313 5.813-2.75 7.875zM20 22.875c-0.125 0-0.188 0.063-0.25 0.188 0 0.063 0 0.125 0 0.188-0.188 1.125-0.375 2.313-0.563 3.5-0.063 0.188 0 0.313 0.125 0.313 0.188 0.063 0.25-0.063 0.313-0.25 0.125-0.75 0.25-1.5 0.313-2.25 0.125-0.438 0.188-0.938 0.25-1.375 0-0.188-0.063-0.313-0.188-0.313zM12.438 24.25c-0.125-0.375-0.188-0.813-0.25-1.188 0-0.125-0.063-0.188-0.188-0.188s-0.188 0.125-0.188 0.25c0 0.063 0 0.125 0 0.188 0.063 0.438 0.125 0.813 0.188 1.188 0.125 0.813 0.25 1.625 0.375 2.375 0 0.125 0.125 0.25 0.25 0.188 0.125 0 0.188-0.063 0.188-0.188 0-0.063 0-0.063 0-0.125-0.125-0.813-0.25-1.625-0.375-2.5zM16.188 22.813c0-0.125-0.125-0.188-0.188-0.125-0.125 0-0.188 0.063-0.188 0.125-0.063 0.063-0.063 0.125-0.063 0.188 0 1.188 0 2.438 0 3.625 0 0.125 0 0.188 0.063 0.313 0 0.125 0.063 0.125 0.188 0.125s0.188 0 0.188-0.125c0-0.063 0-0.125 0-0.188 0-0.625 0-1.25 0-1.875s0-1.25 0-1.875c0-0.063 0-0.125 0-0.188z"></path>
</svg>
