<?xml version="1.0" encoding="utf-8"?>
<!DOCTYPE svg PUBLIC "-//W3C//DTD SVG 1.1//EN" "http://www.w3.org/Graphics/SVG/1.1/DTD/svg11.dtd">
<svg version="1.1" xmlns="http://www.w3.org/2000/svg" xmlns:xlink="http://www.w3.org/1999/xlink" width="32" height="32" viewBox="0 0 32 32">
<path d="M5.188 25.313c1.438 0 2.875 0.063 4.313 0.063 1.188 0 2.313 0 3.5-0.063 0.875 0 1.813 0 2.75 0 0 0 0 0 0 0s0.063 0 0.125 0c0.188 0.063 0.438 0.063 0.688-0.125l0.063-0.125-0.063-0.063c-1.375-1.313-2.063-3-1.938-4.75 0.063-1.688 1-3.313 2.563-4.438 0.5-0.313 0.938-0.625 1.438-1l0.688-0.438-0.063-0.125c0 0 0-0.063 0-0.063 0-0.063 0-0.063-0.063-0.125h-0.063c-0.063-0.063-0.125-0.125-0.188-0.188-5.313-2-9.938-1.625-14.125 1.125-1.938 1.313-3.188 2.938-3.813 5-0.438 1.438 0.125 2.563 0.625 3.313 0.813 1.125 2.313 1.938 3.563 2zM1.25 20.063c0.625-2 1.813-3.563 3.688-4.813 2.375-1.563 4.875-2.375 7.625-2.375 1.938 0 4.063 0.438 6.25 1.25 0.063 0.063 0.125 0.063 0.188 0.125l-0.563 0.375c-0.438 0.313-0.938 0.688-1.375 1-1.625 1.188-2.625 2.813-2.75 4.625-0.125 1.75 0.563 3.438 1.938 4.813-0.063 0.063-0.188 0-0.313 0-0.063 0-0.125 0-0.188 0 0 0 0 0 0 0-0.938 0-1.875 0-2.75 0-2.563 0.063-5.25 0.063-7.813 0-1.188-0.063-2.563-0.813-3.375-1.938-0.438-0.625-0.938-1.688-0.563-3.063zM30.938 26.313c-0.188-0.063-0.375-0.063-0.563-0.063-0.063 0-0.125 0-0.188 0h-17.75c-3.625 0-7.25 0-10.875 0-0.313 0-1.313 0-1.313 1.063-0.063 0.25 0.063 0.5 0.188 0.688 0.25 0.25 0.688 0.25 1 0.25 0.063 0 0.125 0 0.188 0 0.375 0 0.5 0 0.5 0.25 0.25 1.688 1.563 2.188 2.813 2.563 2.375 0.875 4.875 1.063 7 1.125 1.625 0 3.188 0.063 4.813 0.063 2.313 0 4.688-0.125 7-0.438 1.5-0.188 3.063-0.5 4.563-1.25 0.625-0.313 1.313-0.688 1.375-1.438 0.125-0.75 0.375-0.938 1.125-0.875 0.563 0.063 0.938-0.313 0.938-0.875 0.063-0.563-0.25-0.938-0.813-1.063zM30.813 28c-0.688-0.063-1.25 0.125-1.375 1.063-0.063 0.625-0.688 1-1.25 1.313-1.438 0.688-3 1-4.438 1.188-4 0.563-7.938 0.438-11.813 0.313-2.063-0.063-4.563-0.188-6.938-1.063-1.188-0.375-2.375-0.813-2.563-2.313-0.063-0.438-0.438-0.5-0.688-0.5-0.063 0-0.125 0-0.125 0-0.063 0-0.125 0-0.188 0-0.25 0-0.625 0-0.813-0.188-0.125-0.125-0.125-0.313-0.125-0.5 0-0.563 0.313-0.813 1.063-0.813 0 0 0 0 0 0 3.625 0 7.25 0 10.875 0h17.75c0.063 0 0.125 0 0.188 0 0.188 0 0.313 0 0.5 0.063 0.438 0.063 0.688 0.375 0.625 0.813 0 0.438-0.25 0.625-0.688 0.625zM17.063 17.063c-1.313 1.625-1.563 3.563-0.563 5.563 0.875 1.875 2.5 2.875 4.688 3.063v0h0.063c1.875-0.125 3.313-0.875 4.313-2.25 2.313-3.25 3.375-6.563 3.375-10.063 0-0.938 1-2.125 1.875-2.313 0.563-0.063 0.875-0.375 0.938-0.875 0.125-0.563-0.125-1.063-0.563-1.188-0.375-0.125-0.5-0.313-0.75-0.625l-0.063-0.063c-0.313-0.375-0.75-0.5-1.188-0.375-0.5 0.188-0.75 0.563-0.813 1.063-0.063 1.25-0.875 2.188-2.063 2.438-3.688 0.875-6.813 2.75-9.25 5.625zM26.375 11.688c1.313-0.313 2.188-1.313 2.25-2.688 0.063-0.375 0.25-0.688 0.688-0.813 0.063-0.063 0.188-0.063 0.25-0.063 0.313 0 0.5 0.188 0.625 0.375l0.063 0.063c0.188 0.25 0.438 0.563 0.875 0.688s0.438 0.625 0.375 0.875c-0.063 0.438-0.25 0.625-0.688 0.688-1.063 0.188-2.188 1.5-2.125 2.563 0 3.438-1.063 6.688-3.313 9.875-0.938 1.375-2.313 2.063-4.188 2.125-2.125-0.125-3.625-1.125-4.438-2.875-0.938-1.875-0.75-3.688 0.563-5.25 2.375-2.813 5.438-4.688 9.063-5.563zM15.438 9.25l-0.188 0.5 0.438-0.375c1.563-1.313 1.75-2.875 0.563-4.438-0.875-1.125-1.563-2.438-0.938-4.125l0.25-0.563-0.438 0.438c-1.5 1.5-1.625 2.688-0.438 4.25 1 1.375 1.5 2.625 0.75 4.313zM14.875 1.313c-0.313 1.5 0.375 2.688 1.188 3.813 0.938 1.25 0.875 2.563-0.188 3.688 0.5-1.625-0.188-2.938-1-4-0.938-1.313-0.938-2.313 0-3.5zM12.438 7.75c0.25 0.375 0.5 0.75 0.438 1.25 0 0.125 0.125 0.375 0.25 0.438 0.063 0 0.063 0 0.125 0 0.188 0 0.313-0.125 0.375-0.25 0.563-0.625 0.563-1.375-0.063-2.188-0.375-0.5-0.688-1-0.563-1.813l0.063-0.313-0.25 0.188c-1 0.75-1.125 1.375-0.625 2.313 0.063 0.125 0.188 0.25 0.25 0.375zM12.75 5.438c-0.063 0.75 0.25 1.25 0.625 1.75 0.5 0.688 0.563 1.313 0.063 1.875-0.125 0.125-0.188 0.125-0.188 0.125-0.063 0-0.125-0.125-0.125-0.188 0.063-0.563-0.188-1-0.5-1.438-0.063-0.063-0.125-0.188-0.188-0.313-0.438-0.688-0.375-1.188 0.313-1.813z"></path>
</svg>
