<?xml version="1.0" encoding="utf-8"?>
<!DOCTYPE svg PUBLIC "-//W3C//DTD SVG 1.1//EN" "http://www.w3.org/Graphics/SVG/1.1/DTD/svg11.dtd">
<svg version="1.1" xmlns="http://www.w3.org/2000/svg" xmlns:xlink="http://www.w3.org/1999/xlink" width="32" height="32" viewBox="0 0 32 32">
<path d="M26.813 14.75c-0.125-1.125-0.813-2-1.625-2.688-0.188-0.188-0.25-0.313-0.063-0.563 0.75-1.125 0.625-2.25-0.125-3.313-0.688-1.063-1.75-1.75-3-2.25-0.313-0.063-0.688-0.125-0.938-0.313-0.25-0.25 0.063-0.625 0.063-0.875-0.063-0.875-0.375-1.5-0.875-2.063-0.938-1.063-2.063-1.75-3.313-2.375-0.313-0.188-0.438-0.125-0.5 0.25-0.125 1.125-0.813 1.813-1.875 2.25-0.313 0.125-0.625 0.25-0.938 0.375-0.813 0.438-1.375 1.063-1.375 2 0 0.25-0.125 0.313-0.375 0.375-1.438 0.188-2.813 0.563-3.938 1.563-1.188 1-1.813 2.313-1.375 3.813 0.188 0.813 0.063 1.25-0.438 1.875-1.063 1.25-1.563 3.813 0.188 5.063 0.5 0.375 1.063 0.563 1.688 0.688 0.375 0.063 0.563 0.25 0.75 0.563 2.313 4.25 4.625 8.438 6.875 12.688 0.125 0.188 0.125 0.438 0.375 0.438s0.313-0.25 0.375-0.438c2.125-3.813 4.188-7.625 6.25-11.5 0.5-0.938 1-1.813 2.188-2.063 0 0 0 0 0.063 0 1.25-0.813 2.125-1.875 1.938-3.5zM13.563 3.75c0.438-0.25 0.938-0.438 1.438-0.688 0.875-0.375 1.5-1 1.75-1.938 0.063-0.25 0.125-0.375 0.5-0.188 0.938 0.563 1.875 1.125 2.688 2 0.438 0.5 0.75 1.063 0.688 2.125 0 1.813-2 3.5-4.313 3.313-0.563-0.063-1.125-0.125-1.688-0.375-1.125-0.438-1.75-1.313-1.938-2.5-0.063-0.75 0.188-1.375 0.875-1.75zM7.063 9.125c0.25-0.813 0.813-1.5 1.563-2 1-0.688 2.125-1 3.313-1.125 0.25 0 0.438-0.063 0.5 0.25 0.438 1.438 1.563 2.188 3 2.438 1.5 0.25 2.875 0.125 4.125-0.875 0.5-0.375 0.875-0.875 1.125-1.438 0.125-0.25 0.25-0.313 0.5-0.25 1.25 0.375 2.438 0.938 3.25 2 1.438 1.75 0.625 3.875-1.688 4.5-0.625 0.188-1.313 0.313-1.813 0.313-1.25 0-2.313-0.25-3.375-0.625-1.375-0.438-2.75-0.5-4.125-0.063-1.438 0.5-2.938 0.625-4.438 0.313-1.875-0.375-2.563-1.625-1.938-3.438zM9 18.75c1 0 1.875 0 2.688-0.188 0.438-0.063 0.5 0.125 0.313 0.5-0.5 0.813-0.938 1.625-1.438 2.5-0.5-0.938-1-1.813-1.563-2.813zM10.938 22.313c-0.063-0.188-0.125-0.313 0-0.5 0.5-0.875 0.938-1.688 1.438-2.625 0.5 0.875 0.938 1.75 1.438 2.563 0.063 0.188 0.125 0.375 0 0.563-0.438 0.813-0.938 1.688-1.438 2.625-0.5-0.938-0.938-1.75-1.438-2.625zM17 20.938c0.563 0.75 0.563 1.438 0 2.188-0.375 0.5-0.625 1.125-1 1.813-0.5-1-0.938-1.813-1.438-2.688-0.125-0.188-0.063-0.313 0-0.438 0.5-0.875 0.938-1.688 1.438-2.625 0.375 0.625 0.625 1.25 1 1.75zM16.563 18.188c0.125-0.25 0.313-0.063 0.438 0 0.688 0.125 1.313 0.375 2 0.5 0.25 0.063 0.375 0.125 0.188 0.438-0.438 0.75-0.875 1.563-1.375 2.438-0.5-0.938-1-1.813-1.438-2.688-0.188-0.313 0.063-0.5 0.188-0.688zM15.688 18.813c-0.438 0.938-0.938 1.813-1.5 2.813-0.5-1-1-1.813-1.438-2.688-0.125-0.313-0.063-0.5 0.25-0.625 0.625-0.188 1.25-0.313 1.938-0.438 0.375-0.063 0.938 0.625 0.75 0.938zM12.75 25.625c-0.125-0.25-0.063-0.375 0.063-0.563 0.438-0.813 0.875-1.625 1.375-2.563 0.438 0.75 0.75 1.438 1.188 2.125 0.375 0.563 0.375 1 0 1.563-0.438 0.625-0.75 1.313-1.188 2.063-0.5-0.938-0.938-1.813-1.438-2.625zM17.5 28.875c-0.5 0.875-0.938 1.75-1.5 2.75-0.5-1-1-1.875-1.438-2.75-0.125-0.125-0.063-0.25 0-0.375 0.438-0.813 0.938-1.688 1.438-2.688 0.563 1 1 1.875 1.5 2.75 0.063 0.063 0.063 0.188 0 0.313zM19.188 25.75c-0.438 0.813-0.875 1.625-1.375 2.5-0.5-0.938-1-1.875-1.5-2.75-0.063-0.125 0-0.188 0.063-0.313 0.438-0.875 0.938-1.75 1.438-2.688 0.5 0.938 1 1.813 1.438 2.688 0.125 0.188 0.063 0.375-0.063 0.563zM21.063 22.313c-0.438 0.813-0.938 1.688-1.438 2.625-0.5-0.938-0.938-1.813-1.438-2.625-0.063-0.188-0.063-0.375 0.063-0.563 0.438-0.813 0.875-1.688 1.375-2.563 0.563 0.938 1 1.813 1.5 2.688 0.063 0.188 0 0.313-0.063 0.438zM21.438 21.625c-0.5-0.938-0.938-1.813-1.438-2.688 1 0.063 1.875 0.063 2.938-0.063-0.5 0.938-1 1.813-1.5 2.75zM24.625 17.813c-1.125 0.625-2.25 0.813-3.625 0.75-1.313-0.063-2.5-0.438-3.688-0.813-1.125-0.313-2.25-0.438-3.438-0.125-1.25 0.375-2.563 0.75-3.813 0.688-1.25 0-2.5-0.063-3.563-0.813-0.938-0.688-0.938-1.625-0.813-2.625 0.125-0.938 0.563-1.75 1.25-2.375 0.188-0.125 0.25-0.313 0.5-0.125 1.75 1.063 3.625 1 5.375 0.438 1.813-0.5 3.5-0.5 5.313 0.125 1.438 0.5 2.938 0.563 4.438 0.188 0.625-0.125 1.188-0.375 1.75-0.75 0.125-0.188 0.313-0.25 0.5-0.063 0.75 0.625 1.313 1.313 1.563 2.313 0.25 1.125-0.438 2.5-1.75 3.188zM16.813 13.438c-0.063 0-0.188 0.063-0.188 0.188 0.063 0.313 0.438 0.375 0.625 0.563 0.063 0.063 0.188 0.125 0.25 0.125 0.125 0.063 0.25-0.063 0.25-0.188 0 0 0-0.063-0.063-0.125-0.25-0.188-0.5-0.438-0.875-0.563zM21.625 14c-0.063-0.063-0.25 0-0.188 0.125 0 0.375 0.25 0.625 0.438 0.875 0.063 0.063 0.188 0.063 0.25 0.063s0.125-0.063 0.188-0.25c-0.25-0.188-0.375-0.625-0.688-0.813zM11.188 14.313c-0.125-0.063-0.313-0.188-0.438 0.063 0 0.063 0 0.125 0 0.188 0.313 0.188 0.688 0.25 1.063 0.313 0.063 0 0.125-0.063 0.188-0.125-0.188-0.375-0.5-0.375-0.813-0.438zM15.938 14.5c-0.188-0.063-0.188 0.188-0.188 0.375 0.125 0.25-0.125 0.688 0.25 0.875 0.25 0.063 0.25-0.25 0.25-0.438-0.063-0.25 0.063-0.688-0.313-0.813zM19.938 14.938c-0.375 0.125-0.75 0.188-0.938 0.563-0.063 0.125 0.063 0.188 0.188 0.25 0.313-0.188 0.75-0.25 0.938-0.625 0.063-0.125-0.125-0.188-0.188-0.188zM8.938 14.125c-0.313 0-0.188 0.188-0.188 0.438 0.063 0.188-0.063 0.5 0.188 0.688 0.063 0.063 0.188 0 0.25 0 0.125-0.313 0-0.563-0.063-0.813 0-0.125 0.063-0.375-0.188-0.313zM14.688 14c-0.188-0.063-1 0.25-1.063 0.438 0 0.063 0 0.188 0.125 0.25s1-0.375 1.063-0.5c0-0.125-0.063-0.188-0.125-0.188zM12.688 10.25c0.125 0.063 0.188-0.063 0.188-0.125 0-0.188-0.5-0.938-0.625-0.938s-0.25 0.125-0.188 0.188c0.125 0.375 0.25 0.75 0.625 0.875zM20.688 9.375c0.125 0 0.188-0.063 0.25-0.188 0-0.125-0.438-0.875-0.625-0.938-0.125 0-0.188 0.063-0.25 0.188 0 0.125 0.5 0.875 0.625 0.938zM22.25 9.938c0.375-0.188 0.313-0.625 0.438-0.875 0-0.125 0-0.313-0.125-0.313-0.438 0.188-0.375 0.625-0.5 0.938-0.063 0.125 0.063 0.313 0.188 0.25zM19.375 10.625c0.25-0.063 0.625 0.063 0.813-0.313 0-0.125-0.125-0.25-0.313-0.188-0.313 0.125-0.75-0.063-0.875 0.375-0.063 0.188 0.188 0.188 0.375 0.125zM16.563 10.313c0.188-0.063 0.563 0.125 0.563-0.188-0.063-0.375-0.563-0.188-0.813-0.25-0.188-0.063-0.438-0.063-0.375 0.188 0.063 0.375 0.375 0.188 0.625 0.25zM10.688 8.875c0.188 0.063 0.813-0.563 0.813-0.875 0 0-0.063-0.125-0.188-0.063-0.375 0.125-0.563 0.375-0.75 0.75-0.063 0.063 0 0.188 0.125 0.188zM15.688 5.375c0.063 0 0.125 0 0.125-0.063 0.125-0.25-0.125-0.438-0.25-0.625-0.063-0.188-0.125-0.375-0.375-0.375-0.063 0-0.125 0.063-0.125 0.063-0.125 0.313 0.125 0.5 0.25 0.688 0.063 0.125 0.125 0.375 0.375 0.313zM18.563 4.938c0.125 0.063 0.25-0.063 0.188-0.188-0.188-0.375-0.563-0.5-0.813-0.75-0.188 0.063-0.313 0.125-0.25 0.25 0.188 0.313 0.5 0.563 0.875 0.688zM17.125 6.25c0.188-0.063 0.375-0.063 0.438-0.25 0-0.063 0-0.125-0.063-0.125-0.25-0.25-0.438 0-0.688 0-0.188 0.063-0.438 0.063-0.438 0.313 0 0.063 0 0.125 0 0.125 0.313 0.188 0.5 0 0.75-0.063z"></path>
</svg>
