<?xml version="1.0" encoding="utf-8"?>
<!DOCTYPE svg PUBLIC "-//W3C//DTD SVG 1.1//EN" "http://www.w3.org/Graphics/SVG/1.1/DTD/svg11.dtd">
<svg version="1.1" xmlns="http://www.w3.org/2000/svg" xmlns:xlink="http://www.w3.org/1999/xlink" width="32" height="32" viewBox="0 0 32 32">
<path d="M16.75 9.313c-0.313-0.063-0.625 0.063-0.813 0.25-1.25 1.313-2.438 2.688-3.5 4-0.25 0.313-0.5 0.563-0.75 0.875-0.188 0.25-0.188 0.438 0.063 0.688 0.375 0.313 0.688 0.688 1 1.125l-0.125-0.125c-0.375-0.25-0.688-0.438-1.063-0.688-0.125-0.063-0.5-0.313-0.813 0.125-0.25 0.313-0.5 0.625-0.75 0.938-1.063 1.25-2.125 2.563-3.125 3.875-0.313 0.438-0.688 0.875-1.063 1.375-0.188 0.25-0.188 0.5 0.063 0.75 0.188 0.25 0.438 0.438 0.625 0.688-0.25-0.125-0.5-0.313-0.688-0.438s-0.313-0.188-0.438-0.188c-0.188 0.063-0.313 0.188-0.438 0.313-0.25 0.375-0.5 0.688-0.75 1.063s-0.563 0.75-0.875 1.188l-0.313 0.438c-0.938 1.375-1.938 2.813-2.625 4.313-0.188 0.438-0.375 0.813-0.375 1.25 0 0.313 0.125 0.625 0.313 0.813s0.5 0.313 0.813 0.313c0 0 0 0 0 0 0.438 0 0.813-0.188 1.125-0.313 1.125-0.5 2.125-1.188 3.125-1.813l0.375-0.25c0.063-0.063 0.188-0.188 0.25-0.313 0-0.188-0.063-0.313-0.125-0.375-0.125-0.188-0.313-0.438-0.438-0.625 0.25 0.125 0.438 0.313 0.563 0.438 0.313 0.375 0.563 0.313 0.875 0.063 2.188-1.563 4.25-3.125 5.938-4.5 0.625-0.438 0.625-0.563 0.25-1.188-0.188-0.25-0.313-0.438-0.438-0.688 0.313 0.188 0.563 0.438 0.813 0.688s0.438 0.375 0.813 0.063c2.125-1.688 4-3.25 5.75-4.75 0.625-0.5 0.625-0.625 0.125-1.313l-0.125-0.188c-0.125-0.125-0.25-0.313-0.375-0.438 0.313 0.188 0.563 0.438 0.813 0.625l0.188 0.188c0.125 0.125 0.313 0.313 0.625 0.063 0.125-0.125 0.25-0.25 0.375-0.375 0.375-0.313 0.75-0.688 1.063-1.063 0.188-0.188 0.25-0.438 0.25-0.813-0.188-3.25-2.875-5.938-6.188-6.063zM22.5 16c-0.313 0.375-0.688 0.688-1.063 1-0.125 0.125-0.25 0.25-0.375 0.375-0.125 0.063-0.125 0.125-0.25 0l-0.188-0.188c-0.375-0.375-0.75-0.688-1.25-1l-0.375-0.188 0.125 0.375c0.188 0.438 0.438 0.75 0.625 1l0.125 0.188c0.375 0.5 0.375 0.5-0.063 0.938-1.75 1.438-3.625 3-5.75 4.75-0.188 0.125-0.25 0.125-0.438-0.063-0.375-0.375-0.813-0.75-1.375-1l-0.438-0.125 0.438 0.688c0.188 0.25 0.375 0.5 0.563 0.75 0.313 0.5 0.313 0.5-0.188 0.875-1.688 1.313-3.75 2.938-5.938 4.438-0.25 0.188-0.313 0.188-0.438 0-0.25-0.25-0.625-0.563-1.188-0.688l-0.375-0.063 0.438 0.563c0.188 0.25 0.313 0.5 0.5 0.75 0.063 0.063 0.063 0.125 0.063 0.125s0 0.063-0.125 0.125l-0.375 0.25c-0.938 0.625-1.938 1.25-3.063 1.75-0.313 0.188-0.625 0.313-1 0.313-0.25 0-0.438-0.063-0.625-0.188-0.125-0.188-0.188-0.375-0.188-0.625 0-0.375 0.125-0.75 0.313-1.125 0.688-1.5 1.688-2.875 2.625-4.25l0.313-0.438c0.313-0.438 0.563-0.813 0.875-1.188 0.25-0.375 0.5-0.75 0.75-1.063 0.125-0.125 0.188-0.188 0.188-0.188s0.063 0 0.063 0c0 0 0.063 0.063 0.188 0.125 0.313 0.25 0.688 0.438 1.125 0.688l0.313 0.188-0.125-0.375c-0.125-0.5-0.5-0.875-0.875-1.188-0.125-0.188-0.125-0.25 0-0.375 0.375-0.5 0.688-0.938 1.063-1.375 1-1.313 2.063-2.625 3.125-3.875 0.25-0.313 0.5-0.625 0.688-0.938 0.188-0.188 0.25-0.188 0.5-0.063 0.313 0.25 0.688 0.438 1 0.688l0.5 0.313c0.063 0.063 0.188 0.125 0.375 0.063l0.125-0.125-0.125-0.188c-0.438-0.563-0.813-1.125-1.375-1.563-0.125-0.125-0.125-0.125 0-0.25 0.188-0.313 0.438-0.563 0.688-0.875 1.125-1.313 2.25-2.688 3.5-3.938 0.188-0.188 0.375-0.25 0.625-0.25 3.125 0.125 5.688 2.688 5.875 5.875 0.063 0.25 0 0.438-0.125 0.563zM30.563 5.125c0.688-0.25 1.125-0.625 1.375-1.188 0.188-0.5 0.063-0.938-0.375-1.125-0.188-0.125-0.25-0.188-0.25-0.188 0-0.063 0.063-0.188 0.125-0.313 0.25-0.5 0.25-1.125-0.125-1.438-0.5-0.375-1-0.25-1.375-0.063-0.063 0-0.125 0.063-0.188 0.063-0.125 0.125-0.125 0.125-0.125 0.125s-0.063-0.063-0.125-0.188c-0.063-0.25-0.25-0.438-0.438-0.5-0.25-0.125-0.5-0.125-0.813 0-0.375 0.188-0.75 0.5-0.938 0.938-0.063 0.125-0.125 0.313-0.188 0.438l-0.063 0.063c-0.25-0.125-0.563-0.188-0.813-0.125-0.313 0.125-0.563 0.375-0.75 0.75-0.125 0.188-0.125 0.438-0.188 0.688 0 0.125 0 0.25-0.063 0.375-0.25-0.063-0.563-0.188-0.813 0.063-0.313 0.313-0.375 0.688-0.313 1.063 0.063 0.063 0.063 0.063 0.063 0.125 0 0 0 0.063 0 0.125 0.375 1.188-0.188 2.063-0.875 2.938 0.313-1.063 0.375-2.25 0.313-3.688 0-0.063 0-0.125 0-0.188 0-0.313 0-0.625-0.25-0.813s-0.25-0.438-0.313-0.688c-0.063-0.063-0.063-0.125-0.063-0.188-0.188-0.438-0.375-0.688-0.813-0.625-0.125 0-0.188-0.063-0.25-0.188-0.188-0.375-0.563-0.563-0.875-0.375-0.25 0.125-0.375 0-0.563-0.188-0.125-0.063-0.313-0.188-0.563-0.25-0.313-0.188-0.625-0.188-0.875-0.063-0.313 0.125-0.5 0.438-0.625 0.813-0.063 0.25-0.063 0.563 0 0.938 0.063 0.063 0.063 0.125 0.063 0.125s-0.063 0.063-0.125 0.063c-0.188 0-0.313 0.125-0.375 0.25-0.188 0.188-0.125 0.438-0.063 0.625 0.125 0.438 0.438 0.688 0.75 1h0.063c0 0 0 0.063 0 0.063s0 0 0 0.063c-0.25 0.188-0.313 0.375-0.313 0.563s0.063 0.375 0.313 0.625c0.188 0.188 0.438 0.313 0.625 0.375 0 0.063 0.063 0.063 0.063 0.063s0.063 0 0.063 0c-0.188 0.875-0.063 1 0.75 1.25 0.563 0.188 0.688 0.313 0.75 0.938 0.063 0.375 0 0.688-0.125 1 0 0.125-0.125 0.188-0.188 0.313-0.125 0.25-0.25 0.5-0.188 0.75 0 0.25 0.25 0.438 0.5 0.625 0.063 0.063 0.188 0.125 0.313 0.25 0.563 0.625 0.625 0.625 1.375 0.25 0.563-0.25 1.125-0.313 1.688-0.125 0.375 0.125 0.438 0.375 0.563 0.75 0 0.063 0.063 0.188 0.063 0.25 0.125 0.25 0.313 0.5 0.5 0.563 0.125 0.063 0.313 0.063 0.438 0 0.125-0.125 0.188-0.063 0.188-0.063 0.063 0 0.125 0.063 0.125 0.188 0.063 0 0.063 0.063 0.063 0.125 0.063 0.063 0.125 0.125 0.188 0.25 0.188 0.25 0.438 0.375 0.625 0.438 0.25 0 0.438-0.125 0.688-0.313 0.063 0 0.063-0.063 0.063-0.063 0 0.063 0 0.063 0 0.063s0.063 0.063 0.063 0.063c0.313 0.313 0.563 0.625 1.063 0.75 0.063 0 0.188 0.063 0.25 0.063 0.125 0 0.25-0.063 0.313-0.125 0.063 0 0.125-0.125 0.188-0.188 0.063-0.313 0.125-0.313 0.375-0.25 0.063 0 0.125 0 0.125 0 0.688 0.063 1.125-0.125 1.438-0.563 0.25-0.438 0.063-0.938-0.188-1.375-0.063-0.125-0.125-0.188-0.25-0.313-0.063-0.063-0.063-0.125-0.063-0.25 0.25-0.5 0.063-0.875-0.438-1.063v0c-0.063 0-0.063-0.063-0.063-0.063 0.125-0.688-0.375-0.875-0.813-1-0.063 0-0.188 0-0.25 0-0.125 0-0.125 0-0.188-0.063-0.188-0.438-0.563-0.438-0.875-0.5h-0.125c-0.75-0.063-1.5-0.063-2.375 0-0.563 0.063-1.125 0.188-1.625 0.25 0.938-0.688 1.875-1.25 3.188-0.813 0.188 0.063 0.375 0.063 0.563 0.063 0.313-0.125 0.5-0.25 0.625-0.438 0.063-0.125 0.125-0.375-0.063-0.688 0 0 0 0 0-0.063 0 0 0.063 0 0.063 0h0.063c0.375-0.063 0.875-0.063 1.25-0.375 0.313-0.188 0.5-0.438 0.563-0.75 0-0.188-0.063-0.375-0.188-0.563 0-0.063 0-0.063 0-0.125 0 0 0 0 0.063 0zM30.438 4.813c-0.125 0.063-0.25 0.125-0.25 0.25-0.063 0.125 0 0.25 0.125 0.313 0.063 0.125 0.063 0.25 0.063 0.438-0.063 0.188-0.188 0.375-0.375 0.5-0.313 0.25-0.688 0.313-1.125 0.313h-0.063c-0.125 0.063-0.25 0.063-0.313 0.188-0.063 0.063-0.063 0.25 0 0.313 0.063 0.188 0.063 0.313 0.063 0.438-0.125 0.125-0.313 0.188-0.438 0.25s-0.25 0-0.438 0c-1.5-0.563-2.625 0.25-3.688 1.063-0.125 0.063-0.25 0.125-0.375 0.25l-0.625 0.438 0.75-0.188c0.688-0.188 1.5-0.375 2.313-0.438 0.875-0.063 1.625-0.063 2.375 0h0.063c0.375 0.063 0.563 0.063 0.688 0.313 0.125 0.188 0.313 0.25 0.438 0.25 0.063 0 0.125 0 0.188 0 0.438 0.125 0.625 0.25 0.563 0.625-0.063 0.25 0.188 0.375 0.313 0.375 0.313 0.125 0.375 0.375 0.25 0.688-0.125 0.25-0.063 0.438 0.125 0.563 0.063 0.125 0.125 0.188 0.188 0.313 0.25 0.375 0.375 0.75 0.188 1.063-0.25 0.313-0.563 0.438-1.125 0.375-0.063 0-0.063 0-0.125 0-0.25-0.063-0.625-0.063-0.75 0.5 0 0 0 0 0 0-0.063 0.063-0.125 0.063-0.375 0-0.375-0.063-0.625-0.313-0.875-0.625-0.063 0-0.063-0.063-0.063-0.063-0.063-0.063-0.125-0.125-0.25-0.125 0 0 0 0 0 0-0.063 0-0.188 0-0.25 0.063-0.188 0.188-0.313 0.25-0.438 0.25s-0.313-0.125-0.438-0.313c-0.063-0.063-0.125-0.188-0.125-0.25-0.063 0-0.063-0.063-0.063-0.063-0.063-0.125-0.125-0.313-0.313-0.375-0.125-0.063-0.25 0-0.438 0.063-0.063 0.063-0.125 0.063-0.188 0.063-0.125-0.063-0.25-0.25-0.313-0.438-0.063-0.063-0.063-0.125-0.125-0.25-0.063-0.313-0.188-0.75-0.688-0.875-0.625-0.25-1.313-0.188-1.938 0.125s-0.625 0.313-1.063-0.188c-0.125-0.125-0.25-0.25-0.375-0.313-0.125-0.125-0.313-0.313-0.375-0.438 0-0.125 0.125-0.313 0.25-0.5 0.063-0.125 0.125-0.25 0.188-0.375 0.125-0.375 0.188-0.75 0.125-1.125-0.063-0.75-0.313-1-1-1.25-0.625-0.188-0.688-0.188-0.563-0.875 0.063-0.25-0.125-0.313-0.188-0.375 0 0-0.063 0-0.063 0-0.188-0.063-0.375-0.188-0.563-0.375-0.125-0.125-0.188-0.25-0.188-0.375s0.063-0.25 0.188-0.375c0.063-0.063 0.125-0.188 0.125-0.313s-0.063-0.188-0.188-0.25v0c-0.313-0.25-0.563-0.5-0.625-0.875-0.063-0.188-0.063-0.313 0-0.375 0-0.063 0.063-0.063 0.188-0.063 0.125-0.063 0.25-0.125 0.313-0.188 0.063-0.125 0-0.25 0-0.375-0.063-0.313-0.063-0.563 0-0.813 0.063-0.313 0.25-0.5 0.438-0.563 0.188-0.125 0.375-0.125 0.688 0 0.125 0.063 0.313 0.188 0.438 0.25 0.25 0.188 0.5 0.375 0.875 0.188 0.188-0.063 0.375 0 0.5 0.25 0.063 0.188 0.188 0.375 0.563 0.313 0.188 0 0.313 0.063 0.438 0.438 0 0.063 0.063 0.125 0.063 0.188 0.063 0.313 0.125 0.563 0.438 0.813 0.125 0.125 0.125 0.375 0.125 0.625 0 0.063 0 0.188 0 0.25 0.125 1.625-0.063 3-0.5 4.188 0 0.063 0 0.125 0 0.125v0.5l0.313-0.375c0.063-0.125 0.188-0.25 0.25-0.375 0.75-1 1.5-2 1.125-3.438 0-0.063 0-0.125-0.063-0.125 0-0.063 0-0.063 0-0.125-0.063-0.313 0-0.563 0.188-0.75s0.313-0.125 0.563 0l0.25 0.125 0.063-0.125c0.063-0.25 0.125-0.438 0.125-0.625 0.063-0.25 0.063-0.438 0.125-0.625 0.188-0.313 0.375-0.5 0.563-0.563 0.25-0.063 0.5 0 0.75 0.125l0.188 0.125 0.125-0.375c0.063-0.125 0.125-0.313 0.188-0.438 0.188-0.375 0.438-0.625 0.813-0.75 0.25-0.125 0.438-0.125 0.563-0.063s0.25 0.188 0.313 0.375c0.063 0.125 0.125 0.25 0.25 0.313 0.188 0.063 0.313-0.063 0.438-0.125 0 0 0.063-0.063 0.063-0.063 0.438-0.188 0.813-0.25 1.125 0.063 0.25 0.188 0.25 0.625 0 1.063-0.063 0.188-0.188 0.375-0.125 0.563 0.063 0.125 0.25 0.25 0.438 0.313 0.375 0.188 0.25 0.625 0.188 0.75-0.188 0.5-0.563 0.813-1.125 1zM20.813 2.75c0 0-0.125 0-0.188 0.063-0.188 0.188-0.063 0.438 0 0.5 0 0 0.063 0 0.063 0.063 0.938 1.438 1.375 2.938 1.375 4.563v0.375l0.25-0.25c0.063-0.063 0.063-0.063 0.063-0.063 0.063-0.063 0.125-0.063 0.125-0.188 0.125-1.75-0.313-3.375-1.375-4.813-0.063-0.125-0.188-0.25-0.313-0.25zM21.125 3.438c0.438 0.688 0.688 1.375 0.875 2.063-0.188-0.688-0.5-1.375-0.875-2.063zM24.563 7.438l0.25 0.25c1.313-1.188 2.438-2.25 3.5-3.5l0.938-1.188-1.188 0.938c-1.375 1.125-2.5 2.438-3.5 3.5zM24.563 10.188c1.438 0 2.813 0.438 4.125 1.25l0.125 0.063c0.063 0.063 0.125 0.125 0.188 0.125 0.063 0.063 0.188 0.063 0.188 0.063 0.125 0 0.188-0.063 0.25-0.063 0-0.063 0.125-0.25-0.063-0.438-0.125-0.063-0.188-0.125-0.25-0.188-1.063-0.75-2.188-1.188-3.438-1.25-0.438-0.063-0.938-0.063-1.438 0.125l-0.563 0.25 0.688 0.063c0.063 0 0.125 0 0.188 0zM28.813 11.188c-0.688-0.438-1.375-0.75-2.125-1 0.75 0.188 1.438 0.5 2.125 1z"></path>
</svg>
