<?xml version="1.0" encoding="utf-8"?>
<!DOCTYPE svg PUBLIC "-//W3C//DTD SVG 1.1//EN" "http://www.w3.org/Graphics/SVG/1.1/DTD/svg11.dtd">
<svg version="1.1" xmlns="http://www.w3.org/2000/svg" xmlns:xlink="http://www.w3.org/1999/xlink" width="32" height="32" viewBox="0 0 32 32">
<path d="M16.063 0.25c-8.875 0-16.063 7.125-16.063 15.938 0 8.875 7.125 16.063 16 16.063 8.813 0 16-7.188 16-16s-7.125-16-15.938-16zM15.875 31.813c-8.563-0.063-15.438-7-15.438-15.625s7-15.5 15.625-15.5c8.563 0 15.5 7 15.5 15.563 0 8.688-7 15.563-15.688 15.563zM16.063 2.313c-7.313 0-13.938 5.688-14 13.875-0.063 8.063 6.5 14 13.938 13.938 7.375 0.063 14-5.813 13.938-14-0.063-8-6.5-13.813-13.875-13.813zM16 29.75c-7.438-0.063-13.375-5.875-13.5-13.313-0.125-7.563 6-13.75 13.5-13.688 7.375 0 13.438 5.75 13.5 13.313 0.063 7.625-6 13.688-13.5 13.688zM16.25 15.875c0-1.125 0-2.25 0-3.438 0-1.125 0-2.313 0-3.5 0-0.188 0.063-0.5-0.25-0.5s-0.25 0.313-0.25 0.5c0 2.125 0 4.188 0.063 6.25 0 0.688-0.25 1.063-0.875 1.375-1.063 0.563-2.063 1.188-3.125 1.75-0.125 0.125-0.25 0.188-0.188 0.375 0.125 0.125 0.25 0.125 0.375 0 1.313-0.688 2.625-1.438 3.938-2.188 0.25-0.125 0.313-0.313 0.313-0.625zM6.875 15.563c-0.438-0.063-0.875 0-1.313 0-0.313-0.063-0.625-0.063-1-0.063-0.313-0.063-0.75 0.375-0.75 0.75 0.063 0.375 0.25 0.75 0.688 0.75 0.813 0 1.563-0.063 2.313-0.063 0.438 0 0.625-0.25 0.688-0.688 0-0.375-0.188-0.688-0.625-0.688zM6.563 16.563c-0.25-0.063-0.563 0-0.875 0s-0.688 0-1.063 0c-0.125 0-0.313-0.125-0.313-0.375 0-0.188 0.188-0.25 0.375-0.25 0.625 0 1.313-0.063 1.938-0.063 0.25 0 0.375 0.125 0.375 0.438 0 0.25-0.188 0.313-0.438 0.25zM27.5 15.5c-0.375 0-0.75 0-1.125 0 0 0 0 0 0 0-0.375 0-0.813 0-1.188 0-0.438 0.063-0.625 0.313-0.625 0.75-0.063 0.375 0.188 0.625 0.563 0.688 0.813 0.125 1.625 0.063 2.438 0 0.438 0 0.563-0.313 0.563-0.75 0-0.375-0.188-0.625-0.625-0.688zM27.375 16.563c-0.375 0.063-0.688 0-1.063 0-0.313-0.063-0.625 0.063-0.938 0-0.25 0-0.375-0.063-0.375-0.313s0.125-0.375 0.313-0.375c0.688 0 1.375 0.063 2.063 0.063 0.25 0 0.375 0.188 0.313 0.375 0 0.188-0.125 0.25-0.313 0.25zM16 24.75c-0.438 0.063-0.688 0.25-0.75 0.688 0 0.75 0 1.5 0 2.25 0.063 0.5 0.375 0.688 0.75 0.688 0.438 0 0.688-0.188 0.75-0.688 0-0.313 0-0.688 0-1.063s0-0.75 0-1.188c-0.063-0.438-0.313-0.688-0.75-0.688zM16.313 27.563c0 0.188-0.063 0.375-0.313 0.375s-0.313-0.188-0.313-0.375c0-0.688 0-1.313 0-1.938 0-0.25 0.063-0.375 0.313-0.375s0.313 0.125 0.313 0.375c0 0.313 0 0.625 0 0.938s0.063 0.688 0 1zM16 7.688c0.438 0 0.688-0.25 0.75-0.688 0-0.375 0-0.75 0-1.125s0-0.75 0-1.125c-0.063-0.438-0.313-0.688-0.75-0.688s-0.688 0.25-0.75 0.688c0 0.75 0 1.5 0.063 2.25 0 0.438 0.25 0.688 0.688 0.688zM15.688 4.938c0-0.25 0.063-0.438 0.313-0.438s0.313 0.188 0.313 0.438c0.063 0.625 0 1.25 0 1.938 0 0.188-0.063 0.375-0.313 0.375s-0.313-0.188-0.313-0.375c0-0.313 0-0.625 0-0.938 0 0 0 0 0 0 0-0.375-0.063-0.688 0-1zM21.75 24.625c-0.5 0-0.875 0.375-0.875 0.875 0 0.438 0.375 0.813 0.813 0.813 0.5 0 0.813-0.375 0.813-0.813 0.063-0.5-0.25-0.813-0.75-0.875zM21.688 25.875c-0.25 0-0.375-0.188-0.375-0.375 0-0.313 0.188-0.375 0.438-0.438 0.188 0.063 0.375 0.188 0.375 0.375 0 0.25-0.188 0.438-0.438 0.438zM10.313 24.625c-0.5 0-0.813 0.375-0.813 0.813-0.063 0.5 0.313 0.875 0.813 0.875 0.438 0 0.813-0.438 0.813-0.875s-0.375-0.813-0.813-0.813zM10.313 25.875c-0.25 0-0.375-0.125-0.438-0.375 0-0.25 0.125-0.375 0.375-0.438 0.25 0 0.375 0.125 0.438 0.375 0 0.25-0.125 0.375-0.375 0.438zM25.563 11.875c0.5-0.063 0.875-0.438 0.813-0.875 0-0.438-0.375-0.813-0.813-0.813s-0.813 0.375-0.813 0.875c-0.063 0.438 0.313 0.813 0.813 0.813zM25.563 10.688c0.25-0.063 0.375 0.125 0.375 0.375s-0.188 0.375-0.375 0.375c-0.25 0-0.438-0.188-0.438-0.438 0.063-0.188 0.188-0.313 0.438-0.313zM6.5 20.625c-0.5 0-0.875 0.313-0.875 0.75-0.063 0.438 0.375 0.875 0.813 0.875s0.813-0.375 0.813-0.813c0.063-0.438-0.313-0.813-0.75-0.813zM6.438 21.813c-0.25 0-0.375-0.125-0.375-0.375s0.188-0.438 0.375-0.438c0.25 0 0.438 0.188 0.438 0.438-0.063 0.25-0.188 0.375-0.438 0.375zM10.25 7.813c0.5 0 0.875-0.375 0.875-0.813s-0.375-0.813-0.875-0.813c-0.438 0-0.75 0.313-0.75 0.813-0.063 0.5 0.313 0.813 0.75 0.813zM10.25 6.625c0.25 0 0.438 0.125 0.438 0.375s-0.188 0.375-0.375 0.375c-0.25 0-0.438-0.125-0.438-0.375 0-0.188 0.125-0.375 0.375-0.375zM21.75 7.813c0.5 0 0.813-0.375 0.75-0.875 0-0.438-0.375-0.813-0.813-0.75-0.438 0-0.813 0.375-0.813 0.813 0 0.5 0.438 0.875 0.875 0.813zM21.688 6.625c0.25 0 0.438 0.125 0.438 0.375s-0.188 0.375-0.375 0.375c-0.25 0-0.438-0.125-0.438-0.375s0.125-0.375 0.375-0.375zM6.438 11.875c0.5 0 0.813-0.313 0.813-0.813 0.063-0.438-0.313-0.813-0.75-0.875-0.438 0-0.875 0.375-0.875 0.875 0 0.438 0.375 0.813 0.813 0.813zM6.438 10.688c0.25-0.063 0.375 0.125 0.438 0.375 0 0.25-0.188 0.313-0.438 0.375-0.188-0.063-0.375-0.125-0.375-0.438 0-0.188 0.125-0.313 0.375-0.313zM25.563 20.625c-0.5 0-0.813 0.313-0.813 0.75-0.063 0.5 0.375 0.938 0.813 0.875 0.438 0 0.813-0.375 0.813-0.813s-0.375-0.813-0.813-0.813zM25.5 21.813c-0.188 0-0.375-0.188-0.375-0.438 0.063-0.188 0.188-0.375 0.438-0.375 0.188 0 0.375 0.188 0.375 0.438s-0.125 0.375-0.438 0.375z"></path>
</svg>
