<?xml version="1.0" encoding="utf-8"?>
<!DOCTYPE svg PUBLIC "-//W3C//DTD SVG 1.1//EN" "http://www.w3.org/Graphics/SVG/1.1/DTD/svg11.dtd">
<svg version="1.1" xmlns="http://www.w3.org/2000/svg" xmlns:xlink="http://www.w3.org/1999/xlink" width="32" height="32" viewBox="0 0 32 32">
<path d="M31.563 11.438c0-0.875-0.313-1.625-0.875-2.25-0.625-0.563-1.313-1-2.125-1.438 0.25-0.125 0.438-0.25 0.563-0.313 0.375-0.25 0.75-0.438 0.688-0.938 0-0.5-0.375-0.625-0.75-0.813-0.813-0.375-1.563-0.75-2.375-1.063-0.375-0.188-0.625-0.438-0.688-0.875-0.125-0.875-0.313-1.813-0.438-2.688-0.063-0.438-0.25-0.75-0.688-0.813-0.375-0.125-0.625 0.125-0.875 0.375-0.625 0.688-1.25 1.375-1.875 2.063-0.25 0.313-0.5 0.438-0.875 0.375-0.938-0.188-1.938-0.25-2.875-0.375-0.375-0.063-0.688-0.063-0.875 0.313-0.188 0.313-0.125 0.688 0.063 1 0.25 0.438 0.5 0.938 0.813 1.438-2.063 0.063-4-0.063-5.938 0.188-0.563 0.063-0.938-0.063-1.313-0.5-0.5-0.563-1-0.438-1.125 0.313-0.125 0.375-0.313 0.5-0.625 0.563-0.375 0.063-0.75 0.125-1.063 0.188-2.25 0.5-4.5 1.063-6.375 2.5-1 0.75-1.563 1.688-1.563 3 0.063 4.75 0.063 9.563 0 14.313 0 1.125 0.438 2.063 1.313 2.813 1.375 1.125 3 1.75 4.688 2.188 5.688 1.563 11.5 1.625 17.313 0.5 2.125-0.438 4.188-1.063 6.063-2.25 1.063-0.75 1.875-1.625 1.875-3-0.063-4.938-0.063-9.875-0.063-14.813zM18 3.875c-0.125-0.188-0.313-0.375-0.125-0.625 0.125-0.25 0.375-0.125 0.625-0.188 0.875 0.125 1.75 0.25 2.625 0.375 0.563 0.125 0.938 0 1.313-0.438 0.563-0.688 1.188-1.313 1.813-1.938 0.125-0.188 0.313-0.5 0.625-0.375 0.25 0.125 0.25 0.438 0.313 0.625 0.188 0.875 0.313 1.688 0.438 2.563 0.063 0.563 0.313 0.875 0.875 1.125 0.813 0.313 1.625 0.688 2.375 1.063 0.25 0.125 0.5 0.125 0.5 0.438 0.063 0.313-0.25 0.438-0.438 0.563-0.813 0.438-1.625 0.875-2.5 1.313-0.313 0.188-0.563 0.438-0.563 0.813-0.125 1-0.25 1.938-0.375 2.938 0 0.188 0 0.5-0.25 0.563-0.25 0.125-0.438-0.125-0.563-0.25-0.688-0.625-1.313-1.25-2-1.875-0.375-0.375-0.75-0.563-1.313-0.375-0.875 0.25-1.75 0.375-2.625 0.563-0.188 0-0.438 0.125-0.625-0.063-0.188-0.25-0.063-0.438 0.063-0.688 0.375-0.75 0.688-1.563 1.125-2.313 0.313-0.563 0.313-1.063-0.063-1.625-0.5-0.688-0.875-1.438-1.25-2.188zM10.125 7.125c0.063-0.438 0.125-0.875 0.188-1.313 0.063-0.188 0-0.438 0.188-0.5 0.25-0.063 0.375 0.125 0.5 0.25 0.375 0.375 0.75 0.75 1.063 1.188 0.313 0.375 0.688 0.438 1.188 0.375 0.563-0.125 1.125-0.188 1.688-0.313 0.438-0.063 0.5 0.125 0.313 0.438-0.25 0.563-0.563 1.063-0.875 1.625-0.188 0.375-0.188 0.688 0 1.063 0.313 0.5 0.625 1.063 0.875 1.625 0.188 0.375 0.063 0.5-0.313 0.438-0.5-0.125-1-0.125-1.438-0.25-0.75-0.25-1.25 0-1.688 0.563-0.313 0.313-0.688 0.625-1 1-0.313 0.313-0.438 0.188-0.5-0.25-0.125-0.563-0.188-1.188-0.25-1.813-0.063-0.438-0.25-0.625-0.625-0.813-0.563-0.25-1.125-0.563-1.688-0.813-0.313-0.188-0.313-0.375 0.063-0.5 0.438-0.25 0.938-0.563 1.438-0.688 0.625-0.25 0.875-0.688 0.875-1.313zM31.125 26.625c0 0.938-0.688 1.563-1.375 2.063-1.625 1.188-3.563 1.813-5.5 2.25-6.125 1.25-12.188 1.25-18.25-0.5-1.375-0.375-2.625-0.875-3.75-1.75-0.938-0.688-1.5-1.563-1.438-2.75s0-2.313 0-3.563c0.375 0.188 0.625 0.313 0.875 0.438 1.063 0.375 2.188-0.375 2.313-1.5 0-0.25 0-0.438 0-0.625 0.063-0.625 0.5-1 1.063-1s1 0.438 1 1.063c0.063 0.75 0 1.563 0.063 2.375 0 1.063 0.813 1.875 1.813 1.875 0.938-0.063 1.75-0.875 1.75-1.875 0-0.438 0-0.875 0-1.25 0.063-0.625 0.375-0.938 1-1 0.5-0.063 1 0.375 1 1 0 1.375 0 2.75 0 4.125 0 1 0.75 1.875 1.75 2.063 0.875 0.188 1.813-0.313 2.25-1.188 0.125-0.25 0.188-0.563 0.188-0.938 0-0.938 0-1.938 0-2.938 0-0.75 0.375-1.25 1-1.188 0.625 0 0.938 0.438 0.938 1.188 0 0.5 0 1 0 1.5 0.063 0.938 0.813 1.688 1.813 1.688 0.938 0 1.688-0.688 1.688-1.75 0-1.125 0-2.188 0-3.313 0-0.188 0-0.375 0-0.5 0.063-0.5 0.313-0.875 0.813-0.875s0.75 0.375 0.75 0.875c0.063 0.625 0 1.313 0.063 1.938 0 1.375 0.875 2.188 2.063 2.188 1.188-0.063 2-0.938 2-2.25 0-1.25 0-2.5 0-3.75 0-0.375 0-0.813 0.438-0.813 0.5 0 0.563 0.375 0.563 0.75 0.063 0.188 0.063 0.438 0.063 0.688 0.063 1.5 1.438 2.25 2.75 1.5 0.063 0 0.125-0.063 0.313-0.188 0 2.063 0.063 4 0 5.938zM31.125 17.813c0 0.5 0.063 1.063 0 1.563 0 0.875-0.563 1.438-1.313 1.438s-1.25-0.563-1.313-1.438c-0.063-0.25 0-0.5 0-0.75 0.063-0.563-0.438-1.125-0.875-1.188-0.563 0-1 0.5-1 1.125-0.063 1.313 0 2.688-0.063 4 0 1.375-1.25 2.188-2.375 1.563-0.563-0.313-0.813-0.75-0.813-1.313 0-0.688 0-1.375 0-2.063-0.063-0.875-0.563-1.438-1.25-1.438s-1.188 0.563-1.25 1.438c0 1.188 0 2.375 0 3.563 0 0.875-0.5 1.438-1.313 1.438-0.75 0-1.313-0.563-1.313-1.438 0-0.563 0-1.063 0-1.563-0.063-0.813-0.625-1.375-1.375-1.375s-1.375 0.563-1.438 1.375c0 1 0 2.063 0 3.125 0 1-0.688 1.75-1.625 1.813-0.938 0-1.688-0.75-1.688-1.813-0.063-1.25 0-2.563 0-3.875-0.063-0.938-0.563-1.563-1.438-1.563-0.813 0-1.375 0.563-1.375 1.563 0 0.313 0 0.688 0 1.063-0.063 0.875-0.688 1.5-1.5 1.5-0.688-0.063-1.313-0.688-1.313-1.5 0-0.75 0-1.5 0-2.188 0-1-0.563-1.625-1.438-1.625s-1.563 0.625-1.438 1.625c0.063 1.125-1.063 1.938-1.938 1.5-0.5-0.25-0.75-0.625-0.813-1.188 0-3.313 0-6.563-0.063-9.875 0-0.938 0.563-1.625 1.25-2.188 1.688-1.313 3.688-1.938 5.688-2.375 0.563-0.125 1.125-0.25 1.688-0.313 0.125-0.063 0.313-0.063 0.313 0.188-0.063 0.563 0.063 1.125-0.688 1.438-0.5 0.125-1 0.438-1.438 0.688-0.313 0.125-0.563 0.25-0.563 0.625 0 0.313 0.25 0.5 0.5 0.625 0.5 0.188 0.938 0.5 1.375 0.688 0.563 0.188 0.75 0.563 0.75 1.063 0.063 0.5 0.125 0.938 0.188 1.375 0.063 0.313 0.125 0.625 0.438 0.75 0.375 0.125 0.625 0 0.813-0.25 0.938-1.438 2.188-1.813 3.75-1.188 0.313 0.063 0.563 0 0.75-0.25 0.25-0.25 0.188-0.5 0-0.75-1.063-1.375-1.063-2.688 0.063-4.063 0.125-0.188 0.25-0.5 0-0.75-0.188-0.25-0.5-0.313-0.813-0.25-0.5 0.125-1 0.125-1.5 0.25-0.563 0.188-0.938 0-1.25-0.563 2.063-0.25 4.125-0.188 6.125-0.125 0.625 0 1.063 0.75 0.75 1.313-0.375 0.938-0.813 1.813-1.25 2.688-0.188 0.313-0.25 0.688 0.063 1 0.25 0.313 0.625 0.313 0.938 0.25 0.938-0.188 1.813-0.375 2.75-0.625 0.438-0.125 0.688 0.063 0.938 0.313 0.688 0.688 1.375 1.313 2 1.938 0.313 0.25 0.563 0.438 0.938 0.313s0.5-0.438 0.563-0.813c0.063-0.938 0.188-1.875 0.313-2.813s1.625-1.625 2.438-1.188c0.5 0.25 1 0.563 1.438 0.938 0.688 0.625 1.063 1.313 1.063 2.25-0.063 2.125-0.063 4.188-0.063 6.313zM28.125 14.313c-0.188 0.063-0.313 0.125-0.438 0.188-2 0.813-4.188 1.313-6.375 1.563-1.938 0.313-3.875 0.313-5.813 0.313-3 0-5.938-0.313-8.813-1.063-0.938-0.25-1.813-0.625-2.688-0.938-0.125-0.063-0.313-0.188-0.438 0-0.063 0.25 0.125 0.313 0.25 0.375 0.125 0 0.188 0.063 0.25 0.125 2.375 1 4.938 1.5 7.438 1.75 2.313 0.25 4.625 0.438 6.875 0.125 0.688 0.125 1.313-0.063 1.938-0.125 2.25-0.188 4.5-0.625 6.625-1.375 0.438-0.188 0.875-0.375 1.313-0.563 0.125-0.063 0.25-0.188 0.125-0.313-0.063-0.125-0.188-0.125-0.25-0.063z"></path>
</svg>
