<?xml version="1.0" encoding="utf-8"?>
<!DOCTYPE svg PUBLIC "-//W3C//DTD SVG 1.1//EN" "http://www.w3.org/Graphics/SVG/1.1/DTD/svg11.dtd">
<svg version="1.1" xmlns="http://www.w3.org/2000/svg" xmlns:xlink="http://www.w3.org/1999/xlink" width="32" height="32" viewBox="0 0 32 32">
<path d="M30.938 15.063c-0.375-0.125-0.688-0.188-1.063-0.313 0.438-0.875 0.188-1.625-0.563-2.25-0.5-0.375-1.063-0.375-1.563 0.063-0.375 0.313-0.625 0.688-0.625 1.188-0.063 0.75-0.438 1.25-1.125 1.563-0.5 0.25-1 0.5-1.5 0.688-0.75 0.375-1.5 0.688-2.188 1-0.313 0.125-0.563-0.063-0.75-0.25s0.063-0.313 0.125-0.438c0.188-0.25 0.375-0.563 0.625-0.875 0.688-1 1.438-1.875 2.813-1.938 1 0 1.75-0.563 2.063-1.563 0.188-0.625-0.063-1.063-0.75-1.188-0.438 0-0.813 0-1.313 0.125 0-0.188 0-0.25 0-0.313 0-0.75-0.75-1.438-1.563-1.5-0.625 0-1.125 0.563-1.188 1.313 0 0.188 0 0.438 0.063 0.625 0.25 0.563 0.063 1.125-0.375 1.563-0.75 0.875-1.625 1.688-2.438 2.563-0.188 0.125-0.25 0.125-0.438 0.063-2.063-1.063-4.25-1.063-6.438-0.75-2.313 0.438-4.375 1.438-6.125 3-0.063-0.063-0.125-0.125-0.125-0.188-0.188-0.25-0.188-0.563-0.563-0.563-0.313 0.063-0.375 0.375-0.563 0.625-0.188 0.313-0.125 0.688-0.25 1.063-0.063 0.063 0 0.188-0.125 0.188s-0.188-0.125-0.125-0.25c0.063-0.188 0.125-0.313 0.125-0.5 0.125-0.625 0.188-1.25-0.125-1.875-0.375-0.688-0.813-0.75-1.375-0.25-0.375-1.125-1.25-1.25-2.25-1.188-0.25 0-0.438 0.125-0.5 0.438-0.125 0.75-0.188 1.5 0.5 2.125-0.188 0.063-0.313 0.063-0.438 0-0.313-0.125-0.5 0.063-0.563 0.438-0.188 0.75 0 1.375 1 1.375 0.438 0.063 0.875 0.25 1.063 0.75-0.375 0.063-0.688 0.125-1 0.25-0.375 0.125-0.688 0.438-0.688 0.813 0 0.438 0.313 0.625 0.625 0.813 0.25 0.125 0.625 0.188 0.75 0.375s-0.188 0.5-0.25 0.813c-0.063 0.063-0.063 0.125-0.063 0.25-0.063 0.313-0.125 0.438-0.438 0.25-0.125-0.063-0.313-0.063-0.438 0.063-0.063 0.125 0 0.25 0.063 0.375s0.125 0.25 0.188 0.438c0.625 1.063 1.688 1.75 2.813 2.188 1.438 0.563 2.938 0.625 4.5 0.625 4.25 0 8.5 0 12.813 0 0.938 0.063 1.938 0 2.875-0.125 2-0.313 3.75-1.125 4.875-2.938 0.5-0.813 0.563-1.813 0-2.563-0.875-1.188-2.063-1.563-3.5-1.438-0.625 0.063-1.25 0-1.938-0.125 0.813-0.625 1.563-1.125 2.313-1.688 0.875-0.75 1.75-0.938 2.875-0.563 0.813 0.313 1.688 0.188 2.5-0.375 0.375-0.25 0.688-0.563 0.625-1.063-0.063-0.563-0.438-0.75-0.875-0.938zM21.813 13.438c0.188-0.188 0.438-0.375 0.625-0.625 0.438-0.563 0.688-1.188 0.438-1.938 0-0.125-0.063-0.25-0.063-0.438 0-0.5 0.313-0.875 0.75-0.875 0.563 0 1.125 0.5 1.125 1 0 0.25-0.125 0.5-0.313 0.688-0.063 0.125-0.188 0.188-0.063 0.375s0.25 0.063 0.375 0c0.5-0.375 1.063-0.5 1.625-0.438 0.563 0.125 0.625 0.313 0.375 0.813-0.313 0.688-0.938 1-1.625 1.125-0.25 0-0.5 0.063-0.75 0.063-0.688 0.125-1.188 0.438-1.563 0.938-0.063 0.125-0.125 0.313-0.313 0.125-0.188-0.125 0.063-0.188 0.125-0.313 0.063-0.063 0.125-0.125 0.188-0.25 0.125-0.125 0.313-0.25 0.125-0.438s-0.313 0-0.438 0.125c-0.063 0.125-0.188 0.25-0.313 0.375-0.063 0.125-0.188 0.188-0.313 0.063-0.188-0.188-0.063-0.25 0-0.375zM5.938 17.25c0.438 0.563 0.375 0.625-0.375 1.25 0.063-0.438 0.125-0.875 0.375-1.25zM4.188 22.563c-0.125-0.063-0.188 0-0.25 0.063-0.188 0.25-0.25 0.5-0.313 0.75 0 0.188-0.063 0.313-0.313 0.25-0.188-0.063-0.188-0.188-0.125-0.375 0.063-0.5 0.25-1 0.688-1.25 0.125-0.125 0.25-0.188 0.125-0.375s-0.25-0.063-0.375 0c-0.5 0.375-0.813 0.875-0.875 1.5 0 0.25-0.125 0.375-0.438 0.313-0.313 0-0.25-0.188-0.188-0.438 0.188-1.063 1.188-2 2.188-2.188 0.188 0 0.313-0.063 0.313 0.125-0.125 1.063 0.188 2 0.875 2.875-0.438 0-0.75-0.063-1.063-0.063-0.375 0-0.438-0.188-0.313-0.5 0.063-0.125 0.125-0.25 0.188-0.438 0.063-0.063 0-0.188-0.125-0.25zM3.25 16.625c0 0.063 0 0.188 0 0.313-0.063 0.125 0 0.25 0.188 0.313 0.188 0 0.25-0.125 0.25-0.313 0-0.313 0.063-0.563 0.188-0.875 0-0.125 0.063-0.25 0.188-0.25 0.188-0.063 0.25 0.125 0.313 0.25 0.375 0.563 0.438 1.188 0.188 1.75s-0.125 1 0.188 1.313c0.313 0.313 0.188 0.5 0.063 0.813 0 0.063-0.063 0.125-0.125 0.313-1.188-1.75-1.813-3.75-3.25-5.313 1.313-0.063 1.625 0.563 1.813 1.688zM1.375 21.063c-0.438-0.25-0.438-0.5 0-0.75 0.375-0.188 0.813-0.25 1.25-0.313s0.438-0.125 0.25-0.5c-0.375-0.625-1-1.063-1.75-1.063-0.313 0-0.5-0.125-0.5-0.438s-0.063-0.625 0.438-0.438c0.313 0.125 0.688 0.125 1.063 0.188 0.125 0 0.313 0 0.313-0.188 0.063-0.125-0.063-0.188-0.125-0.25-0.25-0.125-0.5-0.313-0.688-0.438-0.438-0.438-0.563-0.875-0.438-1.5 1.375 1.438 1.938 3.375 3.063 5-0.688 0.188-1.313 0.5-1.75 1-0.125 0.125-0.25 0.063-0.375 0-0.25-0.063-0.5-0.188-0.75-0.313zM27.063 25.188c-1.063 0.75-2.25 1-3.5 1.188-1 0.125-1.938 0.063-2.938 0.063-4.313 0-8.625 0-12.938 0-1.563 0-3.063-0.25-4.438-0.938-0.75-0.375-1.375-0.938-1.813-1.75 0.938 0.125 1.75 0.25 2.625 0.375 1.5 0.188 3 0.188 4.5 0.25 3.625 0 7.313 0.063 10.938 0 1.875-0.063 3.75 0.063 5.625-0.188 1.063-0.125 2.125-0.188 3.25-0.438-0.313 0.625-0.75 1.063-1.313 1.438zM28.438 21.313c0.438 0.438 0.563 0.938 0.438 1.563 0 0.188-0.125 0.375-0.313 0.313-0.25 0-0.063-0.188-0.125-0.313 0-0.063 0-0.063 0-0.125-0.063-0.188-0.063-0.563-0.375-0.563-0.375 0.063-0.125 0.375-0.063 0.625 0.063 0.5-0.25 0.75-0.75 0.688-0.125-0.063-0.188-0.063-0.125-0.188 0.438-1.375-0.188-2.313-1.313-3.063 1.063 0 1.938 0.25 2.625 1.063zM26.063 21c0.75 0.625 1 1.563 0.563 2.313-0.063 0.188-0.188 0.313-0.375 0.313-0.25 0.063-0.5 0.125-0.375-0.313s-0.063-0.813-0.125-1.188c0-0.188-0.063-0.313-0.25-0.25-0.188 0-0.188 0.188-0.188 0.313 0.125 0.375 0.125 0.688 0.125 1.063 0 0.313-0.188 0.5-0.5 0.5-0.25 0-0.313-0.063-0.313-0.25-0.063-0.188-0.063-0.375-0.125-0.563-0.063-0.125-0.125-0.25-0.25-0.188-0.188 0-0.25 0.125-0.188 0.25 0.063 0.25 0.25 0.563 0.063 0.75s-0.563 0.125-0.813 0.125c-0.25 0.063-0.5 0-0.75 0-1 0-1 0-1.063-1 0-0.75 0.188-1.375 0.625-2 0.25-0.375 0.563-0.563 1.063-0.625 1.063-0.125 2 0.063 2.875 0.75zM24.625 18.25c-0.875 0.688-1.75 1.313-2.563 2.063-0.75 0.625-1 1.563-1 2.563 0.063 1 0.063 1.063-0.938 1.063-2.313 0-4.563-0.063-6.813 0-0.313 0-0.563-0.125-0.75-0.375-0.188-0.375-0.375-0.688-0.563-1-0.438-0.688-0.313-1.125 0.313-1.688 0.125-0.125 0.5-0.188 0.313-0.5-0.25-0.25-0.438 0.063-0.625 0.188-0.813 0.688-0.875 1.375-0.375 2.313 0.188 0.313 0.375 0.625 0.625 1.063-1.25 0-2.375-0.063-3.563 0-0.188 0-0.313-0.063-0.375-0.25-1.125-1.75-1-3.438 0.938-4.563 0.625-0.375 1.313-0.563 2-0.813 0.188-0.063 0.438-0.063 0.375-0.313-0.125-0.25-0.313-0.125-0.5-0.125-0.688 0.25-1.438 0.5-2.125 0.938-1.813 1.063-2.313 2.75-1.375 4.625 0.25 0.5 0.25 0.5-0.25 0.438-0.438 0-0.938 0.188-1.313-0.125-0.563-0.5-0.813-1.125-1-1.813-0.25-1.188 0.188-2.188 0.875-3.125 1.188-1.5 2.75-2.5 4.5-3.188 1.875-0.75 3.75-1 5.75-0.813 0.813 0.063 1.688 0.25 2.438 0.563 0.375 0.125 0.438 0.313 0.125 0.563-0.188 0.25-0.438 0.438-0.625 0.625-0.125 0.125-0.313 0.313-0.125 0.438 0.188 0.188 0.25 0 0.375-0.063 0.875-0.875 1.75-1.688 2.563-2.563 0.313-0.313 0.5-0.375 0.813-0.063 0.063 0.063 0.188 0.125 0.25 0.188 0.25 0.188 0.25 0.313 0.063 0.5-0.625 0.938-1.25 1.875-1.938 2.813-0.063 0.125-0.188 0.25-0.063 0.438s0.313 0.063 0.438 0c1.313-0.563 2.563-1.125 3.813-1.688 0.313-0.125 0.438-0.063 0.625 0.25 0.5 0.875 0.5 0.875-0.313 1.438zM30.563 16.938c-0.688 0.313-1.375 0.188-2 0.063-0.563-0.125-1.125-0.313-1.688-0.125-0.438 0.063-0.625 0.438-1.188 0.438 0.25-0.25 0.5-0.313 0.75-0.5 0.125-0.125 0.375-0.188 0.25-0.438s-0.313-0.063-0.5 0.063c-0.125 0.063-0.313 0.125-0.438 0.25-0.188 0.188-0.25 0.125-0.438-0.063-0.188-0.313-0.125-0.5 0.188-0.625 0.5-0.125 1-0.375 1.375-0.75s0.625-0.75 0.688-1.25c0-0.125 0-0.188 0-0.25 0.125-0.563 0.563-1.063 1-1.063 0.313-0.063 0.875 0.438 1.063 0.938 0.125 0.5 0 0.875-0.563 1.188 0 0.063-0.063 0.063-0.063 0.063-0.125 0.125-0.375 0.125-0.25 0.375 0.063 0.188 0.25 0.125 0.438 0.063 0.375-0.125 0.813-0.063 1.188 0.063 0.438 0.063 0.938 0.188 1 0.625 0 0.5-0.438 0.75-0.813 0.938zM14.5 9.438c0.063 0.375-0.063 0.625-0.25 0.813-0.25 0.313-0.5 0.625-0.5 1 0 0.188 0 0.375 0.25 0.375 0.125 0 0.188-0.125 0.188-0.313 0-0.313 0.188-0.5 0.375-0.75 0.563-0.688 0.563-1.375 0.063-2.063-0.563-0.688-0.563-1.063 0-1.75 0.188-0.25 0.375-0.563 0.375-0.875 0-0.188 0-0.375-0.188-0.375-0.188-0.063-0.313 0.125-0.313 0.313 0 0.25-0.125 0.5-0.313 0.688-0.625 0.813-0.625 1.375 0 2.188 0.188 0.25 0.375 0.5 0.313 0.75zM9.188 12.375c-0.188 0.313-0.375 0.563-0.375 0.938 0 0.125 0.063 0.25 0.25 0.25 0.125 0 0.188-0.063 0.188-0.25 0-0.375 0.25-0.625 0.438-0.875 0.25-0.25 0.375-0.563 0.375-0.938s-0.125-0.75-0.375-1.063c-0.563-0.625-0.563-1-0.063-1.688 0.25-0.313 0.438-0.563 0.438-0.938 0-0.188 0-0.313-0.188-0.313-0.188-0.063-0.25 0.125-0.25 0.25-0.063 0.313-0.25 0.563-0.438 0.813-0.5 0.688-0.5 1.313 0 2 0.563 0.75 0.563 1.063 0 1.813zM19.125 12.313c-0.25 0.25-0.438 0.563-0.438 0.938 0 0.125 0 0.313 0.188 0.313 0.188 0.063 0.25-0.125 0.25-0.25 0.063-0.375 0.25-0.563 0.438-0.813 0.5-0.625 0.5-1.375 0-2-0.563-0.813-0.563-1.063 0.063-1.875 0.188-0.25 0.313-0.5 0.313-0.875 0-0.125-0.063-0.25-0.188-0.313-0.188 0-0.313 0.125-0.25 0.313 0 0.313-0.188 0.563-0.375 0.75-0.625 0.75-0.563 1.438 0 2.188 0.5 0.563 0.5 1 0 1.625z"></path>
</svg>
