<?xml version="1.0" encoding="utf-8"?>
<!DOCTYPE svg PUBLIC "-//W3C//DTD SVG 1.1//EN" "http://www.w3.org/Graphics/SVG/1.1/DTD/svg11.dtd">
<svg version="1.1" xmlns="http://www.w3.org/2000/svg" xmlns:xlink="http://www.w3.org/1999/xlink" width="32" height="32" viewBox="0 0 32 32">
<path d="M31.063 18.875c-0.625-1.75-2-2.75-3.875-3-0.5 0-1.063 0-1.563 0-0.188 0-0.188 0-0.188-0.25 0.25-0.875 0.438-1.813 0.625-2.688 0.063-0.25 0.063-0.438-0.063-0.625-0.188-0.375-0.5-0.5-0.938-0.5-3.875 0-7.813 0-11.688 0-2.375 0-4.813 0-7.188 0-1.563 0-3.063 0-4.625 0-0.688 0-1.063 0.5-0.938 1.125 0.313 1.438 0.625 2.938 0.938 4.375 0.438 2 0.938 4 1.375 6 0.25 1.313 0.563 2.563 0.813 3.875 0.125 0.438 0.188 0.875 0.375 1.25 0.438 0.813 1.063 1.313 1.938 1.438 0.188 0 0.25 0.063 0.25 0.313-0.063 0.313 0 0.625 0 0.938 0 0.625 0.5 1.125 1.125 1.125 3.938 0 7.875 0 11.813 0 0.625 0 1.125-0.5 1.125-1.125 0-0.313 0-0.563 0-0.875s0-0.313 0.313-0.375c0.938-0.125 1.813-0.938 2.063-1.938 0.188-0.875 0.375-1.75 0.563-2.625 0.063-0.188 0.125-0.188 0.25-0.188 1.063 0 2.125 0 3.188 0 1.25 0 2.313-0.438 3.188-1.25 1.438-1.438 1.813-3.125 1.125-5zM19.938 31.063c0 0.438-0.25 0.75-0.75 0.75-3.938 0-7.813 0-11.75 0-0.375 0-0.688-0.313-0.688-0.688s0-0.688 0-1c0-0.188 0-0.188 0.188-0.188 0.375 0 0.813 0 1.188 0 1.75 0 3.5 0 5.188 0 2.125 0 4.25 0 6.375 0 0.25 0 0.25-0.063 0.25 0.25s0 0.563 0 0.875zM23 24.813c-0.25 1-0.438 2-0.688 3s-1.063 1.688-2.125 1.688c-1.938 0-3.875 0-5.813 0-2.563 0-5.188 0-7.813 0-1.063 0-1.75-0.5-2.125-1.5-0.188-0.438-0.25-0.938-0.375-1.438-0.313-1.438-0.625-2.938-0.938-4.375-0.438-2.063-0.875-4.063-1.375-6.063-0.188-1.063-0.438-2.125-0.688-3.188-0.125-0.5 0.063-0.688 0.563-0.688 3.313 0 6.688 0 10.063 0 0.563 0 1.063 0 1.625 0 0 0 0 0 0 0 2.25 0 4.5 0 6.75 0 1.625 0 3.313 0 5 0 0.5 0 0.688 0.188 0.563 0.688-0.625 2.75-1.25 5.5-1.813 8.25-0.313 1.188-0.563 2.438-0.813 3.625zM25.25 18.438c0.563 0 1.063 0 1.563 0 1.063 0 2 0.875 2.063 2 0.063 1-0.75 1.938-1.75 2.125-0.563 0.063-1.125 0-1.5 0.063-0.625 0-1.063 0-1.5 0-0.188 0-0.188-0.063-0.188-0.188 0.313-1.25 0.563-2.438 0.813-3.625 0.125-0.375 0.125-0.375 0.5-0.375zM27.313 24.625c-0.688 0.125-1.375 0.063-2.063 0.063-0.5 0-1.063 0-1.625 0-0.125 0-0.188 0-0.125-0.188 0.125-0.438 0.188-0.875 0.313-1.375 0-0.063 0.063-0.125 0.125-0.125 0.938 0 1.875 0.063 2.813 0 1.125 0 2-0.625 2.375-1.625 0.563-1.438-0.438-3.188-2-3.375-0.625-0.063-1.313 0-1.938 0-0.188-0.063-0.25-0.063-0.188-0.25 0.063-0.438 0.188-0.875 0.25-1.25 0.063-0.125 0.063-0.188 0.188-0.188 0.688 0 1.375-0.063 2.063 0.063 1.625 0.313 3 1.625 3.375 3.25 0.5 2.375-1.125 4.688-3.563 5zM12.625 5.375c0.25 0.563 0.5 1.063 0.5 1.688 0 0.375-0.125 0.813-0.25 1.188-0.063 0.188 0.063 0.313 0.188 0.313 0.188 0 0.188-0.125 0.25-0.25 0.313-0.813 0.313-1.688 0-2.563-0.25-0.438-0.5-0.938-0.688-1.438-0.438-0.875-0.563-1.813-0.063-2.75 0.188-0.313 0.313-0.688 0.438-1 0.063-0.125 0.063-0.25-0.063-0.313s-0.25 0-0.313 0.125c-0.125 0.313-0.313 0.625-0.438 0.938-0.375 0.75-0.5 1.5-0.313 2.313 0.188 0.625 0.5 1.188 0.75 1.75zM7.938 5.563c0.5 0.875 0.563 1.75 0.188 2.688-0.063 0.125 0 0.25 0.125 0.313s0.25-0.063 0.313-0.188c0.25-0.75 0.375-1.5 0.063-2.313-0.188-0.625-0.563-1.25-0.813-1.875-0.375-0.813-0.438-1.688-0.063-2.5 0.125-0.313 0.313-0.625 0.438-0.938 0.063-0.125 0.125-0.188 0.125-0.313s-0.063-0.188-0.188-0.188c-0.125-0.063-0.188 0-0.25 0.125-0.125 0.313-0.25 0.625-0.438 0.875-0.5 1.063-0.5 2.063-0.063 3.125 0.188 0.375 0.375 0.813 0.563 1.188zM17.438 5.438c0.25 0.563 0.438 1.063 0.438 1.688 0 0.375-0.125 0.75-0.25 1.125-0.063 0.125 0 0.25 0.125 0.313 0.125 0 0.25 0 0.313-0.125 0.188-0.625 0.313-1.25 0.188-1.875s-0.375-1.188-0.625-1.688c-0.313-0.625-0.563-1.188-0.625-1.813 0-0.188 0-0.375 0-0.563 0.125-0.375 0.188-0.688 0.375-1.063 0.125-0.25 0.25-0.563 0.375-0.875 0.063-0.125 0.063-0.25-0.063-0.313s-0.25 0-0.313 0.125c-0.25 0.5-0.563 1.063-0.688 1.688-0.063 0.063-0.063 0.063 0 0.125-0.063 0-0.063 0.063-0.063 0.125-0.125 0.438-0.063 0.813 0 1.25 0.125 0.688 0.5 1.25 0.813 1.875z"></path>
</svg>
