<?xml version="1.0" encoding="utf-8"?>
<!DOCTYPE svg PUBLIC "-//W3C//DTD SVG 1.1//EN" "http://www.w3.org/Graphics/SVG/1.1/DTD/svg11.dtd">
<svg version="1.1" xmlns="http://www.w3.org/2000/svg" xmlns:xlink="http://www.w3.org/1999/xlink" width="32" height="32" viewBox="0 0 32 32">
<path d="M29.313 2.813c-3.188-3.25-8.563-3.563-11.938-0.375-4.5 4.188-7.375 9.313-7.75 15.5-0.125 2.188-1 3.5-2.438 4.688-1.125 1-2.313 1.75-4 1.438-1.438-0.25-2.813 0.938-3.063 2.25-0.25 1.25 0.563 2.313 2.188 2.75 0.563 0.125 0.625 0.375 0.75 0.875 0.063 0.563 0.25 1.125 0.625 1.438v0c1.938 2.063 3.563-0.188 3.563-0.188v0c0.813-0.75 0.938-1.688 0.875-2.813-0.125-1.688 2.313-5.313 3.875-5.813 0.188-0.063 0.438-0.063 0.688-0.063 6.813 0.063 12.313-2.938 16.938-7.688 3.25-3.313 3-8.688-0.313-12zM9.563 24.313c-1.063 1.063-2 2.25-1.938 3.75 0 1-0.188 1.813-0.563 2.688v0c-1 2.063-2.75 0.438-3.125 0.063-0.313-0.438-0.5-0.875-0.5-1.5-0.063-0.5-0.313-0.5-0.688-0.563-1.688-0.313-2.375-1-2.188-2.313 0.125-1.188 1.188-2.125 2.688-2 1.875 0.25 3.188-0.563 4.438-1.75 1.563-1.5 3-3 4.5-4.5 0.625-0.625 1.313-1.063 2.063-0.375 0.813 0.75 0.375 1.438-0.313 2.125-1.438 1.438-2.938 2.938-4.375 4.375zM29 15c-4 3.938-8.75 6.438-14.375 7.188-0.625 0.063-1.313 0-2.313 0 0.813-0.875 1.375-1.438 2-2.063 0.75-0.813 1.125-1.688 0.25-2.563-0.813-0.813-1.75-0.5-2.5 0.25-0.625 0.625-1.125 1.25-1.875 2.063-0.438-1.813-0.188-3.25 0.125-4.625 1.125-4.688 3.438-8.813 6.875-12.188 3.375-3.313 8.563-3.313 11.813 0 3.313 3.313 3.375 8.625 0 11.938zM18.813 5.188c1.188-0.875 2.5-1.563 4.063-1.625 1.5-0.063 2.75 0.688 4 1.438-1.75-2.438-6.438-2.25-8.063 0.188z"></path>
</svg>
