<?xml version="1.0" encoding="utf-8"?>
<!DOCTYPE svg PUBLIC "-//W3C//DTD SVG 1.1//EN" "http://www.w3.org/Graphics/SVG/1.1/DTD/svg11.dtd">
<svg version="1.1" xmlns="http://www.w3.org/2000/svg" xmlns:xlink="http://www.w3.org/1999/xlink" width="32" height="32" viewBox="0 0 32 32">
<path d="M20.313 29.813c-0.188-0.375-0.438-0.563-0.875-0.563-0.625 0-1.188 0-1.813 0-0.125 0-0.188 0-0.188-0.188 0-2.375 0-4.813 0-7.188 0-0.063 0-0.125 0.063-0.188 0.25-0.25 0.5-0.563 0.688-0.875 0.938 1.813 3.438 1.813 4.375 0 0.063 0.063 0.063 0.125 0.125 0.188 0.5 0.813 1.5 1.313 2.5 1.125 1.438-0.25 2.25-1.75 1.688-3.063-0.625-1.625-1.313-3.25-1.938-4.875-0.313-0.688-0.875-1.063-1.625-1.063-0.313 0-0.563 0-0.875 0-1.563 0-3.125 0-4.688 0-0.125 0-0.188 0-0.25-0.125-0.125-0.75-0.313-1.438-0.5-2.125 0-0.125 0-0.25 0.188-0.313 0.938-0.438 1.5-1.25 1.563-2.375 0-0.188-0.063-0.313-0.313-0.313-0.313 0-0.688 0-1 0-0.188 0.063-0.25 0-0.25-0.188 0-1 0-1.938 0-2.938 0-0.25-0.063-0.313-0.313-0.313-0.188 0-0.313-0.063-0.438 0-0.188 0-0.25-0.063-0.25-0.25 0-0.063 0-0.063 0-0.125 0-0.188 0.063-0.313 0.313-0.375 0.688-0.25 1.063-1.125 0.75-1.688-0.313-0.5-0.688-0.875-1.125-1.188-0.125-0.063-0.188-0.063-0.25 0-0.438 0.313-0.813 0.625-1.063 1.063-0.125 0.25-0.188 0.5-0.125 0.75 0.063 0.563 0.375 0.938 0.938 1.063 0.063 0.063 0.125 0.063 0.125 0.125 0.063 0.188 0.063 0.375 0 0.563 0 0.125-0.188 0-0.313 0.063-0.125 0-0.188 0-0.25 0-0.313 0-0.375 0.063-0.375 0.313 0 1 0 2 0 2.938 0 0.188-0.063 0.188-0.188 0.188-0.375 0-0.688 0-1 0s-0.375 0.125-0.375 0.375c0.125 1.125 0.625 1.875 1.625 2.375 0.125 0.063 0.125 0.063 0.125 0.188-0.188 0.688-0.375 1.438-0.5 2.125-0.063 0.125-0.125 0.188-0.25 0.188-1.813 0-3.625 0-5.375 0-0.938 0-1.5 0.375-1.875 1.25-0.563 1.5-1.188 3-1.813 4.438-0.188 0.5-0.313 1-0.188 1.438 0.125 0.938 0.688 1.563 1.563 1.813 0.938 0.313 1.75 0.063 2.438-0.625 0.188-0.188 0.313-0.375 0.438-0.625 0.938 1.813 3.438 1.813 4.375 0 0.188 0.313 0.375 0.563 0.625 0.813 0.125 0.063 0.125 0.125 0.125 0.25 0 2.375 0 4.813 0 7.188 0 0.188-0.063 0.188-0.188 0.188-0.625 0-1.25 0-1.875 0-0.375 0-0.625 0.188-0.75 0.563-0.188 0.375-0.313 0.75-0.5 1.063-0.188 0.5 0 0.75 0.5 0.75 2.813 0 5.688 0 8.5 0 0.5 0 0.688-0.25 0.5-0.688-0.188-0.375-0.313-0.75-0.438-1.125zM15.813 2.938c0 0.125 0 0.25 0 0.375-0.688-0.188-0.875-0.813-0.5-1.375 0.125-0.188 0.375-0.375 0.563-0.563 0.063-0.063 0.125-0.125 0.188-0.063 0.313 0.25 0.563 0.5 0.75 0.813 0.25 0.438-0.063 1-0.5 1.125-0.063 0.063-0.125 0-0.125-0.063s0-0.125 0-0.25c0-0.125-0.063-0.188-0.188-0.188s-0.188 0.063-0.188 0.188zM15.438 4.875c0.375 0 0.75 0 1.125 0 0.188 0 0.188 0.063 0.188 0.188 0 0.438 0 0.875 0 1.313s0 0.875 0 1.375c0 0.125-0.063 0.125-0.188 0.125-0.375 0-0.75 0-1.125 0-0.125 0-0.188 0-0.188-0.125 0-0.938 0-1.813 0-2.75 0-0.125 0.063-0.125 0.188-0.125zM13.75 8.5c-0.063-0.125 0-0.188 0.125-0.188 1.438 0 2.813 0 4.25 0 0.125 0 0.188 0.063 0.125 0.188-0.125 1.063-1.125 1.938-2.25 1.938-1.125-0.063-2.125-0.875-2.25-1.938zM15.438 10.938c0-0.125 0.063-0.125 0.188-0.125 0.25 0.063 0.5 0.063 0.813 0 0.063 0 0.125 0 0.125 0.125 0.188 0.688 0.375 1.375 0.5 2.063 0.063 0.125 0 0.125-0.125 0.125-0.313 0-0.625 0-0.938 0s-0.625 0-0.938 0c-0.125 0-0.188 0-0.125-0.188 0.188-0.625 0.313-1.313 0.5-2zM14 19.875c0 0 0 0 0-0.063 0.063-0.125 0-0.25-0.188-0.25s-0.25 0.125-0.25 0.25c0 0.25 0 0.438-0.125 0.625-0.25 0.813-1.125 1.375-1.938 1.313-0.938-0.063-1.688-0.75-1.813-1.625 0-0.125-0.063-0.188-0.063-0.313s-0.063-0.25-0.188-0.25c-0.188 0-0.25 0.125-0.25 0.25 0 0.313-0.063 0.625-0.25 0.938-0.375 0.688-1.25 1.125-2.063 1-0.813-0.188-1.438-0.875-1.5-1.75 0-0.313 0.063-0.625 0.188-0.875 0.625-1.563 1.25-3.063 1.875-4.625 0.25-0.625 0.688-0.938 1.375-0.938 3.188 0 6.313 0 9.5 0 1.625 0 3.25 0 4.875 0 0.688 0 1.125 0.313 1.375 0.875 0.625 1.625 1.25 3.188 1.875 4.75 0.5 1.063-0.125 2.25-1.313 2.563-0.063 0-0.188 0-0.313 0-1 0.063-1.938-0.75-2-1.75 0-0.063 0-0.125 0-0.25-0.063-0.125-0.125-0.188-0.25-0.188s-0.188 0.125-0.188 0.25c-0.063 0.438-0.188 0.875-0.5 1.25-0.5 0.625-1.375 0.875-2.125 0.563-0.75-0.25-1.313-0.938-1.313-1.75 0-0.125-0.063-0.25-0.188-0.313s-0.25 0.063-0.25 0.25c-0.063 1.063-0.813 1.813-1.813 1.938-1.125 0.125-2.125-0.75-2.188-1.875zM15 22.188c0-0.188 0-0.188 0.188-0.125 0.563 0.188 1.125 0.188 1.625 0 0.188-0.063 0.188-0.063 0.188 0.125 0 2.25 0 4.563 0 6.875 0 0.125 0 0.188-0.188 0.188-0.563 0-1.063 0-1.625 0-0.188 0-0.188-0.063-0.188-0.188 0-1.125 0-2.313 0-3.438s0-2.313 0-3.438zM20.125 31.188c-1.063 0-2.125 0-3.188 0-0.313 0-0.625 0-0.938 0-1.375 0-2.75 0-4.188 0-0.125 0-0.188 0-0.125-0.188 0.188-0.313 0.313-0.625 0.438-1 0.063-0.25 0.25-0.313 0.5-0.313 1.625 0 3.25 0 4.938 0 0.625 0 1.25 0 1.875 0 0.25 0 0.375 0.063 0.438 0.313 0.125 0.313 0.25 0.625 0.438 1 0.063 0.188 0.063 0.188-0.188 0.188zM32 30.313c0-3.5 0-7 0-10.5 0 0 0 0 0 0 0-0.813 0-1.625 0-2.438 0-3.063 0-6.125 0-9.125 0-0.063 0-0.125 0-0.125 0-0.125-0.063-0.188-0.188-0.25-0.125 0-0.188 0.063-0.25 0.188 0 0.063 0 0.125 0 0.188 0 3 0 6 0 9.063 0 1.938 0 3.875 0 5.875 0 0.25 0 0.25-0.25 0.25-2.563 0-5.063 0-7.625 0-0.75 0-1.375 0.25-1.75 1-0.563 1.063 0.125 2.313 1.375 2.313 0.375 0 0.813 0 1.25 0 0.125 0 0.125 0 0.063 0.125-0.188 0.75-0.375 1.5-0.563 2.188-0.188 0.75-0.375 1.5-0.563 2.25-0.063 0.063-0.063 0.188 0 0.25 0.188 0.125 0.313 0.063 0.375-0.188 0.438-1.438 0.813-2.938 1.188-4.438 0.063-0.188 0.125-0.188 0.25-0.188 2 0 4 0 5.938 0 0.375 0 0.313-0.063 0.313 0.25 0 1.438 0 2.875 0 4.313 0 0.25 0.063 0.375 0.25 0.375s0.188-0.188 0.188-0.313c0-0.375 0-0.75 0-1.063zM31.563 26.063c0 0.188-0.063 0.25-0.25 0.25-1.313-0.063-2.688 0-4 0-1.375 0-2.688-0.063-4 0-0.5 0-0.875-0.188-1.063-0.688-0.188-0.438-0.063-0.875 0.25-1.25 0.25-0.375 0.625-0.5 1.063-0.5 2.563 0 5.188 0 7.75 0 0.188 0 0.25 0.063 0.25 0.25 0 0.625 0 1.313 0 1.938zM8.563 23.438c-0.688 0-1.375 0-2.125 0-1.875 0-3.813 0-5.75 0-0.188 0-0.25-0.063-0.25-0.25 0-2.5 0-5 0-7.5s0-4.938 0-7.375c0-0.063 0-0.188 0-0.25 0-0.125-0.125-0.188-0.25-0.188-0.125 0.063-0.188 0.125-0.188 0.25 0 0 0 0.063 0 0.125 0 3.875 0 7.688 0 11.563 0 3.438 0 6.875 0 10.375 0 0.375 0 0.813 0 1.188 0 0.125 0 0.188 0.125 0.25 0.063 0.063 0.125 0.063 0.188 0.063 0.125-0.063 0.125-0.188 0.125-0.313 0-0.375 0-0.75 0-1.125 0-1.125 0-2.25 0-3.313 0-0.125 0-0.188 0.188-0.188 2 0 4.063 0 6.063 0 0.125 0 0.188 0 0.188 0.125 0.438 1.438 0.813 2.938 1.188 4.438 0.063 0.125 0.063 0.375 0.313 0.313 0.188 0 0.188-0.125 0.125-0.438-0.375-1.438-0.75-2.875-1.125-4.313-0.063-0.125-0.063-0.125 0.125-0.125 0.438 0 0.813 0 1.25 0 0.625-0.063 1.063-0.313 1.313-0.813 0.625-1.063-0.25-2.438-1.5-2.5zM8.688 26.313c-1.313-0.063-2.625 0-4 0-1.313 0-2.688-0.063-4.063 0-0.125 0-0.188-0.063-0.188-0.25 0-0.688 0-1.313 0-2 0-0.188 0.063-0.188 0.188-0.188 1.938 0 3.813 0 5.688 0 0.75 0 1.438 0 2.188 0 0.563 0 1.063 0.313 1.25 0.875 0.313 0.875-0.313 1.563-1.063 1.563z"></path>
</svg>
