<?xml version="1.0" encoding="utf-8"?>
<!DOCTYPE svg PUBLIC "-//W3C//DTD SVG 1.1//EN" "http://www.w3.org/Graphics/SVG/1.1/DTD/svg11.dtd">
<svg version="1.1" xmlns="http://www.w3.org/2000/svg" xmlns:xlink="http://www.w3.org/1999/xlink" width="32" height="32" viewBox="0 0 32 32">
<path d="M29.688 2.875c-1.813-0.563-3.625-1.063-5.438-1.625-0.438-0.125-0.563 0.063-0.688 0.438-0.375 1.625-0.875 3.313-1.313 4.938-0.125 0.5-0.313 0.625-0.813 0.625-4.438-0.063-8.875 0-13.313 0-1.125 0-1.5 0.375-1.5 1.5s0 2.313 0 3.5c-0.063 3.313 0.563 6.563 1.875 9.625 1.313 2.875 1.875 5.938 2.063 9.063 0.063 0.875 0.438 1.313 1.375 1.313 1.5 0 2.938 0 4.438 0s3 0 4.5 0c0.875 0 1.313-0.375 1.375-1.25 0-0.25 0-0.438 0.063-0.688 0.188-2.813 0.688-5.563 1.875-8.125 0.688-1.5 1.125-3.125 1.5-4.688 0.625-3 0.5-6 0.5-9.063 0-0.688-0.5-1.188-1.25-1.188-0.625-0.063-1.25-0.063-1.813 0-0.438 0-0.563-0.063-0.438-0.5 0.438-1.563 0.875-3.063 1.25-4.563 0.063-0.438 0.25-0.5 0.625-0.375 1.625 0.5 3.313 1 5 1.438 0.188 0.063 0.5 0.313 0.625 0 0.125-0.375-0.313-0.313-0.5-0.375zM7.063 8.563c0-0.625 0.25-0.875 0.938-0.875 2.25 0 4.5 0 6.75 0 2.188 0 4.438 0 6.625 0 0.5 0 0.563 0.125 0.438 0.563-0.438 1.563-0.875 3.063-1.25 4.625-0.125 0.375-0.25 0.438-0.563 0.438-4.188 0-8.375 0-12.5 0-0.375 0-0.438-0.125-0.438-0.438 0-1.438-0.063-2.875 0-4.313zM25.688 14.375c-0.313 2.75-0.938 5.375-2.063 7.875-1.188 2.688-1.625 5.5-1.813 8.375-0.063 1-0.188 1.188-1.188 1.188-2.875 0-5.688 0-8.563 0-0.813 0-1-0.188-1.063-1-0.188-2.688-0.5-5.313-1.5-7.813-0.625-1.375-1.188-2.813-1.625-4.25-0.375-1.5-0.563-2.938-0.75-4.438-0.063-0.5 0.125-0.563 0.563-0.563 2.875 0 5.813 0 8.75 0 2.875 0 5.75 0 8.688 0 0.5 0 0.625 0.125 0.563 0.625zM22.75 7.688c0.75 0 1.438 0 2.188 0 0.5 0 0.813 0.313 0.813 0.875 0 0.688 0 1.438 0 2.188 0 0 0 0 0 0 0 0.688 0 1.438 0 2.188 0 0.313-0.125 0.375-0.438 0.375-1.313 0-2.688 0-4 0-0.313 0-0.375-0.063-0.313-0.375 0.438-1.625 0.875-3.313 1.375-4.938 0.063-0.25 0.188-0.313 0.375-0.313zM3.625 0.25c-1 0-1.813 0.813-1.813 1.813 0 0.938 0.875 1.813 1.813 1.813 1 0 1.813-0.813 1.813-1.813 0-1.063-0.813-1.875-1.813-1.813zM3.625 3.438c-0.688 0-1.375-0.688-1.375-1.375 0-0.75 0.625-1.375 1.375-1.375 0.813 0 1.375 0.563 1.375 1.375 0 0.75-0.625 1.375-1.375 1.375zM15.25 4.125c0.875 0 1.563-0.688 1.563-1.625 0-0.875-0.688-1.563-1.625-1.563-0.875 0-1.563 0.688-1.563 1.563s0.688 1.625 1.625 1.625zM15.25 1.375c0.625 0 1.125 0.5 1.125 1.125 0 0.688-0.5 1.188-1.125 1.188-0.688 0-1.188-0.563-1.188-1.188 0.063-0.625 0.563-1.125 1.188-1.125zM3.188 6.75c-0.75 0-1.375 0.563-1.375 1.313 0 0.813 0.563 1.438 1.375 1.438s1.438-0.625 1.438-1.375c0-0.813-0.625-1.375-1.438-1.375zM3.188 9.063c-0.5 0-0.938-0.438-0.938-0.938s0.438-0.938 0.938-0.938c0.5 0 0.938 0.375 0.938 0.938 0 0.5-0.375 0.938-0.938 0.938zM9.313 5.438c0.75 0 1.375-0.625 1.375-1.438 0-0.75-0.625-1.375-1.438-1.375-0.75 0-1.375 0.688-1.375 1.438s0.625 1.375 1.438 1.375zM9.25 3.063c0.5 0 0.938 0.5 0.938 1s-0.375 0.938-0.938 0.938c-0.5 0-0.938-0.438-0.938-0.938s0.438-0.938 0.938-1zM21 20.438c-0.688-0.313-1.375-0.563-2.063-0.813-0.5-0.188-0.875-0.063-1.063 0.438-0.313 0.688-0.563 1.375-0.813 2.063-0.188 0.5-0.063 0.875 0.438 1.063 0.688 0.313 1.375 0.563 2.125 0.875 0.313 0.063 0.688 0.063 0.875-0.25 0.5-0.813 0.75-1.75 1.063-2.625-0.063-0.375-0.25-0.625-0.563-0.75zM21.063 21.375c-0.25 0.625-0.563 1.25-0.813 1.938-0.125 0.313-0.313 0.375-0.625 0.25-0.625-0.25-1.25-0.5-1.875-0.75-0.313-0.125-0.375-0.313-0.25-0.563 0.25-0.688 0.5-1.313 0.75-1.938 0.063-0.188 0.188-0.313 0.5-0.313 0.688 0.25 1.438 0.563 2.188 0.875 0.188 0.125 0.188 0.313 0.125 0.5zM16.188 24.5c-0.25-0.375-0.688-0.375-1.063-0.125-0.625 0.375-1.25 0.75-1.875 1.188-0.438 0.25-0.563 0.688-0.25 1.125 0.375 0.625 0.75 1.25 1.188 1.875 0.313 0.438 0.75 0.5 1.188 0.25 0.625-0.375 1.25-0.75 1.875-1.188 0.25-0.125 0.375-0.375 0.375-0.688 0-0.063 0-0.188-0.063-0.25-0.438-0.75-0.875-1.5-1.375-2.188zM16.875 27.313c-0.563 0.375-1.125 0.75-1.688 1.125-0.313 0.125-0.5 0.125-0.688-0.188-0.313-0.563-0.688-1.125-1.063-1.75-0.188-0.25-0.125-0.438 0.125-0.625 0.625-0.375 1.188-0.75 1.813-1.125 0.188-0.125 0.375-0.063 0.563 0.125 0.375 0.625 0.75 1.25 1.125 1.875 0.063 0.063 0.063 0.125 0.125 0.188-0.063 0.188-0.125 0.313-0.313 0.375zM15.438 18.875c0-0.313 0-0.688 0-1.063 0 0 0 0 0.063 0 0-0.375 0-0.75 0-1.125-0.063-0.5-0.25-0.813-0.75-0.813-0.813 0-1.563 0-2.375 0-0.5 0-0.813 0.313-0.813 0.813 0 0.75 0 1.5 0 2.188 0 0.563 0.313 0.813 0.813 0.875 0.75 0 1.5 0 2.25-0.063 0.5 0 0.813-0.25 0.813-0.813zM12 17.875c0-0.125 0-0.25 0-0.313 0-1.375 0-1.375 1.313-1.313 0.188 0.063 0.438 0.063 0.625 0.063 1.063 0 1.063 0 1.063 1.125 0 0.125 0 0.25 0 0.375 0 1.5 0 1.5-1.563 1.5s-1.438 0.188-1.438-1.438zM16.5 12.188c0.625 0 1.188-0.563 1.188-1.188 0-0.688-0.5-1.188-1.188-1.188-0.625 0-1.188 0.563-1.188 1.188 0.063 0.625 0.625 1.188 1.188 1.188zM16.5 10.313c0.438-0.063 0.688 0.25 0.75 0.625-0.063 0.5-0.25 0.75-0.75 0.75-0.375 0-0.688-0.25-0.688-0.688s0.25-0.688 0.688-0.688zM11.125 11.25c0.625 0 1.188-0.563 1.188-1.188 0.063-0.625-0.438-1.188-1.125-1.188-0.625 0-1.188 0.5-1.188 1.188 0 0.625 0.563 1.125 1.125 1.188zM11.188 9.313c0.438 0 0.625 0.25 0.688 0.688 0 0.438-0.25 0.688-0.688 0.75-0.375 0.063-0.75-0.313-0.75-0.688 0.063-0.438 0.25-0.688 0.75-0.75z"></path>
</svg>
