<?xml version="1.0" encoding="utf-8"?>
<!DOCTYPE svg PUBLIC "-//W3C//DTD SVG 1.1//EN" "http://www.w3.org/Graphics/SVG/1.1/DTD/svg11.dtd">
<svg version="1.1" xmlns="http://www.w3.org/2000/svg" xmlns:xlink="http://www.w3.org/1999/xlink" width="32" height="32" viewBox="0 0 32 32">
<path d="M16 0.25c-8.813 0-16 7.188-16 16s7.25 16.063 16.063 16c8.75-0.063 15.938-7.188 15.938-16 0-8.75-7.188-16-16-16zM16 31.688c-8.5 0-15.438-7-15.438-15.5 0-8.438 7-15.438 15.5-15.375 8.438 0 15.375 6.938 15.375 15.438s-6.938 15.438-15.438 15.438zM27.813 16.938c-1-1.125-2.063-2.25-3.063-3.313-0.25-0.25-0.438-0.125-0.688 0-0.563 0.5-1 1.063-1.25 1.813-0.125 0.625-0.625 1.063-1.25 1.188-1.188 0.188-1.875 0.938-2.188 2.063-0.188 0.625-0.625 1-1.25 1.125-1.125 0.25-1.875 0.938-2.188 2-0.188 0.688-0.625 1.125-1.313 1.25-0.75 0.125-1.313 0.625-1.875 1.125-0.25 0.25-0.25 0.5 0 0.75 1 1 1.938 2 2.875 3.063 0.313 0.313 0.563 0.313 0.875 0 0.438-0.5 0.938-0.813 1.625-1 0.813-0.188 1.313-0.688 1.563-1.5 0.25-0.938 0.813-1.438 1.75-1.625 0.875-0.188 1.438-0.688 1.688-1.563 0.25-0.938 0.875-1.5 1.813-1.688 0.75-0.125 1.313-0.625 1.563-1.313s0.563-1.25 1.125-1.688c0.188-0.125 0.313-0.25 0.313-0.5 0-0.063-0.063-0.125-0.125-0.188zM14.5 25.813c-0.375-0.125-0.5-0.5-0.813-0.688-0.563-0.438-0.375-0.813 0.125-1.125 0.313-0.188 0.563-0.313 0.875-0.375 0.938-0.25 1.563-0.75 1.813-1.688 0.25-0.875 0.813-1.375 1.688-1.563s1.5-0.75 1.75-1.625c0.25-0.813 0.813-1.375 1.688-1.563 0.938-0.188 1.563-0.75 1.813-1.688 0-0.125 0.063-0.25 0.125-0.375 0.188-0.375 0.5-1 0.875-0.875 0.438 0.125 0.75 0.688 1.125 1.063 0.125 0.188-0.063 0.25-0.188 0.375-0.5 0.375-0.75 0.938-0.938 1.5-0.188 0.625-0.625 1-1.25 1.188-1.125 0.25-1.875 0.875-2.188 2.063-0.188 0.625-0.625 1-1.313 1.125-1.125 0.25-1.813 0.938-2.125 2.063-0.188 0.563-0.563 1-1.188 1.125-0.625 0.188-1.25 0.375-1.688 0.938-0.063 0.063-0.125 0.063-0.188 0.125zM27 17.438c-0.5 0.375-0.75 0.875-0.938 1.438-0.188 0.688-0.625 1.125-1.313 1.25-1.063 0.25-1.813 0.875-2.125 1.938-0.188 0.688-0.688 1.125-1.375 1.313-1.063 0.188-1.75 0.813-2.063 1.875-0.188 0.688-0.625 1.125-1.375 1.313-0.563 0.125-1.063 0.313-1.438 0.75-0.25 0.313-0.438 0.25-0.625 0-0.125-0.125-0.188-0.188-0.25-0.313-0.688-0.75-0.625-1.188 0.375-1.563 0.188-0.063 0.313-0.063 0.5-0.125 0.875-0.188 1.438-0.75 1.75-1.625 0.188-0.813 0.75-1.375 1.563-1.563 1-0.188 1.625-0.75 1.875-1.688 0.25-0.813 0.75-1.313 1.563-1.5 1-0.125 1.563-0.813 1.938-1.688 0.063-0.25 0.125-0.563 0.375-0.813 0.188-0.188 0.375-0.625 0.688-0.438 0.438 0.25 0.813 0.688 1.188 1.063-0.125 0.188-0.25 0.313-0.313 0.375zM16.063 18.438c0.313-0.438 0.75-0.688 1.313-0.75 2.75-0.438 4.438-2.063 5.125-4.813 0.625-2.625-0.375-4.875-2.75-6.125-1.063-0.563-2.25-0.813-3.438-1-1.625-0.25-2.688-0.063-3.563 1.875-0.688 1.5-1.563 2.5-3.125 2.938-1.313 0.375-2.063 1.375-2.25 2.813-0.125 0.875-0.375 1.75-0.563 2.625-0.25 1.25-0.313 2.5 0 3.75 0.5 1.563 1.25 2.125 3.438 1.938 2.125 0 4.313-0.938 5.813-3.25zM9.625 21.188c-1.438 0-1.875-0.313-2.313-1.75-0.313-1.25-0.125-2.438 0.125-3.625 0.125-0.813 0.375-1.563 0.438-2.313 0.188-1.188 0.813-2.063 1.875-2.375 1.813-0.5 2.813-1.563 3.5-3.313 0.563-1.5 1.375-1.75 3-1.563 1 0.125 1.938 0.375 2.875 0.75 2.688 1.25 3.688 3.938 2.5 6.688-0.813 1.938-2.25 3.063-4.25 3.438-0.813 0.125-1.375 0.438-1.813 1.063-0.063 0.125-0.188 0.25-0.313 0.375-1.688 1.938-3 2.563-5.625 2.625zM6.875 23.125c-1.5-2-2.313-4.313-2.313-7.125-0.063-0.5 0.063-1.313 0.188-2.063 1-4.875 5.25-8.688 10.125-9.125 5.125-0.438 9.875 2.438 11.75 7.188 0.188 0.375 0.313 0.75 0.438 1.188 0.063 0.125 0.125 0.313 0.313 0.25 0.25-0.063 0.25-0.25 0.188-0.438 0-0.125-0.063-0.25-0.125-0.375-1.688-4.875-5.125-7.813-10.25-8.313-5.063-0.5-9.063 1.563-11.563 5.938-2.563 4.5-2.188 8.938 0.75 13.125 0.125 0.188 0.25 0.375 0.375 0.5 0.125 0.063 0.25 0.063 0.313 0 0.188-0.063 0.188-0.25 0.063-0.375-0.063-0.125-0.188-0.25-0.25-0.375zM26.5 21.5c-0.375-0.25-0.438 0.25-0.563 0.5-1.563 2.5-3.688 4.25-6.5 5.188-0.125 0-0.25 0.063-0.375 0.125s-0.25 0.125-0.188 0.313c0.063 0.125 0.188 0.188 0.438 0.188 0-0.063 0.125-0.063 0.313-0.125 2.938-0.938 5.188-2.75 6.75-5.438 0.125-0.25 0.5-0.563 0.125-0.75zM17 13.688c1.188 0 2.188-1 2.188-2.188 0.063-1.25-0.938-2.313-2.188-2.313s-2.25 1-2.25 2.25c0 1.188 1 2.25 2.25 2.25zM17 9.75c0.938 0 1.688 0.75 1.688 1.75-0.063 0.875-0.875 1.688-1.75 1.625-0.938 0-1.625-0.813-1.625-1.688 0-0.938 0.75-1.688 1.688-1.688zM11.813 13.438c-1.25 0-2.25 0.938-2.25 2.25 0.063 1.25 1 2.25 2.25 2.25s2.25-1.063 2.25-2.25c0-1.313-0.938-2.25-2.25-2.25zM11.813 17.375c-0.938 0-1.625-0.688-1.688-1.688 0-0.938 0.75-1.688 1.688-1.688s1.75 0.75 1.688 1.625c0 1-0.688 1.75-1.688 1.75z"></path>
</svg>
