<?xml version="1.0" encoding="utf-8"?>
<!DOCTYPE svg PUBLIC "-//W3C//DTD SVG 1.1//EN" "http://www.w3.org/Graphics/SVG/1.1/DTD/svg11.dtd">
<svg version="1.1" xmlns="http://www.w3.org/2000/svg" xmlns:xlink="http://www.w3.org/1999/xlink" width="32" height="32" viewBox="0 0 32 32">
<path d="M24.063 11.875l0.063-0.125h-0.125c-1.125-0.563-2.25-0.938-3.375-1.125 0.063-0.375-0.438-1.25-0.875-1.938l-0.063-0.063-6.313 1.313 0.688 1.063c-4.875 1.5-8.375 5.188-9 5.875l-4.813-4.375v9l4.75-4.313c4.688 5.188 9.5 6.5 13.125 6.5 3.5 0 5.813-1.188 5.875-1.25l0.125-0.063-0.063-0.063c-3.313-5.75-0.063-10.375 0-10.438zM13.75 10.125l5.813-1.25c0.5 0.688 0.875 1.5 0.875 1.75-2.188-0.438-4.25-0.188-6.125 0.313zM0.438 21.063v-8.063l4.438 4zM5.188 17.063c0.75-0.875 8.813-9.688 18.625-5.188-0.5 0.688-3 5.063 0 10.438-1 0.5-9.938 4.375-18.625-5.25zM31.688 17.063c-0.063-0.063-3.563-3.563-6.75-5h-0.125v0.063c-0.063 0.063-3.438 4.438-0.125 9.938l0.063 0.063 0.063-0.063c0.063 0 4.438-1.875 6.875-4.875l0.063-0.063zM24.813 21.875c-2.938-5-0.313-9 0.063-9.563 2.938 1.313 6.125 4.313 6.563 4.813-2.188 2.688-6 4.438-6.625 4.75zM26.313 17.938c0.5 0 0.938-0.375 0.938-0.938 0-0.5-0.438-0.938-0.938-0.938-0.438 0-0.875 0.438-0.875 0.938 0 0.563 0.438 0.938 0.875 0.938zM26.313 16.25c0.375 0 0.688 0.375 0.688 0.75 0 0.438-0.313 0.75-0.688 0.75s-0.625-0.313-0.625-0.75c0-0.375 0.25-0.75 0.625-0.75zM18.813 15.438c0-1 1.063-1.75 1.063-1.75l-0.125-0.188c-0.063 0.063-1.125 0.813-1.188 1.938 0 0.688 0.313 1.313 1 1.875 0.5 0.438 0.75 0.875 0.625 1.313-0.188 1-1.875 1.563-1.875 1.563l0.063 0.188c0.063 0 1.813-0.625 2.063-1.688 0.063-0.5-0.188-1.063-0.75-1.563-0.625-0.5-0.938-1.063-0.875-1.688zM16.563 15.438c0.063-1 1.063-1.75 1.063-1.75l-0.125-0.188c-0.063 0.063-1.063 0.813-1.125 1.938-0.063 0.688 0.25 1.313 0.938 1.875 0.563 0.438 0.75 0.875 0.688 1.313-0.188 1-1.875 1.563-1.938 1.563l0.063 0.188c0.125 0 1.875-0.625 2.063-1.688 0.125-0.5-0.125-1.063-0.75-1.563s-0.875-1.063-0.875-1.688zM14 15.438c0.063-1 1.063-1.75 1.063-1.75l-0.125-0.188c0 0.063-1.063 0.813-1.125 1.938-0.063 0.688 0.313 1.313 0.938 1.875 0.563 0.438 0.75 0.875 0.688 1.313-0.188 1-1.875 1.563-1.938 1.563l0.125 0.188c0.063 0 1.813-0.625 2-1.688 0.125-0.5-0.125-1.063-0.688-1.563-0.625-0.5-0.938-1.063-0.938-1.688zM11.438 15.438c0.063-1 1.063-1.75 1.063-1.75l-0.125-0.188c0 0.063-1.063 0.813-1.125 1.938-0.063 0.688 0.313 1.313 0.938 1.875 0.563 0.438 0.75 0.875 0.688 1.313-0.188 1-1.875 1.563-1.938 1.563l0.063 0.188c0.125 0 1.875-0.625 2.063-1.688 0.125-0.5-0.125-1.063-0.75-1.563-0.563-0.5-0.875-1.063-0.875-1.688z"></path>
</svg>
