<?xml version="1.0" encoding="utf-8"?>
<!DOCTYPE svg PUBLIC "-//W3C//DTD SVG 1.1//EN" "http://www.w3.org/Graphics/SVG/1.1/DTD/svg11.dtd">
<svg version="1.1" xmlns="http://www.w3.org/2000/svg" xmlns:xlink="http://www.w3.org/1999/xlink" width="32" height="32" viewBox="0 0 32 32">
<path d="M8.125 9.375c0 0 0.063 0 0.063 0.063 0.063 0 0.125 0 0.125 0h0.25l-0.438-4.125-1.813 0.313c-0.25 0-0.5 0.188-0.688 0.375s-0.25 0.5-0.188 0.75l0.563 2.625zM5.875 6.188c0.125-0.125 0.313-0.188 0.5-0.25l1.438-0.25 0.313 3.375c0 0 0 0 0 0h-1.813l-0.5-2.375c-0.063-0.188 0-0.313 0.063-0.5zM9.875 10.125v0.063c0.313 0.313 0.5 0.625 0.563 1 0.125 1.25 0.813 2.375 1.875 3.188l0.313 0.188v-12.063h-0.25l-2.25 0.188c-0.25 0-0.5 0.125-0.688 0.313s-0.25 0.438-0.25 0.688l0.688 6.375zM9.688 3.25c0.125-0.125 0.313-0.25 0.5-0.25l2.063-0.188v11.063c-0.813-0.75-1.375-1.688-1.5-2.75-0.063-0.375-0.25-0.75-0.563-1.125l-0.688-6.313c0-0.188 0.063-0.313 0.188-0.438zM23.75 9.438c0.063-0.063 0.063-0.063 0.125-0.063h2.125v-0.125l0.563-2.5c0-0.25 0-0.5-0.188-0.688-0.125-0.25-0.438-0.375-0.688-0.438l-1.813-0.313-0.438 4.125h0.188c0.063 0 0.125 0 0.125 0zM24.188 5.688l1.438 0.25c0.188 0.063 0.375 0.125 0.5 0.313 0.063 0.125 0.125 0.25 0.063 0.438l-0.5 2.375h-1.813c0 0-0.063 0-0.063 0zM21.563 11.188v0c0.063-0.313 0.188-0.688 0.5-1l0.063-0.063 0.688-6.438c0-0.188-0.063-0.438-0.25-0.625-0.125-0.25-0.438-0.375-0.75-0.375l-2.125-0.188h-0.063c-0.063 0-0.063 0-0.125 0h-0.125v12.063l0.25-0.188c1.063-0.813 1.75-1.938 1.938-3.188zM19.688 2.813l2.125 0.188c0.188 0 0.375 0.125 0.5 0.25s0.188 0.25 0.125 0.438l-0.625 6.313c-0.375 0.375-0.563 0.75-0.563 1.125-0.188 1.063-0.688 2-1.563 2.75zM16 15.563c0.688 0 1.375-0.125 2-0.313l0.125-0.063v-14c0-0.563-0.5-0.938-1.063-0.938h-2.125c-0.625 0-1.063 0.375-1.063 0.938v14l0.125 0.063c0.625 0.188 1.313 0.313 2 0.313zM14.188 1.188c0-0.375 0.313-0.625 0.75-0.625h2.125c0.375 0 0.688 0.25 0.688 0.625v13.75c-1.125 0.375-2.375 0.375-3.563 0v-13.75zM6.625 31.375c0.063 0.5 0.5 0.875 1.063 0.875h16.625c0.563 0 1-0.375 1.063-0.875l0.125-1.125h-19zM25.125 30.563l-0.125 0.813c0 0.313-0.313 0.563-0.688 0.563h-16.625c-0.375 0-0.688-0.25-0.75-0.563l-0.063-0.813zM27.5 10.75c-0.188-0.188-0.438-0.313-0.75-0.313h-2.875c-0.563 0-1 0.375-1.063 0.875-0.438 3.063-3.375 5.313-6.813 5.313-3.5 0-6.375-2.25-6.813-5.313-0.063-0.5-0.5-0.875-1.063-0.875h-2.875c-0.313 0-0.563 0.125-0.75 0.313-0.25 0.25-0.313 0.5-0.313 0.813l2.25 18.125v0.188h19.125l2.25-18.313c0-0.313-0.125-0.563-0.313-0.813zM25.25 29.5h-18.5l-2.188-18c-0.063-0.188 0-0.375 0.125-0.5 0.188-0.125 0.375-0.188 0.563-0.188h2.875c0.375 0 0.688 0.25 0.75 0.563 0.438 3.188 3.5 5.625 7.125 5.625s6.688-2.438 7.125-5.625c0.063-0.313 0.375-0.563 0.75-0.563h2.875c0.188 0 0.375 0.063 0.5 0.188s0.188 0.313 0.188 0.5z"></path>
</svg>
