<?xml version="1.0" encoding="utf-8"?>
<!DOCTYPE svg PUBLIC "-//W3C//DTD SVG 1.1//EN" "http://www.w3.org/Graphics/SVG/1.1/DTD/svg11.dtd">
<svg version="1.1" xmlns="http://www.w3.org/2000/svg" xmlns:xlink="http://www.w3.org/1999/xlink" width="32" height="32" viewBox="0 0 32 32">
<path d="M31.438 28.938c-0.938-0.938-1.938-1.938-2.875-2.875-0.25-0.25-0.438-0.563-0.75-0.625 0-0.188-0.188-0.313-0.313-0.438-0.938-0.938-1.875-1.875-2.875-2.813-0.5-0.5-0.625-0.813 0-1.25 0.5-0.375 0.5-0.688 0.063-1.125-0.563-0.5-1.063-1.063-1.625-1.563-0.375-0.313-0.438-0.563-0.188-1.063 1.063-2.25 1.313-4.563 0.938-7-1.125-6.438-7.188-10.813-13.688-9.75-4.688 0.75-7.938 3.5-9.438 8-1.5 4.438-0.563 8.563 2.688 12.063 3.375 3.688 8.813 4.75 13.438 2.688 0.625-0.313 1-0.188 1.375 0.25 0.5 0.563 1 1.063 1.5 1.563 0.313 0.313 0.563 0.313 0.875 0 0.75-0.75 0.75-0.688 1.563 0.063 0.25 0.25 0.563 0.625 0.875 0.875 0.75 0.688 1.375 1.5 2.188 2.063 1.125 1.375 2.438 2.625 3.75 3.75 0.75 0.688 1.938 0.5 2.625-0.25 0.625-0.688 0.563-1.813-0.125-2.563zM12.063 23.75c-6.375 0.063-11.563-5.125-11.563-11.5-0.063-6.375 5.125-11.5 11.5-11.563 6.25 0 11.5 5.188 11.563 11.438 0 6.375-5.125 11.625-11.5 11.625zM20.5 24.5c-0.25 0.188-0.375 0.313-0.625 0-0.563-0.5-1.063-1.063-1.625-1.563-0.25-0.25-0.188-0.375 0.063-0.563 1.688-1 3-2.438 4.063-4.125 0.75 0.563 1.313 1.25 1.938 1.875 0.188 0.188 0.188 0.375 0 0.563-1.313 1.25-2.563 2.5-3.813 3.813zM31.188 31.313c-0.625 0.625-1.625 0.563-2.375-0.188-0.938-0.938-1.875-1.875-2.875-2.813-0.125-0.188-0.25-0.438-0.563-0.438-0.563-0.938-1.5-1.563-2.188-2.375-0.5-0.563-1.438-1-1.375-1.563s0.875-1.063 1.375-1.563c0.375-0.438 0.625-0.5 1.063-0.063 0.875 1 1.875 1.938 2.813 2.875 0.188 0.188 0.313 0.438 0.625 0.375-0.063 0.375 0.25 0.5 0.438 0.688 0.938 0.938 1.875 1.875 2.813 2.813 0.75 0.75 0.813 1.625 0.25 2.25zM17.563 6.25c-1.313-0.813-2.75-1.5-4.188-2.188-0.813-0.375-1.688-0.625-2.625-0.563-1.75-0.063-3.125 0.75-3.75 2.313-0.5 1.25-1.25 2.375-1.938 3.5-0.875 1.313-1 2.688-0.25 4.125 0.188 0.313 0.375 0.688 0.563 1.063 0.938 1.313 1.625 2.75 2.125 4.313 0.188 0.5 0.438 1 0.75 1.438 0.875 1.438 2.438 1.75 3.875 0.813 0.563-0.375 1.063-0.813 1.5-1.375 0.813-1.25 1.875-2.125 3.188-2.875 1.313-0.688 2-1.813 2.313-3.25 0.125-0.813 0.313-1.688 0.5-2.563 0.375-2.188-0.188-3.563-2.063-4.75zM19.25 10.438c-0.188 1.125-0.375 2.313-0.688 3.5-0.313 1.125-0.938 2-2 2.563-1.375 0.688-2.438 1.75-3.375 3-0.375 0.5-0.813 0.938-1.375 1.313-1.125 0.688-2.375 0.375-3.125-0.688-0.25-0.313-0.438-0.625-0.563-1-0.625-2.063-1.688-3.813-2.813-5.625-0.813-1.375-0.75-2.688 0.125-4 0.75-1.125 1.438-2.313 2-3.563 0.563-1.438 1.75-2.063 3.25-2.063 0.438 0 0.813 0.063 1.25 0.188 2.188 0.688 4.25 1.75 6.125 3.125 1.063 0.75 1.438 1.938 1.188 3.25zM10.688 8.75c-1.563 0-2.875 1.25-2.875 2.813 0 1.625 1.25 2.875 2.875 2.875 1.563 0 2.813-1.25 2.813-2.813 0-1.625-1.25-2.875-2.813-2.875zM10.625 14c-1.313 0-2.375-1.063-2.375-2.438 0-1.313 1.125-2.438 2.438-2.375 1.375 0 2.438 1.063 2.375 2.438 0 1.313-1.063 2.375-2.438 2.375z"></path>
</svg>
