<?xml version="1.0" encoding="utf-8"?>
<!DOCTYPE svg PUBLIC "-//W3C//DTD SVG 1.1//EN" "http://www.w3.org/Graphics/SVG/1.1/DTD/svg11.dtd">
<svg version="1.1" xmlns="http://www.w3.org/2000/svg" xmlns:xlink="http://www.w3.org/1999/xlink" width="32" height="32" viewBox="0 0 32 32">
<path d="M28.438 0.25c-8.313 0-16.625 0-24.938 0-2.438-0.063-3.313 0.813-3.313 3.313 0 4.25 0 8.5 0 12.75 0 0-0.063 0-0.063 0 0 4.313 0 8.625 0 12.938 0.063 1.813 1.063 2.875 2.813 2.938 2.125 0.063 4.25 0 6.313 0 0.563 0 1.313 0.063 1.313-0.75-0.063-0.75-0.813-0.625-1.375-0.625-1.75-0.063-3.563-0.063-5.375-0.063-2.188 0-2.438-0.188-2.438-2.438 0.063-8.25-0.063-16.438 0.188-24.625 0.125-2 0.25-2.25 2.25-2.25 8.125 0 16.25 0 24.313 0.25 2.313 0.063 2.5 0.188 2.5 2.438-0.063 8.25-0.125 16.5-0.188 24.75-0.063 1.75-0.375 2.125-2.063 2.125-3.313-0.063-6.563-0.188-9.875-0.188-0.875 0-1.125-0.313-1.125-1.188 0.063-3.5 0.063-7 0-10.438 0-0.813 0.25-1.125 1.063-1.063 1.625 0.063 3.188 0.125 4.75 0.125 0.563 0.063 1.125-0.125 1.125-0.75s-0.625-0.625-1.063-0.625c-1.625 0-3.188 0-4.813 0-0.5 0-1.063 0.063-1-0.75 0.063-1.5-0.188-3.063 0.188-4.563 0.25-1.25 0.938-1.813 2.25-1.813 1.125 0 2.125 0.313 3.125 0.75 0.438 0.188 1 0.438 1.313-0.25 0.25-0.563-0.375-0.75-0.75-0.938-0.875-0.438-1.813-0.688-2.813-0.813-2.625-0.438-4.438 0.938-4.563 3.625-0.063 1.125-0.063 2.313 0 3.5 0.063 0.938-0.25 1.313-1.25 1.25-0.938-0.063-1.938 0-2.875 0-0.438 0-0.75 0.188-0.75 0.625 0 0.5 0.375 0.563 0.75 0.563 0.875 0.063 1.75 0.125 2.625 0 1.25-0.125 1.5 0.438 1.5 1.563-0.063 3.625 0 7.188-0.063 10.813-0.063 1.438 0.5 1.813 1.875 1.813 3.438-0.063 6.875 0 10.313 0 2.625 0 3.5-0.938 3.5-3.5 0.063-8.375 0.063-16.688 0.063-25.063 0-2.625-0.813-3.438-3.438-3.438z"></path>
</svg>
