<?xml version="1.0" encoding="utf-8"?>
<!DOCTYPE svg PUBLIC "-//W3C//DTD SVG 1.1//EN" "http://www.w3.org/Graphics/SVG/1.1/DTD/svg11.dtd">
<svg version="1.1" xmlns="http://www.w3.org/2000/svg" xmlns:xlink="http://www.w3.org/1999/xlink" width="32" height="32" viewBox="0 0 32 32">
<path d="M6.563 11.188c-0.75 0.375-1.063 1.313-0.688 2.063 0.188 0.375 0.5 0.688 0.938 0.813 0.125 0.063 0.313 0.063 0.438 0.063 0.25 0 0.5-0.063 0.75-0.188 0.75-0.375 1.063-1.313 0.688-2.063-0.438-0.75-1.375-1.063-2.125-0.688zM7.875 13.75c-0.313 0.125-0.688 0.125-1 0.063-0.313-0.125-0.625-0.375-0.75-0.688-0.313-0.625-0.063-1.375 0.563-1.688s1.438-0.063 1.75 0.563c0.313 0.625 0.063 1.375-0.563 1.75zM31.5 13.688c-2.313 0.188-4.5 0.813-6.625 2.063-1.25-2.75-3-4.875-5.375-6.563 0.813 0.313 1.938 0.938 3 1.625l0.188 0.125 0.625-3.813h-0.125c-2.625-0.875-6.125-1.75-9.688-0.375h-0.188l0.063 0.125c1.625 4.438 0.125 8.375-1.875 10.625 0.313-0.438 0.5-0.813 0.75-1.25 1.125-2.188 1.375-4.5 0.75-6.875-0.25-0.938-0.688-1.813-1.188-2.625-0.125-0.125-0.25-0.188-0.438-0.25-1.625-0.063-3.25 0.188-4.813 0.625-1.438 0.438-2.625 1-3.688 1.688-0.563 0.375-1.063 0.813-1.625 1.188l-0.313 0.25c-0.125 0.063-0.125 0.313-0.125 0.438 0.375 1.563 0.938 3.125 1.75 4.5 1.313 2.125 3.063 3.875 5.188 5.188 1.125 0.688 2.438 1.25 3.813 1.625 0.125 0.063 0.25 0.125 0.313 0.25 1.438 1.563 3.125 2.688 5 3.375 0.063 0 0.063 0 0.125 0l0.188 0.063 0.313-2.25c0.063-0.313 0.063-0.563 0.125-0.875 0-0.063 0.063-0.125 0.063-0.125 1.938-0.25 3.75-0.938 5.5-1.875 0-0.063 0.063-0.063 0.125-0.063 1 2.25 2.313 4.125 4.125 5.625l0.188 0.188 0.063-0.438c0-0.063 0-0.188 0-0.25v-1.25c0.063-1.625 0.063-3.188 0.125-4.75 0-0.188 0.063-0.375 0.188-0.5 0.875-1.25 1.75-2.563 2.688-3.813l0.813-1.188c0.063-0.063 0.063-0.063 0.125-0.125l0.188-0.313zM30.438 15.188c-0.875 1.25-1.75 2.5-2.625 3.75-0.188 0.188-0.25 0.438-0.25 0.688-0.063 1.563-0.063 3.125-0.125 4.688l-0.063 1.313c0 0.063 0 0.063 0 0.125-1.688-1.5-2.938-3.313-3.875-5.5l-0.063-0.125-0.25 0.125c-0.063 0-0.063 0.063-0.125 0.063-1.75 0.938-3.563 1.563-5.438 1.875-0.125 0-0.25 0.188-0.25 0.313-0.063 0.313-0.125 0.625-0.125 0.938l-0.25 1.938c0 0 0 0 0-0.063-1.875-0.625-3.5-1.75-4.938-3.25-0.125-0.125-0.25-0.25-0.438-0.313-1.375-0.375-2.625-0.938-3.75-1.625-2.063-1.25-3.813-3-5.063-5.063-0.813-1.375-1.375-2.875-1.75-4.438 0-0.063 0.063-0.125 0.063-0.188l0.313-0.25c0.5-0.375 1.063-0.75 1.563-1.125 1.063-0.688 2.25-1.25 3.625-1.625 1.563-0.5 3.188-0.688 4.75-0.625 0.063 0 0.125 0.063 0.188 0.063 0.5 0.813 0.938 1.688 1.125 2.563 0.625 2.313 0.375 4.563-0.688 6.688-0.438 0.938-1.063 1.75-1.938 2.563l-0.938 0.938 1.125-0.688c1.438-0.938 2.688-2.625 3.438-4.5 0.625-1.688 1.125-4.313 0-7.5 3.438-1.25 6.75-0.438 9.313 0.375l-0.5 3.188c-1.563-1-3.063-1.75-3.688-1.75h-0.5l0.375 0.25c2.75 1.688 4.688 4 6 7l0.063 0.125 0.125-0.063c2.063-1.188 4.125-1.875 6.375-2.063z"></path>
</svg>
