<?xml version="1.0" encoding="utf-8"?>
<!DOCTYPE svg PUBLIC "-//W3C//DTD SVG 1.1//EN" "http://www.w3.org/Graphics/SVG/1.1/DTD/svg11.dtd">
<svg version="1.1" xmlns="http://www.w3.org/2000/svg" xmlns:xlink="http://www.w3.org/1999/xlink" width="32" height="32" viewBox="0 0 32 32">
<path d="M26.438 28.313c2-1.938 2.813-4 1.938-6.25-0.875-2.313-0.75-5-2.625-6.938 0.5-0.188 0.813 0.313 1.063 0.063 0.313-0.375-0.063-0.75-0.188-1.063-0.438-1-1.25-1.688-1.938-2.563 0.313-0.063 0.688 0 0.813-0.125 0.188-0.25-0.125-0.438-0.313-0.625-0.625-0.688-1.5-1.188-2.375-1.5s-1.688-0.5-2.625-0.813c1.375-1.75 3.188-1.375 5-1.125-0.438-0.875-1.125-1.25-1.875-1.375-0.688-0.125-1.438 0-2.188 0 0.75-0.625 1.5-0.625 2.25-0.438 0.313 0.125 0.688 0.438 0.875 0.125 0.25-0.438-0.188-0.75-0.5-1-0.813-0.75-1.875-0.5-2.938-0.625 0.688-1.875 2.25-2.813 3.75-3.813-2.063 0.188-3.813 1-5.188 2.563-0.438 0.438-0.625 0.625-1.25 0.125-0.688-0.625-1.625-0.75-2.5-0.188 0.25 0.625 1 0.5 1.375 1.188-1.25-0.5-2.375-0.625-3.5 0.25 0.938 0.625 2.125 0.5 2.875 1.375-3.375-0.688-5.625 0.063-6.375 2.125 1.938-1.25 4.375-1.125 5.75 0.188-0.438 0.25-0.875 0.313-1.313 0.313-1 0.125-1.875 0.438-2.688 1-0.688 0.438-0.563 0.75 0.313 0.875-1.188 0.938-2.313 1.75-2.875 3.125 0.438 0.063 0.75 0.063 1.125 0.125-0.563 0.688-1.125 1.313-1.688 1.938-0.375-0.625-0.688-1.188-1.375-1.25-0.813-0.125-1.063-0.625-1.25-1.313-0.063-0.375-0.25-0.688-0.438-1.063-0.188-0.438-0.563-0.75-1.063-0.625-0.625 0.188-1.25 0.5-1.5 1.188-0.188 0.5 0.188 0.875 0.563 1.125 0.813 0.563 1.688 1.125 1.188 2.375-0.125 0.188-0.063 0.563 0.063 0.75 1.063 1.375 0.375 2.625-0.125 3.938-1 2.563-2.125 5.063-1.063 7.813-1 0.188-2.063-0.188-3.125 0.25 2.313 2.438 4.875 4.063 8.313 3.813 1.25-0.125 2.563-0.063 3.813-0.063 4.313 0 8.625 0.063 12.875-0.125 2.563-0.063 4.375-1.563 6-3.75-1.688 0-3.188 0-5.063 0zM27.813 21.5c0.125 0.188 0.25 0.438 0 0.813 0.188 0.313 0.188 0.813 0.188 1.188 0.188 1.625-0.313 2.813-1.313 3.938-0.75 0.813-1.625 0.688-2.375 0.688-0.688 0-1.375-0.063-2.125 0.125-0.375 0.063-0.813 0.063-1.25 0-1-0.125-1.125-0.5-0.563-1.313 1.5-2.25 1.5-4.563 0.125-6.813-0.375-0.563-0.375-0.938 0.25-1.063 0.625-0.188 1.25-1.063 1.938-0.188 0.438-0.375 0.875-0.25 1.375-0.125 1.75 0.25 3 1.188 3.75 2.75zM16 26.625c-0.563 0.188-0.5 1-1.125 1.063 0.188-0.875 1-1.563 0.875-2.688-0.688 0.688-0.563 1.75-1.5 2.375 0.438-1.438 1.125-2.625 0.563-4.063-0.25 1.625-0.313 3.25-1.813 4.625 1.813-3.625 1.625-6.688-1.75-9.125 1.563-1.375 3.313-1.5 5.188-1.188 0.688 0.063 1.125 0.438 0.75 1.188-0.188 0.375-0.375 0.875 0.063 1.125 0.438 0.313 0.75-0.188 1-0.5 0.438-0.625 0.688-0.563 1.188 0 2.125 2.375 2.063 6-0.25 8.25-1.063 1.063-2.375 0.313-3.625 0.625-0.063-0.75 0.625-1 0.438-1.688zM17.563 19.125c0.313-0.875 0.625-1.813 0.938-2.75 0.188-0.625 0.5-0.438 0.938-0.25 0.438 0.25 0.625 0.563 0.313 1-0.688 0.75-1.313 1.438-2 2.125-0.063 0-0.125-0.063-0.188-0.125zM11.625 6.438c1.563-1.188 3-1 4.5-0.438 0.25 0.125 0.625 0.5 0.875 0.125 0.25-0.313-0.063-0.688-0.313-0.938-0.5-0.563-1.25-0.625-2.063-1.063 1.5-0.438 2.375 0.375 3.313 1.125 0.188-1.063 0.188-1.063-1.188-2.313 1.188 0 1.688 0.688 2.188 1.875 0.375-2 1.688-2.625 2.938-3.313-0.5 0.75-1.125 1.375-1.438 2.25-0.25 0.5-0.438 1 0.563 0.75 0.875-0.188 1.688-0.063 2.75 0.688-1.813-0.313-3.25-0.063-4.313 1.5 1.5-0.063 2.813-0.813 4.25 0-2-0.063-3.5 0.563-4.375 2.313-0.375 0.625-2 0.625-2.25 0-1-2.438-3-2.625-5.438-2.563zM10.063 14.313c0.563-0.5 1.063-1 1.813-1.75-0.813 0.063-1.25 0.125-1.813 0.188 0.688-1.625 2.313-2.125 3.625-3.188-0.563-0.063-0.875-0.125-1.375-0.188 1.188-0.75 2.375-0.875 3.563-0.875 0.25-0.063 0.438 0.063 0.625 0.313 0.813 1.125 2.063 1.313 3.125 0.438 0.188-0.125 0.313-0.25 0.563-0.25 0.938 0 3.5 1.063 4.313 1.813-0.375 0.25-0.813-0.313-1.25 0.125 1.063 1.063 2.375 1.875 2.875 3.375-0.5 0.375-0.938-0.375-1.438 0.063 1.063 1.5 2.313 3.063 2.438 5.063-0.313 0.125-0.438-0.063-0.563-0.188-1.875-1.438-3.813-1.563-5.875-0.688-0.438 0.188-0.875 0.75-1.313 0.125-0.438-0.563 0.25-0.75 0.5-1 0.813-1 0.688-1.438-0.375-2-1.125-0.563-1.375 0.125-1.563 0.875-0.188 0.813-0.5 0.938-1.313 0.688-1.813-0.563-3.563-0.25-5.063 0.813-0.688 0.438-1 0.313-1.5-0.188-1.5-1.563-1.5-2.063 0-3.563zM3.875 13c-0.25-0.188-0.688-0.375-0.438-0.813 0.25-0.313 0.563-0.563 1-0.688 0.375-0.125 0.688 0.063 0.813 0.438 0.313 0.875 0.75 1.688 0.75 2.875-0.813-0.688-1.5-1.25-2.125-1.813zM5.125 15.75c-0.063-0.188 0-0.438 0.125-0.563 0.313-0.313 0.438 0.063 0.625 0.125 0.688 0.438 0.75 0.063 0.688-0.5 0-0.25-0.125-0.563 0.313-0.5 0.313 0.063 0.125 0.313 0.125 0.5 0.063 0.813-0.375 1.188-1.188 1.125-0.188-0.25-0.625 0.313-0.688-0.188zM3.625 25.438c0.313-1.938 0.938-3.813 1.688-5.625 0.5-1.125 0.813-2.25-0.125-3.5 1.375 0.188 2.25-0.188 2.375-1.5 0.5 0 0.563 0.438 0.625 0.688 0.563 1.75 1.688 2.938 3.125 3.938 2.75 2 3.25 5.375 1.25 8.188-0.313 0.438-0.688 0.688-1.25 0.625-0.688-0.063-1.375-0.063-2 0-1.188 0.125-2.063-0.125-2.375-1.625-0.438 0.688 0 1.063 0.063 1.438-1.125-0.5-1.188-0.625-1.125-3.563-0.563 0.875-0.563 2.063 0 3.563-1.125-0.375-1.438-1.563-1-3.438 0.313-1.25 0.688-2.5 0.875-3.813-0.938 2.313-2.125 4.625-1 7.25-0.938-0.438-1.313-1.375-1.125-2.625zM24.438 31.813c-5.625 0-11.25 0-16.875 0-1.063 0-2-0.25-3.188-0.938 8 0 15.625 0 23.5 0-1.25 0.75-2.313 0.938-3.438 0.938zM27.688 30.438c-7.438-0.125-14.938-0.125-22.438 0-1.563 0-2.75-0.438-3.813-1.813 9.75 0 19.375 0 29.188 0-0.938 0.875-1.438 1.813-2.938 1.813zM17.438 14.188c-0.625-0.125-0.75 0.438-1.125 0.5-0.5 0.063-0.313-0.813-0.938-0.75 0.563 1.75 0.625 1.75 2.063 0.25zM16.813 20.688c0.5 0.313 1 0.563 1.5-0.188-1.125 0.188-1.813-0.25-1.938-1.375-0.375 0.688-0.125 1.25 0.438 1.563z"></path>
</svg>
