<?xml version="1.0" encoding="utf-8"?>
<!DOCTYPE svg PUBLIC "-//W3C//DTD SVG 1.1//EN" "http://www.w3.org/Graphics/SVG/1.1/DTD/svg11.dtd">
<svg version="1.1" xmlns="http://www.w3.org/2000/svg" xmlns:xlink="http://www.w3.org/1999/xlink" width="32" height="32" viewBox="0 0 32 32">
<path d="M17.438 21c-0.875-0.75-1.875-1.313-2.875-2-0.438-0.25-0.875-0.563-1.25-1-0.625-0.75-0.563-1.688 0.188-2.313 0.25-0.25 0.5-0.438 0.75-0.625 0.75-0.5 1.438-0.938 2.063-1.563 1.688-1.875 2.063-4.125 1.875-6.438-0.188-1.938-1.188-3.5-2.563-4.813-0.188-0.188-0.438-0.375-0.625-0.563 0.125-0.063 0.188-0.063 0.313-0.063 0.938 0 1.938 0 2.938 0 0.5 0 0.813-0.438 0.625-0.875-0.063-0.188-0.188-0.438-0.375-0.438-2.438-0.125-6.375-0.125-8.5 0-0.563 0.063-1.063 0.188-1.625 0.25-1.875 0.438-3.563 1.25-4.688 2.875-0.75 1-1.125 2.25-1.313 3.5-0.188 1.5-0.125 3 0.438 4.438 1 2.688 3 4.25 5.813 4.75 0.938 0.188 1.875 0.188 2.813 0 0.063 0 0.188-0.063 0.188 0.188-0.25 1.25 0.25 2.25 1.188 3.063 0.438 0.375 0.875 0.625 1.25 1-0.563-0.063-1.125-0.063-1.688-0.125-2.563-0.063-5.063 0-7.5 0.938-0.313 0.188 0.313 1.188 0.688 1.125 0.25-0.063 0.438-0.125 0.688-0.188 1.25-0.375 2.625-0.5 3.938-0.563 2.063 0 4.125 0.188 6.188 0.438 0.125 0 0.25 0.063 0.313 0.125 1.063 0.938 1.625 2.125 1.563 3.563 0 1-0.125 2-0.688 2.875-0.688 0.938-1.625 1.5-2.75 1.813-0.938 0.313-1.938 0.438-3 0.438-1.813 0.063-3.688 0-5.438-0.438-0.688-0.125-1.375-0.375-2-0.75-1-0.563-1.688-1.438-1.875-2.625-0.063-0.813-0.063-1.563 0.25-2.188 0.25-0.563-0.375-1.625-0.813-1.438-0.125 0.125-0.188 0.313-0.25 0.438-0.25 0.5-0.438 1.063-0.5 1.625 0 0.063 0 0.125-0.063 0.25 0 0 0 0.938 0 1.25 0.063 0.438 0.188 0.875 0.313 1.313 0.563 1.313 1.563 2.188 2.813 2.813 1.313 0.563 2.688 0.813 4.063 1 0.375 0.063 0.75 0.125 1.125 0.125 0.813 0 2 0.125 2.875 0 0.125 0 0.188 0 0.25 0 0.813-0.063 1.625-0.25 2.438-0.438 1.313-0.375 2.5-0.938 3.375-2.063 1.188-1.563 1.438-3.375 1.125-5.313-0.25-1.375-1-2.438-2.063-3.375zM10.313 14.938c-2.438 0-4.5-0.813-5.813-3.063-0.563-1-0.875-2.188-0.875-3.313 0-1.188 0.125-2.125 0.5-3 0.438-1.375 1.375-2.375 2.625-3 1.625-0.813 3.313-1.063 5-0.813 2.063 0.313 3.5 1.625 4.5 3.438 0.688 1.188 0.75 2.5 0.625 3.813-0.188 1.25-0.5 2.438-1.375 3.313-1.438 1.438-3.063 2.563-5.188 2.625zM29.938 14.938c-1.125 0-2.25 0-3.375 0-0.25 0-0.375-0.063-0.375-0.313 0.063-0.75 0-1.5 0-2.188 0-0.563 0.063-1.063 0-1.563 0-0.313-0.313-0.563-0.625-0.563-0.375-0.063-0.625 0.188-0.688 0.563 0 0.125 0 0.25 0 0.375 0 1.125 0 2.188 0 3.25 0 0.438 0 0.438-0.375 0.438-1.125 0-2.25 0-3.375 0-0.563 0-0.875 0.25-0.875 0.688s0.313 0.625 0.875 0.625c1.188 0 2.313 0 3.438 0 0.25 0 0.313 0.063 0.313 0.313 0 1.125 0 2.313 0 3.438 0 0.563 0.25 0.875 0.688 0.938 0.375 0 0.625-0.375 0.625-0.938 0-1.125 0.063-2.25 0-3.375 0-0.313 0.125-0.375 0.438-0.375 1.125 0 2.25 0 3.313 0 0.438 0 0.75-0.125 0.938-0.5 0-0.125 0-0.25 0-0.375-0.25-0.375-0.563-0.438-0.938-0.438z"></path>
</svg>
