<?xml version="1.0" encoding="utf-8"?>
<!DOCTYPE svg PUBLIC "-//W3C//DTD SVG 1.1//EN" "http://www.w3.org/Graphics/SVG/1.1/DTD/svg11.dtd">
<svg version="1.1" xmlns="http://www.w3.org/2000/svg" xmlns:xlink="http://www.w3.org/1999/xlink" width="32" height="32" viewBox="0 0 32 32">
<path d="M32 3.375c-1.063-1.063-2.063-2.125-3.188-3.125-0.063 0-0.125 0.063-0.188 0.063-0.125 1-0.25 2-0.375 2.938-0.063 0-0.125 0-0.188 0-1.438-0.938-2.938-1.125-4.563-0.438-0.125 0.063-0.375 0-0.5-0.125-0.75-0.5-1.5-0.688-2.375-0.75-1.688-0.063-3.25 0.375-4.75 1.063-4.25 1.875-7.688 4.875-10.563 8.563-2 2.563-3.688 5.313-4.125 8.625-0.25 1.5 0 2.938 1.188 4.063-0.438 1.5-0.188 2.875 0.75 4.188-1.125 0.188-2.063 0.313-3.063 0.438 0 0.063-0.063 0.125-0.063 0.188 1.063 1.125 2.063 2.188 3.188 3.188 0.063-0.063 0.125-0.063 0.188-0.125 0.125-0.938 0.25-1.938 0.438-3 1.25 0.938 2.688 1.188 4.188 0.75 0.75 0.875 1.75 1.188 2.875 1.25 1.813 0.063 3.438-0.5 5.063-1.25 4.313-2.063 7.813-5.188 10.688-9.063 1.688-2.313 3.125-4.813 3.625-7.688 0.188-1.313 0.125-2.625-0.688-3.813-0.188-0.25-0.25-0.5-0.063-0.813 0.563-1.375 0.438-2.75-0.313-4-0.063-0.188-0.188-0.313-0.25-0.5 1-0.125 2-0.25 3-0.438 0-0.063 0.063-0.125 0.063-0.188zM1.625 21.5c-0.125-1.625 0.25-3.188 0.938-4.563 2.625-5.563 6.75-9.813 12.063-12.813 1.625-0.938 3.438-1.625 5.375-1.75 1 0 2 0.125 2.813 0.813-6.75 6.813-13.625 13.563-20.375 20.438-0.563-0.5-0.813-1.313-0.813-2.125zM3 31.25c-0.688-0.688-1.375-1.375-2-2.063 0.688-0.063 1.438-0.188 2.313-0.313-0.063 0.875-0.188 1.625-0.313 2.375zM29.813 12.188c-0.063 1.875-0.688 3.5-1.5 5.125-2.188 4.063-5.188 7.313-8.938 10-2.125 1.563-4.5 2.875-7.188 3.25-1.313 0.188-2.625 0.125-3.625-0.75 1.063-1.063 2.063-2 3.063-3 3.125-3.125 6.25-6.188 9.313-9.313 2.75-2.688 5.438-5.375 8.188-8.063 0.625 0.813 0.75 1.75 0.688 2.75zM28.5 9.188c-1.063 1.25-2.313 2.438-3.5 3.625-5.125 5.125-10.313 10.313-15.5 15.5-0.813 0.813-1.75 1.313-3 1.313-1.625-0.063-2.875-0.875-3.563-2.375-0.625-1.625-0.375-3.125 0.813-4.375 1.25-1.313 2.563-2.563 3.875-3.813 4.75-4.813 9.563-9.625 14.375-14.375 0.688-0.75 1.438-1.438 2.5-1.688 1.625-0.438 3.313 0.25 4.25 1.625 0.875 1.438 0.875 3.313-0.25 4.563zM28.688 3.563c0.063-0.813 0.188-1.625 0.313-2.438 0.688 0.688 1.375 1.375 2.125 2.125-0.813 0.125-1.563 0.188-2.438 0.313zM22.5 6.813c-0.125-0.125-0.313-0.125-0.5-0.188 0.063 0.188 0.125 0.375 0.25 0.5 0.563 0.688 1.25 1.25 1.875 1.938 0.75 0.75 0.688 2.063-0.063 2.813-0.75 0.813-2 0.813-2.875 0.063-0.25-0.25-0.5-0.5-0.75-0.75-0.75-0.688-1.563-0.938-2.563-0.625-0.938 0.25-1.5 0.938-1.75 1.938-0.188 1.25 0.5 2.125 1.375 2.813 0.75 0.688 0.938 2 0.25 2.875-0.625 0.813-1.875 1.063-2.75 0.375-0.375-0.25-0.75-0.563-1.063-0.938-0.5-0.438-1-0.688-1.688-0.688-1.625-0.25-3.25 1.75-2.375 3.438 0.25 0.563 0.688 1 1.125 1.438 0.875 0.938 0.938 2.188 0.125 3-0.875 0.875-2.125 0.813-3.063-0.125-0.563-0.563-1.188-1.188-1.813-1.75-0.063-0.125-0.25-0.125-0.438-0.125 0.063 0.125 0.063 0.313 0.125 0.438 0.688 0.625 1.313 1.313 2 1.938 1 1 2.5 0.938 3.5 0 1-1 1-2.5 0-3.563-0.313-0.313-0.688-0.625-0.938-1.063-0.563-0.75-0.5-1.75 0.125-2.563 0.438-0.563 1.5-0.813 2.25-0.438 0.563 0.25 1 0.75 1.5 1.125 1.063 1 2.625 1 3.563-0.063 0.938-1 0.875-2.563-0.125-3.563-0.188-0.25-0.438-0.438-0.688-0.688-0.75-0.813-0.75-2.063 0.063-2.875 0.75-0.813 2-0.813 2.875-0.063 0.25 0.25 0.5 0.5 0.75 0.75 1 1 2.563 1 3.563 0.063 1-1 1-2.563 0-3.625-0.625-0.625-1.25-1.188-1.875-1.813z"></path>
</svg>
