<?xml version="1.0" encoding="utf-8"?>
<!DOCTYPE svg PUBLIC "-//W3C//DTD SVG 1.1//EN" "http://www.w3.org/Graphics/SVG/1.1/DTD/svg11.dtd">
<svg version="1.1" xmlns="http://www.w3.org/2000/svg" xmlns:xlink="http://www.w3.org/1999/xlink" width="32" height="32" viewBox="0 0 32 32">
<path d="M27.875 17.25c0-0.375-0.125-0.5-0.438-0.5-1.875 0-3.688 0-5.563 0-3.375 0-6.813 0-10.25 0-2.313 0-4.625 0.063-6.875 0-0.563 0-0.688 0.188-0.688 0.688 0.063 3.063 0.063 6.125 0.063 9.188s2.5 5.625 5.563 5.625c2.125 0 4.188 0 6.25 0 2.188 0 4.313 0 6.5 0 2.813-0.063 5.375-2.438 5.438-5.25 0.063-3.25 0-6.5 0-9.75zM5.063 17.25c3.625-0.063 7.313-0.063 10.938-0.063 0 0.063 0 0.063 0 0.063 3.688 0 7.375 0 11 0 0.375 0 0.438 0.063 0.438 0.375 0 0.25-0.125 0.25-0.375 0.25-1.875 0-3.688 0.063-5.5 0.063-2.375 0-4.813-0.063-7.25-0.063-1.375 0-2.813 0.063-4.188 0.063-1.688 0-3.438 0-5.125 0-0.313 0-0.438-0.063-0.438-0.438s0.25-0.25 0.5-0.25zM5 18.375c2.563 0 5.063 0 7.625 0 1.125 0 2.188 0 3.313 0 0 0 0 0 0 0 2 0 4.063 0 6.063 0 1.5 0 3 0 4.5 0 0.938 0 0.938 0 0.938 0.875 0 0.688 0 1.313 0 1.938 0 0.25-0.063 0.375-0.313 0.438-0.438 0.125-0.75 0.438-1.125 0.75-0.875 0.813-1.563 0.813-2.438 0-0.5-0.438-1-0.813-1.75-0.813-0.625 0.063-1.063 0.313-1.5 0.688-1.063 0.938-1.688 0.938-2.688 0s-2.063-1-3.063 0c-0.875 0.875-1.875 0.875-2.75 0-0.938-0.938-2.063-0.938-3.063 0s-1.625 0.938-2.688 0c-0.313-0.313-0.688-0.563-1.188-0.625-0.188-0.063-0.313-0.125-0.313-0.375 0.188-0.813 0-1.625 0-2.5 0-0.375 0.125-0.375 0.438-0.375zM8.938 31.688c0.25-0.25 0.375-0.625 0.875-0.563-0.25 0.313-0.375 0.75-0.875 0.563zM9.938 31.75c0.375-0.25 0.5-0.688 1.125-0.563-0.375 0.25-0.5 0.688-1.125 0.563zM11.188 31.75c0.313-0.25 0.375-0.688 1-0.563-0.375 0.25-0.5 0.688-1 0.563zM12.313 31.813c0.25-0.375 0.438-0.75 1.063-0.625-0.375 0.25-0.563 0.688-1.063 0.625zM13.375 31.75c0.375-0.25 0.5-0.688 1.063-0.625-0.313 0.375-0.438 0.75-1.063 0.625zM14.563 31.75c0.313-0.25 0.438-0.75 1-0.625-0.25 0.313-0.438 0.75-1 0.625zM15.625 31.75c0.438-0.25 0.563-0.75 1.125-0.563-0.313 0.25-0.438 0.688-1.125 0.563zM16.875 31.813c0.25-0.375 0.438-0.75 1.063-0.625-0.375 0.25-0.5 0.688-1.063 0.625zM18 31.75c0.313-0.313 0.438-0.688 1.063-0.625-0.375 0.313-0.5 0.75-1.063 0.625zM19.125 31.813c0.313-0.375 0.5-0.75 1.063-0.688-0.313 0.313-0.5 0.688-1.063 0.688zM20.313 31.813c0.25-0.375 0.375-0.75 1-0.625-0.313 0.313-0.438 0.688-1 0.625zM21.438 31.75c0.313-0.25 0.438-0.688 1.063-0.625-0.375 0.313-0.5 0.75-1.063 0.625zM22.625 31.688c0.25-0.25 0.438-0.625 1-0.563-0.313 0.313-0.438 0.688-1 0.563zM26.688 27.063c-1.063 0.063-2.125 0-3.25 0-0.188 0.063-0.563-0.125-0.563 0.188 0 0.438 0.438 0.25 0.625 0.25 1.125 0 2.188 0 3.313 0 0.5 0 0.563 0.188 0.375 0.563-0.125 0.375-0.25 0.688-0.438 1.063-0.563 1-1.25 1.563-2.563 1.563-5.688-0.063-11.375-0.063-17 0-0.563 0-0.875-0.188-1.25-0.563-0.5-0.625-0.938-1.313-1.188-2.063-0.125-0.438 0-0.563 0.438-0.563 1.75 0 3.438 0 5.188 0 0.188 0 0.313 0 0.5 0 0.125 0 0.188-0.063 0.25-0.188 0-0.188-0.125-0.188-0.25-0.188-0.188-0.063-0.375-0.063-0.5-0.063-1.75 0-3.5 0-5.188 0-0.313 0-0.625 0.125-0.625-0.375 0.063-0.5 0.375-0.313 0.625-0.313 3.625 0 7.188 0 10.813 0 3.563 0 7.188 0 10.75 0 0.25 0 0.688-0.188 0.688 0.375-0.063 0.563-0.438 0.313-0.75 0.313zM27.438 25.313c0 0.5-0.125 0.625-0.625 0.625-3.563 0-7.188 0-10.813 0-3.563 0-7.125-0.063-10.688 0-0.625 0-0.75-0.188-0.75-0.75 0.063-0.938 0.063-1.875 0-2.75 0-0.375 0.188-0.438 0.438-0.313 0.375 0.125 0.625 0.375 0.938 0.625 0.938 0.875 2 0.875 3 0 1.063-1 1.688-1 2.75 0 0.938 0.875 2.063 0.875 3 0 1.125-1 1.688-1 2.813 0.063 1 0.813 2.063 0.813 3.063-0.125 0.5-0.5 1.063-0.813 1.75-0.625 0.375 0.125 0.625 0.375 0.875 0.625 1.125 1 2.125 1 3.25-0.063 0.063-0.063 0.125-0.188 0.188-0.188 0.25-0.188 0.438-0.438 0.688-0.313s0.063 0.438 0.125 0.625c0 0.875-0.063 1.75 0 2.563zM16.938 9.813c-0.313 0.5-0.5 1.063-0.563 1.688 0 0.188 0 0.375 0.25 0.438 0.25 0 0.25-0.188 0.25-0.438 0-0.563 0.25-1.063 0.5-1.563 0.875-1.313 0.875-2.625 0.063-4-0.813-1.188-0.75-2.375 0-3.625 0.313-0.438 0.5-1 0.563-1.563-0.063-0.188 0.125-0.5-0.25-0.5-0.25-0.063-0.25 0.25-0.25 0.438 0 0.625-0.313 1.125-0.625 1.688-0.688 1.25-0.688 2.438 0.063 3.688 0.813 1.25 0.813 2.5 0 3.75zM23.125 12.438c0.063 0.375-0.125 0.688-0.375 0.938-0.25 0.313-0.438 0.688-0.5 1.063 0 0.188-0.063 0.375 0.188 0.375 0.25 0.063 0.25-0.125 0.25-0.25 0.063-0.375 0.25-0.625 0.438-0.875 0.688-0.875 0.688-1.563 0-2.438-0.563-0.75-0.563-1.25 0-1.938 0.188-0.313 0.438-0.625 0.5-1 0-0.188 0-0.438-0.25-0.438-0.188-0.063-0.25 0.125-0.25 0.313 0 0.313-0.188 0.563-0.375 0.813-0.688 0.938-0.688 1.625 0 2.563 0.25 0.25 0.438 0.5 0.375 0.875zM11.188 13.563c-0.188 0.25-0.375 0.625-0.375 1 0 0.125 0.063 0.25 0.188 0.25 0.188 0.063 0.25-0.063 0.25-0.188 0-0.375 0.188-0.688 0.438-0.938 0.625-0.813 0.625-1.625 0-2.438-0.625-0.75-0.625-1.188 0-1.938 0.25-0.313 0.438-0.625 0.438-1.125 0-0.063 0.063-0.25-0.125-0.313-0.25-0.063-0.25 0.125-0.25 0.313-0.063 0.375-0.313 0.625-0.5 0.938-0.625 0.75-0.625 1.5-0.063 2.25 0.688 0.938 0.688 1.25 0 2.188z"></path>
</svg>
