<?xml version="1.0" encoding="utf-8"?>
<!DOCTYPE svg PUBLIC "-//W3C//DTD SVG 1.1//EN" "http://www.w3.org/Graphics/SVG/1.1/DTD/svg11.dtd">
<svg version="1.1" xmlns="http://www.w3.org/2000/svg" xmlns:xlink="http://www.w3.org/1999/xlink" width="32" height="32" viewBox="0 0 32 32">
<path d="M27.125 4.063c-1.375-1.063-2.75-2.125-4.188-3.125-0.375-0.25-0.688-0.188-0.813 0.313s-0.25 1.063-0.438 1.625c-0.125-0.063-0.125-0.125-0.188-0.125-1.5-1.563-3.25-2.063-5.313-1.438-2.063 0.75-3.125 2.313-3.375 4.438 0 0.375 0 0.563-0.438 0.688-0.438 0.063-0.563-0.125-0.75-0.375-1.125-1.875-2.25-3.688-3.313-5.5-0.25-0.375-0.375-0.438-0.75-0.188-0.875 0.5-1.813 1-2.688 1.5-0.125 0.063-0.438 0.125-0.25 0.375 0.125 0.25 0.313 0.063 0.5 0 0.75-0.438 1.563-0.875 2.313-1.375 0.313-0.188 0.5-0.125 0.688 0.188 1 1.75 2.063 3.5 3.125 5.188 0.188 0.313 0.188 0.438-0.125 0.563-1.125 0.563-1.938 1.375-2.438 2.5-0.375 0.938-0.5 1.813-0.125 2.813 0.625 1.75 1.188 3.563 1.813 5.313 1.188 3.688 2.438 7.313 3.688 10.938 0.125 0.438 0.063 0.75-0.188 1.063-0.563 0.75-1.063 1.5-1.625 2.25-0.063 0.125-0.25 0.25-0.188 0.375 0.125 0.25 0.313 0.188 0.5 0.188 3.188 0 6.438 0 9.625 0 0.125 0 0.313 0.063 0.438-0.125s-0.063-0.313-0.125-0.438c-0.563-0.75-1.125-1.563-1.688-2.25-0.188-0.313-0.25-0.625-0.125-1 1.813-5.375 3.563-10.75 5.438-16.125 0.5-1.438 0.188-2.688-0.563-3.875-0.438-0.625-1.063-1.125-1.75-1.563 1.125-0.688 2.188-1.313 3.188-1.938 0.5-0.313 0.563-0.625 0.125-0.875zM13.25 5.813c0-1.938 1.625-3.875 3.563-4.25 1.75-0.313 3.188 0.188 4.438 1.5 0.25 0.25 0.375 0.5 0.188 0.875-0.063 0.188-0.125 0.438-0.125 0.625-0.188 1.125-0.5 1.938-1.813 2.188-0.875 0.188-1.563 0.875-2.125 1.688-1-1.25-2.25-2.063-3.813-2.125-0.375 0-0.313-0.25-0.313-0.5zM8.75 10.625c0.375-2.25 2.188-3.813 4.438-3.875 2.125-0.063 4 1.438 4.5 3.563 0.188 0.75 0.125 0.75-0.563 0.75-1.313 0-2.563 0-3.875 0-1.375 0-2.688 0-4.063 0.063-0.375 0-0.5-0.125-0.438-0.5zM22 31.75c-3.125 0-6.125 0-9.313 0 0.625-0.875 1.25-1.625 1.813-2.438 0.125-0.188 0.313-0.125 0.5-0.125 1.563 0 3.125 0 4.75 0 0.188 0 0.438 0 0.563 0.188 0.563 0.813 1.063 1.563 1.688 2.375zM20.188 28.563c-0.063 0.25-0.25 0.25-0.438 0.25-1.563 0-3.188 0-4.75 0-0.313 0-0.438-0.125-0.5-0.375-0.563-1.75-1.188-3.5-1.75-5.25-0.125-0.375 0-0.438 0.25-0.563 1.375-0.688 2.813-0.438 4.063 0.813 1.25 1.188 2.688 1.625 4.5 1.063-0.5 1.375-0.938 2.688-1.375 4.063zM21.875 23.563c-0.063 0.25-0.25 0.375-0.5 0.5-1.438 0.563-2.75 0.313-3.875-0.813-0.938-0.938-2.063-1.5-3.5-1.375-0.438 0.063-0.813 0.188-1.188 0.375-0.25 0.125-0.375 0.125-0.438-0.188-0.625-1.875-1.25-3.813-1.875-5.688-0.063-0.188-0.063-0.313 0.125-0.375 1.313-0.688 2.625-0.938 4.063-0.438 1 0.313 1.813 0.938 2.563 1.625 1.688 1.688 3.688 2.25 6 1.5 0.063 0 0.125 0 0.25 0-0.563 1.688-1.125 3.313-1.625 4.875zM25.75 12.063c-0.688 1.875-1.313 3.813-1.938 5.688-0.063 0.25-0.188 0.375-0.438 0.438-2.063 0.75-3.875 0.438-5.5-1-0.688-0.625-1.375-1.25-2.188-1.688-1.5-0.75-3-0.813-4.563-0.25-0.063 0.063-0.063 0.063-0.125 0.063-1 0.313-0.75 0.438-1.063-0.5-0.313-0.875-0.625-1.813-0.938-2.75-0.188-0.438-0.125-0.563 0.375-0.563 2.688 0 5.375 0 8.063 0 2.625 0 5.25 0 7.875 0 0.5 0 0.625 0.063 0.438 0.563zM25.938 10.563c0.125 0.375 0 0.563-0.438 0.563-1.125-0.063-2.25-0.063-3.375-0.063-1.188 0-2.313 0-3.438 0-0.313 0-0.438 0-0.5-0.375 0-0.438-0.063-0.875-0.313-1.25-0.313-0.5-0.125-0.813 0.188-1.188 0.563-0.625 1.313-1.063 2.125-1.313 0.5-0.188 0.5 0 0.375 0.438-0.063 0.188-0.125 0.438-0.188 0.625 0 0.25 0 0.438 0.188 0.625 0.188 0.125 0.375 0.063 0.563-0.063 0.625-0.375 1.25-0.75 1.938-1.188 0.188-0.188 0.375-0.188 0.688-0.063 1.188 0.75 1.938 1.813 2.188 3.25zM20.875 8.188c0.063-0.75 0.313-1.375 0.438-2 0.375-1.5 0.813-3 1.188-4.563 0.063-0.313 0.188-0.375 0.438-0.125 1.313 0.938 2.625 1.938 4 2.938-2.063 1.313-4 2.5-6.063 3.75z"></path>
</svg>
