<?xml version="1.0" encoding="utf-8"?>
<!DOCTYPE svg PUBLIC "-//W3C//DTD SVG 1.1//EN" "http://www.w3.org/Graphics/SVG/1.1/DTD/svg11.dtd">
<svg version="1.1" xmlns="http://www.w3.org/2000/svg" xmlns:xlink="http://www.w3.org/1999/xlink" width="32" height="32" viewBox="0 0 32 32">
<path d="M17.188 24.563c0.563-0.063 0.875-0.5 0.875-1.063 0-0.438-0.063-0.938 0-1.375 0-0.625 0.25-0.875 0.938-0.875 0.75-0.063 1.5 0 2.313 0 1.313-0.063 2.438-0.563 3.375-1.5 1.313-1.313 1.188-3 1.313-4.625 0-0.188-0.125-0.25-0.313-0.25-0.438 0.063-0.438-0.188-0.438-0.5-0.188-1.875-1.063-3.25-2.813-4.125-0.25-0.125-0.375-0.188-0.313-0.5 0.125-2.375-1.063-4.313-3.25-5.313-0.313-0.188-0.375-0.438-0.438-0.688-0.063-0.375 0.25-0.375 0.438-0.438 1.25-0.688 2.438-1.438 3.313-2.625 0.063-0.125 0.313-0.25 0.063-0.438-0.188-0.125-0.25 0.125-0.313 0.25-0.875 1.188-2.063 1.875-3.375 2.563-0.25 0.125-0.375 0.063-0.625-0.125-1-0.813-2.375-0.375-2.688 0.938-0.063 0.25-0.125 0.438-0.375 0.5-2.25 1.063-3.375 2.813-3.25 5.313 0 0.313-0.063 0.438-0.438 0.563-2 0.5-3.25 1.75-3.688 3.813-0.125 0.625-0.313 0.938-1 0.813-0.375-0.063-0.5 0.125-0.5 0.5 0.063 0.438 0.063 0.938 0.125 1.438 0.063 2.375 2.063 4.375 4.438 4.375 0.875 0.063 1.688 0 2.5 0.063 0.625 0 0.875 0.25 0.938 0.875 0 0.438 0 0.938 0 1.438s0.25 0.875 0.813 1c0.313 0.063 0.438 0.188 0.375 0.5 0 0.25 0.125 0.563-0.313 0.625-0.313 0.063-0.5 0.313-0.5 0.625 0 0.25 0.188 0.438 0.438 0.563 0.5 0.25 0.563 0.438 0.125 0.875-0.75 0.75-0.75 1.688-0.063 2.438 0.188 0.125 0.438 0.25 0.313 0.563-0.125 0.25-0.375 0.125-0.625 0.188-1.875 0.063-3.813 0.375-5.625 0.875-0.188 0-0.563 0-0.5 0.25 0 0.25 0.313 0.188 0.5 0.188 2.375 0 4.75 0 7.063 0 0 0 0 0 0 0 0.125 0 0.25 0 0.375 0 2.25 0 4.5 0 6.75 0 0.188 0 0.438 0.063 0.438-0.125 0.063-0.313-0.188-0.25-0.375-0.313-0.063-0.063-0.188-0.063-0.313-0.063-1.813-0.5-3.688-0.75-5.563-0.875-0.188 0-0.438 0.125-0.5-0.188 0-0.188 0.063-0.25 0.188-0.438 0.875-0.875 0.875-1.625 0-2.563-0.25-0.313-0.438-0.625 0.125-0.813 0.313-0.063 0.5-0.25 0.5-0.563s-0.188-0.563-0.5-0.625c-0.438-0.063-0.25-0.438-0.313-0.688s0.125-0.375 0.375-0.438zM24.875 14.25c0.063 0.438-0.063 0.625-0.563 0.625-1.125-0.063-2.188 0-3.25 0s-2.125 0-3.188 0c-0.375 0-0.625-0.063-0.625-0.5s-0.125-0.875-0.375-1.188c-0.25-0.5-0.125-0.813 0.188-1.188 1.063-1.438 2.938-2.125 4.688-1.563 1.75 0.5 3 2 3.125 3.813zM15.563 3.938c0.188-0.75 0.875-1.188 1.563-1 0.125 0 0.25 0.063 0.375 0.125-0.188 0.063-0.375 0.063-0.563 0.125-0.313 0.25-0.438 0.563-0.188 0.938 0.188 0.313 0.5 0.438 0.813 0.25 0.125-0.063 0.25-0.125 0.188-0.25-0.063-0.188-0.188-0.125-0.313-0.063 0.125-0.188 0.375-0.438 0.625-0.25 0.188 0.063 0.125 0.375 0.063 0.625-0.125 0.688-0.5 0.938-1.188 0.75-0.125-0.063-0.188-0.063-0.313-0.125-0.938-0.125-1.188-0.375-1.063-1.125zM14.813 4.813c0.125-0.063 0.313-0.25 0.5 0s0.25 0.438-0.063 0.563c-0.125 0-0.125 0.125-0.063 0.188s0.188 0.063 0.188 0.063c0.75-0.375 1.438-0.125 2.125 0.063 0.25 0.063 0.5 0.063 0.75-0.063 0.188-0.063 0.5 0 0.438-0.313 0-0.188-0.313 0-0.438-0.125 0.063-0.5 0.313-0.563 0.75-0.313 1.75 0.813 2.875 2.688 2.75 4.625 0 0.25 0 0.5-0.438 0.438-2.063-0.313-3.688 0.5-4.875 2.25-0.188-0.063-0.25-0.313-0.375-0.438-1-1-2.125-1.625-3.563-1.625-0.375 0-0.5-0.125-0.5-0.563-0.125-2 1-3.938 2.813-4.75zM7.813 14.313c0.375-2.25 2.25-3.813 4.5-3.875 2.188 0 4.125 1.625 4.563 3.813 0.063 0.5-0.063 0.625-0.563 0.625-1.313-0.063-2.688 0-4 0-1.375 0-2.688-0.063-4.063 0-0.5 0-0.563-0.188-0.438-0.563zM7.438 15.25c2.875 0 5.688 0 8.563 0 3 0 6 0 9 0 0.313 0 0.688-0.125 0.625 0.438-0.063 0.438 0.25 1.063-0.625 1.063-1.813 0-3.625-0.063-5.438-0.063-1.375 0-2.75 0.063-4.125 0.063-1.75 0-3.563 0-5.375 0-1.063 0-2.188-0.063-3.25 0-0.438 0-0.5-0.125-0.438-0.5 0-1 0-1 1.063-1zM10.625 20.875c-2.125-0.063-3.563-1.563-4.125-3.25-0.188-0.438-0.188-0.625 0.438-0.625 1 0.125 2-0.063 3 0 1.625 0 3.25 0.063 4.875 0 1.625 0 3.25 0 4.813 0 1.25 0 2.438 0 3.625 0 0.563 0.063 1.188 0.063 1.75 0 0.563-0.125 0.688 0.063 0.563 0.563-0.438 1.5-2 3.25-4.125 3.313-1.813 0-3.625 0-5.438 0s-3.563 0-5.375 0zM17 31.25c1.5 0.063 3 0.188 4.438 0.563-3.625 0-7.25 0-10.875 0 1.438-0.375 2.938-0.5 4.438-0.563 0.25 0 0.563 0.063 0.563-0.438 0-0.313 0.25-0.188 0.438-0.188s0.5-0.125 0.5 0.25c-0.063 0.438 0.25 0.375 0.5 0.375zM17.313 29c0 0.75-0.625 1.25-1.313 1.25-0.75 0-1.25-0.563-1.25-1.25-0.063-0.75 0.5-1.313 1.25-1.313s1.313 0.563 1.313 1.313zM16.5 24.625c0 0.313 0 0.563 0 0.875s0 0.563 0.375 0.5c0.188 0 0.375 0.063 0.375 0.25 0 0.25-0.188 0.313-0.375 0.313s-0.438 0-0.375 0.313c0 0.375-0.125 0.5-0.438 0.5-0.375 0-0.563-0.063-0.563-0.5 0.063-0.25-0.125-0.313-0.313-0.313s-0.438 0-0.438-0.25c0-0.25 0.188-0.313 0.375-0.313 0.375 0.063 0.438-0.125 0.438-0.438-0.063-0.25-0.063-0.438 0-0.688 0-0.438-0.063-0.625-0.563-0.625-0.563 0-0.688-0.438-0.688-0.875-0.063-0.688 0.125-1.375-0.188-2.125 1.313 0 2.5 0 3.75 0-0.25 0.688-0.125 1.313-0.188 2 0 0.625-0.125 1.063-0.875 1-0.25 0-0.313 0.125-0.313 0.375zM10.625 19.75c-1.375-0.125-2.313-0.875-3-2.188 0.063 1.438 1.75 2.5 2.938 2.5 0.125 0 0.25 0 0.25-0.188 0-0.125-0.125-0.125-0.188-0.125zM16.813 10.688c0.75-0.75 1.625-1.188 2.688-1.313 0.125-0.063 0.375 0 0.313-0.25 0-0.188-0.188-0.125-0.313-0.125-1.188 0.125-2.188 0.625-2.938 1.438-0.125 0.125-0.25 0.25-0.125 0.375 0.188 0.188 0.313 0 0.375-0.125zM13.063 8.75c0.188-1 0.5-1.875 1.375-2.5 0.125-0.125 0.188-0.25 0.063-0.313-0.125-0.125-0.25 0-0.313 0.063-0.938 0.688-1.313 1.625-1.5 2.625-0.063 0.188-0.063 0.375 0.125 0.375 0.188 0.063 0.188-0.125 0.25-0.25zM8.813 14.063c0.188 0.063 0.25-0.125 0.313-0.25 0.313-1.125 1.125-1.813 2.188-2.125 0.125 0 0.25-0.063 0.313-0.25-0.063-0.125-0.188-0.125-0.313-0.063-0.938 0-2.375 1.375-2.563 2.375 0 0.125-0.063 0.25 0.063 0.313zM17.563 12.438c-0.063 0.125-0.313 0.313-0.063 0.5 0.188 0.125 0.25-0.188 0.375-0.313 0.625-0.813 1.438-1.313 2.438-1.375 0.188 0 0.5 0.125 0.5-0.125s-0.313-0.188-0.5-0.25c-1.188 0.063-2.063 0.625-2.75 1.563zM15 22.25c0-0.125 0.125-0.438-0.125-0.438s-0.125 0.313-0.188 0.438c0 0.063 0 0.125 0 0.125 0 0.625 0.063 1.125 0.625 1.375 0.063 0.063 0.188 0.125 0.313 0 0.063-0.125 0-0.188-0.125-0.25-0.5-0.25-0.438-0.75-0.5-1.25z"></path>
</svg>
