<?xml version="1.0" encoding="utf-8"?>
<!DOCTYPE svg PUBLIC "-//W3C//DTD SVG 1.1//EN" "http://www.w3.org/Graphics/SVG/1.1/DTD/svg11.dtd">
<svg version="1.1" xmlns="http://www.w3.org/2000/svg" xmlns:xlink="http://www.w3.org/1999/xlink" width="32" height="32" viewBox="0 0 32 32">
<path d="M32 16.25c0-4.375 0-8.75 0-13.063 0-2.063-0.938-2.938-2.938-2.938-1.375 0-2.688 0-4.063 0-7.375 0-14.688 0-22.063 0-1.813 0-2.875 0.813-2.938 2.438 0 4.688 0 9.313 0 14 0 1 0.5 1.25 1.375 1.188 1.563 0 3.125 0.125 4.625 0 1.25-0.125 1.813 0.25 2.125 1.563 0.813 3.375 3.938 5.813 7.688 6.188 2.875 0.313 6.813-1.688 7.688-4.688 0.938-2.938 2.625-3.438 5.188-3.063 0.313 0.063 0.625 0.063 0.938 0 0.875-0.063 1.125 0.313 1.125 1.188 0 3.375 0 6.688 0 10.063 0 1.375-0.688 1.875-1.938 1.875-8.563 0-17.063 0-25.625 0-1.375 0-1.938-0.625-1.938-2 0.063-2 0-4 0-6.063 0-0.438 0.063-1.063-0.563-1.125-0.688 0-0.688 0.625-0.688 1.125 0 2.125 0 4.25 0 6.375 0.063 2 0.938 2.938 3 2.938 8.625 0 17.25 0 25.938 0 2.188-0.063 3.063-0.875 3.063-3.125 0-4.313 0-8.625 0-12.875 0 0 0 0 0 0zM16.188 24.188c-3.688 0.375-7.188-3.25-7.188-7 0-3.688 3.375-7.25 7.125-7.125 4.125 0.188 7.188 3.063 7.188 7 0 4.125-3.063 7.125-7.125 7.125zM29.313 16.438c-1.125-0.063-2.25-0.063-3.375 0.063-1.063 0.063-1.438-0.438-1.625-1.375-1.063-4-4.375-6.188-8-6.375-3.813-0.188-7.313 2.688-8.25 6.438-0.25 1.125-0.625 1.563-1.813 1.313-1.25-0.188-2.5-0.063-3.75-0.063-0.875 0.063-1.25-0.188-1.25-1.188 0.063-4 0-7.938 0-11.938 0-1.375 0.563-1.813 1.875-1.813 4.375 0 8.688 0 13 0 0 0 0 0 0 0 4.188 0 8.375 0 12.563 0 1.5-0.063 2.063 0.5 2.063 1.938-0.063 3.875-0.063 7.813 0 11.688 0.063 1.063-0.375 1.438-1.438 1.313zM25.875 3.938c-3.188 0-3.25 0.063-3.25 2.875 0 2.938 0.375 3.313 3.063 3.313 2.563 0 2.938-0.375 2.938-3.125 0-2.938-0.125-3.063-2.75-3.063zM25.563 8.75c-1.563 0.063-1.625-0.688-1.688-1.938-0.063-1.5 0.5-1.813 1.813-1.563 1.438-0.313 1.688 0.313 1.75 1.625 0 1.438-0.438 1.813-1.875 1.875zM17.563 21c-3.438 0.938-6.188-1.375-5.625-4.875 0.063-0.563 0.188-1.125-0.5-1.188-0.625-0.125-0.625 0.563-0.75 0.938-0.875 3.125 1.938 6.688 5.313 6.688 0.688 0.063 1.313-0.188 1.938-0.375 0.438-0.188 1.063-0.313 0.875-0.938-0.188-0.688-0.75-0.438-1.25-0.25z"></path>
</svg>
