<?xml version="1.0" encoding="utf-8"?>
<!DOCTYPE svg PUBLIC "-//W3C//DTD SVG 1.1//EN" "http://www.w3.org/Graphics/SVG/1.1/DTD/svg11.dtd">
<svg version="1.1" xmlns="http://www.w3.org/2000/svg" xmlns:xlink="http://www.w3.org/1999/xlink" width="32" height="32" viewBox="0 0 32 32">
<path d="M24.25 10.938c-1.25-1.75-3-2.938-5-3.688-0.25-0.063-0.5-0.063-0.313-0.5 0.875-2.25 0-3.688-2.375-4.063 0 0-0.063 0-0.063 0-0.25 0.063-0.313-0.125-0.313-0.375 0.125-0.625 0.375-1.125 0.938-1.5 0.125-0.125 0.375-0.188 0.25-0.438-0.188-0.313-0.375-0.125-0.563 0-0.688 0.438-1 1.063-1.125 1.813-0.063 0.375-0.188 0.5-0.563 0.563-2.125 0.375-2.938 1.875-2.125 3.938 0.188 0.375 0.063 0.5-0.25 0.625-1.188 0.375-2.25 0.938-3.25 1.75-1.25 1-2.313 2.188-2.688 3.813-0.313 1.625 0.188 2.688 1.688 3.25 0.313 0.125 0.313 0.375 0.375 0.563 1.063 4.5 1.75 9 1.563 13.625-0.063 1.188 0.75 1.938 1.938 1.938s2.438 0 3.625 0c1.25 0 2.5 0 3.688 0 1.25 0 2-0.813 2-2-0.188-4.625 0.375-9.125 1.438-13.563 0.063-0.313 0.188-0.5 0.563-0.563 0.938-0.25 1.563-1.125 1.563-2.063 0.063-1.125-0.313-2.188-1-3.125zM15.125 3.313c0.375-0.063 0.563-0.063 0.563 0.375 0 0.188 0.063 0.438 0.375 0.375 0.188-0.063 0.188-0.25 0.125-0.438-0.063-0.375 0.125-0.375 0.438-0.375 1.313 0.125 2.125 0.875 2.125 2.188-0.063 0.875-0.5 1.688-1.313 2.313-0.938 0.75-2.188 0.688-3.125-0.125-0.5-0.5-0.813-1-1-1.688-0.375-1.375 0.375-2.5 1.813-2.625zM13.188 7.688c0.25-0.063 0.375-0.063 0.563 0.125 1.5 1.375 3 1.375 4.438 0 0.188-0.125 0.313-0.25 0.563-0.125 2.063 0.625 3.75 1.75 5.125 3.563-0.563 0-0.875-0.313-1.125-0.625-0.125-0.125-0.188-0.375-0.438-0.313-0.188 0.063-0.188 0.313-0.25 0.438-0.188 0.875-0.688 1.438-1.563 1.625-0.875 0.125-1.5-0.188-2-0.875-0.25-0.375-0.5-0.438-0.688 0-0.313 0.813-0.938 1.25-1.813 1.25s-1.5-0.438-1.875-1.25c-0.125-0.438-0.313-0.438-0.563-0.063-0.5 0.75-1.188 1.063-2.063 0.938-0.875-0.188-1.438-0.75-1.625-1.688 0-0.125-0.063-0.313-0.188-0.375-0.188 0-0.313 0.125-0.375 0.25-0.313 0.375-0.625 0.625-1.188 0.75 1.375-1.875 3.063-3 5.063-3.625zM12.313 31.688c-0.875 0-1.375-0.438-1.375-1.375 0.188-4.625-0.438-9.125-1.563-13.625-0.063-0.313-0.063-0.5 0.313-0.563 0.188-0.063 0.313-0.125 0.438-0.188 0.25-0.188 0.438-0.25 0.563 0.125 0.188 0.438 0.625 0.75 1.063 0.875 0.375 0.125 0.438 0.313 0.5 0.625 0.375 3.063 0.625 6.125 0.688 9.188 0.063 0.25 0 0.5 0 0.75 0.063 0 0.063 0 0.063 0 0 0.875 0 1.75 0 2.625 0 0.313 0 0.563 0.063 0.813 0.063 0.813 0.063 0.813-0.75 0.75zM15.063 31.688c-0.063 0-0.188 0-0.25 0-1.063 0-1.313-0.188-1.313-1.25 0.063-3.563-0.063-7.188-0.5-10.75-0.063-0.688-0.125-1.375-0.188-2.063-0.063-0.313 0.063-0.5 0.375-0.688 0.688-0.375 1.063-0.313 1.75 0.125 0.688 0.375 0.813 0.75 0.813 1.438 0 2 0 4.063 0 6.063 0 0 0 0 0 0 0 2.188 0 4.313 0 6.5 0 0.563-0.125 0.75-0.688 0.625zM16.5 31.688c-0.375-0.063-0.25-0.313-0.25-0.563 0-2.188 0-4.375 0-6.625s0-4.438 0-6.688c0-0.313 0.063-0.438 0.375-0.5 0.375-0.125 0.688-0.313 0.938-0.625 0.25-0.25 0.375-0.25 0.625-0.063 0.125 0.188 0.313 0.313 0.563 0.313 0.5 0.063 0.5 0.375 0.438 0.75-0.5 4-0.688 8.063-0.688 12.063 0 0.125 0 0.25 0 0.375 0 1.563-0.5 1.938-2 1.563zM22.625 16.688c-0.563 2.125-0.938 4.25-1.188 6.438-0.25 2.25-0.375 4.563-0.313 6.875 0 1.25-0.375 1.688-1.688 1.688-0.563 0.188-0.688-0.063-0.438-0.625 0.063-0.25 0.063-0.5 0.063-0.75-0.063-3.813 0.125-7.625 0.5-11.438 0.063-0.25 0.125-0.5 0.125-0.813 0-0.625 0.125-1.063 0.813-1.25 0.188-0.063 0.438-0.188 0.5-0.375 0.313-0.75 0.813-0.563 1.375-0.313 0.313 0.188 0.313 0.313 0.25 0.563zM23.438 15.625c-0.625 0.188-1.25 0-1.75-0.5-0.125-0.125-0.188-0.375-0.375-0.313-0.25 0.125-0.188 0.313-0.25 0.5-0.188 0.688-0.688 1.063-1.375 1.188-0.625 0.188-1.188-0.125-1.5-0.625-0.375-0.5-0.5-0.313-0.75 0.063-0.563 1-1.688 1.25-2.5 0.563-0.188-0.188-0.25-0.375-0.375-0.563-0.313-0.563-0.313-0.563-0.75-0.063-0.25 0.313-0.563 0.563-1 0.625-0.875 0.188-1.563-0.25-1.875-1.188-0.063-0.188 0-0.438-0.25-0.5-0.188 0-0.313 0.188-0.438 0.313-0.938 1-2.5 0.688-2.875-0.688-0.25-0.813-0.063-1.563 0.25-2.313 0.125-0.125 0.188-0.25 0.375-0.25 0.125 0 0.313 0 0.438-0.063 0.313-0.188 0.688-0.5 1-0.438 0.25 0 0.375 0.563 0.688 0.813 0.875 0.938 2.313 1 3.313 0.125 0.313-0.25 0.438-0.188 0.688 0.063 1 1.25 2.75 1.25 3.813 0 0.125-0.125 0.188-0.375 0.5-0.188 1.625 1.25 3.063 0.938 4.125-0.938 0.438 0.313 0.875 0.563 1.438 0.625 0.188 0 0.313 0.188 0.375 0.375 0.313 0.563 0.375 1.188 0.313 1.875-0.063 0.813-0.5 1.25-1.25 1.5z"></path>
</svg>
