<?xml version="1.0" encoding="utf-8"?>
<!DOCTYPE svg PUBLIC "-//W3C//DTD SVG 1.1//EN" "http://www.w3.org/Graphics/SVG/1.1/DTD/svg11.dtd">
<svg version="1.1" xmlns="http://www.w3.org/2000/svg" xmlns:xlink="http://www.w3.org/1999/xlink" width="32" height="32" viewBox="0 0 32 32">
<path d="M31.875 22.063c-0.375-0.313-0.75-0.563-1.063-0.813-0.125-0.125-0.313-0.125-0.438-0.125-2.563 0-5.125 0-7.688 0-0.375 0-0.563-0.063-0.75-0.375-0.063-0.125-0.125-0.188-0.25-0.313-0.063-0.063-0.063-0.125 0.063-0.25 0.375-0.25 0.688-0.5 1.063-0.75 0.25-0.188 0.25-0.313-0.063-0.5-0.375-0.188-0.688-0.438-1.063-0.625-0.188-0.063-0.188-0.125-0.063-0.188 0.375-0.375 0.688-0.688 1.063-1 0.25-0.25 0.25-0.375-0.125-0.5-0.5-0.25-1-0.438-1.563-0.625 0.375-0.5 0.75-0.938 1.125-1.438 0.125-0.188 0.125-0.313-0.125-0.438-0.625-0.313-1.25-0.625-1.875-0.938-0.188-0.063-0.188-0.125-0.125-0.25 0.313-0.438 0.625-0.938 0.875-1.375 0.125-0.188 0.063-0.313-0.125-0.375-0.063-0.063-0.125-0.063-0.188-0.063-0.625-0.188-1.313-0.438-2-0.625-0.125 0-0.125-0.063-0.125-0.188 0.063-0.563 0.125-1.125 0.25-1.75 0-0.25-0.125-0.313-0.375-0.313-0.438 0.063-0.875 0.125-1.375 0.188-0.125 0-0.125-0.063-0.125-0.188 0-0.5 0-0.938 0-1.438 0-0.313-0.063-0.375-0.375-0.313-0.375 0.125-0.75 0.25-1.188 0.438-0.188 0.063-0.188 0-0.25-0.188-0.125-0.438-0.188-0.938-0.313-1.375-0.063-0.313-0.188-0.375-0.438-0.25-0.438 0.188-0.875 0.375-1.25 0.563-0.125 0.063-0.188 0-0.25-0.125s-0.188-0.313-0.25-0.5c-0.188-0.25-0.313-0.563-0.5-0.875-0.125-0.188-0.188-0.25-0.438-0.125-0.438 0.313-0.875 0.563-1.313 0.813-0.125 0.063-0.188 0.063-0.25-0.063-0.313-0.313-0.625-0.688-0.938-1.063-0.188-0.188-0.313-0.125-0.438 0.063-0.188 0.375-0.375 0.688-0.5 1-0.063 0.125-0.125 0.125-0.25 0.125-0.25-0.063-0.438-0.125-0.688-0.188-0.188-0.063-0.188-0.125-0.25-0.25-0.063-0.313-0.125-0.625-0.188-0.938-0.25-0.813-0.438-1.625-0.625-2.438-0.063-0.438-0.5-0.688-0.875-0.5-0.563 0.188-1.063 0.438-1.563 0.625-0.25 0.125-0.375 0.313-0.375 0.563-0.063 0.25 0.125 0.438 0.25 0.625 0.563 0.938 1.188 1.875 1.75 2.813 0.063 0.063 0.063 0.125 0.063 0.25-0.125 0.188-0.313 0.438-0.375 0.688-0.063 0.125-0.125 0.125-0.25 0.063-0.375-0.125-0.75-0.188-1.063-0.313-0.25-0.063-0.375 0-0.375 0.25 0.063 0.5 0.063 0.938 0.125 1.438 0 0.125 0 0.188-0.125 0.188-0.5 0.188-1 0.313-1.563 0.438-0.188 0.063-0.188 0.188-0.125 0.375 0.125 0.5 0.313 1 0.438 1.5 0.063 0.125 0.063 0.188-0.063 0.25-0.438 0.188-0.813 0.375-1.25 0.5-0.313 0.125-0.313 0.25-0.125 0.563 0.25 0.375 0.5 0.813 0.75 1.188 0.125 0.125 0.125 0.188 0 0.25-0.438 0.188-0.813 0.375-1.188 0.625-0.25 0.125-0.25 0.25-0.063 0.438 0.375 0.313 0.75 0.688 1.125 1 0.063 0.063 0.063 0.125 0 0.188-0.313 0.25-0.563 0.5-0.875 0.75-0.063 0.063-0.125 0.063-0.188 0.125-0.25 0.25-0.25 0.313 0 0.5 0.438 0.313 0.938 0.688 1.375 1 0.125 0.125 0.125 0.188 0.063 0.25-0.375 0.688-0.688 1.313-1 2-0.125 0.25-0.063 0.375 0.188 0.438 0.5 0.063 1.063 0.188 1.625 0.313 0.063 0 0.125 0.063 0.063 0.188-0.188 0.688-0.438 1.375-0.625 2.063-0.125 0.25 0 0.375 0.25 0.375 0.5 0.063 1 0.125 1.563 0.125 0.188 0.063 0.188 0.125 0.125 0.25-0.188 0.438-0.375 0.875-0.563 1.313-0.125 0.375-0.063 0.5 0.313 0.5 0.5-0.063 1-0.063 1.438-0.125 0.125 0 0.188 0.063 0.125 0.188-0.125 0.375-0.188 0.813-0.313 1.188-0.063 0.375 0 0.5 0.375 0.438 0.438-0.125 0.813-0.188 1.25-0.25 0.125-0.063 0.188 0 0.188 0.188 0.063 0.375 0.188 0.813 0.25 1.25 0 0.25 0.125 0.313 0.375 0.188s0.5-0.188 0.75-0.313c0.188-0.063 0.25-0.125 0.313 0.125 0.125 0.5 0.313 0.938 0.5 1.438 0.063 0.25 0.25 0.313 0.438 0.125 0.313-0.25 0.625-0.5 1-0.75 0.063-0.125 0.125-0.063 0.188 0 0.188 0.375 0.375 0.688 0.563 1 0.125 0.25 0.25 0.25 0.438 0.063 0.313-0.313 0.688-0.625 1-0.938 0.125-0.125 0.188-0.125 0.313 0.063 0.313 0.313 0.688 0.688 1 1 0.188 0.188 0.313 0.188 0.438-0.063 0 0 0.063-0.063 0.063-0.063 0.063-0.313 0.25-0.5 0.625-0.5 0.125 0.063 0.25 0 0.438 0 0.125-0.063 0.188 0 0.188 0.125 0.063 0.313 0.188 0.563 0.25 0.875 0.063 0.188 0.125 0.25 0.313 0.25 0.375-0.125 0.75-0.188 1.063-0.313 0.063 0 0.125 0 0.188 0 0.188-0.063 0.25 0 0.313 0.125 0.125 0.25 0.25 0.5 0.375 0.688 0.063 0.25 0.125 0.25 0.375 0.188 0.375-0.125 0.75-0.25 1.125-0.375 0.125 0 0.188 0 0.313 0.063 0.313 0.188 0.688 0.438 1 0.625 0.125 0.125 0.25 0.125 0.375 0 0.313-0.188 0.688-0.375 1-0.625 0.125-0.063 0.25-0.063 0.375 0 0.375 0.125 0.75 0.188 1.063 0.313 0.188 0.063 0.313 0.063 0.438-0.125 0.125-0.25 0.25-0.5 0.375-0.75 0.063-0.125 0.125-0.188 0.25-0.125 0.375 0.063 0.813 0.188 1.188 0.25 0.25 0.125 0.375 0.063 0.438-0.25 0.063-0.25 0.125-0.563 0.188-0.813 0.063-0.125 0.125-0.188 0.25-0.125 0.375 0 0.75 0.063 1.125 0.125 0.188 0 0.313-0.063 0.313-0.25-0.063-0.375-0.063-0.75-0.125-1.125 0-0.125 0.125-0.125 0.188-0.125 0.375 0.063 0.813 0.063 1.188 0.063 0.313 0 0.375-0.125 0.25-0.375-0.125-0.313-0.25-0.625-0.375-0.938-0.063-0.188 0-0.188 0.125-0.25 0.375-0.063 0.688-0.125 1.063-0.188 0.25-0.063 0.313-0.125 0.188-0.375-0.125-0.313-0.313-0.688-0.438-1-0.063-0.125-0.063-0.188 0.063-0.188 0.25-0.125 0.563-0.188 0.813-0.313 0.25-0.063 0.313-0.188 0.188-0.438-0.188-0.313-0.375-0.625-0.563-1-0.063-0.125-0.063-0.188 0.125-0.25 0.313-0.125 0.625-0.313 0.938-0.438 0.25-0.125 0.25-0.313 0.063-0.438zM26.438 21.75c0-0.125 0.063-0.188 0.25-0.188 0.75 0 1.438 0 2.188 0 0.125 0 0.188 0 0.188 0.188-0.188 3.313-2.313 6.188-5.438 7.188-3.063 1-5.813 0.375-8.125-1.75-1.375-1.188-2.125-2.75-2.438-4.5-0.063-0.313-0.063-0.625-0.125-0.938 0-0.188 0.063-0.188 0.25-0.188 0.375 0 0.688 0 1.063 0 0 0 0 0 0 0 0.375 0 0.75 0 1.125 0 0.125 0 0.188 0 0.188 0.188 0.125 1.688 0.938 3.063 2.313 4.063 1.125 0.813 2.438 1.125 3.813 0.938 2.125-0.313 3.563-1.438 4.438-3.438 0.188-0.5 0.313-1 0.313-1.563zM19.563 23c-0.5 0.75-1 1.438-1.438 2.188-0.125 0.125-0.188 0.125-0.313 0-1.063-0.875-1.688-2-1.813-3.375 0-0.188 0-0.25 0.25-0.25 1.313 0 2.688 0 4.063 0 0.063 0 0.188 0 0.25 0-0.313 0.5-0.688 1-1 1.438zM20.875 21.875c0.063-0.063 0.063-0.125 0.125-0.125 0.375 0.563 0.813 1.063 1.188 1.625 0.438 0.688 0.875 1.313 1.375 2 0.125 0.25 0.125 0.25-0.125 0.375-1.625 0.875-3.313 0.813-4.938-0.063-0.125-0.063-0.188-0.125-0.063-0.25 0.813-1.188 1.625-2.375 2.438-3.563zM23 21.563c0.938 0 1.875 0 2.75 0 0.313 0 0.313 0 0.25 0.25-0.125 1.375-0.75 2.5-1.75 3.375-0.188 0.188-0.188 0.188-0.375-0.063-0.75-1.125-1.5-2.188-2.25-3.313-0.063-0.063-0.125-0.125-0.188-0.25 0.563 0 1.063 0 1.563 0zM4.688 3.438c-0.313-0.438-0.563-0.875-0.813-1.313-0.188-0.25-0.188-0.375 0.125-0.5 0.438-0.188 0.875-0.375 1.313-0.563 0.25-0.125 0.375-0.063 0.438 0.188 0.25 1.063 0.438 2.063 0.75 3.125 0 0.125 0 0.188-0.188 0.125-0.063 0-0.125 0-0.188-0.063-0.125 0-0.25 0-0.313 0.188-0.063 0.063-0.063 0.188-0.188 0.313-0.313-0.563-0.625-1-0.938-1.5zM13.938 29.688c0 0-0.063 0-0.063 0.063-0.125-0.125-0.188-0.25-0.313-0.313-0.25-0.313-0.5-0.563-0.75-0.875-0.125-0.125-0.25-0.125-0.438 0-0.313 0.313-0.625 0.625-1 0.938-0.063 0.125-0.125 0.125-0.188 0-0.188-0.375-0.375-0.688-0.563-1-0.125-0.188-0.188-0.25-0.438-0.063-0.313 0.25-0.688 0.563-1.063 0.813-0.125-0.375-0.25-0.75-0.375-1.125-0.063-0.125-0.125-0.313-0.125-0.438-0.125-0.25-0.188-0.25-0.438-0.188-0.25 0.125-0.5 0.25-0.813 0.375-0.063 0-0.125 0-0.125-0.125-0.063-0.438-0.188-0.813-0.25-1.25 0-0.188-0.125-0.25-0.313-0.25-0.438 0.063-0.813 0.125-1.25 0.25-0.125 0-0.125 0-0.125-0.188 0.125-0.375 0.25-0.75 0.313-1.188 0.125-0.25 0-0.375-0.25-0.375-0.5 0.063-0.938 0.063-1.375 0.063-0.25 0-0.25 0-0.188-0.188 0.188-0.438 0.375-0.875 0.563-1.375 0.125-0.25 0-0.375-0.25-0.375-0.563-0.063-1.063-0.125-1.625-0.125-0.125-0.063-0.188-0.063-0.125-0.188 0.25-0.688 0.438-1.313 0.625-2 0.125-0.313 0.063-0.375-0.25-0.438-0.5-0.125-1-0.188-1.5-0.313-0.125 0-0.125-0.063-0.063-0.25 0.313-0.563 0.625-1.188 0.875-1.75 0.188-0.313 0.188-0.313-0.063-0.563-0.438-0.25-0.875-0.563-1.25-0.875-0.063-0.063-0.188-0.125-0.063-0.25 0.375-0.25 0.75-0.625 1.125-0.938 0.125-0.125 0.125-0.25 0-0.313-0.375-0.375-0.75-0.688-1.063-1-0.063-0.063-0.125-0.063-0.125-0.125 0.375-0.188 0.688-0.375 1.063-0.563 0.375-0.25 0.438-0.313 0.188-0.688-0.25-0.313-0.5-0.688-0.75-1.063-0.063-0.125-0.063-0.188 0.063-0.25 0.438-0.188 0.813-0.375 1.188-0.5 0.25-0.125 0.25-0.188 0.188-0.438-0.125-0.5-0.313-0.938-0.438-1.438-0.063-0.125-0.063-0.188 0.125-0.25 0.438-0.063 0.938-0.25 1.375-0.375 0.188-0.063 0.313-0.125 0.313-0.375-0.063-0.375-0.125-0.813-0.125-1.188-0.063-0.188 0-0.188 0.188-0.125 0.25 0.063 0.563 0.188 0.875 0.25 0.188 0.063 0.25 0 0.375-0.125 0.25-0.563 0.563-1.063 0.813-1.563 0.063-0.125 0.125-0.125 0.25-0.125 0.563 0.188 1.125 0.313 1.688 0.5 0.188 0.063 0.313-0.063 0.375-0.188 0.125-0.313 0.313-0.563 0.438-0.813 0.063-0.188 0.125-0.188 0.188-0.063 0.25 0.313 0.563 0.625 0.813 0.875 0.188 0.25 0.25 0.25 0.438 0.125 0.438-0.25 0.875-0.5 1.313-0.75 0.125-0.063 0.125-0.063 0.188 0.063 0.125 0.25 0.25 0.5 0.438 0.688 0.063 0.25 0.25 0.5 0.375 0.75 0.063 0.125 0.188 0.125 0.313 0.063 0.438-0.188 0.813-0.375 1.25-0.5 0.125-0.063 0.188-0.063 0.188 0.063 0.125 0.5 0.25 1 0.375 1.438 0.063 0.25 0.125 0.313 0.375 0.25 0.375-0.125 0.75-0.25 1.125-0.375 0.188-0.063 0.188 0 0.188 0.125 0 0.438 0 0.875 0 1.375 0 0.313 0.063 0.375 0.375 0.313 0.438-0.063 0.813-0.063 1.25-0.125 0.125-0.063 0.188 0 0.188 0.188-0.063 0.5-0.125 1-0.188 1.5-0.063 0.313 0 0.375 0.25 0.438 0.688 0.188 1.313 0.375 1.938 0.563 0.188 0.063 0.188 0.125 0.125 0.25-0.313 0.438-0.563 0.875-0.813 1.313-0.188 0.25-0.125 0.375 0.125 0.5 0.625 0.25 1.25 0.563 1.875 0.875 0.125 0.063 0.125 0.125 0.063 0.188-0.375 0.438-0.688 0.875-1 1.25-0.188 0.25-0.188 0.375 0.125 0.5 0.438 0.188 0.938 0.375 1.375 0.563 0.188 0.063 0.125 0.063 0.063 0.188-0.375 0.313-0.75 0.625-1.063 1-0.188 0.188-0.188 0.313 0.063 0.438 0.375 0.25 0.813 0.438 1.25 0.688-0.313 0.25-0.563 0.438-0.875 0.625-0.063 0.063-0.188 0.188-0.25 0.25-0.188 0.125-0.25 0.25-0.063 0.438 0.125 0.188 0.313 0.375 0.438 0.563-0.063 0.063-0.125 0.063-0.25 0.063-3.25 0-6.438 0-9.688 0-0.188 0-0.313 0.063-0.5 0.125-0.313 0.25-0.625 0.5-1 0.75-0.25 0.188-0.188 0.375 0.063 0.5 0.313 0.188 0.625 0.313 0.938 0.438 0.125 0.063 0.125 0.125 0.063 0.25-0.188 0.313-0.313 0.625-0.5 0.938s-0.125 0.438 0.188 0.5c0.25 0.125 0.5 0.188 0.75 0.313 0.125 0 0.188 0.063 0.125 0.188-0.188 0.313-0.313 0.625-0.5 1-0.063 0.25 0 0.375 0.25 0.375 0.313 0.063 0.688 0.125 1 0.188 0.188 0.063 0.188 0.063 0.125 0.25-0.125 0.25-0.25 0.563-0.313 0.875-0.188 0.188-0.125 0.438 0.063 0.438 0.125 0 0.25 0 0.375-0.063 0.313 0.063 0.625 0 0.938 0 0.188 0 0.188 0.063 0.188 0.188-0.063 0.375-0.063 0.688-0.125 1.063 0 0.063 0.063 0.188 0.125 0.25zM30.5 22.688c-0.375 0.125-0.375 0.188-0.188 0.563 0.125 0.25 0.25 0.563 0.438 0.875 0.063 0.125 0.063 0.188-0.063 0.188-0.313 0.125-0.563 0.188-0.813 0.313-0.25 0.063-0.25 0.188-0.188 0.375 0.125 0.313 0.313 0.625 0.438 0.938 0.063 0.188 0.063 0.188-0.125 0.25-0.313 0-0.625 0.063-0.938 0.125s-0.375 0.188-0.25 0.438c0.125 0.375 0.25 0.688 0.375 1-0.438 0-0.875 0-1.25 0-0.125 0-0.25 0-0.25 0.188-0.063 0-0.063 0.063-0.063 0.125 0 0.313 0.063 0.625 0.063 0.938 0.063 0.188 0 0.188-0.125 0.188-0.375-0.063-0.688-0.063-1-0.125-0.313 0-0.313 0-0.438 0.313-0.063 0.25-0.125 0.5-0.188 0.75 0 0.188-0.063 0.188-0.25 0.188-0.375-0.125-0.75-0.188-1.125-0.313-0.188-0.063-0.313 0-0.438 0.188-0.063 0.25-0.25 0.5-0.313 0.688-0.063 0.125-0.188 0.188-0.313 0.125-0.313-0.125-0.625-0.188-0.938-0.313-0.188-0.063-0.313-0.063-0.438 0.063-0.313 0.188-0.625 0.375-0.938 0.563-0.125 0.125-0.25 0.063-0.313 0-0.375-0.188-0.688-0.375-1.063-0.625-0.063-0.063-0.188-0.063-0.25 0-0.375 0.125-0.75 0.188-1.063 0.313-0.125 0.063-0.188 0.063-0.25-0.063-0.125-0.313-0.25-0.563-0.375-0.813-0.063-0.063-0.125-0.188-0.25-0.125-0.125-0.063-0.25 0-0.313 0.063-0.313 0.063-0.688 0.125-1 0.25-0.125 0-0.188 0-0.25-0.125-0.063-0.313-0.125-0.625-0.188-0.875-0.063-0.188-0.125-0.25-0.313-0.25-0.375 0.063-0.688 0.063-1.063 0.125-0.125 0-0.188 0-0.188-0.188 0.063-0.313 0.063-0.563 0.063-0.875 0.063-0.313 0-0.375-0.313-0.375-0.375 0-0.75 0-1.063 0.063-0.188 0-0.188-0.063-0.125-0.188 0.125-0.25 0.25-0.563 0.375-0.875 0.063-0.25 0-0.375-0.25-0.438-0.313-0.063-0.625-0.063-0.938-0.125-0.25-0.063-0.25-0.063-0.125-0.313s0.25-0.563 0.375-0.875c0.125-0.188 0.063-0.313-0.125-0.375-0.25-0.125-0.563-0.188-0.813-0.313-0.125 0-0.188-0.063-0.125-0.188 0.188-0.313 0.375-0.688 0.563-1 0.063-0.188 0.063-0.313-0.125-0.375-0.313-0.188-0.563-0.313-0.875-0.438-0.125-0.063-0.125-0.125 0-0.188 0.188-0.188 0.438-0.313 0.625-0.5 0.125-0.063 0.188-0.063 0.25-0.063 0.25 0 0.438 0 0.688 0 0.125 0 0.125 0 0.125 0.125 0.063 1.313 0.438 2.563 1.063 3.75 1.063 1.813 2.563 3.125 4.563 3.875 1.188 0.438 2.438 0.625 3.688 0.5 1.688-0.188 3.188-0.75 4.5-1.813 1.25-1 2.125-2.25 2.688-3.813 0.313-0.75 0.438-1.563 0.5-2.375 0-0.188 0.063-0.25 0.25-0.25 0.5-0.063 0.938 0.063 1.313 0.438 0.063 0.063 0.188 0.125 0.313 0.188-0.313 0.188-0.625 0.313-0.875 0.5zM8.875 19.375c-0.188 0.063-0.188 0.188-0.125 0.375 0.063 0.313-0.063 0.563-0.375 0.688-0.25 0.125-0.5 0-0.688-0.25-0.125-0.125-0.188-0.25-0.375-0.125-0.125 0.063-0.125 0.188-0.063 0.313 0.25 0.438 0.75 0.625 1.188 0.5 0.438-0.063 0.75-0.5 0.75-1 0-0.063 0-0.188-0.063-0.25 0-0.188-0.125-0.25-0.25-0.25zM13 11.625c0.75 0 1.313-0.688 1.063-1.313-0.063-0.125-0.188-0.25-0.313-0.188s-0.188 0.125-0.125 0.313c0.063 0.313-0.063 0.563-0.313 0.688-0.313 0.125-0.563 0.063-0.75-0.25-0.063-0.125-0.188-0.188-0.313-0.125s-0.125 0.188-0.063 0.375c0.188 0.313 0.5 0.5 0.813 0.5zM13.313 16.438c-0.063-0.188-0.188-0.188-0.313-0.125-0.188 0.125-0.125 0.25 0 0.375 0.188 0.375 0.688 0.563 1.125 0.5 0.438-0.125 0.75-0.563 0.75-1 0-0.125-0.063-0.25-0.063-0.375-0.063-0.125-0.188-0.188-0.313-0.125-0.125 0-0.188 0.125-0.125 0.25s0.063 0.313 0 0.438c-0.063 0.188-0.25 0.313-0.5 0.375-0.25 0-0.438-0.063-0.563-0.313zM6.375 15.563c-0.188 0.063-0.188 0.188-0.125 0.313 0.063 0.313-0.063 0.625-0.313 0.75-0.313 0.125-0.563 0.063-0.75-0.25-0.125-0.125-0.188-0.25-0.313-0.125-0.188 0.063-0.188 0.188-0.063 0.313 0.188 0.438 0.688 0.625 1.125 0.5s0.75-0.5 0.75-1c0-0.063 0-0.188-0.063-0.313s-0.125-0.25-0.25-0.188zM10.938 15.813c0.438-0.125 0.75-0.5 0.75-1 0-0.063 0-0.188-0.063-0.313 0-0.125-0.125-0.25-0.25-0.188-0.188 0.063-0.188 0.188-0.188 0.313 0.125 0.375 0 0.625-0.313 0.75-0.25 0.125-0.563 0-0.75-0.313-0.063-0.125-0.125-0.188-0.313-0.125-0.125 0.125-0.125 0.25-0.063 0.375 0.188 0.375 0.688 0.625 1.188 0.5zM7.313 10.813c0-0.125-0.125-0.188-0.25-0.125-0.125 0-0.125 0.125-0.125 0.25 0 0.063 0.063 0.125 0.063 0.188 0 0.25-0.188 0.5-0.438 0.625-0.25 0.063-0.5 0-0.688-0.313-0.063-0.125-0.125-0.25-0.313-0.125-0.188 0.063-0.125 0.25-0.063 0.375 0.188 0.313 0.5 0.5 0.813 0.5 0.813 0 1.313-0.688 1-1.375z"></path>
</svg>
