<?xml version="1.0" encoding="utf-8"?>
<!DOCTYPE svg PUBLIC "-//W3C//DTD SVG 1.1//EN" "http://www.w3.org/Graphics/SVG/1.1/DTD/svg11.dtd">
<svg version="1.1" xmlns="http://www.w3.org/2000/svg" xmlns:xlink="http://www.w3.org/1999/xlink" width="32" height="32" viewBox="0 0 32 32">
<path d="M20.688 12l-0.063 0.188h0.188c0.25 0.063 0.438 0.063 0.625 0.063 1.188 0 2.125-0.563 2.688-1.688l0.063-0.125-0.188-0.063c-0.625-0.25-1.313-0.25-2 0.063-0.625 0.313-1.125 0.875-1.313 1.563zM22.188 10.75c0.5-0.25 1.063-0.313 1.5-0.125-0.563 0.938-1.438 1.438-2.625 1.25 0.188-0.438 0.625-0.875 1.125-1.125zM20.625 14.75l-0.125 0.125 0.125 0.125c0.563 0.75 1.375 1.125 2.188 1.125 0.5 0 0.938-0.063 1.438-0.313l0.25-0.063-0.125-0.188c-1.063-1.25-2.563-1.563-3.75-0.813zM21 14.938c0.938-0.5 2.063-0.25 2.938 0.688-1.188 0.375-2.188 0.188-2.938-0.688zM19.313 9.313c1.438-0.25 2.313-1.313 2.375-2.813v-0.188h-0.188c-0.625 0.063-1.25 0.313-1.688 0.813-0.5 0.563-0.75 1.25-0.688 2v0.188zM20.063 7.375c0.313-0.375 0.75-0.625 1.25-0.688-0.125 1.188-0.813 1.938-1.813 2.188 0-0.563 0.188-1.063 0.563-1.5zM13.438 20.563l-0.188 0.125c-1.25 0.688-1.625 2.063-1.063 3.5l0.063 0.25 0.188-0.125c1.25-0.875 1.688-2.25 1.063-3.563zM12.438 23.875c-0.375-1.188-0.063-2.188 0.813-2.75 0.375 1 0.063 2-0.813 2.75zM18.625 18.188c-0.063 0-0.125 0-0.188 0h-0.25l0.125 0.188c0.5 1.563 1.438 2.375 2.5 2.375 0.125 0 0.25 0 0.375 0l0.188-0.063-0.063-0.125c-0.313-1.563-1.313-2.375-2.688-2.375zM18.688 18.5c1.125 0.063 1.875 0.75 2.25 1.938-0.938 0.063-1.75-0.625-2.25-1.938zM29.438 6.188c-2.563-4.375-6.938-6.563-11.875-5.688-8.75 1.5-15.875 8.563-17.313 17.125-0.875 4.938 0.625 8.75 4.438 11.375 3.125 2.125 6.438 3.125 10.125 3.125 2.063 0 4.25-0.313 6.563-1 4.375-1.25 7.125-4 9.313-9.125 0.875-2.188 1.313-4.25 1.313-6.625-0.125-3.313-1-6.313-2.563-9.188zM30.375 21.813c-2.125 5.063-4.875 7.75-9.125 9-6.25 1.813-11.625 1.125-16.375-2.125-3.688-2.5-5.125-6.25-4.313-11 1.438-8.438 8.438-15.375 17.063-16.875 0.688-0.125 1.375-0.188 2.063-0.188 3.938 0 7.313 2.063 9.438 5.75 1.563 2.813 2.438 5.75 2.563 9 0 2.313-0.438 4.375-1.313 6.438zM19.938 1.625c-0.063 0-0.125 0-0.25 0-3.313 0-6.5 1.063-9.438 3.063-5.188 3.625-8.063 8-8.813 13.438-0.438 2.875 0.438 5.688 2.375 7.688 1.688 1.75 4 2.688 6.563 2.688 0.375 0 0.813-0.063 1.188-0.063 3.563-0.438 6.688-1.688 9.5-3.938 4.813-3.813 7.5-8.188 7.688-12.688v0c0.063-3.188-0.813-5.875-2.563-7.688-1.563-1.625-3.75-2.5-6.25-2.5zM20.875 24.25c-2.75 2.188-5.813 3.438-9.375 3.813-2.875 0.313-5.625-0.563-7.438-2.5-1.875-1.938-2.688-4.625-2.313-7.438 0.75-5.25 3.625-9.563 8.688-13.125 2.938-2 6-3.063 9.25-3.063 0.063 0 0.188 0 0.25 0 2.438 0.063 4.5 0.875 6 2.438 1.688 1.75 2.563 4.313 2.5 7.438-0.25 4.375-2.875 8.688-7.563 12.438zM19.75 13.188c0.063-0.938-0.25-1.75-0.75-2.313-0.563-0.625-1.375-0.938-2.313-0.938-0.063 0-0.063 0-0.125 0-2.875 0-6.063 2.75-6.438 5.625-0.125 1.125 0.125 2.063 0.688 2.75 0.563 0.625 1.438 1 2.5 1 0 0 0.063 0 0.063 0 3-0.063 6.188-3.125 6.375-6.125zM13.375 18.938c-0.063 0-0.063 0-0.063 0-0.938 0-1.75-0.313-2.25-0.875s-0.688-1.438-0.563-2.438c0.313-2.75 3.313-5.375 6.063-5.375 0.063 0 0.063 0 0.125 0 0.875 0.063 1.563 0.313 2.063 0.875 0.438 0.5 0.688 1.188 0.625 2.063-0.125 2.813-3.188 5.75-6 5.75zM13.438 20c3.063-0.063 6.375-2.938 6.875-5.938 0.25-1.5 0-2.688-0.688-3.563-0.688-0.813-1.75-1.25-3.125-1.313 0 0-0.063 0-0.063 0-3.188 0-6.75 3.313-7.063 6.438-0.063 1.313 0.25 2.438 0.938 3.188 0.75 0.75 1.75 1.188 3.063 1.188 0 0 0.063 0 0.063 0zM9.75 15.688c0.25-3 3.688-6.125 6.688-6.125 0 0 0.063 0 0.063 0 1.25 0 2.25 0.438 2.813 1.125 0.688 0.813 0.875 1.938 0.688 3.313-0.5 2.875-3.688 5.563-6.563 5.625-1.188 0-2.188-0.313-2.875-1.063-0.625-0.688-0.938-1.688-0.813-2.875zM15.938 19.938l-0.188-0.125-0.063 0.25c-0.563 1.438-0.25 2.75 0.938 3.625l0.125 0.063 0.125-0.125c0.75-1.125 0.375-2.625-0.938-3.688zM16.688 23.25c-0.875-0.688-1.125-1.688-0.75-2.875 0.938 0.875 1.188 2 0.75 2.875zM8.875 17.438l0.125-0.188-0.188-0.063c-1.188-0.625-2.625 0.063-3.438 1.5l-0.125 0.188 0.25 0.063c0.25 0.063 0.5 0.125 0.75 0.125 1.063 0 2.063-0.563 2.625-1.625zM5.813 18.688c0.688-1.125 1.75-1.625 2.688-1.25-0.625 0.938-1.625 1.438-2.688 1.25zM13.188 9.188l0.188 0.125 0.063-0.188c0.625-1.313 0.313-2.625-0.813-3.563l-0.188-0.125-0.063 0.188c-0.813 1.188-0.438 2.75 0.813 3.563zM12.563 6c0.813 0.75 1.063 1.75 0.688 2.813-0.938-0.75-1.188-1.875-0.688-2.813zM7.813 14.563c0.438 0 0.875-0.125 1.313-0.375l0.188-0.063-0.125-0.188c-0.813-1.188-2.125-1.5-3.625-0.813l-0.188 0.063 0.125 0.188c0.625 0.813 1.438 1.188 2.313 1.188zM8.813 14c-1 0.5-2.063 0.25-2.875-0.688 1.188-0.438 2.188-0.188 2.875 0.688zM10.25 19.438l-0.188 0.063c-1.5 0.563-2.25 1.625-2.188 2.938v0.188h0.188c0.813-0.125 1.5-0.563 1.938-1.188 0.313-0.563 0.438-1.188 0.25-1.813zM9.688 21.25c-0.313 0.5-0.875 0.875-1.5 1 0.063-1.063 0.688-1.875 1.813-2.313 0.063 0.438-0.063 0.875-0.313 1.313zM15.813 8.688l0.25-0.063c0.688-0.375 1.188-0.875 1.375-1.563 0.25-0.688 0.125-1.438-0.25-2.125l-0.063-0.25-0.188 0.188c-1.063 0.938-1.375 2.063-1.125 3.625zM17 5.313c0.25 0.563 0.25 1.125 0.125 1.625-0.188 0.5-0.5 0.938-1 1.25-0.188-1.25 0.125-2.125 0.875-2.875zM10.5 11.75c0.063 0 0.063 0 0.125 0h0.188l-0.063-0.25c-0.188-1.375-1.063-2.25-2.625-2.5l-0.25-0.063 0.063 0.25c0.188 1.563 1.188 2.563 2.563 2.563zM10.375 11.375c-1.063-0.063-1.813-0.75-2.063-2 1.188 0.25 1.875 0.938 2.063 2z"></path>
</svg>
