<?xml version="1.0" encoding="utf-8"?>
<!DOCTYPE svg PUBLIC "-//W3C//DTD SVG 1.1//EN" "http://www.w3.org/Graphics/SVG/1.1/DTD/svg11.dtd">
<svg version="1.1" xmlns="http://www.w3.org/2000/svg" xmlns:xlink="http://www.w3.org/1999/xlink" width="32" height="32" viewBox="0 0 32 32">
<path d="M31.438 19.125c-0.625-2.188-2.75-3.625-4.938-3.313-0.688 0.063-0.75-0.125-0.75-0.688 0.063-2.188 0-4.313 0-6.5l0.063-2.5c0-0.563-0.25-1.125-0.563-1.625-0.813-1.438-2.625-2.313-3.938-1.875 0 0-0.063 0-0.063 0v-1.313c0-0.625-0.5-1.063-1.125-1.063h-7.125c-0.625 0-1.125 0.438-1.125 1.063v1.25c0 0-0.063 0.063-0.125 0.063-1.438-0.375-2.688 0.063-3.688 1.063-0.75 0.75-1.188 1.688-1.188 2.75v0 1.375c-0.063 0.125 0 0.313 0 0.5 0 2.313 0 4.625 0 6.938 0 0.563-0.125 1.125-0.313 1.688-0.125 0.438-0.25 0.563-0.688 0.313-0.688-0.5-1.438-0.875-2.188-1.313-1.063-0.625-1.063-0.625-1.813 0.313-0.25 0.313-0.5 0.688-0.75 0.938-0.375 0.375-0.438 0.688 0 1.125 0.938 1 1.813 2.063 2.75 3.063 0.813 0.813 0.938 1.563 0.625 2.625-1.313 4.063 1.625 8.125 5.875 8.188 3.938 0.063 7.938 0.063 11.875 0 3.625 0 6.438-3 6.25-6.625 0-0.5 0.063-0.813 0.625-1.063 1.938-0.938 2.938-3.25 2.313-5.375zM12.375 1.313c0-0.063 0-0.063 0-0.125 0.063-0.125 0.125-0.188 0.188-0.313 0 0 0 0-0.063 0 0.125-0.125 0.313-0.188 0.5-0.188h7.125c0.375 0 0.625 0.313 0.625 0.625v2.313c0 0.188-0.063 0.313-0.125 0.438-0.063 0.063-0.125 0.125-0.25 0.188-0.063 0-0.188 0.063-0.25 0.063h-7.125c-0.375 0-0.625-0.313-0.625-0.688v-2.313zM7.313 8.938v-1.125c0-0.063 0-0.188 0-0.313v-1.063c0 0 0 0 0 0 0.063-1.938 1.5-3.375 3.5-3.5 0.25 0 0.563 0 0.813-0.125 0.125 0 0.188 0.063 0.25 0.125v0.688c0 0.625 0.5 1.125 1.125 1.125h7.125c0.625 0 1.125-0.5 1.125-1.125v-0.625c0.313 0.313 0.938-0.063 1.313 0.063 1.625 0.375 2.625 1.5 2.813 3.188v0.938c-0.063 0.125-0.063 0.25 0 0.375v1.375c0 1.438 0 2.875-0.063 4.375-1.75-2.875-4.438-4.188-7.688-4.625 0.375-0.625 0.625-1.188 0.5-1.875-0.125-0.438-0.375-0.75-0.688-1-0.688-0.563-1.563-0.5-2.25 0.063-0.813 0.625-0.813 1.375-0.188 2.813-3.188 0.5-5.938 1.75-7.688 4.688 0-0.688 0-1.375 0-2.125s0-1.563 0-2.313v0zM23 11.313c1.188 0.938 1.938 2.188 2.313 3.688 0.125 0.5 0 0.75-0.625 0.75-2.813 0-5.563 0-8.375 0s-5.563 0-8.313 0c-0.5 0-0.75-0.063-0.625-0.688 0.375-1.875 1.5-3.25 3.063-4.313 3.625-2.438 9.125-2.188 12.563 0.563zM14.938 7.25c0-0.75 0.625-1.375 1.375-1.375s1.375 0.563 1.438 1.313c0 0.75-0.625 1.438-1.375 1.438-0.75 0.063-1.375-0.625-1.438-1.375zM4.625 21.563c-1-1.125-2-2.25-3.063-3.375-0.25-0.313-0.313-0.5 0-0.813 0 0 0.063-0.063 0.063-0.125 1.125-1.375 1.125-1.375 2.625-0.5 0.625 0.438 1.688 0.625 1.875 1.313 0.188 0.563-0.313 1.438-0.563 2.125-0.125 0.5-0.25 0.875-0.375 1.313-0.063 0.188 0 0.375-0.375 0.375 0-0.063-0.125-0.188-0.188-0.313zM22.75 31.75c-4.25 0.125-8.563 0.125-12.813 0-3.438-0.125-6.063-3.813-5.188-7.125 0.688-2.75 1.563-5.375 2.375-8.063 0.125-0.438 0.438-0.375 0.813-0.375 2.75 0 5.563 0 8.375 0s5.625 0 8.438 0c0.375 0 0.688-0.063 0.813 0.438 0.75 2.75 1.813 5.5 2.438 8.375 0.625 3.25-1.938 6.625-5.25 6.75zM27.063 17.75c1.313 0 2.563 1.25 2.563 2.75-0.063 0.813-0.375 1.563-1.188 2.125-0.313 0.188-0.563 0.25-0.688-0.25-0.375-1.313-0.813-2.625-1.188-4-0.188-0.5 0-0.625 0.5-0.625zM29.063 24.063c-0.25 0.125-0.563 0.5-0.813 0.063-0.125-0.375-0.313-0.688 0.188-1.063 1.938-1.25 2.188-3.5 0.563-4.938-0.625-0.563-1.375-0.875-2.188-0.75-0.75 0.125-0.75-0.375-0.75-0.75-0.125-0.563 0.375-0.375 0.688-0.438 2.375-0.188 4.438 1.813 4.438 4.688 0 1.188-0.75 2.375-2.125 3.188zM1.438 15.188c0.313-0.25 0-0.375-0.125-0.563-0.813-1-0.75-1.375 0.25-2.063 1.063-0.813 1.125-1.688 0.25-2.688-0.188-0.125-0.313-0.438-0.563-0.188-0.188 0.188 0.125 0.313 0.25 0.5 0.75 0.938 0.688 1.438-0.313 2.125-0.5 0.313-0.875 0.688-0.813 1.25 0 0.563 0.25 1 0.625 1.375 0.125 0.125 0.25 0.438 0.438 0.25zM4.375 11.688c0 0 0.188-0.063 0.125-0.125 0-0.438-0.375-0.625-0.625-0.875 0 0-0.063 0-0.125 0-0.5-1.25 0-2.063 1.063-2.75 1.125-0.688 1.188-1.875 0.25-2.938-0.188-0.25-0.438-0.75-0.75-0.5s0.188 0.5 0.375 0.688c0.813 1.063 0.75 1.875-0.375 2.625-0.313 0.188-0.625 0.438-0.813 0.688-0.563 0.688-0.5 1.625 0.125 2.25 0.063 0.5 0.375 0.688 0.75 0.938z"></path>
</svg>
