<?xml version="1.0" encoding="utf-8"?>
<!DOCTYPE svg PUBLIC "-//W3C//DTD SVG 1.1//EN" "http://www.w3.org/Graphics/SVG/1.1/DTD/svg11.dtd">
<svg version="1.1" xmlns="http://www.w3.org/2000/svg" xmlns:xlink="http://www.w3.org/1999/xlink" width="32" height="32" viewBox="0 0 32 32">
<path d="M14.875 7.313c0-1.125 0-2.063 0-3 0-0.313-0.063-0.688-0.25-0.938-0.313-0.625-1.063-1-1.688-0.813-0.813 0.125-1.313 0.688-1.375 1.5 0 1.188 0 2.438 0 3.625 0 0.438-0.063 0.813-0.563 0.813s-0.5-0.375-0.5-0.75c0-1.563 0-3.125 0-4.625 0-1.125-0.688-1.813-1.688-1.813s-1.625 0.688-1.625 1.813c0 1.5 0 3.063 0 4.563 0 0.438-0.063 0.813-0.563 0.813s-0.5-0.438-0.5-0.813c0-1.125 0-2.313 0-3.438-0.063-1-0.813-1.75-1.75-1.75-0.875 0.063-1.563 0.75-1.563 1.813 0 1.563 0 3.125 0 4.688 0 2.875 1.438 4.688 4.188 5.375 0.375 0.063 0.5 0.188 0.438 0.563 0 0.688 0 1.438 0 2.125 0 0.25-0.063 0.438-0.25 0.563-0.375 0.25-0.438 0.625-0.438 1.063-0.063 1-0.125 2-0.188 3.063-0.125 2.813-0.313 5.625-0.375 8.438-0.063 1.188 0.813 2.063 2 2.063 0.375 0 0.75 0 1.125 0 1.375 0 2.188-0.813 2.188-2.188-0.063-1.938-0.188-3.813-0.25-5.75-0.125-1.938-0.25-3.875-0.313-5.813-0.063-0.438-0.125-0.813-0.625-0.938-0.188-0.125-0.125-0.313-0.125-0.5-0.063-0.688 0-1.438-0.063-2.188 0-0.313 0.125-0.375 0.438-0.438 2.063-0.313 3.688-1.75 4.125-3.813 0.313-1.125 0.125-2.313 0.188-3.313zM10.438 18.625c0.125 2.563 0.25 5.188 0.375 7.813 0 0 0 0 0 0 0.063 1.125 0.063 2.313 0.188 3.438 0.063 1.125-0.5 1.813-1.625 1.813-0.438 0.063-0.875 0.063-1.313 0-0.875-0.063-1.438-0.625-1.375-1.5 0.125-3.313 0.313-6.563 0.5-9.875 0-0.563 0-1.063 0.063-1.625 0-0.438 0.188-0.688 0.688-0.688 0.563 0 1.188 0 1.75-0.063 0.438-0.063 0.688 0.188 0.75 0.688zM9.625 16c0 0.125 0 0.313 0 0.438 0 0.313 0.188 0.813-0.063 0.938-0.438 0.188-1 0.063-1.5 0.063-0.125-0.063-0.125-0.188-0.125-0.313 0-0.75 0-1.563 0-2.375 0-0.188 0.125-0.313 0.313-0.313 0.375 0.063 0.688 0.063 1 0 0.25 0 0.375 0.125 0.375 0.375 0 0.375 0 0.813 0 1.188 0 0 0 0 0 0zM14.313 10.063c-0.25 2.063-1.813 3.563-3.938 3.813-1.188 0.188-2.438 0.188-3.625-0.125-2-0.5-3.375-2.25-3.438-4.375 0-1.688 0-3.313 0-5 0-0.813 0.438-1.313 1.125-1.313s1.125 0.5 1.125 1.313c0 1.188 0 2.313 0 3.5 0 0.75 0.5 1.188 1.188 1.125 0.625 0 0.938-0.438 0.938-1.063 0-1.625 0-3.313 0-4.938 0-0.625 0.438-1.125 1-1.188 0.5-0.063 1.063 0.25 1.188 0.75 0.063 0.188 0.063 0.438 0.063 0.625 0 1.5 0 3.063 0 4.625 0 0.813 0.438 1.25 1.125 1.188 0.688 0 1-0.375 1-1.188 0-1.188 0-2.313 0-3.438 0-0.813 0.438-1.313 1.125-1.313 0.75 0 1.125 0.5 1.125 1.313 0 0.875 0 1.75 0 2.688 0 0 0 0 0 0 0 1 0.125 2 0 3zM27.188 2.188c-2-2.625-5.5-2.625-7.5 0-1.625 2.063-2.188 4.5-2 7.125 0.25 2.563 1.438 4.5 4.125 5.25 0.25 0.063 0.25 0.188 0.25 0.375 0 0.75 0 1.5 0 2.25 0 0.125 0 0.313-0.188 0.375-0.5 0.188-0.5 0.625-0.563 1.125-0.125 2-0.188 3.938-0.313 5.938-0.063 1.875-0.188 3.688-0.25 5.5-0.063 1.25 0.813 2.125 2.063 2.125 0.375 0 0.75 0 1.125 0 1.375 0 2.188-0.813 2.125-2.188-0.063-1.938-0.125-3.813-0.25-5.75-0.063-1.875-0.188-3.813-0.313-5.688 0-0.438-0.063-0.875-0.563-1.125-0.188-0.063-0.188-0.25-0.188-0.375 0-0.75 0-1.438 0-2.125 0-0.25 0.063-0.375 0.375-0.438 0.688-0.188 1.313-0.5 1.875-0.938 1.625-1.375 2.125-3.188 2.188-5.313-0.063-2.188-0.563-4.313-2-6.125zM25 18.625c0.125 2.438 0.25 4.938 0.375 7.438 0.063 1.25 0.125 2.5 0.188 3.75 0.063 1.188-0.5 1.875-1.625 1.875-0.375 0-0.75 0.063-1.125 0-1 0-1.563-0.625-1.5-1.563 0-0.313 0-0.625 0-0.875 0 0 0 0 0 0 0.188-3.563 0.313-7.063 0.5-10.563 0-0.5 0.313-0.75 0.75-0.75 0.625 0 1.25 0 1.938 0.063 0.313 0 0.5 0.25 0.5 0.625zM24.188 16.063c0 0.125 0 0.125 0 0.188 0.063 1.25 0 1.313-1.313 1.188-0.25 0-0.375-0.125-0.313-0.375 0-0.625 0-1.313 0-2 0-0.063-0.063-0.125 0-0.188 0.375-0.375 0.875 0 1.375-0.125 0.25-0.063 0.25 0.125 0.25 0.313 0.063 0.375-0.063 0.688 0 1zM22.75 14.188c-2.688-0.313-4.375-2.188-4.5-4.938-0.063-0.438-0.125-0.875-0.063-1.125 0.125-2.25 0.625-4.188 2.063-5.813 1.75-2.063 4.625-2.125 6.313 0 2.063 2.5 2.625 5.438 1.688 8.563-0.813 2.563-3 3.625-5.5 3.313zM9.438 20.375c0 0.125 0 0.25 0 0.375 0 2.938 0 5.875 0 8.813 0 0.438-0.063 0.625-0.563 0.625s-0.688-0.125-0.688-0.625c0.063-2.938 0.063-5.875 0.063-8.75 0-0.188-0.063-0.375-0.063-0.563 0-0.125-0.063-0.188-0.25-0.188-0.125 0-0.188 0.063-0.25 0.188 0 0.188 0 0.313 0 0.5 0 2.813 0 5.625 0 8.438 0 1.625-0.125 1.5 1.5 1.5 0.563 0.063 0.75-0.125 0.75-0.75 0-1.5 0-3.063 0-4.625 0-1.188 0-2.438 0-3.625 0-0.438 0-0.875 0-1.313 0-0.188-0.063-0.313-0.25-0.313s-0.25 0.125-0.25 0.313zM21.5 12.25c-1.188-0.688-1.625-1.813-1.75-3.125-0.125-1.438 0.125-2.75 0.625-4.063 0.063-0.25 0.25-0.438-0.125-0.563-0.188 0-0.25 0.063-0.375 0.375-0.625 1.625-0.875 3.25-0.563 4.938 0.25 1.25 0.813 2.25 1.938 2.875 0.188 0.125 0.375 0.188 0.5 0 0.125-0.25-0.063-0.375-0.25-0.438zM26.188 3.438c-0.063-0.125-0.188-0.125-0.313-0.063s-0.188 0.188-0.063 0.375c0 0.063 0.063 0.125 0.125 0.25 1.188 2.188 1.688 4.5 0.625 6.938-0.063 0.188-0.125 0.375 0.063 0.438 0.25 0.125 0.313-0.063 0.438-0.188 0.438-0.938 0.625-1.875 0.563-2.75 0-1.688-0.375-3.25-1.125-4.5-0.063-0.188-0.188-0.375-0.313-0.5zM24.25 20.063c-0.375 0-0.125 0.438-0.188 0.625 0 0.063 0 0.063 0 0.125 0 2.938-0.063 5.875 0 8.75 0 0.563-0.25 0.563-0.688 0.625-0.5 0-0.563-0.188-0.563-0.625 0-2.875 0-5.75 0-8.563 0-0.188 0-0.375 0-0.563s0-0.375-0.25-0.375c-0.25 0-0.25 0.188-0.25 0.375 0 0.125 0 0.25 0 0.375 0 2.813 0 5.625 0 8.375 0 1.688-0.188 1.5 1.5 1.5 0.563 0.063 0.75-0.188 0.75-0.688-0.063-1.563 0-3.125 0-4.625 0-1.563 0-3.125 0-4.688-0.063-0.25 0.125-0.625-0.313-0.625z"></path>
</svg>
