<?xml version="1.0" encoding="utf-8"?>
<!DOCTYPE svg PUBLIC "-//W3C//DTD SVG 1.1//EN" "http://www.w3.org/Graphics/SVG/1.1/DTD/svg11.dtd">
<svg version="1.1" xmlns="http://www.w3.org/2000/svg" xmlns:xlink="http://www.w3.org/1999/xlink" width="32" height="32" viewBox="0 0 32 32">
<path d="M4.063 8.063h1.563v24.188h-1.563zM27.813 10.438c-1.125-1.813-2.938-2.75-5.5-2.75-1.063 0-2.125 0.188-3.188 0.5-1 0.313-2 0.75-2.938 1.25-0.938 0.563-1.75 1.25-2.5 2.063-0.813 0.75-1.438 1.688-1.938 2.625v-6.063h-1.438v24.188h1.563v-15.125c0.313-1.125 0.813-2.188 1.5-3.125 0.688-1 1.5-1.813 2.438-2.563 0.875-0.688 1.875-1.25 2.938-1.625 1.125-0.438 2.188-0.625 3.313-0.625 2.063 0 3.5 0.75 4.438 2.313 0.938 1.5 1.438 3.938 1.438 7.25v13.5h1.563v-13.688c0-3.625-0.563-6.313-1.688-8.125zM7.188 2.563c0 1.25-1.063 2.313-2.313 2.313-1.313 0-2.375-1.063-2.375-2.313 0-1.313 1.063-2.313 2.375-2.313 1.25 0 2.313 1 2.313 2.313z"></path>
</svg>
