<?xml version="1.0" encoding="utf-8"?>
<!DOCTYPE svg PUBLIC "-//W3C//DTD SVG 1.1//EN" "http://www.w3.org/Graphics/SVG/1.1/DTD/svg11.dtd">
<svg version="1.1" xmlns="http://www.w3.org/2000/svg" xmlns:xlink="http://www.w3.org/1999/xlink" width="32" height="32" viewBox="0 0 32 32">
<path d="M25.063 4.188c-2.75-2.375-5.875-3.875-9.563-3.75-8.5 0.25-15.5 7.625-15.5 16.5-0.063 3.125 0.938 6.188 3.25 8.625 3.938 4.188 8.938 6.375 14.688 6.5 7.5 0.063 13.75-6.063 14.063-13.563 0.25-6-2.563-10.563-6.938-14.313zM0.75 13.688c1.375-6.688 7.125-11.938 13.813-12.688 7.625-0.875 14.125 5.875 13.188 13.813-0.75 6.938-5.938 12.625-12.813 14.063-0.75 0.125-1.563 0.125-2.313 0.188-8.125 0-13.563-7.125-11.875-15.375zM28.438 26.5c-4.5 5.688-12.438 6.375-18.75 2.875 11 2.25 22.25-9.625 17.438-22.188 4.75 4.75 6.25 13.063 1.313 19.313zM21.625 23.438c0.875-1.063 1.75-2.125 2.5-3.188 1.813-2.438 2.5-5.438 1.688-8.438-0.313-1.188-0.813-2.438-1.25-3.625-0.938-2.688-3.25-4.313-6-4.938-1.375-0.313-2.938 0.813-4.063-0.5-3.188 0.375-5.875 1.438-7.75 3.688-0.938 1.063-1.688 2.313-2.688 3.438-1.188 1.25-1.563 3.063-1.75 4.875-0.125 1.313-0.563 2.875 0.25 3.875s1.063 1.938 1 3.063c0 0.188 0.063 0.375 0.125 0.5 1.438 2.313 3.375 4.188 6.125 4.625 1.375 0.125 2.75 0.313 4.063 0.313 3.063 0.063 5.875-1.313 7.75-3.688zM25.5 12.25c0.313 2.75-0.25 5.375-1.688 7.75-0.625 1-1.563 1-2.5 0.313-2.188-1.688-4.313-3.375-6.688-5.25 3.063-1.375 5.875-2.688 8.688-3.938 1.188-0.563 2.063-0.125 2.188 1.125zM16.438 4.813c0.25-0.938 1.125-1.375 2.188-1.063 2.375 0.75 4.188 2.188 5.438 4.313 0.563 1 0.25 1.875-0.625 2.313-2.813 1.438-5.75 2.688-8.938 4.188 0.688-3.5 1.25-6.625 1.938-9.75zM7.125 6.75c2-1.938 4.375-3.125 7.125-3.375 1.313-0.125 1.688 0.688 1.5 1.813-0.563 3.063-1.125 6.063-1.75 9.375-2.438-1.938-4.625-3.625-6.813-5.375-1-0.75-0.875-1.688-0.063-2.438zM2.813 17.938c-0.438-2.813 0.25-5.438 1.688-7.875 0.563-0.938 1.5-1.125 2.438-0.375 2.188 1.75 4.313 3.438 6.688 5.25-3.063 1.438-5.938 2.813-8.875 4.125-0.875 0.375-1.75 0-1.938-1.125zM8.813 26c-1.813-0.75-3.313-1.938-4.313-3.563-0.875-1.375-0.688-2.313 0.75-3 2.75-1.313 5.5-2.563 8.5-3.938-0.563 3.125-1.063 5.938-1.688 8.813-0.375 2.063-1.375 2.5-3.25 1.688zM12.5 24.625c0.563-2.938 1.188-5.875 1.813-9.125 2.375 1.875 4.563 3.563 6.688 5.25 1.063 0.875 1 1.813 0.063 2.688-1.938 1.875-4.313 2.875-6.938 3.313-1.25 0.125-1.875-0.625-1.625-2.125z"></path>
</svg>
