<?xml version="1.0" encoding="utf-8"?>
<!DOCTYPE svg PUBLIC "-//W3C//DTD SVG 1.1//EN" "http://www.w3.org/Graphics/SVG/1.1/DTD/svg11.dtd">
<svg version="1.1" xmlns="http://www.w3.org/2000/svg" xmlns:xlink="http://www.w3.org/1999/xlink" width="32" height="32" viewBox="0 0 32 32">
<path d="M29.438 14.875c1.375-1 2.375-2.313 2.5-4.125 0.25-4.875-4.25-8.5-9-7.125-0.438 0.125-0.688 0.125-0.875-0.375-0.938-2-2.5-3-4.625-3-3.125-0.063-5.313 1.5-6.625 4.25-0.188 0.438-0.375 0.813-1 0.563-0.25-0.063-0.563-0.063-0.875-0.063-2.625-0.063-4.938 0.688-6.813 2.625-2.5 2.688-2.813 6.063-0.438 8.875 0.5 0.625 1.188 1.188 0.938 2.125 0 0.063 0 0.063 0 0.125 0.5 2.125 1.875 3.375 4.125 3.5 0.25 0.063 0.438 0.125 0.563 0.375 1.188 2.688 2.25 5.438 2.75 8.313 0.125 0.438 0.313 0.625 0.75 0.75 1.813 0.438 3.75 0.563 5.625 0.563s3.813-0.188 5.625-0.625c0.375-0.063 0.563-0.188 0.625-0.625 0.563-2.875 1.563-5.563 2.75-8.188 0.188-0.375 0.375-0.563 0.75-0.688 1.313-0.375 2.25-1.188 2.875-2.375 0.625-1.313 0.5-2.625 0.063-4-0.188-0.438 0-0.625 0.313-0.875zM12.438 31.563c0 0-0.063 0-0.125 0-1.25-0.063-1.875-0.563-2.063-1.938-0.438-2.375-1.438-4.563-2.375-6.813-0.188-0.375-0.188-0.5 0.313-0.563 0.813-0.063 1.563-0.313 2.313-0.688 0.313-0.125 0.438-0.063 0.563 0.25 0.5 1.188 0.813 2.5 1.063 3.75 0.375 1.875 0.625 3.688 0.813 5.563 0.125 0.375-0.125 0.5-0.5 0.438zM15.188 31.813c-0.563-0.063-1.25 0.063-1.625-0.188-0.438-0.313-0.25-1.063-0.313-1.625-0.375-2.938-0.688-5.813-1.875-8.563-0.063-0.125-0.125-0.313 0.125-0.375 0.313-0.063 0.5-0.625 0.938-0.375 1 0.688 2 1.125 3.188 1.313 0.375 0.063 0.375 0.313 0.375 0.563 0.063 1.938 0.188 3.875 0.25 5.75 0.063 0.813 0.063 1.563 0.125 2.313 0.063 1.188 0.063 1.188-1.188 1.188zM19.188 31.688c-0.5 0-1 0.063-1.313 0.125-1.188 0-1 0.125-1.063-0.875-0.125-2.75-0.25-5.563-0.438-8.313 0-0.438 0.063-0.563 0.5-0.563 1.375 0.063 2.5-0.438 3.563-1.25 0.188-0.125 0.313-0.313 0.563-0.063 0.188 0.25 0.625 0.25 0.438 0.75-0.938 3.188-1.313 6.438-1.688 9.688-0.063 0.375-0.188 0.5-0.563 0.5zM23 28.063c-0.25 0.875-0.563 1.75-0.688 2.625-0.063 0.375-0.188 0.5-0.5 0.563-0.375 0.063-0.813 0.125-1.188 0.25-0.438 0.125-0.5 0-0.438-0.375 0.125-1.25 0.25-2.5 0.5-3.688 0.25-1.813 0.563-3.625 1-5.375 0.188-0.625 0.188-0.688 0.813-0.375 0.813 0.438 1.688 0.625 2.688 0.625-0.875 1.938-1.625 3.813-2.188 5.75zM28.563 15.688c0.313 0.563 0.5 1.313 0.5 2 0.125 2.688-2.438 4.688-5.063 4.063-1.063-0.25-2.063-0.75-2.938-1.5-0.25-0.188-0.375-0.25-0.625 0-2.188 2.063-5.438 1.688-7.688 0.125-0.375-0.25-0.625-0.25-1 0-1.563 1-3.188 1.688-5.125 1.438-2.375-0.25-3.688-1.813-3.563-4.188 0-0.188 0-0.375-0.188-0.563-1.313-1.125-2.188-2.5-2.375-4.25-0.125-1.063 0.188-2.125 0.688-3.125 1.563-2.875 4.063-4.188 7.563-4.25 0.313 0 0.938 0 1.5 0.188 0.438 0.063 0.625-0.063 0.75-0.5 0.75-1.875 2-3.375 3.938-4.063 2.063-0.688 4.063-0.688 5.813 0.938 0.5 0.5 0.875 1.125 1.063 1.875 0.125 0.438 0.313 0.438 0.75 0.313 1.75-0.563 3.5-0.625 5.25 0.188 2.25 1 4.563 4.813 3.438 7.625-0.5 1.125-1.25 2-2.25 2.688-0.438 0.25-0.688 0.438-0.438 1zM14.75 13.125c-1.75-0.063-3.063 1.625-3.313 3.063 0 0.188-0.125 0.438 0.188 0.5 0.25 0 0.188-0.25 0.25-0.375 0.188-0.75 0.5-1.5 1.125-2 1.625-1.313 3.75-1 5 0.813 0.063 0.125 0.125 0.438 0.375 0.313 0.25-0.188 0.063-0.375-0.063-0.563-0.688-1.125-1.75-1.75-3.563-1.75zM21.25 7.563c-0.125 0-0.25 0.063-0.375 0.063-0.125 0.063-0.25 0.063-0.25 0.25 0.063 0.188 0.188 0.125 0.313 0.188 0.063 0 0.188 0 0.313 0 1.313 0 2.313 0.563 2.813 1.75 0.563 1.188 0.313 2.313-0.5 3.25-0.125 0.188-0.438 0.313-0.188 0.563 0.25 0.188 0.375-0.125 0.5-0.25 0.938-0.938 1.188-2.5 0.625-3.75s-1.938-2.125-3.25-2.063zM10.438 9.625c-2-1.125-4.438 0.375-4.438 2.688 0.063 0.25 0 0.5 0.125 0.813 0.063 0.125 0.063 0.438 0.313 0.375 0.313-0.063 0.188-0.313 0.125-0.5-0.313-1.125 0-2.063 0.875-2.75s1.813-0.75 2.813-0.25c0.188 0.125 0.375 0.313 0.5 0 0.125-0.25-0.188-0.313-0.313-0.375zM14.5 5.75c0.25 0.063 0.25-0.188 0.313-0.313 0.313-0.875 0.875-1.438 1.813-1.625 0.125 0 0.313 0 0.313-0.25s-0.188-0.125-0.313-0.125c-0.938 0-2.063 0.938-2.25 1.875 0 0.125-0.125 0.375 0.125 0.438z"></path>
</svg>
