<?xml version="1.0" encoding="utf-8"?>
<!DOCTYPE svg PUBLIC "-//W3C//DTD SVG 1.1//EN" "http://www.w3.org/Graphics/SVG/1.1/DTD/svg11.dtd">
<svg version="1.1" xmlns="http://www.w3.org/2000/svg" xmlns:xlink="http://www.w3.org/1999/xlink" width="32" height="32" viewBox="0 0 32 32">
<path d="M3.938 22.5c0.438 0 0.875 0 1.313 0 3.625 0 7.313 0 10.938 0s7.25 0 10.938 0c0.438 0 0.875 0 1.313 0 0.375 0 0.5-0.125 0.438-0.5-0.063-0.938-0.25-1.938-0.625-2.813-1.5-4-4.375-6.5-8.375-7.688-0.438-0.125-0.563-0.313-0.625-0.688-0.125-1.063-0.688-1.813-1.625-2.313-0.5-0.25-0.938-0.375-1.438-0.375s-1 0.125-1.438 0.375c-1 0.5-1.5 1.25-1.625 2.313-0.063 0.375-0.25 0.563-0.625 0.688-4.063 1.188-6.875 3.688-8.438 7.688-0.313 0.875-0.5 1.875-0.563 2.813-0.063 0.375 0.063 0.5 0.438 0.5zM3.75 22c0.563-5.25 4.438-9.125 9.125-10.313 0.375-0.125 0.5-0.25 0.5-0.625 0-0.875 0.5-1.625 1.25-2.188 0.063-0.063 0.25-0.063 0.25-0.25 0.063 0.063 0.125 0.063 0.188 0 0.375-0.125 0.75-0.188 1.125-0.188s0.75 0.063 1.125 0.188c0.063 0.063 0.125 0.063 0.188 0 0 0.188 0.125 0.188 0.25 0.25 0.75 0.563 1.188 1.313 1.25 2.188 0 0.375 0.125 0.5 0.438 0.625 4.75 1.188 8.625 5.063 9.188 10.313 0 0.188 0 0.25-0.188 0.25-0.5-0.063-1 0-1.438 0-3.625-0.063-7.188-0.063-10.813-0.063s-7.188 0-10.813 0.063c-0.5 0-0.938-0.063-1.438 0-0.188 0-0.188-0.063-0.188-0.25zM19.313 12.813c0.313 0.25 0.625 0.438 0.938 0.625 2.375 1.875 3.688 4.313 4 7.313 0.063 0.25 0.125 0.313 0.375 0.313s0.5 0 0.75 0v0c0.25 0 0.563 0 0.813 0s0.375-0.063 0.313-0.375c-0.063-0.313-0.125-0.625-0.188-1-0.625-2.625-2.125-4.625-4.375-6.063-0.75-0.5-1.625-0.813-2.5-1.125-0.063 0-0.25-0.125-0.313 0.063s0.125 0.188 0.188 0.25zM24.125 15.938c1.063 1.25 1.75 2.75 2 4.438 0.063 0.25 0.063 0.438-0.313 0.375-0.313 0-0.688 0-1 0-0.188 0-0.25 0-0.25-0.188-0.375-2.875-1.688-5.25-3.875-7.125 0-0.063 0-0.063-0.125-0.188 1.438 0.688 2.625 1.563 3.563 2.688zM14.563 11.375c0.125-0.063 0.313 0 0.438-0.125 0.25 0.063 0.438 0 0.688 0 0.188 0 0.313 0 0.5 0s0.313 0 0.5 0c0.188 0 0.438 0.063 0.625 0 0.188 0.125 0.313 0.063 0.5 0.125 0.563 0.063 0.625 0 0.5-0.563-0.188-0.625-0.563-1.125-1.125-1.438-0.125-0.063-0.188-0.125-0.313-0.063-0.188-0.125-0.438-0.188-0.688-0.188s-0.5 0.063-0.688 0.188c-0.125-0.063-0.25 0-0.313 0.063-0.625 0.313-0.938 0.813-1.125 1.438-0.125 0.563-0.063 0.625 0.5 0.563zM14.375 10.75c0.188-0.5 0.5-0.938 1-1.188 0.125 0 0.188 0 0.25-0.125 0.188 0 0.375 0 0.563 0s0.375 0 0.563 0c0 0.125 0.125 0.125 0.25 0.125 0.5 0.25 0.813 0.688 0.938 1.188 0.125 0.313 0 0.313-0.25 0.313-0.188-0.063-0.375-0.125-0.563 0-0.313-0.063-0.625-0.125-0.938-0.125s-0.625 0.063-1 0.125c-0.188-0.125-0.375-0.063-0.563 0-0.25 0-0.313 0-0.25-0.313zM31.125 22.875c-1.063 0-2.063-0.063-3.125 0-0.375 0.063-0.75 0-1.188 0-3.563 0-7.063 0-10.625 0s-7.125 0-10.688 0c-0.375 0-0.75 0.063-1.125 0-1.063-0.063-2.125 0-3.125 0-0.438-0.063-0.75 0.25-0.75 0.688 0 0.375 0.313 0.625 0.75 0.625 0.813 0 1.688 0 2.563 0 4.125 0 8.25 0 12.375 0s8.25 0 12.375 0c0.875 0 1.688 0 2.563 0 0.438 0 0.688-0.25 0.75-0.625 0-0.438-0.313-0.75-0.75-0.688zM31.125 23.938c-0.063 0-0.188 0-0.25 0-0.813-0.063-1.625 0-2.375 0-4.125 0-8.188-0.063-12.313 0-4.125-0.063-8.188 0-12.313 0-0.813 0-1.563-0.063-2.375 0-0.063 0-0.188 0-0.25 0-0.313 0-0.438-0.188-0.438-0.438s0.188-0.375 0.438-0.375c0.563 0 1.188 0 1.813 0s1.25 0 1.875 0c3.75 0 7.5 0 11.25 0s7.5 0 11.25 0c0.625 0 1.25 0 1.875 0s1.188 0 1.813 0c0.25 0 0.438 0.125 0.438 0.375s-0.188 0.438-0.438 0.438z"></path>
</svg>
