<?xml version="1.0" encoding="utf-8"?>
<!DOCTYPE svg PUBLIC "-//W3C//DTD SVG 1.1//EN" "http://www.w3.org/Graphics/SVG/1.1/DTD/svg11.dtd">
<svg version="1.1" xmlns="http://www.w3.org/2000/svg" xmlns:xlink="http://www.w3.org/1999/xlink" width="32" height="32" viewBox="0 0 32 32">
<path d="M10.563 24.25l-0.25-1.188-0.5 0.125c0.063 0 0.063 0 0.063 0l-2.063 0.438 0.25 1.125c0.188 0.75 0.313 1.563 0.5 2.313 0.188 0.813 0.438 1.313 0.875 1.5 0.188 0.063 0.563 0.063 0.875-0.063 0 0 0 0 0 0 0.188-0.063 0.375-0.125 0.5-0.25 0.313-0.313 0.375-0.875 0.188-1.688-0.125-0.813-0.313-1.563-0.438-2.313zM10.625 27.813c-0.063 0.125-0.25 0.188-0.563 0.313-0.313 0.063-0.5 0-0.688-0.063-0.25-0.188-0.375-0.688-0.625-1.688-0.125-0.563-0.25-1.063-0.375-1.688l-0.188-0.813 0.75-0.188 1.125-0.188 0.125 0.813c0.125 0.625 0.25 1.125 0.375 1.688 0.188 1 0.25 1.5 0.063 1.813zM16.5 7.063c-3.438 5.063-8 8.625-12.438 11.75v0l2.063 4.625v-0.063c5.313-1.188 11.063-2.25 17.063-1.563l0.063 0.063-6.688-14.875zM14.438 21.563c-3 0.313-5.938 0.938-8.125 1.438l-1.813-4.063c4-2.813 8.5-6.375 12-11.188l6.188 13.688c-2.625-0.25-5.313-0.25-8.25 0.125zM3.5 19c-0.313 0.125-0.563 0.25-0.875 0.375-0.75 0.313-1.5 0.625-2.188 1.063-0.313 0.188-0.5 0.875-0.438 1.25 0.313 1 0.75 1.938 1.313 2.813 0.125 0.25 0.688 0.563 1.063 0.563 0.063 0 0.063 0 0.125 0 0.75-0.25 1.5-0.563 2.25-0.938 0.313-0.125 0.563-0.313 0.875-0.438h0.063l-2.125-4.688zM4.5 23.938c-0.625 0.25-1.25 0.563-1.813 0.75-0.313 0.063-0.938-0.125-1.063-0.375-0.5-0.813-0.875-1.75-1.25-2.75-0.063-0.25 0.125-0.813 0.375-0.938 0.625-0.375 1.188-0.625 1.875-0.875 0.188-0.125 0.438-0.25 0.688-0.313l1.875 4.125c-0.25 0.125-0.5 0.25-0.688 0.375zM24.813 3.75l0.188 0.188-5.125 5.188-0.25-0.25zM29.563 11.563l-7 1.813-0.063-0.25 7-1.875zM24.75 18.375v-0.313l7.25 0.688-0.063 0.313z"></path>
</svg>
