<?xml version="1.0" encoding="utf-8"?>
<!DOCTYPE svg PUBLIC "-//W3C//DTD SVG 1.1//EN" "http://www.w3.org/Graphics/SVG/1.1/DTD/svg11.dtd">
<svg version="1.1" xmlns="http://www.w3.org/2000/svg" xmlns:xlink="http://www.w3.org/1999/xlink" width="32" height="32" viewBox="0 0 32 32">
<path d="M31.938 14.563c-0.063-0.625-0.188-1.188-0.313-1.75-1.313-6.063-6.375-11.063-12.5-12.188-0.438-0.125-0.938-0.25-1.375-0.25-1.125-0.125-2.313-0.125-3.5 0-0.563 0.063-1.063 0.188-1.625 0.313-2.625 0.563-4.938 1.688-7 3.438-2.625 2.313-4.375 5.125-5.188 8.5-0.125 0.563-0.25 1.125-0.313 1.688 0 0.125 0 0.125 0 0.25-0.188 1.375-0.125 2.313 0 3.438 0 0.563 0.125 1.063 0.25 1.625 0.125 0.5 0.25 0.938 0.438 1.438 0.188 0.188 1.188-0.313 1.188-0.563-0.125-0.438-0.25-0.875-0.313-1.313-1.5-7.188 2.563-14.375 9.563-16.688 5.813-1.938 11.063-0.625 15.375 3.75 2.188 2.188 3.438 4.813 3.875 7.813 0.625 4.375-0.5 8.313-3.375 11.688-2.125 2.563-4.875 4.188-8.188 4.875-2.438 0.5-4.813 0.375-7.25-0.375-0.125 0-0.188-0.063-0.125-0.188 0.688-2.313 1.375-4.563 2.063-6.813 0 0 0-0.063 0.063-0.063 0.625 0.5 1.313 0.875 2.063 1 1 0.125 2 0.063 3-0.125 2.438-0.563 4.313-1.813 5.563-4.063 0.625-1.188 0.875-2.438 0.938-3.75 0.125-2.375-0.375-4.563-1.563-6.625-1.875-2.938-4.563-4.25-8-3.938-1.938 0.188-3.75 0.75-5.375 1.813-2.313 1.563-3.5 3.688-3.625 6.438-0.063 1.5 0.125 3 0.938 4.375 0.438 0.813 1.125 1.438 2 1.875 0.313 0.125 0.688 0.063 0.875-0.25 0.188-0.375 0.125-0.75-0.25-0.938-1.188-0.563-1.813-1.625-2.063-2.813-0.5-2.438-0.125-4.625 1.563-6.5 0.875-0.938 2-1.563 3.188-2 1.625-0.625 3.313-0.875 5-0.563 1.938 0.313 3.438 1.375 4.438 3.063 1.563 2.375 1.938 5.063 1.25 7.813-0.625 2.5-2.375 4-4.875 4.688-0.875 0.188-1.75 0.313-2.688 0.188-0.75-0.125-1.313-0.5-1.813-1.063-0.125-0.125-0.125-0.25-0.063-0.438 0.438-1.5 0.938-3 1.313-4.5 0.313-1 0.438-2 0.25-3-0.188-1.063-0.938-1.625-2-1.563-0.375 0-0.75 0.188-1 0.5-0.5 0.563-0.75 1.313-0.938 2.063-0.438 2.125-0.375 4.313 0.563 6.313 0.188 0.5 0.188 0.938 0.063 1.438-0.75 2.25-1.375 4.563-2.063 6.813-0.063 0.25-0.125 0.313-0.375 0.188-2.875-1.375-5.063-3.313-6.563-5.813-0.25-0.125-1.188 0.25-1.188 0.5 2 3.563 5.125 5.938 9.375 7.313 0.813 0.25 1.625 0.438 2.5 0.5 0.063 0 0.125 0 0.125 0.063h3.5c0.563-0.125 1.125-0.188 1.625-0.313 6.063-1.5 10.063-5.25 12-11.188 0.25-0.813 0.438-1.625 0.563-2.5 0-0.063 0-0.125 0-0.188 0.125-1.25 0.063-2.313 0-3.438zM12.938 16.625c0.063-0.75 0.125-1.5 0.375-2.188 0.125-0.188 0.188-0.438 0.313-0.625 0.25-0.313 0.563-0.25 0.75 0.063 0.125 0.25 0.125 0.5 0.125 0.75 0 0.75-0.125 1.438-0.313 2.125-0.313 0.938-0.563 1.813-0.875 2.75 0 0.063 0 0.125-0.063 0.25-0.313-1.063-0.375-2.125-0.313-3.125z"></path>
</svg>
