<?xml version="1.0" encoding="utf-8"?>
<!DOCTYPE svg PUBLIC "-//W3C//DTD SVG 1.1//EN" "http://www.w3.org/Graphics/SVG/1.1/DTD/svg11.dtd">
<svg version="1.1" xmlns="http://www.w3.org/2000/svg" xmlns:xlink="http://www.w3.org/1999/xlink" width="32" height="32" viewBox="0 0 32 32">
<path d="M24.938 17.563c-0.25-2.125-0.5-4.313-0.75-6.5-0.188-1.563-0.375-3.063-0.563-4.625-0.063-0.5-0.313-0.563-0.75-0.375-1.875 0.75-3.688-0.563-3.625-2.563 0-0.438-0.125-0.563-0.563-0.563-1.5 0.063-2.313-0.75-2.375-2.25 0-0.375-0.188-0.5-0.5-0.438-0.438 0-0.813 0.063-1.188 0.125-3.25 0.438-6 3.438-6.375 6.688-0.188 2.125-0.438 4.313-0.688 6.438-0.313 2.688-0.625 5.313-0.938 7.938-0.125 0.938 0.063 1.063 1 1.063 1.875 0 3.75 0 5.563 0 0.875 0 0.813-0.063 0.813 0.75 0 2.25 0 4.5 0 6.75 0 1.313 0.875 2.188 2.125 2.25 1 0 2.25-0.813 2.188-2.313-0.063-1.063-0.063-2.188-0.063-3.313s0.063-2.313 0-3.5c0-0.5 0.125-0.625 0.625-0.625 1.938 0.063 3.813 0 5.688 0 0.625 0 0.875-0.188 0.813-0.813-0.125-1.375-0.25-2.75-0.438-4.125zM12.313 1.625c0.938-0.563 2-0.875 3.125-0.938 0.25 0 0.438 0 0.438 0.375 0.125 1.313 1.125 2.25 2.5 2.313 0.313 0.063 0.438 0.125 0.438 0.5 0.188 2 2 3.25 3.938 2.688 0.375-0.125 0.5-0.063 0.5 0.313 0.063 0.75 0.125 1.5 0.25 2.25 0.063 0.313-0.063 0.438-0.313 0.625-2.25 1.188-4.625 1-6.563-0.688-0.563-0.438-1-0.938-1.563-1.375-1.813-1.375-3.813-1.75-6-0.938-0.063 0-0.125 0.063-0.25 0.063 0 0 0 0-0.063-0.063 0.438-2.188 1.625-3.938 3.563-5.125zM8.438 9.25c0.063-0.5 0.188-1 0.188-1.438 0-0.375 0.188-0.5 0.438-0.625 2.375-0.938 4.375-0.375 6.188 1.25 0.813 0.75 1.625 1.5 2.625 2 1.75 0.75 3.5 0.625 5.188-0.188 0.563-0.25 0.625-0.125 0.625 0.375 0.188 1.688 0.375 3.438 0.625 5.125 0.063 0.438-0.063 0.625-0.375 0.875-2.063 1.313-4.125 1.688-6.375 0.438-0.5-0.313-1-0.688-1.5-1.125-2.125-2.25-4.75-3.063-7.75-1.563-0.125 0.063-0.25 0.188-0.438 0.188 0.188-1.813 0.375-3.563 0.563-5.313zM17.875 30.063c0 1.063-0.75 1.75-1.75 1.75s-1.688-0.688-1.688-1.75c0-1.188 0-2.313 0-3.5 0 0 0 0 0 0 0-1.188 0-2.375-0.063-3.563 0-0.375 0.125-0.5 0.563-0.5 0.813 0.063 1.625 0.063 2.438 0 0.375 0 0.5 0.063 0.5 0.438 0 2.375 0 4.75 0 7.125zM24.375 22.125c-2.188 0-4.438 0-6.625 0-3.313 0-6.688 0-10 0-0.813 0-0.75-0.063-0.688-0.813 0.25-1.813 0.438-3.688 0.625-5.563 0.063-0.375 0.188-0.625 0.563-0.875 2.75-1.438 5.25-0.875 7.313 1.188 1.75 1.688 3.75 2.625 6.188 2 0.938-0.188 1.75-0.688 2.625-1.25 0.25 1.625 0.438 3.188 0.625 4.75 0.063 0.5-0.25 0.563-0.625 0.563z"></path>
</svg>
