<?xml version="1.0" encoding="utf-8"?>
<!DOCTYPE svg PUBLIC "-//W3C//DTD SVG 1.1//EN" "http://www.w3.org/Graphics/SVG/1.1/DTD/svg11.dtd">
<svg version="1.1" xmlns="http://www.w3.org/2000/svg" xmlns:xlink="http://www.w3.org/1999/xlink" width="32" height="32" viewBox="0 0 32 32">
<path d="M16.813 18c-2.625 0.063-5.25 0.063-7.875 0.063 0 0 0 0 0 0-1.313 0-2.625 0-3.938 0s-2.625 0-3.938-0.063c-0.563 0-0.688 0.188-0.625 0.688 0.125 2.813 2.313 4.938 5.188 5 2.188 0 4.438 0 6.625 0 2.813-0.063 5-2.188 5.125-5.063 0-0.5-0.125-0.625-0.563-0.625zM17.063 18.938c-0.125 2.125-2 4.25-4.188 4.375-2.625 0.188-5.313 0.188-7.938 0-2.25-0.125-4.125-2.25-4.25-4.5 0-0.375 0.125-0.563 0.563-0.563 2.563 0.063 5.063 0.063 7.625 0.063s5.063 0 7.625-0.063c0.5 0 0.625 0.188 0.563 0.688zM30.25 16c-0.625-0.125-1.188 0-1.938 0-0.625 0-1.375 0.063-2.188 0.125-2 0.25-3.938 0.625-5.875 1.25-0.813 0.25-1.125 1.125-0.813 1.875 0.438 0.813 1.438 1 2.25 0.375 0.875-0.688 1.75-1.063 2.813-1.313 1.125-0.25 2.25-0.375 3.375-0.375 0.813 0 1.563 0 2.313-0.125 0.625-0.125 1-0.438 1.063-0.938 0-0.438-0.375-0.75-1-0.875zM30.375 17.438c-0.375 0.125-0.75 0.188-1.188 0.188-1.75 0-3.563 0-5.25 0.5-0.813 0.25-1.563 0.563-2.188 1.125-0.313 0.25-0.625 0.438-1.063 0.5-0.5 0-0.938-0.375-1.063-0.875-0.125-0.563 0.188-1.063 0.813-1.25 1.188-0.375 2.438-0.688 3.688-0.938 1.813-0.313 3.625-0.438 5.5-0.438 0.25 0 0.563 0 0.813 0.063 0.25 0.125 0.5 0.25 0.5 0.563s-0.25 0.5-0.563 0.563zM13.625 16.375c0.188-0.25-0.063-0.375-0.25-0.5-0.75-0.813-0.75-1.563-0.125-2.438 0.25-0.25 0.438-0.5 0.625-0.813 0.375-0.5 0.625-1.063 0.625-1.688 0-0.688-0.313-1.375-0.875-2.063-0.313-0.313-0.5-0.313-0.813 0s-0.063 0.5 0.125 0.688c0.813 1 0.813 1.688 0.063 2.75-0.188 0.188-0.375 0.438-0.563 0.688-0.875 1.188-0.75 2.5 0.313 3.563 0.438 0.375 0.625 0.375 0.875-0.188zM13 12.75c0.313-0.375 0.625-0.813 0.75-1.25 0.25-0.813-0.063-1.438-0.563-2.063-0.063-0.125-0.313-0.25-0.063-0.438 0.188-0.125 0.313 0.125 0.375 0.25 0.938 1.125 0.938 2.188 0.063 3.375-0.188 0.25-0.375 0.438-0.563 0.688-0.688 0.938-0.625 1.813 0.125 2.688 0.063 0.063 0.313 0.188 0.125 0.375-0.188 0.25-0.313-0.063-0.438-0.188-0.438-0.5-0.688-1-0.625-1.688-0.063-0.625 0.313-1.25 0.813-1.75zM9.313 16.5c0.188-0.313 0-0.438-0.188-0.625-0.75-0.813-0.813-1.563-0.125-2.438 0.125-0.188 0.25-0.313 0.375-0.5 1.125-1.375 1.125-2.688-0.063-4.063-0.25-0.313-0.438-0.313-0.75 0-0.313 0.25-0.125 0.438 0.063 0.688 0.875 1.063 0.875 1.75 0 2.813-0.188 0.188-0.313 0.375-0.5 0.625-0.313 0.438-0.5 1-0.5 1.688-0.063 0.688 0.313 1.313 0.875 1.875 0.313 0.375 0.5 0.313 0.813-0.063zM8.438 13.063c0.25-0.313 0.5-0.625 0.75-0.938 0.5-0.875 0.5-1.625-0.125-2.438-0.063-0.125-0.188-0.25-0.25-0.375-0.125-0.125-0.125-0.188 0-0.313 0.125-0.063 0.188 0 0.313 0.063 0.813 1 1.125 1.875 0.438 3.125-0.188 0.375-0.5 0.688-0.75 1-0.75 1-0.75 1.875 0.063 2.813 0.063 0.125 0.313 0.25 0.063 0.375-0.188 0.188-0.25 0-0.313-0.125-0.5-0.438-0.75-1-0.75-1.625s0.25-1.125 0.563-1.563zM4.813 16.75c0.25-0.25 0.438-0.5 0.063-0.875-0.813-0.75-0.875-1.5-0.188-2.438 0.125-0.188 0.25-0.313 0.438-0.5 1.125-1.375 1.063-2.813-0.125-4.125-0.25-0.25-0.375-0.25-0.688-0.063-0.25 0.313-0.25 0.438 0 0.75 0.938 1.125 0.938 1.813 0 2.875-0.125 0.188-0.313 0.375-0.438 0.625-0.375 0.438-0.563 1-0.563 1.625 0 0.75 0.313 1.375 0.875 1.938 0.125 0.125 0.313 0.5 0.625 0.188zM4 13.25c0.25-0.313 0.563-0.688 0.813-1 0.25-0.375 0.438-0.813 0.438-1.125 0-0.813-0.313-1.25-0.625-1.688-0.125-0.125-0.313-0.25-0.125-0.375 0.25-0.188 0.313 0 0.375 0.125 0.938 1.063 1 2.188 0.188 3.313-0.25 0.313-0.438 0.563-0.688 0.875-0.625 0.875-0.563 1.75 0.125 2.563 0.125 0.125 0.375 0.25 0.188 0.438-0.25 0.25-0.313-0.063-0.438-0.188-0.813-0.875-0.875-1.938-0.25-2.938zM18.375 18.688c-0.25 0.188-0.75 0.125-0.875 0.563s-0.188 0.875-0.375 1.313c-0.063 0.188 0 0.25 0.125 0.25 0.5-0.188 0.938-0.375 1.375-0.563 0.25-0.125 0.625-0.188 0.813-0.375 0.25-0.313-0.25-0.5-0.25-0.75 0.063-0.75-0.313-0.688-0.813-0.438zM18.938 19.813c-0.438 0.188-0.875 0.375-1.313 0.563 0-0.813 0.188-1.313 0.938-1.438 0.25-0.063 0.375 0 0.375 0.25 0 0.188 0.438 0.438 0 0.625z"></path>
</svg>
