<?xml version="1.0" encoding="utf-8"?>
<!DOCTYPE svg PUBLIC "-//W3C//DTD SVG 1.1//EN" "http://www.w3.org/Graphics/SVG/1.1/DTD/svg11.dtd">
<svg version="1.1" xmlns="http://www.w3.org/2000/svg" xmlns:xlink="http://www.w3.org/1999/xlink" width="32" height="32" viewBox="0 0 32 32">
<path d="M31.188 15.688c1-0.938 1-2.063 0.438-3.188-0.5-1-1.438-1.438-2.5-1.313-1.25 0.188-2.125 0.938-2.313 2.313 0 0.25 0.125 0.625-0.313 0.75-1.125 0.5-2.813-0.188-3.313-1.313-0.375-0.938-0.875-1.875-1.563-2.75-3.938-5.125-9.5-6.938-15.688-7.25-1.188-0.063-2.188 0.375-2.938 1.313-0.75 0.875-1.25 1.813-1.625 2.875-1.563 4.375-1.625 8.813-1.125 13.313 0.313 2.5 0.875 4.875 2.25 7.063 0.75 1.188 1.75 2.063 3.25 1.938 7.75-0.5 14.438-2.75 17.688-10.688 0.563-1.313 1.813-0.438 2.688-0.625 0.563-0.125 0.688 0.25 0.688 0.75 0.125 1.313 1.063 2.125 2.25 2.313 1.063 0.188 2-0.25 2.563-1.25 0.563-1.125 0.5-2.25-0.375-3.188-0.438-0.438-0.563-0.563-0.063-1.063zM3 27.5c-1.188-1.75-1.75-3.688-2.125-5.75-0.813-4.75-0.688-9.438 0.813-14.063 0.313-1.063 0.813-2.125 1.5-3 1.25-1.625 2.5-1.688 4-0.313 0.188 0.188 0.313 0.438 0.563 0.438 1.813 3.75 2.563 7.688 2.5 11.875-0.063 2.938-0.438 5.875-1.563 8.688-0.313 0.688-0.625 1.438-1.125 2.063-1.375 2.063-3.125 2.063-4.563 0.063zM20.813 22.563c-3.5 4.188-8.25 5.875-13.563 6.375 4.125-6.875 4.125-14 2.063-21.375-0.25-1-0.563-2.125-1.5-2.813-0.188-0.375-0.375-0.813-0.625-1.313 5.938 0.625 11.063 2.563 14.563 7.625 2.5 3.75 2.188 7.813-0.938 11.5zM31.563 19c-0.188 1.125-1 1.75-2.125 1.75-1.5-0.063-2.188-1-2.25-2.375 0-0.563-0.188-0.625-0.625-0.625-0.313 0-0.625 0-0.938 0-1.625 0-2.438-1.188-1.875-2.75 0.25-0.625 0.875-0.313 1.25-0.313 1.125-0.063 2.375 0.313 2.438-1.625 0-1 1.063-1.438 2.125-1.375 1.125 0.063 1.813 0.688 2 1.75 0.188 1-0.25 1.813-1.188 2.313-0.313 0.188-0.625 0.25-0.938 0.375 0.063 0.125 0.063 0.188 0.063 0.188 1.375 0.375 2.313 1.125 2.063 2.688zM4.375 13.125c-0.875 1.313-0.875 4.813 0 6.125 0.625 0.938 1.313 0.938 1.875-0.063 0.563-0.875 0.563-1.938 0.625-2.938-0.063-1 0-2.125-0.563-3.063-0.625-1-1.313-1-1.938-0.063zM5.938 18.875c-0.375 0.875-0.938 0.688-1.313-0.063-0.438-0.813-0.438-1.688-0.438-2.625s0-1.875 0.5-2.75c0.438-0.688 0.938-0.688 1.25 0.063 0.75 1.75 0.813 3.563 0 5.375z"></path>
</svg>
