<?xml version="1.0" encoding="utf-8"?>
<!DOCTYPE svg PUBLIC "-//W3C//DTD SVG 1.1//EN" "http://www.w3.org/Graphics/SVG/1.1/DTD/svg11.dtd">
<svg version="1.1" xmlns="http://www.w3.org/2000/svg" xmlns:xlink="http://www.w3.org/1999/xlink" width="32" height="32" viewBox="0 0 32 32">
<path d="M10.438 17.5c-0.438-0.375-0.813-0.75-1.188-1.25 1.438 0 2.688-0.25 3.438-1.563 0.813-1.25 0.75-2.5 0-3.75 0.25-0.125 0.438-0.063 0.625-0.063 1.25 0 2.5 0 3.75 0 0.5 0.063 0.625-0.125 0.625-0.625-0.063-1.375-0.063-2.813-0.063-4.25 0.125 0.063 0.188 0.063 0.188 0.063 0.625 0.625 1.25 1.188 1.813 1.813 0.813 0.75 1.75 0.813 2.438 0.125s0.625-1.688-0.125-2.438c-0.625-0.625-1.25-1.25-1.875-1.938-0.25-0.188-0.25-0.313-0.063-0.563 0.688-0.625 1.313-1.25 1.938-1.875 0.125-0.188 0.5-0.313 0.188-0.563-0.188-0.188-0.375 0.125-0.563 0.25-0.563 0.625-1.188 1.188-1.75 1.813-0.25 0.313-0.438 0.313-0.75 0-0.563-0.625-1.188-1.25-1.813-1.813-0.813-0.813-1.75-0.875-2.438-0.188s-0.625 1.688 0.125 2.5c0.625 0.625 1.25 1.188 1.875 1.813-0.25 0.188-0.5 0.125-0.688 0.125-0.938 0-1.875 0-2.875 0-1.313 0-1.313 0-1.313 1.375 0 1.188 0 2.375 0 3.625-2.938-1.625-5.813 0.563-5.375 3.438 0 0 0 0-0.063 0-0.438-0.438-0.875-0.875-1.313-1.313-0.563-0.5-1.125-0.5-1.625 0-0.438 0.438-0.938 0.875-1.375 1.313-0.5 0.563-0.5 1.125 0 1.625 0.75 0.75 1.5 1.5 2.25 2.25 0.188 0.188 0.25 0.375 0 0.625-0.625 0.563-1.25 1.188-1.813 1.813-0.188 0.188-0.313 0.063-0.5 0-0.5-0.188-1.063-0.188-1.5 0.188-0.625 0.438-0.813 1.25-0.438 1.938s1.188 0.938 1.875 0.688c0.75-0.313 1.125-1.063 0.875-1.875-0.063-0.25-0.25-0.438 0.063-0.75 0.563-0.5 1.125-1.125 1.688-1.688 0.313-0.313 0.438-0.25 0.75 0 0.688 0.75 1.438 1.5 2.188 2.188 0.5 0.563 1.063 0.563 1.563 0 0.438-0.375 0.875-0.813 1.313-1.25 0.625-0.625 0.563-1.25-0.063-1.813zM1.5 22.375c-0.625 0-1.063-0.5-1.063-1.125 0-0.563 0.5-1.063 1.063-1.063s1.125 0.5 1.125 1.063c0 0.625-0.563 1.125-1.125 1.125zM15.188 2.75c-0.438-0.375-0.563-0.875-0.313-1.375 0.188-0.438 0.563-0.688 1.063-0.688 0.375 0 0.625 0.125 0.875 0.375 1.625 1.625 3.25 3.25 4.875 4.875 0.563 0.563 0.563 1.25 0.063 1.75s-1.188 0.5-1.75-0.063c-1.625-1.625-3.25-3.25-4.813-4.875zM12.75 5.563c1.375 0 2.688 0 4.063 0 0.313 0 0.375 0.125 0.375 0.438 0 0.625 0 1.313 0 2s0 1.313 0 2c0 0.313 0 0.438-0.375 0.438-1.375 0-2.75 0-4.125 0-0.313 0-0.375-0.125-0.375-0.375 0-1.375 0-2.75 0-4.125 0-0.313 0.125-0.375 0.438-0.375zM9.875 9.938c1.688 0 2.938 1.313 2.938 3 0 1.625-1.313 2.875-3 2.875-1.563-0.063-2.875-1.375-2.813-3 0-1.563 1.313-2.875 2.875-2.875zM4.063 12.375c0.188-0.188 0.5-0.125 0.688 0.125 0.5 0.438 1 0.938 1.563 1.438-0.063 0.063-0.063 0.125-0.125 0.125-1.25 0-2.438 0-3.875 0 0.625-0.625 1.188-1.188 1.75-1.688zM2.5 14.875c-0.063-0.063-0.188-0.125-0.125-0.313 0.063-0.125 0.188-0.063 0.313-0.063 1.25 0 2.5 0 3.813 0 0.188 0 0.313 0 0.438 0.188 0.5 0.438 1 0.875 1.438 1.313 0 0.063-0.063 0.125-0.063 0.188-1.125 0-2.25 0-3.375 0 0 0-0.063-0.063-0.063-0.063-1.188 0.375-1.688-0.625-2.375-1.25zM8.813 20.375c-0.25 0.25-0.625 0.188-0.875-0.063-0.5-0.5-1-1-1.625-1.563 1.438 0 2.688 0 4 0 0 0.063 0.063 0.063 0.063 0.125-0.5 0.5-1 1-1.563 1.5zM6.75 18.313c-0.813 0-1.313-0.375-1.75-0.938-0.25-0.25-0.438-0.438-0.75-0.813 1.563 0 3 0.063 4.438 0 0.313 0 0.375 0.25 0.563 0.375 0.375 0.438 0.813 0.75 1.25 1.313-1.313 0-2.563-0.063-3.75 0.063zM31.5 15.125c-0.625-0.688-1.313-1.313-2-2-0.25-0.25-0.25-0.375 0-0.625 0.688-0.625 1.313-1.313 1.938-1.938 0.125-0.125 0.375-0.313 0.188-0.5-0.25-0.25-0.375 0.063-0.5 0.188-0.625 0.625-1.25 1.25-1.875 1.938-0.313 0.25-0.438 0.25-0.688 0-0.688-0.688-1.313-1.375-2-2-0.563-0.563-1.375-0.625-2-0.25s-0.938 1.063-0.75 1.813c0.125 0.375 0.375 0.625 0.625 0.875 0.625 0.625 1.188 1.25 1.938 1.938-1.5 0-2.875 0-4.188 0-0.875 0-0.875 0.063-0.875 0.875 0 1.375 0 2.688 0 4.063-3.063-1.625-5.75 0.813-5.375 3.688-0.438-0.5-0.813-1-1.25-1.438-0.625-0.563-1.188-0.563-1.75 0-0.438 0.375-0.813 0.813-1.25 1.188-0.563 0.625-0.563 1.188 0 1.75 0.75 0.75 1.438 1.5 2.188 2.188 0.25 0.25 0.25 0.375 0 0.625-0.438 0.438-0.938 0.938-1.375 1.438-0.375 0.375-0.688 0.625-1.188 0.313-0.188-0.063-0.375-0.063-0.563-0.063-0.875 0.188-1.438 1-1.25 1.875 0.188 0.813 1.063 1.375 1.875 1.125 0.875-0.25 1.313-1.125 1-2-0.125-0.313-0.125-0.5 0.125-0.688 0.563-0.563 1.125-1.125 1.688-1.688 0.25-0.25 0.375-0.25 0.625-0.063 0.75 0.813 1.5 1.563 2.25 2.313 0.5 0.5 1.063 0.5 1.563 0 0.438-0.438 0.875-0.813 1.25-1.25 0.688-0.688 0.688-1.188 0-1.813-0.438-0.438-0.875-0.813-1.375-1.25 0.188-0.125 0.25-0.125 0.313-0.125 1.375 0.188 2.5-0.25 3.25-1.375 0.813-1.063 0.875-2.313 0.25-3.5-0.25-0.438-0.063-0.438 0.313-0.438 1.313 0 2.625 0 3.938 0 0.375 0 0.563-0.125 0.563-0.5-0.063-0.625-0.063-1.188 0-1.75 0-0.875-0.063-1.75 0.063-2.563 0.563 0.563 1.125 1.125 1.75 1.688 0.375 0.375 0.75 0.688 1.313 0.75 0.688 0 1.25-0.313 1.563-0.938s0.25-1.313-0.313-1.875zM11 31.813c-0.625 0-1.125-0.5-1.125-1.063 0-0.625 0.5-1.125 1.063-1.125 0.625 0 1.125 0.5 1.125 1.063 0 0.625-0.5 1.125-1.063 1.125zM13.375 21.938c0.25-0.25 0.625-0.25 0.875 0 0.5 0.5 1 0.938 1.625 1.563-1.438 0-2.688 0-3.938 0-0.063-0.063-0.063-0.063-0.125-0.125 0.5-0.5 1-1 1.563-1.438zM11.688 23.938c1.5 0 2.938 0 4.375 0 0.188 0 0.25 0.125 0.375 0.188 0.5 0.5 0.938 0.875 1.375 1.313-0.125 0.25-0.375 0.188-0.5 0.188-1.188 0-2.375 0-3.563 0-0.375 0-0.688-0.125-0.938-0.375-0.313-0.438-0.75-0.75-1.125-1.313zM18.25 29.813c-0.25 0.25-0.5 0.25-0.75 0.063-0.563-0.563-1.125-1.063-1.75-1.688 1.438 0 2.75 0 4.125 0-0.563 0.625-1.125 1.125-1.625 1.625zM19.938 27.75c-1.563 0-3 0-4.438 0-0.125 0-0.188-0.063-0.313-0.125-0.438-0.5-0.938-0.938-1.438-1.375 0-0.063 0.063-0.125 0.063-0.188 0.75 0 1.438 0 2.125 0 0.375 0 0.75 0.063 1.063 0 1.438-0.313 2.125 0.688 2.938 1.688zM22.313 22.313c0 1.625-1.375 2.938-3 2.938-1.563 0-2.875-1.313-2.875-2.938s1.25-2.875 2.938-2.875c1.625 0 2.875 1.25 2.938 2.875zM26.688 19.375c0 0.438-0.125 0.563-0.563 0.563-1.25-0.063-2.5-0.063-3.75 0-0.5 0-0.625-0.188-0.563-0.625 0-0.625 0-1.25 0-1.875 0 0 0 0 0 0 0-0.688 0-1.375 0-2 0-0.313 0.063-0.438 0.375-0.438 1.375 0.063 2.688 0.063 4.063 0 0.25 0 0.438 0.063 0.438 0.438 0 1.313 0 2.625 0 3.938zM30.938 17.375c-0.438 0.25-0.875 0.188-1.25-0.125-0.438-0.375-0.875-0.813-1.25-1.188-1.25-1.25-2.5-2.5-3.75-3.75-0.625-0.625-0.688-1.313-0.125-1.875 0.563-0.5 1.188-0.438 1.813 0.188 1.563 1.563 3.125 3.125 4.688 4.688 0.313 0.25 0.5 0.563 0.5 0.938 0 0.5-0.25 0.875-0.625 1.125z"></path>
</svg>
