<?xml version="1.0" encoding="utf-8"?>
<!DOCTYPE svg PUBLIC "-//W3C//DTD SVG 1.1//EN" "http://www.w3.org/Graphics/SVG/1.1/DTD/svg11.dtd">
<svg version="1.1" xmlns="http://www.w3.org/2000/svg" xmlns:xlink="http://www.w3.org/1999/xlink" width="32" height="32" viewBox="0 0 32 32">
<path d="M31.625 11.813c-0.438-0.188-0.938-0.25-1.438-0.438 0.188-1-0.25-1.813-0.75-2.625-3.063-4.5-7.375-6.875-12.75-7.125-4.938-0.25-9.188 1.375-12.563 4.938-1.25 1.375-2.625 2.75-2.563 4.813-0.375 0.125-0.813 0.25-1.188 0.375-0.188 0.063-0.375 0.313-0.375 0.438s0.188 0.375 0.375 0.438c0.313 0.188 0.75 0.313 1.125 0.438-0.125 0.313-0.313 0.625-0.375 0.938-0.063 0.188-0.125 0.5 0 0.625s0.438 0.125 0.625 0.063c0.438-0.125 0.813-0.313 1.188-0.5 0.188 0.313 0.313 0.563 0.563 0.75 0.063 0.125 0.313 0.188 0.438 0.125 0.063 0 0.188-0.25 0.188-0.375 0-0.375 0-0.75 0-1.188 1.25-0.063 2-0.75 2.625-1.75 1.125-2 2.813-3.313 4.938-4.188 0 1.813 0.063 3.563 0 5.313 0 1.25 1.25 2.688 2.5 2.5 0.5-0.063 0.688 0.25 0.625 0.688-0.063 0.875-0.063 1.688-0.125 2.563-0.125 3.375-0.25 6.688-0.5 10.063-0.063 2 0.563 2.25 2.188 2.125 0.75-0.063 1.25-0.563 1.188-1.25-0.063-1.688-0.125-3.375-0.188-5.063-0.188-2.813-0.313-5.625-0.438-8.375 0-0.5 0.188-0.688 0.625-0.75 1.625-0.125 2.5-0.938 2.5-2.563 0.063-1.5 0-3 0-4.5 0-0.25 0-0.438 0-0.625 0.188 0 0.188-0.063 0.25 0 0.125 0 0.188 0.063 0.313 0.125 1.813 0.813 3.375 2.063 4.375 3.75 0.625 1.063 1.313 1.875 2.625 1.938 0 0.438 0 0.813 0 1.188 0.063 0.125 0.188 0.375 0.313 0.438 0.125 0 0.313-0.125 0.438-0.25 0.188-0.188 0.313-0.438 0.5-0.688 0.438 0.188 0.875 0.375 1.25 0.563 0.188 0.063 0.438 0 0.625 0 0-0.188 0.063-0.438 0-0.625-0.125-0.375-0.25-0.688-0.438-1.125 0.5-0.125 0.938-0.25 1.313-0.438 0.188-0.063 0.375-0.25 0.375-0.375s-0.188-0.313-0.375-0.375zM3.563 14.313c-0.625-1.25-1.313-0.063-2.063-0.125 0.125-0.313 0.25-0.688 0.438-1 0.125-0.313 0.125-0.5-0.25-0.625-0.375-0.063-0.688-0.188-1.188-0.375 0.5-0.125 0.813-0.25 1.25-0.375 0.375 0.813 0.938 1.313 1.813 1.625 0.125 0 0.125 0.5 0.188 0.813-0.063 0-0.125 0.063-0.188 0.063zM19.625 9.875c0 0.938 0 1.875 0 2.813 0 1.375-0.75 2.188-2.125 2.313-0.813 0.063-1.063 0.375-1 1.188 0.125 2.125 0.188 4.313 0.313 6.5s0.188 4.438 0.313 6.625c0.063 0.688-0.25 1.063-0.938 1.063-0.188 0-0.438 0-0.625 0-0.625-0.063-0.875-0.313-0.875-0.938 0.063-1.313 0.125-2.688 0.188-4.063 0.063-2.438 0.188-4.875 0.313-7.25 0-0.688 0.125-1.313 0.125-1.938 0-0.875-0.25-1.125-1.125-1.188-1.188-0.125-2-0.938-2-2.125 0-2 0-4 0-5.938 0-0.375-0.063-0.688 0.5-0.688s0.5 0.313 0.5 0.688c0 1.25 0 2.5 0 3.75 0 0.5 0.125 0.688 0.625 0.625 1.5 0 1.25 0.188 1.25-1.188 0-1.063 0.063-2.125 0-3.188 0-0.625 0.25-0.688 0.75-0.688 0.563-0.063 0.75 0.125 0.75 0.625-0.063 1.25 0 2.5-0.063 3.75 0 0.5 0.125 0.75 0.688 0.688 1.438 0 1.188 0.188 1.25-1.188 0-1.063 0-2.188 0-3.25 0-0.438 0.125-0.688 0.625-0.625 0.5 0 0.563 0.25 0.563 0.688 0 0.938 0 1.938 0 2.938zM13.688 10.813c0-1.25 0-2.5 0-3.813 0.313-0.063 0.563-0.063 0.938-0.125 0 1.313 0 2.625 0 3.938-0.313 0-0.625 0-0.938 0zM17 10.813c0-1.313 0-2.625 0-4 0.375 0.063 0.625 0.125 0.938 0.188 0 1.25 0 2.563 0 3.813-0.313 0-0.625 0-0.938 0zM27.438 13c-0.75-0.063-1.313-0.375-1.625-1-1.25-2.25-3.063-3.813-5.375-4.813-0.188-0.063-0.313-0.375-0.313-0.563-0.063-0.375-0.25-0.75-0.625-0.813-0.5-0.125-1-0.188-1.375 0.313-0.313 0.375-0.875 0.438-1.25 0.063-0.563-0.625-1.563-0.625-2.125 0-0.375 0.375-0.938 0.375-1.25-0.063s-0.75-0.5-1.188-0.313c-0.25 0.125-0.5 0.5-0.563 0.813s-0.125 0.5-0.438 0.625c-2.25 0.938-4 2.438-5.188 4.563-0.688 1.125-1.938 1.5-3 0.938-1.063-0.625-1.375-1.938-0.75-3.063 2.25-3.875 5.563-6.25 9.875-7.25 1.188-0.25 2.438-0.313 3.313-0.438 6.188 0.25 10.813 2.563 13.875 7.75 0.438 0.75 0.438 1.5-0.063 2.25-0.438 0.75-1.125 1.063-1.938 1zM30.125 12.563c-0.313 0.125-0.438 0.25-0.25 0.625 0.188 0.313 0.25 0.688 0.438 1.125-0.313-0.125-0.5-0.188-0.688-0.313-0.563-0.313-1.063-0.5-1.5 0.25 0-0.25 0-0.5 0-0.813 0.875-0.25 1.5-0.75 1.938-1.563 0.375 0.063 0.75 0.188 1.25 0.313-0.5 0.188-0.813 0.313-1.188 0.375z"></path>
</svg>
