<?xml version="1.0" encoding="utf-8"?>
<!DOCTYPE svg PUBLIC "-//W3C//DTD SVG 1.1//EN" "http://www.w3.org/Graphics/SVG/1.1/DTD/svg11.dtd">
<svg version="1.1" xmlns="http://www.w3.org/2000/svg" xmlns:xlink="http://www.w3.org/1999/xlink" width="32" height="32" viewBox="0 0 32 32">
<path d="M27.188 4.125c-2.688 0-4.875 2.188-4.875 4.875 0 1.313 0.563 2.5 1.438 3.375l-4.25 4.313c-1.063-0.75-2.313-1.188-3.688-1.188-2 0-3.75 0.875-4.938 2.313l-4.375-2.875c0.375-0.563 0.625-1.25 0.625-2 0-1.938-1.563-3.563-3.563-3.563-1.938 0-3.563 1.625-3.563 3.563 0 2 1.625 3.563 3.563 3.563 1.063 0 2-0.438 2.688-1.188l4.375 2.875c-0.75 1.063-1.188 2.313-1.188 3.688 0 3.5 2.875 6.313 6.375 6.313s6.375-2.813 6.375-6.313c0-2-0.875-3.75-2.313-4.938l4.188-4.25c0.875 0.688 1.938 1.125 3.125 1.125 2.625 0 4.813-2.188 4.813-4.813 0-2.688-2.188-4.875-4.813-4.875zM3.563 16.063c-1.688 0-3.125-1.375-3.125-3.125 0-1.688 1.438-3.063 3.125-3.063s3.125 1.375 3.125 3.063c0 1.75-1.438 3.125-3.125 3.125zM21.688 21.875c0 3.25-2.625 5.875-5.875 5.875s-5.875-2.625-5.875-5.875c0-3.313 2.625-5.938 5.875-5.938s5.875 2.625 5.875 5.938zM27.188 13.313c-2.438 0-4.375-1.938-4.375-4.313 0-2.438 1.938-4.375 4.375-4.375 2.375 0 4.313 1.938 4.313 4.375 0 2.375-1.938 4.313-4.313 4.313z"></path>
</svg>
