<?xml version="1.0" encoding="utf-8"?>
<!DOCTYPE svg PUBLIC "-//W3C//DTD SVG 1.1//EN" "http://www.w3.org/Graphics/SVG/1.1/DTD/svg11.dtd">
<svg version="1.1" xmlns="http://www.w3.org/2000/svg" xmlns:xlink="http://www.w3.org/1999/xlink" width="32" height="32" viewBox="0 0 32 32">
<path d="M32 14.938c-0.063-0.938 0.063-1.938-0.063-2.938-0.375-2.813-1.938-4.875-4.25-6.375-3-2-6.375-2.5-9.875-1.813-3.313 0.625-5.938 2.25-7.75 5.188-0.938 1.438-2.188 2.563-3.688 3.375-1.813 0.938-3.563 2-4.938 3.563-0.875 0.875-1.438 1.875-1.438 3.188 0 1.375 0.063 2.75 0 4.063 0 0.688 0.188 1.25 0.5 1.875 0.563 1.063 1.438 1.938 2.563 2.5 3.563 1.75 7.25 1.688 10.875 0.125 1.688-0.688 3.125-1.75 4.625-2.813 0.438-0.313 0.938-0.688 1.563-0.688 0.75 0 1.563 0 2.375-0.063 2.125-0.188 4.188-0.563 6.063-1.563 1.625-0.875 2.875-2.125 3.313-4 0.25-1.188 0.063-2.375 0.125-3.625zM1.625 16.5c1.438-1.563 3.125-2.688 4.938-3.625 1.688-0.875 3-2.063 4-3.625 1.938-3.063 4.813-4.625 8.375-5.063 0.563-0.063 1.063-0.125 1.625-0.125 3.5 0.125 6.625 1.125 9 3.875 1.813 2.188 2.438 4.625 1.375 7.375-0.563 1.375-1.75 2.188-3.063 2.813-2.313 1.063-4.813 1.313-7.375 1.313-0.813 0-1.5 0.25-2.188 0.75-1.563 1.125-3.063 2.188-4.813 2.938-3.188 1.375-6.438 1.313-9.625 0-1.063-0.375-1.938-1.125-2.625-2.063-1-1.5-0.875-3.25 0.375-4.563zM29.5 21.313c-1.5 1.125-3.188 1.625-4.938 2-1.5 0.25-2.938 0.313-4.438 0.313-0.688 0-1.25 0.313-1.813 0.688-1.313 1-2.688 1.938-4.188 2.688-3.375 1.625-6.813 1.75-10.25 0.313-1.563-0.625-2.75-1.688-3.188-3.375-0.25-0.813-0.063-1.75-0.125-2.75 2.25 2.813 5.188 3.438 8.375 3.438 3.188 0.063 5.813-1.25 8.313-3 0 0 0-0.063 0.063-0.063 2.688-1.813 1.688-1.5 4.875-1.625 2.188-0.063 4.375-0.5 6.375-1.5 1.125-0.625 2.125-1.438 2.75-2.625 0.563 1.75-0.25 4.25-1.813 5.5zM4.688 21.25c1.063 0.563 2.25 0.688 3.375 0.75 2.563-0.125 4.938-0.75 7.063-2.063 1-0.563 1.313-1.438 1.063-2.438-0.063-0.438-0.25-0.875-0.313-1.25-0.313-1.563-1.063-2.75-2.5-3.5-0.125-0.063-0.188-0.188-0.313-0.25-1.063-0.75-1.688-0.688-2.563 0.188-0.75 0.75-1.625 1.438-2.563 1.938-1.5 0.813-2.938 1.688-4.25 2.813-1.188 1-1.25 2-0.125 3.063 0.313 0.313 0.75 0.563 1.125 0.75zM4.25 17.688c1.188-1.063 2.563-1.813 3.938-2.625 1.063-0.5 1.938-1.188 2.75-2 0.625-0.625 1-0.625 1.75-0.125 0.125 0.063 0.25 0.188 0.375 0.25 1.438 0.75 2.063 2 2.313 3.5 0.063 0.25 0.188 0.5 0.25 0.75 0.313 0.875 0.063 1.5-0.688 2-1.563 1-3.25 1.563-5.063 1.813-0.563 0.125-1.125 0.188-1.625 0.125-1.25 0.063-2.313-0.125-3.313-0.625-0.188-0.125-0.438-0.188-0.625-0.375-1.313-0.875-1.25-1.625-0.063-2.688zM17.875 14.875c-0.438 1.438 0.313 2.625 1.813 2.5 0.375-0.063 0.75-0.063 1.125-0.125 0.438 0.125 0.938 0 1.375 0 1.688-0.125 3.375-0.438 4.938-1.125 0.813-0.438 1.563-0.938 1.938-1.813 0.313-0.875 0.25-1.75 0.063-2.625-0.25-1.063-1.063-1.563-2.063-1.188-2.563 0.938-5.125 1.813-7.625 2.75-0.813 0.25-1.313 0.813-1.563 1.625zM27.25 11c0.688-0.188 1.125 0.063 1.313 0.75 0.125 0.375 0.125 0.75 0.125 1.125 0.125 1.313-0.563 2.063-1.625 2.625-1.125 0.563-2.438 0.938-3.75 1.063-1.25 0.125-2.563 0.188-3.813 0.25-0.875 0-1.375-0.563-1.188-1.438 0.125-0.75 0.5-1.313 1.313-1.625 2.5-0.875 5.063-1.813 7.625-2.75zM14.125 10.938c0.313 0.25 0.688 0.5 1 0.75 0.625 0.375 1.313 0.563 2.063 0.313 2.313-0.813 4.625-1.625 6.938-2.438 0.625-0.25 0.875-0.75 0.938-1.375 0-0.688-0.375-1.188-1.125-1.438-1.688-0.563-3.438-0.688-5.188-0.375s-3.438 0.938-4.813 2.125c-0.813 0.75-0.75 1.813 0.188 2.438zM14.438 8.813c1.813-1.375 3.813-2 6.063-2 1.125-0.063 2.188 0.125 3.25 0.438 0.438 0.188 0.75 0.438 0.75 0.938 0 0.438-0.25 0.75-0.688 0.875-2.25 0.813-4.5 1.625-6.688 2.375-0.563 0.25-1.125 0.125-1.563-0.188-0.375-0.188-0.75-0.438-1.125-0.75-0.688-0.5-0.688-1.125 0-1.688z"></path>
</svg>
