<?xml version="1.0" encoding="utf-8"?>
<!DOCTYPE svg PUBLIC "-//W3C//DTD SVG 1.1//EN" "http://www.w3.org/Graphics/SVG/1.1/DTD/svg11.dtd">
<svg version="1.1" xmlns="http://www.w3.org/2000/svg" xmlns:xlink="http://www.w3.org/1999/xlink" width="32" height="32" viewBox="0 0 32 32">
<path d="M7.625 0.5c-0.563 0-0.688 0.188-0.688 0.688 0 1.25 0 2.563 0 3.813 0 0.25 0.063 0.625-0.438 0.563-0.375 0-0.375-0.313-0.375-0.563 0-0.875 0-1.813 0-2.688 0-1.875 0-1.813-1.813-1.813-0.625 0-0.875 0.125-0.875 0.75 0.063 1.25 0.063 2.5 0.063 3.688 0 0.313 0 0.688-0.438 0.625-0.438 0-0.438-0.313-0.438-0.625 0-0.875 0-1.75 0-2.625 0-1.938 0-1.938-2-1.813-0.438 0-0.625 0.188-0.625 0.625 0 2.563 0 5.188 0 7.813 0 0.688 0.438 1.063 1.125 1.063 0.75 0 1.438 0.063 2.188 0 0.5 0 0.75 0.125 0.75 0.688 0 3 0 5.938 0 8.938 0 0.438-0.125 0.688-0.625 0.625-0.375-0.063-0.625 0.063-0.688 0.563-0.188 2.875-0.375 5.75-0.563 8.688-0.125 1.125 0.625 2.125 1.688 2.5 1.688 0.563 3.625-0.75 3.563-2.688-0.125-2.813-0.375-5.563-0.563-8.375-0.063-0.438-0.188-0.75-0.75-0.688-0.5 0.063-0.625-0.188-0.625-0.688 0-2.938 0-5.938 0-8.875 0-0.5 0.188-0.688 0.688-0.688 0.688 0.063 1.438 0.063 2.125 0 0.938 0 1.25-0.375 1.25-1.25 0-1.25 0-2.438 0-3.688 0-0.938 0-1.813 0-2.75 0-1.938 0-1.875-1.938-1.813zM6.375 22.25c0.125 2 0.313 4 0.5 6 0.063 0.625 0.125 1.25-0.063 1.875-0.438 1.063-1.5 1.688-2.625 1.438-1-0.25-1.563-1.125-1.5-2.313 0.188-2.5 0.375-5 0.5-7.5 0.063-0.875 0.375-1.188 1.188-1 0.188 0 0.313 0 0.438 0 1.75 0 1.5-0.25 1.563 1.5zM4.625 20.125c0-3.313 0-6.625 0-9.938 0.125 0 0.188-0.063 0.25-0.063 0 3.375 0 6.688 0 10.063-0.063 0-0.125-0.063-0.25-0.063zM9.063 5.125c0 1.188 0 2.313 0 3.438 0.063 0.688-0.188 1-0.875 1-2.313 0-4.563 0-6.813 0-0.625 0-0.875-0.313-0.875-0.875 0-2.375 0-4.75-0.063-7.063 0-0.75 0.5-0.625 0.938-0.625 0.438-0.063 0.813 0 0.75 0.625 0 1.25 0.063 2.438 0 3.688 0 0.625 0.25 0.813 0.875 0.813 0.5-0.063 1 0 1-0.813-0.063-1.188 0-2.375-0.063-3.563 0-0.688 0.25-0.813 0.813-0.813 0.625 0.063 0.938 0.125 0.875 0.875 0 1.125 0.063 2.313 0 3.5 0 0.688 0.375 0.75 0.938 0.813 0.625 0 0.938-0.188 0.875-0.875-0.063-1.188 0.063-2.375 0-3.563-0.063-0.75 0.313-0.688 0.813-0.688s0.875-0.063 0.875 0.625c-0.063 1.188-0.063 2.375-0.063 3.5zM30.625 0.5c-1.125 0-2.25 0-3.375 0 0 0 0 0 0 0-1.25 0-2.5 0-3.688 0-0.75 0-1.188 0.375-1.188 1.125 0 2.438 0 4.813 0 7.188 0 0.813 0.438 1.25 1.25 1.188 0.688 0 1.438 0.063 2.125 0 0.563 0 0.75 0.25 0.75 0.75-0.063 2.938-0.063 5.875 0 8.813 0 0.438-0.125 0.75-0.688 0.688-0.625-0.063-0.688 0.313-0.688 0.75-0.188 2.75-0.438 5.5-0.563 8.25-0.125 1.625 0.938 2.813 2.313 2.813 1.813 0 3-1.125 2.875-2.875-0.125-2.75-0.375-5.5-0.563-8.313 0-0.5-0.188-0.688-0.688-0.625s-0.625-0.188-0.625-0.625c0-3 0-6 0-9 0-0.438 0.188-0.625 0.625-0.625 0.75 0.063 1.5 0 2.25 0 0.813 0.063 1.188-0.438 1.188-1.125 0.063-2.375 0.063-4.813 0-7.188 0-0.813-0.438-1.25-1.313-1.188zM28.813 22.313c0.125 2.25 0.313 4.438 0.438 6.625 0.125 1.438-0.75 2.625-1.875 2.688-1.563 0.063-2.438-0.875-2.313-2.5 0.125-2.563 0.375-5.125 0.5-7.688 0.063-0.5 0.188-0.75 0.75-0.688 0.25 0 0.563 0 0.875 0 1.563 0 1.563 0 1.625 1.563zM27.063 20.188c0-3.375 0-6.688 0-10.063 0.063 0 0.125 0 0.188 0 0 3.375 0 6.688 0 10.063-0.063 0-0.125 0-0.188 0zM30.5 9.563c-1.125 0-2.25 0-3.375 0 0 0 0 0 0 0-1.063 0-2.188-0.063-3.313 0-0.625 0-0.938-0.25-0.938-0.938 0-2.25 0-4.5 0-6.75 0-0.625 0.25-0.875 0.875-0.875 2.25 0 4.563 0 6.813 0 0.625 0 0.875 0.25 0.875 0.813 0.063 2.25 0 4.563 0.063 6.813 0 0.688-0.375 0.938-1 0.938zM18.063 0.875c-1.813-0.875-3.625-0.688-5.188 0.625-1.375 1.125-1.938 2.563-1.75 4.313 0.25 1.938 1.375 3.25 3.188 3.938 0.438 0.188 0.938 0.125 0.938 0.875-0.063 3 0 6 0 9 0 0.375-0.125 0.688-0.625 0.625s-0.688 0.188-0.688 0.688c-0.188 2.625-0.375 5.313-0.563 8.125 0 0.375-0.063 0.875 0.125 1.375 0.5 1.188 1.625 1.813 2.875 1.625s2.25-1.25 2.188-2.563c-0.125-2.938-0.375-5.875-0.563-8.75 0-0.375-0.188-0.563-0.5-0.5-0.688 0.063-0.813-0.25-0.813-0.875 0-2.688 0-5.438 0-8.188-0.063-0.813 0.188-1.188 1-1.5 1.875-0.688 2.938-2.125 3.063-4.125 0.125-2.125-0.813-3.75-2.688-4.688zM17.563 22.125c0.188 2.438 0.375 4.875 0.5 7.313 0.063 1-0.625 1.75-1.5 2.063s-1.688 0-2.25-0.688c-0.375-0.375-0.5-0.875-0.438-1.438 0.188-2.688 0.375-5.375 0.563-8.125 0-0.313 0.125-0.5 0.563-0.5 0.313 0 0.688 0 1.063 0 1.375 0 1.438 0 1.5 1.375zM15.875 20.188c0-3.375 0-6.688 0-10.063 0.063 0 0.125 0 0.188 0 0 3.375 0 6.688 0 10-0.063 0.063-0.125 0.063-0.188 0.063zM16 9.563c-2.375 0-4.375-1.938-4.438-4.313 0-2.313 2.063-4.438 4.375-4.375 2.375 0 4.313 1.938 4.313 4.375 0 2.313-1.875 4.313-4.25 4.313zM4.063 29c-0.063 0-0.063 0-0.063 0s0 0.063 0 0.063c0.063 0 0.063 0 0.063 0s0-0.063 0-0.063zM4.25 28.438c-0.25 0.125-0.438 0.313-0.188 0.563 0 0 0 0 0.063 0 0.313 0 0.688-0.375 1.063-0.063 0.438 0.438-0.063 0.813 0 1.188-0.625-0.125-1-0.438-1.188-1.063-0.688 0.188-0.25 0.688-0.063 0.938 0.313 0.5 0.813 0.75 1.313 0.188 0.625-0.25 0.813-0.688 0.563-1.25-0.313-0.563-1-0.813-1.563-0.5zM30.25 2.938c0-0.5-0.188-0.875-0.75-0.813-0.438 0-0.688 0.25-0.688 0.75 0 1.563 0 3.188 0 4.813 0 0.5 0.313 0.688 0.75 0.688 0.5 0.063 0.688-0.25 0.688-0.75 0-0.75 0-1.5 0-2.313s0-1.625 0-2.375zM29.625 7.813c-0.063 0-0.188 0-0.25 0-0.063-1.688-0.063-3.438 0-5.125 0.063 0 0.188 0 0.25 0 0 1.688 0 3.438 0 5.125zM27.125 2.125c-0.5 0-0.625 0.25-0.625 0.75 0 0.75 0 1.563 0 2.375 0 0 0 0 0 0 0 0.813 0 1.563 0 2.313-0.063 0.438 0.125 0.813 0.563 0.813 0.5 0.063 0.813-0.25 0.813-0.75 0-1.563 0-3.188 0-4.813 0-0.438-0.25-0.75-0.75-0.688zM27.313 7.813c-0.063 0-0.125 0-0.25 0 0-1.75 0-3.438 0-5.125 0.125 0 0.188 0 0.25 0 0 1.688 0 3.375 0 5.125zM24.75 2.125c-0.563 0-0.688 0.375-0.688 0.75 0 0.813 0 1.625 0 2.438 0 0 0 0 0 0 0 0.75 0 1.563 0 2.313 0 0.438 0.188 0.813 0.688 0.813s0.75-0.313 0.75-0.813c0-1.563 0.063-3.125 0-4.75 0-0.438-0.188-0.813-0.75-0.75zM24.75 7.813c-0.313 0-0.188-0.375-0.188-0.625 0-1.313 0-2.625 0-3.938 0-0.188-0.063-0.438 0.188-0.625 0.375 0.125 0.25 0.438 0.25 0.688 0.063 1.313 0.063 2.563 0 3.875 0 0.25 0.125 0.625-0.25 0.625zM26.063 29.375c0.063 0.688 0.5 1.188 1.188 1.125 0.625-0.063 1-0.438 1-1.125 0-0.625-0.5-1.125-1.188-1.063-0.625 0.063-0.938 0.438-1 1.063zM27.75 29.375c0 0.375-0.25 0.563-0.625 0.563s-0.5-0.188-0.563-0.5c0.063-0.438 0.25-0.625 0.625-0.625 0.375 0.063 0.563 0.25 0.563 0.563zM17.813 2.375c-0.125-0.125-0.375-0.375-0.563-0.188-0.25 0.25 0.063 0.438 0.188 0.563 0.813 0.75 1.313 1.688 1.438 2.813 0 0.188-0.063 0.5 0.313 0.625 0.25-1.313-0.313-2.938-1.375-3.813zM14.875 29.438c0.063 0.563 0.375 1 1.063 1.063 0.625 0 1.188-0.5 1.125-1.125 0-0.625-0.375-1-0.938-1.063-0.75 0-1.313 0.5-1.25 1.125zM15.875 28.813c0.375 0 0.688 0.188 0.688 0.563 0.063 0.313-0.188 0.563-0.5 0.563-0.375 0.063-0.625-0.125-0.688-0.5 0-0.313 0.188-0.563 0.5-0.625z"></path>
</svg>
