<?xml version="1.0" encoding="utf-8"?>
<!DOCTYPE svg PUBLIC "-//W3C//DTD SVG 1.1//EN" "http://www.w3.org/Graphics/SVG/1.1/DTD/svg11.dtd">
<svg version="1.1" xmlns="http://www.w3.org/2000/svg" xmlns:xlink="http://www.w3.org/1999/xlink" width="32" height="32" viewBox="0 0 32 32">
<path d="M23.438 22.25c-0.063 0-0.125 0.063-0.188 0.125-1.75 1.875-3.938 2.938-6.375 3.063v0c-1.75 0.063-3.25-0.313-4.688-1-3.688-1.938-5.625-6.063-4.75-10.188 0.375-1.75 1.188-3.313 2.5-4.563 2.25-2.188 4.938-3 8-2.563 1.063 0.188 2.125 0.563 3.188 1.188 0.125 0.063 0.188 0.063 0.25 0.063 0 0 0 0 0.063-0.063s0.063-0.188-0.125-0.313c-1.563-0.875-3.188-1.375-4.813-1.375 0 0-0.063 0-0.063 0-2.813 0.063-5.188 1.063-7.063 3.188-2.688 2.875-3.313 7.25-1.5 10.688 1.688 3.188 4.313 4.938 7.813 5.25 3 0.25 5.625-0.813 7.813-3.063 0.063-0.125 0.125-0.188 0.188-0.25 0-0.125 0-0.188-0.063-0.188-0.063-0.063-0.125-0.063-0.188 0zM17.375 8.938c-2-0.25-4 0.313-5.438 1.563-0.375 0.25-0.688 0.563-0.938 0.875-0.063 0.125-0.125 0.188-0.125 0.188 0.063 0.063 0.063 0.125 0.125 0.125 0.063 0.063 0.125 0.063 0.25-0.063 0 0 0.063-0.063 0.125-0.063v-0.063c1.313-1.5 3.063-2.25 5.063-2.25v0c0 0 0 0 0 0 0.5 0 0.938 0 1.313 0.125 3 0.625 5.063 2.813 5.438 5.813 0.313 2.563-0.625 4.75-2.75 6.375-1.063 0.813-2.375 1.25-3.813 1.25-0.125 0-0.25 0-0.313 0.063 0 0.063 0 0.125 0 0.188 0 0.125 0.063 0.125 0.313 0.125 1.375-0.063 2.563-0.375 3.563-1 1.75-1.125 2.875-2.813 3.313-4.75 0.375-2-0.063-4-1.313-5.625-1.125-1.563-2.875-2.625-4.813-2.875zM31.625 7.75c-0.188 0-0.125 0.188-0.125 0.313-0.063 1.375 0 2.75-0.063 4.063 0 0.875-0.563 1.438-1.438 1.438-0.188 0-0.375 0-0.563 0-0.188 0.063-0.25-0.063-0.25-0.25 0.063-1.75 0.063-3.5 0.063-5.313 0-0.063 0-0.25-0.188-0.25-0.125 0-0.125 0.188-0.125 0.25 0 0.313 0 0.563 0 0.875 0 1.5 0 3 0 4.438 0 0.25-0.063 0.313-0.25 0.25-0.188 0-0.375 0-0.563 0-0.938 0-1.5-0.563-1.5-1.5 0-1.313 0-2.625 0-4 0-0.063 0-0.063 0-0.125 0-0.125-0.063-0.188-0.125-0.188-0.125 0-0.125 0.063-0.188 0.188 0 0 0 0.063 0 0.125 0 1.313 0 2.688 0 4.063 0 1 0.75 1.75 1.75 1.75 0.25 0 0.438 0 0.625 0 0.313 0 0.25-0.063 0.25 0.25 0 3.5 0 6.938 0 10.438 0 0.125-0.063 0.313 0.125 0.313s0.188-0.188 0.188-0.313c0-3.313 0-6.625 0-9.938 0-0.188 0-0.438 0-0.625-0.063-0.125 0-0.125 0.125-0.125 0.25 0 0.5 0 0.75 0 0.438 0 0.813-0.188 1.125-0.5 0.313-0.375 0.5-0.75 0.5-1.25 0-1.375 0-2.688 0-4.063 0-0.125 0.063-0.313-0.125-0.313zM1.188 7.375c-0.938 1-1.25 2.5-0.688 3.75 0.438 1 1.125 1.688 2.25 1.813 0.188 0.063 0.188 0.125 0.188 0.313 0 3.688 0 7.438 0 11.125 0 0.125-0.063 0.313 0.125 0.313 0.25 0 0.188-0.188 0.188-0.313 0-2.938 0-5.875 0-8.813 0-0.813 0-1.625 0-2.375 0-0.125 0-0.188 0.125-0.188 0.813-0.125 1.438-0.563 1.875-1.188 0.938-1.313 0.875-3-0.125-4.25-1.063-1.25-2.813-1.313-3.938-0.188zM5.063 11.625c-0.125 0.125-0.188 0.25-0.25 0.313-1.25 1.188-3.125 0.938-3.875-0.563-0.688-1.25-0.625-2.5 0.25-3.625 1.063-1.313 3.125-1.25 4.063 0.5 0.563 1.125 0.5 2.313-0.188 3.375zM2.938 7.375c-0.5 0.063-0.875 0.25-1.25 0.625-0.125 0.125-0.25 0.313-0.375 0.5 0 0.063-0.063 0.188 0.063 0.25s0.188 0 0.25-0.125c0-0.063 0-0.063 0.063-0.125 0.313-0.5 0.688-0.813 1.25-0.813 0.125 0 0.25 0 0.25-0.188s-0.125-0.125-0.25-0.125zM1.313 8.938c-0.125-0.063-0.188 0-0.188 0.063-0.063 0.25-0.125 0.5-0.125 0.813 0 0.063 0.063 0.063 0.125 0.125 0.063 0 0.125 0 0.125-0.063 0.063 0 0.063 0 0.063-0.063 0-0.25 0.063-0.5 0.125-0.75 0-0.063-0.063-0.125-0.125-0.125z"></path>
</svg>
