<?xml version="1.0" encoding="utf-8"?>
<!DOCTYPE svg PUBLIC "-//W3C//DTD SVG 1.1//EN" "http://www.w3.org/Graphics/SVG/1.1/DTD/svg11.dtd">
<svg version="1.1" xmlns="http://www.w3.org/2000/svg" xmlns:xlink="http://www.w3.org/1999/xlink" width="32" height="32" viewBox="0 0 32 32">
<path d="M29.563 15.063c-0.5-0.063-1.063-0.063-1.625-0.063-0.375 0.063-0.688-0.063-0.875-0.438-1.625-3.063-4.125-5.188-7.188-6.625-0.563-0.25-0.688-0.375-0.188-0.875 0.5-0.563 0.5-1.563 0.063-2.125-0.5-0.625-1.313-0.875-2.063-0.563-0.625 0.188-1.25 1-1.063 1.688 0.25 0.938-0.188 0.75-0.75 0.688-3.438-0.563-6.688-0.125-9.75 1.563-0.188 0.063-0.563 0.125-0.5 0.438 0.063 0.25 0.375 0.25 0.625 0.313 5.563 1.75 11.188 3.438 16.75 5.125 0.688 0.188 1.375 0.438 2 0.688-0.25 0.125-0.438 0.125-0.688 0.125-6.25 0-12.5 0-18.75 0-0.938 0-1.938 0-2.875 0.063-1.375 0.063-2.5 1.188-2.438 2.5 0 1.375 1.063 2.375 2.438 2.438 0.375 0.063 0.813 0.063 1.188 0 0.688-0.063 0.875 0.188 0.875 0.875 0 2.813 0 5.563 0 8.375 0.063 1.625 1.375 3 3 3 5.563 0 11.188 0 16.75 0 0 0 0.063-0.063 0.063-0.063v0.063c0 0 2.125 0.063 2.625-2.438 0.063-0.188 0.125-0.375 0.125-0.625 0 0 0-0.063 0-0.125s0-0.063 0-0.125c0-0.375 0-0.75 0-1.125 0-2.375 0-4.688 0-7.063 0-0.563 0.188-0.75 0.688-0.75 0.5 0.063 0.938 0.063 1.438 0 1.313-0.063 2.313-1.063 2.313-2.375 0.063-1.313-0.875-2.375-2.188-2.563zM18.438 4.688c0.688 0.063 1.25 0.625 1.188 1.375-0.063 0.688-0.75 1.25-1.375 1.188-0.688-0.063-1.313-0.75-1.188-1.438 0.063-0.625 0.688-1.188 1.375-1.125zM6.438 8.688c7.25-4.063 17.125-0.438 20.188 6.188-6.75-2.063-13.438-4.125-20.188-6.188zM4.125 19.625c-2.188 0.188-3.25-0.5-3.438-1.938-0.125-1 0.688-2 1.813-2.188 0.063 0 0.063-0.063 0.125-0.063 2.125-0.25 2.125-0.25 2.125 2.125 0 0.125 0.063 0.25 0 0.313-0.25 0.563 0.625 1.625-0.625 1.75zM26.875 27.313c0 0.688 0 1.313-0.063 2-0.188 1.063-0.875 2.438-2.875 2.563-5.188 0-10.375-0.063-15.563-0.063-2.125 0-3.188-1-3.188-3.188 0-4.063 0-8.188-0.063-12.313 0-0.75 0.313-0.875 1-0.875 6.563 0 13.188 0 19.813 0 0.75 0 0.938 0.188 0.938 0.938 0 3.625 0 7.313 0 10.938zM29.688 19.563c-2.125 0.438-2.375 0.188-2.375-1.875 0-0.438 0.063-0.938 0-1.375-0.063-0.75 0.188-0.938 0.875-0.875 0.125 0 0.25 0 0.5 0 0.813-0.063 1.625 0.125 2.188 0.875 0.938 1.188 0.313 2.938-1.188 3.25zM3.875 9.5c1.438 1.188 1.563 2.313 0.375 3.75-0.125 0.188-0.25 0.25-0.375 0.438-0.063 0.188 0 0.313 0.25 0.313 0.125-0.125 0.25-0.188 0.375-0.313 1.375-1.5 1.313-3.125-0.25-4.438-1.5-1.313-1.625-2.438-0.313-3.875 0.125-0.188 0.5-0.313 0.188-0.563-0.188-0.188-0.375 0.125-0.563 0.25-1.375 1.438-1.25 3.188 0.313 4.438zM6.438 6.125c-0.063 0.125-0.313 0.25-0.125 0.438s0.375-0.063 0.5-0.188c0.875-0.938 0.875-2.125-0.125-3.063-1.063-0.938-1.125-1.438-0.313-2.563 0.063-0.063 0.188-0.188 0.188-0.25 0.125-0.125 0-0.25-0.125-0.25-0.188 0-0.313 0.125-0.438 0.25-0.875 0.938-0.813 2.125 0.188 3 1.063 1 1.063 1.438 0.25 2.625z"></path>
</svg>
