<?xml version="1.0" encoding="utf-8"?>
<!DOCTYPE svg PUBLIC "-//W3C//DTD SVG 1.1//EN" "http://www.w3.org/Graphics/SVG/1.1/DTD/svg11.dtd">
<svg version="1.1" xmlns="http://www.w3.org/2000/svg" xmlns:xlink="http://www.w3.org/1999/xlink" width="32" height="32" viewBox="0 0 32 32">
<path d="M28.875 14.375c-0.438-1.75-1.688-2.625-3.375-3-0.438-0.063-1.063 0.063-1.25-0.25-0.25-0.313-0.125-0.938-0.188-1.375 0-0.5-0.188-0.625-0.688-0.625-3.25 0-6.5 0-9.813 0-3.25 0-6.563 0-9.813 0-0.5 0-0.688 0.125-0.688 0.625-0.125 1.938-0.188 3.875 0 5.875 0.25 2.938 0.938 5.813 2.563 8.313 1.438 2.125 2.25 4.5 2.438 7.063 0.063 0.813 0.563 1.25 1.438 1.25 2.688 0 5.438 0 8.188 0 0.875 0 1.313-0.438 1.375-1.313 0.188-2.313 0.875-4.438 2.063-6.313 0.75-1.25 1.438-2.438 1.938-3.813 0.063-0.25 0.125-0.375 0.438-0.313 1.563 0.188 2.813-0.438 3.938-1.438 1.313-1.313 1.938-2.875 1.438-4.688zM20.688 24.5c-1.25 1.938-1.875 4.125-2.063 6.438-0.063 0.688-0.313 0.875-1 0.875-2.688 0-5.375 0-8.125 0-0.688 0-0.938-0.25-1-0.938-0.188-2.313-0.813-4.5-2.063-6.438-2.188-3.25-3-6.813-3.063-10.625 0-1.25 0-2.5 0.063-3.688 0.063-0.438 0.188-0.563 0.625-0.563 2 0 3.938 0 5.938 0s4 0 6.063 0c0.375 0 0.563 0.125 0.5 0.5 0 1 0 2 0 3 0 0.375-0.063 0.563-0.5 0.5-1.063-0.25-1.5 0.375-2 1.25-0.688 1.125-0.438 2.313-0.5 3.5-0.063 0.625 0 1.25 0 1.875 0 0.313 0.125 0.438 0.438 0.438 1.875 0 3.688 0 5.5 0 0.375 0 0.5-0.125 0.5-0.5 0-1.313 0-2.625 0-3.938 0-0.438-0.188-0.688-0.375-1-0.063-0.25-0.25-0.438-0.313-0.625-0.313-0.813-0.813-1.188-1.688-1-0.563 0.125-0.688-0.188-0.625-0.688 0-1 0-1.938 0-2.938 0-0.313 0.063-0.375 0.375-0.375 1.938 0 3.875 0 5.813 0 0.5 0 0.5 0.25 0.5 0.563 0.063 1.813 0.125 3.625 0 5.5-0.25 3.188-1.25 6.125-3 8.875zM19.563 19.75c0 0.313-0.063 0.438-0.438 0.438-0.813 0-1.563 0-2.375 0-0.75 0-1.5 0-2.313 0-0.313 0-0.5-0.063-0.438-0.438 0-1.063 0-2.125 0-3.188-0.063-0.938 0.625-1.625 1-2.438 0.063-0.188 0.25-0.125 0.438-0.125 0.875 0 1.813 0 2.688 0 0.25 0 0.438 0.063 0.563 0.25 0.563 1 1 1.938 0.875 3.125-0.063 0.75 0 1.563 0 2.375zM24.125 20.125c-0.75 0.063-0.813-0.063-0.625-0.813 0.625-2.313 0.75-4.625 0.688-7 0-0.5 0.125-0.625 0.625-0.625 2.25 0.188 3.75 1.688 3.813 3.75 0 2.313-2.125 4.563-4.5 4.688zM9.813 7.625c0.25-0.188-0.063-0.313-0.188-0.438-1.063-1.125-1-2 0.188-3 0.125-0.125 0.313-0.313 0.5-0.438 0.375-0.438 0.625-0.875 0.688-1.375 0-0.75-0.563-1.75-1.125-2.063-0.063-0.063-0.188-0.125-0.313 0-0.125 0.063-0.063 0.188 0.063 0.313 0 0 0.063 0.063 0.125 0.125 1.125 1.125 1.063 2.063-0.125 3.063-0.125 0.063-0.188 0.125-0.313 0.188-1.188 1.063-1.188 2.438 0 3.5 0.188 0.125 0.313 0.313 0.5 0.125zM13.938 7.625c0.125-0.188-0.063-0.313-0.188-0.438-1.125-1.125-1.125-2 0.188-3.063 0.25-0.25 0.563-0.5 0.75-0.813s0.375-0.625 0.375-1c0-0.813-0.438-1.375-0.938-1.875-0.125-0.125-0.313-0.313-0.438-0.125-0.25 0.188 0 0.313 0.125 0.438 1.125 1.125 1.063 2.063-0.188 3.063-0.063 0.063-0.125 0.125-0.25 0.188-1.125 1.063-1.125 2.5 0.063 3.5 0.125 0.125 0.313 0.313 0.5 0.125zM17.625 7.625c0.063 0.063 0.188 0.125 0.313 0s0.063-0.25-0.063-0.313c-0.063-0.063-0.125-0.125-0.188-0.25-1-1-0.938-1.875 0.125-2.813 0.25-0.188 0.5-0.375 0.75-0.625 1.063-1.188 0.438-2.563-0.5-3.313-0.125-0.063-0.25-0.125-0.375 0-0.063 0.125 0 0.25 0.063 0.313s0.188 0.188 0.25 0.25c0.938 1 0.875 1.938-0.188 2.813-0.125 0.188-0.313 0.313-0.5 0.438-0.438 0.438-0.75 0.938-0.75 1.75 0 0.625 0.438 1.188 1.063 1.75z"></path>
</svg>
