<?xml version="1.0" encoding="utf-8"?>
<!DOCTYPE svg PUBLIC "-//W3C//DTD SVG 1.1//EN" "http://www.w3.org/Graphics/SVG/1.1/DTD/svg11.dtd">
<svg version="1.1" xmlns="http://www.w3.org/2000/svg" xmlns:xlink="http://www.w3.org/1999/xlink" width="32" height="32" viewBox="0 0 32 32">
<path d="M31 27.875c-0.188-0.375-0.125-0.563 0.125-0.813 1.125-1.125 1.188-2.938 0.063-4.063-0.375-0.313-0.438-0.625-0.438-1.063-0.125-4.813-2.188-8.625-6-11.5-2.25-1.75-4.813-2.625-7.688-2.875-0.563 0-0.5-0.188-0.313-0.563 0.188-0.25 0.375-0.5 0.625-0.688 0.25-0.125 0.25-0.313 0.063-0.563-0.688-1.188-1.375-2.438-2.063-3.625-0.188-0.313-0.375-0.375-0.688-0.188-2.438 1.438-4.875 2.875-7.375 4.313-0.25 0.125-0.313 0.25-0.188 0.563 0.25 0.875 0 1.563-0.688 1.938-0.625 0.375-1.375 0.25-1.938-0.375-0.25-0.25-0.375-0.25-0.625-0.125-0.5 0.313-1 0.625-1.563 0.875-0.438 0.25-0.438 0.5-0.188 0.875 0.625 1 1.25 2.063 1.875 3.125 0.125 0.25 0.188 0.438 0 0.688-1.813 2.5-2.688 5.375-2.688 8.438 0 0.313-0.125 0.5-0.375 0.688-0.938 0.938-1.313 2.438-0.5 3.438 0.75 0.875 0.625 1.5 0.188 2.375-0.5 0.938 0.125 1.75 1.125 1.813 0.188 0 0.375 0 0.563 0 4.563 0 9.125 0 13.688 0 0 0 0 0 0 0 4.563 0 9.125 0 13.688 0 0.25 0 0.438 0 0.688 0 0.938-0.125 1.375-0.875 1.063-1.75-0.125-0.313-0.25-0.688-0.438-0.938zM17.125 8c2.75 0.25 5.25 1.125 7.438 2.813 3.563 2.75 5.5 6.375 5.75 10.875 0 0.25 0.25 0.563-0.188 0.625-0.5 0.063-0.813-0.25-0.813-0.625 0-0.125 0-0.188 0-0.25 0.063-1.563-1-2.75-2.625-2.938-0.313-0.063-0.438 0-0.438-0.438 0-1.438-1.125-2.875-2.875-2.875-0.375 0.063-0.5 0-0.5-0.438 0-0.813-0.375-1.5-1-1.938-0.563-0.375-0.813-0.938-1.125-1.438s-0.625-1-0.938-1.563c-0.125-0.313-0.313-0.375-0.625-0.188-1.063 0.375-2.125-0.063-2.5-1.063-0.188-0.5-0.188-0.563 0.438-0.563zM3.063 10.688c-0.625-1.063-0.625-1.063 0.438-1.75 0.375-0.25 0.625-0.313 1.063 0.063 0.563 0.5 1.5 0.5 2.125 0.125 0.75-0.438 1.125-1.188 0.938-2.063-0.063-0.375 0-0.5 0.25-0.688 2.25-1.25 4.438-2.563 6.688-3.813 0.313-0.25 0.438-0.188 0.625 0.125 0.563 1 1.125 2 1.688 2.938 0.188 0.25 0.188 0.375-0.063 0.563-0.75 0.875-0.875 1.938-0.375 2.875 0.563 0.875 1.5 1.313 2.625 1.063 0.188-0.063 0.375-0.125 0.5 0.063 0.375 0.625 0.75 1.313 1.125 2-0.625 0-1.125-0.063-1.625 0.125-0.25 0.125-0.25-0.125-0.313-0.25-0.563-1.25-1.5-2-2.75-1.938-1.313 0.063-2.25 0.688-2.688 1.938-0.125 0.375-0.313 0.25-0.563 0.188-1.375-0.375-2.813 0.313-3.375 1.625-0.063 0.188-0.188 0.313-0.125 0.5 0.063 0.75-0.375 0.875-0.938 0.875-0.625 0.063-1.188 0.25-1.625 0.75-0.313 0.375-0.5 0.25-0.688-0.125-1-1.75-2-3.438-2.938-5.188zM4.438 13.938c0.563 0.938 1.063 1.813 1.625 2.625 0.125 0.25-0.063 0.438-0.063 0.625 0 0.938-0.375 1.313-1.375 1.5-1.125 0.25-1.938 1.375-1.875 2.563 0.063 0.875-0.25 1.063-1.063 1.063 0.063-3.063 0.938-5.813 2.75-8.375zM0.625 24.125c0.375-0.875 1.063-1.438 2.063-1.5 0.563-0.063 0.688-0.125 0.563-0.688-0.438-1.5 0.75-3 2.313-3 0.75 0 0.75 0 0.625-0.75-0.188-1.375 1.063-2.625 2.563-2.625 0.75 0.063 0.75 0.063 0.813-0.688 0.063-1.625 1.875-2.75 3.375-2.063 0.438 0.188 0.625 0.125 0.75-0.375 0.25-1.188 1.25-1.938 2.375-1.938 1.125 0.063 2.125 0.875 2.375 2 0.063 0.438 0.125 0.5 0.563 0.313 1.75-0.75 3.563 0.438 3.563 2.375 0 0.313 0 0.438 0.375 0.375 0.688-0.063 1.313 0.125 1.875 0.5 0.875 0.563 1.063 1.375 0.938 2.313-0.063 0.438 0.063 0.563 0.563 0.563 1.75-0.063 2.938 1.375 2.5 3.063-0.125 0.5 0 0.563 0.438 0.625 1 0 1.75 0.563 2.125 1.5 0.375 0.875 0.188 1.75-0.438 2.5-0.25 0.313-0.375 0.375-0.625 0-1.813-3.188-4-6.063-6.625-8.625-1.938-1.875-4-3.563-6.438-4.813-0.875-0.438-1.625-0.438-2.5 0-2 1.063-3.75 2.375-5.375 3.875-3.125 2.813-5.688 6-7.75 9.625-0.188 0.375-0.313 0.188-0.5 0-0.625-0.75-0.813-1.625-0.5-2.563zM30.25 30.188c-0.25 0-0.563 0-0.813 0-4.5 0-9 0-13.438 0 0 0 0 0 0 0-4.688 0-9.313 0-13.938 0-1.063 0-1.438-0.625-0.938-1.625 2.5-5.063 6-9.313 10.438-12.813 1.125-0.938 2.438-1.688 3.75-2.375 0.5-0.188 0.938-0.188 1.438 0 1.688 0.813 3.188 1.875 4.625 3.125 3.938 3.313 7.063 7.25 9.438 11.875 0.063 0.188 0.188 0.375 0.25 0.563 0.188 0.688-0.125 1.188-0.813 1.25zM22.875 21.813c-0.188-0.188-0.375 0.063-0.5 0.188-1.688 1.688-3.375 3.375-5.063 5.063-0.125 0.125-0.188 0.188-0.25 0.313-0.125 0.188-0.063 0.25 0.125 0.313 0.188 0 0.25-0.188 0.375-0.25 1.75-1.75 3.438-3.438 5.125-5.125 0.125-0.125 0.375-0.313 0.188-0.5zM25.625 22.875c-0.188-0.063-0.313 0.063-0.375 0.188-1.75 1.75-3.5 3.438-5.188 5.188-0.125 0.125-0.438 0.25-0.188 0.5 0.188 0.188 0.313-0.063 0.438-0.188 1.75-1.75 3.438-3.438 5.188-5.188 0.063-0.063 0.188-0.188 0.25-0.313-0.063-0.063-0.063-0.125-0.125-0.188zM12.688 8.875c0.75 0 1.313-0.625 1.375-1.375 0-0.75-0.563-1.375-1.313-1.375-0.813 0-1.438 0.625-1.438 1.375 0 0.688 0.625 1.375 1.375 1.375zM12.688 6.563c0.5 0 0.938 0.438 0.938 0.938s-0.438 0.938-0.938 0.938c-0.563-0.063-0.938-0.5-0.938-1 0.063-0.5 0.438-0.875 0.938-0.875zM7.75 13.688c0.625 0 1.188-0.563 1.188-1.188 0-0.688-0.563-1.25-1.188-1.25s-1.188 0.563-1.188 1.25c0 0.625 0.5 1.188 1.188 1.188zM7.75 11.688c0.5 0.063 0.688 0.313 0.75 0.75 0 0.438-0.313 0.813-0.75 0.813-0.5-0.063-0.75-0.313-0.75-0.75-0.063-0.438 0.313-0.813 0.75-0.813z"></path>
</svg>
