<?xml version="1.0" encoding="utf-8"?>
<!DOCTYPE svg PUBLIC "-//W3C//DTD SVG 1.1//EN" "http://www.w3.org/Graphics/SVG/1.1/DTD/svg11.dtd">
<svg version="1.1" xmlns="http://www.w3.org/2000/svg" xmlns:xlink="http://www.w3.org/1999/xlink" width="32" height="32" viewBox="0 0 32 32">
<path d="M31.313 5.875c-0.313 0.063-0.563 0.375-0.938 0 0.125-0.375 0.375-0.75 0.5-1.188 0.188-0.375 0.5-0.75 0.125-1.125s-0.813-0.188-1.188 0c-1.625 1.063-3 1.125-4.938 0-4.125-2.438-9.125 0.563-9.875 5.688-0.125 1.375-0.625 1.375-1.75 1.188-3.813-0.813-6.938-2.75-9.563-5.625-1-1.125-1.438-1-1.938 0.375-0.75 2-0.688 4 0.25 5.875 0.125 0.25 0.688 0.75 0 0.813-1.188 0.188-0.875 0.938-0.75 1.688 0.25 1.5 0.875 2.875 2 4 0.25 0.25 0.75 0.438 0.5 0.875-0.563 1.063 0.125 1.75 0.625 2.5 1.063 1.688 2.688 2.688 4.688 3.063 0.5 0.125 1.188 0.25 1.313-0.375 0.125-0.813-0.625-0.75-1.125-0.875-0.125 0-0.313 0-0.438 0-1.688-0.438-3-1.313-3.813-3 0.313-0.063 0.5-0.063 0.625-0.125 0.625-0.063 1.5 0 1.625-0.688 0.188-0.75-0.75-0.75-1.25-0.938-1.938-0.875-3.125-2.313-3.5-4.563 0.313 0.063 0.5 0.125 0.688 0.188 0.688 0.063 1.5 0.625 1.875-0.188 0.375-0.75-0.563-0.938-0.938-1.313-1.688-1.813-2.188-4.438-1.125-6.125 4.625 4.25 7.688 5.125 10.5 5.625 2.625 0.5 2.625 0.5 2.75-2.125 0.125-4.375 5.063-7.063 8.625-4.625 1.25 0.875 2.375 1.188 3.75 0.625 0.063 0.063 0.125 0.125 0.188 0.188-0.125 0.188-0.25 0.375-0.375 0.563-0.375 0.438-1.375 0.563-1 1.375s1.188 0.125 1.75 0.188c0.063 0 0.125 0.125 0.375 0.25-2.188 0.875-1.938 2.75-1.938 4.438 0 0.313-0.063 0.563-0.125 0.875-1.25 7.5-6.938 14.625-16.625 15.125-2.25 0.125-4.5-0.313-6.813-1.25 1.313-0.375 2.313-0.625 3.375-0.938 0.438-0.125 0.875-0.313 0.75-0.813-0.188-0.688-0.688-0.438-1.125-0.313-1.875 0.75-3.813 0.688-5.75 0.5-0.438 0-1.063-0.375-1.25 0.313-0.25 0.688 0.438 0.813 0.875 1.063 4.188 2.563 8.75 3.188 13.5 2.125 7.625-1.688 13.438-8.313 14.25-16.063 0.188-1.938 0.438-3.75 2.25-5 0.375-0.313 0.688-0.875 0.938-1.375s0.063-0.875-0.563-0.875z"></path>
</svg>
