<?xml version="1.0" encoding="utf-8"?>
<!DOCTYPE svg PUBLIC "-//W3C//DTD SVG 1.1//EN" "http://www.w3.org/Graphics/SVG/1.1/DTD/svg11.dtd">
<svg version="1.1" xmlns="http://www.w3.org/2000/svg" xmlns:xlink="http://www.w3.org/1999/xlink" width="32" height="32" viewBox="0 0 32 32">
<path d="M31.125 15.813c-1.063-4.813-4.188-7.938-8.625-9.875-0.438-0.188-0.938-0.375-1.438-0.563 0.438-0.563 0.813-1.063 1.25-1.563 0.125-0.125 0.25-0.25 0.188-0.438-0.125-0.188-0.375-0.063-0.5-0.063-1.313 0.188-2.688 0.375-4 0.688-0.5 0.063-0.563-0.063-0.563-0.563 0-0.813 0-1.688 0-2.563 0-0.438-0.063-0.688-0.625-0.625-0.563 0-1.188 0-1.75 0-0.375-0.063-0.563 0.125-0.563 0.5 0.063 0.938 0 1.875 0.063 2.813 0 0.375-0.125 0.5-0.5 0.438-1.313-0.25-2.688-0.5-4-0.688-0.188 0-0.438-0.188-0.563 0.063s0.125 0.375 0.188 0.563c0.438 0.438 0.813 0.938 1.188 1.438-2.813 1.063-4.125 1.75-5.813 3.313-3.5 3.125-5.125 7.063-4.375 11.75 0.563 3.813 2.625 6.688 5.688 8.813 3.688 2.625 7.813 3.438 12.188 2.813 4.125-0.625 7.5-2.438 10.063-5.688 2.5-3.125 3.375-6.688 2.5-10.563zM10.188 3.813c1.438 0.188 2.688 0.438 3.938 0.625 0.813 0.125 0.813 0.125 0.813-0.625 0.063-0.875 0.063-1.75 0-2.625 0-0.375 0.125-0.5 0.5-0.5 1.563 0 1.563-0.063 1.563 1.5 0 0.563 0 1.125 0 1.688 0 0.688 0.063 0.688 0.75 0.563 1.313-0.188 2.563-0.375 4-0.625-0.688 0.813-1.25 1.563-1.875 2.313-0.375 0.375-0.375 0.625 0.063 1 0.75 0.625 1.5 1.313 2.313 2.125-0.875-0.063-1.625-0.125-2.313-0.125-0.625-0.063-1.313-0.063-1.938-0.188-0.313 0-0.5 0.125-0.625 0.438-0.438 1-0.875 2-1.375 3.125-0.375-0.75-0.688-1.438-0.938-2.125-0.688-1.438-0.688-1.438-2.25-1.375-1 0.125-1.938 0.188-2.938 0.25 0-0.063 0-0.063-0.063-0.125 0.75-0.688 1.5-1.375 2.25-2.063 0.375-0.313 0.375-0.563 0.063-0.938-0.625-0.688-1.188-1.438-1.938-2.313zM24.25 29.625c-2.563 1.438-5.313 2.188-9.188 2.188-4.438-0.188-9-2.125-12.063-6.688-3.625-5.313-2.313-12.375 2.813-16.5 1.5-1.25 3.188-2.125 5-2.75 0.563-0.188 0.688 0.25 0.938 0.563s-0.125 0.438-0.313 0.563c-0.75 0.75-1.5 1.438-2.25 2.125-0.188 0.125-0.375 0.25-0.313 0.5 0.125 0.188 0.375 0.125 0.563 0.063 1.375-0.063 2.813-0.125 4.188-0.25 0.375-0.063 0.563 0.063 0.688 0.375 0.375 1 0.813 1.938 1.313 2.938 0.063 0.188 0.063 0.5 0.375 0.5s0.313-0.313 0.375-0.563c0.438-0.938 0.875-1.938 1.313-2.875 0.125-0.313 0.313-0.438 0.625-0.375 1.375 0.125 2.813 0.188 4.188 0.25 0.188 0.063 0.5 0.125 0.563-0.125 0.125-0.25-0.188-0.375-0.313-0.5-0.75-0.688-1.5-1.375-2.313-2.125-0.125-0.125-0.5-0.25-0.188-0.5 0.188-0.25 0.25-0.75 0.875-0.563 2.813 0.938 5.313 2.5 7.125 4.875 4.875 6.25 3.063 14.75-4 18.875zM6.125 24c-1.063-1.438-1.625-3.063-1.75-4.875-0.188-2.188 0.438-4.25 1.688-6.063 0.125-0.188 0.375-0.375 0.063-0.563-0.188-0.125-0.313 0.188-0.438 0.313-1.188 1.688-1.75 3.625-1.813 5.375 0 2.5 0.688 4.438 1.938 6.25 0.125 0.063 0.188 0.188 0.25 0.313 0.125 0.063 0.25 0.188 0.375 0.063s0.063-0.25 0-0.375c-0.125-0.125-0.188-0.25-0.313-0.438z"></path>
</svg>
