<?xml version="1.0" encoding="utf-8"?>
<!DOCTYPE svg PUBLIC "-//W3C//DTD SVG 1.1//EN" "http://www.w3.org/Graphics/SVG/1.1/DTD/svg11.dtd">
<svg version="1.1" xmlns="http://www.w3.org/2000/svg" xmlns:xlink="http://www.w3.org/1999/xlink" width="32" height="32" viewBox="0 0 32 32">
<path d="M26.375 1.688c0 0 0 0 0 0-1.563 0-3 0.563-4.375 1.625-2.063 1.563-3.375 3.813-4.063 6.813 0 0.25 0 0.438 0.125 0.563 0.063 0.063 0.25 0.063 0.5 0 0.313-0.063 0.688-0.188 1.063-0.25 1-0.188 1.75 0.313 2 1.313 0.188 1.188 0.063 2.188-0.375 3.125-0.5 0.875-1.125 1.813-2 2.938-0.438 0.563-0.938 1.188-1.563 1.813l-0.188 0.25-0.25-0.313c-0.313-0.375-0.5-0.813-0.625-1.188-0.5-1.5-0.75-3.063-1-4.625l-0.25-1.5c-0.25-1.688-0.5-3.438-1-5.063-0.375-1.25-0.813-2.5-1.75-3.5-1.063-1.125-2.25-1.438-3.625-0.938-0.625 0.188-1.188 0.438-1.625 0.688-2.438 1.438-4.688 3.438-7.25 6.438-0.125 0.125-0.188 0.313 0 0.563 0.5 0.75 0.938 1.375 1.438 1.938 0.188 0.25 0.313 0.313 0.438 0.375 0.063-0.063 0.25-0.125 0.438-0.313 0.5-0.438 0.938-0.75 1.5-1 0.188-0.063 0.375-0.063 0.5-0.063 0.375 0 0.625 0.125 0.875 0.5 0.25 0.313 0.375 0.625 0.5 0.938 0.75 1.75 1.188 3.5 1.625 5.188l0.313 1.375c0.5 2 1 4 1.688 5.938 0.438 1.188 1 2.625 1.938 3.813 1 1.188 2.125 1.75 3.5 1.563 1.063-0.125 2.125-0.438 3.188-1.063 1.688-0.875 3.188-2.188 4.938-4.125 2.063-2.313 3.938-4.938 6.125-8.563 1.375-2.25 2.25-4.438 2.688-6.75 0.313-1.813 0.25-3.25-0.188-4.625-0.688-2.313-2.813-3.875-5.25-3.875zM30.938 10.25c-0.375 2.188-1.188 4.188-2.5 6.25-1.563 2.625-3.75 6-6.5 8.938-1.625 1.75-3.125 2.875-4.688 3.688-0.938 0.5-1.875 0.75-2.813 0.75-0.063 0.063-0.125 0.063-0.125 0.063-0.625 0-1.188-0.25-1.75-0.75-0.813-0.75-1.25-1.625-1.625-2.438-0.938-2-1.5-4.125-2-6.188-0.188-0.625-0.313-1.188-0.5-1.813-0.375-1.688-0.813-3.375-1.375-5-0.25-0.688-0.5-1.438-0.875-2.063-0.688-1.188-1.688-1.438-2.875-0.813-0.375 0.125-0.625 0.313-0.813 0.5-0.063 0.063-0.188 0.188-0.438 0.188-0.188-0.063-0.313-0.25-0.375-0.313s-0.125-0.125-0.188-0.25c-0.188-0.188-0.438-0.5-0.438-0.75 0-0.375 0.25-0.625 0.5-0.875 0.125-0.063 0.188-0.125 0.25-0.188 1.813-2 3.5-3.438 5.188-4.563 0.75-0.5 1.438-0.875 2.125-1.125 1.188-0.375 2.188-0.125 3 0.813 0.688 0.813 1.063 1.813 1.375 2.75 0.5 1.563 0.75 3.188 1 4.688v0.125c0.063 0.5 0.188 1 0.25 1.5 0.25 1.563 0.5 3.25 0.938 4.813 0.25 0.75 0.5 1.313 0.813 1.75 0.125 0.125 0.25 0.313 0.375 0.438 0.688 0.563 0.813 0.438 1.25 0 1.5-1.625 2.688-3.188 3.688-4.875 0.5-0.813 0.75-1.75 0.688-2.813v0c0.063-0.375 0-0.75-0.125-1.188-0.188-0.75-0.813-2-2.625-1.875-0.25 0-0.438 0-0.625-0.188-0.125-0.188-0.063-0.375 0.063-0.625 0.75-2.125 1.875-3.75 3.375-4.875 1.25-0.938 2.5-1.438 3.813-1.438 0 0 0 0 0 0 2.125 0 3.813 1.25 4.438 3.313 0.438 1.25 0.5 2.688 0.125 4.438z"></path>
</svg>
