<?xml version="1.0" encoding="utf-8"?>
<!DOCTYPE svg PUBLIC "-//W3C//DTD SVG 1.1//EN" "http://www.w3.org/Graphics/SVG/1.1/DTD/svg11.dtd">
<svg version="1.1" xmlns="http://www.w3.org/2000/svg" xmlns:xlink="http://www.w3.org/1999/xlink" width="32" height="32" viewBox="0 0 32 32">
<path d="M29.563 14.563h-27.125c-1.375 0-2.438 1.125-2.438 2.438v2.563c0.063 0 0.063 0 0.125 0 0.25 0 0.5 0.063 0.75 0.125v-2.688c0-0.875 0.688-1.563 1.563-1.563h27.125c0.875 0 1.563 0.688 1.563 1.563v11.563c0 0.875-0.688 1.563-1.563 1.563h-27.125c-0.875 0-1.563-0.688-1.563-1.563v-3.5c-0.25 0.063-0.5 0.063-0.75 0.063-0.063 0-0.063 0-0.125 0v3.438c0 1.375 1.063 2.438 2.438 2.438h27.125c1.375 0 2.438-1.063 2.438-2.438v-11.563c0-1.313-1.063-2.438-2.438-2.438zM10.375 6.938v5.438c0 0.25 0.125 0.375 0.5 0.375h0.063c0.313 0 0.5-0.125 0.5-0.375v-5.375l2.5-5c0.063-0.188 0.125-0.25 0.125-0.313 0-0.188-0.188-0.25-0.5-0.25s-0.563 0.063-0.625 0.188l-2 4-2-3.938c-0.063-0.188-0.25-0.25-0.5-0.25h-0.125c-0.375 0-0.563 0.063-0.563 0.25 0 0.063 0.063 0.188 0.125 0.313zM13 8.563c0 1.375 0.25 2.438 0.688 3.188 0.5 0.688 1.188 1.063 2.063 1.063 0.938 0 1.625-0.375 2.063-1.063 0.438-0.75 0.688-1.813 0.688-3.188 0-1.438-0.25-2.5-0.688-3.25-0.5-0.75-1.188-1.125-2.063-1.125s-1.563 0.375-2.063 1.125c-0.438 0.75-0.688 1.813-0.688 3.25zM14.438 6.125c0.313-0.5 0.688-0.75 1.313-0.75 0.563 0 1 0.25 1.25 0.75 0.313 0.5 0.438 1.313 0.438 2.375s-0.125 1.875-0.438 2.375c-0.25 0.5-0.688 0.75-1.25 0.75-0.625 0-1-0.25-1.313-0.75-0.25-0.5-0.375-1.313-0.375-2.375s0.125-1.875 0.375-2.375zM21.375 12.813c0.688 0 1.25-0.375 1.813-1.188 0 0 0 0.063 0 0.188s0.063 0.188 0.063 0.25c0 0 0 0.063 0 0.188 0.063 0.063 0.063 0.125 0.063 0.188s0.063 0.125 0.063 0.125 0.063 0.125 0.125 0.125c0 0.063 0.063 0.063 0.125 0.063 0.125 0 0.25-0.063 0.375-0.125 0.188-0.063 0.25-0.125 0.25-0.25 0-0.063-0.063-0.25-0.125-0.625 0-0.313-0.063-0.75-0.063-1.438v-5.688c0-0.25-0.125-0.375-0.438-0.375h-0.063c-0.313 0-0.5 0.125-0.5 0.375v5.875c-0.438 0.75-0.938 1.125-1.5 1.125-0.375 0-0.688-0.125-0.875-0.375-0.25-0.313-0.313-0.688-0.313-1.188v-5.438c0-0.25-0.188-0.375-0.5-0.375h-0.063c-0.313 0-0.5 0.125-0.5 0.375v5.563c0 0.813 0.188 1.5 0.563 1.938 0.313 0.438 0.813 0.688 1.5 0.688zM10.313 17.5h-5.688c-0.188 0-0.25 0.125-0.25 0.438v0.25c0 0.313 0.063 0.5 0.25 0.5h2.313v9.438c0 0.25 0.188 0.375 0.5 0.375h0.125c0.313 0 0.438-0.125 0.438-0.375v-9.438h2.313c0.188 0 0.25-0.188 0.25-0.5v-0.25c0-0.313-0.063-0.438-0.25-0.438zM10.75 20.25h-0.063c-0.313 0-0.5 0.125-0.5 0.313v5.438c0 0.813 0.188 1.438 0.563 1.875s0.875 0.688 1.563 0.688c0.625 0 1.25-0.375 1.813-1.188 0 0.063 0 0.125 0 0.188 0 0.125 0.063 0.188 0.063 0.25 0 0 0 0.125 0.063 0.188 0 0.063 0 0.125 0 0.188 0.063 0.063 0.063 0.125 0.063 0.125 0.063 0.063 0.063 0.125 0.125 0.125 0 0 0.063 0.063 0.188 0.063 0.063 0 0.188-0.063 0.375-0.125 0.125-0.063 0.188-0.125 0.188-0.25 0 0 0-0.25-0.063-0.625-0.063-0.25-0.063-0.75-0.063-1.375v-5.563c0-0.188-0.188-0.313-0.5-0.313h-0.063c-0.313 0-0.5 0.125-0.5 0.313v5.75c-0.438 0.75-0.938 1.125-1.5 1.125-0.438 0-0.75-0.188-0.938-0.438s-0.313-0.625-0.313-1.125v-5.313c0-0.188-0.188-0.313-0.5-0.313zM16.938 16.688h-0.063c-0.313 0-0.438 0.125-0.438 0.313v11.125c0 0.25 0.125 0.375 0.313 0.375h0.063c0.188 0 0.313-0.063 0.375-0.188l0.188-0.938c0.563 0.813 1.188 1.188 1.938 1.188 0.688 0 1.313-0.375 1.688-1.188 0.438-0.75 0.688-1.75 0.688-2.938v-0.188c0-1.25-0.25-2.25-0.688-3-0.5-0.688-1.063-1.063-1.75-1.063s-1.25 0.25-1.813 0.813v-4c0-0.188-0.188-0.313-0.5-0.313zM18.938 21.313h0.063c0.5 0 0.938 0.313 1.188 0.813s0.375 1.188 0.375 2.125c0 2.125-0.5 3.188-1.563 3.188-0.5 0-1.063-0.375-1.563-1.125v-4.25c0.438-0.5 0.938-0.75 1.5-0.75zM27.5 24.625c0.063-0.125 0.125-0.25 0.125-0.375 0-2.688-0.875-4.063-2.563-4.063-0.938 0-1.563 0.375-2.063 1.063-0.5 0.75-0.75 1.813-0.75 3.188s0.25 2.438 0.75 3.125c0.5 0.625 1.25 1 2.25 1 0.563 0 1.125-0.125 1.563-0.375 0.438-0.188 0.625-0.438 0.625-0.625 0-0.125 0-0.25-0.125-0.5-0.125-0.188-0.188-0.313-0.25-0.313s-0.125 0.063-0.313 0.188c-0.438 0.313-0.938 0.5-1.5 0.5-0.625 0-1.063-0.188-1.375-0.625-0.313-0.375-0.438-1.063-0.5-1.938h3.875c0.063 0 0.125-0.063 0.25-0.25zM23.375 23.75c0.063-1.625 0.625-2.438 1.688-2.438 1 0 1.5 0.813 1.5 2.438z"></path>
</svg>
