<?xml version="1.0" encoding="utf-8"?>
<!DOCTYPE svg PUBLIC "-//W3C//DTD SVG 1.1//EN" "http://www.w3.org/Graphics/SVG/1.1/DTD/svg11.dtd">
<svg version="1.1" xmlns="http://www.w3.org/2000/svg" xmlns:xlink="http://www.w3.org/1999/xlink" width="32" height="32" viewBox="0 0 32 32">
<path d="M30.188 13.5c-2.375-2.75-5.188-5.063-8.375-6.938-5.5-3.313-11.563-5.125-17.813-6.313-0.75-0.125-1.438 0.125-1.938 0.688-0.875 1-1.25 2.25-1.063 3.625 0.125 0.75 0.375 1.375 1.063 1.75 0.438 0.188 0.5 0.5 0.5 0.875 0 5.5 0 11 0 16.5 0 2.25-0.063 4.563 0 6.813 0 1.125 0.75 1.875 1.75 1.75 0.375-0.063 0.688-0.313 1.063-0.5 6.875-4.313 13.75-8.625 20.625-12.938 0.25-0.188 0.438-0.25 0.688-0.188 0.563 0.188 1.125 0.063 1.688-0.063 1.188-0.188 2-0.938 2.438-2.063 0.5-1.125 0.125-2.125-0.625-3zM22.25 20.438c-1.813 1.125-3.625 2.25-5.438 3.375-0.375 0.25-0.438 0.125-0.625-0.188-1-2.375 0.75-5.188 3.438-5 1.125-0.063 2 0.438 2.688 1.25 0.25 0.25 0.25 0.375-0.063 0.563zM25.563 18.375c-0.75 0.438-1.438 0.875-2.125 1.313-0.375 0.25-0.5 0-0.625-0.188-1.313-1.563-3.438-2-5.188-1.125-2.063 1.063-2.938 3.5-1.938 5.625 0.188 0.313 0.125 0.438-0.188 0.625-3.563 2.25-7.125 4.5-10.75 6.75-0.375 0.25-0.688 0.375-1.125 0.125-0.375-0.25-0.438-0.625-0.438-1.063 0-2.063 0-4.125 0-6.188 0 0 0 0 0 0 0-2.125 0-4.188 0-6.313 0-0.25 0-0.375 0.313-0.438 1.938-0.375 3.25-1.75 3.5-3.438 0.375-2.375-1.063-4.5-3.375-4.938-0.375-0.063-0.438-0.188-0.438-0.5 0-0.5 0-1 0-1.5-0.063-0.438 0.125-0.5 0.5-0.5 2.938 0.063 5.75 0.563 8.5 1.563 4.438 1.5 8.25 4 11.5 7.375 0.688 0.688 1.313 1.5 1.938 2.25 0.25 0.25 0.25 0.375-0.063 0.563zM3.188 10.125c0-0.313 0.063-0.438 0.438-0.375 1.375 0.313 2.563 1.5 2.813 2.875 0.25 1.5-0.375 2.938-1.688 3.75-0.375 0.188-0.75 0.375-1.188 0.5-0.313 0.063-0.375-0.063-0.375-0.375 0-1.063 0-2.125 0-3.188 0 0 0 0 0 0 0-1.063 0-2.125 0-3.188zM30.188 16.313c-0.5 1.188-1.438 1.75-2.813 1.75-0.875 0.313-1.188-0.563-1.688-1.125-4.688-5.688-10.625-9.25-17.938-10.563-1.5-0.25-3.063-0.375-4.625-0.438-0.813 0-1.25-0.313-1.438-1.125-0.25-1.063-0.063-2.125 0.563-3.125 0.438-0.688 1.125-0.938 1.938-0.75 6.563 1.25 12.75 3.25 18.375 6.813 2.563 1.625 4.813 3.563 6.813 5.813 0.75 0.75 1.375 1.563 0.813 2.75zM7.5 21.875c-1.313-0.063-2.375 1.063-2.375 2.313 0.063 1.25 1.063 2.25 2.375 2.25s2.25-1 2.25-2.25c0-1.313-1-2.313-2.25-2.313zM7.5 25.875c-0.938 0-1.688-0.75-1.688-1.688 0-1 0.688-1.688 1.625-1.688s1.688 0.688 1.688 1.625c0 0.938-0.688 1.688-1.625 1.75zM12.75 15.813c0-0.188-0.125-0.375-0.375-0.313-0.813 0.25-1.688 0.25-2.5 0.5-0.188 0.063-0.375 0.188-0.313 0.375s0.25 0.25 0.563 0.188c0.688-0.125 1.563-0.25 2.375-0.438 0.188 0 0.313-0.125 0.25-0.313zM12.5 20.313c-0.25 0-0.375 0.188-0.375 0.375 0 0.75 0 1.438 0 2.188 0 0.188 0.125 0.375 0.313 0.375 0.25 0 0.313-0.188 0.313-0.375 0.063-0.375 0-0.688 0-1.063 0 0 0 0 0 0 0-0.375 0.063-0.75 0-1.125 0-0.188-0.063-0.375-0.25-0.375zM7.313 27.938c-0.813 0.188-1.688 0.375-2.5 0.563-0.188 0.063-0.313 0.188-0.25 0.375s0.188 0.25 0.438 0.188c0.813-0.125 1.625-0.313 2.5-0.5 0.188-0.063 0.25-0.188 0.25-0.375-0.063-0.25-0.25-0.25-0.438-0.25zM17 14.875c0-0.375 0-0.75 0-1.188 0-0.188-0.125-0.313-0.313-0.313s-0.313 0.063-0.313 0.25c0 0.813 0 1.563 0 2.375 0 0.188 0.125 0.25 0.313 0.313 0.25 0 0.313-0.188 0.313-0.375-0.063-0.375 0-0.688 0-1.063 0 0 0 0 0 0zM9.188 9.938c0.188 0.125 0.375 0 0.375-0.313 0-0.063 0-0.125-0.063-0.188-0.625-0.438-1.313-0.875-1.938-1.313-0.125-0.125-0.25 0-0.313 0.125-0.125 0.125-0.125 0.25 0 0.313 0.625 0.5 1.25 0.938 1.938 1.375z"></path>
</svg>
