<?xml version="1.0" encoding="utf-8"?>
<!DOCTYPE svg PUBLIC "-//W3C//DTD SVG 1.1//EN" "http://www.w3.org/Graphics/SVG/1.1/DTD/svg11.dtd">
<svg version="1.1" xmlns="http://www.w3.org/2000/svg" xmlns:xlink="http://www.w3.org/1999/xlink" width="32" height="32" viewBox="0 0 32 32">
<path d="M24.563 16c2.625-2.688 3.813-5.313 2.813-6.938-0.375-0.625-1.25-1.375-3.313-1.375-1.188 0-2.5 0.188-3.938 0.625-0.938-3.438-2.5-5.625-4.375-5.625-1.813 0-3.375 2.125-4.313 5.5-1.25-0.313-2.438-0.5-3.438-0.5-2.063 0-3 0.75-3.375 1.375-0.813 1.313-0.25 3.25 1.5 5.438 0.375 0.5 0.813 1 1.313 1.5-2.625 2.688-3.813 5.313-2.813 6.938 0.375 0.625 1.313 1.375 3.375 1.375 1 0 2.188-0.188 3.438-0.5 0.938 3.375 2.5 5.5 4.313 5.5 1.875 0 3.438-2.188 4.375-5.625 1.438 0.438 2.75 0.625 3.938 0.625 2.063 0 2.938-0.75 3.313-1.375 1-1.625-0.188-4.25-2.813-6.938zM24.063 8.75c0.813 0 2 0.125 2.438 0.875 0.625 1.063-0.375 3.25-2.688 5.625-0.813-0.813-1.813-1.563-2.875-2.375-0.125-1.25-0.313-2.438-0.563-3.5 1.375-0.438 2.625-0.625 3.688-0.625zM18.188 19.625c-0.688 0.438-1.438 0.875-2.188 1.25-0.75-0.375-1.438-0.813-2.188-1.25s-1.5-0.938-2.188-1.438c-0.063-0.75-0.125-1.438-0.125-2.188s0.063-1.5 0.125-2.188c0.688-0.5 1.375-0.938 2.188-1.438 0.688-0.438 1.438-0.875 2.188-1.25 0.75 0.375 1.5 0.813 2.188 1.25 0.625 0.375 1.188 0.75 1.75 1.125 0.063 0.813 0.063 1.625 0.063 2.5s0 1.688-0.063 2.5c-0.563 0.375-1.125 0.75-1.75 1.125zM19.813 19.875c-0.125 0.875-0.25 1.688-0.438 2.438-0.688-0.25-1.438-0.563-2.188-0.875 0.563-0.313 1.063-0.563 1.563-0.875 0.375-0.25 0.688-0.438 1.063-0.688zM14.813 21.438c-0.875 0.375-1.75 0.75-2.625 1-0.188-0.875-0.375-1.813-0.438-2.875 0.438 0.313 1 0.688 1.5 1s1.063 0.563 1.563 0.875zM10.5 17.313c-0.563-0.438-1.063-0.875-1.563-1.313 0.5-0.438 1-0.875 1.563-1.313 0 0.438-0.063 0.875-0.063 1.313s0.063 0.875 0.063 1.313zM11.75 12.438c0.063-1.063 0.25-2 0.438-2.875 0.875 0.25 1.75 0.625 2.625 1-0.5 0.313-1.063 0.563-1.563 0.875-0.5 0.375-1.063 0.688-1.5 1zM17.188 10.563c0.75-0.313 1.5-0.625 2.188-0.875 0.188 0.75 0.313 1.563 0.438 2.438-0.375-0.25-0.688-0.438-1.063-0.688-0.5-0.313-1-0.563-1.563-0.875zM21.063 14.313c0.688 0.563 1.375 1.125 2 1.688-0.625 0.563-1.313 1.125-2 1.688 0-0.563 0-1.125 0-1.688s0-1.125 0-1.688zM15.75 3.75c1.25 0 2.5 1.813 3.375 4.875-1 0.375-2.063 0.813-3.125 1.313-1.188-0.563-2.375-1.063-3.563-1.438 0.875-2.938 2.125-4.75 3.313-4.75zM5.5 9.625c0.5-0.75 1.625-0.875 2.5-0.875s2 0.188 3.188 0.5c-0.313 1.188-0.5 2.563-0.625 4-0.875 0.688-1.688 1.313-2.375 2-0.438-0.438-0.875-0.938-1.25-1.375-1.438-1.813-1.938-3.375-1.438-4.25zM8 23.25c-0.875 0-2-0.125-2.5-0.875-0.625-1.063 0.375-3.25 2.688-5.625 0.688 0.688 1.5 1.313 2.375 2 0.125 1.438 0.313 2.813 0.625 4-1.188 0.313-2.313 0.5-3.188 0.5zM15.75 28.25c-1.188 0-2.438-1.813-3.313-4.75 1.188-0.375 2.375-0.875 3.563-1.438 1.063 0.5 2.125 0.938 3.125 1.313-0.875 3.063-2.125 4.875-3.375 4.875zM26.5 22.375c-0.438 0.75-1.625 0.875-2.438 0.875-1.063 0-2.313-0.188-3.688-0.625 0.25-1.063 0.438-2.25 0.563-3.5 1.063-0.813 2.063-1.563 2.875-2.375 2.313 2.375 3.313 4.563 2.688 5.625z"></path>
</svg>
