<?xml version="1.0" encoding="utf-8"?>
<!DOCTYPE svg PUBLIC "-//W3C//DTD SVG 1.1//EN" "http://www.w3.org/Graphics/SVG/1.1/DTD/svg11.dtd">
<svg version="1.1" xmlns="http://www.w3.org/2000/svg" xmlns:xlink="http://www.w3.org/1999/xlink" width="32" height="32" viewBox="0 0 32 32">
<path d="M15.063 18.125l15.625 0.125-0.875-0.875c-0.063-0.063-6.688-6.563-15.563-0.313l-2.813-4.125c0.375-0.313 0.688-0.688 0.938-1.125 0.938-1.813 0.25-4-1.5-4.938-1.813-1-4.063-0.313-5 1.5-0.938 1.75-0.25 4 1.5 4.938 1.063 0.563 2.188 0.563 3.188 0.125l2.5 3.625h-4.25c-0.125-1.125-0.813-2.25-1.938-2.813-1.75-0.938-4-0.25-4.938 1.5-0.938 1.813-0.313 4 1.5 5 1.813 0.938 4 0.25 5-1.5 0.188-0.375 0.313-0.75 0.375-1.125h4.875c-0.125 2.625 0.375 4.75 1.125 6.375h-1.75v1.063h3.125v-0.5h0.063c0-0.063-0.063-0.063-0.063-0.125v-0.438h-0.25c-0.625-1.313-1.125-2.938-1.188-4.938l3.375 4.938h-0.875v1.063h3.125v-1.063h-1l-4.313-6.375zM26.938 16.625c0.375 0.188 0.688 0.375 1 0.563l-11.875-0.063c4.75-2.75 8.625-1.75 10.875-0.5zM7.875 12.375c-1.25-0.625-1.75-2.25-1.063-3.5 0.688-1.313 2.25-1.75 3.563-1.125 1.25 0.688 1.75 2.313 1.063 3.563-0.688 1.313-2.25 1.75-3.563 1.063zM7.5 18.75c-0.688 1.25-2.313 1.75-3.563 1.063s-1.75-2.25-1.063-3.563c0.688-1.25 2.25-1.75 3.563-1.063 1.25 0.688 1.75 2.25 1.063 3.563zM8.813 24.563h3.188v1h-3.188zM21.438 24.563h3.125v1h-3.125zM4.625 24.563h3.188v1h-3.188zM25.625 24.563h3.125v1h-3.125z"></path>
</svg>
