<?xml version="1.0" encoding="utf-8"?>
<!DOCTYPE svg PUBLIC "-//W3C//DTD SVG 1.1//EN" "http://www.w3.org/Graphics/SVG/1.1/DTD/svg11.dtd">
<svg version="1.1" xmlns="http://www.w3.org/2000/svg" xmlns:xlink="http://www.w3.org/1999/xlink" width="32" height="32" viewBox="0 0 32 32">
<path d="M20.313 27.25c-0.25 0.25-0.438 0.5-0.688 0.75-1.688 1.625-3.625 2.375-6 2.375-2.25 0-4.25-0.563-6-1.813s-3.125-3.125-4.063-5.563l0.063-0.063c-0.063-0.25-0.125-0.563-0.125-0.813 0-1.75 1.438-3.125 3.125-3.125 1.75 0 3.125 1.375 3.125 3.125 0 0.875-0.375 1.625-0.938 2.25 1.25 1.375 2.813 2.125 4.688 2.125 1.375 0 2.5-0.438 3.375-1.188 0.875-0.813 1.375-1.875 1.375-3.063 0-0.75-0.25-1.5-0.75-2.25-0.438-0.688-1-1.313-1.75-1.813-0.688-0.438-1.813-1-3.313-1.625s-2.688-1.188-3.5-1.688c-0.813-0.563-1.563-1.188-2.125-1.875-0.625-0.688-1.063-1.438-1.313-2.125-0.313-0.688-0.438-1.5-0.438-2.25 0-1.938 0.75-3.625 2.313-5 1.625-1.313 3.5-2 5.75-2 1.438 0 2.938 0.313 4.5 0.938 1.25 0.5 2.313 1.313 3.25 2.313 0.625 0.563 1.063 1.375 1.063 2.313 0 1.688-1.375 3.063-3.125 3.063s-3.125-1.375-3.125-3.063c0-0.5 0.125-0.875 0.313-1.313-0.688-0.313-1.5-0.438-2.563-0.438-1.313 0-2.438 0.313-3.25 0.875-0.813 0.625-1.25 1.375-1.25 2.313 0 0.813 0.375 1.563 1.063 2.188 0.75 0.625 2 1.313 3.75 2.063s3.125 1.438 4.063 2.063c1 0.625 1.75 1.375 2.375 2.125 0.625 0.813 1.125 1.625 1.438 2.5 0 0.063 0 0.125 0.063 0.125-1.375 1.125-2.188 2.75-2.188 4.563 0 1.125 0.313 2.125 0.813 3zM24.875 20.688c-2 0-3.625 1.625-3.625 3.563 0 2 1.625 3.625 3.625 3.625s3.625-1.625 3.625-3.625c0-1.938-1.625-3.563-3.625-3.563z"></path>
</svg>
