<?xml version="1.0" encoding="utf-8"?>
<!DOCTYPE svg PUBLIC "-//W3C//DTD SVG 1.1//EN" "http://www.w3.org/Graphics/SVG/1.1/DTD/svg11.dtd">
<svg version="1.1" xmlns="http://www.w3.org/2000/svg" xmlns:xlink="http://www.w3.org/1999/xlink" width="32" height="32" viewBox="0 0 32 32">
<path d="M28.563 27.25l-7.25-7.25c1.5-1.75 2.375-4 2.375-6.438 0-5.625-4.563-10.125-10.125-10.125-5.625 0-10.125 4.5-10.125 10.125 0 5.563 4.5 10.125 10.125 10.125 2.438 0 4.688-0.875 6.438-2.375l7.25 7.25zM4.5 13.563c0-5 4.063-9.063 9.063-9.063s9.063 4.063 9.063 9.063c0 5-4.063 9.063-9.063 9.063s-9.063-4.063-9.063-9.063z"></path>
</svg>
