<?xml version="1.0" encoding="utf-8"?>
<!DOCTYPE svg PUBLIC "-//W3C//DTD SVG 1.1//EN" "http://www.w3.org/Graphics/SVG/1.1/DTD/svg11.dtd">
<svg version="1.1" xmlns="http://www.w3.org/2000/svg" xmlns:xlink="http://www.w3.org/1999/xlink" width="32" height="32" viewBox="0 0 32 32">
<path d="M20 0c-6.625 0-12 5.375-12 12 0 2 0.5 3.938 1.375 5.625l-8.313 8.313c-0.688 0.688-1.063 1.563-1.063 2.563 0 1.938 1.563 3.5 3.5 3.5 1 0 1.875-0.375 2.563-1.063v0l8.313-8.313c1.688 0.875 3.625 1.375 5.625 1.375 6.625 0 12-5.375 12-12s-5.375-12-12-12zM4.813 29.688c-0.313 0.313-0.813 0.563-1.313 0.563-0.938 0-1.75-0.813-1.75-1.75 0-0.5 0.25-0.938 0.563-1.313v0l8.063-8.063c0.688 0.938 1.563 1.813 2.5 2.5zM20 22c-5.5 0-10-4.5-10-10s4.5-10 10-10c5.5 0 10 4.5 10 10s-4.5 10-10 10zM20 5c-3.875 0-7 3.125-7 7 0 0.25 0.25 0.5 0.5 0.5s0.5-0.25 0.5-0.5c0-3.313 2.688-6 6-6 0.25 0 0.5-0.25 0.5-0.5s-0.25-0.5-0.5-0.5z"></path>
</svg>
