<?xml version="1.0" encoding="utf-8"?>
<!DOCTYPE svg PUBLIC "-//W3C//DTD SVG 1.1//EN" "http://www.w3.org/Graphics/SVG/1.1/DTD/svg11.dtd">
<svg version="1.1" xmlns="http://www.w3.org/2000/svg" xmlns:xlink="http://www.w3.org/1999/xlink" width="32" height="32" viewBox="0 0 32 32">
<path d="M16 2.125c-6.75 0-12.25 2.625-12.25 5.875v16c0 3.25 5.5 5.875 12.25 5.875s12.25-2.625 12.25-5.875v-16c0-3.25-5.5-5.875-12.25-5.875zM16 3.188c6.625 0 11.188 2.563 11.188 4.813s-4.563 4.813-11.188 4.813c-6.625 0-11.188-2.563-11.188-4.813s4.563-4.813 11.188-4.813zM27.188 22.938v1.063c0 2.25-4.563 4.813-11.188 4.813s-11.188-2.563-11.188-4.813v-2.938c1.875 2.063 6.188 3.438 11.188 3.438s9.313-1.375 11.188-3.438zM27.188 18.688c0 2.25-4.563 4.75-11.188 4.75s-11.188-2.5-11.188-4.75v-2.938c1.875 2 6.188 3.438 11.188 3.438s9.313-1.438 11.188-3.438zM27.188 13.313c0 2.313-4.563 4.813-11.188 4.813s-11.188-2.5-11.188-4.813v-2.938c1.875 2.063 6.188 3.5 11.188 3.5s9.313-1.438 11.188-3.5z"></path>
</svg>
