<?xml version="1.0" encoding="utf-8"?>
<!DOCTYPE svg PUBLIC "-//W3C//DTD SVG 1.1//EN" "http://www.w3.org/Graphics/SVG/1.1/DTD/svg11.dtd">
<svg version="1.1" xmlns="http://www.w3.org/2000/svg" xmlns:xlink="http://www.w3.org/1999/xlink" width="32" height="32" viewBox="0 0 32 32">
<path d="M29.313 0h-26.625c-1.5 0-2.688 1.188-2.688 2.688v26.625c0 1.5 1.188 2.688 2.688 2.688h26.625c1.5 0 2.688-1.188 2.688-2.688v-26.625c0-1.5-1.188-2.688-2.688-2.688zM30.688 29.313c0 0.75-0.625 1.375-1.375 1.375h-26.625c-0.75 0-1.375-0.625-1.375-1.375v-26.625c0-0.75 0.625-1.375 1.375-1.375h26.625c0.75 0 1.375 0.625 1.375 1.375zM24.688 13.313h-1.375v-8.625c0-0.375-0.25-0.688-0.625-0.688s-0.688 0.313-0.688 0.688v8.625h-1.313c-0.375 0-0.688 0.313-0.688 0.688v2.688c0 0.375 0.313 0.625 0.688 0.625h1.313v2c0 0.375 0.313 0.688 0.688 0.688s0.625-0.313 0.625-0.688v-2h1.375c0.375 0 0.625-0.25 0.625-0.625v-2.688c0-0.375-0.25-0.688-0.625-0.688zM24 16h-2.688v-1.313h2.688zM18 6.688h-1.313v-2c0-0.375-0.313-0.688-0.688-0.688s-0.688 0.313-0.688 0.688v2h-1.313c-0.375 0-0.688 0.25-0.688 0.625v2.688c0 0.375 0.313 0.688 0.688 0.688h1.313v8.625c0 0.375 0.313 0.688 0.688 0.688s0.688-0.313 0.688-0.688v-8.625h1.313c0.375 0 0.688-0.313 0.688-0.688v-2.688c0-0.375-0.313-0.625-0.688-0.625zM17.313 9.313h-2.625v-1.313h2.625zM11.313 10.688h-1.313v-6c0-0.375-0.313-0.688-0.688-0.688s-0.625 0.313-0.625 0.688v6h-1.375c-0.375 0-0.625 0.25-0.625 0.625v2.688c0 0.375 0.25 0.688 0.625 0.688h1.375v4.625c0 0.375 0.25 0.688 0.625 0.688s0.688-0.313 0.688-0.688v-4.625h1.313c0.375 0 0.688-0.313 0.688-0.688v-2.688c0-0.375-0.313-0.625-0.688-0.625zM10.688 13.313h-2.688v-1.313h2.688zM22.688 22.688c-1.5 0-2.688 1.188-2.688 2.625 0 1.5 1.188 2.688 2.688 2.688 1.438 0 2.625-1.188 2.625-2.688 0-1.438-1.188-2.625-2.625-2.625zM22.688 26.688c-0.75 0-1.375-0.625-1.375-1.375 0-0.688 0.625-1.313 1.375-1.313 0.688 0 1.313 0.625 1.313 1.313 0 0.75-0.625 1.375-1.313 1.375zM16 22.688c-1.5 0-2.688 1.188-2.688 2.625 0 1.5 1.188 2.688 2.688 2.688s2.688-1.188 2.688-2.688c0-1.438-1.188-2.625-2.688-2.625zM16 26.688c-0.75 0-1.313-0.625-1.313-1.375 0-0.688 0.563-1.313 1.313-1.313s1.313 0.625 1.313 1.313c0 0.75-0.563 1.375-1.313 1.375zM9.313 22.688c-1.438 0-2.625 1.188-2.625 2.625 0 1.5 1.188 2.688 2.625 2.688 1.5 0 2.688-1.188 2.688-2.688 0-1.438-1.188-2.625-2.688-2.625zM9.313 26.688c-0.688 0-1.313-0.625-1.313-1.375 0-0.688 0.625-1.313 1.313-1.313 0.75 0 1.375 0.625 1.375 1.313 0 0.75-0.625 1.375-1.375 1.375z"></path>
</svg>
