<?xml version="1.0" encoding="utf-8"?>
<!DOCTYPE svg PUBLIC "-//W3C//DTD SVG 1.1//EN" "http://www.w3.org/Graphics/SVG/1.1/DTD/svg11.dtd">
<svg version="1.1" xmlns="http://www.w3.org/2000/svg" xmlns:xlink="http://www.w3.org/1999/xlink" width="32" height="32" viewBox="0 0 32 32">
<path d="M26.625 18.438l4.25-0.438v-4l-4.25-0.375c-0.313-1.313-0.813-2.5-1.438-3.5l2.375-3.188-2.438-2.438-3.188 2.375c-1.063-0.625-2.188-1.188-3.438-1.438l-0.5-4.25h-4l-0.438 4.25c-1.25 0.25-2.375 0.75-3.375 1.375l-3.313-2.313-2.438 2.438 2.313 3.313c-0.625 1-1.125 2.125-1.375 3.375l-4.25 0.438v4l4.25 0.5c0.25 1.25 0.813 2.375 1.438 3.438l-2.375 3.25 2.438 2.438 3.188-2.438c1 0.688 2.188 1.188 3.438 1.5l0.5 4.25h4l0.563-4.25c1.188-0.313 2.313-0.75 3.313-1.438l3.313 2.375 2.438-2.438-2.438-3.375c0.688-1.063 1.125-2.188 1.438-3.438zM29.813 14.938v2.063l-3.188 0.313c0-0.438 0.063-0.875 0.063-1.375s-0.063-0.875-0.063-1.375l3.188 0.375zM24.938 5.75l1.188 1.188-1.75 2.375c-0.563-0.688-1.125-1.25-1.813-1.813zM14.875 2.125h2.125l0.375 3.188c-0.5-0.063-0.938-0.063-1.375-0.063-0.5 0-1 0-1.375 0.063l0.25-3.188zM5.688 7l1.25-1.25 2.438 1.688c-0.375 0.313-0.688 0.625-1 0.938s-0.625 0.625-0.938 1zM2.063 17.063v-2.125l3.188-0.375c-0.063 0.5-0.063 0.938-0.063 1.438s0 0.938 0.063 1.375l-3.188-0.313zM6.938 26.188l-1.188-1.125 1.75-2.375c0.563 0.625 1.125 1.25 1.75 1.75zM17 29.875h-2.125l-0.375-3.188c0.5 0.063 0.938 0.063 1.438 0.063s0.938 0 1.438-0.063l-0.375 3.188zM15.938 25.625c-5.313 0-9.688-4.313-9.688-9.625 0-2.563 1.063-5 2.875-6.813s4.25-2.813 6.813-2.813c5.313 0 9.625 4.313 9.625 9.625 0 2.563-1 5-2.813 6.813s-4.188 2.813-6.813 2.813zM26.188 25l-1.188 1.188-2.438-1.75c0.375-0.25 0.688-0.625 1-0.938s0.563-0.625 0.875-1l1.75 2.5z"></path>
</svg>
