<?xml version="1.0" encoding="utf-8"?>
<!DOCTYPE svg PUBLIC "-//W3C//DTD SVG 1.1//EN" "http://www.w3.org/Graphics/SVG/1.1/DTD/svg11.dtd">
<svg version="1.1" xmlns="http://www.w3.org/2000/svg" xmlns:xlink="http://www.w3.org/1999/xlink" width="32" height="32" viewBox="0 0 32 32">
<path d="M30.375 12.688l-3.063-0.625c-0.125-0.438-0.313-0.875-0.5-1.313l1.688-2.563c0.563-0.813 0.438-1.875-0.25-2.563l-1.875-1.875c-0.438-0.438-0.938-0.625-1.438-0.625-0.375 0-0.75 0.125-1.125 0.375l-2.563 1.688c-0.438-0.188-0.875-0.375-1.313-0.5l-0.625-3.063c-0.188-0.938-1-1.625-1.938-1.625h-2.75c-0.938 0-1.75 0.688-1.938 1.625l-0.625 3.063c-0.438 0.125-0.875 0.313-1.313 0.5l-2.563-1.688c-0.375-0.25-0.75-0.375-1.125-0.375-0.5 0-1 0.188-1.438 0.625l-1.875 1.875c-0.688 0.688-0.813 1.75-0.25 2.563l1.688 2.563c-0.188 0.438-0.375 0.875-0.5 1.313l-3.063 0.625c-0.938 0.188-1.625 1-1.625 1.938v2.75c0 0.938 0.688 1.75 1.625 1.938l3.063 0.625c0.125 0.438 0.313 0.875 0.5 1.313l-1.688 2.563c-0.563 0.813-0.438 1.875 0.25 2.563l1.875 1.875c0.438 0.438 0.938 0.625 1.438 0.625 0.375 0 0.75-0.125 1.125-0.375l2.563-1.688c0.438 0.188 0.875 0.375 1.313 0.5l0.625 3.063c0.188 0.938 1 1.625 1.938 1.625h2.75c0.938 0 1.75-0.688 1.938-1.625l0.625-3.063c0.438-0.125 0.875-0.313 1.313-0.5l2.563 1.688c0.375 0.25 0.75 0.375 1.125 0.375 0.5 0 1-0.188 1.438-0.625l1.875-1.875c0.688-0.688 0.813-1.75 0.25-2.563l-1.688-2.563c0.188-0.438 0.375-0.875 0.5-1.313l3.063-0.625c0.938-0.188 1.625-1 1.625-1.938v-2.75c0-0.938-0.688-1.75-1.625-1.938zM26.938 18c-0.688 0.125-1.25 0.625-1.5 1.25-0.125 0.375-0.25 0.75-0.438 1.125-0.313 0.625-0.25 1.375 0.125 1.938l1.75 2.625-1.938 1.938-2.625-1.75c-0.313-0.25-0.688-0.313-1.063-0.313-0.313 0-0.625 0.063-0.875 0.188-0.375 0.188-0.75 0.313-1.125 0.438-0.625 0.25-1.125 0.813-1.25 1.5l-0.625 3.063h-2.75l-0.625-3.063c-0.125-0.688-0.625-1.25-1.25-1.5-0.375-0.125-0.75-0.25-1.125-0.438-0.25-0.125-0.563-0.188-0.875-0.188-0.375 0-0.75 0.063-1.063 0.313l-2.625 1.75-1.938-1.938 1.75-2.625c0.375-0.563 0.438-1.313 0.125-1.938-0.188-0.375-0.313-0.75-0.438-1.125-0.25-0.625-0.813-1.125-1.5-1.25l-3.063-0.625v-2.75l3.063-0.625c0.688-0.125 1.25-0.625 1.5-1.25 0.125-0.375 0.25-0.75 0.438-1.125 0.313-0.625 0.25-1.375-0.125-1.938l-1.75-2.625 1.938-1.938 2.625 1.75c0.313 0.25 0.688 0.313 1.063 0.313 0.313 0 0.625-0.063 0.875-0.188 0.375-0.125 0.75-0.313 1.125-0.438 0.625-0.25 1.125-0.813 1.25-1.5l0.625-3.063h2.75l0.625 3.063c0.125 0.688 0.625 1.25 1.25 1.5 0.375 0.125 0.75 0.25 1.125 0.438 0.25 0.125 0.563 0.188 0.875 0.188 0.375 0 0.75-0.063 1.063-0.313l2.625-1.75 1.938 1.938-1.75 2.625c-0.375 0.563-0.438 1.313-0.125 1.938 0.125 0.375 0.313 0.75 0.438 1.125 0.25 0.625 0.813 1.125 1.5 1.25l3.063 0.625v2.75zM16 9c-3.875 0-7 3.125-7 7s3.125 7 7 7c3.875 0 7-3.125 7-7s-3.125-7-7-7zM16 22.125c-3.375 0-6.125-2.75-6.125-6.125s2.75-6.125 6.125-6.125c3.375 0 6.125 2.75 6.125 6.125s-2.75 6.125-6.125 6.125zM16 12c-2.188 0-4 1.813-4 4s1.813 4 4 4c2.188 0 4-1.813 4-4s-1.813-4-4-4zM16 19c-1.625 0-3-1.313-3-3 0-1.625 1.375-3 3-3s3 1.375 3 3c0 1.688-1.375 3-3 3z"></path>
</svg>
