<?xml version="1.0" encoding="utf-8"?>
<!DOCTYPE svg PUBLIC "-//W3C//DTD SVG 1.1//EN" "http://www.w3.org/Graphics/SVG/1.1/DTD/svg11.dtd">
<svg version="1.1" xmlns="http://www.w3.org/2000/svg" xmlns:xlink="http://www.w3.org/1999/xlink" width="32" height="32" viewBox="0 0 32 32">
<path d="M11.75 16c0 0.125 0 0.188 0 0.313l10.313 5.125c0.875-0.75 2-1.188 3.25-1.188 2.813 0 5.063 2.25 5.063 5.063s-2.25 5.063-5.063 5.063c-2.813 0-5.063-2.25-5.063-5.063 0-0.125 0-0.188 0-0.313l-10.313-5.125c-0.875 0.75-2 1.188-3.25 1.188-2.813 0-5.063-2.25-5.063-5.063s2.25-5.063 5.063-5.063c1.25 0 2.375 0.438 3.25 1.188l10.313-5.125c0-0.125 0-0.25 0-0.313 0-2.813 2.25-5.063 5.063-5.063s5.063 2.25 5.063 5.063c0 2.813-2.25 5.063-5.063 5.063-1.25 0-2.375-0.438-3.25-1.188l-10.313 5.125c0 0.125 0 0.188 0 0.313z"></path>
</svg>
