<?xml version="1.0" encoding="utf-8"?>
<!DOCTYPE svg PUBLIC "-//W3C//DTD SVG 1.1//EN" "http://www.w3.org/Graphics/SVG/1.1/DTD/svg11.dtd">
<svg version="1.1" xmlns="http://www.w3.org/2000/svg" xmlns:xlink="http://www.w3.org/1999/xlink" width="32" height="32" viewBox="0 0 32 32">
<path d="M26.125 2.125c-2.375 0-4.25 1.938-4.25 4.25 0 0.438 0.063 0.813 0.188 1.188l-12.5 5.25c-0.75-1.313-2.125-2.125-3.688-2.125-2.375 0-4.25 1.875-4.25 4.25s1.875 4.25 4.25 4.25c1.25 0 2.313-0.5 3.125-1.375l8 5.813c-0.313 0.563-0.438 1.25-0.438 2 0 2.313 1.875 4.25 4.25 4.25 2.313 0 4.25-1.938 4.25-4.25 0-2.375-1.938-4.313-4.25-4.313-1.25 0-2.375 0.563-3.188 1.438l-8-5.75c0.313-0.625 0.5-1.313 0.5-2.063 0-0.375-0.063-0.813-0.125-1.125l12.438-5.25c0.75 1.25 2.125 2.125 3.688 2.125 2.375 0 4.25-1.938 4.25-4.313 0-2.313-1.875-4.25-4.25-4.25zM20.813 22.375c1.75 0 3.188 1.438 3.188 3.25 0 1.75-1.438 3.188-3.188 3.188s-3.188-1.438-3.188-3.188c0-1.813 1.438-3.25 3.188-3.25zM5.875 18.125c-1.75 0-3.188-1.438-3.188-3.188s1.438-3.188 3.188-3.188c1.75 0 3.188 1.438 3.188 3.188s-1.438 3.188-3.188 3.188zM26.125 9.625c-1.75 0-3.188-1.438-3.188-3.25 0-1.75 1.438-3.188 3.188-3.188s3.188 1.438 3.188 3.188c0 1.813-1.438 3.25-3.188 3.25z"></path>
</svg>
