<?xml version="1.0" encoding="utf-8"?>
<!DOCTYPE svg PUBLIC "-//W3C//DTD SVG 1.1//EN" "http://www.w3.org/Graphics/SVG/1.1/DTD/svg11.dtd">
<svg version="1.1" xmlns="http://www.w3.org/2000/svg" xmlns:xlink="http://www.w3.org/1999/xlink" width="32" height="32" viewBox="0 0 32 32">
<path d="M16 0c0 0-4.938 4.938-12.313 4.938 0 6 0 14.75 0 14.75 0 6.75 5.563 12.313 12.313 12.313s12.313-5.563 12.313-12.313c0 0 0-10.938 0-14.75-7.375 0-12.313-4.938-12.313-4.938zM27.063 19.688c0 6.125-4.938 11.063-11.063 11.063s-11.063-4.875-11.063-11.063v-13.563c5.375-0.313 9.313-3.063 11.063-4.375 1.75 1.313 5.688 4.063 11.063 4.375zM15.375 4.313h1.25v24h-1.25z"></path>
</svg>
