<?xml version="1.0" encoding="utf-8"?>
<!DOCTYPE svg PUBLIC "-//W3C//DTD SVG 1.1//EN" "http://www.w3.org/Graphics/SVG/1.1/DTD/svg11.dtd">
<svg version="1.1" xmlns="http://www.w3.org/2000/svg" xmlns:xlink="http://www.w3.org/1999/xlink" width="32" height="32" viewBox="0 0 32 32">
<path d="M16.125 2.688l-10.125 1.875c0 0 0 12.188 0 14.375 0 3.438 3.063 7.938 10.125 10.375 7.125-2.438 10.125-6.938 10.125-10.375 0-2.188 0-14.375 0-14.375zM25.188 18.938c0 3-2.813 7-9.063 9.25-6.25-2.25-9.063-6.25-9.063-9.25v-13.438l9.063-1.75 9.063 1.688zM13.063 10.75l-0.75 0.75 3.188 3.25-3.188 3.188 0.75 0.75 3.188-3.25 3.188 3.25 0.75-0.75-3.188-3.188 3.188-3.25-0.75-0.75-3.188 3.25z"></path>
</svg>
