<?xml version="1.0" encoding="utf-8"?>
<!DOCTYPE svg PUBLIC "-//W3C//DTD SVG 1.1//EN" "http://www.w3.org/Graphics/SVG/1.1/DTD/svg11.dtd">
<svg version="1.1" xmlns="http://www.w3.org/2000/svg" xmlns:xlink="http://www.w3.org/1999/xlink" width="32" height="32" viewBox="0 0 32 32">
<path d="M31.5 20.438c0.188-1.25-0.063-3.688-0.438-6.313 0.938-1.563 1.188-2.813 0.75-3.563-0.375-0.625-1.063-0.75-1.313-0.75-0.063-0.125-0.125-0.25-0.188-0.313-0.313-0.25-0.688-0.313-0.875-0.313h-0.063c-4.313-0.813-6.625-1.688-7.938-2.188-0.813-0.313-1.25-0.438-1.688-0.438-0.75 0-1.063 0.563-1.625 1.625-0.313 0.563-0.688 1.313-1.25 2.313-3.375 5.563-10.5 7.625-11.188 7.813-2.313 0-3.875 0.5-4.688 1.438-0.375 0.5-0.438 1-0.438 1.313-0.375 0.375-0.563 0.75-0.563 1.188 0 0.563 0.438 0.938 0.5 0.938 0.063 0.063 2.313 1.813 14.75 2.188 1.5 0.063 2.938 0.063 4.313 0.063 8.938 0 11.813-0.938 11.938-1l0.25-0.063v-0.25c0.313-1.938 0.25-3.125-0.188-3.625 0 0-0.063-0.063-0.063-0.063zM26.25 21.313c0-1.313-0.375-2.625-1-3.938 2.25-1.25 4.188-2.5 5-3.063 0.313 2.25 0.625 4.875 0.438 6-1.375 0.438-2.875 0.75-4.438 1zM30.063 12.938c0 0.125 0.063 0.313 0.063 0.5-0.813 0.5-8.5 5.688-12.188 5.813-0.563 0-1.375-0.063-1.563-0.5-0.313-0.625 0.438-1.938 0.938-2.625l0.063-0.063c0.063 0.375 0.25 0.813 0.563 1.063 0.625 0.5 1.563 0.5 2.875-0.063 3.188-1.438 8.188-3.625 9.25-4.125zM31.063 11c0.125 0.188 0.25 0.688-0.188 1.688 0-0.063 0-0.125-0.063-0.25-0.063-0.688-0.188-1.375-0.25-1.813 0.188 0.063 0.375 0.125 0.5 0.375zM29.375 10h0.063c0.125 0 0.25 0.063 0.25 0.063 0.063 0.063 0.063 0.125 0.063 0.188 0 0.25 0.063 0.75 0.188 1.813-0.125 0.063-3.125 1.438-6.188 2.813-2.188-2.875-5-4.75-5.5-5.125 0.125-0.25 0.25-0.438 0.375-0.688 0.188 0.063 0.563 0.125 0.938 0.125 0.75 0 1.813-0.188 2.875-0.938v0c1.438 0.5 3.563 1.125 6.813 1.75zM19.75 7.375c0.25 0 0.688 0.125 1.375 0.375 0.063 0.063 0.188 0.125 0.313 0.125-1 0.5-1.875 0.5-2.438 0.438 0.438-0.75 0.563-0.938 0.75-0.938zM17.563 10.938c0.125-0.188 0.188-0.313 0.25-0.438 0.563 0.375 3.125 2.125 5.188 4.688-0.938 0.375-1.75 0.75-2.5 1.125-1 0.375-1.688 0.438-2 0.188-0.438-0.375-0.313-1.313-0.25-1.625l0.438-1.938-2 2.688c-0.188 0.188-1.688 2.188-1.063 3.5 0.313 0.625 1.063 0.938 2.125 0.938 0.063 0 0.188 0 0.25 0 1.75-0.063 4.25-1.125 6.563-2.313 0.563 1.25 0.875 2.5 0.875 3.688-3.688 0.5-7.625 0.563-11.313 0.5-2.25-0.5-3.125-3.688-3.375-4.813 2.375-1.313 5.063-3.25 6.813-6.188zM1.375 20.875c0-0.125 0.063-0.25 0.188-0.438 0.625 0 4.313-0.063 6.063 0.063 0.063 0.063 0.125 0.063 0.188 0.063 0.688 0 1.625-0.313 2.938-0.875 0.313 0.75 0.813 1.563 1.5 2.188-5.313-0.25-9.688-0.813-10.875-1zM5.75 19.125h0.125c0.125-0.063 1.875-0.5 4.125-1.625 0.063 0.375 0.188 0.875 0.438 1.438-1.563 0.688-2.375 0.813-2.75 0.75-1.375-0.063-3.688-0.063-5.125-0.063 0.625-0.313 1.625-0.5 3.188-0.5zM31 23.75c-0.813 0.188-4.063 0.875-11.438 0.875-1.375 0-2.813 0-4.313-0.063-11.938-0.375-14.25-2-14.25-2s-0.188-0.188-0.188-0.375c0-0.188 0.125-0.375 0.313-0.5 1 0.125 6.438 0.875 12.875 1.063 0.188 0 0.438 0.063 0.688 0.063 0 0 0.063 0 0.063 0v-0.063c0.625 0 1.25 0 1.875 0 5 0 10.188-0.375 14.375-1.688 0.063 0.188 0.25 0.75 0 2.688zM17.125 13.688c0 0.188-0.188 0.375-0.438 0.375-0.188 0-0.375-0.188-0.375-0.375 0-0.25 0.188-0.438 0.375-0.438 0.25 0 0.438 0.188 0.438 0.438zM16.063 14.688c0 0.25-0.188 0.438-0.375 0.438-0.25 0-0.438-0.188-0.438-0.438 0-0.188 0.188-0.375 0.438-0.375 0.188 0 0.375 0.188 0.375 0.375zM14.875 15.625c0 0.188-0.125 0.375-0.375 0.375-0.188 0-0.375-0.188-0.375-0.375 0-0.25 0.188-0.438 0.375-0.438 0.25 0 0.375 0.188 0.375 0.438zM13.563 16.5c0 0.188-0.188 0.375-0.438 0.375-0.188 0-0.375-0.188-0.375-0.375s0.188-0.375 0.375-0.375c0.25 0 0.438 0.188 0.438 0.375z"></path>
</svg>
