<?xml version="1.0" encoding="utf-8"?>
<!DOCTYPE svg PUBLIC "-//W3C//DTD SVG 1.1//EN" "http://www.w3.org/Graphics/SVG/1.1/DTD/svg11.dtd">
<svg version="1.1" xmlns="http://www.w3.org/2000/svg" xmlns:xlink="http://www.w3.org/1999/xlink" width="32" height="32" viewBox="0 0 32 32">
<path d="M31.375 11.188l-3-4c-0.063-0.125-0.25-0.25-0.375-0.438v-4.75c0-1.125-0.875-2-2-2h-20c-1.125 0-2 0.875-2 2v4.75c-0.125 0.188-0.313 0.313-0.375 0.438l-3 4c-0.438 0.5-0.625 1.188-0.625 1.813v1c0 1.625 1.375 3 3 3v13c0 1.125 0.875 2 2 2h22c1.125 0 2-0.875 2-2v-13c1.625 0 3-1.375 3-3v-1c0-0.625-0.188-1.313-0.625-1.813zM26 2v4h-20v-4zM10.188 15h-4.188l4-7h2.188zM13.25 8h2.25v7h-4.25zM16.5 8h2.25l2 7h-4.25zM19.813 8h2.188l4 7h-4.188zM2 14v-1c0-0.188 0.063-0.438 0.188-0.625l3-4c0.188-0.25 0.5-0.375 0.813-0.375h2.875l-4 7h-1.875c-0.563 0-1-0.438-1-1zM20 30h-7.5v-10h7.5zM27 30h-6v-10c0-0.563-0.438-1-1-1h-7.5c-0.563 0-1 0.438-1 1v10h-6.5v-13h22zM30 14c0 0.563-0.438 1-1 1h-1.875l-4-7h2.875c0.313 0 0.625 0.125 0.813 0.375l3 4c0.125 0.188 0.188 0.438 0.188 0.625z"></path>
</svg>
