<?xml version="1.0" encoding="utf-8"?>
<!DOCTYPE svg PUBLIC "-//W3C//DTD SVG 1.1//EN" "http://www.w3.org/Graphics/SVG/1.1/DTD/svg11.dtd">
<svg version="1.1" xmlns="http://www.w3.org/2000/svg" xmlns:xlink="http://www.w3.org/1999/xlink" width="32" height="32" viewBox="0 0 32 32">
<path d="M16 0c-8.813 0-16 7.188-16 16s7.188 16 16 16c8.813 0 16-7.188 16-16s-7.188-16-16-16zM30.688 15.313h-5.375c-0.375-4.625-4-8.25-8.625-8.625v-5.375c7.563 0.438 13.563 6.438 14 14zM24 16.688c-0.25 3.875-3.438 6.938-7.313 7.313v-2.688h-1.375v2.688c-3.813-0.25-6.938-3.438-7.313-7.313h2.688v-1.375h-2.688c0.25-3.813 3.5-6.938 7.313-7.313v2.688h1.375v-2.688c3.875 0.25 6.938 3.5 7.313 7.313h-2.688v1.375zM15.313 1.313v5.375c-4.625 0.375-8.25 4-8.625 8.625h-5.375c0.438-7.563 6.438-13.563 14-14zM1.313 16.688h5.375c0.25 4.625 4 8.25 8.625 8.625v5.375c-7.563-0.438-13.563-6.438-14-14zM16.688 30.688v-5.375c4.625-0.25 8.25-4 8.625-8.625h5.375c-0.438 7.563-6.438 13.563-14 14z"></path>
</svg>
