<?xml version="1.0" encoding="utf-8"?>
<!DOCTYPE svg PUBLIC "-//W3C//DTD SVG 1.1//EN" "http://www.w3.org/Graphics/SVG/1.1/DTD/svg11.dtd">
<svg version="1.1" xmlns="http://www.w3.org/2000/svg" xmlns:xlink="http://www.w3.org/1999/xlink" width="32" height="32" viewBox="0 0 32 32">
<path d="M16 18.375c-2.375 0-4.313 1.938-4.313 4.313 0 2.313 1.938 4.25 4.313 4.25 2.313 0 4.25-1.938 4.25-4.25 0-2.375-1.938-4.313-4.25-4.313zM16 25.875c-1.813 0-3.25-1.438-3.25-3.188 0-1.813 1.438-3.25 3.25-3.25 1.75 0 3.188 1.438 3.188 3.25 0 1.75-1.438 3.188-3.188 3.188zM16 13.625c-3.625 0-6.75 2.063-8.188 5.125l0.813 0.813c1.188-2.875 4.063-4.875 7.375-4.875 3.25 0 6.125 2 7.313 4.875l0.813-0.813c-1.438-3.063-4.563-5.125-8.125-5.125zM16 5.063c-5.938 0-11.188 3-14.375 7.5l0.75 0.75c3-4.313 8-7.188 13.625-7.188s10.625 2.875 13.625 7.188l0.75-0.813c-3.188-4.5-8.438-7.438-14.375-7.438zM16 9.313c-4.75 0-8.938 2.563-11.313 6.313l0.813 0.813c2.125-3.625 6.063-6.063 10.5-6.063 4.5 0 8.375 2.438 10.563 6l0.75-0.813c-2.375-3.75-6.563-6.25-11.313-6.25z"></path>
</svg>
