<?xml version="1.0" encoding="utf-8"?>
<!DOCTYPE svg PUBLIC "-//W3C//DTD SVG 1.1//EN" "http://www.w3.org/Graphics/SVG/1.1/DTD/svg11.dtd">
<svg version="1.1" xmlns="http://www.w3.org/2000/svg" xmlns:xlink="http://www.w3.org/1999/xlink" width="32" height="32" viewBox="0 0 32 32">
<path d="M5.563 26.125c-2.125-2.375-3.875-5.375-4.063-9.438 0-0.375 0-0.75 0-1.188 0.063-1.688 0.5-3.25 1.063-4.625 0.688-1.875 1.813-3.563 3.125-4.688 0 0.875 0 1.688 0.063 2.25 0.313 1.625 1.188 3.438 2.313 4.563 0.938 0.875 2.125 1.5 3.375 2.188 2.5 1.313 4.875 2.5 7.375 3.813 1.625 0.875 3.25 1.938 3.75 3.625 0.625 2.375-0.75 4.625-1.875 5.75-1.063 1.125-2.375 1.875-4 2.125-0.625 0-1.25 0-1.938 0-3.938-0.438-7.063-2.063-9.188-4.375zM15.063 11.625c2.313 1.25 4.688 2.438 7 3.688 1.25 0.625 2.313 1.25 3.188 2.188 1.5 1.688 2.5 3.813 2.313 7 0.375-0.375 0.688-0.938 1-1.438 0.813-1.5 1.5-3.5 1.688-5.75 0-0.063 0-0.063 0.063-0.125 0-0.75 0-1.5 0-2.25-1-7.875-6.375-12.625-13.938-13.25-0.25 0-0.5 0-0.75 0-1.5 0.25-2.938 0.688-3.75 1.625-0.625 0.688-1.063 1.875-1.125 2.625-0.313 3.313 2.063 4.563 4.313 5.688z"></path>
</svg>
