<?xml version="1.0" encoding="utf-8"?>
<!DOCTYPE svg PUBLIC "-//W3C//DTD SVG 1.1//EN" "http://www.w3.org/Graphics/SVG/1.1/DTD/svg11.dtd">
<svg version="1.1" xmlns="http://www.w3.org/2000/svg" xmlns:xlink="http://www.w3.org/1999/xlink" width="32" height="32" viewBox="0 0 32 32">
<path d="M29.063 18.188c0.125-0.625 0.188-1.375 0.188-2.063 0-7.375-6-13.375-13.375-13.375-0.688 0-1.375 0.063-2.063 0.188-1.25-0.75-2.688-1.188-4.25-1.188-4.438 0-8.063 3.563-8.063 8.063 0 1.563 0.438 3 1.188 4.25-0.125 0.688-0.125 1.375-0.125 2.063 0 7.375 5.938 13.375 13.313 13.375 0.75 0 1.438-0.063 2.125-0.188 1.188 0.75 2.688 1.188 4.25 1.188 4.438 0 8.063-3.563 8.063-8.063 0-1.563-0.438-3-1.25-4.25zM22.25 22.188c-0.563 0.813-1.438 1.438-2.5 1.938-1.063 0.438-2.375 0.688-3.875 0.688-1.75 0-3.25-0.313-4.375-0.938-0.813-0.438-1.5-1.063-2-1.813-0.563-0.75-0.813-1.5-0.813-2.25 0-0.375 0.188-0.75 0.5-1.063s0.75-0.438 1.188-0.438c0.438 0 0.75 0.125 1 0.313 0.313 0.25 0.563 0.625 0.75 1.063 0.188 0.5 0.438 0.938 0.688 1.313 0.25 0.313 0.625 0.625 1.125 0.875 0.438 0.188 1.063 0.313 1.875 0.313 1.063 0 1.938-0.25 2.563-0.688 0.688-0.438 1-1 1-1.688 0-0.563-0.188-0.938-0.5-1.313-0.375-0.313-0.813-0.563-1.438-0.75-0.563-0.188-1.313-0.375-2.25-0.563-1.313-0.313-2.375-0.625-3.25-1s-1.625-0.938-2.125-1.563c-0.5-0.688-0.75-1.5-0.75-2.438s0.25-1.75 0.813-2.5c0.563-0.688 1.313-1.25 2.375-1.625 1-0.438 2.188-0.625 3.625-0.625 1.063 0 2.063 0.125 2.875 0.375 0.813 0.313 1.438 0.625 2 1.063s0.938 0.875 1.188 1.313c0.25 0.5 0.375 0.938 0.375 1.375s-0.188 0.813-0.5 1.125c-0.313 0.375-0.688 0.5-1.188 0.5-0.438 0-0.75-0.063-1-0.313-0.188-0.188-0.438-0.5-0.688-0.938-0.313-0.625-0.688-1.125-1.188-1.438-0.438-0.375-1.125-0.5-2.125-0.5-0.938 0-1.688 0.188-2.25 0.563s-0.813 0.813-0.813 1.313c0 0.313 0.063 0.563 0.25 0.813s0.438 0.438 0.813 0.625c0.313 0.188 0.688 0.313 1 0.375 0.375 0.125 0.938 0.25 1.75 0.438 1 0.25 1.938 0.5 2.75 0.75s1.5 0.563 2.125 0.938c0.563 0.438 1 0.875 1.375 1.5 0.313 0.563 0.438 1.313 0.438 2.125 0 1.063-0.25 1.938-0.813 2.75z"></path>
</svg>
