<?xml version="1.0" encoding="utf-8"?>
<!DOCTYPE svg PUBLIC "-//W3C//DTD SVG 1.1//EN" "http://www.w3.org/Graphics/SVG/1.1/DTD/svg11.dtd">
<svg version="1.1" xmlns="http://www.w3.org/2000/svg" xmlns:xlink="http://www.w3.org/1999/xlink" width="32" height="32" viewBox="0 0 32 32">
<path d="M29.938 12.875c-1.063 2.125-3.375 2.75-5.625 3.938 0 1.688 0 3.938 0 4.563s-0.813 4.375-4 4.375c-3.125 0-4.188-1.813-4.188-2.563 0-0.375 0-2.313 0-4.188-0.313-0.063-0.625-0.188-0.875-0.375 0 1.75 0 3.813 0 4.563s-1.188 1.813-2.75 1.813c-1.563 0-4.563-2.188-4.563-3.625s0-4.938 0-4.938c0 0-4.125-1.625-5.063-2.813-1-1.125-1.5-1.625-1.188-2.313 0.25-0.688 3.375 1.938 5.188 2.313 1.813 0.438 4.938 0.688 6.313 0.625 1.313-0.063 2.063 0.5 2.813 1.188 0.063 0 0.063 0.063 0.125 0.125 0-0.375 0-0.563 0-0.563 0-0.625 1.75-0.875 2.75-0.875s4 0 4.563 0c0.5 0 4.625-1.375 5.625-2.438 0.938-1.063 1.938-0.75 0.875 1.188zM20.375 12.625c1.75 0 3.188-1.438 3.188-3.188s-1.438-3.188-3.188-3.188c-1.75 0-3.188 1.438-3.188 3.188s1.438 3.188 3.188 3.188zM12 12.625c1.75 0 3.188-1.438 3.188-3.188s-1.438-3.188-3.188-3.188c-1.75 0-3.188 1.438-3.188 3.188s1.438 3.188 3.188 3.188z"></path>
</svg>
