<?xml version="1.0" encoding="utf-8"?>
<!DOCTYPE svg PUBLIC "-//W3C//DTD SVG 1.1//EN" "http://www.w3.org/Graphics/SVG/1.1/DTD/svg11.dtd">
<svg version="1.1" xmlns="http://www.w3.org/2000/svg" xmlns:xlink="http://www.w3.org/1999/xlink" width="32" height="32" viewBox="0 0 32 32">
<path d="M15.813 3.188c-7.125 0-12.813 5.75-12.813 12.813s5.688 12.813 12.813 12.813c7.063 0 12.813-5.75 12.813-12.813s-5.75-12.813-12.813-12.813zM15.813 27.75c-6.438 0-11.75-5.313-11.75-11.75s5.313-11.75 11.75-11.75c6.438 0 11.75 5.313 11.75 11.75s-5.313 11.75-11.75 11.75zM22.438 19.063c-0.25-0.125-0.563-0.063-0.688 0.188-1.125 2.313-3.438 3.688-5.938 3.688-2.563 0-4.813-1.375-6-3.688-0.063-0.25-0.438-0.375-0.688-0.188-0.25 0.063-0.375 0.375-0.25 0.688 1.313 2.625 3.938 4.25 6.938 4.25 2.938 0 5.563-1.625 6.875-4.25 0.125-0.313 0.063-0.625-0.25-0.688zM13.125 13.313c0 0.875-0.688 1.625-1.563 1.625-0.938 0-1.625-0.75-1.625-1.625s0.688-1.563 1.625-1.563c0.875 0 1.563 0.688 1.563 1.563zM21.688 13.313c0 0.875-0.75 1.625-1.625 1.625s-1.625-0.75-1.625-1.625c0-0.875 0.75-1.563 1.625-1.563s1.625 0.688 1.625 1.563z"></path>
</svg>
