<?xml version="1.0" encoding="utf-8"?>
<!DOCTYPE svg PUBLIC "-//W3C//DTD SVG 1.1//EN" "http://www.w3.org/Graphics/SVG/1.1/DTD/svg11.dtd">
<svg version="1.1" xmlns="http://www.w3.org/2000/svg" xmlns:xlink="http://www.w3.org/1999/xlink" width="32" height="32" viewBox="0 0 32 32">
<path d="M13.25 3.75c0 1.188-1.25 2.188-2.813 2.188-1.5 0-2.75-1-2.75-2.188s1.25-2.125 2.75-2.125c1.563 0 2.813 0.938 2.813 2.125zM23 1.625c-1.563 0-2.813 0.938-2.813 2.125s1.25 2.188 2.813 2.188c1.5 0 2.75-1 2.75-2.188s-1.25-2.125-2.75-2.125zM30.375 12.563c0 2.125-4.75 17.813-17 17.813-12.188 0-13.563-11.5-10.188-18.563 0.688-1.438 1.375-1.563 1.375-1.563h23.813c0 0 2 0.188 2 2.313zM27.5 13.125h-21.813c-1.438 2.875-2 7.5-0.063 10.75 1.75 3 5.188 3.625 7.75 3.625 9.313 0 13.438-11.5 14.125-14.375z"></path>
</svg>
