<?xml version="1.0" encoding="utf-8"?>
<!DOCTYPE svg PUBLIC "-//W3C//DTD SVG 1.1//EN" "http://www.w3.org/Graphics/SVG/1.1/DTD/svg11.dtd">
<svg version="1.1" xmlns="http://www.w3.org/2000/svg" xmlns:xlink="http://www.w3.org/1999/xlink" width="32" height="32" viewBox="0 0 32 32">
<path d="M16 0c-8.813 0-16 7.188-16 16s7.188 16 16 16c8.813 0 16-7.188 16-16s-7.188-16-16-16zM20.313 25.438c-1 0-1.938-0.25-2.75-0.75-0.5 0.063-1.063 0.125-1.625 0.125-4.875 0-8.813-3.938-8.813-8.75 0-0.5 0.063-0.938 0.125-1.375-0.563-0.875-0.875-1.813-0.875-2.875 0-2.938 2.375-5.25 5.313-5.25 1.063 0 2 0.313 2.875 0.813 0.438-0.063 0.875-0.125 1.375-0.125 4.875 0 8.813 3.938 8.813 8.813 0 0.375 0 0.813-0.063 1.188 0.563 0.813 0.938 1.875 0.938 2.938 0 2.938-2.375 5.25-5.313 5.25zM14.875 14.375c-2.563-0.625-1.188-2.813 0.875-2.813 2 0.063 3 2.188 3.938 2.063s1.688-1.5 0.25-2.688c-1.25-1.063-2.813-1.625-5.188-1.438-1.875 0.188-3.688 1.375-3.875 3.75-0.25 2.375 2.563 3.563 4.75 3.938 1.563 0.188 3.688 0.938 2.438 2.438-1.188 1.313-3.375 0.5-4 0.125-0.563-0.375-1.188-1.688-2.313-1.625-1.063 0.063-1.625 1.5-0.313 2.813 1.25 1.125 2.563 1.75 5.313 1.563 2.813-0.125 5.375-2.625 4.375-4.938s-3.75-2.563-6.25-3.188z"></path>
</svg>
