<?xml version="1.0" encoding="utf-8"?>
<!DOCTYPE svg PUBLIC "-//W3C//DTD SVG 1.1//EN" "http://www.w3.org/Graphics/SVG/1.1/DTD/svg11.dtd">
<svg version="1.1" xmlns="http://www.w3.org/2000/svg" xmlns:xlink="http://www.w3.org/1999/xlink" width="32" height="32" viewBox="0 0 32 32">
<path d="M0 0v6.125c14.25 0 25.875 11.625 25.875 25.875h6.125c0-17.625-14.375-32-32-32zM14.938 32h6.188c0-11.625-9.5-21.125-21.125-21.125v6.125c4 0 7.75 1.563 10.563 4.375s4.375 6.625 4.375 10.625zM4.25 31.938c2.375 0 4.25-1.875 4.25-4.25 0-2.313-1.875-4.25-4.25-4.25-2.313 0-4.25 1.938-4.25 4.25 0 2.375 1.938 4.25 4.25 4.25z"></path>
</svg>
