<?xml version="1.0" encoding="utf-8"?>
<!DOCTYPE svg PUBLIC "-//W3C//DTD SVG 1.1//EN" "http://www.w3.org/Graphics/SVG/1.1/DTD/svg11.dtd">
<svg version="1.1" xmlns="http://www.w3.org/2000/svg" xmlns:xlink="http://www.w3.org/1999/xlink" width="32" height="32" viewBox="0 0 32 32">
<path d="M26 0h-20c-3.313 0-6 2.688-6 6v20c0 3.313 2.688 6 6 6h20c3.313 0 6-2.688 6-6v-20c0-3.313-2.688-6-6-6zM26 25.25c0 0.438-0.313 0.75-0.75 0.75h-18.5c-0.438 0-0.75-0.313-0.75-0.75v-18.5c0-0.438 0.313-0.75 0.75-0.75h18.5c0.438 0 0.75 0.313 0.75 0.75zM20 8h4v4h-4zM12 16c0 2.188 1.813 4 4 4s4-1.813 4-4c0-2.188-1.813-4-4-4s-4 1.813-4 4zM21.938 16c0 3.313-2.688 5.938-5.938 5.938s-5.938-2.625-5.938-5.938c0-0.438 0.063-0.625 0.125-1h-2.188v9h16v-9h-2.188c0.063 0.375 0.125 0.563 0.125 1z"></path>
</svg>
