<?xml version="1.0" encoding="utf-8"?>
<!DOCTYPE svg PUBLIC "-//W3C//DTD SVG 1.1//EN" "http://www.w3.org/Graphics/SVG/1.1/DTD/svg11.dtd">
<svg version="1.1" xmlns="http://www.w3.org/2000/svg" xmlns:xlink="http://www.w3.org/1999/xlink" width="32" height="32" viewBox="0 0 32 32">
<path d="M26 0h-20c-3.313 0-6 2.688-6 6v20c0 3.313 2.688 6 6 6h20c3.313 0 6-2.688 6-6v-20c0-3.313-2.688-6-6-6zM26 19.563c0 3.5-2.938 6.438-6.5 6.438h-7c-3.563 0-6.5-2.938-6.5-6.438v-7.125c0-3.5 2.938-6.438 6.5-6.438h3.313c3.563 0 6.438 2.688 6.438 6.25 0.063 0.688 0.625 1.25 1.313 1.25h1.125c0.688 0 1.313 0.75 1.313 1.438zM19.75 18.5h-7.5c-0.688 0-1.25 0.563-1.25 1.25s0.563 1.25 1.25 1.25h7.5c0.688 0 1.25-0.563 1.25-1.25s-0.563-1.25-1.25-1.25zM12.25 13.5h3.75c0.688 0 1.25-0.563 1.25-1.25s-0.563-1.25-1.25-1.25h-3.75c-0.688 0-1.25 0.563-1.25 1.25s0.563 1.25 1.25 1.25z"></path>
</svg>
