<?xml version="1.0" encoding="utf-8"?>
<!DOCTYPE svg PUBLIC "-//W3C//DTD SVG 1.1//EN" "http://www.w3.org/Graphics/SVG/1.1/DTD/svg11.dtd">
<svg version="1.1" xmlns="http://www.w3.org/2000/svg" xmlns:xlink="http://www.w3.org/1999/xlink" width="32" height="32" viewBox="0 0 32 32">
<path d="M22.063 10.625c-3.5-0.813-7.25-0.813-11.125-0.188-0.125 0-0.25 0-0.375 0.063l-1.313-2.375c-1.25 0.125-2.375 0.438-3.5 0.75l1.25 2.563c-2 0.75-3.625 1.875-4.813 3.188-1.938 2.188-2.75 5-1.813 7.688 0.188 0.563 0.438 1.063 0.75 1.563l14.5-3.938-4-7.5c0.125 0 0.25-0.063 0.438-0.063 6.5-1.125 10.063 0.625 12 2.563l-4.938 1.188-2.125-3.313c-1.188-0.063-2.5 0-4.125 0.25l3.688 6.625 14.438-4c-0.125-0.375-0.375-0.75-0.625-1.063-1.5-1.75-4.75-3.313-8.313-4zM5.313 19.438c-0.438-2-0.125-4.313 2.75-5.813l2.188 4.625z"></path>
</svg>
