<?xml version="1.0" encoding="utf-8"?>
<!DOCTYPE svg PUBLIC "-//W3C//DTD SVG 1.1//EN" "http://www.w3.org/Graphics/SVG/1.1/DTD/svg11.dtd">
<svg version="1.1" xmlns="http://www.w3.org/2000/svg" xmlns:xlink="http://www.w3.org/1999/xlink" width="32" height="32" viewBox="0 0 32 32">
<path d="M26 0h-20c-3.313 0-6 2.688-6 6v20c0 3.313 2.688 6 6 6h20c3.313 0 6-2.688 6-6v-20c0-3.313-2.688-6-6-6zM16 11.688c-0.813 0-1.438 0.688-1.438 1.438v5.75c0 2.375-1.938 4.25-4.25 4.25-2.375 0-4.313-1.875-4.313-4.25v-2.875h2.875v2.875c0 0.75 0.625 1.438 1.438 1.438 0.75 0 1.375-0.688 1.375-1.438v-5.75c0-2.375 1.938-4.25 4.313-4.25s4.313 1.875 4.313 3.938v1.375l-1.875 0.563-1-0.563v-1.375c0-0.438-0.625-1.125-1.438-1.125zM26 18.875c0 2.375-1.938 4.25-4.313 4.25-2.313 0-4.25-1.875-4.25-4.563v-2.813l1 0.563 1.875-0.563v2.813c0 1.063 0.625 1.75 1.375 1.75 0.813 0 1.438-0.688 1.438-1.438v-2.875h2.875v2.875z"></path>
</svg>
