<?xml version="1.0" encoding="utf-8"?>
<!DOCTYPE svg PUBLIC "-//W3C//DTD SVG 1.1//EN" "http://www.w3.org/Graphics/SVG/1.1/DTD/svg11.dtd">
<svg version="1.1" xmlns="http://www.w3.org/2000/svg" xmlns:xlink="http://www.w3.org/1999/xlink" width="32" height="32" viewBox="0 0 32 32">
<path d="M10.313 24.313c0 1.5 0.125 2.625 0.438 3.375s0.875 1.5 1.688 2.188c0.75 0.688 1.75 1.188 2.875 1.563s1.938 0.563 3.438 0.563c1.25 0 2.5-0.125 3.563-0.375 1.125-0.25 2.313-0.625 3.688-1.313v-4.813c-1.625 1.063-2.563 1.313-4.188 1.313-0.938 0-1.688-0.25-2.438-0.688-0.5-0.313-1-0.813-1.188-1.375-0.188-0.5-0.188-1.563-0.188-3.438v-7.313h8v-6h-8v-8h-5.188c-0.188 1.625-0.563 3-1.125 4.063-0.5 1.063-1.25 2-2.125 2.75s-2.313 1.375-3.563 1.75v5.438h4.313v10.313z"></path>
</svg>
