<?xml version="1.0" encoding="utf-8"?>
<!DOCTYPE svg PUBLIC "-//W3C//DTD SVG 1.1//EN" "http://www.w3.org/Graphics/SVG/1.1/DTD/svg11.dtd">
<svg version="1.1" xmlns="http://www.w3.org/2000/svg" xmlns:xlink="http://www.w3.org/1999/xlink" width="32" height="32" viewBox="0 0 32 32">
<path d="M19.75 17.188c1.313 3.688 1.875 6.688 1.938 7.313 2.313-1.563 3.938-4 4.438-6.875-0.375-0.125-3.188-0.938-6.375-0.438zM17.75 17.688c-5.75 2-7.875 6-8 6.375 1.688 1.375 3.875 2.188 6.25 2.188 1.438 0 2.75-0.313 4-0.813-0.125-0.875-0.75-4.063-2.188-7.75 0 0-0.063 0-0.063 0zM18.188 13.563c0.25 0.5 0.5 1 0.688 1.5 0.063 0.188 0.125 0.375 0.25 0.5 3.375-0.375 6.75 0.313 7.125 0.375-0.063-2.438-0.938-4.625-2.313-6.375-0.25 0.25-1.938 2.5-5.75 4zM16.688 16.125c0.188-0.063 0.313-0.125 0.438-0.125-0.25-0.625-0.563-1.188-0.813-1.75-5.125 1.5-10.063 1.438-10.563 1.438 0 0.125 0 0.25 0 0.313 0 2.625 1 5.063 2.625 6.875 0.25-0.438 3.063-5.063 8.313-6.75zM15.438 12.688c-1.688-3-3.5-5.563-3.813-5.938-2.813 1.375-5 4-5.625 7.188 0.438 0 4.688 0 9.438-1.25zM22.75 8.375c-1.75-1.625-4.125-2.563-6.75-2.563-0.813 0-1.625 0.063-2.375 0.25 0.25 0.375 2.125 2.938 3.813 6 3.625-1.375 5.188-3.438 5.313-3.688zM16 0c-8.813 0-16 7.188-16 16s7.188 16 16 16c8.813 0 16-7.188 16-16s-7.188-16-16-16zM16 28c-6.625 0-12-5.375-12-12s5.375-12 12-12c6.625 0 12 5.375 12 12s-5.375 12-12 12z"></path>
</svg>
