<?xml version="1.0" encoding="utf-8"?>
<!DOCTYPE svg PUBLIC "-//W3C//DTD SVG 1.1//EN" "http://www.w3.org/Graphics/SVG/1.1/DTD/svg11.dtd">
<svg version="1.1" xmlns="http://www.w3.org/2000/svg" xmlns:xlink="http://www.w3.org/1999/xlink" width="32" height="32" viewBox="0 0 32 32">
<path d="M8.313 17.938c1.5-2.625-0.5-3.25-0.813-5.125-1.25-7.875 9.063-13.25 14.5-7.75 3.75 3.813 1.25 15.5-4.75 14.25-5.813-1.125 2.813-10.438-1.813-12.25-3.75-1.5-5.75 4.5-3.938 7.5-1.063 5.188-3.313 10-2.375 16.438 2.938-2.125 3.938-6.188 4.75-10.5 1.438 0.938 2.25 1.875 4.125 2 7 0.563 10.875-6.938 9.938-13.875-0.875-6.125-7-9.25-13.5-8.5-5.125 0.563-10.313 4.75-10.5 10.688-0.125 3.625 0.875 6.375 4.375 7.125z"></path>
</svg>
