<?xml version="1.0" encoding="utf-8"?>
<!DOCTYPE svg PUBLIC "-//W3C//DTD SVG 1.1//EN" "http://www.w3.org/Graphics/SVG/1.1/DTD/svg11.dtd">
<svg version="1.1" xmlns="http://www.w3.org/2000/svg" xmlns:xlink="http://www.w3.org/1999/xlink" width="32" height="32" viewBox="0 0 32 32">
<path d="M26 0h-20c-3.313 0-6 2.688-6 6v20c0 3.313 2.688 6 6 6h20c3.313 0 6-2.688 6-6v-20c0-3.313-2.688-6-6-6zM10.125 20c-2.25 0-4.063-1.813-4.063-4.063s1.813-4.063 4.063-4.063c2.25 0 4.063 1.813 4.063 4.063s-1.813 4.063-4.063 4.063zM21.938 20c-2.25 0-4.063-1.813-4.063-4.063s1.813-4.063 4.063-4.063c2.25 0 4.063 1.813 4.063 4.063s-1.813 4.063-4.063 4.063z"></path>
</svg>
