<?xml version="1.0" encoding="utf-8"?>
<!DOCTYPE svg PUBLIC "-//W3C//DTD SVG 1.1//EN" "http://www.w3.org/Graphics/SVG/1.1/DTD/svg11.dtd">
<svg version="1.1" xmlns="http://www.w3.org/2000/svg" xmlns:xlink="http://www.w3.org/1999/xlink" width="32" height="32" viewBox="0 0 32 32">
<path d="M16 0c-8.813 0-16 7.188-16 16s7.188 16 16 16c8.813 0 16-7.188 16-16s-7.188-16-16-16zM26 16v9.313c0 0.375-0.313 0.688-0.688 0.688h-18.313c-0.563 0-1-0.438-1-1v-18.313c0-0.375 0.313-0.688 0.688-0.688h18.313c0.563 0 1 0.438 1 1zM8 16h8v8h-8zM16 8h8v8h-8z"></path>
</svg>
