<?xml version="1.0" encoding="utf-8"?>
<!DOCTYPE svg PUBLIC "-//W3C//DTD SVG 1.1//EN" "http://www.w3.org/Graphics/SVG/1.1/DTD/svg11.dtd">
<svg version="1.1" xmlns="http://www.w3.org/2000/svg" xmlns:xlink="http://www.w3.org/1999/xlink" width="32" height="32" viewBox="0 0 32 32">
<path d="M23.563 9.438c0.875 0.688 2 1.063 3.188 1.063 2.875 0 5.25-2.375 5.25-5.25s-2.375-5.25-5.25-5.25c-2.875 0-5.25 2.375-5.25 5.25 0 0 0 0 0 0l-13 6.25c-0.875-0.688-2-1.125-3.25-1.125-2.875 0-5.25 2.375-5.25 5.25 0 2.938 2.375 5.25 5.25 5.25 1.063 0 2-0.313 2.875-0.813l13.375 6.438c0 0 0 0 0 0 0 2.938 2.375 5.313 5.25 5.313s5.25-2.375 5.25-5.313c0-2.875-2.375-5.25-5.25-5.25-1.188 0-2.313 0.438-3.188 1.063l-13.063-6.313c0-0.063 0-0.125 0-0.25z"></path>
</svg>
