<?xml version="1.0" encoding="utf-8"?>
<!DOCTYPE svg PUBLIC "-//W3C//DTD SVG 1.1//EN" "http://www.w3.org/Graphics/SVG/1.1/DTD/svg11.dtd">
<svg version="1.1" xmlns="http://www.w3.org/2000/svg" xmlns:xlink="http://www.w3.org/1999/xlink" width="32" height="32" viewBox="0 0 32 32">
<path d="M31.125 3.5c-1.25 0.75-2.688 1.25-4.188 1.563-1.188-1.25-2.875-2.063-4.813-2.063-3.625 0-6.563 2.938-6.563 6.563 0 0.5 0.063 1 0.188 1.5-5.438-0.25-10.313-2.875-13.5-6.875-0.563 1-0.938 2.125-0.938 3.313 0 2.25 1.188 4.313 2.938 5.438-1.063 0-2.063-0.313-2.938-0.813 0 0.063 0 0.063 0 0.125 0 3.125 2.25 5.813 5.25 6.438-0.563 0.125-1.125 0.188-1.75 0.188-0.438 0-0.813 0-1.25-0.125 0.875 2.625 3.313 4.5 6.125 4.563-2.188 1.75-5.063 2.813-8.125 2.813-0.5 0-1.063 0-1.563-0.063 2.875 1.875 6.375 2.938 10.063 2.938 12.063 0 18.688-10 18.688-18.688 0-0.25 0-0.563 0-0.813 1.25-0.938 2.375-2.125 3.25-3.438-1.188 0.563-2.438 0.875-3.75 1.063 1.313-0.813 2.375-2.125 2.875-3.625z"></path>
</svg>
