<?xml version="1.0" encoding="utf-8"?>
<!DOCTYPE svg PUBLIC "-//W3C//DTD SVG 1.1//EN" "http://www.w3.org/Graphics/SVG/1.1/DTD/svg11.dtd">
<svg version="1.1" xmlns="http://www.w3.org/2000/svg" xmlns:xlink="http://www.w3.org/1999/xlink" width="32" height="32" viewBox="0 0 32 32">
<path d="M26 0h-20c-3.313 0-6 2.688-6 6v20c0 3.313 2.688 6 6 6h20c3.313 0 6-2.688 6-6v-20c0-3.313-2.688-6-6-6zM23.938 12.438c0 0.125 0.063 0.313 0.063 0.5 0 5.188-4 11.188-11.25 11.188-2.188 0-4.25-0.625-6-1.75 0.313 0 0.625 0.063 0.938 0.063 1.813 0 3.5-0.625 4.875-1.688-1.75-0.063-3.188-1.188-3.688-2.75 0.25 0.063 0.5 0.063 0.75 0.063 0.375 0 0.688-0.063 1.063-0.125-1.813-0.375-3.188-2-3.188-3.875 0 0 0-0.063 0-0.063 0.5 0.313 1.125 0.5 1.813 0.5-1.063-0.688-1.813-1.938-1.813-3.25 0-0.75 0.25-1.438 0.563-2 1.938 2.375 4.875 3.938 8.125 4.125-0.063-0.313-0.125-0.625-0.125-0.938 0-2.125 1.813-3.938 3.938-3.938 1.125 0 2.188 0.5 2.875 1.25 0.938-0.188 1.75-0.5 2.5-0.938-0.25 0.938-0.875 1.688-1.688 2.188 0.75-0.125 1.563-0.313 2.25-0.625-0.563 0.813-1.188 1.5-2 2.063z"></path>
</svg>
