<?xml version="1.0" encoding="utf-8"?>
<!DOCTYPE svg PUBLIC "-//W3C//DTD SVG 1.1//EN" "http://www.w3.org/Graphics/SVG/1.1/DTD/svg11.dtd">
<svg version="1.1" xmlns="http://www.w3.org/2000/svg" xmlns:xlink="http://www.w3.org/1999/xlink" width="32" height="32" viewBox="0 0 32 32">
<path d="M22 15.688l-2.125 0.75-1.875-0.75v3.875c0 3.75 2.688 6.438 6 6.438s6-2.688 6-6v-4h-4v4c0 1.125-0.875 2-2 2s-2-0.875-2-2.438zM8 26c3.313 0 6-2.688 6-6v-8c0-1.125 0.875-2 2-2s2 0.875 2 1.563v1.938l1.875 0.75 2.125-0.75v-1.938c0-2.875-2.688-5.563-6-5.563s-6 2.688-6 6v8c0 1.125-0.875 2-2 2s-2-0.875-2-2v-4h-4v4c0 3.313 2.688 6 6 6z"></path>
</svg>
