<?xml version="1.0" encoding="utf-8"?>
<!DOCTYPE svg PUBLIC "-//W3C//DTD SVG 1.1//EN" "http://www.w3.org/Graphics/SVG/1.1/DTD/svg11.dtd">
<svg version="1.1" xmlns="http://www.w3.org/2000/svg" xmlns:xlink="http://www.w3.org/1999/xlink" width="32" height="32" viewBox="0 0 32 32">
<path d="M16 0c-8.813 0-16 7.188-16 16s7.188 16 16 16c8.813 0 16-7.188 16-16s-7.188-16-16-16zM16 4c1.563 0 3.125 0.313 4.5 0.875v8.375l-8.563-8.563c1.313-0.438 2.625-0.688 4.063-0.688zM4.375 18.875c-0.25-0.938-0.375-1.875-0.375-2.875 0-4.563 2.5-8.5 6.25-10.5l3.75 3.75zM10 26.375c-2.188-1.25-4-3.25-5-5.625l5-5zM16 28c-1.563 0-3.125-0.313-4.5-0.875v-5.125h14.875c-2.063 3.563-5.938 6-10.375 6zM27.125 20.5h-5.125v-14.875c3.563 2.063 6 5.938 6 10.375 0 1.563-0.313 3.125-0.875 4.5z"></path>
</svg>
