<?xml version="1.0" encoding="utf-8"?>
<!DOCTYPE svg PUBLIC "-//W3C//DTD SVG 1.1//EN" "http://www.w3.org/Graphics/SVG/1.1/DTD/svg11.dtd">
<svg version="1.1" xmlns="http://www.w3.org/2000/svg" xmlns:xlink="http://www.w3.org/1999/xlink" width="32" height="32" viewBox="0 0 32 32">
<path d="M16 0c-8.813 0-16 7.188-16 16s7.188 16 16 16c8.813 0 16-7.188 16-16s-7.188-16-16-16zM19.313 19.625c0.5-0.375 1.125-0.625 1.813-0.625 1.625 0 2.938 1.375 2.938 3s-1.313 2.938-2.938 2.938c-1.688 0-3-1.313-3-2.938 0 0 0 0 0 0l-7.5-3.688c-0.5 0.313-1 0.5-1.625 0.5-1.625 0-2.938-1.313-2.938-2.938s1.313-3 2.938-3c0.688 0 1.313 0.25 1.875 0.688l7.25-3.563c0 0 0 0 0 0 0-1.625 1.313-2.938 3-2.938 1.625 0 2.938 1.313 2.938 2.938s-1.313 3-2.938 3c-0.688 0-1.313-0.25-1.813-0.625l-7.375 3.563c0 0.063 0 0.063 0 0.125z"></path>
</svg>
