<?xml version="1.0" encoding="utf-8"?>
<!DOCTYPE svg PUBLIC "-//W3C//DTD SVG 1.1//EN" "http://www.w3.org/Graphics/SVG/1.1/DTD/svg11.dtd">
<svg version="1.1" xmlns="http://www.w3.org/2000/svg" xmlns:xlink="http://www.w3.org/1999/xlink" width="32" height="32" viewBox="0 0 32 32">
<path d="M16 0c-8.813 0-16 7.188-16 16s7.188 16 16 16c8.813 0 16-7.188 16-16s-7.188-16-16-16zM25.813 19.563c-0.063 1.375-1.125 3.063-2.5 3.313-4.563 0.313-9.938 0.313-14.625 0-1.438-0.188-2.438-1.938-2.5-3.313-0.25-2.75-0.25-4.375 0-7.188 0.063-1.313 1.063-3.063 2.5-3.25 4.688-0.375 10.063-0.25 14.625 0 1.625 0.063 2.438 1.75 2.5 3.125 0.25 2.75 0.25 4.563 0 7.313zM14 20l6-4-6-4z"></path>
</svg>
