<?xml version="1.0" encoding="utf-8"?>
<!DOCTYPE svg PUBLIC "-//W3C//DTD SVG 1.1//EN" "http://www.w3.org/Graphics/SVG/1.1/DTD/svg11.dtd">
<svg version="1.1" xmlns="http://www.w3.org/2000/svg" xmlns:xlink="http://www.w3.org/1999/xlink" width="32" height="32" viewBox="0 0 32 32">
<path d="M16 0c-8.813 0-16 7.188-16 16s7.188 16 16 16c8.813 0 16-7.188 16-16s-7.188-16-16-16zM17.25 20.313c-1.188-0.063-1.688-0.688-2.563-1.188-0.5 2.625-1.125 5.125-2.938 6.5-0.563-4 0.813-7 1.438-10.188-1.063-1.875 0.125-5.625 2.438-4.688 2.875 1.125-2.438 6.875 1.125 7.625 3.75 0.75 5.25-6.5 2.938-8.875-3.313-3.375-9.75-0.063-8.938 4.813 0.188 1.188 1.438 1.563 0.5 3.188-2.125-0.5-2.813-2.188-2.688-4.438 0.125-3.688 3.313-6.25 6.5-6.625 4-0.438 7.813 1.5 8.313 5.313 0.625 4.25-1.813 8.938-6.125 8.563z"></path>
</svg>
