<?xml version="1.0" encoding="utf-8"?>
<!DOCTYPE svg PUBLIC "-//W3C//DTD SVG 1.1//EN" "http://www.w3.org/Graphics/SVG/1.1/DTD/svg11.dtd">
<svg version="1.1" xmlns="http://www.w3.org/2000/svg" xmlns:xlink="http://www.w3.org/1999/xlink" width="32" height="32" viewBox="0 0 32 32">
<path d="M16 0c-8.813 0-16 7.188-16 16s7.188 16 16 16c8.813 0 16-7.188 16-16s-7.188-16-16-16zM16 2.375c3.5 0 6.625 1.25 9.063 3.438-0.25 0.313-2.313 3.125-7.188 4.938-2.188-4.125-4.688-7.5-5.063-8 1-0.25 2.063-0.375 3.188-0.375zM10.188 3.625c0.375 0.5 2.813 3.875 5.063 7.938-6.375 1.688-12 1.688-12.625 1.688 0.875-4.25 3.75-7.813 7.563-9.625zM2.313 16c0-0.125 0-0.25 0-0.375 0.625 0 7.25 0.063 14.063-1.938 0.375 0.75 0.75 1.5 1.125 2.313-0.188 0-0.375 0.063-0.563 0.125-7.063 2.313-10.813 8.5-11.063 9.063-2.188-2.438-3.563-5.688-3.563-9.188zM16 29.688c-3.188 0-6.063-1.063-8.375-2.875 0.25-0.5 3-5.875 10.688-8.563 0.063 0 0.063 0 0.125 0 1.875 5 2.688 9.125 2.875 10.375-1.625 0.688-3.438 1.063-5.313 1.063zM23.625 27.375c-0.125-0.875-0.875-4.875-2.625-9.75 4.25-0.688 8 0.438 8.5 0.563-0.625 3.813-2.813 7.063-5.875 9.188zM20.125 15.438c-0.063-0.25-0.188-0.438-0.25-0.688-0.313-0.688-0.625-1.313-0.938-2 5.063-2.063 7.375-5 7.625-5.375 1.938 2.313 3.063 5.313 3.125 8.5-0.5-0.063-5-1-9.563-0.438z"></path>
</svg>
