<?xml version="1.0" encoding="utf-8"?>
<!DOCTYPE svg PUBLIC "-//W3C//DTD SVG 1.1//EN" "http://www.w3.org/Graphics/SVG/1.1/DTD/svg11.dtd">
<svg version="1.1" xmlns="http://www.w3.org/2000/svg" xmlns:xlink="http://www.w3.org/1999/xlink" width="32" height="32" viewBox="0 0 32 32">
<path d="M16 0c-8.813 0-16 7.188-16 16s7.188 16 16 16c8.813 0 16-7.188 16-16s-7.188-16-16-16zM17.125 18.563l-2.563-4.563c1.125-0.188 2.063-0.25 2.875-0.188l1.438 2.25 3.438-0.813c-1.375-1.313-3.813-2.563-8.313-1.75-0.125 0-0.25 0-0.313 0.063l2.813 5.125-10.063 2.813c-0.25-0.375-0.438-0.75-0.563-1.125-0.625-1.875-0.063-3.813 1.25-5.313 0.813-0.938 1.938-1.688 3.375-2.25l-0.875-1.75c0.75-0.25 1.563-0.438 2.438-0.563l0.875 1.688c0.125-0.063 0.188-0.063 0.313-0.063 2.625-0.375 5.25-0.438 7.688 0.125 2.438 0.5 4.688 1.563 5.75 2.75 0.188 0.25 0.375 0.5 0.5 0.75zM9.313 18.375l3.438-0.813-1.563-3.188c-1.938 1-2.188 2.625-1.875 4z"></path>
</svg>
