<?xml version="1.0" encoding="utf-8"?>
<!DOCTYPE svg PUBLIC "-//W3C//DTD SVG 1.1//EN" "http://www.w3.org/Graphics/SVG/1.1/DTD/svg11.dtd">
<svg version="1.1" xmlns="http://www.w3.org/2000/svg" xmlns:xlink="http://www.w3.org/1999/xlink" width="32" height="32" viewBox="0 0 32 32">
<path d="M26 0h-20c-3.313 0-6 2.688-6 6v20c0 3.313 2.688 6 6 6h20c3.313 0 6-2.688 6-6v-20c0-3.313-2.688-6-6-6zM3.688 16c0-1.75 0.375-3.375 1.063-4.875l5.875 15.688c-4.125-1.938-6.938-6.063-6.938-10.813zM16 28c-1.188 0-2.375-0.188-3.5-0.5l3.875-10.063 3.625 9.688c0 0.063 0.063 0.125 0.063 0.188-1.25 0.438-2.625 0.688-4.063 0.688zM17.688 10.375c0.75-0.063 1.438-0.125 1.438-0.125 0.625-0.063 0.563-1-0.125-1 0 0-2 0.188-3.25 0.188-1.188 0-3.25-0.188-3.25-0.188-0.688 0-0.75 1-0.063 1 0 0 0.625 0.063 1.25 0.125l1.938 5.125-2.938 7.875-4.25-13c0.75-0.063 1.438-0.125 1.438-0.125 0.625-0.063 0.563-1-0.063-1 0 0-2 0.188-3.313 0.188-0.25 0-0.5 0-0.813 0 2.25-3.313 6-5.438 10.313-5.438 3.188 0 6.125 1.188 8.313 3.125-0.063 0-0.125 0-0.125 0-1.25 0-2.125 1.063-2.125 2.125 0 1 0.625 1.875 1.25 2.813 0.438 0.813 0.813 1.25 0.813 2.75 0 1-0.438 2.188-0.938 3.875l-1.25 4zM22.188 26.375l3.75-10.625c0.75-1.688 0.938-3.063 0.938-4.25 0-0.438 0-0.875-0.063-1.25 0.938 1.688 1.5 3.688 1.5 5.75 0 4.438-2.438 8.313-6.125 10.375z"></path>
</svg>
