<?xml version="1.0" encoding="utf-8"?>
<!DOCTYPE svg PUBLIC "-//W3C//DTD SVG 1.1//EN" "http://www.w3.org/Graphics/SVG/1.1/DTD/svg11.dtd">
<svg version="1.1" xmlns="http://www.w3.org/2000/svg" xmlns:xlink="http://www.w3.org/1999/xlink" width="32" height="32" viewBox="0 0 32 32">
<path d="M16 0c-8.813 0-16 7.188-16 16s7.188 16 16 16c8.813 0 16-7.188 16-16s-7.188-16-16-16zM23.375 25.375c-0.188 0.375-0.563 0.563-0.938 0.563-0.188 0-0.375-0.063-0.563-0.125-2.563-1.438-5.438-2.188-8.375-2.188-1.75 0-3.5 0.313-5.188 0.813-0.563 0.188-1.188-0.125-1.375-0.75-0.188-0.563 0.125-1.813 0.75-2 1.875-0.563 3.813-0.875 5.813-0.875 3.313 0 6.563 0.875 9.438 2.438 0.563 0.313 0.75 1.625 0.438 2.125zM25.438 19.375c-0.25 0.438-0.688 1.125-1.125 1.125-0.25 0-0.438-0.063-0.625-0.125-3.188-1.688-6.625-2.5-10.188-2.5-2 0-3.938 0.25-5.875 0.813-0.688 0.188-1.375-0.25-1.563-0.938s0.188-1.813 0.875-2c2.125-0.625 4.313-0.875 6.563-0.875 3.938 0 7.875 0.938 11.375 2.75 0.625 0.313 0.875 1.125 0.563 1.75zM27.563 13.563c-0.25 0.5-0.75 0.938-1.313 0.938-0.188 0-0.438 0-0.625-0.125-3.813-1.875-7.875-2.875-12.125-2.875-2.25 0-4.438 0.313-6.563 0.813-0.813 0.188-1.625-0.25-1.813-1.063-0.188-0.75 0.313-1.75 1.063-1.938 2.375-0.563 4.813-0.875 7.313-0.875 4.688 0 9.25 1.063 13.438 3.188 0.688 0.313 1 1.188 0.625 1.938z"></path>
</svg>
