<?xml version="1.0" encoding="utf-8"?>
<!DOCTYPE svg PUBLIC "-//W3C//DTD SVG 1.1//EN" "http://www.w3.org/Graphics/SVG/1.1/DTD/svg11.dtd">
<svg version="1.1" xmlns="http://www.w3.org/2000/svg" xmlns:xlink="http://www.w3.org/1999/xlink" width="32" height="32" viewBox="0 0 32 32">
<path d="M16 0c-8.813 0-16 7.188-16 16s7.188 16 16 16c8.813 0 16-7.188 16-16s-7.188-16-16-16zM22 14.813h-4.813v4.375c0 1.125 0 1.75 0.125 2.063s0.375 0.625 0.75 0.813c0.375 0.313 0.875 0.438 1.438 0.438 0.938 0 1.563-0.125 2.5-0.813v2.938c-0.813 0.375-1.563 0.563-2.188 0.75-0.688 0.125-1.375 0.25-2.188 0.25-0.875 0-1.375-0.125-2.063-0.375-0.688-0.188-1.25-0.5-1.688-0.938-0.5-0.375-0.813-0.813-1-1.313-0.188-0.438-0.313-1.125-0.313-2v-6.75h-2.563v-2.688c0.75-0.25 1.625-0.625 2.125-1.063 0.563-0.438 1-1 1.313-1.625 0.313-0.688 0.563-1.5 0.688-2.5h3.063v4.813h4.813z"></path>
</svg>
