<?xml version="1.0" encoding="utf-8"?>
<!DOCTYPE svg PUBLIC "-//W3C//DTD SVG 1.1//EN" "http://www.w3.org/Graphics/SVG/1.1/DTD/svg11.dtd">
<svg version="1.1" xmlns="http://www.w3.org/2000/svg" xmlns:xlink="http://www.w3.org/1999/xlink" width="32" height="32" viewBox="0 0 32 32">
<path d="M2.063 10h5.938v22h-5.938zM20.188 10c-2.188 0-3.25 1.063-4.188 1.75v-1.75h-5.938v22h5.938v-13.875c0 0-0.188-2.75 3.063-2.75 2 0 2.938 1.125 2.938 2.75v13.875h6.313v-13.625c0-7.5-6.063-8.375-8.125-8.375zM2 5c0 1.688 1.313 3 3 3s3-1.313 3-3c0-1.688-1.313-3-3-3s-3 1.313-3 3z"></path>
</svg>
