<?xml version="1.0" encoding="utf-8"?>
<!DOCTYPE svg PUBLIC "-//W3C//DTD SVG 1.1//EN" "http://www.w3.org/Graphics/SVG/1.1/DTD/svg11.dtd">
<svg version="1.1" xmlns="http://www.w3.org/2000/svg" xmlns:xlink="http://www.w3.org/1999/xlink" width="32" height="32" viewBox="0 0 32 32">
<path d="M26 0h-20c-3.313 0-6 2.688-6 6v20c0 3.313 2.688 6 6 6h20c3.313 0 6-2.688 6-6v-20c0-3.313-2.688-6-6-6zM25.5 11.625c-1.063 6.063-7.063 11.188-8.875 12.375-1.813 1.125-3.438-0.5-4.063-1.75-0.688-1.375-2.688-9.063-3.25-9.688-0.5-0.625-2.125 0.625-2.125 0.625l-0.813-1c0 0 3.313-3.875 5.75-4.375 2.688-0.563 2.625 4 3.313 6.563 0.563 2.438 1 3.875 1.563 3.875 0.5 0 1.563-1.375 2.625-3.5 1.125-2.063 0-3.938-2.188-2.625 0.875-5.25 9.125-6.5 8.063-0.5z"></path>
</svg>
