<?xml version="1.0" encoding="utf-8"?>
<!DOCTYPE svg PUBLIC "-//W3C//DTD SVG 1.1//EN" "http://www.w3.org/Graphics/SVG/1.1/DTD/svg11.dtd">
<svg version="1.1" xmlns="http://www.w3.org/2000/svg" xmlns:xlink="http://www.w3.org/1999/xlink" width="32" height="32" viewBox="0 0 32 32">
<path d="M17.25 9.438c3.438-2.063 5.313 0.875 3.563 4.125-1.75 3.313-3.375 5.438-4.25 5.438-0.813 0-1.438-2.188-2.438-6-1-4-1-11.125-5.125-10.313-3.875 0.75-9 6.875-9 6.875l1.25 1.563c0 0 2.5-2 3.313-1 0.875 1 4.063 13 5.125 15.25 0.938 1.938 3.563 4.5 6.375 2.688 2.813-1.875 12.25-9.875 13.938-19.375 1.625-9.438-11.375-7.5-12.75 0.75z"></path>
</svg>
