<?xml version="1.0" encoding="utf-8"?>
<!DOCTYPE svg PUBLIC "-//W3C//DTD SVG 1.1//EN" "http://www.w3.org/Graphics/SVG/1.1/DTD/svg11.dtd">
<svg version="1.1" xmlns="http://www.w3.org/2000/svg" xmlns:xlink="http://www.w3.org/1999/xlink" width="32" height="32" viewBox="0 0 32 32">
<path d="M29.938 12h-1.813c-1.063 0-2.063-0.938-2.125-2 0-5.688-4.625-10-10.375-10h-5.25c-5.688 0-10.375 4.625-10.375 10.313v11.375c0 5.688 4.688 10.313 10.375 10.313h11.25c5.75 0 10.375-4.625 10.375-10.313v-7.313c0-1.188-0.938-2.375-2.063-2.375zM10 8h6c1.125 0 2 0.875 2 2s-0.875 2-2 2h-6c-1.125 0-2-0.875-2-2s0.875-2 2-2zM22 24h-12c-1.125 0-2-0.875-2-2s0.875-2 2-2h12c1.125 0 2 0.875 2 2s-0.875 2-2 2z"></path>
</svg>
