<?xml version="1.0" encoding="utf-8"?>
<!DOCTYPE svg PUBLIC "-//W3C//DTD SVG 1.1//EN" "http://www.w3.org/Graphics/SVG/1.1/DTD/svg11.dtd">
<svg version="1.1" xmlns="http://www.w3.org/2000/svg" xmlns:xlink="http://www.w3.org/1999/xlink" width="32" height="32" viewBox="0 0 32 32">
<path d="M16 0c-8.813 0-16 7.188-16 16s7.188 16 16 16c8.813 0 16-7.188 16-16s-7.188-16-16-16zM8.625 25.938c-1.438 0-2.625-1.125-2.625-2.563s1.188-2.625 2.625-2.625c1.438 0 2.625 1.188 2.625 2.625s-1.188 2.563-2.625 2.563zM15.188 26c0-2.5-0.938-4.813-2.688-6.5-1.75-1.75-4-2.688-6.5-2.688v-3.75c7.125 0 12.938 5.813 12.938 12.938zM21.813 26c0-8.75-7.063-15.875-15.75-15.875v-3.75c10.75 0 19.563 8.813 19.563 19.625z"></path>
</svg>
