<?xml version="1.0" encoding="utf-8"?>
<!DOCTYPE svg PUBLIC "-//W3C//DTD SVG 1.1//EN" "http://www.w3.org/Graphics/SVG/1.1/DTD/svg11.dtd">
<svg version="1.1" xmlns="http://www.w3.org/2000/svg" xmlns:xlink="http://www.w3.org/1999/xlink" width="32" height="32" viewBox="0 0 32 32">
<path d="M16 0c-8.813 0-16 7.188-16 16s7.188 16 16 16c8.813 0 16-7.188 16-16s-7.188-16-16-16zM16.563 8c0.188-0.375 0.438-0.75 0.688-1.063 0.313-0.25 0.625-0.5 1.063-0.688 0.375-0.188 0.813-0.25 1.25-0.25s0.875 0.063 1.25 0.25c0.438 0.188 0.75 0.438 1.063 0.688 0.25 0.313 0.5 0.688 0.688 1.063s0.25 0.813 0.25 1.25c0 0.438-0.063 0.875-0.25 1.25-0.188 0.438-0.438 0.75-0.688 1.063-0.313 0.313-0.625 0.5-1.063 0.688-0.375 0.188-0.813 0.25-1.25 0.25s-0.875-0.063-1.25-0.25c-0.438-0.188-0.75-0.375-1.063-0.688-0.25-0.313-0.5-0.625-0.688-1.063-0.188-0.375-0.25-0.813-0.25-1.25s0.063-0.875 0.25-1.25zM11.5 7.438c0.5-0.438 1.063-0.688 1.75-0.688s1.313 0.25 1.813 0.688c0.438 0.5 0.688 1.125 0.688 1.813s-0.25 1.25-0.688 1.75c-0.5 0.5-1.125 0.75-1.813 0.75s-1.25-0.25-1.75-0.75c-0.5-0.5-0.75-1.063-0.75-1.75s0.25-1.313 0.75-1.813zM7.125 7.938c0.375-0.375 0.813-0.563 1.375-0.563 0.5 0 1 0.188 1.313 0.563 0.375 0.375 0.563 0.813 0.563 1.313 0 0.563-0.188 1-0.563 1.375-0.313 0.375-0.813 0.563-1.313 0.563-0.563 0-1-0.188-1.375-0.563s-0.563-0.813-0.563-1.375c0-0.5 0.188-0.938 0.563-1.313zM24 26h-8.813v-4h-5.5v-4h-3.25v-3.625c0-0.688-0.063-1.188 0.438-1.625 0.438-0.5 1-0.688 1.625-0.688 0.563 0 1 0.125 1.438 0.5 0.375 0.313 0.625 0.75 0.75 1.25 0.375-0.375 0.75-0.688 1.188-0.875 0.438-0.25 0.875-0.313 1.375-0.313 0.813 0 1.438 0.188 2.063 0.688 0.563 0.438 0.938 1.063 1.125 1.75 0.438-0.375 0.875-0.688 1.438-0.938 0.5-0.188 1.063-0.313 1.688-0.313s1.188 0.125 1.75 0.313c0.5 0.25 1 0.563 1.375 0.938 0.438 0.438 0.75 0.875 1 1.438 0.188 0.5 0.313 1.125 0.313 1.688z"></path>
</svg>
