<?xml version="1.0" encoding="utf-8"?>
<!DOCTYPE svg PUBLIC "-//W3C//DTD SVG 1.1//EN" "http://www.w3.org/Graphics/SVG/1.1/DTD/svg11.dtd">
<svg version="1.1" xmlns="http://www.w3.org/2000/svg" xmlns:xlink="http://www.w3.org/1999/xlink" width="32" height="32" viewBox="0 0 32 32">
<path d="M26 0h-20c-3.313 0-6 2.688-6 6v20c0 3.313 2.688 6 6 6h20c3.313 0 6-2.688 6-6v-20c0-3.313-2.688-6-6-6zM12 23.75h-4v-14h4zM10.125 8.875c-1.063 0-1.875-0.813-1.875-1.875 0-1 0.813-1.875 1.875-1.875s1.875 0.875 1.875 1.875c0 1.063-0.813 1.875-1.875 1.875zM26 23.75h-4v-8.625c0-1.063-0.313-1.75-1.563-1.75-2.063 0-2.438 1.75-2.438 1.75v8.625h-4v-14h4v1.313c0.563-0.438 2-1.313 4-1.313 1.313 0 4 0.75 4 5.438z"></path>
</svg>
