<?xml version="1.0" encoding="utf-8"?>
<!DOCTYPE svg PUBLIC "-//W3C//DTD SVG 1.1//EN" "http://www.w3.org/Graphics/SVG/1.1/DTD/svg11.dtd">
<svg version="1.1" xmlns="http://www.w3.org/2000/svg" xmlns:xlink="http://www.w3.org/1999/xlink" width="32" height="32" viewBox="0 0 32 32">
<path d="M14.125 10.313c-1.875 0-3.688 0.25-5.5 0.688-0.563 0.125-0.938 0.875-0.75 1.438 0.125 0.563 0.75 0.938 1.313 0.813 1.625-0.375 3.25-0.625 4.938-0.625 3.188 0 6.25 0.75 9.063 2.125 0.188 0.125 0.375 0.125 0.5 0.125 0.438 0 0.813-0.313 1-0.688 0.25-0.563 0.063-1.25-0.5-1.5-3.125-1.563-6.563-2.375-10.063-2.375zM14.125 19.625c-1.5 0-2.938 0.25-4.375 0.688-0.438 0.125-0.688 1.063-0.563 1.438 0.125 0.438 0.625 0.688 1.063 0.563 1.25-0.375 2.563-0.563 3.875-0.563 2.188 0 4.375 0.563 6.313 1.625 0.125 0.063 0.25 0.063 0.375 0.063 0.313 0 0.563-0.125 0.75-0.375 0.188-0.438 0.063-1.375-0.313-1.625-2.188-1.188-4.625-1.813-7.125-1.813zM22.688 17.188c-2.625-1.313-5.625-2.063-8.563-2.063-1.688 0-3.313 0.25-4.875 0.688-0.563 0.125-0.813 1-0.688 1.5s0.625 0.813 1.188 0.688c1.375-0.375 2.875-0.625 4.375-0.625 2.688 0 5.25 0.688 7.625 1.875 0.188 0.125 0.313 0.125 0.438 0.125 0.375 0 0.688-0.563 0.875-0.875 0.25-0.438 0.063-1.063-0.375-1.313zM16 0c-8.813 0-16 7.188-16 16s7.188 16 16 16c8.813 0 16-7.188 16-16s-7.188-16-16-16zM16 28c-6.625 0-12-5.375-12-12s5.375-12 12-12c6.625 0 12 5.375 12 12s-5.375 12-12 12z"></path>
</svg>
