<?xml version="1.0" encoding="utf-8"?>
<!DOCTYPE svg PUBLIC "-//W3C//DTD SVG 1.1//EN" "http://www.w3.org/Graphics/SVG/1.1/DTD/svg11.dtd">
<svg version="1.1" xmlns="http://www.w3.org/2000/svg" xmlns:xlink="http://www.w3.org/1999/xlink" width="32" height="32" viewBox="0 0 32 32">
<path d="M16 0c-8.813 0-16 7.188-16 16s7.188 16 16 16c8.813 0 16-7.188 16-16s-7.188-16-16-16zM11.563 26.75c-3.563 0-6.563-1.438-6.563-3.75s2.75-4.563 6.25-4.563c0.438 0 0.75 0 1.125 0-0.5-0.5-0.875-1.063-0.875-1.813 0-0.375 0.125-0.813 0.313-1.188-0.188 0.063-0.375 0.063-0.563 0.063-2.938 0-4.875-2.063-4.875-4.625s2.688-4.688 5.563-4.688c1.625 0 6.375 0 6.375 0l-1.438 1h-2c1.313 0.5 2.063 2.125 2.063 3.688 0 1.375-0.75 2.5-1.813 3.313s-1.25 1.188-1.25 1.875c0 0.563 1.125 1.563 1.688 1.938 1.688 1.188 2.25 2.313 2.25 4.188 0 2.313-2.25 4.563-6.25 4.563zM28 14.063h-4v3.938h-2v-3.938h-4v-2.063h4v-4h2v4h4zM13.563 19.25c-0.5-0.125-1.063-0.25-1.625-0.25-2.438 0-4.625 1.5-4.625 3.313 0 1.875 1.75 3.438 4.188 3.438 3.438 0 4.688-1.438 4.688-3.313 0-0.25-0.063-0.438-0.125-0.688-0.25-1-1.188-1.563-2.5-2.5zM14.625 11c-0.25-2.125-1.813-3.875-3.5-3.938-1.625-0.063-2.75 1.625-2.438 3.75 0.25 2.188 1.813 4 3.5 4 1.625 0.063 2.75-1.625 2.438-3.813z"></path>
</svg>
