<?xml version="1.0" encoding="utf-8"?>
<!DOCTYPE svg PUBLIC "-//W3C//DTD SVG 1.1//EN" "http://www.w3.org/Graphics/SVG/1.1/DTD/svg11.dtd">
<svg version="1.1" xmlns="http://www.w3.org/2000/svg" xmlns:xlink="http://www.w3.org/1999/xlink" width="32" height="32" viewBox="0 0 32 32">
<path d="M15.813 8c0.75-0.75 1.125-1.688 1.125-2.813s-0.375-2.063-1.125-2.813c-0.813-0.813-1.75-1.188-2.875-1.188-1.063 0-2 0.375-2.813 1.188-0.75 0.75-1.188 1.688-1.188 2.813s0.438 2.063 1.188 2.813c0.813 0.813 1.75 1.188 2.813 1.188 1.125 0 2.063-0.375 2.875-1.188zM19.375 8.875c0.438 0.5 1 0.875 1.625 1.125s1.313 0.438 2.063 0.438c0.688 0 1.375-0.188 2-0.438s1.188-0.625 1.625-1.125c0.5-0.438 0.875-1 1.125-1.625 0.313-0.625 0.438-1.313 0.438-2.063 0-0.688-0.125-1.375-0.438-2-0.25-0.625-0.625-1.188-1.125-1.688-0.438-0.438-1-0.813-1.625-1.063-0.625-0.313-1.313-0.438-2-0.438-0.75 0-1.438 0.125-2.063 0.438-0.625 0.25-1.188 0.625-1.625 1.063-0.5 0.5-0.875 1.063-1.125 1.688-0.313 0.625-0.438 1.313-0.438 2 0 0.75 0.125 1.438 0.438 2.063 0.25 0.625 0.625 1.188 1.125 1.625zM5.313 8.25c0.875 0 1.563-0.25 2.125-0.875 0.625-0.625 0.875-1.313 0.875-2.188 0-0.813-0.25-1.5-0.875-2.125-0.563-0.563-1.25-0.875-2.125-0.875s-1.563 0.313-2.188 0.875c-0.563 0.625-0.875 1.313-0.875 2.125 0 0.875 0.313 1.563 0.875 2.188 0.625 0.563 1.313 0.875 2.188 0.875zM28.063 14.5c-0.625-0.625-1.375-1.125-2.25-1.5s-1.813-0.563-2.75-0.563c-1 0-1.938 0.188-2.75 0.563-0.875 0.375-1.625 0.875-2.25 1.5-0.313-1.125-0.938-2.063-1.875-2.813s-2-1.125-3.25-1.125c-0.813 0-1.563 0.125-2.25 0.5-0.688 0.313-1.313 0.813-1.813 1.375-0.188-0.75-0.625-1.438-1.25-1.938-0.688-0.563-1.438-0.813-2.313-0.813-1.063 0-1.938 0.375-2.625 1.063s-0.688 1.625-0.688 2.625v6.438h5.25v5.188h8.813v7h14.063v-12.438c0-1-0.125-1.938-0.563-2.75-0.375-0.875-0.875-1.625-1.5-2.313z"></path>
</svg>
