<?xml version="1.0" encoding="utf-8"?>
<!DOCTYPE svg PUBLIC "-//W3C//DTD SVG 1.1//EN" "http://www.w3.org/Graphics/SVG/1.1/DTD/svg11.dtd">
<svg version="1.1" xmlns="http://www.w3.org/2000/svg" xmlns:xlink="http://www.w3.org/1999/xlink" width="32" height="32" viewBox="0 0 32 32">
<path d="M8 29.875v-14.188l-6.688 6.688c1.375 3.125 3.75 5.75 6.688 7.5zM10 30.813c1.875 0.75 3.875 1.188 6 1.188 5.938 0 11.063-3.188 13.875-8h-19.875zM13.313 7l-5-5c-4.938 2.688-8.313 7.938-8.313 14 0 1.313 0.188 2.625 0.438 3.875zM22 1.188c-1.875-0.75-3.875-1.188-6-1.188-1.875 0-3.688 0.313-5.375 0.938l11.375 11.375zM24 2.125v19.875h6.813c0.75-1.875 1.188-3.875 1.188-6 0-5.938-3.188-11.063-8-13.875z"></path>
</svg>
