<?xml version="1.0" encoding="utf-8"?>
<!DOCTYPE svg PUBLIC "-//W3C//DTD SVG 1.1//EN" "http://www.w3.org/Graphics/SVG/1.1/DTD/svg11.dtd">
<svg version="1.1" xmlns="http://www.w3.org/2000/svg" xmlns:xlink="http://www.w3.org/1999/xlink" width="32" height="32" viewBox="0 0 32 32">
<path d="M8.563 29.125c5.313 0 8.25-3 8.25-6.063 0-2.438-0.75-3.875-2.938-5.438-0.75-0.563-2.188-1.813-2.188-2.625 0-0.875 0.25-1.313 1.563-2.375 1.438-1.063 2.375-2.625 2.375-4.375 0-2.125-0.938-4.125-2.688-4.813h2.688l1.875-1.375c0 0-6.313 0-8.375 0-3.75 0-7.313 2.875-7.313 6.125 0 3.375 2.563 6.125 6.375 6.125 0.25 0 0.5 0 0.75-0.063-0.25 0.5-0.375 1-0.375 1.563 0 0.938 0.5 1.688 1.125 2.313-0.5 0-0.938 0-1.438 0-4.688 0-8.25 3-8.25 6.063 0 3 3.938 4.938 8.563 4.938zM9.375 13.438c-2.125-0.063-4.188-2.438-4.563-5.25s1.063-5 3.25-4.938c2.125 0.063 4.188 2.313 4.563 5.188 0.375 2.813-1.063 5.063-3.25 5zM9.125 18.938c0.75 0 1.438 0.125 2.063 0.313 1.75 1.25 3 1.938 3.375 3.313 0.063 0.25 0.063 0.563 0.063 0.875 0 2.438-1.563 4.313-6.063 4.313-3.25 0-5.563-2-5.563-4.438s2.875-4.438 6.125-4.375zM26 8v-5.938h-2v5.938h-6v2h6v6.063h2v-6.063h6v-2z"></path>
</svg>
