<?xml version="1.0" encoding="utf-8"?>
<!DOCTYPE svg PUBLIC "-//W3C//DTD SVG 1.1//EN" "http://www.w3.org/Graphics/SVG/1.1/DTD/svg11.dtd">
<svg version="1.1" xmlns="http://www.w3.org/2000/svg" xmlns:xlink="http://www.w3.org/1999/xlink" width="32" height="32" viewBox="0 0 32 32">
<path d="M30.625 16.063c0-8.063-6.563-14.625-14.688-14.625-0.813 0-1.625 0.063-2.375 0.188-1.375-0.875-3-1.375-4.813-1.375-4.813 0-8.75 3.875-8.75 8.75 0 1.75 0.5 3.375 1.438 4.75-0.125 0.75-0.188 1.563-0.188 2.313 0 8.063 6.563 14.625 14.688 14.625 0.875 0 1.813-0.063 2.688-0.25 1.313 0.875 2.875 1.313 4.625 1.313 4.813 0 8.75-3.875 8.75-8.75 0-1.813-0.563-3.5-1.5-4.938 0.063-0.625 0.125-1.313 0.125-2zM17.313 26.875c-4.688 0.25-6.875-0.813-8.875-2.688-2.25-2.125-1.313-4.5 0.5-4.625s2.875 2.063 3.875 2.688c0.938 0.625 4.688 2 6.625-0.25 2.125-2.438-1.438-3.688-4-4.063-3.75-0.563-8.375-2.563-8-6.5 0.313-3.938 3.313-5.938 6.438-6.25 4-0.375 6.625 0.625 8.688 2.375 2.375 2 1.125 4.313-0.438 4.5-1.5 0.188-3.188-3.375-6.5-3.438-3.438 0-5.813 3.625-1.563 4.625 4.25 1.063 8.813 1.438 10.438 5.375 1.625 3.875-2.5 8-7.188 8.25z"></path>
</svg>
