<?xml version="1.0" encoding="utf-8"?>
<!DOCTYPE svg PUBLIC "-//W3C//DTD SVG 1.1//EN" "http://www.w3.org/Graphics/SVG/1.1/DTD/svg11.dtd">
<svg version="1.1" xmlns="http://www.w3.org/2000/svg" xmlns:xlink="http://www.w3.org/1999/xlink" width="32" height="32" viewBox="0 0 32 32">
<path d="M30.563 0h-29.125c-0.813 0-1.438 0.625-1.438 1.438v29.125c0 0.813 0.625 1.438 1.438 1.438h29.125c0.813 0 1.438-0.625 1.438-1.438v-29.125c0-0.813-0.625-1.438-1.438-1.438zM21.563 16c0 3.063-2.5 5.563-5.563 5.563s-5.563-2.5-5.563-5.563c0-3.063 2.5-5.563 5.563-5.563s5.563 2.5 5.563 5.563zM28 28h-24v-14h2.625c-0.125 0.625-0.188 1.313-0.188 2 0 5.313 4.25 9.563 9.563 9.563s9.563-4.25 9.563-9.563c0-0.688-0.063-1.375-0.188-2h2.625zM28 10h-6v-6h6z"></path>
</svg>
