<?xml version="1.0" encoding="utf-8"?>
<!DOCTYPE svg PUBLIC "-//W3C//DTD SVG 1.1//EN" "http://www.w3.org/Graphics/SVG/1.1/DTD/svg11.dtd">
<svg version="1.1" xmlns="http://www.w3.org/2000/svg" xmlns:xlink="http://www.w3.org/1999/xlink" width="32" height="32" viewBox="0 0 32 32">
<path d="M27 14v0c0 0.25 0.25 0.5 0.5 0.5s0.5-0.25 0.5-0.5c0 0 0 0 0 0 0-5.5-4.438-10-10-10 0 0 0 0 0 0-0.25 0-0.5 0.25-0.5 0.5s0.25 0.5 0.5 0.5v0c4.938 0 9 4.063 9 9zM9.125 0.875c-0.563-0.563-1.375-0.875-2.125-0.875-0.375 0-0.75 0.063-1.125 0.25-1.125 0.438-1.875 1.563-1.875 2.75v13.75l-3.125 3.125c-1.188 1.188-1.188 3.063 0 4.25l7 7c0.563 0.563 1.375 0.875 2.125 0.875s1.563-0.313 2.125-0.875l3.125-3.125h13.75c1.188 0 2.313-0.75 2.75-1.875 0.5-1.125 0.25-2.375-0.625-3.25zM13.813 26.563l-3.125 3.125c-0.25 0.25-0.563 0.313-0.688 0.313s-0.438-0.063-0.688-0.313l-7-7c-0.25-0.25-0.313-0.563-0.313-0.688s0.063-0.438 0.313-0.688l3.125-3.125c0 0 0-0.063 0-0.063l8.438 8.438c0 0-0.063 0-0.063 0zM15.25 26c-0.188 0-0.313 0.063-0.438 0.063l-8.875-8.875c0-0.125 0.063-0.25 0.063-0.438v-12.063l21.313 21.313zM29.938 25.375c-0.188 0.375-0.563 0.625-0.938 0.625h-0.313l-22.688-22.688v-0.313c0-0.375 0.25-0.75 0.625-0.938 0.125-0.063 0.25-0.063 0.375-0.063 0.25 0 0.5 0.125 0.688 0.313l22 22c0.313 0.25 0.375 0.688 0.25 1.063zM18 2v0c6.625 0 12 5.375 12 12v0c0 0.563 0.438 1 1 1s1-0.438 1-1c0 0 0 0 0 0 0-7.75-6.25-14-14-14 0 0 0 0 0 0-0.563 0-1 0.438-1 1s0.438 1 1 1z"></path>
</svg>
