<?xml version="1.0" encoding="utf-8"?>
<!DOCTYPE svg PUBLIC "-//W3C//DTD SVG 1.1//EN" "http://www.w3.org/Graphics/SVG/1.1/DTD/svg11.dtd">
<svg version="1.1" xmlns="http://www.w3.org/2000/svg" xmlns:xlink="http://www.w3.org/1999/xlink" width="32" height="32" viewBox="0 0 32 32">
<path d="M1.625 18.875c0 1 0.438 1.875 1.125 2.438v-4.875c-0.688 0.625-1.125 1.5-1.125 2.438zM3.938 15.813v6.125c0.313 0.125 0.625 0.125 0.938 0.125h0.313v-6.375c-0.125 0-0.25 0-0.313 0-0.313 0-0.625 0.063-0.938 0.125zM6.625 16.188c-0.063 0-0.188-0.063-0.25-0.125v6h1.188v-8c-0.5 0.625-0.813 1.375-0.938 2.125zM8.75 12.938v9.125h1.25v-9.75c-0.438 0.125-0.875 0.375-1.25 0.625zM11.188 12.063v10h1.188v-9.938c-0.25-0.063-0.5-0.063-0.75-0.063-0.125 0-0.313 0-0.438 0zM14.25 12.75c-0.375-0.188-0.813-0.375-1.25-0.5v9.813h1.813v-10c-0.188 0.188-0.375 0.438-0.563 0.688zM15.438 11.438v10.625h11.438c2.438-0.125 3.5-1.625 3.5-3.5 0-1.938-1.438-3.5-3.375-3.5-0.5 0-0.938 0.125-1.375 0.313-0.313-3.063-2.938-5.438-6.125-5.438-1.563 0-3 0.563-4.063 1.5z"></path>
</svg>
