<?xml version="1.0" encoding="utf-8"?>
<!DOCTYPE svg PUBLIC "-//W3C//DTD SVG 1.1//EN" "http://www.w3.org/Graphics/SVG/1.1/DTD/svg11.dtd">
<svg version="1.1" xmlns="http://www.w3.org/2000/svg" xmlns:xlink="http://www.w3.org/1999/xlink" width="32" height="32" viewBox="0 0 32 32">
<path d="M0 30.625h32v1.375h-32zM0 27.813h4.188v1.375h-4.188zM6.938 27.813h4.188v1.375h-4.188zM13.938 27.813h4.125v1.375h-4.125zM20.875 27.813h4.188v1.375h-4.188zM27.813 27.813h4.188v1.375h-4.188zM0 25.063h4.188v1.375h-4.188zM6.938 25.063h4.188v1.375h-4.188zM13.938 25.063h4.125v1.375h-4.125zM20.875 25.063h4.188v1.375h-4.188zM27.813 25.063h4.188v1.375h-4.188zM0 22.25h4.188v1.375h-4.188zM6.938 22.25h4.188v1.375h-4.188zM13.938 22.25h4.125v1.375h-4.125zM20.875 22.25h4.188v1.375h-4.188zM27.813 22.25h4.188v1.375h-4.188zM0 19.5h4.188v1.375h-4.188zM6.938 19.5h4.188v1.375h-4.188zM13.938 19.5h4.125v1.375h-4.125zM20.875 19.5h4.188v1.375h-4.188zM0 16.688h4.188v1.375h-4.188zM6.938 16.688h4.188v1.375h-4.188zM13.938 16.688h4.125v1.375h-4.125zM20.875 16.688h4.188v1.375h-4.188zM0 13.938h4.188v1.375h-4.188zM6.938 13.938h4.188v1.375h-4.188zM20.875 13.938h4.188v1.375h-4.188zM0 11.125h4.188v1.375h-4.188zM6.938 11.125h4.188v1.375h-4.188zM20.875 11.125h4.188v1.375h-4.188zM0 8.375h4.188v1.375h-4.188zM6.938 8.375h4.188v1.375h-4.188zM20.875 8.375h4.188v1.375h-4.188zM0 5.563h4.188v1.375h-4.188zM0 2.813h4.188v1.375h-4.188zM0 0h4.188v1.375h-4.188zM20.875 5.563h4.188v1.375h-4.188z"></path>
</svg>
