<?xml version="1.0" encoding="utf-8"?>
<!DOCTYPE svg PUBLIC "-//W3C//DTD SVG 1.1//EN" "http://www.w3.org/Graphics/SVG/1.1/DTD/svg11.dtd">
<svg version="1.1" xmlns="http://www.w3.org/2000/svg" xmlns:xlink="http://www.w3.org/1999/xlink" width="32" height="32" viewBox="0 0 32 32">
<path d="M30.938 4.813l-5.75 5.625c-0.5 0.563-1.125 0.813-1.813 0.813-0.625 0-1.313-0.25-1.813-0.813-1.063-1-1.063-2.625 0-3.625l5.625-5.625c-1.313-0.813-2.75-1.188-4.313-1.188-5.125 0-9.188 4.063-9.188 9.125 0 1.188 0.313 2.25 0.688 3.313l-14.375 14.313 5.25 5.25 14.313-14.375c1.063 0.375 2.125 0.688 3.313 0.688 5.063 0 9.125-4.063 9.125-9.188 0-1.563-0.375-3-1.063-4.313zM22.875 17c-0.938 0-2-0.125-2.875-0.563l-0.813-0.25-13.938 14-3.438-3.438 13.438-13.438 0.688-0.625-0.25-0.813c-0.563-0.75-0.688-1.813-0.688-2.75 0-4.313 3.563-7.813 7.875-7.813 0.625 0 1.313 0.125 2.063 0.25l-4.188 4.188c-1.563 1.563-1.563 4.063 0 5.5 0.813 0.75 1.688 1.125 2.75 1.125s2.125-0.375 2.75-1.125l4.188-4.188c0.125 0.625 0.25 1.313 0.25 2.063 0 4.313-3.5 7.875-7.813 7.875z"></path>
</svg>
