<?xml version="1.0" encoding="utf-8"?>
<!DOCTYPE svg PUBLIC "-//W3C//DTD SVG 1.1//EN" "http://www.w3.org/Graphics/SVG/1.1/DTD/svg11.dtd">
<svg version="1.1" xmlns="http://www.w3.org/2000/svg" xmlns:xlink="http://www.w3.org/1999/xlink" width="32" height="32" viewBox="0 0 32 32">
<path d="M17.875 30.563v-29.938c0-0.125-0.188-0.25-0.438-0.25-0.188 0-0.375 0.125-0.375 0.25l-0.063-0.063-8.313 8.313h-8.688v14.25h8.75l8.25 8.313h0.063c0.063 0.063 0.188 0.188 0.375 0.188 0.25 0 0.438-0.125 0.438-0.25v-0.813zM4.688 10.125v11.75h-0.938v-11.75zM1.25 10.125h1.25v11.75h-1.25zM9.313 21.875v0h-3.438v-11.75h3.375v-0.063l7.813-7.75v27.375zM27.25 6.438l-0.75 0.938c0 0.063 4 3.438 4.25 8.313 0.125 3.125-1.313 6.25-4.25 9.25l0.875 0.875c3.25-3.25 4.75-6.688 4.625-10.188-0.25-5.438-4.563-9.063-4.75-9.188zM22.313 11.188l-0.813 1c0.063 0 2.063 1.688 2.125 4.063 0.063 1.563-0.625 3.063-2.125 4.563l0.875 0.875c1.75-1.75 2.563-3.563 2.5-5.5-0.125-2.938-2.438-4.875-2.563-5zM25.063 8.875l-0.75 0.938c0 0.063 2.875 2.438 3.063 5.938 0.063 2.25-0.938 4.5-3.063 6.625l0.875 0.875c2.375-2.375 3.5-4.938 3.375-7.563-0.188-4-3.313-6.688-3.5-6.813z"></path>
</svg>
