<?xml version="1.0" encoding="utf-8"?>
<!DOCTYPE svg PUBLIC "-//W3C//DTD SVG 1.1//EN" "http://www.w3.org/Graphics/SVG/1.1/DTD/svg11.dtd">
<svg version="1.1" xmlns="http://www.w3.org/2000/svg" xmlns:xlink="http://www.w3.org/1999/xlink" width="32" height="32" viewBox="0 0 32 32">
<path d="M0 12.313v7.438h3.188v6.438h1.063v-6.438h8.188l7.813 6.313v-20.25l-7.875 6.5zM1.063 18.688v-5.313h4.25v5.313zM13.063 13.125l6.125-5.063v15.813l-6.375-5.188h-6.438v-5.313h6.375l0.313-0.25zM27.625 6.813l-0.75 0.75c2.438 1.938 4.063 5 4.063 8.375 0 3.5-1.688 6.625-4.313 8.563l0.813 0.75c2.75-2.125 4.563-5.5 4.563-9.313 0-3.688-1.688-7-4.375-9.125zM24.188 10.25l-0.75 0.75c1.625 1.063 2.75 2.875 2.75 4.938 0 2.188-1.25 4.125-3 5.125l0.75 0.75c2-1.188 3.313-3.375 3.313-5.875 0-2.375-1.25-4.5-3.063-5.688z"></path>
</svg>
