<?xml version="1.0" encoding="utf-8"?>
<!DOCTYPE svg PUBLIC "-//W3C//DTD SVG 1.1//EN" "http://www.w3.org/Graphics/SVG/1.1/DTD/svg11.dtd">
<svg version="1.1" xmlns="http://www.w3.org/2000/svg" xmlns:xlink="http://www.w3.org/1999/xlink" width="32" height="32" viewBox="0 0 32 32">
<path d="M31.313 0h-20c-0.375 0-0.625 0.313-0.625 0.688v5.313c0 0.375 0.25 0.688 0.625 0.688s0.688-0.313 0.688-0.688v-4.688h18.688v10.688h-4c-0.188 0-0.375 0.063-0.5 0.188l-4.188 4.188v-3.688c0-0.375-0.313-0.688-0.688-0.688h-2.625c-0.375 0-0.688 0.313-0.688 0.688s0.313 0.625 0.688 0.625h2v4.688c0 0.25 0.125 0.5 0.375 0.625 0.125 0 0.188 0.063 0.25 0.063 0.188 0 0.375-0.063 0.5-0.188l5.125-5.188h4.375c0.375 0 0.688-0.25 0.688-0.625v-12c0-0.375-0.313-0.688-0.688-0.688zM18.813 25.75l-4.875-1.75v-2.25c1.563-1.25 2.5-3.313 2.5-5.688 0-3.813-2.625-7-5.875-7-3.313 0-5.938 3.188-5.938 7 0 2.5 1.063 4.688 2.75 5.875v2.063l-4.813 1.75c-1.563 0.563-2.563 2-2.563 3.625v2.625h21.313v-2.625c0-1.625-1-3.063-2.5-3.625zM10.563 10.438c2.188 0 4 1.938 4.5 4.438-1.438 0.25-2.313-0.188-3.125-1.688l-0.625-1.063-0.563 1.063c-0.438 0.875-2.063 1.688-3.375 1.688-0.5 0-0.875-0.063-1.313-0.188 0.563-2.438 2.313-4.25 4.5-4.25zM5.938 16.063c0 0 0-0.063 0-0.063 0.438 0.125 0.938 0.188 1.438 0.188 1.438 0 3-0.625 3.938-1.563 0.813 1.125 1.813 1.688 3.063 1.688 0.25 0 0.5-0.063 0.75-0.063-0.063 3-2.125 5.5-4.563 5.5-2.563 0-4.625-2.563-4.625-5.688zM20 30.688h-18.688v-1.313c0-1.063 0.688-2 1.688-2.375l5.688-2.063v-2.25c0.563 0.25 1.188 0.375 1.875 0.375s1.438-0.188 2.063-0.5v2.375l5.75 2.063c0.938 0.375 1.625 1.313 1.625 2.375zM25.313 7.313c0 0.375-0.25 0.688-0.625 0.688s-0.688-0.313-0.688-0.688c0-0.375 0.313-0.625 0.688-0.625s0.625 0.25 0.625 0.625zM22 7.313c0 0.375-0.313 0.688-0.688 0.688s-0.625-0.313-0.625-0.688c0-0.375 0.25-0.625 0.625-0.625s0.688 0.25 0.688 0.625zM18.688 7.313c0 0.375-0.313 0.688-0.688 0.688s-0.688-0.313-0.688-0.688c0-0.375 0.313-0.625 0.688-0.625s0.688 0.25 0.688 0.625z"></path>
</svg>
