<?xml version="1.0" encoding="utf-8"?>
<!DOCTYPE svg PUBLIC "-//W3C//DTD SVG 1.1//EN" "http://www.w3.org/Graphics/SVG/1.1/DTD/svg11.dtd">
<svg version="1.1" xmlns="http://www.w3.org/2000/svg" xmlns:xlink="http://www.w3.org/1999/xlink" width="32" height="32" viewBox="0 0 32 32">
<path d="M6.5 27c2.25-3.25 5.938-5.313 10.125-5.313 3.813 0 7.188 1.75 9.438 4.438 2.563-2.563 4.188-6.188 4.188-10.125 0-7.938-6.438-14.375-14.438-14.375-7.938 0-14.375 6.438-14.375 14.375 0 4.375 2 8.313 5.063 11zM23.563 20.313c-0.25 0.5-0.625 0.563-1.063 0.375-1.875-0.875-4.063-1.375-6.313-1.375-2.313 0-4.5 0.5-6.438 1.438-0.188 0.125-0.688 0.125-0.875-0.438-0.188-0.625 0.125-0.938 0.313-1.063 2.125-1 4.5-1.563 7-1.563s4.875 0.5 6.938 1.563c0.313 0.125 0.625 0.625 0.438 1.063zM24.75 16.625c-0.125 0.25-0.375 0.375-0.625 0.375-0.125 0-0.188 0-0.25-0.063-2.313-1-4.938-1.625-7.688-1.625-2.688 0-5.25 0.563-7.625 1.625-0.063 0-0.125 0.063-0.25 0.063-0.25 0-0.5-0.188-0.688-0.375l-0.125-0.5c0-0.188 0.125-0.438 0.313-0.563 2.563-1.188 5.375-1.813 8.375-1.813s5.875 0.625 8.438 1.813c0.188 0.125 0.313 0.375 0.313 0.563zM6.75 10.813c2.938-1.188 6.125-1.813 9.438-1.813 3.375 0 6.5 0.625 9.438 1.813 0.375 0.188 0.625 0.563 0.625 1.063 0 0.625-0.5 1.188-1.188 1.188-0.063 0-0.188 0-0.25-0.063-2.688-1.063-5.563-1.625-8.625-1.625-3 0-5.938 0.563-8.563 1.625-0.063 0.063-0.188 0.063-0.25 0.063-0.688 0-1.25-0.563-1.25-1.188 0-0.438 0.25-0.813 0.625-1.063zM16.625 26.438c-2.438 0-4.625 1.188-6 3 1.625 0.625 3.375 0.938 5.188 0.938 2.313 0 4.438-0.5 6.375-1.438-1.375-1.563-3.375-2.5-5.563-2.5z"></path>
</svg>
