<?xml version="1.0" encoding="utf-8"?>
<!DOCTYPE svg PUBLIC "-//W3C//DTD SVG 1.1//EN" "http://www.w3.org/Graphics/SVG/1.1/DTD/svg11.dtd">
<svg version="1.1" xmlns="http://www.w3.org/2000/svg" xmlns:xlink="http://www.w3.org/1999/xlink" width="32" height="32" viewBox="0 0 32 32">
<path d="M6.375 14.875l8.625-8.688c2.188-2.188 5.688-2.188 7.875 0 0.5 0.563 0.5 1.438-0.063 2-0.5 0.563-1.375 0.563-1.938 0l-0.125-0.188c-1.125-0.938-2.75-0.875-3.75 0.188l-8.875 8.875c-0.563 0.563-1.438 0.563-2 0s-0.563-1.438 0-2c0.063-0.063 0.188-0.125 0.25-0.188zM25.813 15.125c-0.563-0.563-1.438-0.563-2 0-0.063 0.063-0.125 0.125-0.188 0.188l-8.625 8.688c-1.063 1.063-2.813 1.063-3.938 0v0c-0.563-0.563-1.438-0.563-2 0-0.5 0.563-0.5 1.438 0 1.938 0.063 0.125 0.188 0.188 0.25 0.188 2.188 2 5.563 1.938 7.688-0.125l8.813-8.938c0.5-0.563 0.5-1.438 0-1.938zM12.25 20.813c-0.063 0.063-0.125 0.125-0.188 0.188-0.563 0.563-0.563 1.438 0 2 0.5 0.563 1.375 0.563 2 0l8.813-8.875c1.063-1.125 2.875-1.125 3.938 0 1.063 1.063 1.063 2.875 0 3.938l-8.375 8.5c1.063 1.063 2.813 1.063 3.938 0l6.375-6.5c2.188-2.188 2.188-5.75 0-7.938-2.125-2.188-5.688-2.188-7.813 0zM11.063 20.063l8.813-8.938c0.563-0.5 0.563-1.438 0-1.938-0.5-0.563-1.438-0.563-1.938 0-0.063 0.063-0.125 0.125-0.188 0.188l-8.625 8.688c-1.063 1.125-2.875 1.125-3.938 0-1.063-1.063-1.063-2.875 0-3.938l8.375-8.5c-1.063-1.063-2.813-1.063-3.938 0l-6.375 6.5c-2.188 2.188-2.188 5.75 0 7.938 2.125 2.188 5.688 2.188 7.813 0z"></path>
</svg>
