<?xml version="1.0" encoding="utf-8"?>
<!DOCTYPE svg PUBLIC "-//W3C//DTD SVG 1.1//EN" "http://www.w3.org/Graphics/SVG/1.1/DTD/svg11.dtd">
<svg version="1.1" xmlns="http://www.w3.org/2000/svg" xmlns:xlink="http://www.w3.org/1999/xlink" width="32" height="32" viewBox="0 0 32 32">
<path d="M26.563 24.5c-0.375 1.25-1.563 2-2.688 1.688-1.063-0.313-1.625-1.625-1.25-2.875s1.563-2 2.625-1.688c1.125 0.313 1.688 1.625 1.313 2.875zM21.938 30.375c-2.688-0.313-4.625-2.563-5.125-5.188-0.313-1.625 0.063-2.813-1-3.188-1.875-0.75-4.375 0.5-6.75 0.25-2.125-0.313-3.75-1.938-3.813-4.688-0.063-2.5 1.75-5.938-0.813-7.063 1.125 0.25 2 0.438 2.438 1.438 1.063 2-0.563 5.938 1.188 7.063 0.875 0.563 2.438 0.25 3.5 0.125 1.188-0.125 2.063-0.5 3.188-0.5-0.688-0.938-1.688-1.125-2.438-1.688-0.875-0.625-2.125-1.813-2.688-2.938-1.063-2-0.875-5.563-2.313-6.875-1.125-0.938-3-1-4.938-0.625 1.313-1.125 4.688-1.313 5.938-0.375 1.688 1.188 1.313 4.625 2.813 6.438 0.688 0.813 1.688 1.125 2.5 1.438s1.75 0.625 3.063 0.75c1-4.25-2.313-4.813-4.375-6.688-1.563-1.375-2.563-3.063-2.313-6.438 0.313 1.75 0.688 3.25 1.938 4.25 0.813 0.625 2 0.875 2.938 1.375 2.25 1.313 4.313 3.375 4.875 6.5 0.5-0.313 0.875-0.938 1.313-1.563s1-1.125 1-1.938c0.063-1.188-0.813-2.125-1.5-2.75-1.813-1.375-5.125-1-4.375-4.875 0.313 0.938 0.375 2.063 1.125 2.563 1.125 0.813 2.875 0.813 4.125 1.563 1.125 0.688 2.875 2.188 2.813 4.125 0 2.25-2.188 3.125-1.25 5.688 2.188 0.625 3.313 0.625 4.5 1.688 4.563 3.938 1.188 12.875-5.563 12.125zM28.125 25c0.875-2.938-0.5-5.938-3-6.688-2.563-0.75-5.375 1-6.25 3.938s0.5 5.938 3.063 6.688c2.563 0.813 5.313-1 6.188-3.938z"></path>
</svg>
