<?xml version="1.0" encoding="utf-8"?>
<!DOCTYPE svg PUBLIC "-//W3C//DTD SVG 1.1//EN" "http://www.w3.org/Graphics/SVG/1.1/DTD/svg11.dtd">
<svg version="1.1" xmlns="http://www.w3.org/2000/svg" xmlns:xlink="http://www.w3.org/1999/xlink" width="32" height="32" viewBox="0 0 32 32">
<path d="M31.938 18.438l-4-15c-0.25-0.813-1.063-1.438-1.938-1.438h-20c-0.875 0-1.688 0.625-1.938 1.438l-4 15c-0.063 0.188-0.063 0.375-0.063 0.563v7c0 2.188 1.813 4 4 4h24c2.188 0 4-1.813 4-4v-7c0-0.188 0-0.375-0.063-0.563zM30 26c0 1.125-0.875 2-2 2h-24c-1.125 0-2-0.875-2-2v-7l4-15h20l4 15zM23.75 6h-15.5c-0.438 0-0.813 0.313-0.938 0.75l-3.438 12c-0.125 0.313-0.063 0.625 0.125 0.875s0.5 0.375 0.813 0.375h4.563l1.438 2.875c0.375 0.688 1.063 1.125 1.813 1.125h6.75c0.75 0 1.438-0.438 1.813-1.125l1.438-2.875h4.563c0.313 0 0.625-0.125 0.813-0.375s0.25-0.563 0.125-0.875l-3.438-12c-0.125-0.438-0.5-0.75-0.938-0.75zM24.25 18h-1.625c-0.75 0-1.438 0.438-1.813 1.125l-1.438 2.875h-6.75l-1.438-2.875c-0.375-0.688-1.063-1.125-1.813-1.125h-4.063l2.938-11h15.5l2.938 11z"></path>
</svg>
