<?xml version="1.0" encoding="utf-8"?>
<!DOCTYPE svg PUBLIC "-//W3C//DTD SVG 1.1//EN" "http://www.w3.org/Graphics/SVG/1.1/DTD/svg11.dtd">
<svg version="1.1" xmlns="http://www.w3.org/2000/svg" xmlns:xlink="http://www.w3.org/1999/xlink" width="32" height="32" viewBox="0 0 32 32">
<path d="M31.875 12.563c-0.25-0.813-1-1.375-1.813-1.5l-8.375-1.25-3.625-7.5c-0.375-0.813-1.188-1.313-2.063-1.313s-1.688 0.5-2.063 1.313l-3.625 7.5-8.375 1.25c-0.813 0.125-1.563 0.688-1.813 1.5s-0.063 1.688 0.563 2.25l6.063 6.125-1.375 8.438c-0.188 0.875 0.188 1.688 0.938 2.188 0.375 0.313 0.813 0.438 1.313 0.438 0.375 0 0.75-0.125 1.125-0.25l7.25-3.938 7.25 3.938c0.375 0.125 0.75 0.25 1.125 0.25 0.5 0 0.938-0.125 1.313-0.438 0.75-0.5 1.125-1.313 0.938-2.188l-1.375-8.438 6.125-6.125c0.563-0.563 0.75-1.438 0.5-2.25zM23.563 19.375c-0.5 0.5-0.688 1.188-0.625 1.938l1.438 8.438-7.25-3.938c-0.375-0.188-0.75-0.25-1.125-0.25s-0.75 0.063-1.125 0.25l-7.25 3.938 1.438-8.438c0.063-0.75-0.125-1.438-0.625-1.938l-6.125-6.125 8.313-1.25c0.75-0.063 1.438-0.563 1.75-1.25l3.625-7.5 3.625 7.5c0.313 0.688 1 1.188 1.75 1.313l8.313 1.188z"></path>
</svg>
