<?xml version="1.0" encoding="utf-8"?>
<!DOCTYPE svg PUBLIC "-//W3C//DTD SVG 1.1//EN" "http://www.w3.org/Graphics/SVG/1.1/DTD/svg11.dtd">
<svg version="1.1" xmlns="http://www.w3.org/2000/svg" xmlns:xlink="http://www.w3.org/1999/xlink" width="32" height="32" viewBox="0 0 32 32">
<path d="M28.25 12.438c0 1.5-1.188 2.688-2.688 2.688-1.438 0-2.625-1.188-2.625-2.688 0-1.438 1.188-2.625 2.625-2.625 1.5 0 2.688 1.188 2.688 2.625zM27.188 16.938l-3.25 2.75c0.063 0.25 0.063 0.438 0.063 0.688 0 2.313-1.875 4.25-4.25 4.25-2 0-3.75-1.438-4.125-3.313l-8-2.688c-0.625 0.438-1.438 0.75-2.25 0.75-2.063 0-3.75-1.688-3.75-3.75s1.688-3.75 3.75-3.75c1.75 0 3.25 1.25 3.625 2.938l7.688 2.563c0.813-0.75 1.813-1.188 2.938-1.25l1.188-3.5c0-0.063 0-0.125 0-0.188 0-2.625 2.125-4.813 4.813-4.813 2.625 0 4.75 2.188 4.75 4.813 0 2.063-1.313 3.875-3.188 4.5zM7.688 14.375c-0.438-0.813-1.313-1.375-2.25-1.375-1.5 0-2.625 1.188-2.625 2.625s1.125 2.625 2.625 2.625c0.25 0 0.5-0.063 0.75-0.125l-1.25-0.438c-1-0.5-1.375-1.75-0.875-2.75 0.563-1 1.813-1.375 2.813-0.875zM21.875 12.438c0 2.063 1.625 3.75 3.688 3.75s3.75-1.688 3.75-3.75c0-2.063-1.688-3.688-3.75-3.688s-3.688 1.625-3.688 3.688zM21.938 20.75c0-1.563-1.313-2.813-2.875-2.813-0.188 0-0.438 0-0.625 0.063l1.625 0.5c1 0.563 1.375 1.813 0.813 2.813s-1.813 1.375-2.813 0.813l-1.688-0.563c0.375 1.188 1.438 2 2.688 2 1.563 0 2.875-1.25 2.875-2.813z"></path>
</svg>
