<?xml version="1.0" encoding="utf-8"?>
<!DOCTYPE svg PUBLIC "-//W3C//DTD SVG 1.1//EN" "http://www.w3.org/Graphics/SVG/1.1/DTD/svg11.dtd">
<svg version="1.1" xmlns="http://www.w3.org/2000/svg" xmlns:xlink="http://www.w3.org/1999/xlink" width="32" height="32" viewBox="0 0 32 32">
<path d="M25.063 8.75l0.875-0.875 0.938 0.938 1.125-1.125-2.625-2.625-1.125 1.125 0.938 0.938-0.875 0.875c-2-1.813-4.625-3-7.5-3.188v-2.125h-1.625v2.125c-6.375 0.438-11.438 5.75-11.438 12.25 0 6.75 5.5 12.25 12.25 12.25s12.25-5.5 12.25-12.25c0-3.188-1.188-6.125-3.188-8.313zM16 28.25c-6.188 0-11.188-5-11.188-11.188s5-11.188 11.188-11.188c6.188 0 11.188 5 11.188 11.188s-5 11.188-11.188 11.188zM16.563 15.563v-7h-1.125v7c-0.563 0.25-1.063 0.813-1.063 1.5s0.5 1.313 1.063 1.5v2.25h1.125v-2.25c0.563-0.188 1.063-0.813 1.063-1.5s-0.5-1.25-1.063-1.5z"></path>
</svg>
