<?xml version="1.0" encoding="utf-8"?>
<!DOCTYPE svg PUBLIC "-//W3C//DTD SVG 1.1//EN" "http://www.w3.org/Graphics/SVG/1.1/DTD/svg11.dtd">
<svg version="1.1" xmlns="http://www.w3.org/2000/svg" xmlns:xlink="http://www.w3.org/1999/xlink" width="32" height="32" viewBox="0 0 32 32">
<path d="M16.688 2.688v-1.375h3.313v-1.313h-8v1.313h3.313v1.375c-3.563 0.125-6.75 1.563-9.188 3.875l-1.188-1.25 1.438-1.438-0.938-1.063-4 4 0.938 0.938 1.625-1.5 1.188 1.25c-2.375 2.5-3.875 5.938-3.875 9.813 0 8.125 6.563 14.688 14.688 14.688s14.688-6.563 14.688-14.688c0-7.875-6.313-14.25-14-14.625zM16 30.688c-7.313 0-13.313-6-13.313-13.375 0-7.313 6-13.313 13.313-13.313s13.313 6 13.313 13.313c0 7.375-6 13.375-13.313 13.375zM23.563 8.813l0.938 0.938-8 8-0.938-0.938zM17.063 6.688c0 0.563-0.5 1.063-1.063 1.063s-1.063-0.5-1.063-1.063c0-0.625 0.5-1.063 1.063-1.063s1.063 0.438 1.063 1.063zM17.063 28c0 0.563-0.5 1.063-1.063 1.063s-1.063-0.5-1.063-1.063c0-0.563 0.5-1.063 1.063-1.063s1.063 0.5 1.063 1.063zM6.375 17.313c0 0.625-0.438 1.063-1.063 1.063-0.563 0-1.063-0.438-1.063-1.063 0-0.563 0.5-1.063 1.063-1.063 0.625 0 1.063 0.5 1.063 1.063zM27.75 17.313c0 0.625-0.5 1.063-1.063 1.063-0.625 0-1.063-0.438-1.063-1.063 0-0.563 0.438-1.063 1.063-1.063 0.563 0 1.063 0.5 1.063 1.063z"></path>
</svg>
