<?xml version="1.0" encoding="utf-8"?>
<!DOCTYPE svg PUBLIC "-//W3C//DTD SVG 1.1//EN" "http://www.w3.org/Graphics/SVG/1.1/DTD/svg11.dtd">
<svg version="1.1" xmlns="http://www.w3.org/2000/svg" xmlns:xlink="http://www.w3.org/1999/xlink" width="32" height="32" viewBox="0 0 32 32">
<path d="M27.563 7.625c-2.875-3.063-6.75-4.75-10.875-4.938v-2c0-0.375-0.313-0.688-0.688-0.688s-0.688 0.313-0.688 0.688v2c-4.125 0.188-8 1.875-10.875 4.938-3.063 3.188-4.625 7.313-4.438 11.75 0.063 0.375 0.313 0.625 0.688 0.625s0.688-0.313 0.688-0.688c0 0 0-0.75 0.563-1.313 0.438-0.438 1.125-0.688 2.063-0.688 2.75 0 3.313 2.125 3.375 2.188 0.063 0.313 0.313 0.5 0.625 0.5s0.563-0.188 0.625-0.5c0 0 0.563-2.188 3.375-2.188 2.5 0 3.188 1.75 3.313 2.125v9.875c0 1.438 1.188 2.188 2.375 2.188 1.125 0 2.313-0.75 2.313-2.188 0-0.375-0.313-0.625-0.688-0.625s-0.625 0.25-0.625 0.625c0 0.813-0.938 0.875-1 0.875-0.125 0-1-0.063-1-0.875v-9.813c0.25-0.5 1.375-2.188 3.313-2.188 2.188 0 3.375 2.313 3.375 2.313 0.125 0.25 0.375 0.375 0.625 0.375 0 0 0 0 0 0 0.25 0 0.5-0.125 0.625-0.375 0 0 1.188-2.313 3.375-2.313 2.063 0 2.625 2.063 2.688 2.188 0.063 0.313 0.313 0.5 0.625 0.5 0 0 0.063 0 0.063 0 0.313-0.063 0.563-0.313 0.625-0.625 0.188-4.438-1.375-8.563-4.438-11.75zM28 16c-2 0-3.313 1.25-4 2.125-0.688-0.875-2-2.125-4-2.125-1.875 0-3.188 1.125-3.875 2-0.688-1-2-2-4.125-2-2.063 0-3.313 0.938-4 1.875-0.688-0.938-1.938-1.875-4-1.875-1 0-1.875 0.25-2.563 0.688 0.438-3.063 1.813-5.875 3.938-8.188 2.813-2.875 6.563-4.5 10.625-4.5s7.813 1.625 10.625 4.5c2.188 2.375 3.563 5.313 3.938 8.438-0.625-0.563-1.438-0.938-2.563-0.938z"></path>
</svg>
