<?xml version="1.0" encoding="utf-8"?>
<!DOCTYPE svg PUBLIC "-//W3C//DTD SVG 1.1//EN" "http://www.w3.org/Graphics/SVG/1.1/DTD/svg11.dtd">
<svg version="1.1" xmlns="http://www.w3.org/2000/svg" xmlns:xlink="http://www.w3.org/1999/xlink" width="32" height="32" viewBox="0 0 32 32">
<path d="M32 8c0-1.375-0.938-2.625-2.313-2.938l-13-3c-0.25-0.063-0.438-0.063-0.688-0.063s-0.438 0-0.688 0.063l-13 3c-1.375 0.313-2.313 1.563-2.313 2.938s0.938 2.625 2.313 2.938l2.688 0.625v8.438c0 2.625 3.063 5 11 5s11-2.375 11-5v-8.438l2.688-0.625c1.375-0.313 2.313-1.563 2.313-2.938zM25 20c0 1.125-3 3-9 3s-9-1.875-9-3v-8l8.313 1.938c0.25 0.063 0.438 0.063 0.688 0.063s0.438 0 0.688-0.063l8.313-1.938zM16.25 12c-0.125 0-0.188 0-0.25 0s-0.125 0-0.25 0l-13-3c-0.438-0.125-0.75-0.563-0.75-1s0.313-0.875 0.75-1l13-3c0.125 0 0.188 0 0.25 0s0.125 0 0.25 0l13 3c0.438 0.125 0.75 0.563 0.75 1s-0.313 0.875-0.75 1zM29 13v9c0 0.563 0.438 1 1 1s1-0.438 1-1v-9c0-0.563-0.438-1-1-1s-1 0.438-1 1zM30 24c-1.125 0-2 2.875-2 4s0.875 2 2 2c1.125 0 2-0.875 2-2s-0.875-4-2-4z"></path>
</svg>
