<?xml version="1.0" encoding="utf-8"?>
<!DOCTYPE svg PUBLIC "-//W3C//DTD SVG 1.1//EN" "http://www.w3.org/Graphics/SVG/1.1/DTD/svg11.dtd">
<svg version="1.1" xmlns="http://www.w3.org/2000/svg" xmlns:xlink="http://www.w3.org/1999/xlink" width="32" height="32" viewBox="0 0 32 32">
<path d="M30.375 23.875c0 2.688-2.188 4.938-4.938 4.938h-0.75c-2.75 0-4.938-2.25-4.938-4.938v-6.125c0-1-0.75-1.813-1.688-1.813h-6.688c-0.938 0-1.75 0.75-1.75 1.688 0 0.875 0.813 1.688 1.813 1.75l1 0.063c2.688 0.125 4.813 2.313 4.75 4.813-0.125 2.5-2.375 4.563-5.063 4.563h-10.5v-3.188h10.5c1 0 1.813-0.688 1.813-1.5 0.063-0.75-0.75-1.438-1.688-1.5l-1-0.063c-2.688-0.125-4.875-2.375-4.875-4.938 0-2.688 2.25-4.813 4.938-4.813h6.688c2.75 0 4.938 2.188 4.938 4.938v6.125c0 0.938 0.75 1.75 1.75 1.75h0.75c1 0 1.75-0.813 1.75-1.75v-20.688h2.875c0.125 0 0.188 0.063 0.313 0.063z"></path>
</svg>
