<?xml version="1.0" encoding="utf-8"?>
<!DOCTYPE svg PUBLIC "-//W3C//DTD SVG 1.1//EN" "http://www.w3.org/Graphics/SVG/1.1/DTD/svg11.dtd">
<svg version="1.1" xmlns="http://www.w3.org/2000/svg" xmlns:xlink="http://www.w3.org/1999/xlink" width="32" height="32" viewBox="0 0 32 32">
<path d="M15.75 8.563c-4 0-7.25 3.25-7.25 7.25s3.25 7.188 7.25 7.188c3.938 0 7.188-3.188 7.188-7.188s-3.25-7.25-7.188-7.25zM15.75 21.938c-3.438 0-6.188-2.75-6.188-6.125 0-3.438 2.75-6.188 6.188-6.188 3.375 0 6.125 2.75 6.125 6.188 0 3.375-2.75 6.125-6.125 6.125zM15.875 5.063c0.375 0 0.625-0.313 0.625-0.75v-3.563c0-0.438-0.25-0.75-0.625-0.75s-0.688 0.313-0.688 0.75v3.563c0 0.438 0.313 0.75 0.688 0.75zM15.875 26.938c-0.375 0-0.688 0.313-0.688 0.75v3.563c0 0.438 0.313 0.75 0.688 0.75s0.625-0.313 0.625-0.75v-3.563c0-0.438-0.25-0.75-0.625-0.75zM31.25 14.938h-3.563c-0.438 0-0.75 0.313-0.75 0.625 0 0.375 0.313 0.688 0.75 0.688h3.563c0.438 0 0.75-0.313 0.75-0.688 0-0.313-0.313-0.625-0.75-0.625zM5.063 15.563c0-0.313-0.313-0.625-0.75-0.625h-3.563c-0.438 0-0.75 0.313-0.75 0.625 0 0.375 0.313 0.688 0.75 0.688h3.563c0.438 0 0.75-0.313 0.75-0.688zM24.438 7.938l2.563-2.5c0.25-0.313 0.313-0.75 0.063-1-0.25-0.313-0.75-0.25-1 0.063l-2.563 2.5c-0.25 0.313-0.313 0.75-0.063 1 0.313 0.25 0.75 0.188 1-0.063zM7 23.5l-2.5 2.563c-0.313 0.25-0.375 0.75-0.063 1 0.25 0.25 0.688 0.188 1-0.063l2.5-2.563c0.25-0.25 0.313-0.688 0.063-1-0.25-0.25-0.688-0.188-1 0.063zM24.438 23.813c-0.25-0.313-0.688-0.313-1-0.063-0.25 0.25-0.188 0.688 0.063 1l2.563 2.5c0.25 0.313 0.75 0.313 1 0.063s0.188-0.688-0.063-1zM5.438 4.75c-0.313-0.313-0.75-0.313-1-0.063-0.313 0.25-0.25 0.688 0.063 1l2.5 2.5c0.313 0.313 0.75 0.313 1 0.063s0.188-0.688-0.063-1z"></path>
</svg>
