<?xml version="1.0" encoding="utf-8"?>
<!DOCTYPE svg PUBLIC "-//W3C//DTD SVG 1.1//EN" "http://www.w3.org/Graphics/SVG/1.1/DTD/svg11.dtd">
<svg version="1.1" xmlns="http://www.w3.org/2000/svg" xmlns:xlink="http://www.w3.org/1999/xlink" width="32" height="32" viewBox="0 0 32 32">
<path d="M16 8c-4.438 0-8 3.563-8 8s3.563 8 8 8c4.438 0 8-3.563 8-8s-3.563-8-8-8zM16 22.938c-3.813 0-6.938-3.125-6.938-6.938s3.125-6.938 6.938-6.938c3.813 0 6.938 3.125 6.938 6.938s-3.125 6.938-6.938 6.938zM15.5 0h1.063v6.438h-1.063zM15.5 25.625h1.063v6.375h-1.063zM0 15.438h6.375v1.125h-6.375zM25.625 15.438h6.375v1.125h-6.375zM26.938 4.25l0.75 0.813-4.438 4.438-0.75-0.75zM5.063 27.625l-0.75-0.75 4.438-4.438 0.75 0.75zM5.063 4.25l4.438 4.5-0.75 0.75-4.438-4.438zM26.938 27.625l-4.438-4.438 0.75-0.75 4.438 4.438z"></path>
</svg>
