<?xml version="1.0" encoding="utf-8"?>
<!DOCTYPE svg PUBLIC "-//W3C//DTD SVG 1.1//EN" "http://www.w3.org/Graphics/SVG/1.1/DTD/svg11.dtd">
<svg version="1.1" xmlns="http://www.w3.org/2000/svg" xmlns:xlink="http://www.w3.org/1999/xlink" width="32" height="32" viewBox="0 0 32 32">
<path d="M19.375 16c0-5.188-4.25-9.438-9.438-9.438s-9.438 4.25-9.438 9.438c0 5.188 4.25 9.438 9.438 9.438s9.438-4.25 9.438-9.438zM9.938 24.375c-4.625 0-8.375-3.75-8.375-8.375s3.75-8.375 8.375-8.375c4.625 0 8.375 3.75 8.375 8.375s-3.75 8.375-8.375 8.375zM22.5 6.563h-8c0.625 0.313 1.188 0.625 1.688 1.063h6.313c4.688 0 8.438 3.75 8.438 8.375s-3.813 8.375-8.438 8.375h-6.313c-0.5 0.438-1.125 0.75-1.688 1.063h8c5.25 0 9.5-4.25 9.5-9.438s-4.25-9.438-9.5-9.438z"></path>
</svg>
