<?xml version="1.0" encoding="utf-8"?>
<!DOCTYPE svg PUBLIC "-//W3C//DTD SVG 1.1//EN" "http://www.w3.org/Graphics/SVG/1.1/DTD/svg11.dtd">
<svg version="1.1" xmlns="http://www.w3.org/2000/svg" xmlns:xlink="http://www.w3.org/1999/xlink" width="32" height="32" viewBox="0 0 32 32">
<path d="M31.25 6.438l-5-4c-0.375-0.313-0.813-0.438-1.25-0.438h-18c-0.438 0-0.875 0.125-1.25 0.438l-5 4c-0.625 0.5-0.938 1.375-0.625 2.188l2 6c0.188 0.625 0.625 1.063 1.25 1.25 0.188 0.063 0.438 0.125 0.625 0.125 0.375 0 0.688-0.063 1-0.25v12.25c0 1.125 0.875 2 2 2h18c1.125 0 2-0.875 2-2v-12.25c0.313 0.188 0.625 0.25 1 0.25 0.25 0 0.438-0.063 0.625-0.125 0.625-0.188 1.063-0.625 1.25-1.25l2-6c0.313-0.813 0-1.688-0.625-2.188zM19.75 4c-0.563 1.188-2 2-3.75 2s-3.188-0.813-3.75-2zM28 14l-3-2v16h-18v-16l-3 2-2-6 5-4h4.188c0.563 1.75 2.5 3 4.813 3s4.25-1.25 4.813-3h4.188l5 4z"></path>
</svg>
