<?xml version="1.0" encoding="utf-8"?>
<!DOCTYPE svg PUBLIC "-//W3C//DTD SVG 1.1//EN" "http://www.w3.org/Graphics/SVG/1.1/DTD/svg11.dtd">
<svg version="1.1" xmlns="http://www.w3.org/2000/svg" xmlns:xlink="http://www.w3.org/1999/xlink" width="32" height="32" viewBox="0 0 32 32">
<path d="M32 0.938l-0.875-0.875-4.375 4.25h-9.375l-17.375 17.313 10.313 10.313 17.313-17.375v-9.375zM26.313 14.063l-16 16.063-8.5-8.5 16.063-16.063h7.563l-2.688 2.75c-0.625-0.438-1.438-0.813-2.188-0.813-2.188 0-3.875 1.688-3.875 3.875s1.688 3.875 3.875 3.875c2.188 0 3.875-1.688 3.875-3.875 0-0.75-0.25-1.563-0.813-2.188l2.688-2.688zM23.125 11.375c0 1.438-1.125 2.563-2.563 2.563s-2.563-1.125-2.563-2.563c0-1.438 1.125-2.563 2.563-2.563 0.5 0 0.875 0.125 1.313 0.375l-2.063 2.063 0.875 0.875 2.063-2.063c0.25 0.438 0.375 0.813 0.375 1.313z"></path>
</svg>
