<?xml version="1.0" encoding="utf-8"?>
<!DOCTYPE svg PUBLIC "-//W3C//DTD SVG 1.1//EN" "http://www.w3.org/Graphics/SVG/1.1/DTD/svg11.dtd">
<svg version="1.1" xmlns="http://www.w3.org/2000/svg" xmlns:xlink="http://www.w3.org/1999/xlink" width="32" height="32" viewBox="0 0 32 32">
<path d="M31.375 13.875l-5-8c-0.688-1.188-2-1.875-3.375-1.875h-19c-2.188 0-4 1.813-4 4v16c0 2.188 1.813 4 4 4h19c1.375 0 2.688-0.688 3.375-1.875l5-8c0.813-1.313 0.813-2.938 0-4.25zM29.688 17.063l-5 8c-0.375 0.563-1 0.938-1.688 0.938h-19c-1.125 0-2-0.875-2-2v-16c0-1.125 0.875-2 2-2h19c0.688 0 1.313 0.375 1.688 0.938l5 8c0.438 0.625 0.438 1.5 0 2.125zM23 13c-1.688 0-3 1.375-3 3 0 1.688 1.313 3 3 3 1.625 0 3-1.313 3-3 0-1.625-1.375-3-3-3zM23 18c-1.125 0-2-0.875-2-2s0.875-2 2-2c1.125 0 2 0.875 2 2s-0.875 2-2 2z"></path>
</svg>
