<?xml version="1.0" encoding="utf-8"?>
<!DOCTYPE svg PUBLIC "-//W3C//DTD SVG 1.1//EN" "http://www.w3.org/Graphics/SVG/1.1/DTD/svg11.dtd">
<svg version="1.1" xmlns="http://www.w3.org/2000/svg" xmlns:xlink="http://www.w3.org/1999/xlink" width="32" height="32" viewBox="0 0 32 32">
<path d="M9.625 17.063c0.75 0 1.438-0.625 1.438-1.438s-0.688-1.438-1.438-1.438c-0.813 0-1.438 0.625-1.438 1.438s0.625 1.438 1.438 1.438zM9.625 15.063c0.313 0 0.563 0.25 0.563 0.563s-0.25 0.563-0.563 0.563c-0.313 0-0.563-0.25-0.563-0.563s0.25-0.563 0.563-0.563zM21.875 15.563c0 0.875 0.75 1.625 1.625 1.625 0.938 0 1.688-0.75 1.688-1.625 0-0.938-0.75-1.688-1.688-1.688-0.875 0-1.625 0.75-1.625 1.688zM23.5 14.75c0.438 0 0.813 0.375 0.813 0.813s-0.375 0.75-0.813 0.75c-0.375 0-0.75-0.313-0.75-0.75s0.375-0.813 0.75-0.813zM24.063 18.625c1.5-0.25 2.625-1.5 2.625-3.063 0-1.75-1.375-3.125-3.125-3.188v0l-13.938-1.063c0 0 0 0 0 0-2.375 0-4.313 1.938-4.313 4.313s1.938 4.313 4.313 4.313c0 0 0 0 0 0v0l13.875-1.25c0 0 0 0 0 0 0.063 0 0.063 0 0.125 0h0.438zM25.813 15.563c0 1.125-0.875 2.063-1.938 2.25h-0.375c-1.25 0-2.25-1-2.25-2.25s1-2.313 2.25-2.313c1.313 0 2.313 1.063 2.313 2.313zM6.188 15.625c0-1.875 1.5-3.438 3.438-3.438h0.063c1.813 0.063 3.375 1.563 3.375 3.438s-1.5 3.375-3.313 3.438h-0.125c-1.938 0-3.438-1.563-3.438-3.438zM12.5 18.813c0.875-0.813 1.375-1.938 1.375-3.188 0-1.313-0.563-2.438-1.438-3.188l9.125 0.688c-0.75 0.563-1.188 1.438-1.188 2.438s0.438 1.875 1.188 2.438zM32 19.813v0-11.563c0-0.75-0.625-1.313-1.313-1.313h-29.375c-0.75 0-1.313 0.563-1.313 1.313v15.5c0 0.75 0.563 1.313 1.313 1.313h29.375c0.688 0 1.313-0.563 1.313-1.313v-3.938zM1.313 7.813h29.375c0.25 0 0.438 0.188 0.438 0.438v11.188l-1 1v-11.313h-28.375v11.5l-0.875-0.875v-11.5c0-0.25 0.188-0.438 0.438-0.438zM10.75 22.25h9.625l1.313 1.938h-12.375zM20.875 21.438h-0.063v-0.063h-10.5v0.063l-2.063 2.75h-2.938l-2.688-2.688v-11.5h26.625v11.313l-2.813 2.875h-3.688zM0.875 23.75v-2.75l3.188 3.188h-2.75c-0.25 0-0.438-0.188-0.438-0.438zM31.125 23.75c0 0.25-0.188 0.438-0.438 0.438h-3l3.438-3.5z"></path>
</svg>
