<?xml version="1.0" encoding="utf-8"?>
<!DOCTYPE svg PUBLIC "-//W3C//DTD SVG 1.1//EN" "http://www.w3.org/Graphics/SVG/1.1/DTD/svg11.dtd">
<svg version="1.1" xmlns="http://www.w3.org/2000/svg" xmlns:xlink="http://www.w3.org/1999/xlink" width="32" height="32" viewBox="0 0 32 32">
<path d="M16.063 11.563c-2.375 0-4.25 1.938-4.25 4.25 0 2.375 1.875 4.313 4.25 4.313s4.25-1.938 4.25-4.313c0-2.313-1.875-4.25-4.25-4.25zM16.063 19.063c-1.75 0-3.188-1.438-3.188-3.25 0-1.75 1.438-3.188 3.188-3.188s3.188 1.438 3.188 3.188c0 1.813-1.438 3.25-3.188 3.25zM16.063 7.313c-4.688 0-8.563 3.813-8.563 8.5 0 4.75 3.875 8.563 8.563 8.563s8.5-3.813 8.5-8.563c0-4.688-3.813-8.5-8.5-8.5zM16.063 23.313c-4.125 0-7.5-3.375-7.5-7.5s3.375-7.438 7.5-7.438c4.125 0 7.438 3.313 7.438 7.438s-3.313 7.5-7.438 7.5zM28.813 15.813c0-7.063-5.75-12.75-12.813-12.75s-12.813 5.688-12.813 12.75c0 3.938 1.75 7.375 4.5 9.75l-2.188 2.75 0.875 0.625 2.125-2.688c2.125 1.5 4.688 2.375 7.5 2.375 2.75 0 5.375-0.875 7.438-2.375l2.188 2.688 0.813-0.625-2.125-2.75c2.75-2.313 4.5-5.813 4.5-9.75zM4.25 15.813c0-6.438 5.313-11.688 11.75-11.688s11.75 5.25 11.75 11.688c0 6.5-5.313 11.75-11.75 11.75s-11.75-5.25-11.75-11.75z"></path>
</svg>
