<?xml version="1.0" encoding="utf-8"?>
<!DOCTYPE svg PUBLIC "-//W3C//DTD SVG 1.1//EN" "http://www.w3.org/Graphics/SVG/1.1/DTD/svg11.dtd">
<svg version="1.1" xmlns="http://www.w3.org/2000/svg" xmlns:xlink="http://www.w3.org/1999/xlink" width="32" height="32" viewBox="0 0 32 32">
<path d="M16 11.688c-0.75 0-1.5 0.188-2.125 0.563-0.938 0.563-1.625 1.563-1.875 2.688 0 0.063-0.063 0.188-0.063 0.25 0 0.188 0 0.375 0 0.563 0 2.25 1.813 4.063 4.063 4.063s4.063-1.813 4.063-4.063c0-0.25 0-0.563-0.063-0.875-0.375-1.875-2.063-3.188-4-3.188zM16 18.688c-1.625 0-2.938-1.313-2.938-2.938 0-0.125 0-0.25 0-0.438 0-0.063 0.063-0.125 0.063-0.188 0.188-0.813 0.625-1.5 1.375-1.875 0.438-0.313 0.938-0.438 1.5-0.438 1.375 0 2.625 0.938 2.875 2.313 0.063 0.25 0.063 0.438 0.063 0.625 0 1.625-1.313 2.938-2.938 2.938zM16 7.188c-1.563 0-3.125 0.438-4.438 1.25-2 1.188-3.438 3.188-3.938 5.625-0.063 0.188-0.125 0.313-0.125 0.5-0.063 0.313-0.063 0.688-0.063 1.188 0 4.75 3.813 8.563 8.563 8.563s8.563-3.813 8.563-8.563c0-0.625-0.063-1.188-0.188-1.813-0.813-3.938-4.375-6.75-8.375-6.75zM16 23.188c-4.125 0-7.438-3.313-7.438-7.438 0-0.375 0-0.688 0.063-1.063 0-0.125 0.063-0.25 0.125-0.5 0.375-2 1.625-3.75 3.438-4.813 1.125-0.688 2.438-1.063 3.813-1.063 3.5 0 6.563 2.5 7.25 5.875 0.125 0.5 0.188 1.063 0.188 1.563 0 4.125-3.313 7.438-7.438 7.438zM27.813 13.25c-1.188-5.563-6.125-9.563-11.813-9.563-2.188 0-4.375 0.625-6.25 1.75-2.813 1.688-4.875 4.563-5.563 7.813v0.188c-0.063 0.188-0.125 0.438-0.125 0.625-0.063 0.5-0.125 1-0.125 1.688 0 6.688 5.438 12.063 12.063 12.063s12.063-5.375 12.063-12.063c0-0.813-0.063-1.688-0.25-2.5zM16 26.688c-6 0-10.938-4.875-10.938-10.938 0-0.625 0.063-1.063 0.125-1.5 0-0.25 0.063-0.438 0.063-0.625l0.063-0.188c0.625-2.938 2.438-5.5 5.063-7 1.688-1.063 3.625-1.625 5.625-1.625 5.125 0 9.625 3.625 10.688 8.625 0.188 0.813 0.25 1.563 0.25 2.313 0 6.063-4.938 10.938-10.938 10.938zM31.75 15.75c0-1.125-0.125-2.188-0.375-3.313-1.5-7.188-8-12.438-15.375-12.438-2.875 0-5.688 0.813-8.125 2.313-3.75 2.188-6.375 5.875-7.25 10.125l-0.063 0.25c-0.063 0.313-0.125 0.563-0.125 0.875-0.125 0.625-0.188 1.313-0.188 2.188 0 5 2.375 9.438 6 12.375l-1.813 3.25 1 0.5 1.75-3.063c2.5 1.688 5.563 2.688 8.813 2.688s6.25-1 8.813-2.688l1.75 3.188 1-0.563-1.875-3.313c3.688-2.875 6.063-7.375 6.063-12.375zM1.375 15.75c0-0.813 0.063-1.438 0.125-2.063 0.063-0.25 0.125-0.5 0.188-0.75v-0.25c0.875-3.938 3.313-7.375 6.75-9.438 2.25-1.375 4.875-2.125 7.563-2.125 6.875 0 12.875 4.875 14.313 11.563 0.188 1 0.313 2.063 0.313 3.063 0 8.063-6.563 14.625-14.625 14.625s-14.625-6.563-14.625-14.625z"></path>
</svg>
