<?xml version="1.0" encoding="utf-8"?>
<!DOCTYPE svg PUBLIC "-//W3C//DTD SVG 1.1//EN" "http://www.w3.org/Graphics/SVG/1.1/DTD/svg11.dtd">
<svg version="1.1" xmlns="http://www.w3.org/2000/svg" xmlns:xlink="http://www.w3.org/1999/xlink" width="32" height="32" viewBox="0 0 32 32">
<path d="M6.313 2.5c1.313-0.188 2.688-0.063 4.063-0.125-1.375 1.75-2.563 3.75-2.75 5.938-0.438 3.5 1.375 6.875 4 9 0.75 0.375 0.438 1.25 0.438 1.938-0.188 1.625-0.438 3.25-0.5 4.938 2.063-1.25 3.938-2.813 6.063-3.938 4.313 0.813 9 0.313 12.75-2.063 0 1.875 0 3.813 0 5.688 0.063 2.188-1.25 4.313-3.25 5.188-0.938 0.5-1.938 0.563-3 0.563-5.688-0.063-11.438 0-17.125-0.063-2.875 0-5.375-2.563-5.375-5.438-0.063-5.25 0-10.5 0-15.813-0.188-2.688 2-5.313 4.688-5.813zM13.813 6.188c-0.938 1-1.625 2.313-1.625 3.75-0.125 1.875 0.938 3.75 2.438 4.875 3.125 2.375 7.75 2.563 11.188 0.625 1.875-1.063 3.438-3 3.438-5.25 0.063-1.938-1.063-3.813-2.625-4.938-1.813-1.313-4.063-1.875-6.25-1.813-2.438 0.063-4.875 1-6.563 2.75z"></path>
</svg>
