<?xml version="1.0" encoding="utf-8"?>
<!DOCTYPE svg PUBLIC "-//W3C//DTD SVG 1.1//EN" "http://www.w3.org/Graphics/SVG/1.1/DTD/svg11.dtd">
<svg version="1.1" xmlns="http://www.w3.org/2000/svg" xmlns:xlink="http://www.w3.org/1999/xlink" width="32" height="32" viewBox="0 0 32 32">
<path d="M29.938 4.25l-4.25-4.25-7.313 7.313 3 3.063-10.938 11-3.063-3.063-7.375 7.313 4.313 4.313c1.313 1.313 3.188 2.063 4.875 2.063s3.563-0.75 4.875-2.063l15.875-15.875c2.688-2.688 2.688-7.125 0-9.813zM29.125 13.188l-15.875 15.875c-1.125 1.125-2.438 1.688-4.063 1.688-1.563 0-2.938-0.563-4-1.688l-3.438-3.438 5.625-5.625 3.063 3.063 12.688-12.688-3.063-3.063 5.625-5.625 3.438 3.438c2.188 2.188 2.188 5.875 0 8.063z"></path>
</svg>
