<?xml version="1.0" encoding="utf-8"?>
<!DOCTYPE svg PUBLIC "-//W3C//DTD SVG 1.1//EN" "http://www.w3.org/Graphics/SVG/1.1/DTD/svg11.dtd">
<svg version="1.1" xmlns="http://www.w3.org/2000/svg" xmlns:xlink="http://www.w3.org/1999/xlink" width="32" height="32" viewBox="0 0 32 32">
<path d="M17.313 13.188l7.625-8.813v-2.75h-17.563v6.875h3.563v-3.625h8c0.563 0 1.5-0.125 1.5-0.125v0.125c0 0-0.688 0.438-1.125 1l-7 8.313 0.938 2.063c0.188 0 0.938-0.063 1.688-0.063 3.5 0 6.375 1.875 6.375 5.25 0 3.125-2.688 5.375-5.938 5.375-4.063 0-7-3.125-7-3.125l-2.125 2.875c0 0 3.438 3.813 9.375 3.813 6 0 9.875-4.25 9.875-9.063 0-5.5-4.563-7.75-8.188-8.125z"></path>
</svg>
