<?xml version="1.0" encoding="utf-8"?>
<!DOCTYPE svg PUBLIC "-//W3C//DTD SVG 1.1//EN" "http://www.w3.org/Graphics/SVG/1.1/DTD/svg11.dtd">
<svg version="1.1" xmlns="http://www.w3.org/2000/svg" xmlns:xlink="http://www.w3.org/1999/xlink" width="32" height="32" viewBox="0 0 32 32">
<path d="M24.813 1.625h-7.063l-16.125 16.063 12.625 12.688 16.125-16.063v-7.125l-5.625-5.563zM29.313 13.875l-15.063 15-11.125-11.188 15.063-15h6.125l5 4.938zM21.875 8c0 1.188 0.938 2.125 2.125 2.125s2.125-0.938 2.125-2.125c0-1.188-0.938-2.125-2.125-2.125s-2.125 0.938-2.125 2.125zM25.063 8c0 0.563-0.5 1.063-1.063 1.063s-1.063-0.5-1.063-1.063c0-0.563 0.5-1.063 1.063-1.063s1.063 0.5 1.063 1.063z"></path>
</svg>
