<?xml version="1.0" encoding="utf-8"?>
<!DOCTYPE svg PUBLIC "-//W3C//DTD SVG 1.1//EN" "http://www.w3.org/Graphics/SVG/1.1/DTD/svg11.dtd">
<svg version="1.1" xmlns="http://www.w3.org/2000/svg" xmlns:xlink="http://www.w3.org/1999/xlink" width="32" height="32" viewBox="0 0 32 32">
<path d="M14.688 16.938c0 0 0.063 0.063 0.063 0.063 0.313 0.375 0.75 0.625 1.25 0.625 0.875 0 1.625-0.75 1.625-1.625 0-0.5-0.25-0.875-0.563-1.188-0.063-0.063-0.063-0.063-0.125-0.125l-6.5-4.938c-0.188-0.125-0.438-0.125-0.625 0-0.25 0.188-0.25 0.5-0.125 0.75l5 6.438zM16 2.688c-0.188 0-0.375 0-0.5 0v0.563h-0.063v5.813h1.125v-5.313c6.5 0.313 11.688 5.688 11.688 12.25 0 6.75-5.5 12.25-12.25 12.25s-12.25-5.5-12.25-12.25c0-3.375 1.375-6.438 3.563-8.688l-0.75-0.75c-2.375 2.438-3.875 5.75-3.875 9.438 0 7.375 5.938 13.313 13.313 13.313s13.313-5.938 13.313-13.313c0-7.375-5.938-13.313-13.313-13.313z"></path>
</svg>
