<?xml version="1.0" encoding="utf-8"?>
<!DOCTYPE svg PUBLIC "-//W3C//DTD SVG 1.1//EN" "http://www.w3.org/Graphics/SVG/1.1/DTD/svg11.dtd">
<svg version="1.1" xmlns="http://www.w3.org/2000/svg" xmlns:xlink="http://www.w3.org/1999/xlink" width="32" height="32" viewBox="0 0 32 32">
<path d="M29.563 25.75l-5.688-5.625 0.75-0.75-0.75-0.75-2.25 2.25-3.75-3.813 4.5-4.5c0.625 0.188 1.25 0.313 1.875 0.313 1.5 0 2.875-0.563 3.938-1.625 1.625-1.625 2.125-4.063 1.188-6.188l-0.313-0.688-2.438 2.375-1.938 0.063v-1.875l2.5-2.5-0.688-0.313c-0.75-0.313-1.5-0.438-2.25-0.438-1.5 0-2.875 0.563-3.938 1.625-1.563 1.563-2.063 3.813-1.313 5.875l-4.563 4.5-6.375-6.375 0.75-0.75-4.188-4.188-2.25 2.25 4.188 4.188 0.75-0.75 6.375 6.375-4.5 4.563c-0.625-0.25-1.25-0.375-1.875-0.375-1.5 0-2.938 0.625-4 1.688-1.625 1.625-2.063 4.063-1.188 6.188l0.313 0.688 2.5-2.5h1.875l-0.063 1.938-2.375 2.438 0.688 0.313c0.688 0.313 1.438 0.438 2.25 0.438 1.5 0 2.875-0.563 3.938-1.625 1.563-1.5 2.063-3.75 1.313-5.813l4.5-4.563 3.813 3.813-2.25 2.25 0.75 0.75 0.75-0.75 5.625 5.625c0.5 0.5 1.188 0.813 1.875 0.813 0.75 0 1.375-0.313 1.875-0.813 1.063-1 1.063-2.688 0-3.75zM3.875 4.625l0.75-0.75 2.688 2.688-0.75 0.75-2.688-2.688zM11.438 22.438c0.75 1.75 0.375 3.688-0.938 5-0.875 0.875-2 1.313-3.188 1.313-0.375 0-0.688 0-1.063-0.063l1.563-1.563 0.063-3.5h-3.375l-1.625 1.625c-0.375-1.5 0.063-3.063 1.188-4.188 0.875-0.875 2-1.313 3.25-1.313 0.625 0 1.188 0.125 1.75 0.313l0.375 0.188 10.813-10.813-0.125-0.375c-0.75-1.688-0.375-3.688 0.938-5 0.813-0.813 2-1.313 3.188-1.313 0.375 0 0.688 0.063 1 0.125l-1.563 1.625-0.063 3.375 3.5-0.063 1.563-1.563c0.313 1.5-0.125 3.125-1.25 4.25-0.813 0.813-2 1.313-3.188 1.313-0.625 0-1.25-0.125-1.813-0.375l-0.313-0.125-10.813 10.813 0.125 0.313zM28.75 28.75c-0.25 0.313-0.688 0.5-1.125 0.5-0.375 0-0.813-0.188-1.125-0.5l-5.625-5.625 2.25-2.25 5.625 5.625c0.625 0.625 0.625 1.625 0 2.25z"></path>
</svg>
