<?xml version="1.0" encoding="utf-8"?>
<!DOCTYPE svg PUBLIC "-//W3C//DTD SVG 1.1//EN" "http://www.w3.org/Graphics/SVG/1.1/DTD/svg11.dtd">
<svg version="1.1" xmlns="http://www.w3.org/2000/svg" xmlns:xlink="http://www.w3.org/1999/xlink" width="32" height="32" viewBox="0 0 32 32">
<path d="M32 25.063h-2.5v-13.563h-7.375v6.188h-6.125v7.375h-12.313v-4.938l4.938 4.938 17.188-17.25-4.875-4.938-17.25 17.25v-13.563h-3.688v1.25h2.5v18.438h29.5zM20.938 4.625l3.188 3.188-15.5 15.5-3.188-3.188zM23.375 12.75h4.938v4.938h-4.938zM17.25 18.875h11.063v6.188h-11.063zM6.75 28.125c0 0.5-0.438 1-0.938 1-0.563 0-1-0.5-1-1 0-0.563 0.438-1 1-1 0.5 0 0.938 0.438 0.938 1zM29.5 28.125c0 0.5-0.438 1-0.938 1-0.563 0-1-0.5-1-1 0-0.563 0.438-1 1-1 0.5 0 0.938 0.438 0.938 1z"></path>
</svg>
