<?xml version="1.0" encoding="utf-8"?>
<!DOCTYPE svg PUBLIC "-//W3C//DTD SVG 1.1//EN" "http://www.w3.org/Graphics/SVG/1.1/DTD/svg11.dtd">
<svg version="1.1" xmlns="http://www.w3.org/2000/svg" xmlns:xlink="http://www.w3.org/1999/xlink" width="32" height="32" viewBox="0 0 32 32">
<path d="M26.125 5.875h-5.313v-1.063c0-1.188-1-2.125-2.125-2.125h-5.375c-1.188 0-2.125 0.938-2.125 2.125v1.063h-5.313v1.063h1.125l1.063 20.25c0 1.188 0.938 2.125 2.125 2.125h11.688c1.188 0 2.125-0.938 2.125-2.125l1.063-20.25h1.063v-1.063zM12.25 4.813c0-0.625 0.5-1.063 1.063-1.063h5.375c0.563 0 1.063 0.438 1.063 1.063v1.063h-7.5v-1.063zM22.938 27.125v0.063c0 0.625-0.438 1.063-1.063 1.063h-11.688c-0.625 0-1.063-0.438-1.063-1.063v0-0.063l-1.063-20.188h15.938zM15.438 9.063h1.125v17.063h-1.125zM13.375 26.125l-1.125-17.063-1.063 0.063 1.125 17.063zM20.813 9.125l-1.063-0.063-1.063 17.063 1.063 0.063z"></path>
</svg>
