<?xml version="1.0" encoding="utf-8"?>
<!DOCTYPE svg PUBLIC "-//W3C//DTD SVG 1.1//EN" "http://www.w3.org/Graphics/SVG/1.1/DTD/svg11.dtd">
<svg version="1.1" xmlns="http://www.w3.org/2000/svg" xmlns:xlink="http://www.w3.org/1999/xlink" width="32" height="32" viewBox="0 0 32 32">
<path d="M30 6.813c-0.125-1.563-1.438-2.813-3-2.813h-3v-1c0-1.625-1.375-3-3-3h-10c-1.688 0-3 1.375-3 3v1h-3c-1.625 0-2.875 1.25-3 2.813v0 2.188c0 1.125 0.875 2 2 2v17c0 2.188 1.813 4 4 4h16c2.188 0 4-1.813 4-4v-17c1.125 0 2-0.875 2-2v-2.188zM10 3c0-0.563 0.438-1 1-1h10c0.563 0 1 0.438 1 1v1h-12zM26 28c0 1.125-0.875 2-2 2h-16c-1.125 0-2-0.875-2-2v-17h20zM28 8v1h-24v-2c0-0.563 0.438-1 1-1h22c0.563 0 1 0.438 1 1zM9 28h2c0.563 0 1-0.438 1-1v-13c0-0.563-0.438-1-1-1h-2c-0.563 0-1 0.438-1 1v13c0 0.563 0.438 1 1 1zM9 14h2v13h-2zM15 28h2c0.563 0 1-0.438 1-1v-13c0-0.563-0.438-1-1-1h-2c-0.563 0-1 0.438-1 1v13c0 0.563 0.438 1 1 1zM15 14h2v13h-2zM21 28h2c0.563 0 1-0.438 1-1v-13c0-0.563-0.438-1-1-1h-2c-0.563 0-1 0.438-1 1v13c0 0.563 0.438 1 1 1zM21 14h2v13h-2z"></path>
</svg>
