<?xml version="1.0" encoding="utf-8"?>
<!DOCTYPE svg PUBLIC "-//W3C//DTD SVG 1.1//EN" "http://www.w3.org/Graphics/SVG/1.1/DTD/svg11.dtd">
<svg version="1.1" xmlns="http://www.w3.org/2000/svg" xmlns:xlink="http://www.w3.org/1999/xlink" width="32" height="32" viewBox="0 0 32 32">
<path d="M27.688 15.813c-0.25 0-0.5 0.063-0.75 0.125l-1.5-2.813c0.313-0.313 0.438-0.75 0.438-1.25 0-1.125-0.875-2-2-2-0.625 0-1.25 0.313-1.563 0.813l-7.188-2.313c0-0.063 0-0.188 0-0.313 0-1.063-0.875-2-2-2s-2 0.938-2 2c0 0.188 0 0.313 0 0.5l-4.5 1.938c-0.5-0.813-1.375-1.313-2.313-1.313-1.5 0-2.688 1.188-2.688 2.688s1.188 2.688 2.688 2.688c0.438 0 0.875-0.125 1.313-0.313l4.438 5.438c-0.25 0.563-0.438 1.188-0.438 1.875 0 2.438 1.938 4.375 4.375 4.375 2.125 0 3.875-1.563 4.25-3.563v0l7.063-2.563c0.5 0.813 1.375 1.375 2.375 1.375 1.5 0 2.688-1.188 2.688-2.688s-1.188-2.688-2.688-2.688zM6.938 12.313c0-0.125 0.063-0.25 0.063-0.375l4.625-2.5c0.375 0.438 0.875 0.688 1.5 0.688 0.5 0 1-0.25 1.375-0.563l1.188 0.375c-2.75 0.188-5 2.5-5 5.313 0 0.5 0.125 1 0.25 1.5zM11.438 18.063v-0.063c0 0 0 0 0.063 0-0.063 0-0.063 0.063-0.063 0.063zM17.438 18.938c-0.813-1.063-2.063-1.688-3.438-1.688-0.438 0-0.875 0.063-1.25 0.125-0.375-0.563-0.625-1.313-0.625-2.125 0-2.125 1.75-3.875 3.938-3.875 2.125 0 3.938 1.75 3.938 3.875 0 1.688-1.063 3.125-2.563 3.688zM25.188 17.625l-6.5 2.313c1.625-0.938 2.688-2.625 2.688-4.688 0-1.625-0.688-3.063-1.875-4.063l2.375 0.813c0.063 1.063 0.938 1.875 2 1.875 0.188 0 0.313 0 0.5-0.063l1.5 2.688c-0.313 0.313-0.563 0.688-0.688 1.125z"></path>
</svg>
