<?xml version="1.0" encoding="utf-8"?>
<!DOCTYPE svg PUBLIC "-//W3C//DTD SVG 1.1//EN" "http://www.w3.org/Graphics/SVG/1.1/DTD/svg11.dtd">
<svg version="1.1" xmlns="http://www.w3.org/2000/svg" xmlns:xlink="http://www.w3.org/1999/xlink" width="32" height="32" viewBox="0 0 32 32">
<path d="M19.375 17.25c-0.188-0.375-0.375-0.688-0.563-1 0.5-0.313 0.938-0.563 0.938-0.563l4.75-2.813c-0.063-0.188-0.063-0.313-0.063-0.5 0-1 0.75-1.75 1.75-1.75 0.938 0 1.75 0.75 1.75 1.75 0 0.938-0.813 1.75-1.75 1.75-0.438 0-0.75-0.188-1.063-0.375-1.063 0.688-2.563 1.563-4.813 2.938zM20.125 21.25c-0.188 0.063-0.375 0.125-0.5 0.25-0.063 0-0.188-0.125-0.188-0.125-0.188-0.063-0.375-0.125-0.813-0.438-0.25 0.25-0.5 0.5-0.813 0.688l0.75 0.438c0 0 0.375 0.25 0.5 0.313 0 0.125 0 0.188 0 0.313s0 0.25 0.063 0.438c0.188 0.75 1 1.25 1.813 1 0.313-0.125 0.625-0.313 0.813-0.688 0.125-0.188 0.188-0.438 0.188-0.688 0-0.188 0-0.313-0.063-0.438-0.188-0.813-1-1.25-1.75-1.063zM18.688 18.313c-0.188-1.688-1.875-2.813-3.813-2.625-2 0.25-3.375 1.75-3.188 3.438 0.188 1.625 1.875 2.75 3.813 2.563 1.938-0.25 3.375-1.75 3.188-3.375zM28.25 16.688c-1.063 0-1.875 0.688-2.125 1.625-2 0-4.25-0.063-6.563-0.063 0 0.125 0 0.313 0 0.438 0 0.25-0.063 0.438-0.125 0.688 2.375 0 4.625-0.063 6.625-0.063 0.25 1 1.125 1.75 2.188 1.75 1.188 0 2.125-1 2.125-2.188s-0.938-2.188-2.125-2.188zM11.75 21.188c-0.125-0.188-0.25-0.313-0.375-0.5-0.875 0.5-1.625 1-2.25 1.438-0.313-0.313-0.75-0.5-1.188-0.5-0.438 0.063-0.875 0.25-1.188 0.563s-0.438 0.75-0.438 1.188c0.063 0.875 0.813 1.625 1.75 1.563 0.875 0 1.563-0.75 1.563-1.625v-0.063c0-0.125 0-0.25-0.063-0.375 0.063 0 1.313-0.688 2.5-1.375-0.125-0.125-0.188-0.188-0.313-0.313zM5.5 13.688c0.313 0.188 0.688 0.25 1 0.188 0.188-0.063 0.375-0.125 0.563-0.25 0.063 0.063 1.688 1.313 1.688 1.313l2.625 2c0.188-0.313 0.438-0.563 0.688-0.875v0c-2.313-1.813-3.75-2.75-4.5-3.188 0-0.125 0.063-0.188 0.063-0.313l-0.063-0.25c-0.125-0.75-0.813-1.188-1.563-1.063-0.313 0.063-0.625 0.25-0.813 0.563-0.188 0.25-0.25 0.5-0.25 0.75 0 0.063 0 0.188 0 0.25 0.125 0.375 0.313 0.625 0.563 0.875zM14.938 12.063c0 0.75 0 1.75 0 2.75 0.125-0.063 0.313-0.063 0.5-0.063s0.375 0 0.5 0.063c0-1 0-2-0.063-2.75 1.25-0.25 2.125-1.25 2.125-2.5 0-1.375-1.188-2.5-2.563-2.5s-2.563 1.125-2.563 2.5c0 1.25 0.875 2.25 2.063 2.5zM10.875 18.625c0-0.125 0-0.25 0-0.375-2 0-3.875 0.063-5.563 0.063-0.188-0.875-0.938-1.5-1.813-1.5-1.063 0-1.875 0.875-1.875 1.875 0 1.063 0.813 1.875 1.875 1.875 0.813 0 1.5-0.5 1.75-1.25 1.688 0 3.625 0 5.625 0.063-0.063-0.25-0.063-0.5 0-0.75z"></path>
</svg>
