<?xml version="1.0" encoding="utf-8"?>
<!DOCTYPE svg PUBLIC "-//W3C//DTD SVG 1.1//EN" "http://www.w3.org/Graphics/SVG/1.1/DTD/svg11.dtd">
<svg version="1.1" xmlns="http://www.w3.org/2000/svg" xmlns:xlink="http://www.w3.org/1999/xlink" width="32" height="32" viewBox="0 0 32 32">
<path d="M31.813 22v-19.25h-27.5v-2.75h-4.125v1.375h2.75v27.438h23.375v-1.375h-22v-5.438zM23.563 20.625h-5.5v-16.5h5.5v16.5zM16.688 20.625h-5.5v-16.5h5.5zM30.438 20.625h-5.5v-16.5h5.5zM4.313 4.125h5.5v16.5h-5.5zM7.5 30.875c0 0.625-0.5 1.125-1.125 1.125-0.563 0-1.063-0.5-1.063-1.125 0-0.563 0.5-1.063 1.063-1.063 0.625 0 1.125 0.5 1.125 1.063zM25.313 30.875c0 0.625-0.438 1.125-1.063 1.125s-1.125-0.5-1.125-1.125c0-0.563 0.5-1.063 1.125-1.063s1.063 0.5 1.063 1.063z"></path>
</svg>
