<?xml version="1.0" encoding="utf-8"?>
<!DOCTYPE svg PUBLIC "-//W3C//DTD SVG 1.1//EN" "http://www.w3.org/Graphics/SVG/1.1/DTD/svg11.dtd">
<svg version="1.1" xmlns="http://www.w3.org/2000/svg" xmlns:xlink="http://www.w3.org/1999/xlink" width="32" height="32" viewBox="0 0 32 32">
<path d="M24.813 11.438c-0.188-0.25-0.5-0.438-0.813-0.438h-1c-0.563 0-1 0.438-1 1v6c0 0.563 0.438 1 1 1h4c0.563 0 1-0.438 1-1v-1.5c0-0.188-0.063-0.375-0.188-0.563zM27 18h-4v-6h1l3 4.5zM31.5 15.313l-4-6c-0.563-0.813-1.5-1.313-2.5-1.313h-4v-2c0-1.625-1.375-3-3-3h-15c-1.625 0-3 1.375-3 3v11c0 1.625 1.375 3 3 3v3c0 1.625 1.375 3 3 3h1.125c0.438 1.75 2 3 3.875 3s3.438-1.25 3.875-3h5.25c0.438 1.75 2 3 3.875 3s3.438-1.25 3.875-3h1.125c1.625 0 3-1.375 3-3v-6c0-0.625-0.188-1.188-0.5-1.688zM3 18c-0.563 0-1-0.438-1-1v-11c0-0.563 0.438-1 1-1h15c0.563 0 1 0.438 1 1v11c0 0.563-0.438 1-1 1zM11 27c-1.125 0-2-0.875-2-2s0.875-2 2-2c1.125 0 2 0.875 2 2s-0.875 2-2 2zM24 27c-1.125 0-2-0.875-2-2s0.875-2 2-2c1.125 0 2 0.875 2 2s-0.875 2-2 2zM30 23c0 0.563-0.438 1-1 1h-1.125c-0.438-1.75-2-3-3.875-3s-3.438 1.25-3.875 3h-5.25c-0.438-1.75-2-3-3.875-3s-3.438 1.25-3.875 3h-1.125c-0.563 0-1-0.438-1-1v-3h13c1.625 0 3-1.375 3-3v-7h4c0.313 0 0.625 0.188 0.813 0.438l4 6c0.125 0.188 0.188 0.375 0.188 0.563z"></path>
</svg>
