<?xml version="1.0" encoding="utf-8"?>
<!DOCTYPE svg PUBLIC "-//W3C//DTD SVG 1.1//EN" "http://www.w3.org/Graphics/SVG/1.1/DTD/svg11.dtd">
<svg version="1.1" xmlns="http://www.w3.org/2000/svg" xmlns:xlink="http://www.w3.org/1999/xlink" width="32" height="32" viewBox="0 0 32 32">
<path d="M18.5 25.125c-0.438-0.25-0.875-0.75-1.063-1.25-0.188-0.438-0.188-1.438-0.188-3.063v-7.438h6.75v-5.125h-6.75v-6.625h-4.125c-0.188 1.438-0.5 2.688-1 3.625-0.5 1-1.125 1.813-1.938 2.5s-2.188 1.188-3.313 1.563v4.063h3.938v10.125c0 1.313 0.125 2.313 0.438 3 0.25 0.688 0.75 1.375 1.5 2 0.688 0.563 1.563 1.063 2.625 1.375 1 0.375 1.813 0.5 3.125 0.5 1.125 0 2.25-0.063 3.25-0.313s2.125-0.625 3.375-1.25v-4.5c-1.438 0.938-2.938 1.375-4.375 1.375-0.875 0-1.563-0.188-2.25-0.563z"></path>
</svg>
