<?xml version="1.0" encoding="utf-8"?>
<!DOCTYPE svg PUBLIC "-//W3C//DTD SVG 1.1//EN" "http://www.w3.org/Graphics/SVG/1.1/DTD/svg11.dtd">
<svg version="1.1" xmlns="http://www.w3.org/2000/svg" xmlns:xlink="http://www.w3.org/1999/xlink" width="32" height="32" viewBox="0 0 32 32">
<path d="M22.188 8.625c-2.75-0.563-5.5-0.813-8.188-0.813s-5.438 0.25-8.188 0.813c-0.313 0.063-0.625 0.313-0.75 0.688-1.438 4.375-1.438 8.813 0 13.188 0.125 0.313 0.438 0.563 0.75 0.688 2.75 0.5 5.5 0.813 8.188 0.813s5.438-0.313 8.188-0.813c0.313-0.125 0.625-0.375 0.75-0.688 1.438-4.375 1.438-8.813 0-13.188-0.125-0.375-0.438-0.625-0.75-0.688zM22 22.188c-5.313 1.063-10.625 1.063-15.938 0-1.375-4.188-1.375-8.375 0-12.563 5.313-1.125 10.625-1.125 15.938 0 1.375 4.188 1.375 8.375 0 12.563zM30.875 6.313c-0.188-0.813-0.875-1.438-1.75-1.5-4.313-0.563-8.75-0.813-13.125-0.813s-8.75 0.25-13.125 0.813c-0.813 0.063-1.5 0.688-1.688 1.5-1.563 6.438-1.563 12.938 0 19.375 0.188 0.813 0.875 1.438 1.688 1.5 2.063 0.25 4.188 0.438 6.313 0.563-0.125 0.125-0.188 0.188-0.188 0.25 0 0.563 3.125 1 7 1s7-0.438 7-1c0-0.063-0.063-0.125-0.188-0.25 2.125-0.125 4.25-0.313 6.313-0.563 0.875-0.063 1.563-0.688 1.75-1.5 1.5-6.438 1.5-12.938 0-19.375zM28.938 25.188c-8.625 1.063-17.25 1.063-25.813 0-1.5-6.125-1.5-12.25 0-18.375 8.563-1.063 17.188-1.063 25.813 0 1.438 6.125 1.438 12.25 0 18.375zM26.5 12c0.813 0 1.5-0.688 1.5-1.5s-0.688-1.5-1.5-1.5c-0.813 0-1.5 0.688-1.5 1.5s0.688 1.5 1.5 1.5zM26.5 10c0.25 0 0.5 0.25 0.5 0.5s-0.25 0.5-0.5 0.5c-0.25 0-0.5-0.25-0.5-0.5s0.25-0.5 0.5-0.5zM27.5 22h-3c-0.25 0-0.5 0.25-0.5 0.5s0.25 0.5 0.5 0.5h3c0.25 0 0.5-0.25 0.5-0.5s-0.25-0.5-0.5-0.5zM28.5 19h-3c-0.25 0-0.5 0.25-0.5 0.5s0.25 0.5 0.5 0.5h3c0.25 0 0.5-0.25 0.5-0.5s-0.25-0.5-0.5-0.5zM28.5 16h-3c-0.25 0-0.5 0.25-0.5 0.5s0.25 0.5 0.5 0.5h3c0.25 0 0.5-0.25 0.5-0.5s-0.25-0.5-0.5-0.5zM13.5 11.813l-4.563 0.375c-0.313 0-0.563 0.25-0.625 0.5l-0.25 2.813c-0.063 0.25 0.188 0.5 0.438 0.5s0.5-0.25 0.5-0.5l0.188-1.875c0.063-0.313 0.313-0.563 0.563-0.563l3.75-0.25c0.25 0 0.5-0.25 0.5-0.5 0-0.313-0.25-0.5-0.5-0.5z"></path>
</svg>
