<?xml version="1.0" encoding="utf-8"?>
<!DOCTYPE svg PUBLIC "-//W3C//DTD SVG 1.1//EN" "http://www.w3.org/Graphics/SVG/1.1/DTD/svg11.dtd">
<svg version="1.1" xmlns="http://www.w3.org/2000/svg" xmlns:xlink="http://www.w3.org/1999/xlink" width="32" height="32" viewBox="0 0 32 32">
<path d="M27.125 14.875c1.625-0.125 2.75-0.813 3.125-1.813-0.563 0.313-2.375 0.75-3.375 0.375-0.063-0.25-0.125-0.5-0.125-0.688-0.813-2.813-3.375-5.063-6.125-4.75 0.188-0.125 0.438-0.188 0.688-0.25 0.25-0.125 2.063-0.438 1.75-1.063-0.25-0.5-2.375 0.438-2.813 0.563 0.563-0.188 1.438-0.563 1.563-1.188-0.813 0.125-1.625 0.5-2.25 1.063 0.188-0.25 0.375-0.5 0.438-0.813-2.188 1.375-3.5 4.188-4.563 6.938-0.813-0.813-1.5-1.438-2.125-1.75-1.813-1-4-2-7.438-3.25-0.063 1.125 0.563 2.625 2.5 3.625-0.438-0.063-1.188 0.063-1.813 0.188 0.25 1.313 1.063 2.375 3.25 2.875-1 0.063-1.5 0.313-2 0.813 0.5 0.875 1.563 1.938 3.563 1.688-2.188 1-0.875 2.75 0.938 2.5-3.125 3.125-7.938 2.938-10.688 0.25 7.25 9.875 23 5.875 25.313-3.688 1.813 0.063 2.813-0.563 3.438-1.25-1 0.125-2.438 0-3.25-0.375z"></path>
</svg>
