<?xml version="1.0" encoding="utf-8"?>
<!DOCTYPE svg PUBLIC "-//W3C//DTD SVG 1.1//EN" "http://www.w3.org/Graphics/SVG/1.1/DTD/svg11.dtd">
<svg version="1.1" xmlns="http://www.w3.org/2000/svg" xmlns:xlink="http://www.w3.org/1999/xlink" width="32" height="32" viewBox="0 0 32 32">
<path d="M23.125 23.188h-7.125c-1 0-1.813-0.313-2.5-1-0.688-0.75-1.063-1.563-1.063-2.563v-2.5h10.125c0.938 0 1.75-0.375 2.375-1 0.688-0.688 1-1.438 1-2.375 0-0.875-0.313-1.688-1-2.313-0.625-0.688-1.438-1-2.375-1h-10.125v-5.25c0-1-0.313-1.813-1-2.5-0.75-0.75-1.563-1.063-2.563-1.063s-1.875 0.313-2.563 1c-0.688 0.688-1.063 1.563-1.063 2.563v14.438c0 3 1.063 5.5 3.188 7.625 2.063 2.125 4.625 3.125 7.563 3.125h7.125c1 0 1.813-0.313 2.563-1.063 0.688-0.688 1.063-1.5 1.063-2.5s-0.375-1.875-1.063-2.563c-0.75-0.688-1.563-1.063-2.563-1.063z"></path>
</svg>
