<?xml version="1.0" encoding="utf-8"?>
<!DOCTYPE svg PUBLIC "-//W3C//DTD SVG 1.1//EN" "http://www.w3.org/Graphics/SVG/1.1/DTD/svg11.dtd">
<svg version="1.1" xmlns="http://www.w3.org/2000/svg" xmlns:xlink="http://www.w3.org/1999/xlink" width="32" height="32" viewBox="0 0 32 32">
<path d="M16.563 2.688v-1.625h-1.125v1.625c-8.563 0.25-15.438 7.313-15.438 15.875 0 0.563 0.063 1.125 0.125 1.75l1.063-0.063c0.063-1.75 1.5-3.188 3.25-3.188 1.875 0 3.313 1.5 3.313 3.313h1.125c0-1.813 1.438-3.313 3.313-3.313 1.75 0 3.25 1.438 3.25 3.25v8.25c0 1.313 1.063 2.375 2.375 2.375s2.375-1.063 2.375-2.375h-1.063c0 0.75-0.563 1.313-1.313 1.313-0.688 0-1.25-0.563-1.25-1.313v-8.188c0-1.813 1.438-3.313 3.313-3.313 1.813 0 3.313 1.5 3.313 3.313h1.063c0-1.813 1.438-3.313 3.313-3.313 1.75 0 3.188 1.375 3.25 3.188h1.063c0.063-0.563 0.125-1.125 0.125-1.688 0-8.563-6.875-15.625-15.5-15.875zM27.563 16c-1.688 0-3.125 0.938-3.875 2.313-0.75-1.375-2.188-2.313-3.813-2.313-1.688 0-3.125 0.938-3.875 2.313-0.75-1.375-2.188-2.313-3.813-2.313-1.688 0-3.125 0.938-3.875 2.313-0.75-1.375-2.188-2.313-3.813-2.313-1.375 0-2.563 0.625-3.375 1.563 0.5-7.688 7-13.813 14.875-13.813s14.375 6.125 14.875 13.813c-0.813-0.938-2-1.563-3.313-1.563z"></path>
</svg>
