<?xml version="1.0" encoding="utf-8"?>
<!DOCTYPE svg PUBLIC "-//W3C//DTD SVG 1.1//EN" "http://www.w3.org/Graphics/SVG/1.1/DTD/svg11.dtd">
<svg version="1.1" xmlns="http://www.w3.org/2000/svg" xmlns:xlink="http://www.w3.org/1999/xlink" width="32" height="32" viewBox="0 0 32 32">
<path d="M29.75 3.313c-1.438-1.438-3.313-2.188-5.375-2.188-4.188 0-7.625 3.375-7.625 7.5v1.688h-16.75v20.563h25.875v-20.563h-5.375v-1.625c0-2 1.75-3.625 3.813-3.625 1.063 0 2 0.375 2.75 1.063 0.688 0.688 1.125 1.625 1.125 2.563v2.313h1.313v-0.063h1.188v0.063h1.313v-2.375c0-2-0.813-3.875-2.25-5.313zM24.563 29.563h-23.25v-17.938h23.25v17.938zM29.5 9.688v-1c0-1.313-0.563-2.563-1.563-3.5-0.938-0.875-2.25-1.438-3.625-1.438-2.813 0-5.125 2.25-5.125 4.938v1.625h-1.125v-1.688c0-3.438 2.813-6.188 6.313-6.188 1.688 0 3.313 0.625 4.5 1.813 1.188 1.125 1.813 2.688 1.813 4.375v1.063zM12.813 24.688c1.563 0 2.813-1.313 2.813-2.875v-3.563c0-1.563-1.25-2.813-2.813-2.813-1.5 0-2.813 1.25-2.813 2.813v3.563c0 1.563 1.313 2.875 2.813 2.875zM11.313 18.25c0-0.875 0.688-1.563 1.5-1.563 0.875 0 1.563 0.688 1.563 1.563v3.563c0 0.875-0.688 1.563-1.563 1.563-0.813 0-1.5-0.688-1.5-1.563z"></path>
</svg>
