<?xml version="1.0" encoding="utf-8"?>
<!DOCTYPE svg PUBLIC "-//W3C//DTD SVG 1.1//EN" "http://www.w3.org/Graphics/SVG/1.1/DTD/svg11.dtd">
<svg version="1.1" xmlns="http://www.w3.org/2000/svg" xmlns:xlink="http://www.w3.org/1999/xlink" width="32" height="32" viewBox="0 0 32 32">
<path d="M29.25 16c0-7.25-5.875-13.125-13.125-13.125s-13.125 5.875-13.125 13.125c0 7.25 5.875 13.125 13.125 13.125s13.125-5.875 13.125-13.125zM4.063 16c0-6.625 5.375-12.063 12.063-12.063 6.625 0 12.063 5.438 12.063 12.063s-5.438 12.063-12.063 12.063c-6.688 0-12.063-5.438-12.063-12.063zM21.75 15.188l0.75-0.75-6.375-6.375-6.375 6.375 0.75 0.75 5.063-5.125v12.75h1.063v-12.75z"></path>
</svg>
