<?xml version="1.0" encoding="utf-8"?>
<!DOCTYPE svg PUBLIC "-//W3C//DTD SVG 1.1//EN" "http://www.w3.org/Graphics/SVG/1.1/DTD/svg11.dtd">
<svg version="1.1" xmlns="http://www.w3.org/2000/svg" xmlns:xlink="http://www.w3.org/1999/xlink" width="32" height="32" viewBox="0 0 32 32">
<path d="M23.375 6.375h-3.688v3.688h1.563v2.563c0 0.625 0 1-0.563 1.563l-3.688 3.625v-14.875l0.75 1.25 0.875-0.563-2.188-3.625-2.188 3.625 0.938 0.563 0.75-1.25v19.25l-3.375-3.375c-0.563-0.563-0.875-1.063-0.875-1.438v-2.5c0.875-0.188 1.563-1.063 1.563-2.063 0-1.188-0.938-2.125-2.125-2.125s-2.125 0.938-2.125 2.125c0 1 0.688 1.813 1.625 2.063v2.5c0 0.938 0.625 1.688 1.188 2.188l4.188 4.188v3c-1.25 0.25-2.125 1.313-2.125 2.563 0 1.5 1.125 2.688 2.625 2.688s2.688-1.188 2.688-2.688c0-1.25-0.875-2.313-2.125-2.563v-7.375l4.438-4.438c0.875-0.938 0.875-1.688 0.875-2.313v-2.563h1v-3.688zM10.063 12.813c0-0.625 0.5-1.063 1.063-1.063 0.625 0 1.063 0.438 1.063 1.063 0 0.563-0.438 1.063-1.063 1.063-0.563 0-1.063-0.5-1.063-1.063zM18.063 29.313c0 0.938-0.688 1.625-1.625 1.625-0.875 0-1.563-0.688-1.563-1.625 0-0.875 0.688-1.563 1.563-1.563 0.938 0 1.625 0.688 1.625 1.563zM20.75 7.438h1.5v1.563h-1.5z"></path>
</svg>
