<?xml version="1.0" encoding="utf-8"?>
<!DOCTYPE svg PUBLIC "-//W3C//DTD SVG 1.1//EN" "http://www.w3.org/Graphics/SVG/1.1/DTD/svg11.dtd">
<svg version="1.1" xmlns="http://www.w3.org/2000/svg" xmlns:xlink="http://www.w3.org/1999/xlink" width="32" height="32" viewBox="0 0 32 32">
<path d="M16.063 3.438c-6.938 0-12.563 5.625-12.563 12.563s5.625 12.563 12.563 12.563c7 0 12.625-5.625 12.625-12.563s-5.625-12.563-12.625-12.563zM9.188 25.25c0.75-0.313 1.625-0.563 2.375-0.813 2.563-0.875 2.938-1 2.938-1.875v-2.063l-0.875-0.125c-0.063 0-1.5-0.25-2.5-0.25-0.563 0-0.813 0-1.125-0.188 0.75-1.563 1.5-4.063 1.75-6h0.063l0.063-1.375c0.125-2.25 2-3.938 4.188-3.938 2.25 0 4.063 1.688 4.188 3.938l0.125 1.375c0.313 1.938 1.063 4.438 1.75 6-0.25 0.188-0.563 0.188-1.063 0.188-1 0-2.438 0.313-2.563 0.375l-0.813 0.188v1.875c0 0.875 0.375 1 3.063 1.938 0.688 0.25 1.438 0.5 2.188 0.813-1.938 1.375-4.313 2.25-6.875 2.25s-4.938-0.875-6.875-2.313zM23.875 24.5c-2.188-0.813-5.188-1.75-5.188-1.938 0-0.25 0-1.063 0-1.063s1.438-0.313 2.375-0.313c0.938 0 1.563-0.063 2.375-1.063-1-1.75-2.125-5.625-2.125-7.625v0c-0.125-2.75-2.438-4.938-5.25-4.938-2.75 0-5.063 2.188-5.188 4.938h-0.063c0 2-1.063 5.875-2.063 7.625 0.75 1 1.438 1.063 2.375 1.063 0.875 0 2.313 0.25 2.313 0.25s0 0.875 0 1.125c0 0.188-3.063 1.063-5.188 1.875-2.25-2.063-3.688-5.125-3.688-8.438 0-6.375 5.188-11.563 11.5-11.563 6.375 0 11.563 5.188 11.563 11.563 0 3.375-1.438 6.438-3.75 8.5z"></path>
</svg>
