<?xml version="1.0" encoding="utf-8"?>
<!DOCTYPE svg PUBLIC "-//W3C//DTD SVG 1.1//EN" "http://www.w3.org/Graphics/SVG/1.1/DTD/svg11.dtd">
<svg version="1.1" xmlns="http://www.w3.org/2000/svg" xmlns:xlink="http://www.w3.org/1999/xlink" width="32" height="32" viewBox="0 0 32 32">
<path d="M16 3.188c-7.063 0-12.813 5.75-12.813 12.813s5.75 12.813 12.813 12.813c7.063 0 12.813-5.75 12.813-12.813s-5.75-12.813-12.813-12.813zM16 4.25c6.438 0 11.75 5.313 11.75 11.75 0 2.875-1.063 5.438-2.75 7.5-1.125-0.5-3.938-1.438-5.625-1.938-0.125-0.063-0.188-0.063-0.188-0.688 0-0.5 0.25-1 0.438-1.438s0.5-1.25 0.563-1.938c0.25-0.313 0.625-0.875 0.813-2 0.25-1 0.125-1.375 0-1.75 0 0 0-0.063-0.063-0.063 0-0.25 0.063-1.438 0.188-2.438 0.125-0.625 0-2-0.875-3.125-0.563-0.75-1.688-1.625-3.625-1.75h-1.063c-1.938 0.125-3 1-3.563 1.75-0.938 1.125-1.063 2.5-0.938 3.125 0.188 1 0.25 2.188 0.188 2.438 0 0 0 0.063-0.063 0.063-0.125 0.375-0.188 0.75 0 1.75 0.25 1.125 0.563 1.688 0.813 2 0.125 0.688 0.375 1.5 0.563 1.938 0.188 0.375 0.25 0.813 0.25 1.438s0 0.625-0.125 0.688c-1.813 0.5-4.625 1.563-5.625 2-1.75-2.063-2.813-4.688-2.813-7.563 0-6.438 5.313-11.75 11.75-11.75zM7.813 24.375c1.188-0.5 3.563-1.313 5.188-1.813 0.875-0.25 0.875-1.063 0.875-1.688 0-0.5 0-1.25-0.313-1.875-0.188-0.438-0.438-1.188-0.5-1.813 0-0.125-0.063-0.25-0.188-0.313-0.125-0.125-0.438-0.625-0.625-1.625-0.188-0.75-0.125-0.938-0.063-1.063s0.063-0.188 0.063-0.25c0.125-0.438 0-2-0.125-2.875-0.063-0.375 0-1.375 0.688-2.313 0.625-0.75 1.563-1.188 2.75-1.313h1c1.25 0.125 2.188 0.563 2.813 1.313 0.688 0.938 0.813 1.938 0.75 2.313-0.188 0.875-0.313 2.438-0.188 2.875 0 0.063 0.063 0.188 0.063 0.25 0.063 0.125 0.125 0.313 0 1.063-0.188 1-0.5 1.5-0.688 1.625-0.063 0.063-0.188 0.188-0.188 0.313-0.063 0.625-0.25 1.375-0.5 1.813-0.188 0.5-0.5 1.188-0.5 1.875 0 0.625 0 1.375 0.938 1.688 1.5 0.438 3.938 1.25 5.188 1.75-2.125 2.125-5.063 3.438-8.25 3.438s-6.063-1.313-8.188-3.375z"></path>
</svg>
