<?xml version="1.0" encoding="utf-8"?>
<!DOCTYPE svg PUBLIC "-//W3C//DTD SVG 1.1//EN" "http://www.w3.org/Graphics/SVG/1.1/DTD/svg11.dtd">
<svg version="1.1" xmlns="http://www.w3.org/2000/svg" xmlns:xlink="http://www.w3.org/1999/xlink" width="32" height="32" viewBox="0 0 32 32">
<path d="M2 22c0 0.438 0 1.813 0 2.125s0.188 0.813 0.813 0.813c0.5 0 4.438 0 6.25 0 0.563 0 0.875 0 0.875 0h0.188c0 0 0.125 0 0.25 0 0 0.5 0 0.938 0 1.063 0 0.375 0.25 1 1.063 1 0.563 0 5.5 0 7.688 0 0.688 0 1.125 0 1.125 0h0.188c0 0 0.438 0 1.125 0 2.25 0 7.125 0 7.75 0 0.813 0 1-0.625 1-1s0-2.063 0-2.625c0-0.563-0.188-1.188-1-1.5-1.063-0.5-3.813-1.5-5.563-2-0.125 0-0.125-0.063-0.125-0.625 0-0.625 0.063-1.125 0.25-1.438 0.188-0.438 0.438-1.25 0.5-1.938 0.313-0.25 0.625-0.875 0.875-2 0.188-0.938 0.063-1.313-0.063-1.625 0-0.063 0-0.063 0-0.125-0.063-0.25 0-1.438 0.188-2.375 0.125-0.625-0.063-1.938-0.938-3.063-0.563-0.75-1.625-1.625-3.5-1.688h-1.063c-1.938 0.063-3 0.938-3.563 1.688-0.875 1.125-1 2.438-0.875 3.063 0.125 0.938 0.25 2.125 0.188 2.375 0 0.063-0.063 0.063-0.063 0.125-0.125 0.313-0.188 0.688 0 1.625 0.188 1.125 0.563 1.75 0.813 2 0.063 0.688 0.313 1.5 0.563 1.938 0.188 0.438 0.375 0.938 0.375 1.375 0 0.625 0 0.625-0.125 0.688-0.375 0.125-0.813 0.25-1.188 0.375-1-0.375-2.313-0.813-3.188-1.125-0.125 0-0.125 0-0.125-0.5s0.063-0.875 0.188-1.125c0.125-0.375 0.375-1 0.438-1.563 0.188-0.25 0.5-0.688 0.688-1.625 0.125-0.813 0.063-1.063-0.063-1.375 0 0 0 0 0-0.063-0.063-0.188 0-1.125 0.125-1.875 0.125-0.563 0-1.625-0.75-2.563-0.438-0.563-1.25-1.25-2.813-1.313h-0.875c-1.563 0.063-2.375 0.75-2.813 1.313-0.75 0.938-0.875 2-0.75 2.563 0.125 0.75 0.188 1.688 0.125 1.875 0 0.063 0 0.063 0 0.063-0.125 0.313-0.188 0.563-0.063 1.375 0.188 0.938 0.5 1.375 0.688 1.625 0.063 0.563 0.313 1.188 0.438 1.563 0.188 0.313 0.313 0.688 0.313 1.125 0 0.5 0 0.5-0.125 0.5-1.313 0.438-3.563 1.188-4.438 1.563-0.688 0.313-1 0.875-1 1.313zM11.438 23.375c0-0.125 0.188-0.438 0.563-0.625 1.125-0.438 3.813-1.375 5.438-1.875 0.938-0.313 0.938-1.063 0.938-1.625 0-0.75-0.25-1.375-0.5-1.875-0.188-0.375-0.375-1.063-0.438-1.625l-0.063-0.313-0.188-0.25c-0.125-0.125-0.438-0.5-0.625-1.5-0.125-0.75-0.063-0.938 0-1.063v0-0.063c0-0.063 0.063-0.063 0.063-0.125v-0.063c0.125-0.5 0-2-0.188-2.813-0.063-0.313 0.063-1.375 0.688-2.25 0.625-0.75 1.563-1.188 2.75-1.313h1c1.5 0.125 2.313 0.75 2.75 1.313 0.688 0.875 0.75 1.938 0.688 2.25-0.125 0.813-0.25 2.313-0.188 2.75v0.063c0.063 0.125 0.063 0.188 0.125 0.25 0.063 0.125 0.125 0.313-0.063 1.063-0.188 1-0.438 1.375-0.563 1.5l-0.25 0.25v0.313c-0.063 0.563-0.313 1.25-0.5 1.625-0.188 0.438-0.313 1.063-0.313 1.875 0 0.563 0 1.375 0.875 1.625 1.688 0.5 4.438 1.5 5.438 1.938 0.313 0.125 0.375 0.25 0.375 0.563v2.625h-17.813v-2.625zM3.063 22c0-0.063 0.063-0.25 0.313-0.313 0.938-0.438 3.063-1.188 4.375-1.563 0.875-0.25 0.875-1.063 0.875-1.5 0-0.625-0.188-1.125-0.438-1.625-0.125-0.25-0.25-0.75-0.313-1.188l-0.063-0.313-0.188-0.25c-0.063-0.063-0.313-0.375-0.438-1.125-0.125-0.563-0.063-0.688-0.063-0.75v-0.063h0.063c0-0.063 0-0.063 0-0.125v-0.063h0.063c0.063-0.5-0.063-1.813-0.188-2.313 0-0.25 0.063-1.063 0.563-1.688 0.438-0.563 1.125-0.938 2.063-1h0.75c1.188 0.125 1.75 0.563 2.063 1 0.5 0.625 0.563 1.438 0.563 1.688-0.125 0.563-0.25 1.813-0.188 2.313v0 0c0.063 0.063 0.063 0.125 0.125 0.25 0 0.063 0.063 0.188-0.063 0.75-0.125 0.75-0.375 1.063-0.438 1.125l-0.188 0.25-0.063 0.313c-0.063 0.438-0.188 0.938-0.375 1.188-0.188 0.438-0.25 0.938-0.25 1.625 0 0.5 0 1.25 0.875 1.5 0.5 0.188 1.188 0.438 1.875 0.625-1.125 0.375-2.188 0.813-2.75 1.063-0.875 0.313-1.25 1-1.25 1.563 0 0.125 0 0.313 0 0.5h-7.313v-1.875z"></path>
</svg>
