<?xml version="1.0" encoding="utf-8"?>
<!DOCTYPE svg PUBLIC "-//W3C//DTD SVG 1.1//EN" "http://www.w3.org/Graphics/SVG/1.1/DTD/svg11.dtd">
<svg version="1.1" xmlns="http://www.w3.org/2000/svg" xmlns:xlink="http://www.w3.org/1999/xlink" width="32" height="32" viewBox="0 0 32 32">
<path d="M31.125 28.313c-0.188-0.125-3.875-2.5-9.313-3.688 2-2.5 3.313-5.875 3.813-8.188 0.75-3.125 0.5-9.188-2.5-13.063-1.75-2.188-4.25-3.375-7.125-3.375s-5.375 1.188-7.125 3.375c-3 3.875-3.25 9.938-2.5 13.063 0.5 2.313 1.813 5.688 3.813 8.188-5.438 1.188-9.125 3.563-9.313 3.688-0.688 0.5-1.063 1.438-0.813 2.25 0.25 0.875 1.063 1.438 1.938 1.438h28c0.875 0 1.688-0.563 1.938-1.438 0.25-0.813-0.125-1.75-0.813-2.25zM20.25 23.375l-0.313 0.438c-2.375 2.75-5.5 2.75-7.875 0l-0.313-0.438c-2.813-3.5-4.188-8.188-3.563-12.625 0.5-4.25 3-8.75 7.813-8.75s7.313 4.5 7.813 8.75c0.625 4.438-0.75 9.125-3.563 12.625zM2 30c0.125-0.063 3.5-2.313 8.563-3.438l2.5-0.5c0.875 0.563 1.875 0.938 2.938 0.938s2.063-0.375 2.938-0.938l2.5 0.5c5 1.125 8.375 3.313 8.563 3.438z"></path>
</svg>
