<?xml version="1.0" encoding="utf-8"?>
<!DOCTYPE svg PUBLIC "-//W3C//DTD SVG 1.1//EN" "http://www.w3.org/Graphics/SVG/1.1/DTD/svg11.dtd">
<svg version="1.1" xmlns="http://www.w3.org/2000/svg" xmlns:xlink="http://www.w3.org/1999/xlink" width="32" height="32" viewBox="0 0 32 32">
<path d="M20 20c0 1.125-0.875 2-2 2s-2-0.875-2-2c0-1.125 0.875-2 2-2s2 0.875 2 2zM29 13c0 0 0 0 0 0v-9c0-1.688-1.375-3-3-3h-20.5c-3.063 0-5.5 2.438-5.5 5.5v20c0 3.063 2.438 5.5 5.5 5.5h18c3.063 0 5.5-2.438 5.5-5.5v-1.5c0 0 0 0 0 0 4-3 4-9 0-12zM5.5 3h20.5c0.563 0 1 0.438 1 1v6.188c-0.313-0.125-0.625-0.188-1-0.188v0-5c0-0.563-0.438-1-1-1h-21c-0.563 0-1 0.438-1 1v3.938c-0.625-0.625-1-1.5-1-2.438 0-1.938 1.563-3.5 3.5-3.5zM25 6h-21v-1h21zM25 7v1h-21v-1zM25 9v1h-19.5c-0.563 0-1.063-0.125-1.5-0.375v-0.625zM27 26.5c0 1.938-1.563 3.5-3.5 3.5h-18c-1.938 0-3.5-1.563-3.5-3.5v-15.75c0.938 0.75 2.188 1.25 3.5 1.25h20.5c0.563 0 1 0.438 1 1v2h-9c-2.75 0-5 2.25-5 5s2.25 5 5 5h9zM28.25 23h-10.25c-1.625 0-3-1.375-3-3s1.375-3 3-3h9c0.625 0 1.25-0.313 1.625-0.813 0.063-0.125 0.188-0.313 0.25-0.438 0-0.063 0-0.063 0-0.063 0.75 0.938 1.125 2.063 1.125 3.313 0 1.563-0.625 2.938-1.75 4z"></path>
</svg>
