<?xml version="1.0" encoding="utf-8"?>
<!DOCTYPE svg PUBLIC "-//W3C//DTD SVG 1.1//EN" "http://www.w3.org/Graphics/SVG/1.1/DTD/svg11.dtd">
<svg version="1.1" xmlns="http://www.w3.org/2000/svg" xmlns:xlink="http://www.w3.org/1999/xlink" width="32" height="32" viewBox="0 0 32 32">
<path d="M29.313 24.625c0-1.25-0.875-1.25-1.875-1.688l-4.813-1.938c-0.063 0-0.125-0.063-0.25-0.063v0c-0.813-0.375-1.563-0.938-1.875-1.313v0 0c0-0.063-0.063-0.063-0.063-0.125v0 0 0 0c-0.125-0.188-0.25-0.313-0.375-0.25v0 0 0 0 0h-0.063c-0.125 0.063-0.063 0-0.125-0.125-0.125-0.375-0.375-1-0.375-1.125-0.063-0.188-0.188 0.313-0.188-0.25l0.063-0.875c0.125-0.125 0.188-0.188 0.25-0.25 0.313-0.375 0.313-1.313 0.5-1.5 0.125-0.25 0.438-0.313 0.75-1.375s0.688-2.625 0.313-2.625c-0.125 0-0.25 0.063-0.313 0.125 0.063-0.375 0.188-1.25 0.25-1.938 0-0.875-0.125-3.063-0.625-3.875-0.313-0.563-0.938-1.063-1.563-1.438-0.375-0.25-0.75-0.438-1.063-0.563-0.875-0.375-3.75-0.188-4.688 0-1.125 0.25-1.875 0.938-2.375 1.75s-0.688 3.25-0.688 4.125c0.063 0.375 0.25 1.063 0.313 1.438 0.063 0.25 0.063 0.25 0.125 0.375-0.063 0-0.063 0-0.125 0-0.375 0 0 1.563 0.313 2.625s0.625 1.125 0.75 1.375c0.188 0.188 0.188 1.125 0.5 1.5 0.063 0.063 0.125 0.125 0.25 0.25l0.063 0.75 0.063 0.438c-0.063-0.125-0.125-0.25-0.188-0.063-0.125 0.438-0.25 0.813-0.375 1.25 0-0.063-0.063-0.063-0.063-0.063-0.125-0.125-0.313 0-0.5 0.25-0.188 0.375-1 1-1.938 1.375v0.125c-0.063 0.063-0.125 0.063-0.25 0.063l-4.75 1.938c-1.063 0.438-1.938 0.438-1.938 1.688l-0.75 4.188h28.75z"></path>
</svg>
