<?xml version="1.0" encoding="utf-8"?>
<!DOCTYPE svg PUBLIC "-//W3C//DTD SVG 1.1//EN" "http://www.w3.org/Graphics/SVG/1.1/DTD/svg11.dtd">
<svg version="1.1" xmlns="http://www.w3.org/2000/svg" xmlns:xlink="http://www.w3.org/1999/xlink" width="32" height="32" viewBox="0 0 32 32">
<path d="M28.188 9.875l-1 0.938c-2.063-1.813-4.75-2.813-7.5-2.813-1.875 0-3.75 0.5-5.313 1.313l4.063-4.063c0.313 0.25 0.688 0.375 1.063 0.375 0.5 0 1.063-0.25 1.438-0.688 0.875-0.813 0.875-2.188 0-3-0.375-0.438-0.938-0.688-1.438-0.688-0.563 0-1.063 0.25-1.5 0.688-0.688 0.75-0.813 1.813-0.313 2.625l-5.125 5.063-1-0.938-2.625 2.625 1 0.938-5.25 5.25c-0.313-0.25-0.688-0.313-1.063-0.313-0.5 0-1.063 0.188-1.5 0.625-0.813 0.875-0.813 2.188 0 3.063 0.438 0.375 1 0.563 1.5 0.563 0.563 0 1.063-0.188 1.5-0.625 0.688-0.688 0.813-1.75 0.313-2.625l4.063-4.063c-2.125 4.125-1.625 9.25 1.5 12.875l-0.938 1 2.625 2.625 2.625-2.625-2.625-2.625-0.875 0.938c-3.125-3.625-3.25-8.875-0.688-12.688l0.438 0.375 2.688-2.563-0.5-0.438c1.75-1.25 3.813-1.875 5.938-1.875 2.5 0 4.875 0.875 6.75 2.5l-0.938 0.938 2.688 2.563 2.563-2.563-2.563-2.688zM13.813 28l-1.125 1.125-1.125-1.125 1.125-1.125zM18.75 2.75c0.188-0.25 0.438-0.375 0.75-0.375 0.25 0 0.5 0.125 0.75 0.375 0.375 0.375 0.375 1.063 0 1.438-0.25 0.25-0.5 0.375-0.75 0.375-0.313 0-0.563-0.125-0.75-0.375-0.438-0.375-0.438-1.063 0-1.438zM4.375 20.063c-0.188 0.188-0.5 0.313-0.75 0.313s-0.5-0.125-0.75-0.313c-0.188-0.188-0.313-0.438-0.313-0.75 0-0.25 0.125-0.563 0.313-0.75 0.25-0.188 0.5-0.313 0.75-0.313s0.563 0.125 0.75 0.313c0.438 0.438 0.438 1.125 0 1.5zM11.5 12.563l-1.063-1.125 1.063-1.125 1.125 1.125zM28.188 13.625l-1.125-1.063 1.125-1.125 1.125 1.125z"></path>
</svg>
