<?xml version="1.0" encoding="utf-8"?>
<!DOCTYPE svg PUBLIC "-//W3C//DTD SVG 1.1//EN" "http://www.w3.org/Graphics/SVG/1.1/DTD/svg11.dtd">
<svg version="1.1" xmlns="http://www.w3.org/2000/svg" xmlns:xlink="http://www.w3.org/1999/xlink" width="32" height="32" viewBox="0 0 32 32">
<path d="M23.438 17.813c3.875 0 6.938-3.125 6.938-6.938s-3.063-6.875-6.938-6.875c-3.5 0-6.375 2.563-6.875 5.875h-0.188c-0.5-3.313-3.438-5.875-6.875-5.875-3.875 0-7 3.063-7 6.875s3.063 6.875 6.875 6.938v0h0.188v2.313l-7.938-2.125v9.188l7.938-2.375v3.188h11.75l-3.438-10.188h5.563c0 0 0 0 0 0zM9.5 12.813c-1.125 0-2-0.813-2-1.938 0-1.063 0.875-1.938 2-1.938 1.063 0 1.938 0.875 1.938 1.938 0 1.125-0.875 1.938-1.938 1.938zM21.625 10.875c0-1.063 0.875-1.938 1.938-1.938 1.125 0 2 0.875 2 1.938 0 1.125-0.875 1.938-2 1.938-1.063 0-1.938-0.813-1.938-1.938z"></path>
</svg>
