<?xml version="1.0" encoding="utf-8"?>
<!DOCTYPE svg PUBLIC "-//W3C//DTD SVG 1.1//EN" "http://www.w3.org/Graphics/SVG/1.1/DTD/svg11.dtd">
<svg version="1.1" xmlns="http://www.w3.org/2000/svg" xmlns:xlink="http://www.w3.org/1999/xlink" width="32" height="32" viewBox="0 0 32 32">
<path d="M30 6h-0.875c-0.563 0-1.063 0.188-1.438 0.563l-2.688 2.688v-1.25c0-1.688-1.375-3-3-3h-19c-1.625 0-3 1.375-3 3v16c0 1.625 1.313 3 3 3h19c1.625 0 3-1.375 3-3v-1.25l2.688 2.688c0.375 0.375 0.875 0.563 1.438 0.563h0.875c1.125 0 2-0.875 2-2v-16c0-1.125-0.875-2-2-2zM3 25c-0.563 0-1-0.438-1-1v-16c0-0.563 0.438-1 1-1h19c0.563 0 1 0.438 1 1v16c0 0.563-0.438 1-1 1zM30 24h-1l-5-5v-6l5-5h1z"></path>
</svg>
