<svg xmlns="http://www.w3.org/2000/svg" xmlns:xlink="http://www.w3.org/1999/xlink" preserveAspectRatio="xMidYMid" width="100" height="100" viewBox="0 0 100 100">
  <path d="M43.357,31.641 L65.625,48.828 L65.625,51.172 L43.357,68.359 L40.622,67.187 L40.622,32.813 L43.357,31.641 ZM43.747,64.062 L61.523,50.000 L43.747,35.938 L43.747,64.062 ZM100.003,50.000 C100.003,63.803 95.120,75.586 85.353,85.352 C75.586,95.117 63.799,100.000 49.998,100.000 C36.194,100.000 24.410,95.117 14.643,85.352 C4.876,75.586 -0.007,63.803 -0.007,50.000 C-0.007,36.200 4.876,24.414 14.643,14.648 C24.410,4.883 36.194,-0.000 49.998,-0.000 C63.799,-0.000 75.586,4.883 85.353,14.648 C95.120,24.414 100.003,36.200 100.003,50.000 ZM96.878,50.000 C96.878,37.241 92.318,26.172 83.204,16.797 C73.829,7.684 62.759,3.125 49.998,3.125 C37.234,3.125 26.168,7.684 16.792,16.797 C7.675,26.172 3.118,37.241 3.118,50.000 C3.118,62.762 7.675,73.828 16.792,83.203 C26.168,92.319 37.234,96.875 49.998,96.875 C62.759,96.875 73.829,92.319 83.204,83.203 C92.318,73.828 96.878,62.762 96.878,50.000 Z" class="cls-1"/>
</svg>
