<?xml version="1.0" encoding="utf-8"?>
<!DOCTYPE svg PUBLIC "-//W3C//DTD SVG 1.1//EN" "http://www.w3.org/Graphics/SVG/1.1/DTD/svg11.dtd">
<svg version="1.1" xmlns="http://www.w3.org/2000/svg" xmlns:xlink="http://www.w3.org/1999/xlink" width="32" height="32" viewBox="0 0 32 32">
<path d="M28.188 9.063l-6.875 4.125v-4.625c0-0.938-0.688-1.625-1.563-1.625h-17.063c-0.875 0-1.625 0.688-1.625 1.625v14.875c0 0.938 0.75 1.625 1.625 1.625h17.063c0.875 0 1.563-0.688 1.563-1.625v-4.688l7 4.188h2.625v-13.875h-2.75zM20.25 23.438c0 0.313-0.25 0.563-0.5 0.563h-17.063c-0.313 0-0.563-0.25-0.563-0.563v-14.875c0-0.313 0.25-0.563 0.563-0.563h17.063c0.25 0 0.5 0.25 0.5 0.563zM29.875 21.875h-1.25l-7.313-4.375v-3.063l7.188-4.313h1.375v11.75z"></path>
</svg>
