<?xml version="1.0" encoding="utf-8"?>
<!DOCTYPE svg PUBLIC "-//W3C//DTD SVG 1.1//EN" "http://www.w3.org/Graphics/SVG/1.1/DTD/svg11.dtd">
<svg version="1.1" xmlns="http://www.w3.org/2000/svg" xmlns:xlink="http://www.w3.org/1999/xlink" width="32" height="32" viewBox="0 0 32 32">
<path d="M26.188 3.5c-4-0.125-6.688 2.125-8.125 6.75 0.75-0.313 1.438-0.438 2.125-0.438 1.438 0 2.125 0.813 1.938 2.438-0.063 1-0.75 2.438-1.938 4.375-1.188 1.875-2.125 2.875-2.688 2.875-0.813 0-1.5-1.5-2.125-4.438-0.25-0.875-0.625-3.063-1.188-6.625-0.5-3.25-1.875-4.813-4.125-4.563-0.938 0.063-2.375 0.938-4.25 2.563-1.375 1.25-2.813 2.5-4.188 3.75l1.313 1.75c1.313-0.875 2.063-1.375 2.25-1.375 1 0 1.938 1.563 2.813 4.688 0.75 2.875 1.563 5.688 2.313 8.563 1.188 3.125 2.563 4.688 4.25 4.688 2.75 0 6.063-2.563 9.938-7.688 3.813-4.875 5.75-8.688 5.875-11.5 0.188-3.75-1.188-5.688-4.188-5.813z"></path>
</svg>
