<?xml version="1.0" encoding="utf-8"?>
<!DOCTYPE svg PUBLIC "-//W3C//DTD SVG 1.1//EN" "http://www.w3.org/Graphics/SVG/1.1/DTD/svg11.dtd">
<svg version="1.1" xmlns="http://www.w3.org/2000/svg" xmlns:xlink="http://www.w3.org/1999/xlink" width="32" height="32" viewBox="0 0 32 32">
<path d="M15.875 10.375c-3.125 0-5.625 2.5-5.625 5.625s2.5 5.625 5.625 5.625c3.188 0 5.625-2.5 5.625-5.625s-2.438-5.625-5.625-5.625zM15.875 20.5c-2.438 0-4.5-2-4.5-4.5s2.063-4.5 4.5-4.5c2.5 0 4.5 2 4.5 4.5s-2 4.5-4.5 4.5zM23.875 8c-2.25-2.125-5.063-3.25-8-3.25s-5.75 1.125-8 3.25l-7.875 8 8 8c2.25 2.25 5.063 3.25 8 3.25s5.75-1.125 8-3.25l8-8zM23.125 23.188c-1.938 1.938-4.563 2.938-7.25 2.938s-5.313-1-7.188-2.938l-7.125-7.188 7.25-7.188c1.75-1.938 4.375-2.938 7.063-2.938 2.75 0 5.313 1 7.25 2.938l7.188 7.188z"></path>
</svg>
