<?xml version="1.0" encoding="utf-8"?>
<!DOCTYPE svg PUBLIC "-//W3C//DTD SVG 1.1//EN" "http://www.w3.org/Graphics/SVG/1.1/DTD/svg11.dtd">
<svg version="1.1" xmlns="http://www.w3.org/2000/svg" xmlns:xlink="http://www.w3.org/1999/xlink" width="32" height="32" viewBox="0 0 32 32">
<path d="M24.813 8.813c-4 0-7.188 3.188-7.188 7.188 0 2.625 1.375 4.875 3.438 6.125h-10.125c2.063-1.25 3.438-3.5 3.438-6.125 0-4-3.188-7.188-7.188-7.188-3.938 0-7.188 3.188-7.188 7.188s3.25 7.188 7.188 7.188h17.625c3.938 0 7.188-3.188 7.188-7.188s-3.25-7.188-7.188-7.188zM1.063 16c0-3.375 2.75-6.125 6.125-6.125s6.125 2.75 6.125 6.125c0 3.375-2.75 6.125-6.125 6.125s-6.125-2.75-6.125-6.125zM24.813 22.125c-3.375 0-6.125-2.75-6.125-6.125s2.75-6.125 6.125-6.125c3.375 0 6.125 2.75 6.125 6.125s-2.75 6.125-6.125 6.125z"></path>
</svg>
