<?xml version="1.0" encoding="utf-8"?>
<!DOCTYPE svg PUBLIC "-//W3C//DTD SVG 1.1//EN" "http://www.w3.org/Graphics/SVG/1.1/DTD/svg11.dtd">
<svg version="1.1" xmlns="http://www.w3.org/2000/svg" xmlns:xlink="http://www.w3.org/1999/xlink" width="32" height="32" viewBox="0 0 32 32">
<path d="M15.625 5.25l-7.688 6.125h-5.938v9.438h6l7.625 6.063v-21.625zM14.563 19.813v0 4.875l-6.25-4.875h-5.25v-7.375h5.25l6.25-5v12.375zM18.063 10.75c1.188 1.5 1.75 3.313 1.75 5.25s-0.625 3.75-1.813 5.313l0.875 0.625c1.313-1.75 2-3.813 2-5.938 0-2.188-0.688-4.188-1.938-5.875l-0.875 0.625zM22.313 6.938l-0.813 0.688c2 2.375 3.063 5.375 3.063 8.5 0 3.063-1 5.938-2.938 8.313l0.813 0.688c2.063-2.625 3.188-5.688 3.188-9 0-3.375-1.188-6.625-3.313-9.188zM25.563 3.5l-0.75 0.688c2.875 3.313 4.438 7.563 4.438 11.938 0 4.313-1.5 8.438-4.313 11.688l0.813 0.688c2.938-3.438 4.563-7.813 4.563-12.375 0-4.625-1.688-9.125-4.75-12.625z"></path>
</svg>
