<?xml version="1.0" encoding="utf-8"?>
<!DOCTYPE svg PUBLIC "-//W3C//DTD SVG 1.1//EN" "http://www.w3.org/Graphics/SVG/1.1/DTD/svg11.dtd">
<svg version="1.1" xmlns="http://www.w3.org/2000/svg" xmlns:xlink="http://www.w3.org/1999/xlink" width="32" height="32" viewBox="0 0 32 32">
<path d="M11.188 13.313v5.375h4.375l3.625 3.625v-12.625l-3.625 3.625zM16.313 14.063l1.813-1.75v7.375l-2.125-2.063h-3.75v-3.25h3.75zM16 2.688c-7.375 0-13.313 5.938-13.313 13.313s5.938 13.313 13.313 13.313c7.375 0 13.313-5.938 13.313-13.313s-5.938-13.313-13.313-13.313zM16 28.25c-6.75 0-12.25-5.5-12.25-12.25s5.5-12.25 12.25-12.25c6.75 0 12.25 5.5 12.25 12.25s-5.5 12.25-12.25 12.25z"></path>
</svg>
