<?xml version="1.0" encoding="utf-8"?>
<!DOCTYPE svg PUBLIC "-//W3C//DTD SVG 1.1//EN" "http://www.w3.org/Graphics/SVG/1.1/DTD/svg11.dtd">
<svg version="1.1" xmlns="http://www.w3.org/2000/svg" xmlns:xlink="http://www.w3.org/1999/xlink" width="32" height="32" viewBox="0 0 32 32">
<path d="M11.188 13.313v5.375h4.375l3.625 3.625v-12.625l-3.625 3.625zM16.313 14.063l1.813-1.75v7.375l-2.125-2.063h-3.75v-3.25h3.75zM26.688 8.063l-0.875 0.625c1.563 2.063 2.438 4.563 2.438 7.313s-0.875 5.25-2.438 7.313l0.875 0.625c1.688-2.188 2.625-4.938 2.625-7.938s-0.938-5.75-2.625-7.938zM24.125 22.063c1.25-1.688 2-3.813 2-6.063s-0.75-4.375-2-6.063l-0.875 0.688c1.125 1.5 1.813 3.375 1.813 5.375s-0.688 3.875-1.813 5.375zM21.563 20.125c0.875-1.125 1.375-2.563 1.375-4.125s-0.5-3-1.375-4.125l-0.875 0.625c0.75 1 1.188 2.188 1.188 3.5s-0.438 2.5-1.188 3.5zM16 28.25c-6.75 0-12.25-5.5-12.25-12.25s5.5-12.25 12.25-12.25c3.375 0 6.438 1.375 8.625 3.563l0.75-0.75c-2.375-2.375-5.688-3.875-9.375-3.875-7.375 0-13.313 5.938-13.313 13.313s5.938 13.313 13.313 13.313c3.688 0 7-1.5 9.375-3.875l-0.75-0.75c-2.188 2.188-5.25 3.563-8.625 3.563z"></path>
</svg>
