<?xml version="1.0" encoding="utf-8"?>
<!DOCTYPE svg PUBLIC "-//W3C//DTD SVG 1.1//EN" "http://www.w3.org/Graphics/SVG/1.1/DTD/svg11.dtd">
<svg version="1.1" xmlns="http://www.w3.org/2000/svg" xmlns:xlink="http://www.w3.org/1999/xlink" width="32" height="32" viewBox="0 0 32 32">
<path d="M21.938 1.125c-8.188-3.25-17.5 0.75-20.813 8.938-3.25 8.188 0.75 17.5 8.938 20.813 8.188 3.25 17.5-0.75 20.813-8.938 3.25-8.188-0.75-17.5-8.938-20.813zM10.813 29c-7.188-2.875-10.688-11.063-7.813-18.188 2.875-7.188 11.063-10.688 18.188-7.813 7.188 2.875 10.688 11.063 7.813 18.188-2.875 7.188-11.063 10.688-18.188 7.813zM16.75 14.125c-1-0.375-2.188 0.125-2.625 1.125-0.375 1.063 0.125 2.188 1.125 2.625 1.063 0.375 2.188-0.125 2.625-1.125 0.375-1-0.125-2.188-1.125-2.625zM15.625 16.938c-0.5-0.188-0.75-0.813-0.563-1.313s0.813-0.75 1.313-0.563c0.5 0.188 0.75 0.813 0.563 1.313s-0.813 0.75-1.313 0.563zM18.25 10.438c-3.063-1.25-6.563 0.25-7.813 3.313-1.25 3.125 0.25 6.563 3.313 7.813 3.125 1.25 6.563-0.25 7.813-3.313s-0.25-6.563-3.313-7.813zM14.5 19.688c-2-0.813-3-3.125-2.188-5.188 0.813-2 3.125-3 5.188-2.188s3.063 3.125 2.25 5.188c-0.875 2.063-3.188 3.063-5.25 2.188zM23.438 19c0.125-0.25 0-0.563-0.313-0.688-0.25-0.063-0.5 0.063-0.625 0.313v0c-0.688 1.75-2.125 3.125-3.75 3.813-0.25 0.125-0.375 0.375-0.25 0.688 0.125 0.25 0.375 0.313 0.625 0.25 0.063 0 0.063 0 0.063 0 1.875-0.813 3.438-2.375 4.25-4.375zM26.875 19.813c-0.25-0.125-0.563 0-0.688 0.25-1.125 2.875-3.25 4.938-5.875 6.063-0.25 0.125-0.375 0.375-0.25 0.625s0.438 0.375 0.688 0.313c0-0.063 0-0.063 0-0.063 2.813-1.188 5.188-3.5 6.375-6.563 0.125-0.25 0-0.5-0.25-0.625zM25 19.063c-0.25-0.125-0.563 0-0.625 0.313-0.938 2.313-2.688 4-4.813 4.875v0c-0.25 0.125-0.375 0.438-0.25 0.688 0.063 0.25 0.375 0.375 0.625 0.25 0 0 0 0 0 0 2.375-1 4.313-2.938 5.375-5.438 0.063-0.313-0.063-0.563-0.313-0.688zM13.5 8.938c-0.125-0.25-0.375-0.375-0.625-0.313 0 0-0.063 0.063-0.063 0.063-1.875 0.813-3.438 2.313-4.25 4.313v0c-0.063 0.313 0.063 0.563 0.313 0.688s0.5 0 0.625-0.313v0c0.75-1.75 2.125-3.125 3.75-3.813 0.25-0.125 0.375-0.375 0.25-0.625zM11.938 5.25c-0.125-0.25-0.375-0.375-0.688-0.25 0 0 0 0 0 0-2.813 1.188-5.188 3.5-6.375 6.563-0.125 0.25 0 0.5 0.25 0.625s0.563 0 0.688-0.25c1.125-2.813 3.25-4.938 5.875-6.063 0.25-0.063 0.375-0.375 0.25-0.625zM12.438 7.75c0.25-0.125 0.375-0.438 0.313-0.688-0.125-0.25-0.438-0.375-0.688-0.25 0 0 0 0 0 0-2.375 1-4.313 2.938-5.313 5.5-0.125 0.25 0 0.5 0.25 0.625s0.563 0 0.625-0.25c0.938-2.313 2.75-4.063 4.813-4.938v0z"></path>
</svg>
