<?xml version="1.0" encoding="utf-8"?>
<!DOCTYPE svg PUBLIC "-//W3C//DTD SVG 1.1//EN" "http://www.w3.org/Graphics/SVG/1.1/DTD/svg11.dtd">
<svg version="1.1" xmlns="http://www.w3.org/2000/svg" xmlns:xlink="http://www.w3.org/1999/xlink" width="32" height="32" viewBox="0 0 32 32">
<path d="M12.25 5.25l3.813 13.063 3.875-13.063h9.313v1.375l-3.375 6.75c1.375 0.438 2.625 1.25 3.313 2.375 0.75 1.188 1.188 2.563 1.188 4.125 0 1.938-0.438 3.563-1.438 4.875-1.063 1.313-2.313 2-4 2-1.188 0-2.25-0.438-3.188-1.188-0.875-0.813-1.563-1.875-2-3.188l2.188-0.938c0.313 0.813 0.688 1.5 1.25 1.938 0.5 0.5 1.125 0.688 1.813 0.688 0.75 0 1.375-0.375 1.875-1.25 0.5-0.813 0.75-1.813 0.75-2.938 0-1.313-0.25-2.688-0.813-3.375-0.625-0.875-1.625-1.625-3-1.625h-1.813v-0.5l4.5-6.688h-4.75l-5.375 17.938h-0.313l-3.938-13.313-3.938 13.313h-0.25l-6.313-20.375h2.75l3.813 13.063 2.563-8.75-1.25-4.313z"></path>
</svg>
