<?xml version="1.0" encoding="utf-8"?>
<!DOCTYPE svg PUBLIC "-//W3C//DTD SVG 1.1//EN" "http://www.w3.org/Graphics/SVG/1.1/DTD/svg11.dtd">
<svg version="1.1" xmlns="http://www.w3.org/2000/svg" xmlns:xlink="http://www.w3.org/1999/xlink" width="32" height="32" viewBox="0 0 32 32">
<path d="M28 8.563h-3.5v-2.938c0-1.313-1.063-2.438-2.375-2.438h-16.5c-1.313 0-2.438 1.125-2.438 2.438v22.375c0 0.438 0.375 0.813 0.813 0.813h24c0.438 0 0.813-0.375 0.813-0.813v-18.688c0-0.438-0.375-0.75-0.813-0.75zM5.625 4.25h16.5c0.75 0 1.313 0.625 1.313 1.375v2.938h-19.188v-2.938c0-0.75 0.625-1.375 1.375-1.375zM27.75 27.75h-23.5v-18.125h23.5zM20.25 18.688c0 1.438 1.188 2.625 2.688 2.625 1.438 0 2.688-1.188 2.688-2.625 0-1.5-1.25-2.688-2.688-2.688-1.5 0-2.688 1.188-2.688 2.688zM24.5 18.688c0 0.875-0.688 1.563-1.563 1.563s-1.625-0.688-1.625-1.563c0-0.875 0.75-1.625 1.625-1.625s1.563 0.75 1.563 1.625z"></path>
</svg>
