<?xml version="1.0" encoding="utf-8"?>
<!DOCTYPE svg PUBLIC "-//W3C//DTD SVG 1.1//EN" "http://www.w3.org/Graphics/SVG/1.1/DTD/svg11.dtd">
<svg version="1.1" xmlns="http://www.w3.org/2000/svg" xmlns:xlink="http://www.w3.org/1999/xlink" width="32" height="32" viewBox="0 0 32 32">
<path d="M32 16.625h-1.25v-7.688h-17.938c0-2.125-1.688-3.813-3.875-3.813-2.125 0-3.813 1.688-3.813 3.813h-5.125v23.063h30.75v-7.688h1.25zM8.938 6.375c1.438 0 2.563 1.188 2.563 2.563h-5.125c0-1.375 1.188-2.563 2.563-2.563zM29.438 30.75h-28.188v-20.5h28.188v6.375h-10.25v7.688h10.25zM30.75 23.063h-10.25v-5.125h10.25zM24.063 20.5c0 0.563-0.438 1-1 1s-1.063-0.438-1.063-1c0-0.563 0.5-1.063 1.063-1.063s1 0.5 1 1.063zM19.188 7.688c2.188 0 3.875-1.688 3.875-3.813 0-2.188-1.688-3.875-3.875-3.875s-3.813 1.688-3.813 3.813c0 2.188 1.625 3.875 3.813 3.875zM19.188 1.25c1.438 0 2.563 1.188 2.563 2.563 0 1.438-1.125 2.563-2.563 2.563-1.375 0-2.563-1.125-2.563-2.563 0-1.375 1.188-2.563 2.563-2.563z"></path>
</svg>
