<?xml version="1.0" encoding="utf-8"?>
<!DOCTYPE svg PUBLIC "-//W3C//DTD SVG 1.1//EN" "http://www.w3.org/Graphics/SVG/1.1/DTD/svg11.dtd">
<svg version="1.1" xmlns="http://www.w3.org/2000/svg" xmlns:xlink="http://www.w3.org/1999/xlink" width="32" height="32" viewBox="0 0 32 32">
<path d="M5.5 25.5h22c2.563 0 4.5-1.938 4.5-4.5 0-2.25-1.563-4.688-4-5-0.25-5.625-5-10-11-10-5.313 0-9.813 3.313-10.875 8h-0.625c-3 0-5.5 2.75-5.5 6 0 3.125 2.375 5.5 5.5 5.5zM5.5 15h1.438l0.063-0.438c0.813-4.375 5-7.563 10-7.563 5.625 0 10 4.188 10 9.5v0.5h0.5c2.063 0 3.5 2.125 3.5 4 0 2-1.5 3.5-3.5 3.5h-22c-2.563 0-4.5-1.938-4.5-4.5 0-2.688 2.063-5 4.5-5z"></path>
</svg>
