<?xml version="1.0" encoding="utf-8"?>
<!DOCTYPE svg PUBLIC "-//W3C//DTD SVG 1.1//EN" "http://www.w3.org/Graphics/SVG/1.1/DTD/svg11.dtd">
<svg version="1.1" xmlns="http://www.w3.org/2000/svg" xmlns:xlink="http://www.w3.org/1999/xlink" width="32" height="32" viewBox="0 0 32 32">
<path d="M16 0c-4.25 0-8.313 1.688-11.313 4.688-6.25 6.25-6.25 16.375 0 22.625 3 3 7.063 4.688 11.313 4.688s8.313-1.688 11.313-4.688c6.25-6.25 6.25-16.375 0-22.625-3-3-7.063-4.688-11.313-4.688zM26.625 26.625c-2.875 2.813-6.625 4.375-10.625 4.375s-7.75-1.563-10.625-4.375c-5.813-5.875-5.813-15.375 0-21.25 2.875-2.813 6.625-4.375 10.625-4.375s7.75 1.563 10.625 4.375c5.813 5.875 5.813 15.375 0 21.25zM16 18.5c0.688 0 1.313-0.25 1.75-0.75 1-0.938 1-2.563 0-3.5-0.438-0.5-1.063-0.75-1.75-0.75s-1.313 0.25-1.75 0.75c-1 0.938-1 2.563 0 3.5 0.438 0.5 1.063 0.75 1.75 0.75zM14.938 14.938c0.313-0.313 0.688-0.438 1.063-0.438s0.75 0.125 1.063 0.438c0.563 0.563 0.563 1.563 0 2.125s-1.563 0.563-2.125 0c-0.563-0.563-0.563-1.563 0-2.125zM11.375 11.375c-2.5 2.563-2.5 6.688 0 9.25 1.25 1.188 2.875 1.875 4.625 1.875s3.375-0.688 4.625-1.875c2.375-2.438 4.313-12.625 4.375-13.063l0.125-0.688-0.688 0.125c-0.438 0.063-10.625 2-13.063 4.375zM19.875 19.875c-1 1.063-2.375 1.625-3.875 1.625s-2.875-0.563-3.875-1.625c-2.188-2.125-2.188-5.625 0-7.75 1.688-1.688 8.5-3.375 11.75-4-0.625 3.25-2.313 10.063-4 11.75z"></path>
</svg>
