<?xml version="1.0" encoding="utf-8"?>
<!DOCTYPE svg PUBLIC "-//W3C//DTD SVG 1.1//EN" "http://www.w3.org/Graphics/SVG/1.1/DTD/svg11.dtd">
<svg version="1.1" xmlns="http://www.w3.org/2000/svg" xmlns:xlink="http://www.w3.org/1999/xlink" width="32" height="32" viewBox="0 0 32 32">
<path d="M5.5 20.5h3.5v-1h-3.5c-2.563 0-4.5-1.938-4.5-4.5 0-2.688 2.063-5 4.5-5h1.438l0.063-0.438c0.813-4.375 5-7.563 10-7.563 5.625 0 10 4.188 10 9.5v0.5h0.5c2.063 0 3.5 2.125 3.5 4 0 2-1.5 3.5-3.5 3.5h-4.5v1h4.5c2.563 0 4.5-1.938 4.5-4.5 0-2.25-1.563-4.688-4-5-0.25-5.625-5-10-11-10-5.313 0-9.813 3.313-10.875 8h-0.625c-3 0-5.5 2.75-5.5 6 0 3.125 2.375 5.5 5.5 5.5zM10.938 21.75l0.813-1.25h3.25v-1h-3.25l-0.813-1.25-0.875 0.5 0.813 1.25-0.813 1.25zM21.063 18.25l-0.813 1.25h-3.25v1h3.25l0.813 1.25 0.875-0.5-0.813-1.25 0.813-1.25zM16 25.125l1.25 0.813 0.5-0.875-1.25-0.813v-3.25h-1v3.25l-1.25 0.813 0.5 0.875zM16 14.875l-1.25-0.813-0.5 0.875 1.25 0.813v3.25h1v-3.25l1.25-0.813-0.5-0.875zM12.688 14.938l-0.313 1.438-1.438 0.313 0.188 1 1.5-0.313 2 2 0.75-0.75-2-2 0.313-1.5zM19.313 25.063l0.313-1.438 1.438-0.313-0.188-1-1.5 0.313-2-2-0.75 0.75 2 2-0.313 1.5zM14.625 20.625l-2 2-1.5-0.313-0.188 1 1.438 0.313 0.313 1.438 1-0.188-0.313-1.5 2-2zM17.375 19.375l2-2 1.5 0.313 0.188-1-1.438-0.313-0.313-1.438-1 0.188 0.313 1.5-2 2z"></path>
</svg>
