<?xml version="1.0" encoding="utf-8"?>
<!DOCTYPE svg PUBLIC "-//W3C//DTD SVG 1.1//EN" "http://www.w3.org/Graphics/SVG/1.1/DTD/svg11.dtd">
<svg version="1.1" xmlns="http://www.w3.org/2000/svg" xmlns:xlink="http://www.w3.org/1999/xlink" width="32" height="32" viewBox="0 0 32 32">
<path d="M1.125 14.75c0.375 0.688 0.938 1.25 1.563 1.75-0.125 0.5-0.188 1-0.188 1.5 0 2.875 2.125 5 5 5h20.5c2.375 0 4-1.625 4-4 0-2.25-1.375-4.625-3.5-4.938-0.25-5.063-4.875-9.063-10.5-9.063-2.063 0-4 0.563-5.563 1.563-1.313-1.625-3.313-2.563-5.438-2.563-0.438 0-0.875 0.063-1.313 0.125l-0.688 0.125 0.375 0.625c0.438 0.625 0.625 1.375 0.625 2.125 0 2.25-1.813 4-4 4-0.438 0-0.875-0.063-1.313-0.188l-0.688-0.25v0.75c0.063 1.25 0.438 2.438 1.125 3.438zM27.5 14.5v0.5h0.5c1.75 0 3 2.125 3 4 0 1.813-1.188 3-3 3h-20.5c-2.375 0-4-1.625-4-4 0-2.5 1.813-4.5 4-4.5h1.438l0.063-0.438c0.75-4.063 4.563-7.063 9-7.063 5.25 0 9.5 3.813 9.5 8.5zM2 12c2.75 0 5-2.188 5-5 0-0.688-0.125-1.375-0.438-2 0.125 0 0.313 0 0.438 0 1.813 0 3.438 0.813 4.625 2.125-1.75 1.375-3 3.188-3.5 5.375h-0.625c-1.938 0-3.625 1.25-4.438 3-0.438-0.375-0.813-0.813-1.125-1.25-0.438-0.688-0.75-1.5-0.875-2.313 0.313 0.063 0.625 0.063 0.938 0.063zM10.438 24.25l-4 7-0.875-0.5 4-7zM15.438 24.25l-4 7-0.875-0.5 4-7zM20.438 24.25l-4 7-0.875-0.5 4-7zM25.438 24.25l-4 7-0.875-0.5 4-7z"></path>
</svg>
