<?xml version="1.0" encoding="utf-8"?>
<!DOCTYPE svg PUBLIC "-//W3C//DTD SVG 1.1//EN" "http://www.w3.org/Graphics/SVG/1.1/DTD/svg11.dtd">
<svg version="1.1" xmlns="http://www.w3.org/2000/svg" xmlns:xlink="http://www.w3.org/1999/xlink" width="32" height="32" viewBox="0 0 32 32">
<path d="M16 0c-8.813 0-16 7.188-16 16s7.188 16 16 16c8.813 0 16-7.188 16-16s-7.188-16-16-16zM16 31c-8.25 0-15-6.75-15-15s6.75-15 15-15c8.25 0 15 6.75 15 15s-6.75 15-15 15zM13.5 16c0 1.375 1.125 2.5 2.5 2.5s2.5-1.125 2.5-2.5c0-1.375-1.125-2.5-2.5-2.5s-2.5 1.125-2.5 2.5zM17.5 16c0 0.813-0.688 1.5-1.5 1.5s-1.5-0.688-1.5-1.5c0-0.813 0.688-1.5 1.5-1.5s1.5 0.688 1.5 1.5zM16 2.563l-0.438 0.688c-0.25 0.375-6.063 9.313-6.063 12.75 0 3.563 2.938 6.5 6.5 6.5s6.5-2.938 6.5-6.5c0-3.438-5.813-12.375-6.063-12.75zM16 21.5c-3.063 0-5.5-2.438-5.5-5.5 0-2.375 3.625-8.625 5.5-11.563 1.875 2.938 5.5 9.188 5.5 11.563 0 3.063-2.438 5.5-5.5 5.5z"></path>
</svg>
