<?xml version="1.0" encoding="utf-8"?>
<!DOCTYPE svg PUBLIC "-//W3C//DTD SVG 1.1//EN" "http://www.w3.org/Graphics/SVG/1.1/DTD/svg11.dtd">
<svg version="1.1" xmlns="http://www.w3.org/2000/svg" xmlns:xlink="http://www.w3.org/1999/xlink" width="32" height="32" viewBox="0 0 32 32">
<path d="M28.5 14.063c-0.25-5.063-4.875-9.063-10.5-9.063-1 0-1.938 0.125-2.813 0.375-1.25-0.875-2.688-1.375-4.188-1.375-3.875 0-7 3.125-7 7 0 1.063 0.25 1.813 0.625 2.5-1.313 1-2.125 2.625-2.125 4.5 0 2.875 2.125 5 5 5h20.5c2.375 0 4-1.625 4-4 0-2.25-1.375-4.625-3.5-4.938zM5 11c0-3.313 2.688-6 6-6 1.063 0 2.063 0.25 3 0.813-2.938 1.188-5.188 3.625-5.875 6.688h-0.625c-0.75 0-1.375 0.188-2 0.5-0.375-0.625-0.5-1.188-0.5-2zM28 22h-20.5c-2.375 0-4-1.625-4-4 0-2.5 1.813-4.5 4-4.5h1.438l0.063-0.438c0.75-4.063 4.563-7.063 9-7.063 5.25 0 9.5 3.813 9.5 8.5v0.5h0.5c1.75 0 3 2.125 3 4 0 1.813-1.188 3-3 3zM0 10.5h3v1h-3zM10.5 0h1v3h-1zM2.375 1.625l3 3-0.75 0.75-3-3zM9.563 23.75l0.875 0.5-4 7-0.875-0.5zM10.563 30.75l4-7 0.875 0.5-4 7zM15.563 30.75l4-7 0.875 0.5-4 7zM20.563 30.75l4-7 0.875 0.5-4 7z"></path>
</svg>
