<?xml version="1.0" encoding="utf-8"?>
<!DOCTYPE svg PUBLIC "-//W3C//DTD SVG 1.1//EN" "http://www.w3.org/Graphics/SVG/1.1/DTD/svg11.dtd">
<svg version="1.1" xmlns="http://www.w3.org/2000/svg" xmlns:xlink="http://www.w3.org/1999/xlink" width="32" height="32" viewBox="0 0 32 32">
<path d="M16 0c-4.25 0-8.313 1.688-11.313 4.688-6.25 6.25-6.25 16.375 0 22.625 3 3 7.063 4.688 11.313 4.688s8.313-1.688 11.313-4.688c6.25-6.25 6.25-16.375 0-22.625-3-3-7.063-4.688-11.313-4.688zM26.625 26.625c-2.875 2.813-6.625 4.375-10.625 4.375s-7.75-1.563-10.625-4.375c-5.813-5.875-5.813-15.375 0-21.25 2.875-2.813 6.625-4.375 10.625-4.375s7.75 1.563 10.625 4.375c5.813 5.875 5.813 15.375 0 21.25zM16 13.5c-0.688 0-1.313 0.25-1.75 0.75-1 0.938-1 2.563 0 3.5 0.438 0.5 1.063 0.75 1.75 0.75s1.313-0.25 1.75-0.75c1-0.938 1-2.563 0-3.5-0.438-0.5-1.063-0.75-1.75-0.75zM17.063 17.063c-0.563 0.563-1.563 0.563-2.125 0s-0.563-1.563 0-2.125c0.313-0.313 0.688-0.438 1.063-0.438s0.75 0.125 1.063 0.438c0.563 0.563 0.563 1.563 0 2.125zM20.625 11.375c-1.25-1.188-2.875-1.875-4.625-1.875s-3.375 0.688-4.625 1.875c-1.188 1.25-1.875 2.875-1.875 4.625s0.688 3.375 1.875 4.625c2.438 2.375 12.625 4.313 13.063 4.375l0.688 0.125-0.125-0.688c-0.063-0.438-2-10.625-4.375-13.063zM12.125 19.875c-1.063-1-1.625-2.438-1.625-3.875 0-1.5 0.563-2.875 1.625-3.875 1-1.063 2.375-1.625 3.875-1.625s2.875 0.563 3.875 1.625c1.688 1.688 3.313 8.5 4 11.75-3.25-0.688-10.063-2.313-11.75-4z"></path>
</svg>
