<?xml version="1.0" encoding="utf-8"?>
<!DOCTYPE svg PUBLIC "-//W3C//DTD SVG 1.1//EN" "http://www.w3.org/Graphics/SVG/1.1/DTD/svg11.dtd">
<svg version="1.1" xmlns="http://www.w3.org/2000/svg" xmlns:xlink="http://www.w3.org/1999/xlink" width="32" height="32" viewBox="0 0 32 32">
<path d="M30.375 15.75c0 7.75-6.313 14.063-14.125 14.063-2.438 0-4.813-0.688-6.813-1.75l-7.813 2.438 2.5-7.5c-1.25-2.125-2-4.563-2-7.25 0-7.75 6.313-14 14.125-14s14.125 6.25 14.125 14zM16.25 3.938c-6.563 0-11.875 5.313-11.875 11.813 0 2.563 0.813 5 2.25 6.938l-1.5 4.375 4.625-1.438c1.875 1.188 4.125 1.938 6.5 1.938 6.563 0 11.875-5.313 11.875-11.813s-5.313-11.813-11.875-11.813zM23.375 19c-0.063-0.125-0.313-0.25-0.625-0.438-0.375-0.125-2.063-1-2.375-1.063-0.313-0.125-0.563-0.188-0.813 0.125-0.188 0.375-0.875 1.125-1.063 1.375s-0.438 0.25-0.75 0.063c-0.375-0.188-1.5-0.5-2.813-1.688-1-0.938-1.688-2.063-1.938-2.375-0.188-0.375 0-0.563 0.188-0.688 0.125-0.188 0.313-0.438 0.5-0.625s0.25-0.375 0.375-0.563c0.125-0.25 0.063-0.438-0.063-0.625-0.063-0.188-0.75-1.875-1.063-2.563-0.25-0.688-0.563-0.563-0.75-0.563-0.25 0-0.438 0-0.688 0s-0.625 0.063-0.938 0.438c-0.313 0.313-1.188 1.125-1.188 2.813 0 1.75 1.25 3.375 1.375 3.563 0.188 0.25 2.438 3.813 5.938 5.188 3.563 1.375 3.563 0.938 4.188 0.875s2.063-0.813 2.313-1.625c0.313-0.813 0.313-1.5 0.188-1.625z"></path>
</svg>
