<?xml version="1.0" encoding="utf-8"?>
<!DOCTYPE svg PUBLIC "-//W3C//DTD SVG 1.1//EN" "http://www.w3.org/Graphics/SVG/1.1/DTD/svg11.dtd">
<svg version="1.1" xmlns="http://www.w3.org/2000/svg" xmlns:xlink="http://www.w3.org/1999/xlink" width="32" height="32" viewBox="0 0 32 32">
<path d="M30.375 6.063c0 0-4.438 0-5.938 0l-0.438 0.063v0.625c0 0.063 0.188 0.125 0.25 0.125 0.063 0.063 0.188 0.063 0.25 0.063l0.563 0.063c0.625 0 0.813 0.125 1.063 0.375 0.188 0.25 0.25 0.625 0.063 1.188l-5.25 13.75-0.188-0.063-3.375-7.563c0.063-0.063 0.063-0.125 0.063-0.125l2.75-5.625c0.313-0.625 0.625-1.125 0.813-1.375 0.25-0.5 0.375-0.563 1.188-0.625 0.125 0 0.188-0.063 0.188-0.188v-0.625c0 0-3.313-0.063-4.75 0v0 0.625c0 0.063-0.063 0.125 0 0.125 0.063 0.063 0.063 0.063 0.125 0.063l0.25 0.063c0.563 0 0.875 0.188 0.938 0.313 0.125 0.188 0.188 0.375-0.125 1.25l-2.125 4.625-1.875-4.313c-0.625-1.375-0.813-1.75 0.125-1.875l0.25-0.063c0.188 0 0.188-0.063 0.188-0.188v-0.625h-0.063c0 0-3.438 0-5.063 0v0.625c0 0.125 0.125 0.188 0.375 0.25 0.875 0.125 0.875 0.188 1.75 2.125 0.125 0.25 0.5 1.125 0.5 1.125l2 4.25c0 0 0.188 0.563 0.563 1.438l-2.875 6.313-0.188-0.063c0 0-4.438-10.375-5.75-13.813-0.125-0.375-0.188-0.625-0.188-0.813 0-0.313 0.25-0.563 0.875-0.563h0.875c0.188 0 0.438-0.125 0.438-0.25v-0.563l-0.25-0.063c0 0-5.5 0-6.563 0l-0.188 0.063v0.563c0 0.125 0.125 0.188 0.375 0.25 0.688 0 1.125 0.125 1.375 0.313 0.188 0.25 0.438 0.75 0.688 1.5 1.688 4.313 5.125 12 6.813 16.375 0.5 1.188 1.063 1.375 1.813-0.063 0.75-1.563 2.313-5 3.438-7.563 1.063 2.563 2.438 6 3.125 7.563 0.563 1.25 1.188 1.375 1.813 0 1.688-4.063 6.5-16.188 6.5-16.188 0.25-0.625 0.5-1.063 0.875-1.438 0.375-0.313 0.938-0.5 1.75-0.563 0.125 0 0.188-0.063 0.188-0.188v-0.625z"></path>
</svg>
