<?xml version="1.0" encoding="utf-8"?>
<!DOCTYPE svg PUBLIC "-//W3C//DTD SVG 1.1//EN" "http://www.w3.org/Graphics/SVG/1.1/DTD/svg11.dtd">
<svg version="1.1" xmlns="http://www.w3.org/2000/svg" xmlns:xlink="http://www.w3.org/1999/xlink" width="32" height="32" viewBox="0 0 32 32">
<path d="M7.5 4.313c1.813-0.75 3.375-1.063 4.813-1.125 0.813 0 1.5 0.125 2.188 0.25 1.063 0.25 2.5 1.063 3.063 1.375l-2.625 8.875c-1.313-0.875-2.938-1.688-5.125-1.688v0c-1.438 0-3 0.313-4.813 1zM11.563 25.625c0.625-2.188 2.188-7.438 2.688-9-0.375-0.25-0.688-0.438-1.063-0.625-1.313-0.688-2.625-1.063-3.875-1.063-0.188 0-0.313 0.063-0.5 0.063-1.563 0.125-3 0.5-3.938 0.875-0.25 0.063-0.5 0.125-0.75 0.25l-2.5 8.75c1.688-0.688 3.25-1 4.625-1 2.313 0 3.938 0.875 5.313 1.75zM26.938 19.125c-1.625 0.5-3.25 0.813-4.688 0.813-2.688 0-4.625-0.875-5.813-1.75l-2.5 8.813c0.75 0.438 3.25 1.813 5.188 1.813 1.625 0 3.375-0.438 5.375-1.25zM30.375 7.188c-1.625 0.688-3.25 1-4.813 1-2.563 0-4.438-0.875-5.688-1.75l-2.563 8.875c1.688 1.125 3.563 1.688 5.563 1.688 1.563 0 3.25-0.375 4.938-1.125v-0.063h0.063z"></path>
</svg>
