<?xml version="1.0" encoding="utf-8"?>
<!DOCTYPE svg PUBLIC "-//W3C//DTD SVG 1.1//EN" "http://www.w3.org/Graphics/SVG/1.1/DTD/svg11.dtd">
<svg version="1.1" xmlns="http://www.w3.org/2000/svg" xmlns:xlink="http://www.w3.org/1999/xlink" width="32" height="32" viewBox="0 0 32 32">
<path d="M0 0v32h32v-32zM1.313 8h10.688v22.688h-10.688zM30.688 30.688h-17.375v-22.688h17.375zM1.313 6.688v-5.375h29.375v5.375zM5.063 4c0 0.563-0.5 1.063-1.063 1.063s-1.063-0.5-1.063-1.063c0-0.563 0.5-1.063 1.063-1.063s1.063 0.5 1.063 1.063zM8.375 4c0 0.563-0.438 1.063-1.063 1.063-0.563 0-1.063-0.5-1.063-1.063s0.5-1.063 1.063-1.063c0.625 0 1.063 0.5 1.063 1.063zM11.75 4c0 0.563-0.5 1.063-1.063 1.063-0.625 0-1.063-0.5-1.063-1.063s0.438-1.063 1.063-1.063c0.563 0 1.063 0.5 1.063 1.063zM4 10.688h5.313v1.313h-5.313zM4 14.688h5.313v1.313h-5.313zM4 18.688h5.313v1.313h-5.313z"></path>
</svg>
