<?xml version="1.0" encoding="utf-8"?>
<!DOCTYPE svg PUBLIC "-//W3C//DTD SVG 1.1//EN" "http://www.w3.org/Graphics/SVG/1.1/DTD/svg11.dtd">
<svg version="1.1" xmlns="http://www.w3.org/2000/svg" xmlns:xlink="http://www.w3.org/1999/xlink" width="32" height="32" viewBox="0 0 32 32">
<path d="M17.313 1.625l-5.563 5.625c-3.438 3.438-3.5 8.875-0.375 12.438l-4.563 4.5-4.5-4.5-0.813 0.875 9.813 9.813 0.75-0.75-4.563-4.563 4.563-4.5c3.563 3.125 9 3 12.438-0.375l3-3h0.063v-0.125l2.563-2.563-12.813-12.875zM23.75 19.438c-3.125 3.063-8.25 3.063-11.313 0-0.688-0.688-1.188-1.438-1.625-2.25h15.188zM27.063 16.063h-16.625c-0.813-2.75-0.125-5.813 2-8l4.875-4.875 11.313 11.313-1.563 1.563z"></path>
</svg>
