<?xml version="1.0" encoding="utf-8"?>
<!DOCTYPE svg PUBLIC "-//W3C//DTD SVG 1.1//EN" "http://www.w3.org/Graphics/SVG/1.1/DTD/svg11.dtd">
<svg version="1.1" xmlns="http://www.w3.org/2000/svg" xmlns:xlink="http://www.w3.org/1999/xlink" width="32" height="32" viewBox="0 0 32 32">
<path d="M1.625 2.5c2.563 0 5.125 0 7.688 0 0.25 4.875 1 8.313 1.375 12.813 0.563-3.375 0.938-8.625 1.438-12.813 2.563 0 5.188 0 7.75 0 0.125 5 0.5 7.688 0.688 12.75 0.813-3.813 1.5-8.438 2.125-12.75 2.563 0 5.125 0 7.688 0-1.25 9-2.063 18.375-3.5 27.25-3 0-6.063 0-9.125 0-0.438-3.188-0.938-6.563-1.438-10.438-0.688 3.438-1.375 7.125-2.063 10.438-3.063 0-6.063 0-9.125 0-1.438-8.875-2.688-17.813-3.5-27.25z"></path>
</svg>
