<?xml version="1.0" encoding="utf-8"?>
<!DOCTYPE svg PUBLIC "-//W3C//DTD SVG 1.1//EN" "http://www.w3.org/Graphics/SVG/1.1/DTD/svg11.dtd">
<svg version="1.1" xmlns="http://www.w3.org/2000/svg" xmlns:xlink="http://www.w3.org/1999/xlink" width="32" height="32" viewBox="0 0 32 32">
<path d="M3.25 8.938c2.375-4.438 7.188-7.375 12.75-7.375 3.625 0 6.875 1.5 9.375 3.688-0.688-0.125-1.5 0-2.25 0.438-1.875 1.063-2.5 4.125-0.063 5.625 1.5 0.938 2 3.313 2 4.75-0.063 1.438-3.5 8-3.5 8l-3.375-11.5c0 0-0.125-0.813-0.125-1.063s0.125-0.625 0.313-0.813c0.125-0.188 0.313-0.438 0.5-0.438h1.625v-1.313h-8.688v1.313h0.313c0.25 0 0.563 0.375 0.813 0.625 0.313 0.375 0.688 1.563 1.188 2.813l1.25 4.188-2.688 6.25-3-12.5c0 0 0.125-0.875 0.313-1 0.063-0.125 0.25-0.375 0.5-0.375h0.063v-1.313zM4.938 11.125c0 0-0.688-0.875-1.438-0.875h-0.75c-0.75 1.563-1.125 3.75-1.125 5.688 0 5.938 3.625 11 8.813 13.188zM28.375 8.875c0.313 1.25 0.25 2.875-0.313 4.563-1.375 4.5-4.813 12.625-6.188 15.75 5.063-2.25 8.5-7.25 8.5-13.063 0-2.688-0.688-5.125-2-7.25zM16.313 21l-3.688 9c1.063 0.25 2.188 0.438 3.375 0.438s2.375-0.188 3.5-0.438z"></path>
</svg>
