<?xml version="1.0" encoding="utf-8"?>
<!DOCTYPE svg PUBLIC "-//W3C//DTD SVG 1.1//EN" "http://www.w3.org/Graphics/SVG/1.1/DTD/svg11.dtd">
<svg version="1.1" xmlns="http://www.w3.org/2000/svg" xmlns:xlink="http://www.w3.org/1999/xlink" width="32" height="32" viewBox="0 0 32 32">
<path d="M1.625 16c0 7.938 6.438 14.375 14.375 14.375s14.375-6.438 14.375-14.375c0-7.938-6.438-14.375-14.375-14.375s-14.375 6.438-14.375 14.375zM2.688 16c0-1.938 0.438-3.75 1.188-5.438l6.313 17.375c-4.438-2.125-7.5-6.688-7.5-11.938zM16 29.313c-1.313 0-2.563-0.188-3.75-0.563l4-11.563 4.063 11.188c0.063 0.063 0.063 0.125 0.125 0.188-1.375 0.438-2.875 0.75-4.438 0.75zM26.75 15.75c0.75-1.875 1-3.438 1-4.75 0-0.5 0-0.938-0.063-1.375 1 1.875 1.625 4.063 1.625 6.375 0 4.875-2.688 9.188-6.625 11.5zM23.875 11.688c0.5 0.875 1.125 2 1.125 3.625 0 1.125-0.375 2.563-1.063 4.313l-1.313 4.438-4.813-14.313c0.813 0 1.563-0.125 1.563-0.125 0.688-0.063 0.625-1.125-0.125-1.063 0 0-2.125 0.125-3.5 0.125-1.313 0-3.5-0.125-3.5-0.125-0.75-0.063-0.813 1.063-0.125 1.063 0 0 0.688 0.125 1.438 0.125l2.063 5.688-2.938 8.75-4.813-14.438c0.813 0 1.5-0.125 1.5-0.125 0.75-0.063 0.625-1.125-0.063-1.063 0 0-2.188 0.125-3.563 0.125-0.25 0-0.563 0-0.875 0 2.375-3.625 6.5-6 11.125-6 3.438 0 6.625 1.375 9 3.5-0.063 0-0.125 0-0.188 0-1.313 0-2.25 1.125-2.25 2.375 0 1.063 0.625 2 1.313 3.125z"></path>
</svg>
