<?xml version="1.0" encoding="utf-8"?>
<!DOCTYPE svg PUBLIC "-//W3C//DTD SVG 1.1//EN" "http://www.w3.org/Graphics/SVG/1.1/DTD/svg11.dtd">
<svg version="1.1" xmlns="http://www.w3.org/2000/svg" xmlns:xlink="http://www.w3.org/1999/xlink" width="32" height="32" viewBox="0 0 32 32">
<path d="M16 0c-8.813 0-16 7.188-16 16s7.188 16 16 16c8.813 0 16-7.188 16-16s-7.188-16-16-16zM12.125 24h7.75c-1.188 3.063-2.938 5.188-3.875 6.125-0.938-0.938-2.688-3.063-3.875-6.125zM11.625 22.688c-0.563-1.75-0.938-3.75-0.938-6h10.625c0 2.25-0.375 4.25-0.938 6zM1.313 16.688h8c0 2.25 0.438 4.25 0.938 6h-7.313c-0.938-1.875-1.5-3.875-1.625-6zM19.875 8h-7.625c1.063-3.063 2.813-5.063 3.75-6.125 0.938 1.063 2.688 3.063 3.875 6.125zM20.25 9.313c0.563 1.75 0.938 3.75 1.063 6h-10.625c0-2.25 0.375-4.25 1.063-6zM9.313 15.313h-8c0.125-2.125 0.688-4.125 1.625-6h7.313c-0.5 1.75-0.813 3.75-0.938 6zM22.688 16.688h8c-0.125 2.125-0.688 4.125-1.625 6h-7.313c0.5-1.75 0.813-3.75 0.938-6zM22.688 15.313c0-2.25-0.438-4.25-0.938-6h7.313c0.938 1.875 1.5 3.875 1.625 6zM28.25 8h-7.063c-1.188-3.063-2.625-5.313-3.875-6.563 4.688 0.438 8.563 2.938 10.938 6.563zM14.688 1.438c-1.25 1.375-2.688 3.5-3.875 6.563h-7.063c2.375-3.625 6.25-6.125 10.938-6.563zM3.75 24h6.938c1.063 3.063 2.625 5.313 3.875 6.563-4.563-0.438-8.438-2.938-10.813-6.563zM17.438 30.563c1.25-1.375 2.813-3.5 3.875-6.563h6.938c-2.375 3.625-6.25 6.125-10.813 6.563z"></path>
</svg>
