<?xml version="1.0" encoding="utf-8"?>
<!DOCTYPE svg PUBLIC "-//W3C//DTD SVG 1.1//EN" "http://www.w3.org/Graphics/SVG/1.1/DTD/svg11.dtd">
<svg version="1.1" xmlns="http://www.w3.org/2000/svg" xmlns:xlink="http://www.w3.org/1999/xlink" width="32" height="32" viewBox="0 0 32 32">
<path d="M7.625 14.188c0 5.5 4.5 9.938 10 9.938s9.938-4.438 9.938-9.938c0-5.5-4.438-10-9.938-10s-10 4.5-10 10zM17.625 5.25c4.938 0 8.938 4 8.938 8.938 0 4.875-4 8.875-8.938 8.875s-8.938-4-8.938-8.875c0-4.938 4-8.938 8.938-8.938zM23.563 25.875l0.5 1 0.938-0.438-1.438-2.875-0.938 0.438 0.5 0.938c-1.688 0.813-3.625 1.313-5.5 1.313-6.688 0-12.063-5.438-12.063-12.063 0-4.563 2.563-8.75 6.563-10.75l0.5 0.938 0.938-0.438-1.438-2.875-0.938 0.438 0.5 1c-4.375 2.188-7.188 6.75-7.188 11.688 0 7.063 5.625 12.813 12.625 13.063v1.625c-2.438 0.063-4.688 0.813-6.625 2.063h2.188c1.5-0.688 3.188-1.063 4.938-1.063 1.688 0 3.375 0.375 4.875 1.063h2.188c-1.938-1.25-4.188-2-6.563-2.063v-1.625c1.938-0.063 3.75-0.563 5.438-1.375z"></path>
</svg>
