<?xml version="1.0" encoding="utf-8"?>
<!DOCTYPE svg PUBLIC "-//W3C//DTD SVG 1.1//EN" "http://www.w3.org/Graphics/SVG/1.1/DTD/svg11.dtd">
<svg version="1.1" xmlns="http://www.w3.org/2000/svg" xmlns:xlink="http://www.w3.org/1999/xlink" width="32" height="32" viewBox="0 0 32 32">
<path d="M15.5 0c-8.563 0-15.5 6.938-15.5 15.5s6.938 15.5 15.5 15.5c8.563 0 15.5-6.938 15.5-15.5s-6.938-15.5-15.5-15.5zM29 15h-6c-0.063-2.188-0.5-4.313-1.188-6.25 1.375-0.563 2.625-1.313 3.75-2.188 2 2.25 3.313 5.188 3.438 8.438zM14.938 29c-1.625-1.438-3.063-3.188-4.063-5.313 1.313-0.375 2.688-0.625 4.125-0.688v6c0 0-0.063 0-0.063 0zM16.063 2c1.875 1.625 3.438 3.688 4.438 6.125-1.438 0.5-2.938 0.813-4.5 0.875v-7c0 0 0.063 0 0.063 0zM17.688 2.188c2.813 0.5 5.25 1.75 7.188 3.625-1.063 0.813-2.188 1.5-3.438 2-0.875-2.188-2.188-4.063-3.75-5.625zM15 2v7c-1.563-0.063-3.063-0.375-4.5-0.875 1-2.438 2.563-4.5 4.438-6.125 0 0 0.063 0 0.063 0zM9.563 7.813c-1.25-0.5-2.375-1.188-3.438-2 1.938-1.875 4.375-3.125 7.188-3.625-1.563 1.563-2.875 3.438-3.75 5.625zM10.125 9.063c1.5 0.563 3.188 0.875 4.875 0.938v5h-6c0.063-2.125 0.438-4.125 1.125-5.938zM15 16v6c-1.563 0.063-3.125 0.313-4.563 0.813-0.813-2.063-1.375-4.375-1.438-6.813zM13.313 28.813c-2.5-0.438-4.75-1.5-6.563-3.063 1-0.688 2.063-1.25 3.188-1.688 0.875 1.813 2 3.375 3.375 4.75zM16 29v-6c1.438 0.063 2.813 0.313 4.125 0.688-1 2.125-2.438 3.875-4.063 5.313 0 0-0.063 0-0.063 0zM21.063 24.063c1.125 0.438 2.188 1 3.188 1.688-1.813 1.563-4.063 2.625-6.563 3.063 1.375-1.375 2.5-2.938 3.375-4.75zM20.563 22.813c-1.438-0.5-3-0.75-4.563-0.813v-6h6c-0.063 2.438-0.625 4.75-1.438 6.813zM16 15v-5c1.688-0.063 3.375-0.375 4.875-0.938 0.688 1.813 1.063 3.875 1.125 5.938h-6zM5.438 6.563c1.125 0.875 2.375 1.625 3.75 2.188-0.688 1.938-1.125 4.063-1.188 6.25h-6c0.125-3.25 1.438-6.188 3.438-8.438zM2 16h6c0.063 2.563 0.625 4.938 1.5 7.125-1.25 0.5-2.438 1.188-3.5 1.938-2.375-2.313-3.875-5.5-4-9.063zM25 25.063c-1.063-0.75-2.25-1.438-3.5-1.938 0.875-2.188 1.438-4.563 1.5-7.125h6c-0.125 3.563-1.625 6.75-4 9.063z"></path>
</svg>
