<?xml version="1.0" encoding="utf-8"?>
<!DOCTYPE svg PUBLIC "-//W3C//DTD SVG 1.1//EN" "http://www.w3.org/Graphics/SVG/1.1/DTD/svg11.dtd">
<svg version="1.1" xmlns="http://www.w3.org/2000/svg" xmlns:xlink="http://www.w3.org/1999/xlink" width="32" height="32" viewBox="0 0 32 32">
<path d="M15.625 10.813h-1.063v6l3.313 3.313 0.75-0.75-3-3zM29.938 9.688l-7.438-7.438-5.563 5.625c-0.563-0.125-1.188-0.188-1.813-0.188-4.938 0-8.938 4-8.938 8.875 0 0.625 0.063 1.25 0.188 1.875l-3.875 3.875 1.563 6 5.875 1.438 4.25-4.313c0.313 0.063 0.625 0.063 0.938 0.063 4.875 0 8.875-4 8.875-8.938 0-0.313 0-0.625 0-0.875zM22.5 3.75l5.938 5.938-4.688 4.75c-0.75-2.938-2.875-5.25-5.688-6.25zM9.563 28.563l-4.688-1.125-1.188-4.813 3-3.063c1 2.813 3.375 4.938 6.25 5.688l-3.375 3.313zM15.125 24.438c-4.375 0-7.875-3.5-7.875-7.875 0-4.313 3.5-7.813 7.875-7.813 4.313 0 7.875 3.5 7.875 7.813 0 4.375-3.563 7.875-7.875 7.875z"></path>
</svg>
