<?xml version="1.0" encoding="utf-8"?>
<!DOCTYPE svg PUBLIC "-//W3C//DTD SVG 1.1//EN" "http://www.w3.org/Graphics/SVG/1.1/DTD/svg11.dtd">
<svg version="1.1" xmlns="http://www.w3.org/2000/svg" xmlns:xlink="http://www.w3.org/1999/xlink" width="32" height="32" viewBox="0 0 32 32">
<path d="M16 30.375c7.938 0 14.375-6.438 14.375-14.375s-6.438-14.375-14.375-14.375c-7.938 0-14.375 6.438-14.375 14.375s6.438 14.375 14.375 14.375zM19.688 8.125c1 0 1.875 0.813 1.875 1.875s-0.875 1.875-1.875 1.875c-1.063 0-1.875-0.813-1.875-1.875s0.813-1.875 1.875-1.875zM12.563 8.125c1 0 1.875 0.813 1.875 1.875s-0.875 1.875-1.875 1.875c-1.063 0-1.875-0.813-1.875-1.875s0.813-1.875 1.875-1.875zM5.875 14.125h20.25v3.75h-0.063c-0.375 5.188-4.75 9.313-10.063 9.313s-9.688-4.125-10.063-9.313h-0.063zM24.75 17.5h-17.75v-2.313h17.75v2.313z"></path>
</svg>
