<?xml version="1.0" encoding="utf-8"?>
<!DOCTYPE svg PUBLIC "-//W3C//DTD SVG 1.1//EN" "http://www.w3.org/Graphics/SVG/1.1/DTD/svg11.dtd">
<svg version="1.1" xmlns="http://www.w3.org/2000/svg" xmlns:xlink="http://www.w3.org/1999/xlink" width="32" height="32" viewBox="0 0 32 32">
<path d="M24.813 11.625c-0.75 0.188-7.188 5.188-7.563 6.438-0.125 0.438 0 4.5 0.063 5.125 0.438 0.125 3.5 0 4.063 0.125l-0.063 1.25c-0.563 0-4.438 0-6.688 0-1.125 0-4.75 0.125-5.875 0.063l0.25-1.188c0.563-0.063 3.125 0.125 3.688-0.5 0.25-0.313 0.188-4.188 0.063-4.875-0.188-0.688-5.875-7.75-7.375-8.938h-3.75v-1.75h12.813v0.125c0 0 0 0 0.063 0l-0.063 0.313v1.313h-3.875c1.75 2.563 4.188 5.563 5.25 7.063l5.188-4.688h-3.063l-0.438-1.813h11.25l-0.125 0.125c0.063 0 0.063 0 0.063 0l-0.813 1.188c0 0 0 0 0 0l-0.313 0.5h-2.125c-0.25 0.063-0.5 0.125-0.625 0.125zM28.5 22.75h-1l-1.125-0.125v1.875l0.875 0.063 0.938 0.063zM30.375 13.688c-0.313 0-3.375-0.313-3.75-0.375l0.063 8.063 1.688 0.125z"></path>
</svg>
