<?xml version="1.0" encoding="utf-8"?>
<!DOCTYPE svg PUBLIC "-//W3C//DTD SVG 1.1//EN" "http://www.w3.org/Graphics/SVG/1.1/DTD/svg11.dtd">
<svg version="1.1" xmlns="http://www.w3.org/2000/svg" xmlns:xlink="http://www.w3.org/1999/xlink" width="32" height="32" viewBox="0 0 32 32">
<path d="M8.875 2.938c1.438-1.188 4.25-1.5 5.375-1.25 1.188 0.188 1.75 0.813 1.813 1.625l0.063 10c0 0.75-0.438 1.5-0.938 1.563-0.5 0.125-1.25-0.313-1.625-1l-5.25-8.563c-0.438-0.688-1.25-1 0.563-2.375zM7.125 21.875l5.313-1.813c0.688-0.313 1.375-1 1.438-1.625s-0.438-1.375-1.188-1.688l-5.563-2.188c-0.75-0.313-1.563 0.375-1.813 1.5 0 0-0.125 3.875 0 4.688 0.188 0.75 1.063 1.438 1.813 1.125zM16.313 22.813c0.063-0.75-0.375-1.438-0.875-1.5-0.563-0.063-1.375 0.438-1.875 1l-3.688 4.438c-0.5 0.563-0.25 2 0.438 2.25l3.875 1.375c0.75 0.25 2-0.563 2.063-1.313zM25.5 21.813l-4.625-1.313c-0.75-0.25-1.625-0.188-1.875 0-0.313 0.25-0.25 1.063 0.125 1.688l2.938 5.375c0.375 0.688 1.875 0.563 2.313-0.125 0 0 1.75-2.563 2.063-3.563 0.313-0.938-0.188-1.875-0.938-2.063zM26.625 14.313c-0.25-0.688-1.688-2.688-2.438-3.313-0.813-0.688-1.688-0.625-2.188 0l-3 3.5c-0.5 0.625-0.625 1.563-0.25 2.125 0.313 0.563 1.188 0.875 2 0.688l5.125-0.938c0.938-0.25 0.938-1.375 0.75-2.063z"></path>
</svg>
