<?xml version="1.0" encoding="utf-8"?>
<!DOCTYPE svg PUBLIC "-//W3C//DTD SVG 1.1//EN" "http://www.w3.org/Graphics/SVG/1.1/DTD/svg11.dtd">
<svg version="1.1" xmlns="http://www.w3.org/2000/svg" xmlns:xlink="http://www.w3.org/1999/xlink" width="32" height="32" viewBox="0 0 32 32">
<path d="M31.813 9.313c0.125 2.25 0.188 4.438 0.188 6.688s-0.063 4.438-0.188 6.688c0 2.813-2.063 5.063-4.625 5.063-3.625 0.188-7.375 0.25-11.188 0.25s-7.563-0.063-11.188-0.25c-2.563 0-4.625-2.25-4.625-5.063-0.125-2.25-0.188-4.438-0.188-6.688s0.125-4.438 0.25-6.688c0-2.813 2-5.063 4.563-5.063 3.438-0.188 7-0.25 10.625-0.25h1.125c3.625 0 7.188 0.063 10.625 0.25 2.563 0 4.625 2.25 4.625 5.063zM12.938 22.125l9.063-6.125-9.063-6.188z"></path>
</svg>
