<?xml version="1.0" encoding="utf-8"?>
<!DOCTYPE svg PUBLIC "-//W3C//DTD SVG 1.1//EN" "http://www.w3.org/Graphics/SVG/1.1/DTD/svg11.dtd">
<svg version="1.1" xmlns="http://www.w3.org/2000/svg" xmlns:xlink="http://www.w3.org/1999/xlink" width="32" height="32" viewBox="0 0 32 32">
<path d="M16.563 6h-1.125c-4.063 0-7.375 0.125-10.5 0.25h-0.125c-1.438 0-2.625 1.375-2.625 3.063v0.125c-0.125 2.125-0.188 4.375-0.188 6.563s0.063 4.375 0.188 6.5v0.188c0 0.875 0.313 1.625 0.875 2.25 0.5 0.563 1.063 0.813 1.75 0.813h0.125c3.25 0.125 6.75 0.25 10.375 0.25h1.375c3.625 0 7.063-0.125 10.375-0.25h0.125c0.688 0 1.25-0.25 1.75-0.813 0.563-0.625 0.875-1.375 0.875-2.25v-0.188c0.125-2.125 0.188-4.25 0.188-6.5s-0.063-4.438-0.188-6.563v-0.188c0-1.688-1.188-3.063-2.625-3.063h-0.125c-3.063-0.125-6.438-0.188-10.5-0.188zM16.563 4c3.625 0 7.188 0 10.625 0.188 2.563 0 4.625 2.25 4.625 5.063 0.125 2.25 0.188 4.5 0.188 6.75s-0.063 4.438-0.188 6.688c0 2.813-2.063 5.063-4.625 5.063-3.438 0.188-6.938 0.25-10.5 0.25h-1.375c-3.563 0-7.063-0.063-10.5-0.25-2.563 0-4.625-2.25-4.625-5.063-0.125-2.25-0.188-4.438-0.188-6.688s0.125-4.438 0.25-6.688c0-2.813 2-5.125 4.563-5.125 3.438-0.125 7-0.188 10.625-0.188zM12.938 22.125v-12.313l9.063 6.188z"></path>
</svg>
