<?xml version="1.0" encoding="utf-8"?>
<!DOCTYPE svg PUBLIC "-//W3C//DTD SVG 1.1//EN" "http://www.w3.org/Graphics/SVG/1.1/DTD/svg11.dtd">
<svg version="1.1" xmlns="http://www.w3.org/2000/svg" xmlns:xlink="http://www.w3.org/1999/xlink" width="32" height="32" viewBox="0 0 32 32">
<path d="M24.313 22.688h-1.563v-0.938c0-0.438 0.313-0.75 0.75-0.75h0.063c0.438 0 0.75 0.313 0.75 0.75zM18.375 20.688c-0.375 0-0.75 0.25-0.75 0.625v4.438c0 0.313 0.375 0.625 0.75 0.625s0.75-0.313 0.75-0.625v-4.438c0-0.375-0.375-0.625-0.75-0.625zM28 18.188v8.5c0 2.063-1.75 3.688-3.938 3.688h-16.125c-2.188 0-3.938-1.625-3.938-3.688v-8.5c0-2 1.75-3.688 3.938-3.688h16.125c2.188 0 3.938 1.688 3.938 3.688zM9 27.625v-8.938h2v-1.313l-5.313-0.063v1.313h1.625v9zM15 20h-1.688v4.75c0 0.75 0.063 1.063 0 1.188-0.125 0.375-0.75 0.75-0.938 0.063-0.063-0.125 0-0.5 0-1.188l-0.063-4.813h-1.625v4.75c0 0.688 0 1.25 0 1.5 0.063 0.438 0 0.938 0.438 1.25 0.75 0.5 2.188-0.125 2.563-0.875v1h1.313v-7.625zM20.313 25.5v-4c0-1.5-1.125-2.438-2.625-1.188v-2.938h-1.688v10.188h1.375l0.125-0.688c1.75 1.625 2.875 0.5 2.813-1.375zM25.563 24.938h-1.25c0 0.063 0 0.125 0 0.188v0.688c0 0.375-0.313 0.688-0.688 0.688h-0.25c-0.375 0-0.688-0.313-0.688-0.688v-1.813h2.875v-1.063c0-0.813 0-1.625-0.063-2.063-0.25-1.438-2.25-1.625-3.25-0.938-0.313 0.25-0.563 0.563-0.688 0.938-0.125 0.438-0.188 1-0.188 1.688v2.375c0 3.938 4.75 3.375 4.188 0zM19.125 12.063c0.125 0.25 0.25 0.375 0.438 0.5s0.375 0.188 0.688 0.188c0.25 0 0.438-0.063 0.625-0.188s0.313-0.313 0.438-0.563v0.625h1.875v-7.938h-1.5v6.188c0 0.313-0.25 0.625-0.625 0.625-0.313 0-0.563-0.313-0.563-0.625v-6.188h-1.563v5.375c0 0.688 0 1.125 0.063 1.375 0 0.188 0.063 0.438 0.125 0.625zM13.5 7.625c0-0.75 0.063-1.375 0.188-1.813s0.375-0.75 0.688-1c0.313-0.25 0.75-0.375 1.25-0.375 0.438 0 0.813 0.063 1.125 0.25 0.313 0.125 0.563 0.375 0.688 0.625 0.188 0.25 0.313 0.563 0.375 0.813 0.063 0.313 0.063 0.75 0.063 1.313v2c0 0.75 0 1.25-0.063 1.625-0.063 0.313-0.188 0.625-0.375 0.938s-0.438 0.5-0.688 0.688c-0.313 0.125-0.625 0.188-1 0.188-0.438 0-0.813-0.063-1.125-0.188-0.25-0.125-0.5-0.313-0.688-0.563-0.125-0.25-0.25-0.5-0.313-0.875-0.063-0.313-0.125-0.875-0.125-1.563v-2.063zM14.938 10.75c0 0.438 0.375 0.813 0.75 0.813 0.438 0 0.75-0.375 0.75-0.813v-4.188c0-0.5-0.313-0.813-0.75-0.813-0.375 0-0.75 0.313-0.75 0.813zM9.813 12.875h1.75v-6.063l2.063-5.188h-1.875l-1.125 3.875-1.125-3.875h-1.875l2.188 5.188z"></path>
</svg>
