<?xml version="1.0" encoding="utf-8"?>
<!DOCTYPE svg PUBLIC "-//W3C//DTD SVG 1.1//EN" "http://www.w3.org/Graphics/SVG/1.1/DTD/svg11.dtd">
<svg version="1.1" xmlns="http://www.w3.org/2000/svg" xmlns:xlink="http://www.w3.org/1999/xlink" width="32" height="32" viewBox="0 0 32 32">
<path d="M5.938 24.375c0.313 0 0.625 0 0.875 0 2.25 0 4.125 0.063 6.125 1.063 1.563 0.813 2.875 2.125 4.375 3 1.438 0.875 3.063 1.75 4.75 1.938 3.438 0.375 4.75-3.688 4.188-6.375-1.5 1.25-3.625 1.188-5.5 0.688-1.875-0.625-4.75-2.5-4.75-2.5v0c-1.313-0.813-2.813-1.5-4.375-1.438 0-0.688 0.063-0.688 0.438-1.188 0.625-0.688 1.188-1.375 1.75-2 1.813-2.125 3.625-4.25 5.5-6.375 1.5-1.75 3.063-3.563 4.625-5.375 0.125-0.188 0.688-0.625 0.688-0.875 0.125-0.813 0.188-1.625 0.313-2.438 0.063-0.563-0.5-0.438-0.5-0.438v0c-2.563 0.563-5.125 0.813-7.688 0.688-1.438-0.063-2.938-0.188-4.25-0.75-0.063 0-0.313-0.125-0.625-0.313-0.375-0.188-0.625-0.063-0.75 0.063s-0.25 0.25-0.313 0.375c-0.688 0.938-1.313 2-1.438 3.188 0 0.25-0.063 0.813 0.063 1.125v0c0 0 0.063 0.063 0.063 0.125 0 0 0.063 0 0.063 0 0.313 0.438 1.75 1.75 7.563 0.625-3.75 4.438-7.5 8.875-11.25 13.25 0 0 0 0 0 0.063-0.25 0.188-0.25 0.625-0.25 0.625 0 0.75 0 1.563 0 2.375 0 0 0 0.188 0 0.375 0.063 0.375 0.25 0.438 0.313 0.5z"></path>
</svg>
