<?xml version="1.0" encoding="utf-8"?>
<!DOCTYPE svg PUBLIC "-//W3C//DTD SVG 1.1//EN" "http://www.w3.org/Graphics/SVG/1.1/DTD/svg11.dtd">
<svg version="1.1" xmlns="http://www.w3.org/2000/svg" xmlns:xlink="http://www.w3.org/1999/xlink" width="32" height="32" viewBox="0 0 32 32">
<path d="M7.438 22.063c0.813 0 2.125-0.688 2.938-1.438 4.375 8.375 5.563 9.75 8.563 9.75 3.25 0 6.563-2.438 6.563-4.688 0-0.75-0.438-1.438-0.813-1.625-1.375 0.75-2.625 1.125-3.688 1.125-1.438 0-2.25-0.625-6.75-7.438 3.438-3.063 5.438-5.063 8.063-8.875 2.25-1.5 3.125-2.875 3.125-4.063 0-1.063-0.875-2.438-2-2.438-0.563 0-1 0.5-1.563 1.438-4.188-1.688-6.125-2.188-8.313-2.188-2 0-3.688 1.813-3.688 3.875 0 1.188 0.5 1.875 1.25 2.125 0.938-0.625 1.75-0.813 2.25-0.813 1.375 0 3.438 0.563 6 1.375-1.25 1.875-4.625 5.375-7 7.313-0.938-0.813-1.5-1.063-2.313-1.063-2.625 0-3.813 3.125-3.813 5.063 0 2 0.5 2.563 1.188 2.563z"></path>
</svg>
