<?xml version="1.0" encoding="utf-8"?>
<!DOCTYPE svg PUBLIC "-//W3C//DTD SVG 1.1//EN" "http://www.w3.org/Graphics/SVG/1.1/DTD/svg11.dtd">
<svg version="1.1" xmlns="http://www.w3.org/2000/svg" xmlns:xlink="http://www.w3.org/1999/xlink" width="32" height="32" viewBox="0 0 32 32">
<path d="M22.75 1.688c0 0 2-0.188 3.563 0.875 0.563-0.063 1 0.188 1.313 0.75 0.25 0.5 0.813 1.813 0.375 2.625-0.125 0.125-0.438-0.5-0.438-0.5s-0.188 0.75-0.625 1.063c0.063 1.625-0.563 2.75-0.75 3.125-0.063 0.188-0.063 0.375 0.063 0.625 0.063 0.188 1.125 4 1.063 5.25s-0.688 2.75-1.188 3.313c0.125 1-0.375 1.938-0.625 2.313-0.25 0.438-0.75 2.063-0.875 2.813-0.188 0.75-0.188 1.563-0.063 1.813 0.188 0.25 0.875 1 0.813 1.375 0 0.375-0.813 0.813-1.188 0.813s-1.125-0.25-1.313-0.75c-0.188-0.5-0.25-1.438-0.125-1.938 0.188-0.5 1.063-4.25 0.563-6.438-1.313 0.563-3.563 0.563-3.563 0.563s-0.375 1.938-0.813 3.063c-0.125 0.313-0.125 2.125-0.125 3.313 0 1.125 0.375 2.938 0.375 2.938s0.563 0.375 0.5 0.875c-0.063 0.563-0.688 0.813-1.25 0.813s-1.313-0.375-1.313-1.125c0-0.688 0.063-2.25 0-3.438 0-1.125 0-1.875-0.188-2.625s-0.75-2.625-0.75-4.125c-0.188 0-0.438-0.125-0.438-0.125s-0.875 1-1.5 1.625c0.125 0.375 0.313 1.125 0.313 1.313 0 0.125 0.188 0.25 0.438 0.375s1.125 0.563 1.063 1c0 0.5-1.063 0.563-2 0.188-0.188-0.125-0.938-2.75-1.063-3.063-0.125-0.375-0.188-0.563-0.063-0.875s0.5-1.25 0.438-1.813c-0.063-0.563-1.063-1.438-1.75-1.438-0.563 0-1.375 0.813-2 1.25-0.688 0.563-1.563 1.438-1.75 1.563s-1.875 3.188-2.25 4.125c-0.125 0.313-0.375 2.063-1.813 2-0.625 0-1.188-0.75 0.625-2 0.438-1.063 1.063-2.188 1.125-2.375 0.063-0.25 0.5-3 1.313-5.625s2-3.875 2.25-4.063c0.188-0.125 0.25-0.188 0.063-0.313s-2.063-1.75-1.688-5.188c0.063-0.438 0.188-0.313 0.313 0.625s0.875 3.063 2.563 3.75c0.125 0.063 1.313-0.813 7.375-1.25 0.063-1.063 0.188-2.188 0.188-2.188s-0.438-0.375-0.5-1c-0.188 0.313-0.313 0.438-0.563 0.375s-0.25-1.313-0.188-2.188c0.063-0.875 1.125-1.25 1.5-1.313 0.5-0.25 1-0.188 1-0.188s0.938-0.938 3.563-0.563z"></path>
</svg>
